<svg xmlns="http://www.w3.org/2000/svg" xmlns:xlink="http://www.w3.org/1999/xlink" contentStyleType="text/css" data-diagram-type="DESCRIPTION" height="906px" preserveAspectRatio="none" style="width:882px;height:906px;background:#000000;" version="1.1" viewBox="0 0 882 906" width="882px" zoomAndPan="magnify"><title>PQCES Actors Overview</title><defs/><g><g class="title" data-source-line="116"><text fill="#FFFFFF" font-family="Verdana" font-size="22" font-weight="bold" lengthAdjust="spacing" textLength="292.1016" x="290.912" y="37.1182">PQCES Actors Overview</text></g><!--entity MP--><g class="entity" data-entity="MP" data-source-line="119" data-uid="ent0002" id="entity_MP"><ellipse cx="780.2206" cy="112.3273" fill="#90EE90" rx="16" ry="16" style="stroke:#000000;stroke-width:1;"/><path d="M780.2206,132.3273 C784.2206,132.3273 787.2206,132.3273 791.2206,128.3273 C799.2206,128.3273 807.2206,136.3273 807.2206,144.3273 L807.2206,148.3273 C807.2206,152.3273 803.2206,156.3273 799.2206,156.3273 L761.2206,156.3273 C757.2206,156.3273 753.2206,152.3273 753.2206,148.3273 L753.2206,144.3273 C753.2206,136.3273 761.2206,128.3273 769.2206,128.3273 C773.2206,132.3273 776.2206,132.3273 780.2206,132.3273" fill="#90EE90" style="stroke:#000000;stroke-width:1;"/><text fill="#FFFFFF" font-family="Verdana" font-size="14" lengthAdjust="spacing" textLength="87.2813" x="736.58" y="171.4025">EMasterPeer</text></g><!--entity MP_CARD--><g class="entity" data-entity="MP_CARD" data-source-line="120" data-uid="ent0003" id="entity_MP_CARD"><rect fill="#000000" height="23.0146" rx="2.5" ry="2.5" style="stroke:#FFFFFF;stroke-width:1;" width="208.4463" x="12" y="123.3273"/><text fill="#FFFFFF" font-family="Verdana" font-size="14" lengthAdjust="spacing" textLength="188.4463" x="22" y="140.4025">EMasterPeer Specifications</text></g><g class="entity" data-entity="GMN4" data-source-line="122" data-uid="ent0005" id="entity_GMN4"><path d="M255.34,58.7373 L255.34,130.8373 L220.86,134.8373 L255.34,138.8373 L255.34,210.9312 A0,0 0 0 0 255.34,210.9312 L701.1125,210.9312 A0,0 0 0 0 701.1125,210.9312 L701.1125,68.7373 L691.1125,58.7373 L255.34,58.7373 A0,0 0 0 0 255.34,58.7373" fill="#FFFFFF" style="stroke:#000000;stroke-width:1;"/><path d="M691.1125,58.7373 L691.1125,68.7373 L701.1125,68.7373 L691.1125,58.7373" fill="#FFFFFF" style="stroke:#000000;stroke-width:1;"/><text fill="#000000" font-family="Verdana" font-size="13" font-weight="bold" lengthAdjust="spacing" textLength="197.6152" x="261.34" y="76.8071">Cryptographic Capabilities:</text><text fill="#000000" font-family="Verdana" font-size="13" lengthAdjust="spacing" textLength="220.1431" x="261.34" y="92.6064">- Kyber-1024 (NIST Level 5) KEM</text><text fill="#000000" font-family="Verdana" font-size="13" lengthAdjust="spacing" textLength="299.8696" x="261.34" y="108.4058">- Dilithium-5 (NIST Level 5) digital signatures</text><text fill="#000000" font-family="Verdana" font-size="13" lengthAdjust="spacing" textLength="4.5703" x="261.34" y="124.2051">&#160;</text><text fill="#000000" font-family="Verdana" font-size="13" font-weight="bold" lengthAdjust="spacing" textLength="75.9624" x="261.34" y="140.0044">Maintains:</text><text fill="#000000" font-family="Verdana" font-size="13" lengthAdjust="spacing" textLength="424.7725" x="261.34" y="155.8037">- Peer certificate registry (public GitHub, Smart Contract &amp; IPFS)</text><text fill="#000000" font-family="Verdana" font-size="13" lengthAdjust="spacing" textLength="243.9976" x="261.34" y="171.603">- Public key directory &amp; trust anchors</text><text fill="#000000" font-family="Verdana" font-size="13" lengthAdjust="spacing" textLength="257.8354" x="261.34" y="187.4023">- Certificate issuance &amp; revocation data</text><text fill="#000000" font-family="Verdana" font-size="13" lengthAdjust="spacing" textLength="213.9604" x="261.34" y="203.2017">- Cryptographic material storage</text></g><!--entity DB--><g class="entity" data-entity="DB" data-source-line="134" data-uid="ent0007" id="entity_DB"><path d="M694.53,804.7073 C694.53,794.7073 780.2278,794.7073 780.2278,794.7073 C780.2278,794.7073 865.9255,794.7073 865.9255,804.7073 L865.9255,830.722 C865.9255,840.722 780.2278,840.722 780.2278,840.722 C780.2278,840.722 694.53,840.722 694.53,830.722 L694.53,804.7073" fill="#FBFF00" style="stroke:#000000;stroke-width:1;"/><path d="M694.53,804.7073 C694.53,814.7073 780.2278,814.7073 780.2278,814.7073 C780.2278,814.7073 865.9255,814.7073 865.9255,804.7073" fill="none" style="stroke:#000000;stroke-width:1;"/><text fill="#000000" font-family="Verdana" font-size="14" lengthAdjust="spacing" textLength="151.3955" x="704.53" y="832.7825">Certificate Repository</text></g><!--entity SYS_CARD--><g class="entity" data-entity="SYS_CARD" data-source-line="135" data-uid="ent0008" id="entity_SYS_CARD"><rect fill="#000000" height="23.0146" rx="2.5" ry="2.5" style="stroke:#FFFFFF;stroke-width:1;" width="171.3955" x="30.53" y="806.2073"/><text fill="#FFFFFF" font-family="Verdana" font-size="14" lengthAdjust="spacing" textLength="151.3955" x="40.53" y="823.2825">Certificate Repository</text></g><g class="entity" data-entity="GMN9" data-source-line="137" data-uid="ent0010" id="entity_GMN9"><path d="M237.4,765.3173 L237.4,813.7173 L202.36,817.7173 L237.4,821.7173 L237.4,870.1132 A0,0 0 0 0 237.4,870.1132 L585.044,870.1132 A0,0 0 0 0 585.044,870.1132 L585.044,775.3173 L575.044,765.3173 L237.4,765.3173 A0,0 0 0 0 237.4,765.3173" fill="#FFFFFF" style="stroke:#000000;stroke-width:1;"/><path d="M575.044,765.3173 L575.044,775.3173 L585.044,775.3173 L575.044,765.3173" fill="#FFFFFF" style="stroke:#000000;stroke-width:1;"/><text fill="#000000" font-family="Verdana" font-size="13" font-weight="bold" lengthAdjust="spacing" textLength="83.9731" x="243.4" y="783.3871">Repository:</text><text fill="#000000" font-family="Verdana" font-size="13" lengthAdjust="spacing" textLength="326.644" x="243.4" y="799.1864">- certificates with Dilithium signatures MasterPeer</text><text fill="#000000" font-family="Verdana" font-size="13" lengthAdjust="spacing" textLength="224.1484" x="243.4" y="814.9858">- Peer IDs (32-byte SHA3 hashes)</text><text fill="#000000" font-family="Verdana" font-size="13" lengthAdjust="spacing" textLength="239.4146" x="243.4" y="830.7851">- Public key chains &amp; revocation lists</text><text fill="#000000" font-family="Verdana" font-size="13" lengthAdjust="spacing" textLength="260.9966" x="243.4" y="846.5844">- Metadata: issuance, expiration, status</text><text fill="#000000" font-family="Verdana" font-size="13" lengthAdjust="spacing" textLength="203.7534" x="243.4" y="862.3837">- GitHub, Smart Contract, IPFS</text></g><!--entity PA--><g class="entity" data-entity="PA" data-source-line="146" data-uid="ent0012" id="entity_PA"><ellipse cx="780.22" cy="300.8273" fill="#87CEEB" rx="16" ry="16" style="stroke:#000000;stroke-width:1;"/><path d="M780.22,320.8273 C784.22,320.8273 787.22,320.8273 791.22,316.8273 C799.22,316.8273 807.22,324.8273 807.22,332.8273 L807.22,336.8273 C807.22,340.8273 803.22,344.8273 799.22,344.8273 L761.22,344.8273 C757.22,344.8273 753.22,340.8273 753.22,336.8273 L753.22,332.8273 C753.22,324.8273 761.22,316.8273 769.22,316.8273 C773.22,320.8273 776.22,320.8273 780.22,320.8273" fill="#87CEEB" style="stroke:#000000;stroke-width:1;"/><text fill="#FFFFFF" font-family="Verdana" font-size="14" lengthAdjust="spacing" textLength="49.5195" x="755.4602" y="359.9025">EPeerA</text></g><!--entity PA_CARD--><g class="entity" data-entity="PA_CARD" data-source-line="147" data-uid="ent0013" id="entity_PA_CARD"><rect fill="#000000" height="23.0146" rx="2.5" ry="2.5" style="stroke:#FFFFFF;stroke-width:1;" width="170.6846" x="30.88" y="311.8273"/><text fill="#FFFFFF" font-family="Verdana" font-size="14" lengthAdjust="spacing" textLength="150.6846" x="40.88" y="328.9025">EPeerA Specifications</text></g><g class="entity" data-entity="GMN14" data-source-line="149" data-uid="ent0015" id="entity_GMN14"><path d="M236.36,270.9373 L236.36,319.3273 L201.82,323.3273 L236.36,327.3273 L236.36,375.7332 A0,0 0 0 0 236.36,375.7332 L700.0773,375.7332 A0,0 0 0 0 700.0773,375.7332 L700.0773,280.9373 L690.0773,270.9373 L236.36,270.9373 A0,0 0 0 0 236.36,270.9373" fill="#FFFFFF" style="stroke:#000000;stroke-width:1;"/><path d="M690.0773,270.9373 L690.0773,280.9373 L700.0773,280.9373 L690.0773,270.9373" fill="#FFFFFF" style="stroke:#000000;stroke-width:1;"/><text fill="#000000" font-family="Verdana" font-size="13" lengthAdjust="spacing" textLength="442.7173" x="242.36" y="289.0071">- Unique Peer ID (32-byte hash, e.g. BLAKE3 from peer Public Key)</text><text fill="#000000" font-family="Verdana" font-size="13" lengthAdjust="spacing" textLength="257.4165" x="242.36" y="304.8064">- Kyber-1024 keypair for key exchange</text><text fill="#000000" font-family="Verdana" font-size="13" lengthAdjust="spacing" textLength="312.2983" x="242.36" y="320.6058">- ChaCha20-Poly1305 for symmetric encryption</text><text fill="#000000" font-family="Verdana" font-size="13" lengthAdjust="spacing" textLength="268.0234" x="242.36" y="336.4051">- Certificate chain issued by EMasterPeer</text><text fill="#000000" font-family="Verdana" font-size="13" lengthAdjust="spacing" textLength="373.7817" x="242.36" y="352.2044">- Embedded EMasterPeer public keys (Kyber &amp; Dilithium)</text><text fill="#000000" font-family="Verdana" font-size="13" lengthAdjust="spacing" textLength="299.1523" x="242.36" y="368.0037">- Supports multiple simultaneous connections</text></g><!--entity PB--><g class="entity" data-entity="PB" data-source-line="158" data-uid="ent0017" id="entity_PB"><ellipse cx="780.22" cy="465.6173" fill="#FFB6C1" rx="16" ry="16" style="stroke:#000000;stroke-width:1;"/><path d="M780.22,485.6173 C784.22,485.6173 787.22,485.6173 791.22,481.6173 C799.22,481.6173 807.22,489.6173 807.22,497.6173 L807.22,501.6173 C807.22,505.6173 803.22,509.6173 799.22,509.6173 L761.22,509.6173 C757.22,509.6173 753.22,505.6173 753.22,501.6173 L753.22,497.6173 C753.22,489.6173 761.22,481.6173 769.22,481.6173 C773.22,485.6173 776.22,485.6173 780.22,485.6173" fill="#FFB6C1" style="stroke:#000000;stroke-width:1;"/><text fill="#FFFFFF" font-family="Verdana" font-size="14" lengthAdjust="spacing" textLength="49.5469" x="755.4466" y="524.6925">EPeerB</text></g><!--entity PB_CARD--><g class="entity" data-entity="PB_CARD" data-source-line="159" data-uid="ent0018" id="entity_PB_CARD"><rect fill="#000000" height="23.0146" rx="2.5" ry="2.5" style="stroke:#FFFFFF;stroke-width:1;" width="170.7119" x="30.87" y="476.6173"/><text fill="#FFFFFF" font-family="Verdana" font-size="14" lengthAdjust="spacing" textLength="150.7119" x="40.87" y="493.6925">EPeerB Specifications</text></g><g class="entity" data-entity="GMN19" data-source-line="161" data-uid="ent0020" id="entity_GMN19"><path d="M236.36,435.7273 L236.36,484.1273 L201.82,488.1273 L236.36,492.1273 L236.36,540.5232 A0,0 0 0 0 236.36,540.5232 L700.0773,540.5232 A0,0 0 0 0 700.0773,540.5232 L700.0773,445.7273 L690.0773,435.7273 L236.36,435.7273 A0,0 0 0 0 236.36,435.7273" fill="#FFFFFF" style="stroke:#000000;stroke-width:1;"/><path d="M690.0773,435.7273 L690.0773,445.7273 L700.0773,445.7273 L690.0773,435.7273" fill="#FFFFFF" style="stroke:#000000;stroke-width:1;"/><text fill="#000000" font-family="Verdana" font-size="13" lengthAdjust="spacing" textLength="442.7173" x="242.36" y="453.7971">- Unique Peer ID (32-byte hash, e.g. BLAKE3 from peer Public Key)</text><text fill="#000000" font-family="Verdana" font-size="13" lengthAdjust="spacing" textLength="257.4165" x="242.36" y="469.5964">- Kyber-1024 keypair for key exchange</text><text fill="#000000" font-family="Verdana" font-size="13" lengthAdjust="spacing" textLength="312.2983" x="242.36" y="485.3958">- ChaCha20-Poly1305 for symmetric encryption</text><text fill="#000000" font-family="Verdana" font-size="13" lengthAdjust="spacing" textLength="268.0234" x="242.36" y="501.1951">- Certificate chain issued by EMasterPeer</text><text fill="#000000" font-family="Verdana" font-size="13" lengthAdjust="spacing" textLength="373.7817" x="242.36" y="516.9944">- Embedded EMasterPeer public keys (Kyber &amp; Dilithium)</text><text fill="#000000" font-family="Verdana" font-size="13" lengthAdjust="spacing" textLength="299.1523" x="242.36" y="532.7937">- Supports multiple simultaneous connections</text></g><!--entity PN--><g class="entity" data-entity="PN" data-source-line="170" data-uid="ent0022" id="entity_PN"><ellipse cx="780.22" cy="630.4173" fill="#DDA0DD" rx="16" ry="16" style="stroke:#000000;stroke-width:1;"/><path d="M780.22,650.4173 C784.22,650.4173 787.22,650.4173 791.22,646.4173 C799.22,646.4173 807.22,654.4173 807.22,662.4173 L807.22,666.4173 C807.22,670.4173 803.22,674.4173 799.22,674.4173 L761.22,674.4173 C757.22,674.4173 753.22,670.4173 753.22,666.4173 L753.22,662.4173 C753.22,654.4173 761.22,646.4173 769.22,646.4173 C773.22,650.4173 776.22,650.4173 780.22,650.4173" fill="#DDA0DD" style="stroke:#000000;stroke-width:1;"/><text fill="#FFFFFF" font-family="Verdana" font-size="14" lengthAdjust="spacing" textLength="50.4219" x="755.0091" y="689.4925">EPeerN</text></g><!--entity PN_CARD--><g class="entity" data-entity="PN_CARD" data-source-line="171" data-uid="ent0023" id="entity_PN_CARD"><rect fill="#000000" height="23.0146" rx="2.5" ry="2.5" style="stroke:#FFFFFF;stroke-width:1;" width="171.5869" x="30.43" y="641.4173"/><text fill="#FFFFFF" font-family="Verdana" font-size="14" lengthAdjust="spacing" textLength="151.5869" x="40.43" y="658.4925">EPeerN Specifications</text></g><g class="entity" data-entity="GMN24" data-source-line="173" data-uid="ent0025" id="entity_GMN24"><path d="M237.36,600.5273 L237.36,648.9273 L202.4,652.9273 L237.36,656.9273 L237.36,705.3232 A0,0 0 0 0 237.36,705.3232 L701.0773,705.3232 A0,0 0 0 0 701.0773,705.3232 L701.0773,610.5273 L691.0773,600.5273 L237.36,600.5273 A0,0 0 0 0 237.36,600.5273" fill="#FFFFFF" style="stroke:#000000;stroke-width:1;"/><path d="M691.0773,600.5273 L691.0773,610.5273 L701.0773,610.5273 L691.0773,600.5273" fill="#FFFFFF" style="stroke:#000000;stroke-width:1;"/><text fill="#000000" font-family="Verdana" font-size="13" lengthAdjust="spacing" textLength="442.7173" x="243.36" y="618.5971">- Unique Peer ID (32-byte hash, e.g. BLAKE3 from peer Public Key)</text><text fill="#000000" font-family="Verdana" font-size="13" lengthAdjust="spacing" textLength="257.4165" x="243.36" y="634.3964">- Kyber-1024 keypair for key exchange</text><text fill="#000000" font-family="Verdana" font-size="13" lengthAdjust="spacing" textLength="312.2983" x="243.36" y="650.1958">- ChaCha20-Poly1305 for symmetric encryption</text><text fill="#000000" font-family="Verdana" font-size="13" lengthAdjust="spacing" textLength="268.0234" x="243.36" y="665.9951">- Certificate chain issued by EMasterPeer</text><text fill="#000000" font-family="Verdana" font-size="13" lengthAdjust="spacing" textLength="373.7817" x="243.36" y="681.7944">- Embedded EMasterPeer public keys (Kyber &amp; Dilithium)</text><text fill="#000000" font-family="Verdana" font-size="13" lengthAdjust="spacing" textLength="299.1523" x="243.36" y="697.5937">- Supports multiple simultaneous connections</text></g><!--link MP to PA--><!--link PA to PB--><!--link PB to PN--><!--link PN to DB--><!--link MP_CARD to PA_CARD--><!--link PA_CARD to PB_CARD--><!--link PB_CARD to PN_CARD--><!--link PN_CARD to SYS_CARD--><g class="footer" data-source-line="192"><text fill="#FFFFFF" font-family="Verdana" font-size="10" lengthAdjust="spacing" textLength="3.5156" x="435.2049" y="891.1669">&#160;</text></g><!--SRC=[xLPHJ-D647xthvWBLHiGkGOeRU-aLh8Tmo58I35zgAhgjBOdyHRRwzjTmrdL_VVEharY9-Qggdqy2mYP-NPsvljcP_rAfvWZb1dZXUDy0vUPY5W62PCFqBWKQisBjNBK0ozA9baE4OiVrb9KHUABJ4WucDgdWqXmnQfCNuX2jv0B-z0Mzhio25vmpKNXlFfg6GHtxztt_ktDxHty1AE37t_mWy0RaMlkXlVaj8Yj_yqq2DvCHyzBlOxhuiBxtZ_Pk1OTrspcJcSpumf_ewZptYhpZ2Y_KDSPrGihodfBGwUsGcY4lnoWnzibegtI-eHCKFO9ClOE9wtrazE97ZEPl1Iz4wKNlRFhFkEVZAnkhCcaIepvYiSRJM42bJB5vg8GSIg5qPlgxvRBxD8cer2ZHA7h4lVtUMdtdKY6NWJsX4hqM8rfgHJP2wNljy4U2oz0FfzImZIBcC9_o_W_wQcvfYgNl_X1s72luFOHvIF79oF7d2bY4fP8VyRtib8Qt29EASQtuBk7JiFvA6Xm1ZO2fc2-7AhITamN2s6hCpF7IxLBt_lktSonpIlvEjKWLXihmD6HB-jIYxLaPKeTuhEIHJoZ0uhgxT4H8IPmNKSe9oVJq-zWlBWAx-467p63yqEu3kOMCJChKbxba_DTICBNNDDaKNnTC5r9L8xTTaw3HzFlPXTRGOnIDnLGjhZcIiiQncKLPPJR9TVlgkWOmfn93Rvf728CleQhvKLus0Hfa0zOqyOI3Pqr0RIbcbcgbGNwdOsuKXNva80I7qL3dssH1jeZAASLafk2A3PReuD5OaU3qRSRzGvBeRX9mDbqssWOO9MQUN2mYbOhQgH6sSzWQOmDoRen6uAtIvuPxf2hu8a4s-hMaGUs3RNLvMgcO7nsEebgsYzyvvv1obIAQe_rE3MQzfdCICQ6zJbgPiXuk-7y6F1ZoQK57XEdb4C37HRxs6hTuzpavy8uf76MuSHcwsSS2xqzJXPYYLkwqBjqdWzH4sJW_2pT8QAVhIRHNml-eS9dchOi6OAekjVhr-3TkDV16Qnepa9fS2rXrrWVxfum8h5aNDfho12A7udIWlhCjcBAwETqEbcAh3uvcvvRcAhp7BMaW5Z4fbdDvRhRv5OOIpic4DKGxCWSv14c2Vcw0wNS24losoH9sKtJDBc7LLaAgHNaTF7paiQVukPVLg2eb9dl1Pr3G-YUR1wCvsRHowfvZGWUzExxhchUe6hUe6hU5zN-1zKMCBx40atcvcjVi4N3_m9wRs5TmHQ3WYq61Ljy4Um_2dR3Qb7HrPVyIJTWJkTBEVGsCVazvPH5ySVaPvfb3at5diLpwCJrB0k79ErQPfxZj6yHEz4QoThFdRYjpnlmjLAtdptVvbfpLaAOzwVHw6y0]--></g></svg>