<svg xmlns="http://www.w3.org/2000/svg" xmlns:xlink="http://www.w3.org/1999/xlink" contentStyleType="text/css" data-diagram-type="DESCRIPTION" height="906px" preserveAspectRatio="none" style="width:882px;height:906px;background:#000000;" version="1.1" viewBox="0 0 882 906" width="882px" zoomAndPan="magnify"><title>PQCES Actors Overview</title><defs/><g><text fill="#FFFFFF" font-family="Verdana" font-size="22" font-weight="bold" lengthAdjust="spacing" textLength="292.1016" x="290.897" y="37.1182">PQCES Actors Overview</text><!--entity MP--><g class="entity" data-entity="MP" data-source-line="119" data-uid="ent0002" id="entity_MP"><ellipse cx="780.1406" cy="112.2373" fill="#90EE90" rx="16" ry="16" style="stroke:#000000;stroke-width:1;"/><path d="M780.1406,132.2373 C784.1406,132.2373 787.1406,132.2373 791.1406,128.2373 C799.1406,128.2373 807.1406,136.2373 807.1406,144.2373 L807.1406,148.2373 C807.1406,152.2373 803.1406,156.2373 799.1406,156.2373 L761.1406,156.2373 C757.1406,156.2373 753.1406,152.2373 753.1406,148.2373 L753.1406,144.2373 C753.1406,136.2373 761.1406,128.2373 769.1406,128.2373 C773.1406,132.2373 776.1406,132.2373 780.1406,132.2373" fill="#90EE90" style="stroke:#000000;stroke-width:1;"/><text fill="#FFFFFF" font-family="Verdana" font-size="14" lengthAdjust="spacing" textLength="87.2813" x="736.5" y="171.3125">EMasterPeer</text></g><!--entity MP_CARD--><g class="entity" data-entity="MP_CARD" data-source-line="120" data-uid="ent0003" id="entity_MP_CARD"><rect fill="#000000" height="23.0146" rx="2.5" ry="2.5" style="stroke:#FFFFFF;stroke-width:1;" width="208.4463" x="12" y="123.2373"/><text fill="#FFFFFF" font-family="Verdana" font-size="14" lengthAdjust="spacing" textLength="188.4463" x="22" y="140.3125">EMasterPeer Specifications</text></g><g class="entity" data-entity="GMN4" data-source-line="122" data-uid="ent0005" id="entity_GMN4"><path d="M255,58.7373 L255,130.7373 L220.29,134.7373 L255,138.7373 L255,210.9312 A0,0 0 0 0 255,210.9312 L700.7725,210.9312 A0,0 0 0 0 700.7725,210.9312 L700.7725,68.7373 L690.7725,58.7373 L255,58.7373 A0,0 0 0 0 255,58.7373" fill="#FFFFFF" style="stroke:#000000;stroke-width:1;"/><path d="M690.7725,58.7373 L690.7725,68.7373 L700.7725,68.7373 L690.7725,58.7373" fill="#FFFFFF" style="stroke:#000000;stroke-width:1;"/><text fill="#000000" font-family="Verdana" font-size="13" font-weight="bold" lengthAdjust="spacing" textLength="197.6152" x="261" y="76.8071">Cryptographic Capabilities:</text><text fill="#000000" font-family="Verdana" font-size="13" lengthAdjust="spacing" textLength="220.1431" x="261" y="92.6064">- Kyber-1024 (NIST Level 5) KEM</text><text fill="#000000" font-family="Verdana" font-size="13" lengthAdjust="spacing" textLength="299.8696" x="261" y="108.4058">- Dilithium-5 (NIST Level 5) digital signatures</text><text fill="#000000" font-family="Verdana" font-size="13" lengthAdjust="spacing" textLength="4.5703" x="261" y="124.2051">&#160;</text><text fill="#000000" font-family="Verdana" font-size="13" font-weight="bold" lengthAdjust="spacing" textLength="75.9624" x="261" y="140.0044">Maintains:</text><text fill="#000000" font-family="Verdana" font-size="13" lengthAdjust="spacing" textLength="424.7725" x="261" y="155.8037">- Peer certificate registry (public GitHub, Smart Contract &amp; IPFS)</text><text fill="#000000" font-family="Verdana" font-size="13" lengthAdjust="spacing" textLength="243.9976" x="261" y="171.603">- Public key directory &amp; trust anchors</text><text fill="#000000" font-family="Verdana" font-size="13" lengthAdjust="spacing" textLength="257.8354" x="261" y="187.4023">- Certificate issuance &amp; revocation data</text><text fill="#000000" font-family="Verdana" font-size="13" lengthAdjust="spacing" textLength="213.9604" x="261" y="203.2017">- Cryptographic material storage</text></g><!--entity DB--><g class="entity" data-entity="DB" data-source-line="134" data-uid="ent0007" id="entity_DB"><path d="M694.5,805.2373 C694.5,795.2373 780.1978,795.2373 780.1978,795.2373 C780.1978,795.2373 865.8955,795.2373 865.8955,805.2373 L865.8955,831.252 C865.8955,841.252 780.1978,841.252 780.1978,841.252 C780.1978,841.252 694.5,841.252 694.5,831.252 L694.5,805.2373" fill="#FBFF00" style="stroke:#000000;stroke-width:1;"/><path d="M694.5,805.2373 C694.5,815.2373 780.1978,815.2373 780.1978,815.2373 C780.1978,815.2373 865.8955,815.2373 865.8955,805.2373" fill="none" style="stroke:#000000;stroke-width:1;"/><text fill="#000000" font-family="Verdana" font-size="14" lengthAdjust="spacing" textLength="151.3955" x="704.5" y="833.3125">Certificate Repository</text></g><!--entity SYS_CARD--><g class="entity" data-entity="SYS_CARD" data-source-line="135" data-uid="ent0008" id="entity_SYS_CARD"><rect fill="#000000" height="23.0146" rx="2.5" ry="2.5" style="stroke:#FFFFFF;stroke-width:1;" width="171.3955" x="30.5" y="806.7373"/><text fill="#FFFFFF" font-family="Verdana" font-size="14" lengthAdjust="spacing" textLength="151.3955" x="40.5" y="823.8125">Certificate Repository</text></g><g class="entity" data-entity="GMN9" data-source-line="137" data-uid="ent0010" id="entity_GMN9"><path d="M237,765.7373 L237,814.2373 L201.56,818.2373 L237,822.2373 L237,870.5332 A0,0 0 0 0 237,870.5332 L584.644,870.5332 A0,0 0 0 0 584.644,870.5332 L584.644,775.7373 L574.644,765.7373 L237,765.7373 A0,0 0 0 0 237,765.7373" fill="#FFFFFF" style="stroke:#000000;stroke-width:1;"/><path d="M574.644,765.7373 L574.644,775.7373 L584.644,775.7373 L574.644,765.7373" fill="#FFFFFF" style="stroke:#000000;stroke-width:1;"/><text fill="#000000" font-family="Verdana" font-size="13" font-weight="bold" lengthAdjust="spacing" textLength="83.9731" x="243" y="783.8071">Repository:</text><text fill="#000000" font-family="Verdana" font-size="13" lengthAdjust="spacing" textLength="326.644" x="243" y="799.6064">- certificates with Dilithium signatures MasterPeer</text><text fill="#000000" font-family="Verdana" font-size="13" lengthAdjust="spacing" textLength="224.1484" x="243" y="815.4058">- Peer IDs (32-byte SHA3 hashes)</text><text fill="#000000" font-family="Verdana" font-size="13" lengthAdjust="spacing" textLength="239.4146" x="243" y="831.2051">- Public key chains &amp; revocation lists</text><text fill="#000000" font-family="Verdana" font-size="13" lengthAdjust="spacing" textLength="260.9966" x="243" y="847.0044">- Metadata: issuance, expiration, status</text><text fill="#000000" font-family="Verdana" font-size="13" lengthAdjust="spacing" textLength="203.7534" x="243" y="862.8037">- GitHub, Smart Contract, IPFS</text></g><!--entity PA--><g class="entity" data-entity="PA" data-source-line="146" data-uid="ent0012" id="entity_PA"><ellipse cx="780" cy="300.7373" fill="#87CEEB" rx="16" ry="16" style="stroke:#000000;stroke-width:1;"/><path d="M780,320.7373 C784,320.7373 787,320.7373 791,316.7373 C799,316.7373 807,324.7373 807,332.7373 L807,336.7373 C807,340.7373 803,344.7373 799,344.7373 L761,344.7373 C757,344.7373 753,340.7373 753,336.7373 L753,332.7373 C753,324.7373 761,316.7373 769,316.7373 C773,320.7373 776,320.7373 780,320.7373" fill="#87CEEB" style="stroke:#000000;stroke-width:1;"/><text fill="#FFFFFF" font-family="Verdana" font-size="14" lengthAdjust="spacing" textLength="49.5195" x="755.2402" y="359.8125">EPeerA</text></g><!--entity PA_CARD--><g class="entity" data-entity="PA_CARD" data-source-line="147" data-uid="ent0013" id="entity_PA_CARD"><rect fill="#000000" height="23.0146" rx="2.5" ry="2.5" style="stroke:#FFFFFF;stroke-width:1;" width="170.6846" x="30.5" y="311.7373"/><text fill="#FFFFFF" font-family="Verdana" font-size="14" lengthAdjust="spacing" textLength="150.6846" x="40.5" y="328.8125">EPeerA Specifications</text></g><g class="entity" data-entity="GMN14" data-source-line="149" data-uid="ent0015" id="entity_GMN14"><path d="M237,270.7373 L237,319.2373 L201.84,323.2373 L237,327.2373 L237,375.5332 A0,0 0 0 0 237,375.5332 L700.7173,375.5332 A0,0 0 0 0 700.7173,375.5332 L700.7173,280.7373 L690.7173,270.7373 L237,270.7373 A0,0 0 0 0 237,270.7373" fill="#FFFFFF" style="stroke:#000000;stroke-width:1;"/><path d="M690.7173,270.7373 L690.7173,280.7373 L700.7173,280.7373 L690.7173,270.7373" fill="#FFFFFF" style="stroke:#000000;stroke-width:1;"/><text fill="#000000" font-family="Verdana" font-size="13" lengthAdjust="spacing" textLength="442.7173" x="243" y="288.8071">- Unique Peer ID (32-byte hash, e.g. BLAKE3 from peer Public Key)</text><text fill="#000000" font-family="Verdana" font-size="13" lengthAdjust="spacing" textLength="257.4165" x="243" y="304.6064">- Kyber-1024 keypair for key exchange</text><text fill="#000000" font-family="Verdana" font-size="13" lengthAdjust="spacing" textLength="312.2983" x="243" y="320.4058">- ChaCha20-Poly1305 for symmetric encryption</text><text fill="#000000" font-family="Verdana" font-size="13" lengthAdjust="spacing" textLength="268.0234" x="243" y="336.2051">- Certificate chain issued by EMasterPeer</text><text fill="#000000" font-family="Verdana" font-size="13" lengthAdjust="spacing" textLength="373.7817" x="243" y="352.0044">- Embedded EMasterPeer public keys (Kyber &amp; Dilithium)</text><text fill="#000000" font-family="Verdana" font-size="13" lengthAdjust="spacing" textLength="299.1523" x="243" y="367.8037">- Supports multiple simultaneous connections</text></g><!--entity PB--><g class="entity" data-entity="PB" data-source-line="158" data-uid="ent0017" id="entity_PB"><ellipse cx="780" cy="465.7373" fill="#FFB6C1" rx="16" ry="16" style="stroke:#000000;stroke-width:1;"/><path d="M780,485.7373 C784,485.7373 787,485.7373 791,481.7373 C799,481.7373 807,489.7373 807,497.7373 L807,501.7373 C807,505.7373 803,509.7373 799,509.7373 L761,509.7373 C757,509.7373 753,505.7373 753,501.7373 L753,497.7373 C753,489.7373 761,481.7373 769,481.7373 C773,485.7373 776,485.7373 780,485.7373" fill="#FFB6C1" style="stroke:#000000;stroke-width:1;"/><text fill="#FFFFFF" font-family="Verdana" font-size="14" lengthAdjust="spacing" textLength="49.5469" x="755.2266" y="524.8125">EPeerB</text></g><!--entity PB_CARD--><g class="entity" data-entity="PB_CARD" data-source-line="159" data-uid="ent0018" id="entity_PB_CARD"><rect fill="#000000" height="23.0146" rx="2.5" ry="2.5" style="stroke:#FFFFFF;stroke-width:1;" width="170.7119" x="30.5" y="476.7373"/><text fill="#FFFFFF" font-family="Verdana" font-size="14" lengthAdjust="spacing" textLength="150.7119" x="40.5" y="493.8125">EPeerB Specifications</text></g><g class="entity" data-entity="GMN19" data-source-line="161" data-uid="ent0020" id="entity_GMN19"><path d="M237,435.7373 L237,484.2373 L201.84,488.2373 L237,492.2373 L237,540.5332 A0,0 0 0 0 237,540.5332 L700.7173,540.5332 A0,0 0 0 0 700.7173,540.5332 L700.7173,445.7373 L690.7173,435.7373 L237,435.7373 A0,0 0 0 0 237,435.7373" fill="#FFFFFF" style="stroke:#000000;stroke-width:1;"/><path d="M690.7173,435.7373 L690.7173,445.7373 L700.7173,445.7373 L690.7173,435.7373" fill="#FFFFFF" style="stroke:#000000;stroke-width:1;"/><text fill="#000000" font-family="Verdana" font-size="13" lengthAdjust="spacing" textLength="442.7173" x="243" y="453.8071">- Unique Peer ID (32-byte hash, e.g. BLAKE3 from peer Public Key)</text><text fill="#000000" font-family="Verdana" font-size="13" lengthAdjust="spacing" textLength="257.4165" x="243" y="469.6064">- Kyber-1024 keypair for key exchange</text><text fill="#000000" font-family="Verdana" font-size="13" lengthAdjust="spacing" textLength="312.2983" x="243" y="485.4058">- ChaCha20-Poly1305 for symmetric encryption</text><text fill="#000000" font-family="Verdana" font-size="13" lengthAdjust="spacing" textLength="268.0234" x="243" y="501.2051">- Certificate chain issued by EMasterPeer</text><text fill="#000000" font-family="Verdana" font-size="13" lengthAdjust="spacing" textLength="373.7817" x="243" y="517.0044">- Embedded EMasterPeer public keys (Kyber &amp; Dilithium)</text><text fill="#000000" font-family="Verdana" font-size="13" lengthAdjust="spacing" textLength="299.1523" x="243" y="532.8037">- Supports multiple simultaneous connections</text></g><!--entity PN--><g class="entity" data-entity="PN" data-source-line="170" data-uid="ent0022" id="entity_PN"><ellipse cx="780" cy="630.7373" fill="#DDA0DD" rx="16" ry="16" style="stroke:#000000;stroke-width:1;"/><path d="M780,650.7373 C784,650.7373 787,650.7373 791,646.7373 C799,646.7373 807,654.7373 807,662.7373 L807,666.7373 C807,670.7373 803,674.7373 799,674.7373 L761,674.7373 C757,674.7373 753,670.7373 753,666.7373 L753,662.7373 C753,654.7373 761,646.7373 769,646.7373 C773,650.7373 776,650.7373 780,650.7373" fill="#DDA0DD" style="stroke:#000000;stroke-width:1;"/><text fill="#FFFFFF" font-family="Verdana" font-size="14" lengthAdjust="spacing" textLength="50.4219" x="754.7891" y="689.8125">EPeerN</text></g><!--entity PN_CARD--><g class="entity" data-entity="PN_CARD" data-source-line="171" data-uid="ent0023" id="entity_PN_CARD"><rect fill="#000000" height="23.0146" rx="2.5" ry="2.5" style="stroke:#FFFFFF;stroke-width:1;" width="171.5869" x="30" y="641.7373"/><text fill="#FFFFFF" font-family="Verdana" font-size="14" lengthAdjust="spacing" textLength="151.5869" x="40" y="658.8125">EPeerN Specifications</text></g><g class="entity" data-entity="GMN24" data-source-line="173" data-uid="ent0025" id="entity_GMN24"><path d="M237,600.7373 L237,649.2373 L202.18,653.2373 L237,657.2373 L237,705.5332 A0,0 0 0 0 237,705.5332 L700.7173,705.5332 A0,0 0 0 0 700.7173,705.5332 L700.7173,610.7373 L690.7173,600.7373 L237,600.7373 A0,0 0 0 0 237,600.7373" fill="#FFFFFF" style="stroke:#000000;stroke-width:1;"/><path d="M690.7173,600.7373 L690.7173,610.7373 L700.7173,610.7373 L690.7173,600.7373" fill="#FFFFFF" style="stroke:#000000;stroke-width:1;"/><text fill="#000000" font-family="Verdana" font-size="13" lengthAdjust="spacing" textLength="442.7173" x="243" y="618.8071">- Unique Peer ID (32-byte hash, e.g. BLAKE3 from peer Public Key)</text><text fill="#000000" font-family="Verdana" font-size="13" lengthAdjust="spacing" textLength="257.4165" x="243" y="634.6064">- Kyber-1024 keypair for key exchange</text><text fill="#000000" font-family="Verdana" font-size="13" lengthAdjust="spacing" textLength="312.2983" x="243" y="650.4058">- ChaCha20-Poly1305 for symmetric encryption</text><text fill="#000000" font-family="Verdana" font-size="13" lengthAdjust="spacing" textLength="268.0234" x="243" y="666.2051">- Certificate chain issued by EMasterPeer</text><text fill="#000000" font-family="Verdana" font-size="13" lengthAdjust="spacing" textLength="373.7817" x="243" y="682.0044">- Embedded EMasterPeer public keys (Kyber &amp; Dilithium)</text><text fill="#000000" font-family="Verdana" font-size="13" lengthAdjust="spacing" textLength="299.1523" x="243" y="697.8037">- Supports multiple simultaneous connections</text></g><!--link MP to PA--><!--link PA to PB--><!--link PB to PN--><!--link PN to DB--><!--link MP_CARD to PA_CARD--><!--link PA_CARD to PB_CARD--><!--link PB_CARD to PN_CARD--><!--link PN_CARD to SYS_CARD--><text fill="#FFFFFF" font-family="Verdana" font-size="10" lengthAdjust="spacing" textLength="3.5156" x="435.1899" y="891.5869">&#160;</text><!--SRC=[xLPHJ-D647xthvWBLHiGkGOeRU-aLh8Tmo58I35zgAhgjBOdyHRRwzjTmrdL_VVEharY9-Qggdqy2mYP-NPsvljcP_rAfvWZb1dZXUDy0vUPY5W62PCFqBWKQisBjNBK0ozA9baE4OiVrb9KHUABJ4WucDgdWqXmnQfCNuX2jv0B-z0Mzhio25vmpKNXlFfg6GHtxztt_ktDxHty1AE37t_mWy0RaMlkXlVaj8Yj_yqq2DvCHyzBlOxhuiBxtZ_Pk1OTrspcJcSpumf_ewZptYhpZ2Y_KDSPrGihodfBGwUsGcY4lnoWnzibegtI-eHCKFO9ClOE9wtrazE97ZEPl1Iz4wKNlRFhFkEVZAnkhCcaIepvYiSRJM42bJB5vg8GSIg5qPlgxvRBxD8cer2ZHA7h4lVtUMdtdKY6NWJsX4hqM8rfgHJP2wNljy4U2oz0FfzImZIBcC9_o_W_wQcvfYgNl_X1s72luFOHvIF79oF7d2bY4fP8VyRtib8Qt29EASQtuBk7JiFvA6Xm1ZO2fc2-7AhITamN2s6hCpF7IxLBt_lktSonpIlvEjKWLXihmD6HB-jIYxLaPKeTuhEIHJoZ0uhgxT4H8IPmNKSe9oVJq-zWlBWAx-467p63yqEu3kOMCJChKbxba_DTICBNNDDaKNnTC5r9L8xTTaw3HzFlPXTRGOnIDnLGjhZcIiiQncKLPPJR9TVlgkWOmfn93Rvf728CleQhvKLus0Hfa0zOqyOI3Pqr0RIbcbcgbGNwdOsuKXNva80I7qL3dssH1jeZAASLafk2A3PReuD5OaU3qRSRzGvBeRX9mDbqssWOO9MQUN2mYbOhQgH6sSzWQOmDoRen6uAtIvuPxf2hu8a4s-hMaGUs3RNLvMgcO7nsEebgsYzyvvv1obIAQe_rE3MQzfdCICQ6zJbgPiXuk-7y6F1ZoQK57XEdb4C37HRxs6hTuzpavy8uf76MuSHcwsSS2xqzJXPYYLkwqBjqdWzH4sJW_2pT8QAVhIRHNml-eS9dchOi6OAekjVhr-3TkDV16Qnepa9fS2rXrrWVxfum8h5aNDfho12A7udIWlhCjcBAwETqEbcAh3uvcvvRcAhp7BMaW5Z4fbdDvRhRv5OOIpic4DKGxCWSv14c2Vcw0wNS24losoH9sKtJDBc7LLaAgHNaTF7paiQVukPVLg2eb9dl1Pr3G-YUR1wCvsRHowfvZGWUzExxhchUe6hUe6hU5zN-1zKMCBx40atcvcjVi4N3_m9wRs5TmHQ3WYq61Ljy4Um_2dR3Qb7HrPVyIJTWJkTBEVGsCVazvPH5ySVaPvfb3at5diLpwCJrB0k79ErQPfxZj6yHEz4QoThFdRYjpnlmjLAtdptVvbfpLaAOzwVHw6y0]--></g></svg>