<svg xmlns="http://www.w3.org/2000/svg" xmlns:xlink="http://www.w3.org/1999/xlink" contentStyleType="text/css" data-diagram-type="ACTIVITY" height="1017px" preserveAspectRatio="none" style="width:515px;height:1017px;background:#000000;" version="1.1" viewBox="0 0 515 1017" width="515px" zoomAndPan="magnify"><title>The Strategic Conclusion</title><defs/><g><text fill="#FFFFFF" font-family="Verdana" font-size="22" font-weight="bold" lengthAdjust="spacing" textLength="306.2598" x="103.2493" y="37.1182">The Strategic Conclusion</text><ellipse cx="149.1729" cy="62.7373" fill="#FFFFFF" rx="10" ry="10" style="stroke:#000000;stroke-width:1;"/><rect fill="#111111" height="98.1826" style="stroke:#FFFFFF;stroke-width:1;" width="216.0977" x="41.124" y="82.7373"/><path d="M207.0586,82.7373 L207.0586,92.752 L197.0586,102.752 L41.124,102.752" fill="none" style="stroke:#FFFFFF;stroke-width:1;"/><text fill="#FFFFFF" font-family="Verdana" font-size="14" font-weight="bold" lengthAdjust="spacing" textLength="155.9346" x="44.124" y="97.8125">Development Phase</text><rect fill="#87CEEB" height="49.168" rx="12.5" ry="12.5" style="stroke:#FFFFFF;stroke-width:1;" width="196.0977" x="51.124" y="119.752"/><text fill="#FFFFFF" font-family="Verdana" font-size="12" lengthAdjust="spacing" textLength="171.873" x="61.124" y="141.8164">Use Claude Code / Cursor to</text><text fill="#FFFFFF" font-family="Verdana" font-size="12" font-weight="bold" lengthAdjust="spacing" textLength="176.0977" x="61.124" y="156.4004">DEVELOP and PROTOTYPE</text><rect fill="#111111" height="542.3584" style="stroke:#FFFFFF;stroke-width:1;" width="286.3457" x="6" y="190.9199"/><path d="M153.5527,190.9199 L153.5527,200.9346 L143.5527,210.9346 L6,210.9346" fill="none" style="stroke:#FFFFFF;stroke-width:1;"/><text fill="#FFFFFF" font-family="Verdana" font-size="14" font-weight="bold" lengthAdjust="spacing" textLength="137.5527" x="9" y="205.9951">Production Phase</text><rect fill="#90EE90" height="49.168" rx="12.5" ry="12.5" style="stroke:#FFFFFF;stroke-width:1;" width="266.3457" x="16" y="227.9346"/><text fill="#FFFFFF" font-family="Verdana" font-size="12" lengthAdjust="spacing" textLength="153.668" x="26" y="249.999">Use Evo Framework AI to</text><text fill="#FFFFFF" font-family="Verdana" font-size="12" font-weight="bold" lengthAdjust="spacing" textLength="246.3457" x="26" y="264.583">BUILD the production agent pipeline</text><rect fill="#FFFFDD" height="49.168" rx="12.5" ry="12.5" style="stroke:#FFFFFF;stroke-width:1;" width="233.6445" x="32.3506" y="297.1025"/><text fill="#FFFFFF" font-family="Verdana" font-size="12" lengthAdjust="spacing" textLength="90.8613" x="42.3506" y="319.167">Evo agent calls</text><text fill="#FFFFFF" font-family="Verdana" font-size="12" font-weight="bold" lengthAdjust="spacing" textLength="118.5645" x="137.4307" y="319.167">DoCreatePackage</text><text fill="#FFFFFF" font-family="Verdana" font-size="12" lengthAdjust="spacing" textLength="132.791" x="42.3506" y="333.751">(LLM creates schema)</text><rect fill="#DDA0DD" height="63.752" rx="12.5" ry="12.5" style="stroke:#FFFFFF;stroke-width:1;" width="188.4336" x="54.9561" y="366.2705"/><text fill="#FFFFFF" font-family="Verdana" font-size="12" lengthAdjust="spacing" textLength="84.3223" x="64.9561" y="388.335">evo_core_dev</text><text fill="#FFFFFF" font-family="Verdana" font-size="12" font-weight="bold" lengthAdjust="spacing" textLength="79.8926" x="153.4971" y="388.335">GENERATES</text><text fill="#FFFFFF" font-family="Verdana" font-size="12" lengthAdjust="spacing" textLength="154.0195" x="64.9561" y="402.9189">complete Rust workspace</text><text fill="#FFFFFF" font-family="Verdana" font-size="12" font-weight="bold" lengthAdjust="spacing" textLength="71.0684" x="64.9561" y="417.5029">(0 tokens)</text><rect fill="#FFFFDD" height="49.168" rx="12.5" ry="12.5" style="stroke:#FFFFFF;stroke-width:1;" width="210.1777" x="44.084" y="450.0225"/><text fill="#FFFFFF" font-family="Verdana" font-size="12" lengthAdjust="spacing" textLength="90.8613" x="54.084" y="472.0869">Evo agent calls</text><text fill="#FFFFFF" font-family="Verdana" font-size="12" font-weight="bold" lengthAdjust="spacing" textLength="95.0977" x="149.1641" y="472.0869">DoEvoCoreApi</text><text fill="#FFFFFF" font-family="Verdana" font-size="12" lengthAdjust="spacing" textLength="170.1738" x="54.084" y="486.6709">(LLM implements logic only)</text><rect fill="#FFFFDD" height="63.752" rx="12.5" ry="12.5" style="stroke:#FFFFFF;stroke-width:1;" width="245.2637" x="26.541" y="519.1904"/><text fill="#FFFFFF" font-family="Verdana" font-size="12" lengthAdjust="spacing" textLength="90.8613" x="36.541" y="541.2549">Evo agent calls</text><text fill="#FFFFFF" font-family="Verdana" font-size="12" font-weight="bold" lengthAdjust="spacing" textLength="225.2637" x="36.541" y="555.8389">DoCodeQuality + DoCodeSecurity</text><text fill="#FFFFFF" font-family="Verdana" font-size="12" lengthAdjust="spacing" textLength="75.1406" x="36.541" y="570.4229">(LLM audits)</text><rect fill="#DDA0DD" height="49.168" rx="12.5" ry="12.5" style="stroke:#FFFFFF;stroke-width:1;" width="183.3652" x="57.4902" y="602.9424"/><text fill="#FFFFFF" font-family="Verdana" font-size="12" font-weight="bold" lengthAdjust="spacing" textLength="101.4785" x="67.4902" y="625.0068">DoRunAppPeer</text><text fill="#FFFFFF" font-family="Verdana" font-size="12" lengthAdjust="spacing" textLength="163.3652" x="67.4902" y="639.5908">(deterministic build + test)</text><rect fill="#DDA0DD" height="49.168" rx="12.5" ry="12.5" style="stroke:#FFFFFF;stroke-width:1;" width="152.8965" x="72.7246" y="672.1104"/><text fill="#FFFFFF" font-family="Verdana" font-size="12" font-weight="bold" lengthAdjust="spacing" textLength="96" x="82.7246" y="694.1748">DoGithubPush</text><text fill="#FFFFFF" font-family="Verdana" font-size="12" lengthAdjust="spacing" textLength="132.8965" x="82.7246" y="708.7588">(deterministic deploy)</text><rect fill="#111111" height="225.8071" style="stroke:#FFFFFF;stroke-width:1;" width="462.186" x="47.5723" y="743.2783"/><path d="M130.874,743.2783 L130.874,753.293 L120.874,763.293 L47.5723,763.293" fill="none" style="stroke:#FFFFFF;stroke-width:1;"/><text fill="#FFFFFF" font-family="Verdana" font-size="14" font-weight="bold" lengthAdjust="spacing" textLength="73.3018" x="50.5723" y="758.3535">Deployed</text><path d="M260.7734,773.293 L260.7734,861.1892 L240.7734,865.1892 L260.7734,869.1892 L260.7734,957.0854 A0,0 0 0 0 260.7734,957.0854 L499.7583,957.0854 A0,0 0 0 0 499.7583,957.0854 L499.7583,783.293 L489.7583,773.293 L260.7734,773.293 A0,0 0 0 0 260.7734,773.293" fill="#FFFFFF" style="stroke:#000000;stroke-width:1;"/><path d="M489.7583,773.293 L489.7583,783.293 L499.7583,783.293 L489.7583,773.293" fill="#FFFFFF" style="stroke:#000000;stroke-width:1;"/><text fill="#000000" font-family="Verdana" font-size="13" font-weight="bold" lengthAdjust="spacing" textLength="92.8408" x="266.7734" y="791.3628">LLM options:</text><text fill="#000000" font-family="Verdana" font-size="13" lengthAdjust="spacing" textLength="135.1289" x="266.7734" y="807.1621">Claude Pro/Max sub,</text><text fill="#000000" font-family="Verdana" font-size="13" lengthAdjust="spacing" textLength="93.8374" x="266.7734" y="822.9614">Anthropic API,</text><text fill="#000000" font-family="Verdana" font-size="13" lengthAdjust="spacing" textLength="117.5586" x="266.7734" y="838.7607">Ollama/vLLM ($0)</text><text fill="#000000" font-family="Verdana" font-size="13" lengthAdjust="spacing" textLength="4.5703" x="266.7734" y="854.5601">&#160;</text><text fill="#000000" font-family="Verdana" font-size="13" font-weight="bold" lengthAdjust="spacing" textLength="136.4175" x="266.7734" y="870.3594">Development cost:</text><text fill="#000000" font-family="Verdana" font-size="13" lengthAdjust="spacing" textLength="205.1436" x="266.7734" y="886.1587">Claude Code tokens (one-time)</text><text fill="#000000" font-family="Verdana" font-size="13" lengthAdjust="spacing" textLength="4.5703" x="266.7734" y="901.958">&#160;</text><text fill="#000000" font-family="Verdana" font-size="13" font-weight="bold" lengthAdjust="spacing" textLength="119.3486" x="266.7734" y="917.7573">Production cost:</text><text fill="#000000" font-family="Verdana" font-size="13" lengthAdjust="spacing" textLength="131.8091" x="266.7734" y="933.5566">$0 (local models) or</text><text fill="#000000" font-family="Verdana" font-size="13" lengthAdjust="spacing" textLength="217.9849" x="266.7734" y="949.356">~4x less (API) &#8212; recurring, scale</text><rect fill="#FFB6C1" height="78.3359" rx="12.5" ry="12.5" style="stroke:#FFFFFF;stroke-width:1;" width="183.2012" x="57.5723" y="826.0212"/><text fill="#FFFFFF" font-family="Verdana" font-size="12" lengthAdjust="spacing" textLength="163.2012" x="67.5723" y="848.0857">New agent is deployed and</text><text fill="#FFFFFF" font-family="Verdana" font-size="12" lengthAdjust="spacing" textLength="46.2656" x="67.5723" y="862.6697">running</text><text fill="#FFFFFF" font-family="Verdana" font-size="12" font-weight="bold" lengthAdjust="spacing" textLength="95.5723" x="118.0566" y="862.6697">autonomously</text><text fill="#FFFFFF" font-family="Verdana" font-size="12" lengthAdjust="spacing" textLength="128.4375" x="67.5723" y="877.2537">Monitored via bridge.</text><text fill="#FFFFFF" font-family="Verdana" font-size="12" font-weight="bold" lengthAdjust="spacing" textLength="160.377" x="67.5723" y="891.8376">Agents creating agents.</text><ellipse cx="149.1729" cy="1000.0854" fill="none" rx="11" ry="11" style="stroke:#000000;stroke-width:1;"/><ellipse cx="149.1729" cy="1000.0854" fill="#FFFFFF" rx="6" ry="6" style="stroke:#000000;stroke-width:1;"/><line style="stroke:#FFFFFF;stroke-width:1;" x1="149.1729" x2="149.1729" y1="72.7373" y2="119.752"/><polygon fill="#FFFFFF" points="145.1729,109.752,149.1729,119.752,153.1729,109.752,149.1729,113.752" style="stroke:#FFFFFF;stroke-width:1;"/><line style="stroke:#FFFFFF;stroke-width:1;" x1="149.1729" x2="149.1729" y1="277.1025" y2="297.1025"/><polygon fill="#FFFFFF" points="145.1729,287.1025,149.1729,297.1025,153.1729,287.1025,149.1729,291.1025" style="stroke:#FFFFFF;stroke-width:1;"/><line style="stroke:#FFFFFF;stroke-width:1;" x1="149.1729" x2="149.1729" y1="346.2705" y2="366.2705"/><polygon fill="#FFFFFF" points="145.1729,356.2705,149.1729,366.2705,153.1729,356.2705,149.1729,360.2705" style="stroke:#FFFFFF;stroke-width:1;"/><line style="stroke:#FFFFFF;stroke-width:1;" x1="149.1729" x2="149.1729" y1="430.0225" y2="450.0225"/><polygon fill="#FFFFFF" points="145.1729,440.0225,149.1729,450.0225,153.1729,440.0225,149.1729,444.0225" style="stroke:#FFFFFF;stroke-width:1;"/><line style="stroke:#FFFFFF;stroke-width:1;" x1="149.1729" x2="149.1729" y1="499.1904" y2="519.1904"/><polygon fill="#FFFFFF" points="145.1729,509.1904,149.1729,519.1904,153.1729,509.1904,149.1729,513.1904" style="stroke:#FFFFFF;stroke-width:1;"/><line style="stroke:#FFFFFF;stroke-width:1;" x1="149.1729" x2="149.1729" y1="582.9424" y2="602.9424"/><polygon fill="#FFFFFF" points="145.1729,592.9424,149.1729,602.9424,153.1729,592.9424,149.1729,596.9424" style="stroke:#FFFFFF;stroke-width:1;"/><line style="stroke:#FFFFFF;stroke-width:1;" x1="149.1729" x2="149.1729" y1="652.1104" y2="672.1104"/><polygon fill="#FFFFFF" points="145.1729,662.1104,149.1729,672.1104,153.1729,662.1104,149.1729,666.1104" style="stroke:#FFFFFF;stroke-width:1;"/><line style="stroke:#FFFFFF;stroke-width:1;" x1="149.1729" x2="149.1729" y1="168.9199" y2="227.9346"/><polygon fill="#FFFFFF" points="145.1729,217.9346,149.1729,227.9346,153.1729,217.9346,149.1729,221.9346" style="stroke:#FFFFFF;stroke-width:1;"/><line style="stroke:#FFFFFF;stroke-width:1;" x1="149.1729" x2="149.1729" y1="721.2783" y2="826.0212"/><polygon fill="#FFFFFF" points="145.1729,816.0212,149.1729,826.0212,153.1729,816.0212,149.1729,820.0212" style="stroke:#FFFFFF;stroke-width:1;"/><line style="stroke:#FFFFFF;stroke-width:1;" x1="149.1729" x2="149.1729" y1="904.3572" y2="989.0854"/><polygon fill="#FFFFFF" points="145.1729,979.0854,149.1729,989.0854,153.1729,979.0854,149.1729,983.0854" style="stroke:#FFFFFF;stroke-width:1;"/><!--SRC=[hLJjRjDA4FtlfnX29H9VBWqIubwA-E4cRbKf9IODbP0gLHjxRhBgUiVQZnI4G3m4JyYJCBjsgGCjkbUw-oEHp-wScNDcTX-u3TO8ZH9I9yaZE5Qq4WegOQwWtRBedDHhczWhgHjXH0qhKLwj3NbTJKYHWOVZk7edAln7UEMEIBlko55SIU-CA9tSIlS1FYR0w_0UqhX7faAponJmN_a3EfMY9btzZl3co3sytVRTz9anTBqBVxfBLqVolyhRIQJ9uNtiFPOTzbxM7dk7xh3phvDEahulnTEu_hk0Hn0XcppOc-RdbvFvRBw0Lp1u-FTVapm_732Udyzx-8jndhyO1tmsE-tXWN0w7KIUPG-VJhFn3LxCvkzsGWwVJvuEaeIbAOJb1k7C6U5mBKikIvVAMvRCFZYMdoIt9WpIT8fRLDJKg1qK6s4nJGUTELtj1syjmaG9N_4VySy-JBonhD_HXMQ6_3oVpGiGF1R5OhwSBzyLUPg-3BRif2eCLRwCNpzdQjs8cV8jmH7t2g-9hsjsqcKvV7iocuRR2yqjZLY7iXlPe98QGywMhZNn852rHqgXb0MkbIO6sPc2-yuxQNgXX-m_b16rO4j-7iJeXgSr_G2tT5cImSiAjqnodB_E5zaoFmlX9TMDGfxPXRSEGiss4IM6aeTZhlqAjHtzgyeOct2Ih94_ofA1ExJ6WgBGJTBgm-ZtNB4b51hrnWiLdg8_eFq-mz8R1dxGSqkbip-h3U4BhxEcAH1DF5onG5DBBQtZ8bPUgefPsJ1tL_2nT1k_AhpTt15SOQCeQFZqoo263QnwKz4Ezi5hlEu4Ijl5OnN6xK8RhpM_u-oVy8uqrUIjYW9FIKl7TbQmbG9MHbPhV1AyoTRHpzZn41gPxPDkOEFpO-HwuxY4D0qkKHDAj2oDeUuUy2ZlduhtOFtgCQEPTXj33SlBYfC0p9KIjTZVXlZXtdYKHBR-NIl9kXtAUBNQUO4XQVpJoHgxmDxDkOtR6yDG4VSSQWvLTWHa6Fxyx3qej4p2jOpWsvUlO4BZ3Ojzp0Ck52R8LpKe3Ky2DSbt]--></g></svg>