<svg xmlns="http://www.w3.org/2000/svg" xmlns:xlink="http://www.w3.org/1999/xlink" contentStyleType="text/css" data-diagram-type="ACTIVITY" height="1093px" preserveAspectRatio="none" style="width:655px;height:1093px;background:#000000;" version="1.1" viewBox="0 0 655 1093" width="655px" zoomAndPan="magnify"><title>EVO Framework AI &#8212; Full Autonomous Pipeline</title><defs/><g><text fill="#FFFFFF" font-family="Verdana" font-size="22" font-weight="bold" lengthAdjust="spacing" textLength="586.6523" x="32.6763" y="37.1182">EVO Framework AI &#8212; Full Autonomous Pipeline</text><text fill="#FFFFFF" font-family="Verdana" font-size="22" font-weight="bold" lengthAdjust="spacing" textLength="622.0049" x="15" y="63.8555">"Create Instagram API package with 5 endpoints"</text><ellipse cx="200.4802" cy="89.4746" fill="#FFFFFF" rx="10" ry="10" style="stroke:#000000;stroke-width:1;"/><rect fill="#111133" height="127.3506" style="stroke:#FFFFFF;stroke-width:1;" width="296.8418" x="52.0593" y="109.9141"/><path d="M338.9011,109.9141 L338.9011,119.9287 L328.9011,129.9287 L52.0593,129.9287" fill="none" style="stroke:#FFFFFF;stroke-width:1;"/><text fill="#FFFFFF" font-family="Verdana" font-size="14" font-weight="bold" lengthAdjust="spacing" textLength="276.8418" x="55.0593" y="124.9893">Phase 1: Schema Generation (LLM)</text><rect fill="#87CEEB" height="78.3359" rx="12.5" ry="12.5" style="stroke:#FFFFFF;stroke-width:1;" width="244.5313" x="78.2146" y="146.9287"/><text fill="#FFFFFF" font-family="Verdana" font-size="12" lengthAdjust="spacing" textLength="192.6094" x="88.2146" y="168.9932">DoCreatePackage &#8212; child agent</text><text fill="#FFFFFF" font-family="Verdana" font-size="12" lengthAdjust="spacing" textLength="166.1191" x="88.2146" y="183.5771">generates 3 TOML schemas</text><text fill="#FFFFFF" font-family="Verdana" font-size="12" lengthAdjust="spacing" textLength="224.5313" x="88.2146" y="198.1611">(package.toml, entity.toml, api.toml)</text><text fill="#FFFFFF" font-family="Verdana" font-size="12" font-weight="bold" lengthAdjust="spacing" textLength="98.3613" x="88.2146" y="212.7451">~3,150 tokens</text><rect fill="#113311" height="146.8105" style="stroke:#FFFFFF;stroke-width:1;" width="543.6846" x="67.1599" y="247.2646"/><path d="M405.7156,247.2646 L405.7156,257.2793 L395.7156,267.2793 L67.1599,267.2793" fill="none" style="stroke:#FFFFFF;stroke-width:1;"/><text fill="#FFFFFF" font-family="Verdana" font-size="14" font-weight="bold" lengthAdjust="spacing" textLength="328.5557" x="70.1599" y="262.3398">Phase 2: Code Generation (Deterministic)</text><path d="M343.8005,277.2793 L343.8005,325.6772 L323.8005,329.6772 L343.8005,333.6772 L343.8005,382.0752 A0,0 0 0 0 343.8005,382.0752 L600.8445,382.0752 A0,0 0 0 0 600.8445,382.0752 L600.8445,287.2793 L590.8445,277.2793 L343.8005,277.2793 A0,0 0 0 0 343.8005,277.2793" fill="#FFFFFF" style="stroke:#000000;stroke-width:1;"/><path d="M590.8445,277.2793 L590.8445,287.2793 L600.8445,287.2793 L590.8445,277.2793" fill="#FFFFFF" style="stroke:#000000;stroke-width:1;"/><text fill="#000000" font-family="Verdana" font-size="13" font-weight="bold" lengthAdjust="spacing" textLength="174.6367" x="349.8005" y="295.3491">This is where EVO wins.</text><text fill="#000000" font-family="Verdana" font-size="13" lengthAdjust="spacing" textLength="169.5332" x="349.8005" y="311.1484">50-100 production files at</text><text fill="#000000" font-family="Verdana" font-size="13" font-weight="bold" lengthAdjust="spacing" textLength="53.1362" x="349.8005" y="326.9478">$0 cost</text><text fill="#000000" font-family="Verdana" font-size="13" lengthAdjust="spacing" textLength="107.9419" x="407.5071" y="326.9478">and sub-second.</text><text fill="#000000" font-family="Verdana" font-size="13" lengthAdjust="spacing" textLength="226.3892" x="349.8005" y="342.7471">Claude Code / Cursor / Antigravity</text><text fill="#000000" font-family="Verdana" font-size="13" lengthAdjust="spacing" textLength="236.0439" x="349.8005" y="358.5464">would need ~30,000-80,000 tokens</text><text fill="#000000" font-family="Verdana" font-size="13" lengthAdjust="spacing" textLength="135.1987" x="349.8005" y="374.3457">for the same output.</text><rect fill="#90EE90" height="78.3359" rx="12.5" ry="12.5" style="stroke:#FFFFFF;stroke-width:1;" width="246.6406" x="77.1599" y="290.5093"/><text fill="#FFFFFF" font-family="Verdana" font-size="12" lengthAdjust="spacing" textLength="224.6016" x="87.1599" y="312.5737">evo_core_dev generates 50-100 files</text><text fill="#FFFFFF" font-family="Verdana" font-size="12" lengthAdjust="spacing" textLength="224.7246" x="87.1599" y="327.1577">Entity crates, API crates, WASM, FFI,</text><text fill="#FFFFFF" font-family="Verdana" font-size="12" lengthAdjust="spacing" textLength="226.6406" x="87.1599" y="341.7417">GUI, tests, benchmarks, docs, scripts</text><text fill="#FFFFFF" font-family="Verdana" font-size="12" font-weight="bold" lengthAdjust="spacing" textLength="155.373" x="87.1599" y="356.3257">0 tokens &#8212; sub-second</text><rect fill="#111133" height="191.3257" style="stroke:#FFFFFF;stroke-width:1;" width="259.1963" x="69.3821" y="404.5146"/><path d="M318.5784,404.5146 L318.5784,414.5293 L308.5784,424.5293 L69.3821,424.5293" fill="none" style="stroke:#FFFFFF;stroke-width:1;"/><text fill="#FFFFFF" font-family="Verdana" font-size="14" font-weight="bold" lengthAdjust="spacing" textLength="239.1963" x="72.3821" y="419.5898">Phase 3: Business Logic (LLM)</text><rect fill="#87CEEB" height="63.752" rx="12.5" ry="12.5" style="stroke:#FFFFFF;stroke-width:1;" width="192.125" x="104.4177" y="498.0884"/><text fill="#FFFFFF" font-family="Verdana" font-size="12" lengthAdjust="spacing" textLength="172.125" x="114.4177" y="520.1528">DoEvoCoreApi &#8212; child agent</text><text fill="#FFFFFF" font-family="Verdana" font-size="12" lengthAdjust="spacing" textLength="158.1738" x="114.4177" y="534.7368">implements business logic</text><text fill="#FFFFFF" font-family="Verdana" font-size="12" font-weight="bold" lengthAdjust="spacing" textLength="170.3203" x="114.4177" y="549.3208">~3,300 tokens per action</text><polygon fill="#000000" points="137.01,441.5293,263.9504,441.5293,275.9504,453.5293,263.9504,465.5293,137.01,465.5293,125.01,453.5293,137.01,441.5293" style="stroke:#FFFFFF;stroke-width:1;"/><text fill="#FFFFFF" font-family="Verdana" font-size="11" lengthAdjust="spacing" textLength="18.7935" x="204.4802" y="476.5884">yes</text><text fill="#FFFFFF" font-family="Verdana" font-size="11" lengthAdjust="spacing" textLength="126.9404" x="137.01" y="457.9041">API actions remaining?</text><text fill="#FFFFFF" font-family="Verdana" font-size="11" lengthAdjust="spacing" textLength="27.0435" x="97.9666" y="451.2197">done</text><rect fill="#111133" height="138.1826" style="stroke:#FFFFFF;stroke-width:1;" width="285.8018" x="57.5793" y="606.2798"/><path d="M333.3811,606.2798 L333.3811,616.2944 L323.3811,626.2944 L57.5793,626.2944" fill="none" style="stroke:#FFFFFF;stroke-width:1;"/><text fill="#FFFFFF" font-family="Verdana" font-size="14" font-weight="bold" lengthAdjust="spacing" textLength="265.8018" x="60.5793" y="621.355">Phase 4: Quality Assurance (LLM)</text><rect fill="#87CEEB" height="34.584" rx="12.5" ry="12.5" style="stroke:#FFFFFF;stroke-width:1;" width="199.9531" x="100.5037" y="643.2944"/><text fill="#FFFFFF" font-family="Verdana" font-size="12" lengthAdjust="spacing" textLength="179.9531" x="110.5037" y="665.3589">DoCodeQuality &#8212; 8-dim audit</text><rect fill="#87CEEB" height="34.584" rx="12.5" ry="12.5" style="stroke:#FFFFFF;stroke-width:1;" width="215.709" x="92.6257" y="697.8784"/><text fill="#FFFFFF" font-family="Verdana" font-size="12" lengthAdjust="spacing" textLength="195.709" x="102.6257" y="719.9429">DoCodeSecurity &#8212; security scan</text><rect fill="#113311" height="98.1826" style="stroke:#FFFFFF;stroke-width:1;" width="276.0332" x="62.4636" y="754.9019"/><path d="M328.4968,754.9019 L328.4968,764.9165 L318.4968,774.9165 L62.4636,774.9165" fill="none" style="stroke:#FFFFFF;stroke-width:1;"/><text fill="#FFFFFF" font-family="Verdana" font-size="14" font-weight="bold" lengthAdjust="spacing" textLength="256.0332" x="65.4636" y="769.9771">Phase 5: Testing (Deterministic)</text><rect fill="#90EE90" height="49.168" rx="12.5" ry="12.5" style="stroke:#FFFFFF;stroke-width:1;" width="238.1152" x="81.4226" y="791.9165"/><text fill="#FFFFFF" font-family="Verdana" font-size="12" lengthAdjust="spacing" textLength="218.1152" x="91.4226" y="813.981">DoRunAppPeer &#8212; cargo build + test</text><text fill="#FFFFFF" font-family="Verdana" font-size="12" font-weight="bold" lengthAdjust="spacing" textLength="58.0254" x="91.4226" y="828.5649">0 tokens</text><rect fill="#113311" height="98.1826" style="stroke:#FFFFFF;stroke-width:1;" width="312.6396" x="44.1604" y="863.5239"/><path d="M346.8,863.5239 L346.8,873.5386 L336.8,883.5386 L44.1604,883.5386" fill="none" style="stroke:#FFFFFF;stroke-width:1;"/><text fill="#FFFFFF" font-family="Verdana" font-size="14" font-weight="bold" lengthAdjust="spacing" textLength="292.6396" x="47.1604" y="878.5991">Phase 6: Deployment (Deterministic)</text><rect fill="#90EE90" height="49.168" rx="12.5" ry="12.5" style="stroke:#FFFFFF;stroke-width:1;" width="237.4238" x="81.7683" y="900.5386"/><text fill="#FFFFFF" font-family="Verdana" font-size="12" lengthAdjust="spacing" textLength="217.4238" x="91.7683" y="922.603">DoGithubPush &#8212; git commit + push</text><text fill="#FFFFFF" font-family="Verdana" font-size="12" font-weight="bold" lengthAdjust="spacing" textLength="58.0254" x="91.7683" y="937.187">0 tokens</text><path d="M231.4802,971.7065 L231.4802,1025.1045 L211.4802,1029.1045 L231.4802,1033.1045 L231.4802,1086.5024 A0,0 0 0 0 231.4802,1086.5024 L453.5486,1086.5024 A0,0 0 0 0 453.5486,1086.5024 L453.5486,981.7065 L443.5486,971.7065 L231.4802,971.7065 A0,0 0 0 0 231.4802,971.7065" fill="#FFFFFF" style="stroke:#000000;stroke-width:1;"/><path d="M443.5486,971.7065 L443.5486,981.7065 L453.5486,981.7065 L443.5486,971.7065" fill="#FFFFFF" style="stroke:#000000;stroke-width:1;"/><text fill="#000000" font-family="Verdana" font-size="13" font-weight="bold" lengthAdjust="spacing" textLength="172.6245" x="237.4802" y="989.7764">TOTAL: ~19,650 tokens</text><text fill="#000000" font-family="Verdana" font-size="13" font-weight="bold" lengthAdjust="spacing" textLength="101.1689" x="237.4802" y="1005.5757">COST: ~$0.28</text><text fill="#000000" font-family="Verdana" font-size="13" font-weight="bold" lengthAdjust="spacing" textLength="130.7808" x="237.4802" y="1021.375">TIME: ~5 minutes</text><line style="stroke:#000000;stroke-width:1;" x1="231.4802" x2="453.5486" y1="1029.1045" y2="1029.1045"/><text fill="#000000" font-family="Verdana" font-size="13" lengthAdjust="spacing" textLength="132.2725" x="237.4802" y="1047.1743">3 LLM phases (blue)</text><text fill="#000000" font-family="Verdana" font-size="13" lengthAdjust="spacing" textLength="201.0684" x="237.4802" y="1062.9736">3 deterministic phases (green)</text><text fill="#000000" font-family="Verdana" font-size="13" lengthAdjust="spacing" textLength="167.2671" x="237.4802" y="1078.7729">50+ files generated at $0</text><ellipse cx="200.4802" cy="1029.1045" fill="none" rx="11" ry="11" style="stroke:#000000;stroke-width:1;"/><ellipse cx="200.4802" cy="1029.1045" fill="#FFFFFF" rx="6" ry="6" style="stroke:#000000;stroke-width:1;"/><line style="stroke:#000000;stroke-width:1;" x1="200.4802" x2="200.4802" y1="99.4746" y2="146.9287"/><polygon fill="#000000" points="196.4802,136.9287,200.4802,146.9287,204.4802,136.9287,200.4802,140.9287" style="stroke:#000000;stroke-width:1;"/><line style="stroke:#000000;stroke-width:1;" x1="200.4802" x2="200.4802" y1="225.2646" y2="290.5093"/><polygon fill="#000000" points="196.4802,280.5093,200.4802,290.5093,204.4802,280.5093,200.4802,284.5093" style="stroke:#000000;stroke-width:1;"/><line style="stroke:#000000;stroke-width:1;" x1="200.4802" x2="200.4802" y1="465.5293" y2="498.0884"/><polygon fill="#000000" points="196.4802,488.0884,200.4802,498.0884,204.4802,488.0884,200.4802,492.0884" style="stroke:#000000;stroke-width:1;"/><line style="stroke:#000000;stroke-width:1;" x1="200.4802" x2="200.4802" y1="561.8403" y2="571.8403"/><line style="stroke:#000000;stroke-width:1;" x1="200.4802" x2="308.5427" y1="571.8403" y2="571.8403"/><polygon fill="#000000" points="304.5427,521.28,308.5427,511.28,312.5427,521.28,308.5427,517.28" style="stroke:#000000;stroke-width:1;"/><line style="stroke:#000000;stroke-width:1;" x1="308.5427" x2="308.5427" y1="453.5293" y2="571.8403"/><line style="stroke:#000000;stroke-width:1;" x1="308.5427" x2="275.9504" y1="453.5293" y2="453.5293"/><polygon fill="#000000" points="285.9504,449.5293,275.9504,453.5293,285.9504,457.5293,281.9504,453.5293" style="stroke:#000000;stroke-width:1;"/><line style="stroke:#000000;stroke-width:1;" x1="125.01" x2="92.4177" y1="453.5293" y2="453.5293"/><polygon fill="#000000" points="88.4177,507.28,92.4177,517.28,96.4177,507.28,92.4177,511.28" style="stroke:#000000;stroke-width:1;"/><line style="stroke:#000000;stroke-width:1;" x1="92.4177" x2="92.4177" y1="453.5293" y2="583.8403"/><line style="stroke:#000000;stroke-width:1;" x1="92.4177" x2="200.4802" y1="583.8403" y2="583.8403"/><line style="stroke:#000000;stroke-width:1;" x1="200.4802" x2="200.4802" y1="583.8403" y2="643.2944"/><polygon fill="#000000" points="196.4802,633.2944,200.4802,643.2944,204.4802,633.2944,200.4802,637.2944" style="stroke:#000000;stroke-width:1;"/><line style="stroke:#000000;stroke-width:1;" x1="200.4802" x2="200.4802" y1="368.8452" y2="441.5293"/><polygon fill="#000000" points="196.4802,431.5293,200.4802,441.5293,204.4802,431.5293,200.4802,435.5293" style="stroke:#000000;stroke-width:1;"/><line style="stroke:#000000;stroke-width:1;" x1="200.4802" x2="200.4802" y1="677.8784" y2="697.8784"/><polygon fill="#000000" points="196.4802,687.8784,200.4802,697.8784,204.4802,687.8784,200.4802,691.8784" style="stroke:#000000;stroke-width:1;"/><line style="stroke:#000000;stroke-width:1;" x1="200.4802" x2="200.4802" y1="732.4624" y2="791.9165"/><polygon fill="#000000" points="196.4802,781.9165,200.4802,791.9165,204.4802,781.9165,200.4802,785.9165" style="stroke:#000000;stroke-width:1;"/><line style="stroke:#000000;stroke-width:1;" x1="200.4802" x2="200.4802" y1="841.0845" y2="900.5386"/><polygon fill="#000000" points="196.4802,890.5386,200.4802,900.5386,204.4802,890.5386,200.4802,894.5386" style="stroke:#000000;stroke-width:1;"/><line style="stroke:#000000;stroke-width:1;" x1="200.4802" x2="200.4802" y1="949.7065" y2="1018.1045"/><polygon fill="#000000" points="196.4802,1008.1045,200.4802,1018.1045,204.4802,1008.1045,200.4802,1012.1045" style="stroke:#000000;stroke-width:1;"/><!--SRC=[bLJ_Rk964FxVJp6NYzJWa9m9vPfmgYeVc0Y951feArMLeiMUc5NiNMj_14LDepv4dx1Fqjd59AO9xNM5i3qpkpFVDz_iExF24g4g61U1lkEYOegLm58ZrTmy50XiZLgM60HVmMKXbwo0ZAaxsEpJQ0mNkMviNRBqBbVIYcmW2wdWVUHN8oB3MsOBCvB2r24ZlroAxwMXKojC-IrFtpfUk83V0g3r-P-PwcEyJweCrMu5pjv8Mbj_TsdZrF1xRXv04sRAk4l5nhKdQUFmdQIDObuZTTOXPwKKsRyTk0tPSsxjVdqyONe1GF-66ox5FWGTl_ud0a-RD-dWtU5aSdKpc4wcr_0j7Bm__sQG99yFo3vC5ibrqtKH9Sb5v5o_9DVJXcCOnxqpSWHKAwak-MaA8weUrvB45e_Xhp_-X94j2eYjaKAMqcgOyGgfM_YhE1WeP2ICiT26vGvrF1iJylIEvGXhRbRG0nHP9Ramch8yrgWV8Gpdja9rppMXExgsshJ241w9GKF41S4BVGTXE5inZT3fmpmb_JEuH86AUUyHSK0x3pPyThkUxPgA_b1k2fpL5JaqwOeN6T2NC1IPRqv23LrOJAyce7q6JQwZ6iUfaMNH9XXKpqFzmIhktreK5uPFtNQd5u6HToXq67voNNgZ_hC-TIx3dUg7Q52LN71jUBh5qUrsEXiScxxryLxUf5BXJORtZP9xqKadYk2M5-WAJdo5a7fdsxTY-_vpFBzgmsWqRbFSvO_ZDf3Pa6E98bsLTBFGUoPJ-jUfufNH7jWMaoTEs-M9nfIKxo2Itzy9YkShuyKQXeiLrq2_zGhLHajhBlHf67f_NMsbP6PJZzuN3cox_J22L6f3Cc0YQwGxzVv1mIoHvndy00Ehd70-G4oWINdkgl1XQscflG8nWwTkrAQHFZdtZngA3xgbhNIJWYQbWxIciiOb8QLwK7lwr-t3Pwj9-5h3HEPqKRuflZK93E78qSyyJWsA94Kz5lbtBSVFqGFgbY_aHQZ9lHnGX-EAlw5I05vM1TtyD4MmtDPGk1fgxaY2tMUCG8DLvtQjyi3ggZ8fiBK7tzTz-C6omcaerjeg9bByp_cYTcmtkRhFJp9EbxVDkFdqAd2EgLNRIBtzq2aJ-qQcruS52PMO-z9H6SfhA-AgcY5nu9baAfT4ckFpsCj-Hzhxn_LZ7uPO5VB1qVxbwI_frhFBcTKhdpxdXbHTblGuXegiRsNNHbP1i3DFD4tJHJpfmrFdelsnSRjuts0wNv3hC3ezEwzDY_5LGgOUK8sMO7hp2IrwT86w29M3HUfR5XPRtferCJtxSuKeN40lEgvdT7lda2GD74R1ywJy3G00]--></g></svg>