<svg xmlns="http://www.w3.org/2000/svg" xmlns:xlink="http://www.w3.org/1999/xlink" contentStyleType="text/css" data-diagram-type="SEQUENCE" height="1235px" preserveAspectRatio="none" style="width:862px;height:1235px;background:#000000;" version="1.1" viewBox="0 0 862 1235" width="862px" zoomAndPan="magnify"><title>Google Antigravity Flow &#8212; "Create Instagram API package"</title><defs/><g><text fill="#FFFFFF" font-family="Verdana" font-size="22" font-weight="bold" lengthAdjust="spacing" textLength="740.2119" x="59.4902" y="37.1182">Google Antigravity Flow &#8212; "Create Instagram API package"</text><g><title>MANAGER</title><rect fill="#90EE90" height="730.1836" style="stroke:#FFFFFF;stroke-width:1;" width="10" x="334.6714" y="224.3652"/></g><g><title>AGENT 1</title><rect fill="#87CEEB" height="660.585" style="stroke:#FFFFFF;stroke-width:1;" width="10" x="501.5415" y="257.1646"/></g><g><title>AGENT 2</title><rect fill="#DDA0DD" height="402.9897" style="stroke:#FFFFFF;stroke-width:1;" width="10" x="676.3208" y="289.9639"/></g><g><title>USER</title><rect fill="#000000" fill-opacity="0.00000" height="985.9761" width="8" x="153" y="148.7666"/><line style="stroke:#FFFFFF;stroke-width:1;" x1="157" x2="157" y1="148.7666" y2="1134.7427"/></g><g><title>MANAGER</title><rect fill="#000000" fill-opacity="0.00000" height="985.9761" width="8" x="335.6714" y="148.7666"/><line style="stroke:#FFFFFF;stroke-width:1;" x1="339.2441" x2="339.2441" y1="148.7666" y2="1134.7427"/></g><g><title>AGENT 1</title><rect fill="#000000" fill-opacity="0.00000" height="985.9761" width="8" x="502.5415" y="148.7666"/><line style="stroke:#FFFFFF;stroke-width:1;" x1="506.0479" x2="506.0479" y1="148.7666" y2="1134.7427"/></g><g><title>AGENT 2</title><rect fill="#000000" fill-opacity="0.00000" height="985.9761" width="8" x="677.3208" y="148.7666"/><line style="stroke:#FFFFFF;stroke-width:1;" x1="680.8271" x2="680.8271" y1="148.7666" y2="1134.7427"/></g><g class="participant participant-head" data-participant="U"><text fill="#FFFFFF" font-family="Verdana" font-size="14" lengthAdjust="spacing" textLength="38.4043" x="134.7979" y="128.8125">USER</text><text fill="#FFFFFF" font-family="Verdana" font-size="14" lengthAdjust="spacing" textLength="38.2471" x="134.8765" y="145.8271">(IDE)</text><ellipse cx="157" cy="69.7373" fill="#FFB6C1" rx="16" ry="16" style="stroke:#000000;stroke-width:1;"/><path d="M157,89.7373 C161,89.7373 164,89.7373 168,85.7373 C176,85.7373 184,93.7373 184,101.7373 L184,105.7373 C184,109.7373 180,113.7373 176,113.7373 L138,113.7373 C134,113.7373 130,109.7373 130,105.7373 L130,101.7373 C130,93.7373 138,85.7373 146,85.7373 C150,89.7373 153,89.7373 157,89.7373" fill="#FFB6C1" style="stroke:#000000;stroke-width:1;"/></g><g class="participant participant-tail" data-participant="U"><text fill="#FFFFFF" font-family="Verdana" font-size="14" lengthAdjust="spacing" textLength="38.4043" x="134.7979" y="1147.8179">USER</text><text fill="#FFFFFF" font-family="Verdana" font-size="14" lengthAdjust="spacing" textLength="38.2471" x="134.8765" y="1164.8325">(IDE)</text><ellipse cx="157" cy="1184.772" fill="#FFB6C1" rx="16" ry="16" style="stroke:#000000;stroke-width:1;"/><path d="M157,1204.772 C161,1204.772 164,1204.772 168,1200.772 C176,1200.772 184,1208.772 184,1216.772 L184,1220.772 C184,1224.772 180,1228.772 176,1228.772 L138,1228.772 C134,1228.772 130,1224.772 130,1220.772 L130,1216.772 C130,1208.772 138,1200.772 146,1200.772 C150,1204.772 153,1204.772 157,1204.772" fill="#FFB6C1" style="stroke:#000000;stroke-width:1;"/></g><g class="participant participant-head" data-participant="M"><rect fill="#90EE90" height="48.0293" rx="2.5" ry="2.5" style="stroke:#FFFFFF;stroke-width:1;" width="84.8545" x="297.2441" y="99.7373"/><text fill="#FFFFFF" font-family="Verdana" font-size="14" lengthAdjust="spacing" textLength="70.8545" x="304.2441" y="120.8125">MANAGER</text><text fill="#FFFFFF" font-family="Verdana" font-size="14" lengthAdjust="spacing" textLength="38.1582" x="320.5923" y="137.8271">VIEW</text></g><g class="participant participant-tail" data-participant="M"><rect fill="#90EE90" height="48.0293" rx="2.5" ry="2.5" style="stroke:#FFFFFF;stroke-width:1;" width="84.8545" x="297.2441" y="1133.7427"/><text fill="#FFFFFF" font-family="Verdana" font-size="14" lengthAdjust="spacing" textLength="70.8545" x="304.2441" y="1154.8179">MANAGER</text><text fill="#FFFFFF" font-family="Verdana" font-size="14" lengthAdjust="spacing" textLength="38.1582" x="320.5923" y="1171.8325">VIEW</text></g><g class="participant participant-head" data-participant="A1"><rect fill="#87CEEB" height="48.0293" rx="2.5" ry="2.5" style="stroke:#FFFFFF;stroke-width:1;" width="100.9873" x="456.0479" y="99.7373"/><text fill="#FFFFFF" font-family="Verdana" font-size="14" lengthAdjust="spacing" textLength="62.2002" x="475.4414" y="120.8125">AGENT 1</text><text fill="#FFFFFF" font-family="Verdana" font-size="14" lengthAdjust="spacing" textLength="86.9873" x="463.0479" y="137.8271">(workspace)</text></g><g class="participant participant-tail" data-participant="A1"><rect fill="#87CEEB" height="48.0293" rx="2.5" ry="2.5" style="stroke:#FFFFFF;stroke-width:1;" width="100.9873" x="456.0479" y="1133.7427"/><text fill="#FFFFFF" font-family="Verdana" font-size="14" lengthAdjust="spacing" textLength="62.2002" x="475.4414" y="1154.8179">AGENT 1</text><text fill="#FFFFFF" font-family="Verdana" font-size="14" lengthAdjust="spacing" textLength="86.9873" x="463.0479" y="1171.8325">(workspace)</text></g><g class="participant participant-head" data-participant="A2"><rect fill="#DDA0DD" height="48.0293" rx="2.5" ry="2.5" style="stroke:#FFFFFF;stroke-width:1;" width="100.9873" x="630.8271" y="99.7373"/><text fill="#FFFFFF" font-family="Verdana" font-size="14" lengthAdjust="spacing" textLength="62.2002" x="650.2207" y="120.8125">AGENT 2</text><text fill="#FFFFFF" font-family="Verdana" font-size="14" lengthAdjust="spacing" textLength="86.9873" x="637.8271" y="137.8271">(workspace)</text></g><g class="participant participant-tail" data-participant="A2"><rect fill="#DDA0DD" height="48.0293" rx="2.5" ry="2.5" style="stroke:#FFFFFF;stroke-width:1;" width="100.9873" x="630.8271" y="1133.7427"/><text fill="#FFFFFF" font-family="Verdana" font-size="14" lengthAdjust="spacing" textLength="62.2002" x="650.2207" y="1154.8179">AGENT 2</text><text fill="#FFFFFF" font-family="Verdana" font-size="14" lengthAdjust="spacing" textLength="86.9873" x="637.8271" y="1171.8325">(workspace)</text></g><g><title>MANAGER</title><rect fill="#90EE90" height="730.1836" style="stroke:#FFFFFF;stroke-width:1;" width="10" x="334.6714" y="224.3652"/></g><g><title>AGENT 1</title><rect fill="#87CEEB" height="660.585" style="stroke:#FFFFFF;stroke-width:1;" width="10" x="501.5415" y="257.1646"/></g><g><title>AGENT 2</title><rect fill="#DDA0DD" height="402.9897" style="stroke:#FFFFFF;stroke-width:1;" width="10" x="676.3208" y="289.9639"/></g><rect fill="#000000" height="3" style="stroke:#000000;stroke-width:1;" width="850.1924" x="5" y="179.6663"/><line style="stroke:#FFFFFF;stroke-width:0.5;" x1="5" x2="855.1924" y1="179.6663" y2="179.6663"/><line style="stroke:#FFFFFF;stroke-width:0.5;" x1="5" x2="855.1924" y1="182.6663" y2="182.6663"/><rect fill="#000000" height="23.7993" style="stroke:#FFFFFF;stroke-width:1;" width="122.6021" x="368.7952" y="168.7666"/><text fill="#FFFFFF" font-family="Verdana" font-size="13" font-weight="bold" lengthAdjust="spacing" textLength="104.1587" x="374.7952" y="185.8364">Spawn Agents</text><g class="message" data-participant-1="U" data-participant-2="M"><polygon fill="#FFB6C1" points="322.6714,220.3652,332.6714,224.3652,322.6714,228.3652,326.6714,224.3652" style="stroke:#FFB6C1;stroke-width:1;"/><line style="stroke:#FFB6C1;stroke-width:1;" x1="157" x2="328.6714" y1="224.3652" y2="224.3652"/><text fill="#FFFFFF" font-family="Verdana" font-size="13" font-weight="bold" lengthAdjust="spacing" textLength="9.2422" x="164" y="219.6357">1</text><text fill="#FFFFFF" font-family="Verdana" font-size="13" lengthAdjust="spacing" textLength="124.7441" x="177.2422" y="219.6357">"create Instagram"</text></g><g class="message" data-participant-1="M" data-participant-2="A1"><polygon fill="#90EE90" points="489.5415,253.1646,499.5415,257.1646,489.5415,261.1646,493.5415,257.1646" style="stroke:#90EE90;stroke-width:1;"/><line style="stroke:#90EE90;stroke-width:1;" x1="344.6714" x2="495.5415" y1="257.1646" y2="257.1646"/><text fill="#FFFFFF" font-family="Verdana" font-size="13" font-weight="bold" lengthAdjust="spacing" textLength="9.2422" x="351.6714" y="252.4351">2</text><text fill="#FFFFFF" font-family="Verdana" font-size="13" lengthAdjust="spacing" textLength="95.9512" x="364.9136" y="252.4351">spawn agent 1</text></g><path d="M516,237.3652 L516,262.3652 L622,262.3652 L622,247.3652 L612,237.3652 L516,237.3652" fill="#FFFFFF" style="stroke:#000000;stroke-width:1;"/><path d="M612,237.3652 L612,247.3652 L622,247.3652 L612,237.3652" fill="#FFFFFF" style="stroke:#000000;stroke-width:1;"/><text fill="#000000" font-family="Verdana" font-size="13" lengthAdjust="spacing" textLength="85.8267" x="522" y="255.4351">cloud startup</text><g class="message" data-participant-1="M" data-participant-2="A2"><polygon fill="#90EE90" points="664.3208,285.9639,674.3208,289.9639,664.3208,293.9639,668.3208,289.9639" style="stroke:#90EE90;stroke-width:1;"/><line style="stroke:#90EE90;stroke-width:1;" x1="344.6714" x2="670.3208" y1="289.9639" y2="289.9639"/><text fill="#FFFFFF" font-family="Verdana" font-size="13" font-weight="bold" lengthAdjust="spacing" textLength="9.2422" x="351.6714" y="285.2344">3</text><text fill="#FFFFFF" font-family="Verdana" font-size="13" lengthAdjust="spacing" textLength="95.9512" x="364.9136" y="285.2344">spawn agent 2</text></g><rect fill="#000000" height="3" style="stroke:#000000;stroke-width:1;" width="850.1924" x="5" y="318.8635"/><line style="stroke:#FFFFFF;stroke-width:0.5;" x1="5" x2="855.1924" y1="318.8635" y2="318.8635"/><line style="stroke:#FFFFFF;stroke-width:0.5;" x1="5" x2="855.1924" y1="321.8635" y2="321.8635"/><rect fill="#000000" height="23.7993" style="stroke:#FFFFFF;stroke-width:1;" width="330.4878" x="264.8523" y="307.9639"/><text fill="#FFFFFF" font-family="Verdana" font-size="13" font-weight="bold" lengthAdjust="spacing" textLength="312.0444" x="270.8523" y="325.0337">Parallel Work (each with growing context)</text><g class="message" data-participant-1="A1" data-participant-2="A1"><line style="stroke:#FFFFFF;stroke-width:1;" x1="511.5415" x2="553.5415" y1="410.9604" y2="410.9604"/><line style="stroke:#FFFFFF;stroke-width:1;" x1="553.5415" x2="553.5415" y1="410.9604" y2="423.9604"/><line style="stroke:#FFFFFF;stroke-width:1;" x1="512.5415" x2="553.5415" y1="423.9604" y2="423.9604"/><polygon fill="#FFFFFF" points="522.5415,419.9604,512.5415,423.9604,522.5415,427.9604,518.5415,423.9604" style="stroke:#FFFFFF;stroke-width:1;"/><text fill="#FFFFFF" font-family="Verdana" font-size="13" font-weight="bold" lengthAdjust="spacing" textLength="9.2422" x="518.5415" y="382.532">4</text><text fill="#FFFFFF" font-family="Verdana" font-size="13" lengthAdjust="spacing" textLength="87.2739" x="531.7837" y="358.833">Write entities</text><text fill="#FFFFFF" font-family="Verdana" font-size="13" lengthAdjust="spacing" textLength="126.6294" x="531.7837" y="374.6323">+ ALL tools per call</text><text fill="#FFFFFF" font-family="Verdana" font-size="13" lengthAdjust="spacing" textLength="92.0918" x="531.7837" y="390.4316">context grows</text><text fill="#FFFFFF" font-family="Verdana" font-size="13" lengthAdjust="spacing" textLength="84.1953" x="531.7837" y="406.231">~60K tokens</text></g><g class="message" data-participant-1="A2" data-participant-2="A2"><line style="stroke:#FFFFFF;stroke-width:1;" x1="686.3208" x2="728.3208" y1="501.1577" y2="501.1577"/><line style="stroke:#FFFFFF;stroke-width:1;" x1="728.3208" x2="728.3208" y1="501.1577" y2="514.1577"/><line style="stroke:#FFFFFF;stroke-width:1;" x1="687.3208" x2="728.3208" y1="514.1577" y2="514.1577"/><polygon fill="#FFFFFF" points="697.3208,510.1577,687.3208,514.1577,697.3208,518.1577,693.3208,514.1577" style="stroke:#FFFFFF;stroke-width:1;"/><text fill="#FFFFFF" font-family="Verdana" font-size="13" font-weight="bold" lengthAdjust="spacing" textLength="9.2422" x="693.3208" y="472.7292">5</text><text fill="#FFFFFF" font-family="Verdana" font-size="13" lengthAdjust="spacing" textLength="95.3989" x="706.563" y="449.0303">Write handlers</text><text fill="#FFFFFF" font-family="Verdana" font-size="13" lengthAdjust="spacing" textLength="126.6294" x="706.563" y="464.8296">+ ALL tools per call</text><text fill="#FFFFFF" font-family="Verdana" font-size="13" lengthAdjust="spacing" textLength="92.0918" x="706.563" y="480.6289">context grows</text><text fill="#FFFFFF" font-family="Verdana" font-size="13" lengthAdjust="spacing" textLength="84.1953" x="706.563" y="496.4282">~60K tokens</text></g><rect fill="#000000" height="3" style="stroke:#000000;stroke-width:1;" width="850.1924" x="5" y="543.0574"/><line style="stroke:#FFFFFF;stroke-width:0.5;" x1="5" x2="855.1924" y1="543.0574" y2="543.0574"/><line style="stroke:#FFFFFF;stroke-width:0.5;" x1="5" x2="855.1924" y1="546.0574" y2="546.0574"/><rect fill="#000000" height="23.7993" style="stroke:#FFFFFF;stroke-width:1;" width="157.019" x="351.5867" y="532.1577"/><text fill="#FFFFFF" font-family="Verdana" font-size="13" font-weight="bold" lengthAdjust="spacing" textLength="138.5757" x="357.5867" y="549.2275">Artifact Production</text><g class="message" data-participant-1="A1" data-participant-2="M"><polygon fill="#87CEEB" points="355.6714,599.5557,345.6714,603.5557,355.6714,607.5557,351.6714,603.5557" style="stroke:#87CEEB;stroke-width:1;"/><line style="stroke:#87CEEB;stroke-width:1;" x1="349.6714" x2="500.5415" y1="603.5557" y2="603.5557"/><text fill="#FFFFFF" font-family="Verdana" font-size="13" font-weight="bold" lengthAdjust="spacing" textLength="9.2422" x="361.6714" y="590.9265">6</text><text fill="#FFFFFF" font-family="Verdana" font-size="13" lengthAdjust="spacing" textLength="104.3491" x="374.9136" y="583.0269">produce Artifact</text><text fill="#FFFFFF" font-family="Verdana" font-size="13" lengthAdjust="spacing" textLength="119.6279" x="374.9136" y="598.8262">(screenshot, plan)</text></g><g class="message" data-participant-1="M" data-participant-2="U"><polygon fill="#90EE90" points="168,629.355,158,633.355,168,637.355,164,633.355" style="stroke:#90EE90;stroke-width:1;"/><line style="stroke:#90EE90;stroke-width:1;" x1="162" x2="333.6714" y1="633.355" y2="633.355"/><text fill="#FFFFFF" font-family="Verdana" font-size="13" font-weight="bold" lengthAdjust="spacing" textLength="9.2422" x="174" y="628.6255">7</text><text fill="#FFFFFF" font-family="Verdana" font-size="13" lengthAdjust="spacing" textLength="60.2329" x="187.2422" y="628.6255">Artifact 1</text></g><g class="message" data-participant-1="A2" data-participant-2="M"><polygon fill="#DDA0DD" points="355.6714,659.1543,345.6714,663.1543,355.6714,667.1543,351.6714,663.1543" style="stroke:#DDA0DD;stroke-width:1;"/><line style="stroke:#DDA0DD;stroke-width:1;" x1="349.6714" x2="675.3208" y1="663.1543" y2="663.1543"/><text fill="#FFFFFF" font-family="Verdana" font-size="13" font-weight="bold" lengthAdjust="spacing" textLength="9.2422" x="361.6714" y="658.4248">8</text><text fill="#FFFFFF" font-family="Verdana" font-size="13" lengthAdjust="spacing" textLength="104.3491" x="374.9136" y="658.4248">produce Artifact</text></g><g class="message" data-participant-1="M" data-participant-2="U"><polygon fill="#90EE90" points="168,688.9536,158,692.9536,168,696.9536,164,692.9536" style="stroke:#90EE90;stroke-width:1;"/><line style="stroke:#90EE90;stroke-width:1;" x1="162" x2="333.6714" y1="692.9536" y2="692.9536"/><text fill="#FFFFFF" font-family="Verdana" font-size="13" font-weight="bold" lengthAdjust="spacing" textLength="9.2422" x="174" y="688.2241">9</text><text fill="#FFFFFF" font-family="Verdana" font-size="13" lengthAdjust="spacing" textLength="60.2329" x="187.2422" y="688.2241">Artifact 2</text></g><rect fill="#000000" height="3" style="stroke:#000000;stroke-width:1;" width="850.1924" x="5" y="721.8533"/><line style="stroke:#FFFFFF;stroke-width:0.5;" x1="5" x2="855.1924" y1="721.8533" y2="721.8533"/><line style="stroke:#FFFFFF;stroke-width:0.5;" x1="5" x2="855.1924" y1="724.8533" y2="724.8533"/><rect fill="#000000" height="23.7993" style="stroke:#FFFFFF;stroke-width:1;" width="127.0645" x="366.564" y="710.9536"/><text fill="#FFFFFF" font-family="Verdana" font-size="13" font-weight="bold" lengthAdjust="spacing" textLength="108.6211" x="372.564" y="728.0234">Feedback Loop</text><g class="message" data-participant-1="U" data-participant-2="M"><polygon fill="#FFB6C1" points="322.6714,762.5522,332.6714,766.5522,322.6714,770.5522,326.6714,766.5522" style="stroke:#FFB6C1;stroke-width:1;"/><line style="stroke:#FFB6C1;stroke-width:1;" x1="157" x2="328.6714" y1="766.5522" y2="766.5522"/><text fill="#FFFFFF" font-family="Verdana" font-size="13" font-weight="bold" lengthAdjust="spacing" textLength="18.4844" x="164" y="761.8228">10</text><text fill="#FFFFFF" font-family="Verdana" font-size="13" lengthAdjust="spacing" textLength="131.187" x="186.4844" y="761.8228">feedback on Artifact</text></g><g class="message" data-participant-1="M" data-participant-2="A1"><polygon fill="#90EE90" points="489.5415,792.3516,499.5415,796.3516,489.5415,800.3516,493.5415,796.3516" style="stroke:#90EE90;stroke-width:1;"/><line style="stroke:#90EE90;stroke-width:1;" x1="344.6714" x2="495.5415" y1="796.3516" y2="796.3516"/><text fill="#FFFFFF" font-family="Verdana" font-size="13" font-weight="bold" lengthAdjust="spacing" textLength="18.4844" x="351.6714" y="791.6221">11</text><text fill="#FFFFFF" font-family="Verdana" font-size="13" lengthAdjust="spacing" textLength="103.0859" x="374.1558" y="791.6221">resume agent 1</text></g><g class="message" data-participant-1="A1" data-participant-2="A1"><line style="stroke:#FFFFFF;stroke-width:1;" x1="511.5415" x2="553.5415" y1="826.1509" y2="826.1509"/><line style="stroke:#FFFFFF;stroke-width:1;" x1="553.5415" x2="553.5415" y1="826.1509" y2="839.1509"/><line style="stroke:#FFFFFF;stroke-width:1;" x1="512.5415" x2="553.5415" y1="839.1509" y2="839.1509"/><polygon fill="#FFFFFF" points="522.5415,835.1509,512.5415,839.1509,522.5415,843.1509,518.5415,839.1509" style="stroke:#FFFFFF;stroke-width:1;"/><text fill="#FFFFFF" font-family="Verdana" font-size="13" font-weight="bold" lengthAdjust="spacing" textLength="18.4844" x="518.5415" y="821.4214">12</text><text fill="#FFFFFF" font-family="Verdana" font-size="13" lengthAdjust="spacing" textLength="106.2915" x="541.0259" y="821.4214">more Write calls</text></g><g class="message" data-participant-1="A1" data-participant-2="A1"><line style="stroke:#FFFFFF;stroke-width:1;" x1="511.5415" x2="553.5415" y1="868.9502" y2="868.9502"/><line style="stroke:#FFFFFF;stroke-width:1;" x1="553.5415" x2="553.5415" y1="868.9502" y2="881.9502"/><line style="stroke:#FFFFFF;stroke-width:1;" x1="512.5415" x2="553.5415" y1="881.9502" y2="881.9502"/><polygon fill="#FFFFFF" points="522.5415,877.9502,512.5415,881.9502,522.5415,885.9502,518.5415,881.9502" style="stroke:#FFFFFF;stroke-width:1;"/><text fill="#FFFFFF" font-family="Verdana" font-size="13" font-weight="bold" lengthAdjust="spacing" textLength="18.4844" x="518.5415" y="864.2207">13</text><text fill="#FFFFFF" font-family="Verdana" font-size="13" lengthAdjust="spacing" textLength="118.2949" x="541.0259" y="864.2207">Bash: build + test</text></g><g class="message" data-participant-1="A1" data-participant-2="A1"><line style="stroke:#FFFFFF;stroke-width:1;" x1="511.5415" x2="553.5415" y1="916.7495" y2="916.7495"/><line style="stroke:#FFFFFF;stroke-width:1;" x1="553.5415" x2="553.5415" y1="916.7495" y2="929.7495"/><line style="stroke:#FFFFFF;stroke-width:1;" x1="506.5415" x2="553.5415" y1="929.7495" y2="929.7495"/><polygon fill="#FFFFFF" points="516.5415,925.7495,506.5415,929.7495,516.5415,933.7495,512.5415,929.7495" style="stroke:#FFFFFF;stroke-width:1;"/><text fill="#FFFFFF" font-family="Verdana" font-size="13" font-weight="bold" lengthAdjust="spacing" textLength="18.4844" x="518.5415" y="912.02">14</text><text fill="#FFFFFF" font-family="Verdana" font-size="13" lengthAdjust="spacing" textLength="94.8784" x="541.0259" y="912.02">Bash: git push</text></g><g class="message" data-participant-1="M" data-participant-2="U"><polygon fill="#90EE90" points="168,950.5488,158,954.5488,168,958.5488,164,954.5488" style="stroke:#90EE90;stroke-width:1;"/><line style="stroke:#90EE90;stroke-width:1;" x1="162" x2="338.6714" y1="954.5488" y2="954.5488"/><text fill="#FFFFFF" font-family="Verdana" font-size="13" font-weight="bold" lengthAdjust="spacing" textLength="18.4844" x="174" y="949.8193">15</text><text fill="#FFFFFF" font-family="Verdana" font-size="13" lengthAdjust="spacing" textLength="79.7075" x="196.4844" y="949.8193">final Artifact</text></g><path d="M10,967.5488 L10,1119.5488 L305,1119.5488 L305,977.5488 L295,967.5488 L10,967.5488" fill="#FFFFFF" style="stroke:#000000;stroke-width:1;"/><path d="M295,967.5488 L295,977.5488 L305,977.5488 L295,967.5488" fill="#FFFFFF" style="stroke:#000000;stroke-width:1;"/><text fill="#000000" font-family="Verdana" font-size="13" font-weight="bold" lengthAdjust="spacing" textLength="181.8667" x="16" y="985.6187">TOTAL: ~115,000 tokens</text><text fill="#000000" font-family="Verdana" font-size="13" font-weight="bold" lengthAdjust="spacing" textLength="149.0747" x="16" y="1001.418">COST: ~$1.10-$1.40</text><text fill="#000000" font-family="Verdana" font-size="13" font-weight="bold" lengthAdjust="spacing" textLength="153.4736" x="16" y="1017.2173">TIME: 10-20 minutes</text><text fill="#000000" font-family="Verdana" font-size="13" lengthAdjust="spacing" textLength="111.3823" x="16" y="1033.0166">No typed entities</text><text fill="#000000" font-family="Verdana" font-size="13" lengthAdjust="spacing" textLength="145.3169" x="16" y="1048.8159">No capability manifest</text><text fill="#000000" font-family="Verdana" font-size="13" lengthAdjust="spacing" textLength="170.4028" x="16" y="1064.6152">No deterministic code gen</text><text fill="#000000" font-family="Verdana" font-size="13" lengthAdjust="spacing" textLength="155.9937" x="16" y="1080.4146">Agents are independent</text><text fill="#000000" font-family="Verdana" font-size="13" lengthAdjust="spacing" textLength="274.4663" x="16" y="1096.2139">Artifacts are visual, not machine-readable</text><text fill="#000000" font-family="Verdana" font-size="13" lengthAdjust="spacing" textLength="267.103" x="16" y="1112.0132">Knowledge base saves context for future</text><!--SRC=[dLRlRXf74F- -Jp6XaHexfk9GapP8L3e3jb30jWBK7-ogMku6M77iNdVt85RLg0_H9yoJT7Rlm7VsuKQz3o3Ddz_CRsPsTb_P5MuGqeGBoSnQo9HhlW4UMQKdzY51u3iqQeECVG-NYPhp16Akrv3x6RHMoAKfkSvvj5vgbScufnAbuRkM_qeMCIvubjWB9MrXSk4_5-9AMK9DCH8B4TN1IsVm9mFwpfz6Ac2yJkaOTJK39oy5BQH_kR0J_2D36L5euamHIm7DNfK77Oa5ZeJ4Ie1Iu8F-I1cSpGtNLaGYvT8UWocRV1lIyt8wWqjoJ5z2o0rK_F0DHlMfUcLzzBxO2l9v2NflSWIyKDV3XrghNLtlFn-3SwgdoGJ-swkVH_83uaM6lNezcmm-_Twx7br_WYuqoERyVIzea68SNeMN5Ts7rc3meULqOL0I__nJRp0uz-9sITplXwr-ly6O5PQEtQLII_eBfHLBpRV2Fi15edRmzUz_eD7JoEaO3AMnVEc6DBmPGah4-189mPzUQBXKx-MRONzmqW1kO0Qbx5dwE3hGA9A_bxyE1xVUU0nLHbLxabzD8I3qdT9hGw4nZn46S61RvzAkSMd3eHAKUsQLp3Ppr8nrkp19-Kv2k4Hf3NIxZCsWULUYyTilCEv08tfIa8QhWTWwsJCYREmWAZ922OCExHqNZBjW432_QRHOhcm7eaHbCIq78fIbZzWLjlMmxIfik-HSuKrSwJ3p9C44Rgb0y0Pvj8ATi2kWSTtHKeA8PXC_snDV28hTpDE-rOBW25rOWUPUleLmD0AhL68WHGqHeTxBmjc3aT6NzwsFPBD6QHXbqinJpQ5MNCO9wly3vNY4rFK5qOGRhUACw2fvoFZkKA-ySwatmOCFZOUXPXBKIjapTo_9a_hApZgFWG9FuUvGpdhi_yPfinXB_V5iBX1ZTwV1IAdq-0WkzcP4zkM0hcKQJKRNvtxKIitSA8r56ronJKbrpisg0_DC936y1Ol6FbCkXOKqCwiAZu0TPRuGaYxqGxvbjp7BJu3QKjzdj1vFJwVNqt3KWIz1yEwCzdVHyzDJh-nTJwQaUnty4BIQzFjZgr1CX-D11qZORi56o8mIzveh1VOXnVWmkRaiuYcVYyGjl0sNT9iIJQ-8qQ8c065egT1PY16eVAGhjWEdmWaPOuhq8vtJdbUksmgJyUJClI08ELhH9TsajH7pUO9a_56gNOBn4ka5O-WXmBTezYSE5hHF5vdDD392zuyGzYy0]--></g></svg>