<svg xmlns="http://www.w3.org/2000/svg" xmlns:xlink="http://www.w3.org/1999/xlink" contentStyleType="text/css" data-diagram-type="DESCRIPTION" height="815px" preserveAspectRatio="none" style="width:997px;height:815px;background:#FFFFFF;" version="1.1" viewBox="0 0 997 815" width="997px" zoomAndPan="magnify"><title>AI Entity Serialization System - Architecture Overview</title><defs/><g><text fill="#000000" font-family="Verdana" font-size="22" font-weight="bold" lengthAdjust="spacing" textLength="672.3213" x="158.2041" y="37.1182">AI Entity Serialization System - Architecture Overview</text><!--cluster Entity Layer--><g class="cluster" data-entity="Entity Layer" data-source-line="7" data-uid="ent0002" id="cluster_Entity Layer"><path d="M20.5,332.7373 L116.1162,332.7373 A3.75,3.75 0 0 1 118.6162,335.2373 L125.6162,355.752 L165.5,355.752 A2.5,2.5 0 0 1 168,358.252 L168,551.2373 A2.5,2.5 0 0 1 165.5,553.7373 L20.5,553.7373 A2.5,2.5 0 0 1 18,551.2373 L18,335.2373 A2.5,2.5 0 0 1 20.5,332.7373" fill="#FFFFFF" style="stroke:#000000;stroke-width:1;"/><line style="stroke:#000000;stroke-width:1;" x1="18" x2="125.6162" y1="355.752" y2="355.752"/><text fill="#000000" font-family="Verdana" font-size="14" font-weight="bold" lengthAdjust="spacing" textLength="94.6162" x="22" y="348.8125">Entity Layer</text></g><!--cluster Serialization Layer--><g class="cluster" data-entity="Serialization Layer" data-source-line="12" data-uid="ent0005" id="cluster_Serialization Layer"><path d="M315.5,194.7373 L463.2881,194.7373 A3.75,3.75 0 0 1 465.7881,197.2373 L472.7881,217.752 L484.5,217.752 A2.5,2.5 0 0 1 487,220.252 L487,551.2373 A2.5,2.5 0 0 1 484.5,553.7373 L315.5,553.7373 A2.5,2.5 0 0 1 313,551.2373 L313,197.2373 A2.5,2.5 0 0 1 315.5,194.7373" fill="#FFFFFF" style="stroke:#000000;stroke-width:1;"/><line style="stroke:#000000;stroke-width:1;" x1="313" x2="472.7881" y1="217.752" y2="217.752"/><text fill="#000000" font-family="Verdana" font-size="14" font-weight="bold" lengthAdjust="spacing" textLength="146.7881" x="317" y="210.8125">Serialization Layer</text></g><!--cluster Format Layer--><g class="cluster" data-entity="Format Layer" data-source-line="18" data-uid="ent0009" id="cluster_Format Layer"><path d="M217.5,602.7373 L323.1445,602.7373 A3.75,3.75 0 0 1 325.6445,605.2373 L332.6445,625.752 L576.5,625.752 A2.5,2.5 0 0 1 579,628.252 L579,805.7373 A2.5,2.5 0 0 1 576.5,808.2373 L217.5,808.2373 A2.5,2.5 0 0 1 215,805.7373 L215,605.2373 A2.5,2.5 0 0 1 217.5,602.7373" fill="#FFFFFF" style="stroke:#000000;stroke-width:1;"/><line style="stroke:#000000;stroke-width:1;" x1="215" x2="332.6445" y1="625.752" y2="625.752"/><text fill="#000000" font-family="Verdana" font-size="14" font-weight="bold" lengthAdjust="spacing" textLength="104.6445" x="219" y="618.8125">Format Layer</text></g><!--cluster Deserialization Layer--><g class="cluster" data-entity="Deserialization Layer" data-source-line="24" data-uid="ent0013" id="cluster_Deserialization Layer"><path d="M13.5,58.7373 L180.5654,58.7373 A3.75,3.75 0 0 1 183.0654,61.2373 L190.0654,81.752 L286.5,81.752 A2.5,2.5 0 0 1 289,84.252 L289,281.2373 A2.5,2.5 0 0 1 286.5,283.7373 L13.5,283.7373 A2.5,2.5 0 0 1 11,281.2373 L11,61.2373 A2.5,2.5 0 0 1 13.5,58.7373" fill="#FFFFFF" style="stroke:#000000;stroke-width:1;"/><line style="stroke:#000000;stroke-width:1;" x1="11" x2="190.0654" y1="81.752" y2="81.752"/><text fill="#000000" font-family="Verdana" font-size="14" font-weight="bold" lengthAdjust="spacing" textLength="166.0654" x="15" y="74.8125">Deserialization Layer</text></g><!--cluster LLM Communication--><g class="cluster" data-entity="LLM Communication" data-source-line="30" data-uid="ent0017" id="cluster_LLM Communication"><path d="M576.5,194.7373 L735.834,194.7373 A3.75,3.75 0 0 1 738.334,197.2373 L745.334,217.752 L745.5,217.752 A2.5,2.5 0 0 1 748,220.252 L748,419.2373 A2.5,2.5 0 0 1 745.5,421.7373 L576.5,421.7373 A2.5,2.5 0 0 1 574,419.2373 L574,197.2373 A2.5,2.5 0 0 1 576.5,194.7373" fill="#FFFFFF" style="stroke:#000000;stroke-width:1;"/><line style="stroke:#000000;stroke-width:1;" x1="574" x2="745.334" y1="217.752" y2="217.752"/><text fill="#000000" font-family="Verdana" font-size="14" font-weight="bold" lengthAdjust="spacing" textLength="158.334" x="578" y="210.8125">LLM Communication</text></g><!--entity Entity--><g class="entity" data-entity="Entity" data-source-line="8" data-uid="ent0003" id="entity_Entity"><rect fill="#FFFFFF" height="37.0146" rx="2.5" ry="2.5" style="stroke:#000000;stroke-width:1;" width="108.5254" x="34.5" y="368.7373"/><text fill="#000000" font-family="Verdana" font-size="14" lengthAdjust="spacing" textLength="88.5254" x="44.5" y="392.8125">Entity Struct</text></g><!--entity Trait--><g class="entity" data-entity="Trait" data-source-line="9" data-uid="ent0004" id="entity_Trait"><rect fill="#FFFFFF" height="37.0146" rx="2.5" ry="2.5" style="stroke:#000000;stroke-width:1;" width="117.4668" x="34.5" y="500.7373"/><text fill="#000000" font-family="Verdana" font-size="14" lengthAdjust="spacing" textLength="97.4668" x="44.5" y="524.8125">IAiEntity Trait</text></g><!--entity ToAI--><g class="entity" data-entity="ToAI" data-source-line="13" data-uid="ent0006" id="entity_ToAI"><rect fill="#FFFFFF" height="37.0146" rx="2.5" ry="2.5" style="stroke:#000000;stroke-width:1;" width="67.8789" x="329" y="230.7373"/><text fill="#000000" font-family="Verdana" font-size="14" lengthAdjust="spacing" textLength="47.8789" x="339" y="254.8125">to_ai()</text></g><!--entity Helpers--><g class="entity" data-entity="Helpers" data-source-line="14" data-uid="ent0007" id="entity_Helpers"><rect fill="#FFFFFF" height="37.0146" rx="2.5" ry="2.5" style="stroke:#000000;stroke-width:1;" width="142.4863" x="329" y="368.7373"/><text fill="#000000" font-family="Verdana" font-size="14" lengthAdjust="spacing" textLength="122.4863" x="339" y="392.8125">UAiEntity Helpers</text></g><!--entity Functions--><g class="entity" data-entity="Functions" data-source-line="15" data-uid="ent0008" id="entity_Functions"><rect fill="#FFFFFF" height="37.0146" rx="2.5" ry="2.5" style="stroke:#000000;stroke-width:1;" width="131.624" x="334" y="500.7373"/><text fill="#000000" font-family="Verdana" font-size="14" lengthAdjust="spacing" textLength="111.624" x="344" y="524.8125">Inline Functions</text></g><!--entity Format--><g class="entity" data-entity="Format" data-source-line="19" data-uid="ent0010" id="entity_Format"><rect fill="#FFFFFF" height="37.0146" rx="2.5" ry="2.5" style="stroke:#000000;stroke-width:1;" width="136.8125" x="412.5" y="638.7373"/><text fill="#000000" font-family="Verdana" font-size="14" lengthAdjust="spacing" textLength="116.8125" x="422.5" y="662.8125">Compact Format</text></g><!--entity Delimiter--><g class="entity" data-entity="Delimiter" data-source-line="20" data-uid="ent0011" id="entity_Delimiter"><rect fill="#FFFFFF" height="37.0146" rx="2.5" ry="2.5" style="stroke:#000000;stroke-width:1;" width="132.8203" x="231.5" y="755.2373"/><text fill="#000000" font-family="Verdana" font-size="14" lengthAdjust="spacing" textLength="112.8203" x="241.5" y="779.3125">Delimiter-Based</text></g><!--entity Nesting--><g class="entity" data-entity="Nesting" data-source-line="21" data-uid="ent0012" id="entity_Nesting"><rect fill="#FFFFFF" height="37.0146" rx="2.5" ry="2.5" style="stroke:#000000;stroke-width:1;" width="163.2881" x="399.5" y="755.2373"/><text fill="#000000" font-family="Verdana" font-size="14" lengthAdjust="spacing" textLength="143.2881" x="409.5" y="779.3125">Level-Based Nesting</text></g><!--entity FromAI--><g class="entity" data-entity="FromAI" data-source-line="25" data-uid="ent0014" id="entity_FromAI"><rect fill="#FFFFFF" height="37.0146" rx="2.5" ry="2.5" style="stroke:#000000;stroke-width:1;" width="86.876" x="27.5" y="94.7373"/><text fill="#000000" font-family="Verdana" font-size="14" lengthAdjust="spacing" textLength="66.876" x="37.5" y="118.8125">from_ai()</text></g><!--entity Parser--><g class="entity" data-entity="Parser" data-source-line="26" data-uid="ent0015" id="entity_Parser"><rect fill="#FFFFFF" height="37.0146" rx="2.5" ry="2.5" style="stroke:#000000;stroke-width:1;" width="136.4229" x="27" y="230.7373"/><text fill="#000000" font-family="Verdana" font-size="14" lengthAdjust="spacing" textLength="116.4229" x="37" y="254.8125">Parser Functions</text></g><!--entity Counter--><g class="entity" data-entity="Counter" data-source-line="27" data-uid="ent0016" id="entity_Counter"><rect fill="#FFFFFF" height="37.0146" rx="2.5" ry="2.5" style="stroke:#000000;stroke-width:1;" width="123.3525" x="149.5" y="94.7373"/><text fill="#000000" font-family="Verdana" font-size="14" lengthAdjust="spacing" textLength="103.3525" x="159.5" y="118.8125">Token Counter</text></g><!--entity String--><g class="entity" data-entity="String" data-source-line="31" data-uid="ent0018" id="entity_String"><rect fill="#FFFFFF" height="37.0146" rx="2.5" ry="2.5" style="stroke:#000000;stroke-width:1;" width="129.2383" x="591.5" y="230.7373"/><text fill="#000000" font-family="Verdana" font-size="14" lengthAdjust="spacing" textLength="109.2383" x="601.5" y="254.8125">Compact String</text></g><!--entity Token--><g class="entity" data-entity="Token" data-source-line="32" data-uid="ent0019" id="entity_Token"><rect fill="#FFFFFF" height="37.0146" rx="2.5" ry="2.5" style="stroke:#000000;stroke-width:1;" width="138.5078" x="591.5" y="368.7373"/><text fill="#000000" font-family="Verdana" font-size="14" lengthAdjust="spacing" textLength="118.5078" x="601.5" y="392.8125">Token Optimized</text></g><g class="entity" data-entity="GMN34" data-source-line="53" data-uid="ent0035" id="entity_GMN34"><path d="M595,636.2373 L595,653.2373 L549.72,657.2373 L595,661.2373 L595,677.8359 A0,0 0 0 0 595,677.8359 L970.9546,677.8359 A0,0 0 0 0 970.9546,677.8359 L970.9546,646.2373 L960.9546,636.2373 L595,636.2373 A0,0 0 0 0 595,636.2373" fill="#FFFFFF" style="stroke:#000000;stroke-width:1;"/><path d="M960.9546,636.2373 L960.9546,646.2373 L970.9546,646.2373 L960.9546,636.2373" fill="#FFFFFF" style="stroke:#000000;stroke-width:1;"/><text fill="#000000" font-family="Verdana" font-size="13" lengthAdjust="spacing" textLength="218.6895" x="601" y="654.3071">Format: EntityID&#166;ID&#166;Time&#166;Fields&#166;</text><text fill="#000000" font-family="Verdana" font-size="13" lengthAdjust="spacing" textLength="354.9546" x="601" y="670.1064">Example: 611dd51&#166;abc123...&#166;1763212259&#166;true&#166;42&#166;...</text></g><g class="entity" data-entity="GMN37" data-source-line="58" data-uid="ent0038" id="entity_GMN37"><path d="M765.5,350.7373 L765.5,383.2373 L730.51,387.2373 L765.5,391.2373 L765.5,423.9346 A0,0 0 0 0 765.5,423.9346 L990.7295,423.9346 A0,0 0 0 0 990.7295,423.9346 L990.7295,360.7373 L980.7295,350.7373 L765.5,350.7373 A0,0 0 0 0 765.5,350.7373" fill="#FFFFFF" style="stroke:#000000;stroke-width:1;"/><path d="M980.7295,350.7373 L980.7295,360.7373 L990.7295,360.7373 L980.7295,350.7373" fill="#FFFFFF" style="stroke:#000000;stroke-width:1;"/><text fill="#000000" font-family="Verdana" font-size="13" lengthAdjust="spacing" textLength="111.7441" x="771.5" y="368.8071">Token Efficiency:</text><text fill="#000000" font-family="Verdana" font-size="13" lengthAdjust="spacing" textLength="204.2295" x="771.5" y="384.6064">- 507 tokens vs ~800 for JSON</text><text fill="#000000" font-family="Verdana" font-size="13" lengthAdjust="spacing" textLength="106.7612" x="771.5" y="400.4058">- 40% reduction</text><text fill="#000000" font-family="Verdana" font-size="13" lengthAdjust="spacing" textLength="122.5796" x="771.5" y="416.2051">- 2.83 bytes/token</text></g><!--link Entity to Trait--><g class="link" data-entity-1="Entity" data-entity-2="Trait" data-source-line="35" data-uid="lnk20" id="link_Entity_Trait"><path d="M89.54,405.7673 C90.3,430.5773 91.5045,469.6802 92.2745,494.5702" fill="none" id="Entity-to-Trait" style="stroke:#000000;stroke-width:1;"/><polygon fill="#000000" points="92.46,500.5673,96.1798,491.4479,92.3054,495.5697,88.1836,491.6953,92.46,500.5673" style="stroke:#000000;stroke-width:1;"/><text fill="#000000" font-family="Verdana" font-size="13" lengthAdjust="spacing" textLength="76.1338" x="93" y="467.8071">implements</text></g><!--link Trait to ToAI--><g class="link" data-entity-1="Trait" data-entity-2="ToAI" data-source-line="36" data-uid="lnk21" id="link_Trait_ToAI"><path d="M138.42,500.5473 C152.68,493.1473 167.44,483.2873 178,470.7373 C229.85,409.0973 176.11,351.2873 238,299.7373 C255.63,285.0573 267.32,299.2473 289,291.7373 C305.84,285.9073 318.1868,279.4729 331.9168,270.9829" fill="none" id="Trait-to-ToAI" style="stroke:#000000;stroke-width:1;"/><polygon fill="#000000" points="337.02,267.8273,327.2615,269.1585,332.7674,270.4569,331.469,275.9628,337.02,267.8273" style="stroke:#000000;stroke-width:1;"/><text fill="#000000" font-family="Verdana" font-size="13" lengthAdjust="spacing" textLength="78.019" x="216" y="392.8071">serialization</text></g><!--link ToAI to Helpers--><g class="link" data-entity-1="ToAI" data-entity-2="Helpers" data-source-line="37" data-uid="lnk22" id="link_ToAI_Helpers"><path d="M367.76,267.7373 C374.83,293.7073 386.4454,336.3976 393.5654,362.5776" fill="none" id="ToAI-to-Helpers" style="stroke:#000000;stroke-width:1;"/><polygon fill="#000000" points="395.14,368.3673,396.6379,358.633,393.8278,363.5426,388.9183,360.7325,395.14,368.3673" style="stroke:#000000;stroke-width:1;"/><text fill="#000000" font-family="Verdana" font-size="13" lengthAdjust="spacing" textLength="29.5166" x="381" y="313.8071">uses</text></g><!--link Helpers to Functions--><g class="link" data-entity-1="Helpers" data-entity-2="Functions" data-source-line="38" data-uid="lnk23" id="link_Helpers_Functions"><path d="M397.77,405.9373 C395.94,422.6373 393.83,448.3873 395,470.7373 C395.52,480.6773 395.9443,485.7689 397.0043,494.7189" fill="none" id="Helpers-to-Functions" style="stroke:#000000;stroke-width:1;"/><polygon fill="#000000" points="397.71,500.6773,400.6237,491.2693,397.1219,495.712,392.6792,492.2102,397.71,500.6773" style="stroke:#000000;stroke-width:1;"/><text fill="#000000" font-family="Verdana" font-size="13" lengthAdjust="spacing" textLength="98.8457" x="396" y="467.8071">inline functions</text></g><!--link Functions to Format--><g class="link" data-entity-1="Functions" data-entity-2="Format" data-source-line="39" data-uid="lnk24" id="link_Functions_Format"><path d="M410.42,537.7373 C425.89,563.7073 451.7001,607.0321 467.2901,633.2121" fill="none" id="Functions-to-Format" style="stroke:#000000;stroke-width:1;"/><polygon fill="#000000" points="470.36,638.3673,469.192,628.588,467.8018,634.0713,462.3184,632.6811,470.36,638.3673" style="stroke:#000000;stroke-width:1;"/><text fill="#000000" font-family="Verdana" font-size="13" lengthAdjust="spacing" textLength="64.8096" x="439" y="583.8071">generates</text></g><!--link Format to Delimiter--><g class="link" data-entity-1="Format" data-entity-2="Delimiter" data-source-line="40" data-uid="lnk25" id="link_Format_Delimiter"><path d="M452.81,675.8773 C418.42,697.3973 365.7164,730.3648 331.3064,751.8948" fill="none" id="Format-to-Delimiter" style="stroke:#000000;stroke-width:1;"/><polygon fill="#000000" points="326.22,755.0773,335.9713,753.6945,330.4587,752.4252,331.7279,746.9126,326.22,755.0773" style="stroke:#000000;stroke-width:1;"/><text fill="#000000" font-family="Verdana" font-size="13" lengthAdjust="spacing" textLength="29.5166" x="401" y="722.3071">uses</text></g><!--link Format to Nesting--><g class="link" data-entity-1="Format" data-entity-2="Nesting" data-source-line="41" data-uid="lnk26" id="link_Format_Nesting"><path d="M481,676.1273 C481,697.6373 481,727.5173 481,748.9773" fill="none" id="Format-to-Nesting" style="stroke:#000000;stroke-width:1;"/><polygon fill="#000000" points="481,754.9773,485,745.9773,481,749.9773,477,745.9773,481,754.9773" style="stroke:#000000;stroke-width:1;"/><text fill="#000000" font-family="Verdana" font-size="13" lengthAdjust="spacing" textLength="56.5322" x="482" y="722.3071">supports</text></g><!--link Format to String--><g class="link" data-entity-1="Format" data-entity-2="String" data-source-line="42" data-uid="lnk27" id="link_Format_String"><path d="M489.97,638.6073 C496.73,624.7673 505.87,604.8873 512,586.7373 C550.32,473.3773 513.22,427.8073 574,324.7373 C587.68,301.5373 606.0913,284.9987 624.3413,271.5387" fill="none" id="Format-to-String" style="stroke:#000000;stroke-width:1;"/><polygon fill="#000000" points="629.17,267.9773,619.5527,270.1002,625.1461,270.9451,624.3011,276.5385,629.17,267.9773" style="stroke:#000000;stroke-width:1;"/><text fill="#000000" font-family="Verdana" font-size="13" lengthAdjust="spacing" textLength="59.1538" x="535" y="467.8071">produces</text></g><!--link String to Token--><g class="link" data-entity-1="String" data-entity-2="Token" data-source-line="43" data-uid="lnk28" id="link_String_Token"><path d="M656.64,267.7373 C657.6,293.7073 659.1601,336.1913 660.1201,362.3713" fill="none" id="String-to-Token" style="stroke:#000000;stroke-width:1;"/><polygon fill="#000000" points="660.34,368.3673,664.0075,359.2268,660.1568,363.3707,656.0129,359.5199,660.34,368.3673" style="stroke:#000000;stroke-width:1;"/><text fill="#000000" font-family="Verdana" font-size="13" lengthAdjust="spacing" textLength="86.144" x="659" y="313.8071">optimized for</text></g><!--link String to FromAI--><g class="link" data-entity-1="String" data-entity-2="FromAI" data-source-line="45" data-uid="lnk29" id="link_String_FromAI"><path d="M617.67,230.6073 C584.02,216.0373 533.34,196.2373 487,186.7373 C424.21,173.8573 406.5,187.5173 343,178.7373 C247.83,165.5873 225.11,155.4373 132,131.7373 C126.34,130.2973 126.1898,130.3178 120.3398,128.6878" fill="none" id="String-to-FromAI" style="stroke:#000000;stroke-width:1;"/><polygon fill="#000000" points="114.56,127.0773,122.1561,133.3462,119.3765,128.4193,124.3034,125.6398,114.56,127.0773" style="stroke:#000000;stroke-width:1;"/><text fill="#000000" font-family="Verdana" font-size="13" lengthAdjust="spacing" textLength="93.8628" x="344" y="175.8071">deserialization</text></g><!--link FromAI to Parser--><g class="link" data-entity-1="FromAI" data-entity-2="Parser" data-source-line="46" data-uid="lnk30" id="link_FromAI_Parser"><path d="M74.14,131.7573 C78.74,157.4373 86.2025,199.1212 90.8025,224.8112" fill="none" id="FromAI-to-Parser" style="stroke:#000000;stroke-width:1;"/><polygon fill="#000000" points="91.86,230.7173,94.2111,221.1532,90.9787,225.7956,86.3363,222.5632,91.86,230.7173" style="stroke:#000000;stroke-width:1;"/><text fill="#000000" font-family="Verdana" font-size="13" lengthAdjust="spacing" textLength="29.5166" x="84" y="175.8071">uses</text></g><!--link Parser to Helpers--><g class="link" data-entity-1="Parser" data-entity-2="Helpers" data-source-line="47" data-uid="lnk31" id="link_Parser_Helpers"><path d="M154.37,267.8473 C196.52,281.2473 253.92,301.3373 302,324.7373 C328.01,337.3973 350.8091,351.8778 370.1191,365.0978" fill="none" id="Parser-to-Helpers" style="stroke:#000000;stroke-width:1;"/><polygon fill="#000000" points="375.07,368.4873,369.9033,360.1025,370.9442,365.6627,365.384,366.7037,375.07,368.4873" style="stroke:#000000;stroke-width:1;"/><text fill="#000000" font-family="Verdana" font-size="13" lengthAdjust="spacing" textLength="29.5166" x="281" y="313.8071">uses</text></g><!--link Parser to Entity--><g class="link" data-entity-1="Parser" data-entity-2="Entity" data-source-line="48" data-uid="lnk32" id="link_Parser_Entity"><path d="M94.23,267.7373 C93.08,293.7073 91.2033,336.1931 90.0533,362.3731" fill="none" id="Parser-to-Entity" style="stroke:#000000;stroke-width:1;"/><polygon fill="#000000" points="89.79,368.3673,94.1811,359.5515,90.0094,363.3721,86.1888,359.2004,89.79,368.3673" style="stroke:#000000;stroke-width:1;"/><text fill="#000000" font-family="Verdana" font-size="13" lengthAdjust="spacing" textLength="80.52" x="94" y="313.8071">reconstructs</text></g><!--link Counter to String--><g class="link" data-entity-1="Counter" data-entity-2="String" data-source-line="50" data-uid="lnk33" id="link_Counter_String"><path d="M272.66,123.3873 C320.53,131.2773 388.25,144.1873 446,161.7373 C508.44,180.7173 572.4718,208.7724 613.7918,228.0324" fill="none" id="Counter-to-String" style="stroke:#000000;stroke-width:1;"/><polygon fill="#000000" points="619.23,230.5673,612.7625,223.1395,614.6981,228.4549,609.3827,230.3905,619.23,230.5673" style="stroke:#000000;stroke-width:1;"/><text fill="#000000" font-family="Verdana" font-size="13" lengthAdjust="spacing" textLength="56.4497" x="494" y="175.8071">analyzes</text></g><!--SRC=[VLJRZjCm47ttLmoBaE2XfUrUoGDIsTsAehABrFA447AJQTVQn8vifv0Y-9nyIBwCyQMNB8X8bIPppbnyZfjdzW4BX3BdGZBpA6J9DIzWoTF7jLQLpAvLhZGyd_ZdY96gebGIfPtREaVGc5ekrpaoPeMbn7WAjvB26kQe1S_5bbkX9CnhOx607enr-Y0ibLKQuNw3UYFmEsCbJUPhX9DOFUCrwXFuoO2UBxkMLbUf_GhSn241dOv592mq5m7t4VjrrBYxJxU_LT-uUFagLAhnD6G_x_k-nxn4RJmUupXQva8YJ2gPkhQ1iN_hp9yeNN3xPF0roSbJ2m4CrJuCy0tceY2rTEyTDvXvV9yBb1bkC0ymtA6nGguzBSQT5MxG_4U4bLR5GOO9lUs4-CGr5JuvPKW6ma8zeeHhkZYqbqTZt1a_ctsaV55KKgH-WRza88Dt-uVmkFrzQUdWsoY3pxdsqQ9Uxsqm7H8GHPdJzPRMi93o8FbAM4S1vfCEZQuIeJ9esExLGVjZkyx1xzNUuGFegS7Z1DOeKNDBdMBAeNldTbEEi6YNMx0gIwLj1mrY45XgbLKfbSPCE9XJ9m6rqmTMIhDZHl2IA5dt0h08E4xqE6uMt_wXp14IbK_SLu0Ky7zEmrYqlhiubpoljrJFfBBqtH3h1mjgTRZj8KXYq-bDsxZVGXJODXE1UMRQXcYtFxWpDu6BuJ3BpeTjmvVfS7JQx_VRPdXvSJeQZaRdRzg6jg7Air7R4CHGPk06FnqVRX543MzNAv4Ab6cTKAu7vuDBi0uni37m-semSDB2X_dzdSVF1Y_ex6I85zDbHlshKrZMPFnhNtWO_0S0]--></g></svg>