<svg xmlns="http://www.w3.org/2000/svg" xmlns:xlink="http://www.w3.org/1999/xlink" contentStyleType="text/css" data-diagram-type="CLASS" height="435px" preserveAspectRatio="none" style="width:534px;height:435px;background:#000000;" version="1.1" viewBox="0 0 534 435" width="534px" zoomAndPan="magnify"><title>Embedded Master Peer Certificate Model</title><defs/><g><text fill="#000000" font-family="Verdana" font-size="22" font-weight="bold" lengthAdjust="spacing" textLength="501.1338" x="15" y="37.1182">Embedded Master Peer Certificate Model</text><!--class MasterPeer--><g class="entity" data-entity="MasterPeer" data-source-line="16" data-uid="ent0002" id="entity_MasterPeer"><rect fill="#90EE90" height="112.0586" rx="2.5" ry="2.5" style="stroke:#FFFFFF;stroke-width:1;" width="250.3789" x="147.3774" y="59.7373"/><ellipse cx="229.6025" cy="73.7373" fill="#FFFFFF" rx="9" ry="9" style="stroke:#000000;stroke-width:1;"/><path d="M233.0088,75.7061 C232.29,76.3779 230.9932,77.5498 229.2432,77.5498 C227.0244,77.5498 226.0557,75.6123 226.0557,73.6592 C226.0557,71.2686 227.54,70.0029 229.1807,70.0029 C231.1963,70.0029 231.415,71.5186 231.5869,72.6123 L233.0088,72.4248 C232.915,71.8467 232.8369,71.2686 232.8369,70.2998 C232.8369,69.6279 232.8838,69.0811 232.915,68.6592 L231.5088,68.6592 L231.3994,69.6123 C230.8057,69.0811 230.165,68.5342 228.9463,68.5342 C226.8994,68.5342 224.4932,70.3623 224.4932,73.6748 C224.4932,76.6123 226.2588,79.0029 229.2588,79.0029 C231.6963,79.0029 233.3994,77.3779 233.9932,76.7998 L233.0088,75.7061 Z " fill="#000000"/><text fill="#000000" font-family="Verdana" font-size="14" lengthAdjust="spacing" textLength="78.4287" x="247.1025" y="79.3052">MasterPeer</text><line style="stroke:#FFFFFF;stroke-width:1;" x1="148.3774" x2="396.7563" y1="87.7373" y2="87.7373"/><ellipse cx="158.3774" cy="101.7446" fill="none" rx="3" ry="3" style="stroke:#000000;stroke-width:1;"/><text fill="#000000" font-family="Verdana" font-size="14" lengthAdjust="spacing" textLength="99.7568" x="165.3774" y="105.8125">peerId: String</text><ellipse cx="158.3774" cy="118.7593" fill="none" rx="3" ry="3" style="stroke:#000000;stroke-width:1;"/><text fill="#000000" font-family="Verdana" font-size="14" lengthAdjust="spacing" textLength="161.793" x="165.3774" y="122.8271">kyberPublicKey: byte[]</text><ellipse cx="158.3774" cy="135.7739" fill="none" rx="3" ry="3" style="stroke:#000000;stroke-width:1;"/><text fill="#000000" font-family="Verdana" font-size="14" lengthAdjust="spacing" textLength="183.1279" x="165.3774" y="139.8418">dilithiumPublicKey: byte[]</text><ellipse cx="158.3774" cy="152.7886" fill="none" rx="3" ry="3" style="stroke:#000000;stroke-width:1;"/><text fill="#000000" font-family="Verdana" font-size="14" lengthAdjust="spacing" textLength="226.3789" x="165.3774" y="156.8564">certificate: EmbeddedCertificate</text><line style="stroke:#FFFFFF;stroke-width:1;" x1="148.3774" x2="396.7563" y1="163.7959" y2="163.7959"/></g><!--class EmbeddedCertificate--><g class="entity" data-entity="EmbeddedCertificate" data-source-line="23" data-uid="ent0003" id="entity_EmbeddedCertificate"><rect fill="#90EE90" height="180.1172" rx="2.5" ry="2.5" style="stroke:#FFFFFF;stroke-width:1;" width="249.0459" x="147.8774" y="248.7373"/><ellipse cx="195.7451" cy="262.7373" fill="#FFFFFF" rx="9" ry="9" style="stroke:#000000;stroke-width:1;"/><path d="M199.1514,264.7061 C198.4326,265.3779 197.1357,266.5498 195.3857,266.5498 C193.167,266.5498 192.1982,264.6123 192.1982,262.6592 C192.1982,260.2686 193.6826,259.0029 195.3232,259.0029 C197.3389,259.0029 197.5576,260.5186 197.7295,261.6123 L199.1514,261.4248 C199.0576,260.8467 198.9795,260.2686 198.9795,259.2998 C198.9795,258.6279 199.0264,258.0811 199.0576,257.6592 L197.6514,257.6592 L197.542,258.6123 C196.9482,258.0811 196.3076,257.5342 195.0889,257.5342 C193.042,257.5342 190.6357,259.3623 190.6357,262.6748 C190.6357,265.6123 192.4014,268.0029 195.4014,268.0029 C197.8389,268.0029 199.542,266.3779 200.1357,265.7998 L199.1514,264.7061 Z " fill="#000000"/><text fill="#000000" font-family="Verdana" font-size="14" lengthAdjust="spacing" textLength="145.8105" x="213.2451" y="268.3052">EmbeddedCertificate</text><line style="stroke:#FFFFFF;stroke-width:1;" x1="148.8774" x2="395.9233" y1="276.7373" y2="276.7373"/><ellipse cx="158.8774" cy="290.7446" fill="none" rx="3" ry="3" style="stroke:#000000;stroke-width:1;"/><text fill="#000000" font-family="Verdana" font-size="14" lengthAdjust="spacing" textLength="175.4307" x="165.8774" y="294.8125">certificateVersion: String</text><ellipse cx="158.8774" cy="307.7593" fill="none" rx="3" ry="3" style="stroke:#000000;stroke-width:1;"/><text fill="#000000" font-family="Verdana" font-size="14" lengthAdjust="spacing" textLength="109.9834" x="165.8774" y="311.8271">issuerId: String</text><ellipse cx="158.8774" cy="324.7739" fill="none" rx="3" ry="3" style="stroke:#000000;stroke-width:1;"/><text fill="#000000" font-family="Verdana" font-size="14" lengthAdjust="spacing" textLength="119.2256" x="165.8774" y="328.8418">subjectId: String</text><ellipse cx="158.8774" cy="341.7886" fill="none" rx="3" ry="3" style="stroke:#000000;stroke-width:1;"/><text fill="#000000" font-family="Verdana" font-size="14" lengthAdjust="spacing" textLength="173.0313" x="165.8774" y="345.8564">subjectPublicKey: byte[]</text><ellipse cx="158.8774" cy="358.8032" fill="none" rx="3" ry="3" style="stroke:#000000;stroke-width:1;"/><text fill="#000000" font-family="Verdana" font-size="14" lengthAdjust="spacing" textLength="120.6748" x="165.8774" y="362.8711">signature: byte[]</text><ellipse cx="158.8774" cy="375.8179" fill="none" rx="3" ry="3" style="stroke:#000000;stroke-width:1;"/><text fill="#000000" font-family="Verdana" font-size="14" lengthAdjust="spacing" textLength="147.9912" x="165.8774" y="379.8857">validFrom: DateTime</text><ellipse cx="158.8774" cy="392.8325" fill="none" rx="3" ry="3" style="stroke:#000000;stroke-width:1;"/><text fill="#000000" font-family="Verdana" font-size="14" lengthAdjust="spacing" textLength="128.9805" x="165.8774" y="396.9004">validTo: DateTime</text><ellipse cx="158.8774" cy="409.8472" fill="none" rx="3" ry="3" style="stroke:#000000;stroke-width:1;"/><text fill="#000000" font-family="Verdana" font-size="14" lengthAdjust="spacing" textLength="225.0459" x="165.8774" y="413.915">metadata: Map&lt;String, String&gt;</text><line style="stroke:#FFFFFF;stroke-width:1;" x1="148.8774" x2="395.9233" y1="420.8545" y2="420.8545"/></g><!--reverse link MasterPeer to EmbeddedCertificate--><g class="link" data-entity-1="MasterPeer" data-entity-2="EmbeddedCertificate" data-source-line="34" data-uid="lnk4" id="link_MasterPeer_EmbeddedCertificate"><path codeLine="34" d="M272.3774,183.9373 C272.3774,207.0773 272.3774,222.5773 272.3774,248.4573" fill="none" id="MasterPeer-backto-EmbeddedCertificate" style="stroke:#000000;stroke-width:1;"/><polygon fill="#000000" points="272.3774,171.9373,268.3774,177.9373,272.3774,183.9373,276.3774,177.9373,272.3774,171.9373" style="stroke:#000000;stroke-width:1;"/><text fill="#000000" font-family="Verdana" font-size="13" lengthAdjust="spacing" textLength="51.105" x="273.3774" y="215.8071">embeds</text></g><!--SRC=[RP91ImCn48Nl-HKZ7WIrq6iNyM1jHQGWMBo8XzdDj1qtkrcIYR28_zrajzHjkpc4yDxBp3SX5xAZYg0noBLIL_1aR8u6DBeIEalvaki67LQGOr5kdGsrdbjZ7LnEkpL8QDfWCBAqjHn7OkMvGU_1IskutWxk59t-em0UJklFfel5R9eSwpIvlRhiLbJFs_mg9Io6O57bf3LfMA4NSl1ASPkJ4zvmWKAmifgCKdtpFjHb4iSDDF7uh3Du4vTWarIsUOo4t73nGcq6UIlqyTbPcWtBZaCrRXV_RRC3s80bKVSS8-OUQ53ZdPndMn_1iVVXZDY7_8iA6LV7KJrlQvJWw4ZzHiDwwMoLmMC4M7Fy5GTzRK_KYWGr2cRnMPkxllFjdk0-pJfuxUl9P7Je32Yf_Wy0]--></g></svg>