<svg xmlns="http://www.w3.org/2000/svg" xmlns:xlink="http://www.w3.org/1999/xlink" contentStyleType="text/css" data-diagram-type="DESCRIPTION" height="1045px" preserveAspectRatio="none" style="width:898px;height:1045px;background:#000000;" version="1.1" viewBox="0 0 898 1045" width="898px" zoomAndPan="magnify"><title>EPQB Actors Overview</title><defs/><g><text fill="#FFFFFF" font-family="Verdana" font-size="22" font-weight="bold" lengthAdjust="spacing" textLength="277.3096" x="306.293" y="37.1182">EPQB Actors Overview</text><!--entity MP--><g class="entity" data-entity="MP" data-source-line="129" data-uid="ent0002" id="entity_MP"><ellipse cx="796.1406" cy="112.2373" fill="#90EE90" rx="16" ry="16" style="stroke:#000000;stroke-width:1;"/><path d="M796.1406,132.2373 C800.1406,132.2373 803.1406,132.2373 807.1406,128.2373 C815.1406,128.2373 823.1406,136.2373 823.1406,144.2373 L823.1406,148.2373 C823.1406,152.2373 819.1406,156.2373 815.1406,156.2373 L777.1406,156.2373 C773.1406,156.2373 769.1406,152.2373 769.1406,148.2373 L769.1406,144.2373 C769.1406,136.2373 777.1406,128.2373 785.1406,128.2373 C789.1406,132.2373 792.1406,132.2373 796.1406,132.2373" fill="#90EE90" style="stroke:#000000;stroke-width:1;"/><text fill="#FFFFFF" font-family="Verdana" font-size="14" lengthAdjust="spacing" textLength="87.2813" x="752.5" y="171.3125">EMasterPeer</text></g><!--entity MP_CARD--><g class="entity" data-entity="MP_CARD" data-source-line="130" data-uid="ent0003" id="entity_MP_CARD"><rect fill="#000000" height="23.0146" rx="2.5" ry="2.5" style="stroke:#FFFFFF;stroke-width:1;" width="208.4463" x="12" y="123.2373"/><text fill="#FFFFFF" font-family="Verdana" font-size="14" lengthAdjust="spacing" textLength="188.4463" x="22" y="140.3125">EMasterPeer Specifications</text></g><g class="entity" data-entity="GMN4" data-source-line="132" data-uid="ent0005" id="entity_GMN4"><path d="M255.5,58.7373 L255.5,130.7373 L220,134.7373 L255.5,138.7373 L255.5,210.9312 A0,0 0 0 0 255.5,210.9312 L576.3696,210.9312 A0,0 0 0 0 576.3696,210.9312 L576.3696,68.7373 L566.3696,58.7373 L255.5,58.7373 A0,0 0 0 0 255.5,58.7373" fill="#FFFFFF" style="stroke:#000000;stroke-width:1;"/><path d="M566.3696,58.7373 L566.3696,68.7373 L576.3696,68.7373 L566.3696,58.7373" fill="#FFFFFF" style="stroke:#000000;stroke-width:1;"/><text fill="#000000" font-family="Verdana" font-size="13" font-weight="bold" lengthAdjust="spacing" textLength="197.6152" x="261.5" y="76.8071">Cryptographic Capabilities:</text><text fill="#000000" font-family="Verdana" font-size="13" lengthAdjust="spacing" textLength="220.1431" x="261.5" y="92.6064">- Kyber-1024 (NIST Level 5) KEM</text><text fill="#000000" font-family="Verdana" font-size="13" lengthAdjust="spacing" textLength="299.8696" x="261.5" y="108.4058">- Dilithium-5 (NIST Level 5) digital signatures</text><text fill="#000000" font-family="Verdana" font-size="13" lengthAdjust="spacing" textLength="4.5703" x="261.5" y="124.2051">&#160;</text><text fill="#000000" font-family="Verdana" font-size="13" font-weight="bold" lengthAdjust="spacing" textLength="75.9624" x="261.5" y="140.0044">Maintains:</text><text fill="#000000" font-family="Verdana" font-size="13" lengthAdjust="spacing" textLength="162.9253" x="261.5" y="155.8037">- Peer certificate registry</text><text fill="#000000" font-family="Verdana" font-size="13" lengthAdjust="spacing" textLength="243.9976" x="261.5" y="171.603">- Public key directory &amp; trust anchors</text><text fill="#000000" font-family="Verdana" font-size="13" lengthAdjust="spacing" textLength="257.8354" x="261.5" y="187.4023">- Certificate issuance &amp; revocation data</text><text fill="#000000" font-family="Verdana" font-size="13" lengthAdjust="spacing" textLength="213.9604" x="261.5" y="203.2017">- Cryptographic material storage</text></g><!--entity RP--><g class="entity" data-entity="RP" data-source-line="143" data-uid="ent0007" id="entity_RP"><ellipse cx="795.7793" cy="287.7373" fill="#FFFFDD" rx="16" ry="16" style="stroke:#000000;stroke-width:1;"/><path d="M795.7793,307.7373 C799.7793,307.7373 802.7793,307.7373 806.7793,303.7373 C814.7793,303.7373 822.7793,311.7373 822.7793,319.7373 L822.7793,323.7373 C822.7793,327.7373 818.7793,331.7373 814.7793,331.7373 L776.7793,331.7373 C772.7793,331.7373 768.7793,327.7373 768.7793,323.7373 L768.7793,319.7373 C768.7793,311.7373 776.7793,303.7373 784.7793,303.7373 C788.7793,307.7373 791.7793,307.7373 795.7793,307.7373" fill="#FFFFDD" style="stroke:#000000;stroke-width:1;"/><text fill="#FFFFFF" font-family="Verdana" font-size="14" lengthAdjust="spacing" textLength="78.5586" x="756.5" y="346.8125">ERelayPeer</text></g><!--entity RP_CARD--><g class="entity" data-entity="RP_CARD" data-source-line="144" data-uid="ent0008" id="entity_RP_CARD"><rect fill="#000000" height="23.0146" rx="2.5" ry="2.5" style="stroke:#FFFFFF;stroke-width:1;" width="199.7236" x="16" y="298.7373"/><text fill="#FFFFFF" font-family="Verdana" font-size="14" lengthAdjust="spacing" textLength="179.7236" x="26" y="315.8125">ERelayPeer Specifications</text></g><g class="entity" data-entity="GMN9" data-source-line="146" data-uid="ent0010" id="entity_GMN9"><path d="M251.5,281.7373 L251.5,306.2373 L216.2,310.2373 L251.5,314.2373 L251.5,339.1353 A0,0 0 0 0 251.5,339.1353 L436.625,339.1353 A0,0 0 0 0 436.625,339.1353 L436.625,291.7373 L426.625,281.7373 L251.5,281.7373 A0,0 0 0 0 251.5,281.7373" fill="#FFFFFF" style="stroke:#000000;stroke-width:1;"/><path d="M426.625,281.7373 L426.625,291.7373 L436.625,291.7373 L426.625,281.7373" fill="#FFFFFF" style="stroke:#000000;stroke-width:1;"/><text fill="#000000" font-family="Verdana" font-size="13" font-weight="bold" lengthAdjust="spacing" textLength="75.9624" x="257.5" y="299.8071">Maintains:</text><text fill="#000000" font-family="Verdana" font-size="13" lengthAdjust="spacing" textLength="139.7437" x="257.5" y="315.6064">- Peer bridge registry</text><text fill="#000000" font-family="Verdana" font-size="13" lengthAdjust="spacing" textLength="164.125" x="257.5" y="331.4058">- Signaling bridge events</text></g><!--entity DB--><g class="entity" data-entity="DB" data-source-line="152" data-uid="ent0012" id="entity_DB"><path d="M710.5,944.2373 C710.5,934.2373 796.1978,934.2373 796.1978,934.2373 C796.1978,934.2373 881.8955,934.2373 881.8955,944.2373 L881.8955,970.252 C881.8955,980.252 796.1978,980.252 796.1978,980.252 C796.1978,980.252 710.5,980.252 710.5,970.252 L710.5,944.2373" fill="#FBFF00" style="stroke:#000000;stroke-width:1;"/><path d="M710.5,944.2373 C710.5,954.2373 796.1978,954.2373 796.1978,954.2373 C796.1978,954.2373 881.8955,954.2373 881.8955,944.2373" fill="none" style="stroke:#000000;stroke-width:1;"/><text fill="#000000" font-family="Verdana" font-size="14" lengthAdjust="spacing" textLength="151.3955" x="720.5" y="972.3125">Certificate Repository</text></g><!--entity SYS_CARD--><g class="entity" data-entity="SYS_CARD" data-source-line="153" data-uid="ent0013" id="entity_SYS_CARD"><rect fill="#000000" height="23.0146" rx="2.5" ry="2.5" style="stroke:#FFFFFF;stroke-width:1;" width="171.3955" x="30.5" y="945.7373"/><text fill="#FFFFFF" font-family="Verdana" font-size="14" lengthAdjust="spacing" textLength="151.3955" x="40.5" y="962.8125">Certificate Repository</text></g><g class="entity" data-entity="GMN14" data-source-line="155" data-uid="ent0015" id="entity_GMN14"><path d="M236.5,904.7373 L236.5,953.2373 L201.66,957.2373 L236.5,961.2373 L236.5,1009.5332 A0,0 0 0 0 236.5,1009.5332 L675.6328,1009.5332 A0,0 0 0 0 675.6328,1009.5332 L675.6328,914.7373 L665.6328,904.7373 L236.5,904.7373 A0,0 0 0 0 236.5,904.7373" fill="#FFFFFF" style="stroke:#000000;stroke-width:1;"/><path d="M665.6328,904.7373 L665.6328,914.7373 L675.6328,914.7373 L665.6328,904.7373" fill="#FFFFFF" style="stroke:#000000;stroke-width:1;"/><text fill="#000000" font-family="Verdana" font-size="13" font-weight="bold" lengthAdjust="spacing" textLength="83.9731" x="242.5" y="922.8071">Repository:</text><text fill="#000000" font-family="Verdana" font-size="13" lengthAdjust="spacing" textLength="326.644" x="242.5" y="938.6064">- certificates with Dilithium signatures MasterPeer</text><text fill="#000000" font-family="Verdana" font-size="13" lengthAdjust="spacing" textLength="224.1484" x="242.5" y="954.4058">- Peer IDs (32-byte SHA3 hashes)</text><text fill="#000000" font-family="Verdana" font-size="13" lengthAdjust="spacing" textLength="239.4146" x="242.5" y="970.2051">- Public key chains &amp; revocation lists</text><text fill="#000000" font-family="Verdana" font-size="13" lengthAdjust="spacing" textLength="260.9966" x="242.5" y="986.0044">- Metadata: issuance, expiration, status</text><text fill="#000000" font-family="Verdana" font-size="13" lengthAdjust="spacing" textLength="418.1328" x="242.5" y="1001.8037">- Secure storage (Evo Memento, Other decentralized channels )</text></g><!--entity PA--><g class="entity" data-entity="PA" data-source-line="164" data-uid="ent0017" id="entity_PA"><ellipse cx="796" cy="439.7373" fill="#FFB6C1" rx="16" ry="16" style="stroke:#000000;stroke-width:1;"/><path d="M796,459.7373 C800,459.7373 803,459.7373 807,455.7373 C815,455.7373 823,463.7373 823,471.7373 L823,475.7373 C823,479.7373 819,483.7373 815,483.7373 L777,483.7373 C773,483.7373 769,479.7373 769,475.7373 L769,471.7373 C769,463.7373 777,455.7373 785,455.7373 C789,459.7373 792,459.7373 796,459.7373" fill="#FFB6C1" style="stroke:#000000;stroke-width:1;"/><text fill="#FFFFFF" font-family="Verdana" font-size="14" lengthAdjust="spacing" textLength="49.5195" x="771.2402" y="498.8125">EPeerA</text></g><!--entity PA_CARD--><g class="entity" data-entity="PA_CARD" data-source-line="165" data-uid="ent0018" id="entity_PA_CARD"><rect fill="#000000" height="23.0146" rx="2.5" ry="2.5" style="stroke:#FFFFFF;stroke-width:1;" width="170.6846" x="30.5" y="450.7373"/><text fill="#FFFFFF" font-family="Verdana" font-size="14" lengthAdjust="spacing" textLength="150.6846" x="40.5" y="467.8125">EPeerA Specifications</text></g><g class="entity" data-entity="GMN19" data-source-line="167" data-uid="ent0020" id="entity_GMN19"><path d="M237,409.7373 L237,458.2373 L201.84,462.2373 L237,466.2373 L237,514.5332 A0,0 0 0 0 237,514.5332 L700.7173,514.5332 A0,0 0 0 0 700.7173,514.5332 L700.7173,419.7373 L690.7173,409.7373 L237,409.7373 A0,0 0 0 0 237,409.7373" fill="#FFFFFF" style="stroke:#000000;stroke-width:1;"/><path d="M690.7173,409.7373 L690.7173,419.7373 L700.7173,419.7373 L690.7173,409.7373" fill="#FFFFFF" style="stroke:#000000;stroke-width:1;"/><text fill="#000000" font-family="Verdana" font-size="13" lengthAdjust="spacing" textLength="442.7173" x="243" y="427.8071">- Unique Peer ID (32-byte hash, e.g. BLAKE3 from peer Public Key)</text><text fill="#000000" font-family="Verdana" font-size="13" lengthAdjust="spacing" textLength="257.4165" x="243" y="443.6064">- Kyber-1024 keypair for key exchange</text><text fill="#000000" font-family="Verdana" font-size="13" lengthAdjust="spacing" textLength="265.5542" x="243" y="459.4058">- Aes256_Gcm for symmetric encryption</text><text fill="#000000" font-family="Verdana" font-size="13" lengthAdjust="spacing" textLength="268.0234" x="243" y="475.2051">- Certificate chain issued by EMasterPeer</text><text fill="#000000" font-family="Verdana" font-size="13" lengthAdjust="spacing" textLength="373.7817" x="243" y="491.0044">- Embedded EMasterPeer public keys (Kyber &amp; Dilithium)</text><text fill="#000000" font-family="Verdana" font-size="13" lengthAdjust="spacing" textLength="299.1523" x="243" y="506.8037">- Supports multiple simultaneous connections</text></g><!--entity PB--><g class="entity" data-entity="PB" data-source-line="176" data-uid="ent0022" id="entity_PB"><ellipse cx="796" cy="604.7373" fill="#87CEEB" rx="16" ry="16" style="stroke:#000000;stroke-width:1;"/><path d="M796,624.7373 C800,624.7373 803,624.7373 807,620.7373 C815,620.7373 823,628.7373 823,636.7373 L823,640.7373 C823,644.7373 819,648.7373 815,648.7373 L777,648.7373 C773,648.7373 769,644.7373 769,640.7373 L769,636.7373 C769,628.7373 777,620.7373 785,620.7373 C789,624.7373 792,624.7373 796,624.7373" fill="#87CEEB" style="stroke:#000000;stroke-width:1;"/><text fill="#FFFFFF" font-family="Verdana" font-size="14" lengthAdjust="spacing" textLength="49.5469" x="771.2266" y="663.8125">EPeerB</text></g><!--entity PB_CARD--><g class="entity" data-entity="PB_CARD" data-source-line="177" data-uid="ent0023" id="entity_PB_CARD"><rect fill="#000000" height="23.0146" rx="2.5" ry="2.5" style="stroke:#FFFFFF;stroke-width:1;" width="170.7119" x="30.5" y="615.7373"/><text fill="#FFFFFF" font-family="Verdana" font-size="14" lengthAdjust="spacing" textLength="150.7119" x="40.5" y="632.8125">EPeerB Specifications</text></g><g class="entity" data-entity="GMN24" data-source-line="179" data-uid="ent0025" id="entity_GMN24"><path d="M237,574.7373 L237,623.2373 L201.84,627.2373 L237,631.2373 L237,679.5332 A0,0 0 0 0 237,679.5332 L700.7173,679.5332 A0,0 0 0 0 700.7173,679.5332 L700.7173,584.7373 L690.7173,574.7373 L237,574.7373 A0,0 0 0 0 237,574.7373" fill="#FFFFFF" style="stroke:#000000;stroke-width:1;"/><path d="M690.7173,574.7373 L690.7173,584.7373 L700.7173,584.7373 L690.7173,574.7373" fill="#FFFFFF" style="stroke:#000000;stroke-width:1;"/><text fill="#000000" font-family="Verdana" font-size="13" lengthAdjust="spacing" textLength="442.7173" x="243" y="592.8071">- Unique Peer ID (32-byte hash, e.g. BLAKE3 from peer Public Key)</text><text fill="#000000" font-family="Verdana" font-size="13" lengthAdjust="spacing" textLength="257.4165" x="243" y="608.6064">- Kyber-1024 keypair for key exchange</text><text fill="#000000" font-family="Verdana" font-size="13" lengthAdjust="spacing" textLength="265.5542" x="243" y="624.4058">- Aes256_Gcm for symmetric encryption</text><text fill="#000000" font-family="Verdana" font-size="13" lengthAdjust="spacing" textLength="268.0234" x="243" y="640.2051">- Certificate chain issued by EMasterPeer</text><text fill="#000000" font-family="Verdana" font-size="13" lengthAdjust="spacing" textLength="373.7817" x="243" y="656.0044">- Embedded EMasterPeer public keys (Kyber &amp; Dilithium)</text><text fill="#000000" font-family="Verdana" font-size="13" lengthAdjust="spacing" textLength="299.1523" x="243" y="671.8037">- Supports multiple simultaneous connections</text></g><!--entity PN--><g class="entity" data-entity="PN" data-source-line="188" data-uid="ent0027" id="entity_PN"><ellipse cx="796" cy="769.7373" fill="#DDA0DD" rx="16" ry="16" style="stroke:#000000;stroke-width:1;"/><path d="M796,789.7373 C800,789.7373 803,789.7373 807,785.7373 C815,785.7373 823,793.7373 823,801.7373 L823,805.7373 C823,809.7373 819,813.7373 815,813.7373 L777,813.7373 C773,813.7373 769,809.7373 769,805.7373 L769,801.7373 C769,793.7373 777,785.7373 785,785.7373 C789,789.7373 792,789.7373 796,789.7373" fill="#DDA0DD" style="stroke:#000000;stroke-width:1;"/><text fill="#FFFFFF" font-family="Verdana" font-size="14" lengthAdjust="spacing" textLength="50.4219" x="770.7891" y="828.8125">EPeerN</text></g><!--entity PN_CARD--><g class="entity" data-entity="PN_CARD" data-source-line="189" data-uid="ent0028" id="entity_PN_CARD"><rect fill="#000000" height="23.0146" rx="2.5" ry="2.5" style="stroke:#FFFFFF;stroke-width:1;" width="171.5869" x="30" y="780.7373"/><text fill="#FFFFFF" font-family="Verdana" font-size="14" lengthAdjust="spacing" textLength="151.5869" x="40" y="797.8125">EPeerN Specifications</text></g><g class="entity" data-entity="GMN29" data-source-line="191" data-uid="ent0030" id="entity_GMN29"><path d="M237,739.7373 L237,788.2373 L202.18,792.2373 L237,796.2373 L237,844.5332 A0,0 0 0 0 237,844.5332 L700.7173,844.5332 A0,0 0 0 0 700.7173,844.5332 L700.7173,749.7373 L690.7173,739.7373 L237,739.7373 A0,0 0 0 0 237,739.7373" fill="#FFFFFF" style="stroke:#000000;stroke-width:1;"/><path d="M690.7173,739.7373 L690.7173,749.7373 L700.7173,749.7373 L690.7173,739.7373" fill="#FFFFFF" style="stroke:#000000;stroke-width:1;"/><text fill="#000000" font-family="Verdana" font-size="13" lengthAdjust="spacing" textLength="442.7173" x="243" y="757.8071">- Unique Peer ID (32-byte hash, e.g. BLAKE3 from peer Public Key)</text><text fill="#000000" font-family="Verdana" font-size="13" lengthAdjust="spacing" textLength="257.4165" x="243" y="773.6064">- Kyber-1024 keypair for key exchange</text><text fill="#000000" font-family="Verdana" font-size="13" lengthAdjust="spacing" textLength="265.5542" x="243" y="789.4058">- Aes256_Gcm for symmetric encryption</text><text fill="#000000" font-family="Verdana" font-size="13" lengthAdjust="spacing" textLength="268.0234" x="243" y="805.2051">- Certificate chain issued by EMasterPeer</text><text fill="#000000" font-family="Verdana" font-size="13" lengthAdjust="spacing" textLength="373.7817" x="243" y="821.0044">- Embedded EMasterPeer public keys (Kyber &amp; Dilithium)</text><text fill="#000000" font-family="Verdana" font-size="13" lengthAdjust="spacing" textLength="299.1523" x="243" y="836.8037">- Supports multiple simultaneous connections</text></g><!--link MP to RP--><!--link RP to PA--><!--link PA to PB--><!--link PB to PN--><!--link PN to DB--><!--link MP_CARD to RP_CARD--><!--link RP_CARD to PA_CARD--><!--link PA_CARD to PB_CARD--><!--link PB_CARD to PN_CARD--><!--link PN_CARD to SYS_CARD--><text fill="#FFFFFF" font-family="Verdana" font-size="10" lengthAdjust="spacing" textLength="3.5156" x="443.1899" y="1030.5869">&#160;</text><!--SRC=[xLPjRzis4FwkNt5rXyK9wivDbcuji06IhMP1ufV9sOTW609QEjjS954ZgQJQqF- -8oNBag9qsFQr0lmYtiFZtVCSZtoXTvWWP37ZgUCSmKKirYo6YCbxA4qAjURfLZdgdgSPaoo1DGlljrBaQJGHiP3mScoV1YB23SjZ_K6ake9yi0yjOT-LGV2KQovIvyLNIzyFxjoxoU9w4S0FC22qztRoPh0tUGtJzzzDVDypffcxkY6ZHHpixyQ-_svix85_xTvspIQAwRGqBnUhovj5SDimZyS6K2yyRvYcKtTSpbpTqiApZbCpopbQwI8cjc13EHz8R32J2etmbmFqU5qQAuwiJSW8PPjUCzvWj1hzv3IyXqn6ptblU6bvRwpwLAzFfYZSKDEGoZ3a6nxM5G4Zo9L9DX6f27TIc6gX_9lfCZkrZ6YbKQBGHOPFrtbkzOudGoy2UqGbMgo6D5MA-9dKdrRA4nQUWNm-f8XfjcOA_otZ_wIdvfgoz9S_UoNr2XOFA1yuFXerPamHaR14-XhUo5nfSDDmHow-WObxx9IK3_mIPs03O0fcoxuaRS4qiR2gP6PcRwfgwjt43QQEhLt9jpiDObEF0foSJ6IHQR6LBDjHWKnOnjOyfjsDwlt92I56S5MiKOxUZ4-_XU7ySdK3r_Y0CPmVmvK_iuYfcR7ZUJ8wxq8YlkMQsfBYsvJfNA9oxB8pwbgQFlKgDeCGfIupe6XnovMMHMdDrp65Tuy5UPHeU2hWQz2MGsOvL1OuQNZWIkLaGm9AV10bBrRw4jhAFA4Pafj8oJVReeDfPBUyKyiIOCoAMfM0LEdsgRqeDR9Faw1Naw2XIJyvQycZROUNbQ7LjgtAIhodMZM2FsfH4c0c53ViEVKM6FG3RAnJ3rvkrfiDLNUPscUmr5lx4gk7JMQ7AVlK6f8hUAGoEbHJesZWKEO7GYwd2ePdfwDrGUkjVdBFOCVK3jLnjsJ2dI6pNGOnaLYMp0mrCsIyhmlc5U37Z4iBV4K5GJ6Kq1M65Cs-H63eFmYQdX3buXKiwC2WemD3UfKaofyOcPNJ56C5nor9JFWk35SaN8mZcymavZJlq0CinFAwTA5rpEwBh7JIKs1Bjq-7_QZ9uvUK_v7ZdiK3YOO_IlxrzZLur-wLVmOREXiWCxYApoiiZhjjWJZE69Vsw3HyuqUJD-qXWtDHdPw_lRi84sjNHPAWbkG9qz3iG7EFwEvSAvYLWpXS5-1tvFUJDKOHsPhjBwi5fxAmqP7YTJ6LGQ_oB1DIAqZeZiCpwjMAcxyiHP4hSnYbr5mCaq_qyc0uCvEUbyihsVUWTVLfokNrokNrokLzaUl_o3M7uGMcQ28thssbvYNnSsZT5PjApNkLclSgDV-Yr7zLwfeL8gSJFFgT3lB47brqsndzkkCKHVhRw4Sw5vsWFR9q7Mg9hH7FeLtN6faxf6vpPEevJdNlwVWlrGjwRFkMMVrsrgniNe-jgeZgjsMhZqDd8uIv3Gu6VmC0]--></g></svg>