<svg xmlns="http://www.w3.org/2000/svg" xmlns:xlink="http://www.w3.org/1999/xlink" contentStyleType="text/css" data-diagram-type="SEQUENCE" height="770px" preserveAspectRatio="none" style="width:825px;height:770px;background:#000000;" version="1.1" viewBox="0 0 825 770" width="825px" zoomAndPan="magnify"><title>PeerA set_peer to MasterPeer</title><defs/><g><text fill="#FFFFFF" font-family="Verdana" font-size="22" font-weight="bold" lengthAdjust="spacing" textLength="370.3477" x="226.1475" y="37.1182">PeerA set_peer to MasterPeer</text><g><title>MasterPeer</title><rect fill="#90EE90" height="362.3911" style="stroke:#FFFFFF;stroke-width:1;" width="10" x="458.0781" y="270.5479"/></g><g><title>CertDB</title><rect fill="#FFFFFF" height="112.9966" style="stroke:#FFFFFF;stroke-width:1;" width="10" x="692.9971" y="446.3438"/></g><g><title>PeerA</title><rect fill="#000000" fill-opacity="0.00000" height="554.9863" width="8" x="231" y="131.752"/><line style="stroke:#FFFFFF;stroke-width:1;" x1="235" x2="235" y1="131.752" y2="686.7383"/></g><g><title>MasterPeer</title><rect fill="#000000" fill-opacity="0.00000" height="554.9863" width="8" x="459.0781" y="131.752"/><line style="stroke:#FFFFFF;stroke-width:1;" x1="462.8638" x2="462.8638" y1="131.752" y2="686.7383"/></g><g><title>CertDB</title><rect fill="#000000" fill-opacity="0.00000" height="554.9863" width="8" x="693.9971" y="131.752"/><line style="stroke:#FFFFFF;stroke-width:1;" x1="697.0015" x2="697.0015" y1="131.752" y2="686.7383"/></g><g class="participant participant-head" data-participant="PA"><text fill="#FFFFFF" font-family="Verdana" font-size="14" lengthAdjust="spacing" textLength="40.667" x="211.6665" y="128.8125">PeerA</text><ellipse cx="235" cy="69.7373" fill="#87CEEB" rx="16" ry="16" style="stroke:#000000;stroke-width:1;"/><path d="M235,89.7373 C239,89.7373 242,89.7373 246,85.7373 C254,85.7373 262,93.7373 262,101.7373 L262,105.7373 C262,109.7373 258,113.7373 254,113.7373 L216,113.7373 C212,113.7373 208,109.7373 208,105.7373 L208,101.7373 C208,93.7373 216,85.7373 224,85.7373 C228,89.7373 231,89.7373 235,89.7373" fill="#87CEEB" style="stroke:#000000;stroke-width:1;"/></g><g class="participant participant-tail" data-participant="PA"><text fill="#FFFFFF" font-family="Verdana" font-size="14" lengthAdjust="spacing" textLength="40.667" x="211.6665" y="699.8135">PeerA</text><ellipse cx="235" cy="719.7529" fill="#87CEEB" rx="16" ry="16" style="stroke:#000000;stroke-width:1;"/><path d="M235,739.7529 C239,739.7529 242,739.7529 246,735.7529 C254,735.7529 262,743.7529 262,751.7529 L262,755.7529 C262,759.7529 258,763.7529 254,763.7529 L216,763.7529 C212,763.7529 208,759.7529 208,755.7529 L208,751.7529 C208,743.7529 216,735.7529 224,735.7529 C228,739.7529 231,739.7529 235,739.7529" fill="#87CEEB" style="stroke:#000000;stroke-width:1;"/></g><g class="participant participant-head" data-participant="MP"><text fill="#FFFFFF" font-family="Verdana" font-size="14" lengthAdjust="spacing" textLength="78.4287" x="420.8638" y="128.8125">MasterPeer</text><ellipse cx="463.0781" cy="69.7373" fill="#90EE90" rx="16" ry="16" style="stroke:#000000;stroke-width:1;"/><path d="M463.0781,89.7373 C467.0781,89.7373 470.0781,89.7373 474.0781,85.7373 C482.0781,85.7373 490.0781,93.7373 490.0781,101.7373 L490.0781,105.7373 C490.0781,109.7373 486.0781,113.7373 482.0781,113.7373 L444.0781,113.7373 C440.0781,113.7373 436.0781,109.7373 436.0781,105.7373 L436.0781,101.7373 C436.0781,93.7373 444.0781,85.7373 452.0781,85.7373 C456.0781,89.7373 459.0781,89.7373 463.0781,89.7373" fill="#90EE90" style="stroke:#000000;stroke-width:1;"/></g><g class="participant participant-tail" data-participant="MP"><text fill="#FFFFFF" font-family="Verdana" font-size="14" lengthAdjust="spacing" textLength="78.4287" x="420.8638" y="699.8135">MasterPeer</text><ellipse cx="463.0781" cy="719.7529" fill="#90EE90" rx="16" ry="16" style="stroke:#000000;stroke-width:1;"/><path d="M463.0781,739.7529 C467.0781,739.7529 470.0781,739.7529 474.0781,735.7529 C482.0781,735.7529 490.0781,743.7529 490.0781,751.7529 L490.0781,755.7529 C490.0781,759.7529 486.0781,763.7529 482.0781,763.7529 L444.0781,763.7529 C440.0781,763.7529 436.0781,759.7529 436.0781,755.7529 L436.0781,751.7529 C436.0781,743.7529 444.0781,735.7529 452.0781,735.7529 C456.0781,739.7529 459.0781,739.7529 463.0781,739.7529" fill="#90EE90" style="stroke:#000000;stroke-width:1;"/></g><g class="participant participant-head" data-participant="DB"><text fill="#FFFFFF" font-family="Verdana" font-size="14" lengthAdjust="spacing" textLength="49.9912" x="670.0015" y="128.8125">CertDB</text><path d="M679.9971,78.7373 C679.9971,68.7373 697.9971,68.7373 697.9971,68.7373 C697.9971,68.7373 715.9971,68.7373 715.9971,78.7373 L715.9971,104.7373 C715.9971,114.7373 697.9971,114.7373 697.9971,114.7373 C697.9971,114.7373 679.9971,114.7373 679.9971,104.7373 L679.9971,78.7373" fill="#FBFF00" style="stroke:#000000;stroke-width:1.5;"/><path d="M679.9971,78.7373 C679.9971,88.7373 697.9971,88.7373 697.9971,88.7373 C697.9971,88.7373 715.9971,88.7373 715.9971,78.7373" fill="none" style="stroke:#000000;stroke-width:1.5;"/></g><g class="participant participant-tail" data-participant="DB"><text fill="#FFFFFF" font-family="Verdana" font-size="14" lengthAdjust="spacing" textLength="49.9912" x="670.0015" y="699.8135">CertDB</text><path d="M679.9971,712.7529 C679.9971,702.7529 697.9971,702.7529 697.9971,702.7529 C697.9971,702.7529 715.9971,702.7529 715.9971,712.7529 L715.9971,738.7529 C715.9971,748.7529 697.9971,748.7529 697.9971,748.7529 C697.9971,748.7529 679.9971,748.7529 679.9971,738.7529 L679.9971,712.7529" fill="#FBFF00" style="stroke:#000000;stroke-width:1.5;"/><path d="M679.9971,712.7529 C679.9971,722.7529 697.9971,722.7529 697.9971,722.7529 C697.9971,722.7529 715.9971,722.7529 715.9971,712.7529" fill="none" style="stroke:#000000;stroke-width:1.5;"/></g><g><title>MasterPeer</title><rect fill="#90EE90" height="362.3911" style="stroke:#FFFFFF;stroke-width:1;" width="10" x="458.0781" y="270.5479"/></g><g><title>CertDB</title><rect fill="#FFFFFF" height="112.9966" style="stroke:#FFFFFF;stroke-width:1;" width="10" x="692.9971" y="446.3438"/></g><rect fill="#000000" height="3" style="stroke:#000000;stroke-width:1;" width="813.6426" x="5" y="162.6516"/><line style="stroke:#FFFFFF;stroke-width:0.5;" x1="5" x2="818.6426" y1="162.6516" y2="162.6516"/><line style="stroke:#FFFFFF;stroke-width:0.5;" x1="5" x2="818.6426" y1="165.6516" y2="165.6516"/><rect fill="#000000" height="23.7993" style="stroke:#FFFFFF;stroke-width:1;" width="132.1045" x="345.769" y="151.752"/><text fill="#FFFFFF" font-family="Verdana" font-size="13" font-weight="bold" lengthAdjust="spacing" textLength="113.6611" x="351.769" y="168.8218">PK Registration</text><g class="message" data-participant-1="PA" data-participant-2="MP"><polygon fill="#87CEEB" points="446.0781,266.5479,456.0781,270.5479,446.0781,274.5479,450.0781,270.5479" style="stroke:#87CEEB;stroke-width:1;"/><line style="stroke:#87CEEB;stroke-width:1;" x1="235" x2="452.0781" y1="270.5479" y2="270.5479"/><text fill="#FFFFFF" font-family="Verdana" font-size="13" font-weight="bold" lengthAdjust="spacing" textLength="9.2422" x="242" y="234.2197">1</text><text fill="#FFFFFF" font-family="Verdana" font-size="13" lengthAdjust="spacing" textLength="190.8359" x="255.2422" y="202.6211">EApiEvent(EPeerPublic, Sign)</text><text fill="#FFFFFF" font-family="Verdana" font-size="13" lengthAdjust="spacing" textLength="4.5703" x="255.2422" y="218.4204">&#160;</text><text fill="#FFFFFF" font-family="Verdana" font-size="13" lengthAdjust="spacing" textLength="66.9868" x="255.2422" y="234.2197">Ake Kyber</text><text fill="#FFFFFF" font-family="Verdana" font-size="13" lengthAdjust="spacing" textLength="89.7432" x="255.2422" y="250.019">Dilithium sign</text><text fill="#FFFFFF" font-family="Verdana" font-size="13" lengthAdjust="spacing" textLength="123.7666" x="255.2422" y="265.8184">Aes256_Gcm crypt</text></g><path d="M473,283.5479 L473,340.5479 L643,340.5479 L643,293.5479 L633,283.5479 L473,283.5479" fill="#FFFFFF" style="stroke:#000000;stroke-width:1;"/><path d="M633,283.5479 L633,293.5479 L643,293.5479 L633,283.5479" fill="#FFFFFF" style="stroke:#000000;stroke-width:1;"/><text fill="#000000" font-family="Verdana" font-size="13" lengthAdjust="spacing" textLength="84.2588" x="479" y="301.6177">1. Use Kyber</text><text fill="#000000" font-family="Verdana" font-size="13" lengthAdjust="spacing" textLength="149.8872" x="479" y="317.417">2. Verify Dilithium sign</text><text fill="#000000" font-family="Verdana" font-size="13" lengthAdjust="spacing" textLength="130.7427" x="479" y="333.2163">3.Verify EPeerPublic</text><g class="message" data-participant-1="MP" data-participant-2="MP"><line style="stroke:#90EE90;stroke-width:1;" x1="468.0781" x2="510.0781" y1="367.7451" y2="367.7451"/><line style="stroke:#90EE90;stroke-width:1;" x1="510.0781" x2="510.0781" y1="367.7451" y2="380.7451"/><line style="stroke:#90EE90;stroke-width:1;" x1="469.0781" x2="510.0781" y1="380.7451" y2="380.7451"/><polygon fill="#90EE90" points="479.0781,376.7451,469.0781,380.7451,479.0781,384.7451,475.0781,380.7451" style="stroke:#90EE90;stroke-width:1;"/><text fill="#FFFFFF" font-family="Verdana" font-size="13" font-weight="bold" lengthAdjust="spacing" textLength="9.2422" x="475.0781" y="363.0156">2</text><text fill="#FFFFFF" font-family="Verdana" font-size="13" lengthAdjust="spacing" textLength="131.2314" x="488.3203" y="363.0156">Generate Certificate</text></g><path d="M131,393.7451 L131,418.7451 L452,418.7451 L452,403.7451 L442,393.7451 L131,393.7451" fill="#FFFFFF" style="stroke:#000000;stroke-width:1;"/><path d="M442,393.7451 L442,403.7451 L452,403.7451 L442,393.7451" fill="#FFFFFF" style="stroke:#000000;stroke-width:1;"/><text fill="#000000" font-family="Verdana" font-size="13" lengthAdjust="spacing" textLength="300.168" x="137" y="411.8149">Master Dilithium Signature of EPeerCertificate</text><g class="message" data-participant-1="MP" data-participant-2="DB"><polygon fill="#90EE90" points="680.9971,442.3438,690.9971,446.3438,680.9971,450.3438,684.9971,446.3438" style="stroke:#90EE90;stroke-width:1;"/><line style="stroke:#90EE90;stroke-width:1;" x1="468.0781" x2="686.9971" y1="446.3438" y2="446.3438"/><text fill="#FFFFFF" font-family="Verdana" font-size="13" font-weight="bold" lengthAdjust="spacing" textLength="9.2422" x="475.0781" y="441.6143">3</text><text fill="#FFFFFF" font-family="Verdana" font-size="13" lengthAdjust="spacing" textLength="192.6768" x="488.3203" y="441.6143">Store(ID_A, EPeerCertificate)</text></g><path d="M707,459.3438 L707,532.3438 L813,532.3438 L813,469.3438 L803,459.3438 L707,459.3438" fill="#FFFFFF" style="stroke:#000000;stroke-width:1;"/><path d="M803,459.3438 L803,469.3438 L813,469.3438 L803,459.3438" fill="#FFFFFF" style="stroke:#000000;stroke-width:1;"/><text fill="#000000" font-family="Verdana" font-size="13" lengthAdjust="spacing" textLength="67.1011" x="713" y="477.4136">Structure:</text><text fill="#000000" font-family="Verdana" font-size="13" lengthAdjust="spacing" textLength="85.6426" x="713" y="493.2129">- EPeerPublic</text><text fill="#000000" font-family="Verdana" font-size="13" lengthAdjust="spacing" textLength="70.9414" x="713" y="509.0122">- Metadata</text><text fill="#000000" font-family="Verdana" font-size="13" lengthAdjust="spacing" textLength="80.4756" x="713" y="524.8115">- Signatures</text><g class="message" data-participant-1="DB" data-participant-2="MP"><polygon fill="#FFFFFF" points="479.0781,555.3403,469.0781,559.3403,479.0781,563.3403,475.0781,559.3403" style="stroke:#FFFFFF;stroke-width:1;"/><line style="stroke:#FFFFFF;stroke-width:1;stroke-dasharray:2.0,2.0;" x1="473.0781" x2="696.9971" y1="559.3403" y2="559.3403"/><text fill="#FFFFFF" font-family="Verdana" font-size="13" font-weight="bold" lengthAdjust="spacing" textLength="9.2422" x="485.0781" y="554.6108">4</text><text fill="#FFFFFF" font-family="Verdana" font-size="13" lengthAdjust="spacing" textLength="82.6401" x="498.3203" y="554.6108">Storage ACK</text></g><rect fill="#000000" height="3" style="stroke:#000000;stroke-width:1;" width="813.6426" x="5" y="588.24"/><line style="stroke:#FFFFFF;stroke-width:0.5;" x1="5" x2="818.6426" y1="588.24" y2="588.24"/><line style="stroke:#FFFFFF;stroke-width:0.5;" x1="5" x2="818.6426" y1="591.24" y2="591.24"/><rect fill="#000000" height="23.7993" style="stroke:#FFFFFF;stroke-width:1;" width="158.8916" x="332.3755" y="577.3403"/><text fill="#FFFFFF" font-family="Verdana" font-size="13" font-weight="bold" lengthAdjust="spacing" textLength="140.4482" x="338.3755" y="594.4102">Certificate Delivery</text><g class="message" data-participant-1="MP" data-participant-2="PA"><polygon fill="#90EE90" points="246,628.939,236,632.939,246,636.939,242,632.939" style="stroke:#90EE90;stroke-width:1;"/><line style="stroke:#90EE90;stroke-width:1;" x1="240" x2="462.0781" y1="632.939" y2="632.939"/><text fill="#FFFFFF" font-family="Verdana" font-size="13" font-weight="bold" lengthAdjust="spacing" textLength="9.2422" x="252" y="628.2095">5</text><text fill="#FFFFFF" font-family="Verdana" font-size="13" lengthAdjust="spacing" textLength="85.8267" x="265.2422" y="628.2095">Cert Package</text></g><path d="M10,645.939 L10,670.939 L230,670.939 L230,655.939 L220,645.939 L10,645.939" fill="#FFFFFF" style="stroke:#000000;stroke-width:1;"/><path d="M220,645.939 L220,655.939 L230,655.939 L220,645.939" fill="#FFFFFF" style="stroke:#000000;stroke-width:1;"/><text fill="#000000" font-family="Verdana" font-size="13" lengthAdjust="spacing" textLength="199.8306" x="16" y="664.0088">1. Verify MasterPeer Response</text><!--SRC=[VLFlRzem4Ftkl-9A9wsLsghjj1z5ObA0j9fQrWYsITMOa0aNQX7ip7QOqBJ_VMSd1GE5V7BydjzxTpuVsMUS8nGv5vAnjt2Ngp7FOSBr32h8eBL2JWqpCo4BhlaSnZoTJRKgvQIZSgNX-D9_0ME26IzpUwkahIct_dCMNvKbrG9JaOdqDNdf27yPqDVUTgfbFARq1FLc0hSVcDQx_vnjb5hQEkJB7MDWbpa2_uD6pN4Rh5CDB6fKTbdWRe5R2UfTds20lqkKAHLF7kGTg9iNg39u41a-28aR9GO6AtpFHJXEmhKLgIYujFjakc8X23Yaya8vhB2dOBzbt308AQnGaXszIUAuFuf6dSU7npwqe77ywMCdZjiDWdhHu1k1dh76RoxZ-ERIut7liVyKGDauoouzD7YYexq0gc8qN8gW4OPLrzX847NK06uWYM0ZqmkZnmtTikDvMY-1tNnimYqVSuFGwA2stRQdTjkm4PKnAopDbFTqSpSgQ0LMmTg3CLvQ9SlvsArRBKZkeOzJOQpchd7GQZ5AUlvp8-klpvIh2N5KY7Y1qfx4JYifnxb8ps0Wfl9qA8SocY7SBqbvABiY5_PPb3HnX1A4vlhzXz5TEeTKBmlhgXSBJk_lzOBzqzHY-cozyzK5V3ShyUiB-85QP4lOjdbtKGD1GCR8WWhQCQchkaE9sYLnhNLFbjQLVuvPPL_rBt1p9NDRQWILLLxXuGE6tNQJNhNIUFAbEuhETiwUhXlZhZSSjx0dbOmkKvUXEPJdOS7kjuUMkw5nwrLOmqZpd9A5idKNN2W-HOWwzso2GGW_9K52w68k5gYNRbJs5vf4JN-ANaKw8-6WemwwMbtXUZPf44sXfC4mG2zX_m40]--></g></svg>