<svg xmlns="http://www.w3.org/2000/svg" xmlns:xlink="http://www.w3.org/1999/xlink" contentStyleType="text/css" data-diagram-type="SEQUENCE" height="786px" preserveAspectRatio="none" style="width:905px;height:786px;background:#000000;" version="1.1" viewBox="0 0 905 786" width="905px" zoomAndPan="magnify"><title>PeerA del_peer to MasterPeer</title><defs/><g><text fill="#FFFFFF" font-family="Verdana" font-size="22" font-weight="bold" lengthAdjust="spacing" textLength="370.1758" x="266.1499" y="37.1182">PeerA del_peer to MasterPeer</text><g><title>MasterPeer</title><rect fill="#90EE90" height="362.3911" style="stroke:#FFFFFF;stroke-width:1;" width="10" x="576.4077" y="270.5479"/></g><g><title>CertDB</title><rect fill="#FFFFFF" height="112.9966" style="stroke:#FFFFFF;stroke-width:1;" width="10" x="777.8872" y="446.3438"/></g><g><title>PeerA</title><rect fill="#000000" fill-opacity="0.00000" height="570.7856" width="8" x="308" y="131.752"/><line style="stroke:#FFFFFF;stroke-width:1;" x1="312" x2="312" y1="131.752" y2="702.5376"/></g><g><title>MasterPeer</title><rect fill="#000000" fill-opacity="0.00000" height="570.7856" width="8" x="577.4077" y="131.752"/><line style="stroke:#FFFFFF;stroke-width:1;" x1="581.1934" x2="581.1934" y1="131.752" y2="702.5376"/></g><g><title>CertDB</title><rect fill="#000000" fill-opacity="0.00000" height="570.7856" width="8" x="778.8872" y="131.752"/><line style="stroke:#FFFFFF;stroke-width:1;" x1="781.8916" x2="781.8916" y1="131.752" y2="702.5376"/></g><g class="participant participant-head" data-participant="PA"><text fill="#FFFFFF" font-family="Verdana" font-size="14" lengthAdjust="spacing" textLength="40.667" x="288.6665" y="128.8125">PeerA</text><ellipse cx="312" cy="69.7373" fill="#87CEEB" rx="16" ry="16" style="stroke:#000000;stroke-width:1;"/><path d="M312,89.7373 C316,89.7373 319,89.7373 323,85.7373 C331,85.7373 339,93.7373 339,101.7373 L339,105.7373 C339,109.7373 335,113.7373 331,113.7373 L293,113.7373 C289,113.7373 285,109.7373 285,105.7373 L285,101.7373 C285,93.7373 293,85.7373 301,85.7373 C305,89.7373 308,89.7373 312,89.7373" fill="#87CEEB" style="stroke:#000000;stroke-width:1;"/></g><g class="participant participant-tail" data-participant="PA"><text fill="#FFFFFF" font-family="Verdana" font-size="14" lengthAdjust="spacing" textLength="40.667" x="288.6665" y="715.6128">PeerA</text><ellipse cx="312" cy="735.5522" fill="#87CEEB" rx="16" ry="16" style="stroke:#000000;stroke-width:1;"/><path d="M312,755.5522 C316,755.5522 319,755.5522 323,751.5522 C331,751.5522 339,759.5522 339,767.5522 L339,771.5522 C339,775.5522 335,779.5522 331,779.5522 L293,779.5522 C289,779.5522 285,775.5522 285,771.5522 L285,767.5522 C285,759.5522 293,751.5522 301,751.5522 C305,755.5522 308,755.5522 312,755.5522" fill="#87CEEB" style="stroke:#000000;stroke-width:1;"/></g><g class="participant participant-head" data-participant="MP"><text fill="#FFFFFF" font-family="Verdana" font-size="14" lengthAdjust="spacing" textLength="78.4287" x="539.1934" y="128.8125">MasterPeer</text><ellipse cx="581.4077" cy="69.7373" fill="#90EE90" rx="16" ry="16" style="stroke:#000000;stroke-width:1;"/><path d="M581.4077,89.7373 C585.4077,89.7373 588.4077,89.7373 592.4077,85.7373 C600.4077,85.7373 608.4077,93.7373 608.4077,101.7373 L608.4077,105.7373 C608.4077,109.7373 604.4077,113.7373 600.4077,113.7373 L562.4077,113.7373 C558.4077,113.7373 554.4077,109.7373 554.4077,105.7373 L554.4077,101.7373 C554.4077,93.7373 562.4077,85.7373 570.4077,85.7373 C574.4077,89.7373 577.4077,89.7373 581.4077,89.7373" fill="#90EE90" style="stroke:#000000;stroke-width:1;"/></g><g class="participant participant-tail" data-participant="MP"><text fill="#FFFFFF" font-family="Verdana" font-size="14" lengthAdjust="spacing" textLength="78.4287" x="539.1934" y="715.6128">MasterPeer</text><ellipse cx="581.4077" cy="735.5522" fill="#90EE90" rx="16" ry="16" style="stroke:#000000;stroke-width:1;"/><path d="M581.4077,755.5522 C585.4077,755.5522 588.4077,755.5522 592.4077,751.5522 C600.4077,751.5522 608.4077,759.5522 608.4077,767.5522 L608.4077,771.5522 C608.4077,775.5522 604.4077,779.5522 600.4077,779.5522 L562.4077,779.5522 C558.4077,779.5522 554.4077,775.5522 554.4077,771.5522 L554.4077,767.5522 C554.4077,759.5522 562.4077,751.5522 570.4077,751.5522 C574.4077,755.5522 577.4077,755.5522 581.4077,755.5522" fill="#90EE90" style="stroke:#000000;stroke-width:1;"/></g><g class="participant participant-head" data-participant="DB"><text fill="#FFFFFF" font-family="Verdana" font-size="14" lengthAdjust="spacing" textLength="49.9912" x="754.8916" y="128.8125">CertDB</text><path d="M764.8872,78.7373 C764.8872,68.7373 782.8872,68.7373 782.8872,68.7373 C782.8872,68.7373 800.8872,68.7373 800.8872,78.7373 L800.8872,104.7373 C800.8872,114.7373 782.8872,114.7373 782.8872,114.7373 C782.8872,114.7373 764.8872,114.7373 764.8872,104.7373 L764.8872,78.7373" fill="#FBFF00" style="stroke:#000000;stroke-width:1.5;"/><path d="M764.8872,78.7373 C764.8872,88.7373 782.8872,88.7373 782.8872,88.7373 C782.8872,88.7373 800.8872,88.7373 800.8872,78.7373" fill="none" style="stroke:#000000;stroke-width:1.5;"/></g><g class="participant participant-tail" data-participant="DB"><text fill="#FFFFFF" font-family="Verdana" font-size="14" lengthAdjust="spacing" textLength="49.9912" x="754.8916" y="715.6128">CertDB</text><path d="M764.8872,728.5522 C764.8872,718.5522 782.8872,718.5522 782.8872,718.5522 C782.8872,718.5522 800.8872,718.5522 800.8872,728.5522 L800.8872,754.5522 C800.8872,764.5522 782.8872,764.5522 782.8872,764.5522 C782.8872,764.5522 764.8872,764.5522 764.8872,754.5522 L764.8872,728.5522" fill="#FBFF00" style="stroke:#000000;stroke-width:1.5;"/><path d="M764.8872,728.5522 C764.8872,738.5522 782.8872,738.5522 782.8872,738.5522 C782.8872,738.5522 800.8872,738.5522 800.8872,728.5522" fill="none" style="stroke:#000000;stroke-width:1.5;"/></g><g><title>MasterPeer</title><rect fill="#90EE90" height="362.3911" style="stroke:#FFFFFF;stroke-width:1;" width="10" x="576.4077" y="270.5479"/></g><g><title>CertDB</title><rect fill="#FFFFFF" height="112.9966" style="stroke:#FFFFFF;stroke-width:1;" width="10" x="777.8872" y="446.3438"/></g><rect fill="#000000" height="3" style="stroke:#000000;stroke-width:1;" width="893.4756" x="5" y="162.6516"/><line style="stroke:#FFFFFF;stroke-width:0.5;" x1="5" x2="898.4756" y1="162.6516" y2="162.6516"/><line style="stroke:#FFFFFF;stroke-width:0.5;" x1="5" x2="898.4756" y1="165.6516" y2="165.6516"/><rect fill="#000000" height="23.7993" style="stroke:#FFFFFF;stroke-width:1;" width="132.1045" x="385.6855" y="151.752"/><text fill="#FFFFFF" font-family="Verdana" font-size="13" font-weight="bold" lengthAdjust="spacing" textLength="113.6611" x="391.6855" y="168.8218">PK Registration</text><g class="message" data-participant-1="PA" data-participant-2="MP"><polygon fill="#87CEEB" points="564.4077,266.5479,574.4077,270.5479,564.4077,274.5479,568.4077,270.5479" style="stroke:#87CEEB;stroke-width:1;"/><line style="stroke:#87CEEB;stroke-width:1;" x1="312" x2="570.4077" y1="270.5479" y2="270.5479"/><text fill="#FFFFFF" font-family="Verdana" font-size="13" font-weight="bold" lengthAdjust="spacing" textLength="9.2422" x="319" y="234.2197">1</text><text fill="#FFFFFF" font-family="Verdana" font-size="13" lengthAdjust="spacing" textLength="232.1655" x="332.2422" y="202.6211">EApiEvent(id_peer_a, sign_peer_a)</text><text fill="#FFFFFF" font-family="Verdana" font-size="13" lengthAdjust="spacing" textLength="4.5703" x="332.2422" y="218.4204">&#160;</text><text fill="#FFFFFF" font-family="Verdana" font-size="13" lengthAdjust="spacing" textLength="66.9868" x="332.2422" y="234.2197">Ake Kyber</text><text fill="#FFFFFF" font-family="Verdana" font-size="13" lengthAdjust="spacing" textLength="89.7432" x="332.2422" y="250.019">Dilithium sign</text><text fill="#FFFFFF" font-family="Verdana" font-size="13" lengthAdjust="spacing" textLength="170.5107" x="332.2422" y="265.8184">ChaCha20-Poly1305 crypt</text></g><path d="M591,283.5479 L591,340.5479 L790,340.5479 L790,293.5479 L780,283.5479 L591,283.5479" fill="#FFFFFF" style="stroke:#000000;stroke-width:1;"/><path d="M780,283.5479 L780,293.5479 L790,293.5479 L780,283.5479" fill="#FFFFFF" style="stroke:#000000;stroke-width:1;"/><text fill="#000000" font-family="Verdana" font-size="13" lengthAdjust="spacing" textLength="84.2588" x="597" y="301.6177">1. Use Kyber</text><text fill="#000000" font-family="Verdana" font-size="13" lengthAdjust="spacing" textLength="149.8872" x="597" y="317.417">2. Verify sign Dilithium</text><text fill="#000000" font-family="Verdana" font-size="13" lengthAdjust="spacing" textLength="178.9214" x="597" y="333.2163">3.Verify if exist EPeerPublic</text><g class="message" data-participant-1="MP" data-participant-2="MP"><line style="stroke:#90EE90;stroke-width:1;" x1="586.4077" x2="628.4077" y1="367.7451" y2="367.7451"/><line style="stroke:#90EE90;stroke-width:1;" x1="628.4077" x2="628.4077" y1="367.7451" y2="380.7451"/><line style="stroke:#90EE90;stroke-width:1;" x1="587.4077" x2="628.4077" y1="380.7451" y2="380.7451"/><polygon fill="#90EE90" points="597.4077,376.7451,587.4077,380.7451,597.4077,384.7451,593.4077,380.7451" style="stroke:#90EE90;stroke-width:1;"/><text fill="#FFFFFF" font-family="Verdana" font-size="13" font-weight="bold" lengthAdjust="spacing" textLength="9.2422" x="593.4077" y="363.0156">2</text><text fill="#FFFFFF" font-family="Verdana" font-size="13" lengthAdjust="spacing" textLength="131.2314" x="606.6499" y="363.0156">Generate Certificate</text></g><path d="M321,393.7451 L321,418.7451 L570,418.7451 L570,403.7451 L560,393.7451 L321,393.7451" fill="#FFFFFF" style="stroke:#000000;stroke-width:1;"/><path d="M560,393.7451 L560,403.7451 L570,403.7451 L560,393.7451" fill="#FFFFFF" style="stroke:#000000;stroke-width:1;"/><text fill="#000000" font-family="Verdana" font-size="13" lengthAdjust="spacing" textLength="228.5474" x="327" y="411.8149">Master Dilithium check EPeerPublic</text><g class="message" data-participant-1="MP" data-participant-2="DB"><polygon fill="#90EE90" points="765.8872,442.3438,775.8872,446.3438,765.8872,450.3438,769.8872,446.3438" style="stroke:#90EE90;stroke-width:1;"/><line style="stroke:#90EE90;stroke-width:1;" x1="586.4077" x2="771.8872" y1="446.3438" y2="446.3438"/><text fill="#FFFFFF" font-family="Verdana" font-size="13" font-weight="bold" lengthAdjust="spacing" textLength="9.2422" x="593.4077" y="441.6143">3</text><text fill="#FFFFFF" font-family="Verdana" font-size="13" lengthAdjust="spacing" textLength="159.2373" x="606.6499" y="441.6143">Revoke(id_peer_a, cert)</text></g><path d="M792,459.3438 L792,532.3438 L893,532.3438 L893,469.3438 L883,459.3438 L792,459.3438" fill="#FFFFFF" style="stroke:#000000;stroke-width:1;"/><path d="M883,459.3438 L883,469.3438 L893,469.3438 L883,459.3438" fill="#FFFFFF" style="stroke:#000000;stroke-width:1;"/><text fill="#000000" font-family="Verdana" font-size="13" lengthAdjust="spacing" textLength="67.1011" x="798" y="477.4136">Structure:</text><text fill="#000000" font-family="Verdana" font-size="13" lengthAdjust="spacing" textLength="77.562" x="798" y="493.2129">- Public Key</text><text fill="#000000" font-family="Verdana" font-size="13" lengthAdjust="spacing" textLength="70.9414" x="798" y="509.0122">- Metadata</text><text fill="#000000" font-family="Verdana" font-size="13" lengthAdjust="spacing" textLength="80.4756" x="798" y="524.8115">- Signatures</text><g class="message" data-participant-1="DB" data-participant-2="MP"><polygon fill="#FFFFFF" points="597.4077,555.3403,587.4077,559.3403,597.4077,563.3403,593.4077,559.3403" style="stroke:#FFFFFF;stroke-width:1;"/><line style="stroke:#FFFFFF;stroke-width:1;stroke-dasharray:2.0,2.0;" x1="591.4077" x2="781.8872" y1="559.3403" y2="559.3403"/><text fill="#FFFFFF" font-family="Verdana" font-size="13" font-weight="bold" lengthAdjust="spacing" textLength="9.2422" x="603.4077" y="554.6108">4</text><text fill="#FFFFFF" font-family="Verdana" font-size="13" lengthAdjust="spacing" textLength="82.6401" x="616.6499" y="554.6108">Storage ACK</text></g><rect fill="#000000" height="3" style="stroke:#000000;stroke-width:1;" width="893.4756" x="5" y="588.24"/><line style="stroke:#FFFFFF;stroke-width:0.5;" x1="5" x2="898.4756" y1="588.24" y2="588.24"/><line style="stroke:#FFFFFF;stroke-width:0.5;" x1="5" x2="898.4756" y1="591.24" y2="591.24"/><rect fill="#000000" height="23.7993" style="stroke:#FFFFFF;stroke-width:1;" width="156.854" x="373.3108" y="577.3403"/><text fill="#FFFFFF" font-family="Verdana" font-size="13" font-weight="bold" lengthAdjust="spacing" textLength="138.4106" x="379.3108" y="594.4102">EApiEvent Delivery</text><g class="message" data-participant-1="MP" data-participant-2="PA"><polygon fill="#90EE90" points="323,628.939,313,632.939,323,636.939,319,632.939" style="stroke:#90EE90;stroke-width:1;"/><line style="stroke:#90EE90;stroke-width:1;" x1="317" x2="580.4077" y1="632.939" y2="632.939"/><text fill="#FFFFFF" font-family="Verdana" font-size="13" font-weight="bold" lengthAdjust="spacing" textLength="9.2422" x="329" y="628.2095">5</text><text fill="#FFFFFF" font-family="Verdana" font-size="13" lengthAdjust="spacing" textLength="69.2466" x="342.2422" y="628.2095">EApiResult</text></g><path d="M10,645.939 L10,686.939 L307,686.939 L307,655.939 L297,645.939 L10,645.939" fill="#FFFFFF" style="stroke:#000000;stroke-width:1;"/><path d="M297,645.939 L297,655.939 L307,655.939 L297,645.939" fill="#FFFFFF" style="stroke:#000000;stroke-width:1;"/><text fill="#000000" font-family="Verdana" font-size="13" lengthAdjust="spacing" textLength="171.8945" x="16" y="664.0088">1. Verify Master Signature</text><text fill="#000000" font-family="Verdana" font-size="13" lengthAdjust="spacing" textLength="276.123" x="16" y="679.8081">2. Create new EPeerSecret -&gt; EPeerPublic</text><!--SRC=[ZLHXRzem4FtkNt6ZaxPAewAjfgsLg1GWxGUQDIBRf6fCo2GNi0XEPZjqqRJ_lhEJGcXBjOWFnkznxzsx2s_C4jS8HSQ5PEmTt6Jvd6UGSBM26j9eZ90BpVHAo88hleOvZrSBbPSo6UPPhk2evvuM8y6KbvcvpgLfADVkiH9VSaDL2un5AkANoajB-CE0di5JfQQCmtALeDftOEzReitjNolhnOQkNjFbbX6PAaFW3wZpDJu56rUHGOMvgGfytk0J1ysjSn3Xhn9bJCsJ1cctgkj7g1Qu5IdU2ebxBRO4jlY1GLXEo9KHiIYuD8VAZCH64F1QbKVAwnKEDEokj5q68OKHkMHlteQ-Fvbvi-7TxTq4-j0v-lnfwFk33a615tqbq35s-4NFzozw3lU3kybz2qhdQTfpK7HFFmrQK6sZOrsqWj2i7cCdH5HU1xY6q8CzJu-CW6kQikKvMX32StyiuORFkKRe356PqS1HHmFOiygO4OPsocbI6Dcie1EO77OQZF7IvB9Sp-svtuTm31DS26qKjy51ly_8QVV7djUVL-Jh4dol4Fu6fNal4bTxnZ-05WlPV3cUogdqLWZZYifFvKXamYn5kNQagHmkENtEUjqmpwhJyzv7Y5LL69k4s71w5rzkthscIYoMnhauFO5lUgjnTWBVKOcqSXgmbPpAyvC642dWR-eGV9j0MCup4JD6MjJbCxMcrHkKgAmbcxTzZ-bS6yamhNtKeUuK8LvYlFfVaT7WaeBVv2jiXncJsl4k3plXziQrex058gFAs9GABwUo2xKeZB6otm8qtAwDFKSK3RSypQXaboorgpOjHxIEV87W3SSimPO7joVRsSC8Cx51LTbLETnVwDNxCa5D_y-jw2nmkXrQ4-BMe1leKA5LblXGfnbXhD10zselt9R786J_0000]--></g></svg>