<svg xmlns="http://www.w3.org/2000/svg" xmlns:xlink="http://www.w3.org/1999/xlink" contentStyleType="text/css" data-diagram-type="DESCRIPTION" height="709px" preserveAspectRatio="none" style="width:1251px;height:709px;background:#000000;" version="1.1" viewBox="0 0 1251 709" width="1251px" zoomAndPan="magnify"><title>EPQB Network Topology</title><defs/><g><text fill="#FFFFFF" font-family="Verdana" font-size="22" font-weight="bold" lengthAdjust="spacing" textLength="300.1689" x="471.3764" y="37.1182">EPQB Network Topology</text><!--entity PA--><g class="entity" data-entity="PA" data-source-line="36" data-uid="ent0002" id="entity_PA"><ellipse cx="206.89" cy="80.7373" fill="#FFB6C1" rx="16" ry="16" style="stroke:#000000;stroke-width:1;"/><path d="M206.89,100.7373 C210.89,100.7373 213.89,100.7373 217.89,96.7373 C225.89,96.7373 233.89,104.7373 233.89,112.7373 L233.89,116.7373 C233.89,120.7373 229.89,124.7373 225.89,124.7373 L187.89,124.7373 C183.89,124.7373 179.89,120.7373 179.89,116.7373 L179.89,112.7373 C179.89,104.7373 187.89,96.7373 195.89,96.7373 C199.89,100.7373 202.89,100.7373 206.89,100.7373" fill="#FFB6C1" style="stroke:#000000;stroke-width:1;"/><text fill="#FFFFFF" font-family="Verdana" font-size="14" lengthAdjust="spacing" textLength="40.667" x="186.5565" y="139.8125">PeerA</text></g><!--entity PB--><g class="entity" data-entity="PB" data-source-line="37" data-uid="ent0003" id="entity_PB"><ellipse cx="620.89" cy="363.7373" fill="#87CEEB" rx="16" ry="16" style="stroke:#000000;stroke-width:1;"/><path d="M620.89,383.7373 C624.89,383.7373 627.89,383.7373 631.89,379.7373 C639.89,379.7373 647.89,387.7373 647.89,395.7373 L647.89,399.7373 C647.89,403.7373 643.89,407.7373 639.89,407.7373 L601.89,407.7373 C597.89,407.7373 593.89,403.7373 593.89,399.7373 L593.89,395.7373 C593.89,387.7373 601.89,379.7373 609.89,379.7373 C613.89,383.7373 616.89,383.7373 620.89,383.7373" fill="#87CEEB" style="stroke:#000000;stroke-width:1;"/><text fill="#FFFFFF" font-family="Verdana" font-size="14" lengthAdjust="spacing" textLength="40.6943" x="600.5428" y="422.8125">PeerB</text></g><!--entity PC--><g class="entity" data-entity="PC" data-source-line="38" data-uid="ent0004" id="entity_PC"><ellipse cx="180.89" cy="502.7373" fill="#87CEEB" rx="16" ry="16" style="stroke:#000000;stroke-width:1;"/><path d="M180.89,522.7373 C184.89,522.7373 187.89,522.7373 191.89,518.7373 C199.89,518.7373 207.89,526.7373 207.89,534.7373 L207.89,538.7373 C207.89,542.7373 203.89,546.7373 199.89,546.7373 L161.89,546.7373 C157.89,546.7373 153.89,542.7373 153.89,538.7373 L153.89,534.7373 C153.89,526.7373 161.89,518.7373 169.89,518.7373 C173.89,522.7373 176.89,522.7373 180.89,522.7373" fill="#87CEEB" style="stroke:#000000;stroke-width:1;"/><text fill="#FFFFFF" font-family="Verdana" font-size="14" lengthAdjust="spacing" textLength="40.8721" x="160.454" y="561.8125">PeerC</text></g><!--entity PD--><g class="entity" data-entity="PD" data-source-line="39" data-uid="ent0005" id="entity_PD"><ellipse cx="620.89" cy="502.7373" fill="#87CEEB" rx="16" ry="16" style="stroke:#000000;stroke-width:1;"/><path d="M620.89,522.7373 C624.89,522.7373 627.89,522.7373 631.89,518.7373 C639.89,518.7373 647.89,526.7373 647.89,534.7373 L647.89,538.7373 C647.89,542.7373 643.89,546.7373 639.89,546.7373 L601.89,546.7373 C597.89,546.7373 593.89,542.7373 593.89,538.7373 L593.89,534.7373 C593.89,526.7373 601.89,518.7373 609.89,518.7373 C613.89,522.7373 616.89,522.7373 620.89,522.7373" fill="#87CEEB" style="stroke:#000000;stroke-width:1;"/><text fill="#FFFFFF" font-family="Verdana" font-size="14" lengthAdjust="spacing" textLength="41.8838" x="599.9481" y="561.8125">PeerD</text></g><!--entity PE--><g class="entity" data-entity="PE" data-source-line="40" data-uid="ent0006" id="entity_PE"><ellipse cx="180.89" cy="224.7373" fill="#87CEEB" rx="16" ry="16" style="stroke:#000000;stroke-width:1;"/><path d="M180.89,244.7373 C184.89,244.7373 187.89,244.7373 191.89,240.7373 C199.89,240.7373 207.89,248.7373 207.89,256.7373 L207.89,260.7373 C207.89,264.7373 203.89,268.7373 199.89,268.7373 L161.89,268.7373 C157.89,268.7373 153.89,264.7373 153.89,260.7373 L153.89,256.7373 C153.89,248.7373 161.89,240.7373 169.89,240.7373 C173.89,244.7373 176.89,244.7373 180.89,244.7373" fill="#87CEEB" style="stroke:#000000;stroke-width:1;"/><text fill="#FFFFFF" font-family="Verdana" font-size="14" lengthAdjust="spacing" textLength="39.9492" x="160.9154" y="283.8125">PeerE</text></g><!--entity PF--><g class="entity" data-entity="PF" data-source-line="41" data-uid="ent0007" id="entity_PF"><ellipse cx="943.89" cy="224.7373" fill="#EEEEEE" rx="16" ry="16" style="stroke:#000000;stroke-width:1;"/><path d="M943.89,244.7373 C947.89,244.7373 950.89,244.7373 954.89,240.7373 C962.89,240.7373 970.89,248.7373 970.89,256.7373 L970.89,260.7373 C970.89,264.7373 966.89,268.7373 962.89,268.7373 L924.89,268.7373 C920.89,268.7373 916.89,264.7373 916.89,260.7373 L916.89,256.7373 C916.89,248.7373 924.89,240.7373 932.89,240.7373 C936.89,244.7373 939.89,244.7373 943.89,244.7373" fill="#EEEEEE" style="stroke:#000000;stroke-width:1;"/><text fill="#FFFFFF" font-family="Verdana" font-size="14" lengthAdjust="spacing" textLength="39.1426" x="924.3187" y="283.8125">PeerF</text></g><!--entity PCL--><g class="entity" data-entity="PCL" data-source-line="42" data-uid="ent0008" id="entity_PCL"><ellipse cx="918.0257" cy="80.7373" fill="#FFA07A" rx="16" ry="16" style="stroke:#000000;stroke-width:1;"/><path d="M918.0257,100.7373 C922.0257,100.7373 925.0257,100.7373 929.0257,96.7373 C937.0257,96.7373 945.0257,104.7373 945.0257,112.7373 L945.0257,116.7373 C945.0257,120.7373 941.0257,124.7373 937.0257,124.7373 L899.0257,124.7373 C895.0257,124.7373 891.0257,120.7373 891.0257,116.7373 L891.0257,112.7373 C891.0257,104.7373 899.0257,96.7373 907.0257,96.7373 C911.0257,100.7373 914.0257,100.7373 918.0257,100.7373" fill="#FFA07A" style="stroke:#000000;stroke-width:1;"/><text fill="#FFFFFF" font-family="Verdana" font-size="14" lengthAdjust="spacing" textLength="71.2715" x="882.39" y="139.8125">PeerClient</text></g><!--entity RP1--><g class="entity" data-entity="RP1" data-source-line="44" data-uid="ent0009" id="entity_RP1"><ellipse cx="789.6932" cy="224.7373" fill="#FFFFDD" rx="16" ry="16" style="stroke:#000000;stroke-width:1;"/><path d="M789.6932,244.7373 C793.6932,244.7373 796.6932,244.7373 800.6932,240.7373 C808.6932,240.7373 816.6932,248.7373 816.6932,256.7373 L816.6932,260.7373 C816.6932,264.7373 812.6932,268.7373 808.6932,268.7373 L770.6932,268.7373 C766.6932,268.7373 762.6932,264.7373 762.6932,260.7373 L762.6932,256.7373 C762.6932,248.7373 770.6932,240.7373 778.6932,240.7373 C782.6932,244.7373 785.6932,244.7373 789.6932,244.7373" fill="#FFFFDD" style="stroke:#000000;stroke-width:1;"/><text fill="#FFFFFF" font-family="Verdana" font-size="14" lengthAdjust="spacing" textLength="78.6064" x="750.39" y="283.8125">RelayPeer1</text></g><!--entity RP2--><g class="entity" data-entity="RP2" data-source-line="45" data-uid="ent0010" id="entity_RP2"><ellipse cx="283.6932" cy="224.7373" fill="#FFFFDD" rx="16" ry="16" style="stroke:#000000;stroke-width:1;"/><path d="M283.6932,244.7373 C287.6932,244.7373 290.6932,244.7373 294.6932,240.7373 C302.6932,240.7373 310.6932,248.7373 310.6932,256.7373 L310.6932,260.7373 C310.6932,264.7373 306.6932,268.7373 302.6932,268.7373 L264.6932,268.7373 C260.6932,268.7373 256.6932,264.7373 256.6932,260.7373 L256.6932,256.7373 C256.6932,248.7373 264.6932,240.7373 272.6932,240.7373 C276.6932,244.7373 279.6932,244.7373 283.6932,244.7373" fill="#FFFFDD" style="stroke:#000000;stroke-width:1;"/><text fill="#FFFFFF" font-family="Verdana" font-size="14" lengthAdjust="spacing" textLength="78.6064" x="244.39" y="283.8125">RelayPeer2</text></g><!--entity RP3--><g class="entity" data-entity="RP3" data-source-line="46" data-uid="ent0011" id="entity_RP3"><ellipse cx="536.6932" cy="224.7373" fill="#FFFFDD" rx="16" ry="16" style="stroke:#000000;stroke-width:1;"/><path d="M536.6932,244.7373 C540.6932,244.7373 543.6932,244.7373 547.6932,240.7373 C555.6932,240.7373 563.6932,248.7373 563.6932,256.7373 L563.6932,260.7373 C563.6932,264.7373 559.6932,268.7373 555.6932,268.7373 L517.6932,268.7373 C513.6932,268.7373 509.6932,264.7373 509.6932,260.7373 L509.6932,256.7373 C509.6932,248.7373 517.6932,240.7373 525.6932,240.7373 C529.6932,244.7373 532.6932,244.7373 536.6932,244.7373" fill="#FFFFDD" style="stroke:#000000;stroke-width:1;"/><text fill="#FFFFFF" font-family="Verdana" font-size="14" lengthAdjust="spacing" textLength="78.6064" x="497.39" y="283.8125">RelayPeer3</text></g><!--entity MP1--><g class="entity" data-entity="MP1" data-source-line="48" data-uid="ent0012" id="entity_MP1"><ellipse cx="621.0546" cy="641.7373" fill="#90EE90" rx="16" ry="16" style="stroke:#000000;stroke-width:1;"/><path d="M621.0546,661.7373 C625.0546,661.7373 628.0546,661.7373 632.0546,657.7373 C640.0546,657.7373 648.0546,665.7373 648.0546,673.7373 L648.0546,677.7373 C648.0546,681.7373 644.0546,685.7373 640.0546,685.7373 L602.0546,685.7373 C598.0546,685.7373 594.0546,681.7373 594.0546,677.7373 L594.0546,673.7373 C594.0546,665.7373 602.0546,657.7373 610.0546,657.7373 C614.0546,661.7373 617.0546,661.7373 621.0546,661.7373" fill="#90EE90" style="stroke:#000000;stroke-width:1;"/><text fill="#FFFFFF" font-family="Verdana" font-size="14" lengthAdjust="spacing" textLength="87.3291" x="577.39" y="700.8125">MasterPeer1</text></g><!--entity MP2--><g class="entity" data-entity="MP2" data-source-line="49" data-uid="ent0013" id="entity_MP2"><ellipse cx="181.0546" cy="363.7373" fill="#90EE90" rx="16" ry="16" style="stroke:#000000;stroke-width:1;"/><path d="M181.0546,383.7373 C185.0546,383.7373 188.0546,383.7373 192.0546,379.7373 C200.0546,379.7373 208.0546,387.7373 208.0546,395.7373 L208.0546,399.7373 C208.0546,403.7373 204.0546,407.7373 200.0546,407.7373 L162.0546,407.7373 C158.0546,407.7373 154.0546,403.7373 154.0546,399.7373 L154.0546,395.7373 C154.0546,387.7373 162.0546,379.7373 170.0546,379.7373 C174.0546,383.7373 177.0546,383.7373 181.0546,383.7373" fill="#90EE90" style="stroke:#000000;stroke-width:1;"/><text fill="#FFFFFF" font-family="Verdana" font-size="14" lengthAdjust="spacing" textLength="87.3291" x="137.39" y="422.8125">MasterPeer2</text></g><g class="entity" data-entity="GMN36" data-source-line="93" data-uid="ent0037" id="entity_GMN36"><path d="M270.39,58.7373 L270.39,99.2373 L235.08,103.2373 L270.39,107.2373 L270.39,147.7339 A0,0 0 0 0 270.39,147.7339 L663.4833,147.7339 A0,0 0 0 0 663.4833,147.7339 L663.4833,68.7373 L653.4833,58.7373 L270.39,58.7373 A0,0 0 0 0 270.39,58.7373" fill="#FFFFFF" style="stroke:#000000;stroke-width:1;"/><path d="M653.4833,58.7373 L653.4833,68.7373 L663.4833,68.7373 L653.4833,58.7373" fill="#FFFFFF" style="stroke:#000000;stroke-width:1;"/><text fill="#000000" font-family="Verdana" font-size="13" lengthAdjust="spacing" textLength="208" x="276.39" y="76.8071">PeerA connects to multiple Peer</text><text fill="#000000" font-family="Verdana" font-size="13" lengthAdjust="spacing" textLength="214.6079" x="276.39" y="92.6064">by RelayPeers or direct bridge to</text><text fill="#000000" font-family="Verdana" font-size="13" font-weight="bold" lengthAdjust="spacing" textLength="42.1357" x="495.5682" y="92.6064">PeerE</text><text fill="#000000" font-family="Verdana" font-size="13" lengthAdjust="spacing" textLength="88.8101" x="276.39" y="108.4058">To connect to</text><text fill="#000000" font-family="Verdana" font-size="13" font-weight="bold" lengthAdjust="spacing" textLength="44.0464" x="369.7704" y="108.4058">PeerD</text><text fill="#000000" font-family="Verdana" font-size="13" lengthAdjust="spacing" textLength="68.4785" x="418.3871" y="108.4058">is selected</text><text fill="#000000" font-family="Verdana" font-size="13" lengthAdjust="spacing" textLength="69.5767" x="276.39" y="124.2051">the fastest</text><text fill="#000000" font-family="Verdana" font-size="13" font-weight="bold" lengthAdjust="spacing" textLength="82.8877" x="350.537" y="124.2051">RelayPeer3</text><text fill="#000000" font-family="Verdana" font-size="13" lengthAdjust="spacing" textLength="24.9399" x="437.995" y="124.2051">vs (</text><text fill="#000000" font-family="Verdana" font-size="13" font-weight="bold" lengthAdjust="spacing" textLength="82.8877" x="462.9349" y="124.2051">RelayPeer2</text><text fill="#000000" font-family="Verdana" font-size="13" lengthAdjust="spacing" textLength="4.729" x="545.8226" y="124.2051">,</text><text fill="#000000" font-family="Verdana" font-size="13" font-weight="bold" lengthAdjust="spacing" textLength="82.8877" x="559.6922" y="124.2051">RelayPeer1</text><text fill="#000000" font-family="Verdana" font-size="13" lengthAdjust="spacing" textLength="5.9033" x="642.5799" y="124.2051">)</text><text fill="#000000" font-family="Verdana" font-size="13" lengthAdjust="spacing" textLength="49.9053" x="276.39" y="140.0044">set, get</text><text fill="#000000" font-family="Verdana" font-size="13" font-weight="bold" lengthAdjust="spacing" textLength="92.2314" x="330.8656" y="140.0044">MasterPeer1</text></g><g class="entity" data-entity="GMN39" data-source-line="101" data-uid="ent0040" id="entity_GMN39"><path d="M860.39,357.7373 L860.39,415.1353 A0,0 0 0 0 860.39,415.1353 L1019.2801,415.1353 A0,0 0 0 0 1019.2801,415.1353 L1019.2801,367.7373 L1009.2801,357.7373 L913.43,357.7373 L829.7,284.5873 L905.43,357.7373 L860.39,357.7373 A0,0 0 0 0 860.39,357.7373" fill="#FFFFFF" style="stroke:#000000;stroke-width:1;"/><path d="M1009.2801,357.7373 L1009.2801,367.7373 L1019.2801,367.7373 L1009.2801,357.7373" fill="#FFFFFF" style="stroke:#000000;stroke-width:1;"/><text fill="#000000" font-family="Verdana" font-size="13" lengthAdjust="spacing" textLength="124.7124" x="866.39" y="375.8071">RelayPeers provide</text><text fill="#000000" font-family="Verdana" font-size="13" lengthAdjust="spacing" textLength="137.8901" x="866.39" y="391.6064">signaling and routing</text><text fill="#000000" font-family="Verdana" font-size="13" lengthAdjust="spacing" textLength="115.6733" x="866.39" y="407.4058">services for peers</text></g><g class="entity" data-entity="GMN42" data-source-line="107" data-uid="ent0043" id="entity_GMN42"><path d="M331.39,357.7373 L331.39,415.1353 A0,0 0 0 0 331.39,415.1353 L486.827,415.1353 A0,0 0 0 0 486.827,415.1353 L486.827,390.2373 L592.86,386.2373 L486.827,382.2373 L486.827,367.7373 L476.827,357.7373 L331.39,357.7373 A0,0 0 0 0 331.39,357.7373" fill="#FFFFFF" style="stroke:#000000;stroke-width:1;"/><path d="M476.827,357.7373 L476.827,367.7373 L486.827,367.7373 L476.827,357.7373" fill="#FFFFFF" style="stroke:#000000;stroke-width:1;"/><text fill="#000000" font-family="Verdana" font-size="13" lengthAdjust="spacing" textLength="120.4912" x="337.39" y="375.8071">PeerB can connect</text><text fill="#000000" font-family="Verdana" font-size="13" lengthAdjust="spacing" textLength="109.1606" x="337.39" y="391.6064">directly to PeerD</text><text fill="#000000" font-family="Verdana" font-size="13" lengthAdjust="spacing" textLength="134.437" x="337.39" y="407.4058">bypassing RelayPeer</text></g><g class="entity" data-entity="GMN45" data-source-line="113" data-uid="ent0046" id="entity_GMN45"><path d="M698.39,74.7373 L698.39,132.1353 A0,0 0 0 0 698.39,132.1353 L847.6698,132.1353 A0,0 0 0 0 847.6698,132.1353 L847.6698,107.2373 L882.23,103.2373 L847.6698,99.2373 L847.6698,84.7373 L837.6698,74.7373 L698.39,74.7373 A0,0 0 0 0 698.39,74.7373" fill="#FFFFFF" style="stroke:#000000;stroke-width:1;"/><path d="M837.6698,74.7373 L837.6698,84.7373 L847.6698,84.7373 L837.6698,74.7373" fill="#FFFFFF" style="stroke:#000000;stroke-width:1;"/><text fill="#000000" font-family="Verdana" font-size="13" lengthAdjust="spacing" textLength="128.2798" x="704.39" y="92.8071">PeerClient connects</text><text fill="#000000" font-family="Verdana" font-size="13" lengthAdjust="spacing" textLength="96.6304" x="704.39" y="108.6064">via RelayPeer1</text><text fill="#000000" font-family="Verdana" font-size="13" lengthAdjust="spacing" textLength="95.3545" x="704.39" y="124.4058">direct to PeerF</text></g><g class="entity" data-entity="GMN48" data-source-line="119" data-uid="ent0049" id="entity_GMN48"><path d="M1054.89,373.2373 L1054.89,399.0366 A0,0 0 0 0 1054.89,399.0366 L1244.9217,399.0366 A0,0 0 0 0 1244.9217,399.0366 L1244.9217,383.2373 L1234.9217,373.2373 L1135.74,373.2373 L972.1,266.9973 L1127.74,373.2373 L1054.89,373.2373 A0,0 0 0 0 1054.89,373.2373" fill="#FFFFFF" style="stroke:#000000;stroke-width:1;"/><path d="M1234.9217,373.2373 L1234.9217,383.2373 L1244.9217,383.2373 L1234.9217,373.2373" fill="#FFFFFF" style="stroke:#000000;stroke-width:1;"/><text fill="#000000" font-family="Verdana" font-size="13" lengthAdjust="spacing" textLength="169.0317" x="1060.89" y="391.3071">PeerF is private local Peer</text></g><g class="entity" data-entity="GMN51" data-source-line="123" data-uid="ent0052" id="entity_GMN51"><path d="M402.39,496.7373 L402.39,554.1353 A0,0 0 0 0 402.39,554.1353 L557.827,554.1353 A0,0 0 0 0 557.827,554.1353 L557.827,529.2373 L592.69,525.2373 L557.827,521.2373 L557.827,506.7373 L547.827,496.7373 L402.39,496.7373 A0,0 0 0 0 402.39,496.7373" fill="#FFFFFF" style="stroke:#000000;stroke-width:1;"/><path d="M547.827,496.7373 L547.827,506.7373 L557.827,506.7373 L547.827,496.7373" fill="#FFFFFF" style="stroke:#000000;stroke-width:1;"/><text fill="#000000" font-family="Verdana" font-size="13" lengthAdjust="spacing" textLength="131.168" x="408.39" y="514.8071">To connect to PeerB</text><text fill="#000000" font-family="Verdana" font-size="13" lengthAdjust="spacing" textLength="109.1606" x="408.39" y="530.6064">directly to PeerD</text><text fill="#000000" font-family="Verdana" font-size="13" lengthAdjust="spacing" textLength="134.437" x="408.39" y="546.4058">bypassing RelayPeer</text></g><!--link PA to MP1--><g class="link" data-entity-1="PA" data-entity-2="MP1" data-source-line="52" data-uid="lnk14" id="link_PA_MP1"><path d="M178.8,120.9973 C157.11,140.2873 130.61,173.6973 117.89,207.7373 C62.35,356.3673 11,447.4773 117.89,564.7373 C178.72,631.4673 460.1397,654.6269 571.3497,660.9469" fill="none" id="PA-to-MP1" style="stroke:#FFB6C1;stroke-width:1;stroke-dasharray:7.0,7.0;"/><polygon fill="#FFB6C1" points="577.34,661.2873,568.5814,656.7831,572.3481,661.0036,568.1275,664.7702,577.34,661.2873" style="stroke:#FFB6C1;stroke-width:1;"/></g><!--link MP1 to PA--><g class="link" data-entity-1="MP1" data-entity-2="PA" data-source-line="53" data-uid="lnk15" id="link_MP1_PA"><path d="M577.07,660.1473 C471.61,652.3873 210.53,627.9673 152.89,564.7373 C46,447.4773 97.35,356.3673 152.89,207.7373 C161.63,184.3673 173.4676,166.2262 186.0876,147.8162" fill="none" id="MP1-to-PA" style="stroke:#FFB6C1;stroke-width:1;stroke-dasharray:7.0,7.0;"/><polygon fill="#FFB6C1" points="189.48,142.8673,181.0921,148.029,186.653,146.9914,187.6906,152.5522,189.48,142.8673" style="stroke:#FFB6C1;stroke-width:1;"/></g><!--link PE to MP2--><g class="link" data-entity-1="PE" data-entity-2="MP2" data-source-line="55" data-uid="lnk16" id="link_PE_MP2"><path d="M169.3,286.7673 C167.76,305.4373 167.2739,321.847 168.7939,340.547" fill="none" id="PE-to-MP2" style="stroke:#87CEEB;stroke-width:1;stroke-dasharray:7.0,7.0;"/><polygon fill="#87CEEB" points="169.28,346.5273,172.5377,337.2328,168.8749,341.5437,164.564,337.881,169.28,346.5273" style="stroke:#87CEEB;stroke-width:1;"/></g><!--link MP2 to PE--><g class="link" data-entity-1="MP2" data-entity-2="PE" data-source-line="56" data-uid="lnk17" id="link_MP2_PE"><path d="M193.19,346.5273 C194.8,327.8273 195.3087,311.4148 193.6887,292.7448" fill="none" id="MP2-to-PE" style="stroke:#87CEEB;stroke-width:1;stroke-dasharray:7.0,7.0;"/><polygon fill="#87CEEB" points="193.17,286.7673,189.963,296.0794,193.6022,291.7486,197.933,295.3878,193.17,286.7673" style="stroke:#87CEEB;stroke-width:1;"/></g><!--link PC to MP2--><g class="link" data-entity-1="PC" data-entity-2="MP2" data-source-line="58" data-uid="lnk18" id="link_PC_MP2"><path d="M193.19,485.5273 C194.8,466.8273 195.3087,450.4148 193.6887,431.7448" fill="none" id="PC-to-MP2" style="stroke:#FFA07A;stroke-width:1;stroke-dasharray:7.0,7.0;"/><polygon fill="#FFA07A" points="193.17,425.7673,189.963,435.0794,193.6022,430.7486,197.933,434.3878,193.17,425.7673" style="stroke:#FFA07A;stroke-width:1;"/></g><!--link MP2 to PC--><g class="link" data-entity-1="MP2" data-entity-2="PC" data-source-line="59" data-uid="lnk19" id="link_MP2_PC"><path d="M169.3,425.7673 C167.76,444.4373 167.2739,460.847 168.7939,479.547" fill="none" id="MP2-to-PC" style="stroke:#FFA07A;stroke-width:1;stroke-dasharray:7.0,7.0;"/><polygon fill="#FFA07A" points="169.28,485.5273,172.5377,476.2328,168.8749,480.5437,164.564,476.881,169.28,485.5273" style="stroke:#FFA07A;stroke-width:1;"/></g><!--link PD to MP1--><g class="link" data-entity-1="PD" data-entity-2="MP1" data-source-line="61" data-uid="lnk20" id="link_PD_MP1"><path d="M609.3,564.7673 C607.76,583.4373 607.2739,599.847 608.7939,618.547" fill="none" id="PD-to-MP1" style="stroke:#FFB6C1;stroke-width:1;stroke-dasharray:7.0,7.0;"/><polygon fill="#FFB6C1" points="609.28,624.5273,612.5377,615.2328,608.8749,619.5437,604.564,615.881,609.28,624.5273" style="stroke:#FFB6C1;stroke-width:1;"/></g><!--link MP1 to PD--><g class="link" data-entity-1="MP1" data-entity-2="PD" data-source-line="62" data-uid="lnk21" id="link_MP1_PD"><path d="M633.19,624.5273 C634.8,605.8273 635.3087,589.4148 633.6887,570.7448" fill="none" id="MP1-to-PD" style="stroke:#FFB6C1;stroke-width:1;stroke-dasharray:7.0,7.0;"/><polygon fill="#FFB6C1" points="633.17,564.7673,629.963,574.0794,633.6022,569.7486,637.933,573.3878,633.17,564.7673" style="stroke:#FFB6C1;stroke-width:1;"/></g><!--link RP1 to MP1--><g class="link" data-entity-1="RP1" data-entity-2="MP1" data-source-line="64" data-uid="lnk22" id="link_RP1_MP1"><path d="M764.65,287.0073 C736.05,346.9473 690.93,465.5773 648.89,564.7373 C640.45,584.6473 632.6447,600.9261 625.7947,619.0161" fill="none" id="RP1-to-MP1" style="stroke:#FFFFDD;stroke-width:1;stroke-dasharray:7.0,7.0;"/><polygon fill="#FFFFDD" points="623.67,624.6273,630.5979,617.627,625.4406,619.9513,623.1163,614.794,623.67,624.6273" style="stroke:#FFFFDD;stroke-width:1;"/></g><!--link MP1 to RP1--><g class="link" data-entity-1="MP1" data-entity-2="RP1" data-source-line="65" data-uid="lnk23" id="link_MP1_RP1"><path d="M655.5,624.6273 C665.52,606.5373 675.45,584.6473 683.89,564.7373 C725.93,465.5773 769.5098,352.7463 785.4298,292.8063" fill="none" id="MP1-to-RP1" style="stroke:#FFFFDD;stroke-width:1;stroke-dasharray:7.0,7.0;"/><polygon fill="#FFFFDD" points="786.97,287.0073,780.7937,294.6789,785.6865,291.8398,788.5257,296.7325,786.97,287.0073" style="stroke:#FFFFDD;stroke-width:1;"/></g><!--link PA to RP1--><g class="link" data-entity-1="PA" data-entity-2="RP1" data-source-line="68" data-uid="lnk24" id="link_PA_RP1"><path d="M235.1,135.6073 C240.59,140.2773 246.61,144.5773 252.89,147.7373 C390.38,216.8573 442.61,179.5773 593.89,207.7373 C648.1,217.8273 704.6975,229.0555 744.2675,237.0055" fill="none" id="PA-to-RP1" style="stroke:#FFB6C1;stroke-width:1;"/><polygon fill="#FFB6C1" points="750.15,238.1873,742.1142,232.4929,745.248,237.2024,740.5384,240.3362,750.15,238.1873" style="stroke:#FFB6C1;stroke-width:1;"/></g><!--link PA to PE--><g class="link" data-entity-1="PA" data-entity-2="PE" data-source-line="69" data-uid="lnk25" id="link_PA_PE"><path d="M199.79,143.0373 C196.12,163.0773 192.7419,181.5556 189.0719,201.5756" fill="none" id="PA-to-PE" style="stroke:#FFB6C1;stroke-width:1;"/><polygon fill="#FFB6C1" points="187.99,207.4773,193.5472,199.3461,188.8916,202.5593,185.6784,197.9036,187.99,207.4773" style="stroke:#FFB6C1;stroke-width:1;"/></g><!--link PA to RP2--><g class="link" data-entity-1="PA" data-entity-2="RP2" data-source-line="70" data-uid="lnk26" id="link_PA_RP2"><path d="M227.93,143.0373 C238.8,163.0773 249.1591,182.1833 260.0191,202.2033" fill="none" id="PA-to-RP2" style="stroke:#FFB6C1;stroke-width:1;"/><polygon fill="#FFB6C1" points="262.88,207.4773,262.1046,197.659,260.4959,203.0823,255.0726,201.4736,262.88,207.4773" style="stroke:#FFB6C1;stroke-width:1;"/></g><!--link PA to RP3--><g class="link" data-entity-1="PA" data-entity-2="RP3" data-source-line="71" data-uid="lnk27" id="link_PA_RP3"><path d="M235.05,134.3373 C240.63,139.2573 246.69,143.9773 252.89,147.7373 C332.74,196.2173 433.9285,223.7306 491.0885,236.6906" fill="none" id="PA-to-RP3" style="stroke:#FFB6C1;stroke-width:1;"/><polygon fill="#FFB6C1" points="496.94,238.0173,489.0473,232.1262,492.0638,236.9117,487.2783,239.9282,496.94,238.0173" style="stroke:#FFB6C1;stroke-width:1;"/></g><!--link RP1 to PB--><g class="link" data-entity-1="RP1" data-entity-2="PB" data-source-line="74" data-uid="lnk28" id="link_RP1_PB"><path d="M750.27,280.3573 C719.15,305.5873 681.2403,336.3082 653.5803,358.7382" fill="none" id="RP1-to-PB" style="stroke:#FFFFDD;stroke-width:1;"/><polygon fill="#FFFFDD" points="648.92,362.5173,658.4298,359.9555,652.8036,359.368,653.391,353.7418,648.92,362.5173" style="stroke:#FFFFDD;stroke-width:1;"/></g><!--link RP2 to PB--><g class="link" data-entity-1="RP2" data-entity-2="PB" data-source-line="75" data-uid="lnk29" id="link_RP2_PB"><path d="M323.54,264.3573 C392.44,292.3673 527.0818,347.0975 587.0718,371.4875" fill="none" id="RP2-to-PB" style="stroke:#FFFFDD;stroke-width:1;"/><polygon fill="#FFFFDD" points="592.63,373.7473,585.7992,366.6522,587.9982,371.8642,582.7862,374.0631,592.63,373.7473" style="stroke:#FFFFDD;stroke-width:1;"/></g><!--link RP1 to PC--><g class="link" data-entity-1="RP1" data-entity-2="PC" data-source-line="78" data-uid="lnk30" id="link_RP1_PC"><path d="M750.03,260.9473 C704.79,276.5773 630.13,306.1173 574.89,346.7373 C536.86,374.7073 543.7,400.3673 503.89,425.7373 C406.49,487.7973 273.6629,511.8514 214.8729,520.0214" fill="none" id="RP1-to-PC" style="stroke:#FFFFDD;stroke-width:1;"/><polygon fill="#FFFFDD" points="208.93,520.8473,218.3949,523.5704,213.8824,520.1591,217.2937,515.6466,208.93,520.8473" style="stroke:#FFFFDD;stroke-width:1;"/></g><!--link RP2 to PD--><g class="link" data-entity-1="RP2" data-entity-2="PD" data-source-line="82" data-uid="lnk31" id="link_RP2_PD"><path d="M279.06,286.8173 C276.34,326.8473 278.94,388.6773 313.89,425.7373 C395.56,512.3273 468.31,432.7473 574.89,485.7373 C581.05,488.7973 582.3447,489.1655 587.9147,493.4755" fill="none" id="RP2-to-PD" style="stroke:#FFFFDD;stroke-width:1;"/><polygon fill="#FFFFDD" points="592.66,497.1473,587.99,488.476,588.7056,494.0874,583.0942,494.8031,592.66,497.1473" style="stroke:#FFFFDD;stroke-width:1;"/></g><!--link RP3 to PD--><g class="link" data-entity-1="RP3" data-entity-2="PD" data-source-line="83" data-uid="lnk32" id="link_RP3_PD"><path d="M576.53,266.0773 C607.18,282.2773 647.4,309.3573 665.89,346.7373 C688.09,391.6173 668.8233,443.1955 648.4933,480.2955" fill="none" id="RP3-to-PD" style="stroke:#FFFFDD;stroke-width:1;"/><polygon fill="#FFFFDD" points="645.61,485.5573,653.4429,479.5869,648.0128,481.1725,646.4272,475.7424,645.61,485.5573" style="stroke:#FFFFDD;stroke-width:1;"/></g><!--link PB to PD--><g class="link" data-entity-1="PB" data-entity-2="PD" data-source-line="86" data-uid="lnk33" id="link_PB_PD"><path d="M620.89,425.7673 C620.89,444.4373 620.89,460.8273 620.89,479.5273" fill="none" id="PB-to-PD" style="stroke:#87CEEB;stroke-width:1;"/><polygon fill="#87CEEB" points="620.89,485.5273,624.89,476.5273,620.89,480.5273,616.89,476.5273,620.89,485.5273" style="stroke:#87CEEB;stroke-width:1;"/></g><!--link PCL to RP1--><g class="link" data-entity-1="PCL" data-entity-2="RP1" data-source-line="89" data-uid="lnk34" id="link_PCL_RP1"><path d="M882.92,143.0373 C864.86,163.0773 846.8977,183.0011 828.8477,203.0211" fill="none" id="PCL-to-RP1" style="stroke:#FFA07A;stroke-width:1;"/><polygon fill="#FFA07A" points="824.83,207.4773,833.8274,203.4715,828.1781,203.7638,827.8858,198.1145,824.83,207.4773" style="stroke:#FFA07A;stroke-width:1;"/></g><!--link PCL to PF--><g class="link" data-entity-1="PCL" data-entity-2="PF" data-source-line="90" data-uid="lnk35" id="link_PCL_PF"><path d="M925,143.0373 C928.67,163.0773 932.0481,181.5556 935.7181,201.5756" fill="none" id="PCL-to-PF" style="stroke:#FFA07A;stroke-width:1;"/><polygon fill="#FFA07A" points="936.8,207.4773,939.1116,197.9036,935.8984,202.5593,931.2428,199.3461,936.8,207.4773" style="stroke:#FFA07A;stroke-width:1;"/></g><!--SRC=[dLRRRjD047ttLqm34c2rA74aIXz0yXKXfQr9yu8GgZRs9btLyLhsDbM4-7TcRCTUEquA-77FcJCpP_RYC_N0DnooX8dKCDx0bqGkMG8non-XWWgkb4ZNXL4yYZHZETl0aaMFwrm-fR4h4vd3gt7vQOoOhzXJeWAPgfeIb1-bk94ALJCUYPM8XkHJ8lmo03-ddwcMAJ6PnpplLa3hMj9wzJUbjIE5IwVoCcBSgLt2WJtpGcvu7wohkbCyvrBjCdxOOA-2UhMie5mgo1kH2YLaQfoz3dr_Vc_VkxUpspbyWX46E1_SoMWFEHhqyTBrVQU1tEEGTnpoZqE11ldbHz3SdzdVxwkCMfL1u7bjAREl_isYWzlZIvlmQ_jkWOnU_DNOzw_68yDGGg7TVlZDWHkkdYLkkuNCqAZrhXbQOHYL-wEGyzmU0IiWjA7ZdSvmAeO37GjrXbinNEWugJEyYk51nr2TuLSC7pg-weoWOWJGiRTJHo9ugkfYPd1ePjFvd2TiHo6JaZqF9t0mcGEkLNEjl-1EQ-vqWBidNxC2TtvRnJLLSJ3WGxPLiwqXjc7WB2z-TARvy_rd4ZSemG0KsXZaDuYl1ra6vHc0GX-3t0RHNHwAxEEXY-7UlnRg6SQyWlgczYA7O8oaCr1kUeXaclA8Req2b8GDtguYmwFJ3B0Oyl6YKXb6q95Z8TPHP4ebjKdxTPNdxsZFb9HGwmJwehnxKXx7zAA2Tx84GgSdK9JtH8wIcdJLTwkFby_UFQSVt1vyuZUL6dG33Ew-_H1Fu26-hEMpcOlrWmAveZC2tQtJtJTbIe3bJlSAZsrSjRRCHRpc566QvMrdciXUoBrOYtYc2QB0zpJ1PHuZ2_yRO4M7lr38QMyO96uBUAijMQPv3ZfdOfhlK04VvtDOSmhNxXmiWQTn-NjGTxkKIiaDjKi6WTvAbikjY3c9YNNA4dphWM4q_apGkrycoRSYuWMiiEsiF44z-OIlAY-Tsai78fRkBS2rognarmwU7CrOKL2wThJ7TDrPBLplX_saS7KhM2imQNBjCmN7hGY3MZIWkMIvs3BAAIFyhpjPZNSmuUeq_qUVVm00]--></g></svg>