<svg xmlns="http://www.w3.org/2000/svg" xmlns:xlink="http://www.w3.org/1999/xlink" contentStyleType="text/css" data-diagram-type="SEQUENCE" height="786px" preserveAspectRatio="none" style="width:786px;height:786px;background:#000000;" version="1.1" viewBox="0 0 786 786" width="786px" zoomAndPan="magnify"><title>PeerA set_peer to MasterPeer</title><defs/><g><text fill="#FFFFFF" font-family="Verdana" font-size="22" font-weight="bold" lengthAdjust="spacing" textLength="370.3477" x="206.564" y="37.1182">PeerA set_peer to MasterPeer</text><g><title>MasterPeer</title><rect fill="#90EE90" height="362.3911" style="stroke:#FFFFFF;stroke-width:1;" width="10" x="480.3579" y="270.5479"/></g><g><title>CertDB</title><rect fill="#FFFFFF" height="112.9966" style="stroke:#FFFFFF;stroke-width:1;" width="10" x="658.8315" y="446.3438"/></g><g><title>PeerA</title><rect fill="#000000" fill-opacity="0.00000" height="570.7856" width="8" x="203" y="131.752"/><line style="stroke:#FFFFFF;stroke-width:1;" x1="207" x2="207" y1="131.752" y2="702.5376"/></g><g><title>MasterPeer</title><rect fill="#000000" fill-opacity="0.00000" height="570.7856" width="8" x="481.3579" y="131.752"/><line style="stroke:#FFFFFF;stroke-width:1;" x1="485.1436" x2="485.1436" y1="131.752" y2="702.5376"/></g><g><title>CertDB</title><rect fill="#000000" fill-opacity="0.00000" height="570.7856" width="8" x="659.8315" y="131.752"/><line style="stroke:#FFFFFF;stroke-width:1;" x1="662.8359" x2="662.8359" y1="131.752" y2="702.5376"/></g><g class="participant participant-head" data-participant="PA"><text fill="#FFFFFF" font-family="Verdana" font-size="14" lengthAdjust="spacing" textLength="40.667" x="183.6665" y="128.8125">PeerA</text><ellipse cx="207" cy="69.7373" fill="#87CEEB" rx="16" ry="16" style="stroke:#000000;stroke-width:1;"/><path d="M207,89.7373 C211,89.7373 214,89.7373 218,85.7373 C226,85.7373 234,93.7373 234,101.7373 L234,105.7373 C234,109.7373 230,113.7373 226,113.7373 L188,113.7373 C184,113.7373 180,109.7373 180,105.7373 L180,101.7373 C180,93.7373 188,85.7373 196,85.7373 C200,89.7373 203,89.7373 207,89.7373" fill="#87CEEB" style="stroke:#000000;stroke-width:1;"/></g><g class="participant participant-tail" data-participant="PA"><text fill="#FFFFFF" font-family="Verdana" font-size="14" lengthAdjust="spacing" textLength="40.667" x="183.6665" y="715.6128">PeerA</text><ellipse cx="207" cy="735.5522" fill="#87CEEB" rx="16" ry="16" style="stroke:#000000;stroke-width:1;"/><path d="M207,755.5522 C211,755.5522 214,755.5522 218,751.5522 C226,751.5522 234,759.5522 234,767.5522 L234,771.5522 C234,775.5522 230,779.5522 226,779.5522 L188,779.5522 C184,779.5522 180,775.5522 180,771.5522 L180,767.5522 C180,759.5522 188,751.5522 196,751.5522 C200,755.5522 203,755.5522 207,755.5522" fill="#87CEEB" style="stroke:#000000;stroke-width:1;"/></g><g class="participant participant-head" data-participant="MP"><text fill="#FFFFFF" font-family="Verdana" font-size="14" lengthAdjust="spacing" textLength="78.4287" x="443.1436" y="128.8125">MasterPeer</text><ellipse cx="485.3579" cy="69.7373" fill="#90EE90" rx="16" ry="16" style="stroke:#000000;stroke-width:1;"/><path d="M485.3579,89.7373 C489.3579,89.7373 492.3579,89.7373 496.3579,85.7373 C504.3579,85.7373 512.3579,93.7373 512.3579,101.7373 L512.3579,105.7373 C512.3579,109.7373 508.3579,113.7373 504.3579,113.7373 L466.3579,113.7373 C462.3579,113.7373 458.3579,109.7373 458.3579,105.7373 L458.3579,101.7373 C458.3579,93.7373 466.3579,85.7373 474.3579,85.7373 C478.3579,89.7373 481.3579,89.7373 485.3579,89.7373" fill="#90EE90" style="stroke:#000000;stroke-width:1;"/></g><g class="participant participant-tail" data-participant="MP"><text fill="#FFFFFF" font-family="Verdana" font-size="14" lengthAdjust="spacing" textLength="78.4287" x="443.1436" y="715.6128">MasterPeer</text><ellipse cx="485.3579" cy="735.5522" fill="#90EE90" rx="16" ry="16" style="stroke:#000000;stroke-width:1;"/><path d="M485.3579,755.5522 C489.3579,755.5522 492.3579,755.5522 496.3579,751.5522 C504.3579,751.5522 512.3579,759.5522 512.3579,767.5522 L512.3579,771.5522 C512.3579,775.5522 508.3579,779.5522 504.3579,779.5522 L466.3579,779.5522 C462.3579,779.5522 458.3579,775.5522 458.3579,771.5522 L458.3579,767.5522 C458.3579,759.5522 466.3579,751.5522 474.3579,751.5522 C478.3579,755.5522 481.3579,755.5522 485.3579,755.5522" fill="#90EE90" style="stroke:#000000;stroke-width:1;"/></g><g class="participant participant-head" data-participant="DB"><text fill="#FFFFFF" font-family="Verdana" font-size="14" lengthAdjust="spacing" textLength="49.9912" x="635.8359" y="128.8125">CertDB</text><path d="M645.8315,78.7373 C645.8315,68.7373 663.8315,68.7373 663.8315,68.7373 C663.8315,68.7373 681.8315,68.7373 681.8315,78.7373 L681.8315,104.7373 C681.8315,114.7373 663.8315,114.7373 663.8315,114.7373 C663.8315,114.7373 645.8315,114.7373 645.8315,104.7373 L645.8315,78.7373" fill="#FBFF00" style="stroke:#000000;stroke-width:1.5;"/><path d="M645.8315,78.7373 C645.8315,88.7373 663.8315,88.7373 663.8315,88.7373 C663.8315,88.7373 681.8315,88.7373 681.8315,78.7373" fill="none" style="stroke:#000000;stroke-width:1.5;"/></g><g class="participant participant-tail" data-participant="DB"><text fill="#FFFFFF" font-family="Verdana" font-size="14" lengthAdjust="spacing" textLength="49.9912" x="635.8359" y="715.6128">CertDB</text><path d="M645.8315,728.5522 C645.8315,718.5522 663.8315,718.5522 663.8315,718.5522 C663.8315,718.5522 681.8315,718.5522 681.8315,728.5522 L681.8315,754.5522 C681.8315,764.5522 663.8315,764.5522 663.8315,764.5522 C663.8315,764.5522 645.8315,764.5522 645.8315,754.5522 L645.8315,728.5522" fill="#FBFF00" style="stroke:#000000;stroke-width:1.5;"/><path d="M645.8315,728.5522 C645.8315,738.5522 663.8315,738.5522 663.8315,738.5522 C663.8315,738.5522 681.8315,738.5522 681.8315,728.5522" fill="none" style="stroke:#000000;stroke-width:1.5;"/></g><g><title>MasterPeer</title><rect fill="#90EE90" height="362.3911" style="stroke:#FFFFFF;stroke-width:1;" width="10" x="480.3579" y="270.5479"/></g><g><title>CertDB</title><rect fill="#FFFFFF" height="112.9966" style="stroke:#FFFFFF;stroke-width:1;" width="10" x="658.8315" y="446.3438"/></g><rect fill="#000000" height="3" style="stroke:#000000;stroke-width:1;" width="774.4756" x="5" y="162.6516"/><line style="stroke:#FFFFFF;stroke-width:0.5;" x1="5" x2="779.4756" y1="162.6516" y2="162.6516"/><line style="stroke:#FFFFFF;stroke-width:0.5;" x1="5" x2="779.4756" y1="165.6516" y2="165.6516"/><rect fill="#000000" height="23.7993" style="stroke:#FFFFFF;stroke-width:1;" width="132.1045" x="326.1855" y="151.752"/><text fill="#FFFFFF" font-family="Verdana" font-size="13" font-weight="bold" lengthAdjust="spacing" textLength="113.6611" x="332.1855" y="168.8218">PK Registration</text><g class="message" data-participant-1="PA" data-participant-2="MP"><polygon fill="#87CEEB" points="468.3579,266.5479,478.3579,270.5479,468.3579,274.5479,472.3579,270.5479" style="stroke:#87CEEB;stroke-width:1;"/><line style="stroke:#87CEEB;stroke-width:1;" x1="207" x2="474.3579" y1="270.5479" y2="270.5479"/><text fill="#FFFFFF" font-family="Verdana" font-size="13" font-weight="bold" lengthAdjust="spacing" textLength="9.2422" x="214" y="234.2197">1</text><text fill="#FFFFFF" font-family="Verdana" font-size="13" lengthAdjust="spacing" textLength="241.1157" x="227.2422" y="202.6211">EApiEvent(EPeerPublic,Dilitium Sign)</text><text fill="#FFFFFF" font-family="Verdana" font-size="13" lengthAdjust="spacing" textLength="4.5703" x="227.2422" y="218.4204">&#160;</text><text fill="#FFFFFF" font-family="Verdana" font-size="13" lengthAdjust="spacing" textLength="66.9868" x="227.2422" y="234.2197">Ake Kyber</text><text fill="#FFFFFF" font-family="Verdana" font-size="13" lengthAdjust="spacing" textLength="89.7432" x="227.2422" y="250.019">Dilithium sign</text><text fill="#FFFFFF" font-family="Verdana" font-size="13" lengthAdjust="spacing" textLength="170.5107" x="227.2422" y="265.8184">ChaCha20-Poly1305 crypt</text></g><path d="M495,283.5479 L495,340.5479 L665,340.5479 L665,293.5479 L655,283.5479 L495,283.5479" fill="#FFFFFF" style="stroke:#000000;stroke-width:1;"/><path d="M655,283.5479 L655,293.5479 L665,293.5479 L655,283.5479" fill="#FFFFFF" style="stroke:#000000;stroke-width:1;"/><text fill="#000000" font-family="Verdana" font-size="13" lengthAdjust="spacing" textLength="84.2588" x="501" y="301.6177">1. Use Kyber</text><text fill="#000000" font-family="Verdana" font-size="13" lengthAdjust="spacing" textLength="149.8872" x="501" y="317.417">2. Verify sign Dilithium</text><text fill="#000000" font-family="Verdana" font-size="13" lengthAdjust="spacing" textLength="130.7427" x="501" y="333.2163">3.Verify EPeerPublic</text><g class="message" data-participant-1="MP" data-participant-2="MP"><line style="stroke:#90EE90;stroke-width:1;" x1="490.3579" x2="532.3579" y1="367.7451" y2="367.7451"/><line style="stroke:#90EE90;stroke-width:1;" x1="532.3579" x2="532.3579" y1="367.7451" y2="380.7451"/><line style="stroke:#90EE90;stroke-width:1;" x1="491.3579" x2="532.3579" y1="380.7451" y2="380.7451"/><polygon fill="#90EE90" points="501.3579,376.7451,491.3579,380.7451,501.3579,384.7451,497.3579,380.7451" style="stroke:#90EE90;stroke-width:1;"/><text fill="#FFFFFF" font-family="Verdana" font-size="13" font-weight="bold" lengthAdjust="spacing" textLength="9.2422" x="497.3579" y="363.0156">2</text><text fill="#FFFFFF" font-family="Verdana" font-size="13" lengthAdjust="spacing" textLength="131.2314" x="510.6001" y="363.0156">Generate Certificate</text></g><path d="M183,393.7451 L183,418.7451 L475,418.7451 L475,403.7451 L465,393.7451 L183,393.7451" fill="#FFFFFF" style="stroke:#000000;stroke-width:1;"/><path d="M465,393.7451 L465,403.7451 L475,403.7451 L465,393.7451" fill="#FFFFFF" style="stroke:#000000;stroke-width:1;"/><text fill="#000000" font-family="Verdana" font-size="13" lengthAdjust="spacing" textLength="271.2925" x="189" y="411.8149">Master Dilithium Signature of ECertificate</text><g class="message" data-participant-1="MP" data-participant-2="DB"><polygon fill="#90EE90" points="646.8315,442.3438,656.8315,446.3438,646.8315,450.3438,650.8315,446.3438" style="stroke:#90EE90;stroke-width:1;"/><line style="stroke:#90EE90;stroke-width:1;" x1="490.3579" x2="652.8315" y1="446.3438" y2="446.3438"/><text fill="#FFFFFF" font-family="Verdana" font-size="13" font-weight="bold" lengthAdjust="spacing" textLength="9.2422" x="497.3579" y="441.6143">3</text><text fill="#FFFFFF" font-family="Verdana" font-size="13" lengthAdjust="spacing" textLength="116.4287" x="510.6001" y="441.6143">Store(ID_A, Cert)</text></g><path d="M673,459.3438 L673,532.3438 L774,532.3438 L774,469.3438 L764,459.3438 L673,459.3438" fill="#FFFFFF" style="stroke:#000000;stroke-width:1;"/><path d="M764,459.3438 L764,469.3438 L774,469.3438 L764,459.3438" fill="#FFFFFF" style="stroke:#000000;stroke-width:1;"/><text fill="#000000" font-family="Verdana" font-size="13" lengthAdjust="spacing" textLength="67.1011" x="679" y="477.4136">Structure:</text><text fill="#000000" font-family="Verdana" font-size="13" lengthAdjust="spacing" textLength="77.562" x="679" y="493.2129">- Public Key</text><text fill="#000000" font-family="Verdana" font-size="13" lengthAdjust="spacing" textLength="70.9414" x="679" y="509.0122">- Metadata</text><text fill="#000000" font-family="Verdana" font-size="13" lengthAdjust="spacing" textLength="80.4756" x="679" y="524.8115">- Signatures</text><g class="message" data-participant-1="DB" data-participant-2="MP"><polygon fill="#FFFFFF" points="501.3579,555.3403,491.3579,559.3403,501.3579,563.3403,497.3579,559.3403" style="stroke:#FFFFFF;stroke-width:1;"/><line style="stroke:#FFFFFF;stroke-width:1;stroke-dasharray:2.0,2.0;" x1="495.3579" x2="662.8315" y1="559.3403" y2="559.3403"/><text fill="#FFFFFF" font-family="Verdana" font-size="13" font-weight="bold" lengthAdjust="spacing" textLength="9.2422" x="507.3579" y="554.6108">4</text><text fill="#FFFFFF" font-family="Verdana" font-size="13" lengthAdjust="spacing" textLength="82.6401" x="520.6001" y="554.6108">Storage ACK</text></g><rect fill="#000000" height="3" style="stroke:#000000;stroke-width:1;" width="774.4756" x="5" y="588.24"/><line style="stroke:#FFFFFF;stroke-width:0.5;" x1="5" x2="779.4756" y1="588.24" y2="588.24"/><line style="stroke:#FFFFFF;stroke-width:0.5;" x1="5" x2="779.4756" y1="591.24" y2="591.24"/><rect fill="#000000" height="23.7993" style="stroke:#FFFFFF;stroke-width:1;" width="158.8916" x="312.792" y="577.3403"/><text fill="#FFFFFF" font-family="Verdana" font-size="13" font-weight="bold" lengthAdjust="spacing" textLength="140.4482" x="318.792" y="594.4102">Certificate Delivery</text><g class="message" data-participant-1="MP" data-participant-2="PA"><polygon fill="#90EE90" points="218,628.939,208,632.939,218,636.939,214,632.939" style="stroke:#90EE90;stroke-width:1;"/><line style="stroke:#90EE90;stroke-width:1;" x1="212" x2="484.3579" y1="632.939" y2="632.939"/><text fill="#FFFFFF" font-family="Verdana" font-size="13" font-weight="bold" lengthAdjust="spacing" textLength="9.2422" x="224" y="628.2095">5</text><text fill="#FFFFFF" font-family="Verdana" font-size="13" lengthAdjust="spacing" textLength="85.8267" x="237.2422" y="628.2095">Cert Package</text></g><path d="M10,645.939 L10,686.939 L202,686.939 L202,655.939 L192,645.939 L10,645.939" fill="#FFFFFF" style="stroke:#000000;stroke-width:1;"/><path d="M192,645.939 L192,655.939 L202,655.939 L192,645.939" fill="#FFFFFF" style="stroke:#000000;stroke-width:1;"/><text fill="#000000" font-family="Verdana" font-size="13" lengthAdjust="spacing" textLength="171.8945" x="16" y="664.0088">1. Verify Master Signature</text><text fill="#000000" font-family="Verdana" font-size="13" lengthAdjust="spacing" textLength="113.5088" x="16" y="679.8081">2. Store Securely</text><!--SRC=[VLHXRzem4FtkNt6bazPAfQAjfgr8J0gGLXDbZM2RL8q9cN01Ys1dZiCKJVllEpifcBPWyS7SEzzxxtpEYLdY6Y5BkP2ClOVxLCru2dEkLr11EHeZv29d-Kh8Z6k-XXcFLmkj2ZdlgLHfE6svvMNCCU55QkwKD7NAdLkMugioL3N3M2GYVgkyj0b_6T3glcIgopXCwJdgVGKsxf7MqN-MDeWDXOxnSfinDcMAmFzWhjRu4gnLZGrgLARCyBN15mhgg5Cmnjy5ofZC4mTnUzNpPwWYU109FWY9UnOzWYr-u29iJiIr4R78k3I7olJ5HX1mhCfpol4A1moxK6w7GKXXX9Biv5qKXgDfCEqzFZoEe0EDqqyVUs7ORH0q3CRV27GPE_os5OQtBOU7myVHamSbioHfEMZyH4U77bJ9Q5WLNYDoLbrZ8qBKGGDu3b40UvgUCuOyfrksUIvj6C5hVMpE3P_n7A7HGstwNPVQxyAULCQCC3HJZjFEtJIZ7HW5Emx6U66KBDOpk-zq81h021SYDvhRna6dmqXfy-UUrb-VILSRmY0JuGQbEGjjhQYOfIA-w8kKUbwiOImMydmY9p9O8GnAOfX81oujcXCwaRqbfzzrgncfjBowQNs0M9UPiSqG6qxFyMt_xgLgiLWQ9-Jg4hxdMuxhI_Y1MYIbuu0jvKJUNDQ0fvSneY1_hqXga_SeKLibjjFs1TE-uayngUYhTkw8d7Dk2esW4WZzWqV8-jqsFN2byUnBVnfSEBxpNIFixVhJvlUWEggBs7As9x89bJSOO6d_3T5mEp9slzMMCohP935-rTgqrS4N245lmEReQN0puXc2FgPYWxgqWtBOMnIqtIbw4_6A2diDjD3LziRgLcv5kjjqNQ6lM4o1jFG53IFs7m00]--></g></svg>