<svg xmlns="http://www.w3.org/2000/svg" xmlns:xlink="http://www.w3.org/1999/xlink" contentStyleType="text/css" data-diagram-type="SEQUENCE" height="734px" preserveAspectRatio="none" style="width:755px;height:734px;background:#000000;" version="1.1" viewBox="0 0 755 734" width="755px" zoomAndPan="magnify"><title>VIP6: Local Peer to Production Peer</title><defs/><g><text fill="#FFFFFF" font-family="Verdana" font-size="22" font-weight="bold" lengthAdjust="spacing" textLength="443.4697" x="154.2969" y="37.1182">VIP6: Local Peer to Production Peer</text><g><title>VIP6 Network</title><rect fill="#DDA0DD" height="140.9966" style="stroke:#FFFFFF;stroke-width:1;" width="10" x="336.8789" y="319.7632"/></g><g><title>ProductionPeer</title><rect fill="#FFB6C1" height="81.3979" style="stroke:#FFFFFF;stroke-width:1;" width="10" x="551.7773" y="349.5625"/></g><g><title>LocalPeer</title><rect fill="#000000" fill-opacity="0.00000" height="484.9897" width="8" x="116.5229" y="148.7666"/><line style="stroke:#FFFFFF;stroke-width:1;" x1="120" x2="120" y1="148.7666" y2="633.7563"/></g><g><title>VIP6 Network</title><rect fill="#000000" fill-opacity="0.00000" height="484.9897" width="8" x="337.8789" y="148.7666"/><line style="stroke:#FFFFFF;stroke-width:1;" x1="341.7437" x2="341.7437" y1="148.7666" y2="633.7563"/></g><g><title>ProductionPeer</title><rect fill="#000000" fill-opacity="0.00000" height="484.9897" width="8" x="552.7773" y="148.7666"/><line style="stroke:#FFFFFF;stroke-width:1;" x1="555.9766" x2="555.9766" y1="148.7666" y2="633.7563"/></g><g class="participant participant-head" data-participant="LP"><text fill="#FFFFFF" font-family="Verdana" font-size="14" lengthAdjust="spacing" textLength="66.9307" x="84.0576" y="128.8125">LocalPeer</text><text fill="#FFFFFF" font-family="Verdana" font-size="14" lengthAdjust="spacing" textLength="71.0459" x="82" y="145.8271">(Dev Env)</text><ellipse cx="120.5229" cy="69.7373" fill="#87CEEB" rx="16" ry="16" style="stroke:#000000;stroke-width:1;"/><path d="M120.5229,89.7373 C124.5229,89.7373 127.5229,89.7373 131.5229,85.7373 C139.5229,85.7373 147.5229,93.7373 147.5229,101.7373 L147.5229,105.7373 C147.5229,109.7373 143.5229,113.7373 139.5229,113.7373 L101.5229,113.7373 C97.5229,113.7373 93.5229,109.7373 93.5229,105.7373 L93.5229,101.7373 C93.5229,93.7373 101.5229,85.7373 109.5229,85.7373 C113.5229,89.7373 116.5229,89.7373 120.5229,89.7373" fill="#87CEEB" style="stroke:#000000;stroke-width:1;"/></g><g class="participant participant-tail" data-participant="LP"><text fill="#FFFFFF" font-family="Verdana" font-size="14" lengthAdjust="spacing" textLength="66.9307" x="84.0576" y="646.8315">LocalPeer</text><text fill="#FFFFFF" font-family="Verdana" font-size="14" lengthAdjust="spacing" textLength="71.0459" x="82" y="663.8462">(Dev Env)</text><ellipse cx="120.5229" cy="683.7856" fill="#87CEEB" rx="16" ry="16" style="stroke:#000000;stroke-width:1;"/><path d="M120.5229,703.7856 C124.5229,703.7856 127.5229,703.7856 131.5229,699.7856 C139.5229,699.7856 147.5229,707.7856 147.5229,715.7856 L147.5229,719.7856 C147.5229,723.7856 143.5229,727.7856 139.5229,727.7856 L101.5229,727.7856 C97.5229,727.7856 93.5229,723.7856 93.5229,719.7856 L93.5229,715.7856 C93.5229,707.7856 101.5229,699.7856 109.5229,699.7856 C113.5229,703.7856 116.5229,703.7856 120.5229,703.7856" fill="#87CEEB" style="stroke:#000000;stroke-width:1;"/></g><g class="participant participant-head" data-participant="VN"><rect fill="#DDA0DD" height="31.0146" rx="2.5" ry="2.5" style="stroke:#FFFFFF;stroke-width:1;" width="110.2705" x="286.7437" y="116.752"/><text fill="#FFFFFF" font-family="Verdana" font-size="14" lengthAdjust="spacing" textLength="96.2705" x="293.7437" y="137.8271">VIP6 Network</text></g><g class="participant participant-tail" data-participant="VN"><rect fill="#DDA0DD" height="31.0146" rx="2.5" ry="2.5" style="stroke:#FFFFFF;stroke-width:1;" width="110.2705" x="286.7437" y="632.7563"/><text fill="#FFFFFF" font-family="Verdana" font-size="14" lengthAdjust="spacing" textLength="96.2705" x="293.7437" y="653.8315">VIP6 Network</text></g><g class="participant participant-head" data-participant="PP"><text fill="#FFFFFF" font-family="Verdana" font-size="14" lengthAdjust="spacing" textLength="105.6016" x="500.9766" y="128.8125">ProductionPeer</text><text fill="#FFFFFF" font-family="Verdana" font-size="14" lengthAdjust="spacing" textLength="52.4111" x="527.5718" y="145.8271">(Cloud)</text><ellipse cx="556.7773" cy="69.7373" fill="#FFB6C1" rx="16" ry="16" style="stroke:#000000;stroke-width:1;"/><path d="M556.7773,89.7373 C560.7773,89.7373 563.7773,89.7373 567.7773,85.7373 C575.7773,85.7373 583.7773,93.7373 583.7773,101.7373 L583.7773,105.7373 C583.7773,109.7373 579.7773,113.7373 575.7773,113.7373 L537.7773,113.7373 C533.7773,113.7373 529.7773,109.7373 529.7773,105.7373 L529.7773,101.7373 C529.7773,93.7373 537.7773,85.7373 545.7773,85.7373 C549.7773,89.7373 552.7773,89.7373 556.7773,89.7373" fill="#FFB6C1" style="stroke:#000000;stroke-width:1;"/></g><g class="participant participant-tail" data-participant="PP"><text fill="#FFFFFF" font-family="Verdana" font-size="14" lengthAdjust="spacing" textLength="105.6016" x="500.9766" y="646.8315">ProductionPeer</text><text fill="#FFFFFF" font-family="Verdana" font-size="14" lengthAdjust="spacing" textLength="52.4111" x="527.5718" y="663.8462">(Cloud)</text><ellipse cx="556.7773" cy="683.7856" fill="#FFB6C1" rx="16" ry="16" style="stroke:#000000;stroke-width:1;"/><path d="M556.7773,703.7856 C560.7773,703.7856 563.7773,703.7856 567.7773,699.7856 C575.7773,699.7856 583.7773,707.7856 583.7773,715.7856 L583.7773,719.7856 C583.7773,723.7856 579.7773,727.7856 575.7773,727.7856 L537.7773,727.7856 C533.7773,727.7856 529.7773,723.7856 529.7773,719.7856 L529.7773,715.7856 C529.7773,707.7856 537.7773,699.7856 545.7773,699.7856 C549.7773,703.7856 552.7773,703.7856 556.7773,703.7856" fill="#FFB6C1" style="stroke:#000000;stroke-width:1;"/></g><g><title>VIP6 Network</title><rect fill="#DDA0DD" height="140.9966" style="stroke:#FFFFFF;stroke-width:1;" width="10" x="336.8789" y="319.7632"/></g><g><title>ProductionPeer</title><rect fill="#FFB6C1" height="81.3979" style="stroke:#FFFFFF;stroke-width:1;" width="10" x="551.7773" y="349.5625"/></g><rect fill="#000000" height="3" style="stroke:#000000;stroke-width:1;" width="743.0635" x="5" y="179.6663"/><line style="stroke:#FFFFFF;stroke-width:0.5;" x1="5" x2="748.0635" y1="179.6663" y2="179.6663"/><line style="stroke:#FFFFFF;stroke-width:0.5;" x1="5" x2="748.0635" y1="182.6663" y2="182.6663"/><rect fill="#000000" height="23.7993" style="stroke:#FFFFFF;stroke-width:1;" width="100.0298" x="326.5168" y="168.7666"/><text fill="#FFFFFF" font-family="Verdana" font-size="13" font-weight="bold" lengthAdjust="spacing" textLength="81.5864" x="332.5168" y="185.8364">Addressing</text><path d="M10,207.5659 L10,248.5659 L231,248.5659 L231,217.5659 L221,207.5659 L10,207.5659" fill="#FFFFFF" style="stroke:#000000;stroke-width:1;"/><path d="M221,207.5659 L221,217.5659 L231,217.5659 L221,207.5659" fill="#FFFFFF" style="stroke:#000000;stroke-width:1;"/><text fill="#000000" font-family="Verdana" font-size="13" lengthAdjust="spacing" textLength="200.2559" x="16" y="225.6357">Knows ProductionPeer VIP6 ID</text><text fill="#000000" font-family="Verdana" font-size="13" lengthAdjust="spacing" textLength="169.1016" x="16" y="241.4351">(Derived from Public Key)</text><rect fill="#000000" height="3" style="stroke:#000000;stroke-width:1;" width="743.0635" x="5" y="275.0642"/><line style="stroke:#FFFFFF;stroke-width:0.5;" x1="5" x2="748.0635" y1="275.0642" y2="275.0642"/><line style="stroke:#FFFFFF;stroke-width:0.5;" x1="5" x2="748.0635" y1="278.0642" y2="278.0642"/><rect fill="#000000" height="23.7993" style="stroke:#FFFFFF;stroke-width:1;" width="208.2954" x="272.384" y="264.1646"/><text fill="#FFFFFF" font-family="Verdana" font-size="13" font-weight="bold" lengthAdjust="spacing" textLength="189.8521" x="278.384" y="281.2344">Connection Establishment</text><g class="message" data-participant-1="LP" data-participant-2="VN"><polygon fill="#87CEEB" points="324.8789,315.7632,334.8789,319.7632,324.8789,323.7632,328.8789,319.7632" style="stroke:#87CEEB;stroke-width:1;"/><line style="stroke:#87CEEB;stroke-width:1;" x1="120.5229" x2="330.8789" y1="319.7632" y2="319.7632"/><text fill="#FFFFFF" font-family="Verdana" font-size="13" font-weight="bold" lengthAdjust="spacing" textLength="9.2422" x="127.5229" y="315.0337">1</text><text fill="#FFFFFF" font-family="Verdana" font-size="13" lengthAdjust="spacing" textLength="184.1138" x="140.7651" y="315.0337">Connect(VIP6 ID: ProdPeer)</text></g><g class="message" data-participant-1="VN" data-participant-2="PP"><polygon fill="#DDA0DD" points="539.7773,345.5625,549.7773,349.5625,539.7773,353.5625,543.7773,349.5625" style="stroke:#DDA0DD;stroke-width:1;"/><line style="stroke:#DDA0DD;stroke-width:1;" x1="346.8789" x2="545.7773" y1="349.5625" y2="349.5625"/><text fill="#FFFFFF" font-family="Verdana" font-size="13" font-weight="bold" lengthAdjust="spacing" textLength="9.2422" x="353.8789" y="344.833">2</text><text fill="#FFFFFF" font-family="Verdana" font-size="13" lengthAdjust="spacing" textLength="172.6563" x="367.1211" y="344.833">Route Connection Request</text></g><path d="M566,362.5625 L566,403.5625 L743,403.5625 L743,372.5625 L733,362.5625 L566,362.5625" fill="#FFFFFF" style="stroke:#000000;stroke-width:1;"/><path d="M733,362.5625 L733,372.5625 L743,372.5625 L733,362.5625" fill="#FFFFFF" style="stroke:#000000;stroke-width:1;"/><text fill="#000000" font-family="Verdana" font-size="13" lengthAdjust="spacing" textLength="156.0635" x="572" y="380.6323">Authenticates LocalPeer</text><text fill="#000000" font-family="Verdana" font-size="13" lengthAdjust="spacing" textLength="152.6548" x="572" y="396.4316">using EPQB Certificates</text><g class="message" data-participant-1="PP" data-participant-2="VN"><polygon fill="#FFB6C1" points="357.8789,426.9604,347.8789,430.9604,357.8789,434.9604,353.8789,430.9604" style="stroke:#FFB6C1;stroke-width:1;"/><line style="stroke:#FFB6C1;stroke-width:1;stroke-dasharray:2.0,2.0;" x1="351.8789" x2="555.7773" y1="430.9604" y2="430.9604"/><text fill="#FFFFFF" font-family="Verdana" font-size="13" font-weight="bold" lengthAdjust="spacing" textLength="9.2422" x="363.8789" y="426.231">3</text><text fill="#FFFFFF" font-family="Verdana" font-size="13" lengthAdjust="spacing" textLength="120.7134" x="377.1211" y="426.231">Accept Connection</text></g><g class="message" data-participant-1="VN" data-participant-2="LP"><polygon fill="#DDA0DD" points="131.5229,456.7598,121.5229,460.7598,131.5229,464.7598,127.5229,460.7598" style="stroke:#DDA0DD;stroke-width:1;"/><line style="stroke:#DDA0DD;stroke-width:1;stroke-dasharray:2.0,2.0;" x1="125.5229" x2="340.8789" y1="460.7598" y2="460.7598"/><text fill="#FFFFFF" font-family="Verdana" font-size="13" font-weight="bold" lengthAdjust="spacing" textLength="9.2422" x="137.5229" y="456.0303">4</text><text fill="#FFFFFF" font-family="Verdana" font-size="13" lengthAdjust="spacing" textLength="151.3154" x="150.7651" y="456.0303">Connection Established</text></g><rect fill="#000000" height="3" style="stroke:#000000;stroke-width:1;" width="743.0635" x="5" y="489.6594"/><line style="stroke:#FFFFFF;stroke-width:0.5;" x1="5" x2="748.0635" y1="489.6594" y2="489.6594"/><line style="stroke:#FFFFFF;stroke-width:0.5;" x1="5" x2="748.0635" y1="492.6594" y2="492.6594"/><rect fill="#000000" height="23.7993" style="stroke:#FFFFFF;stroke-width:1;" width="122.4814" x="315.291" y="478.7598"/><text fill="#FFFFFF" font-family="Verdana" font-size="13" font-weight="bold" lengthAdjust="spacing" textLength="104.0381" x="321.291" y="495.8296">Secure Tunnel</text><path d="M75,517.5591 L75,558.5591 L600,558.5591 L600,527.5591 L590,517.5591 L75,517.5591" fill="#FFFFFF" style="stroke:#000000;stroke-width:1;"/><path d="M590,517.5591 L590,527.5591 L600,527.5591 L590,517.5591" fill="#FFFFFF" style="stroke:#000000;stroke-width:1;"/><text fill="#000000" font-family="Verdana" font-size="13" lengthAdjust="spacing" textLength="301.1519" x="170.1321" y="535.6289">End-to-End Encrypted Tunnel (Kyber/Aes256)</text><text fill="#000000" font-family="Verdana" font-size="13" lengthAdjust="spacing" textLength="326.314" x="170.1321" y="551.4282">Transparent to underlying network (NAT/Firewall)</text><g class="message" data-participant-1="LP" data-participant-2="PP"><polygon fill="#87CEEB" points="544.7773,581.957,554.7773,585.957,544.7773,589.957,548.7773,585.957" style="stroke:#87CEEB;stroke-width:1;"/><line style="stroke:#87CEEB;stroke-width:1;" x1="120.5229" x2="550.7773" y1="585.957" y2="585.957"/><text fill="#FFFFFF" font-family="Verdana" font-size="13" font-weight="bold" lengthAdjust="spacing" textLength="9.2422" x="127.5229" y="581.2275">5</text><text fill="#FFFFFF" font-family="Verdana" font-size="13" lengthAdjust="spacing" textLength="148.2051" x="140.7651" y="581.2275">Deploy/Debug/Monitor</text></g><g class="message" data-participant-1="PP" data-participant-2="LP"><polygon fill="#FFB6C1" points="131.5229,611.7563,121.5229,615.7563,131.5229,619.7563,127.5229,615.7563" style="stroke:#FFB6C1;stroke-width:1;"/><line style="stroke:#FFB6C1;stroke-width:1;stroke-dasharray:2.0,2.0;" x1="125.5229" x2="555.7773" y1="615.7563" y2="615.7563"/><text fill="#FFFFFF" font-family="Verdana" font-size="13" font-weight="bold" lengthAdjust="spacing" textLength="9.2422" x="137.5229" y="611.0269">6</text><text fill="#FFFFFF" font-family="Verdana" font-size="13" lengthAdjust="spacing" textLength="119.0439" x="150.7651" y="611.0269">Logs/Metrics/Data</text></g><!--SRC=[VLHVRzem47_tfxZIIGDfY6xIkWc9IP24gMeA6LHzMQVA90Ur6kpCTa1esdVVsOIHfgLv8ToTVt_kpZcpZxX6A78k96FluNkk5Zo7ZEidsASCMYlaoZ3p96J1DL_3WgTFAwrAcGKgLnhEB_nJgyXmoSlSZfMqLSdOFuvYeYoX5fYAfKXVWvUku0y3UaPDfWh6vvJEK3zNuE8rqYhwrz4EKqkXjtYvgvZRNOx0jsZK6fl9IjNSeaPbTmM-DDXGK4MzWZd-Bb6cP9uuYBk6RWwfFK4ibXWBYSyirWZ-vqyCmjKaN5kHYe9BUmec51j1YRTG3YLl8vmmx4F6BOEGmWebsTcxU1eCuuSaYcOFmJIUpc00hVElNu8e6hKedSocOJCx7eykWuykUtULNDOIOJYy2CEMewgvDMm_grQiKfudYFfUjaFSG2GtdHPm0t42BtImueW0BKS44xHRfP_yaRi9rDWF38bMMPawPnLDaAiosvCaHD9mmvWLbhRB0VN1omDt4Ao28vGFCSPBgsIvNhZtmG26MQRH65eR60oOlo9gGqVZf0_NKcqDF1VZIU0gzDwrs606IwtMa9IBdDR_6dSTZnieAN7F6ndBAMaUrqWz81RgK_VdYqxz-aRTw1yEjYkUlkTtp1tN7R7XfB3HDKR_2V0O8QY4zCzKISKr9JDt7Omz0htQJDy4BLQFrgCCI_fWIPeX7J1G6txfknObFqOG80rvkIzXZ52xfAS1NFaRfYaMjgQAPLZJipVJTEEcyLf7CQkVlfluriynBJN2RKdrUNEg7xodI6PTgxhqGw-ftXMMvbWTQ5_lQ3bwGpIVFbzsxkMjvjBG5hlXqKBHTKQTxvnrkLzaQ4-6jxsnqBZbUKxZFpbVHnrYaQjTByH5kUhTABh0If_kc3CUgvNftQ3L8ZMza5lE_W40]--></g></svg>