<svg xmlns="http://www.w3.org/2000/svg" xmlns:xlink="http://www.w3.org/1999/xlink" contentStyleType="text/css" data-diagram-type="SEQUENCE" height="1347px" preserveAspectRatio="none" style="width:942px;height:1347px;background:#000000;" version="1.1" viewBox="0 0 942 1347" width="942px" zoomAndPan="magnify"><title>VIP6: Peer Portability (Azure -&gt; AWS -&gt; GCP)</title><defs/><g><text fill="#FFFFFF" font-family="Verdana" font-size="22" font-weight="bold" lengthAdjust="spacing" textLength="569.54" x="185.1619" y="37.1182">VIP6: Peer Portability (Azure -&gt; AWS -&gt; GCP)</text><g><title>VIP6</title><rect fill="#555555" height="140.9966" style="stroke:#FFFFFF;stroke-width:1;" width="10" x="465.2207" y="241.3799"/></g><g><title>VIP6</title><rect fill="#555555" height="140.9966" style="stroke:#FFFFFF;stroke-width:1;" width="10" x="465.2207" y="629.9717"/></g><g><title>VIP6</title><rect fill="#555555" height="140.9966" style="stroke:#FFFFFF;stroke-width:1;" width="10" x="465.2207" y="1018.5635"/></g><g><title>PeerB</title><rect fill="#87CEEB" height="190.7959" style="stroke:#FFFFFF;stroke-width:1;" width="10" x="637.7803" y="322.7778"/></g><g><title>PeerB</title><rect fill="#87CEEB" height="386.5918" style="stroke:#FFFFFF;stroke-width:1;" width="10" x="737.3291" y="515.5737"/></g><g><title>PeerB</title><rect fill="#87CEEB" height="255.3945" style="stroke:#FFFFFF;stroke-width:1;" width="10" x="848.147" y="904.1655"/></g><g><title>PeerAClient</title><rect fill="#000000" fill-opacity="0.00000" height="1063.3774" width="8" x="263.4209" y="165.7813"/><line style="stroke:#FFFFFF;stroke-width:1;" x1="267" x2="267" y1="165.7813" y2="1229.1587"/></g><g><title>VIP6</title><rect fill="#000000" fill-opacity="0.00000" height="1063.3774" width="8" x="466.2207" y="165.7813"/><line style="stroke:#FFFFFF;stroke-width:1;" x1="469.8179" x2="469.8179" y1="165.7813" y2="1229.1587"/></g><g><title>PeerB</title><rect fill="#000000" fill-opacity="0.00000" height="1063.3774" width="8" x="638.7803" y="165.7813"/><line style="stroke:#FFFFFF;stroke-width:1;" x1="642.0059" x2="642.0059" y1="165.7813" y2="1229.1587"/></g><g><title>PeerB</title><rect fill="#000000" fill-opacity="0.00000" height="1063.3774" width="8" x="738.3291" y="165.7813"/><line style="stroke:#FFFFFF;stroke-width:1;" x1="741.5547" x2="741.5547" y1="165.7813" y2="1229.1587"/></g><g><title>PeerB</title><rect fill="#000000" fill-opacity="0.00000" height="1063.3774" width="8" x="849.147" y="165.7813"/><line style="stroke:#FFFFFF;stroke-width:1;" x1="853.1035" x2="853.1035" y1="165.7813" y2="1229.1587"/></g><g class="participant participant-head" data-participant="CL"><text fill="#FFFFFF" font-family="Verdana" font-size="14" lengthAdjust="spacing" textLength="80.8418" x="224" y="162.8418">PeerAClient</text><ellipse cx="267.4209" cy="103.7666" fill="#FFB6C1" rx="16" ry="16" style="stroke:#000000;stroke-width:1;"/><path d="M267.4209,123.7666 C271.4209,123.7666 274.4209,123.7666 278.4209,119.7666 C286.4209,119.7666 294.4209,127.7666 294.4209,135.7666 L294.4209,139.7666 C294.4209,143.7666 290.4209,147.7666 286.4209,147.7666 L248.4209,147.7666 C244.4209,147.7666 240.4209,143.7666 240.4209,139.7666 L240.4209,135.7666 C240.4209,127.7666 248.4209,119.7666 256.4209,119.7666 C260.4209,123.7666 263.4209,123.7666 267.4209,123.7666" fill="#FFB6C1" style="stroke:#000000;stroke-width:1;"/></g><g class="participant participant-tail" data-participant="CL"><text fill="#FFFFFF" font-family="Verdana" font-size="14" lengthAdjust="spacing" textLength="80.8418" x="224" y="1242.2339">PeerAClient</text><ellipse cx="267.4209" cy="1262.1733" fill="#FFB6C1" rx="16" ry="16" style="stroke:#000000;stroke-width:1;"/><path d="M267.4209,1282.1733 C271.4209,1282.1733 274.4209,1282.1733 278.4209,1278.1733 C286.4209,1278.1733 294.4209,1286.1733 294.4209,1294.1733 L294.4209,1298.1733 C294.4209,1302.1733 290.4209,1306.1733 286.4209,1306.1733 L248.4209,1306.1733 C244.4209,1306.1733 240.4209,1302.1733 240.4209,1298.1733 L240.4209,1294.1733 C240.4209,1286.1733 248.4209,1278.1733 256.4209,1278.1733 C260.4209,1282.1733 263.4209,1282.1733 267.4209,1282.1733" fill="#FFB6C1" style="stroke:#000000;stroke-width:1;"/></g><g class="participant participant-head" data-participant="VIP"><rect fill="#555555" height="31.0146" rx="2.5" ry="2.5" style="stroke:#FFFFFF;stroke-width:1;" width="46.8057" x="446.8179" y="133.7666"/><text fill="#FFFFFF" font-family="Verdana" font-size="14" lengthAdjust="spacing" textLength="32.8057" x="453.8179" y="154.8418">VIP6</text></g><g class="participant participant-tail" data-participant="VIP"><rect fill="#555555" height="31.0146" rx="2.5" ry="2.5" style="stroke:#FFFFFF;stroke-width:1;" width="46.8057" x="446.8179" y="1228.1587"/><text fill="#FFFFFF" font-family="Verdana" font-size="14" lengthAdjust="spacing" textLength="32.8057" x="453.8179" y="1249.2339">VIP6</text></g><g class="participant participant-head" data-participant="AZ"><text fill="#FFFFFF" font-family="Verdana" font-size="14" lengthAdjust="spacing" textLength="40.6943" x="619.4331" y="128.8125">PeerB</text><text fill="#FFFFFF" font-family="Verdana" font-size="14" lengthAdjust="spacing" textLength="52.8145" x="613.373" y="145.8271">(Azure)</text><text fill="#FFFFFF" font-family="Verdana" font-size="14" lengthAdjust="spacing" textLength="83.5488" x="598.0059" y="162.8418">IP: 20.x.x.x</text><ellipse cx="642.7803" cy="69.7373" fill="#87CEEB" rx="16" ry="16" style="stroke:#000000;stroke-width:1;"/><path d="M642.7803,89.7373 C646.7803,89.7373 649.7803,89.7373 653.7803,85.7373 C661.7803,85.7373 669.7803,93.7373 669.7803,101.7373 L669.7803,105.7373 C669.7803,109.7373 665.7803,113.7373 661.7803,113.7373 L623.7803,113.7373 C619.7803,113.7373 615.7803,109.7373 615.7803,105.7373 L615.7803,101.7373 C615.7803,93.7373 623.7803,85.7373 631.7803,85.7373 C635.7803,89.7373 638.7803,89.7373 642.7803,89.7373" fill="#87CEEB" style="stroke:#000000;stroke-width:1;"/></g><g class="participant participant-tail" data-participant="AZ"><text fill="#FFFFFF" font-family="Verdana" font-size="14" lengthAdjust="spacing" textLength="40.6943" x="619.4331" y="1242.2339">PeerB</text><text fill="#FFFFFF" font-family="Verdana" font-size="14" lengthAdjust="spacing" textLength="52.8145" x="613.373" y="1259.2485">(Azure)</text><text fill="#FFFFFF" font-family="Verdana" font-size="14" lengthAdjust="spacing" textLength="83.5488" x="598.0059" y="1276.2632">IP: 20.x.x.x</text><ellipse cx="642.7803" cy="1296.2026" fill="#87CEEB" rx="16" ry="16" style="stroke:#000000;stroke-width:1;"/><path d="M642.7803,1316.2026 C646.7803,1316.2026 649.7803,1316.2026 653.7803,1312.2026 C661.7803,1312.2026 669.7803,1320.2026 669.7803,1328.2026 L669.7803,1332.2026 C669.7803,1336.2026 665.7803,1340.2026 661.7803,1340.2026 L623.7803,1340.2026 C619.7803,1340.2026 615.7803,1336.2026 615.7803,1332.2026 L615.7803,1328.2026 C615.7803,1320.2026 623.7803,1312.2026 631.7803,1312.2026 C635.7803,1316.2026 638.7803,1316.2026 642.7803,1316.2026" fill="#87CEEB" style="stroke:#000000;stroke-width:1;"/></g><g class="participant participant-head" data-participant="AWS"><text fill="#FFFFFF" font-family="Verdana" font-size="14" lengthAdjust="spacing" textLength="40.6943" x="718.9819" y="128.8125">PeerB</text><text fill="#FFFFFF" font-family="Verdana" font-size="14" lengthAdjust="spacing" textLength="45.6982" x="716.48" y="145.8271">(AWS)</text><text fill="#FFFFFF" font-family="Verdana" font-size="14" lengthAdjust="spacing" textLength="83.5488" x="697.5547" y="162.8418">IP: 54.x.x.x</text><ellipse cx="742.3291" cy="69.7373" fill="#87CEEB" rx="16" ry="16" style="stroke:#000000;stroke-width:1;"/><path d="M742.3291,89.7373 C746.3291,89.7373 749.3291,89.7373 753.3291,85.7373 C761.3291,85.7373 769.3291,93.7373 769.3291,101.7373 L769.3291,105.7373 C769.3291,109.7373 765.3291,113.7373 761.3291,113.7373 L723.3291,113.7373 C719.3291,113.7373 715.3291,109.7373 715.3291,105.7373 L715.3291,101.7373 C715.3291,93.7373 723.3291,85.7373 731.3291,85.7373 C735.3291,89.7373 738.3291,89.7373 742.3291,89.7373" fill="#87CEEB" style="stroke:#000000;stroke-width:1;"/></g><g class="participant participant-tail" data-participant="AWS"><text fill="#FFFFFF" font-family="Verdana" font-size="14" lengthAdjust="spacing" textLength="40.6943" x="718.9819" y="1242.2339">PeerB</text><text fill="#FFFFFF" font-family="Verdana" font-size="14" lengthAdjust="spacing" textLength="45.6982" x="716.48" y="1259.2485">(AWS)</text><text fill="#FFFFFF" font-family="Verdana" font-size="14" lengthAdjust="spacing" textLength="83.5488" x="697.5547" y="1276.2632">IP: 54.x.x.x</text><ellipse cx="742.3291" cy="1296.2026" fill="#87CEEB" rx="16" ry="16" style="stroke:#000000;stroke-width:1;"/><path d="M742.3291,1316.2026 C746.3291,1316.2026 749.3291,1316.2026 753.3291,1312.2026 C761.3291,1312.2026 769.3291,1320.2026 769.3291,1328.2026 L769.3291,1332.2026 C769.3291,1336.2026 765.3291,1340.2026 761.3291,1340.2026 L723.3291,1340.2026 C719.3291,1340.2026 715.3291,1336.2026 715.3291,1332.2026 L715.3291,1328.2026 C715.3291,1320.2026 723.3291,1312.2026 731.3291,1312.2026 C735.3291,1316.2026 738.3291,1316.2026 742.3291,1316.2026" fill="#87CEEB" style="stroke:#000000;stroke-width:1;"/></g><g class="participant participant-head" data-participant="GCP"><text fill="#FFFFFF" font-family="Verdana" font-size="14" lengthAdjust="spacing" textLength="40.6943" x="829.7998" y="128.8125">PeerB</text><text fill="#FFFFFF" font-family="Verdana" font-size="14" lengthAdjust="spacing" textLength="106.0869" x="797.1035" y="145.8271">(Google Cloud)</text><text fill="#FFFFFF" font-family="Verdana" font-size="14" lengthAdjust="spacing" textLength="83.5488" x="808.3726" y="162.8418">IP: 34.x.x.x</text><ellipse cx="853.147" cy="69.7373" fill="#87CEEB" rx="16" ry="16" style="stroke:#000000;stroke-width:1;"/><path d="M853.147,89.7373 C857.147,89.7373 860.147,89.7373 864.147,85.7373 C872.147,85.7373 880.147,93.7373 880.147,101.7373 L880.147,105.7373 C880.147,109.7373 876.147,113.7373 872.147,113.7373 L834.147,113.7373 C830.147,113.7373 826.147,109.7373 826.147,105.7373 L826.147,101.7373 C826.147,93.7373 834.147,85.7373 842.147,85.7373 C846.147,89.7373 849.147,89.7373 853.147,89.7373" fill="#87CEEB" style="stroke:#000000;stroke-width:1;"/></g><g class="participant participant-tail" data-participant="GCP"><text fill="#FFFFFF" font-family="Verdana" font-size="14" lengthAdjust="spacing" textLength="40.6943" x="829.7998" y="1242.2339">PeerB</text><text fill="#FFFFFF" font-family="Verdana" font-size="14" lengthAdjust="spacing" textLength="106.0869" x="797.1035" y="1259.2485">(Google Cloud)</text><text fill="#FFFFFF" font-family="Verdana" font-size="14" lengthAdjust="spacing" textLength="83.5488" x="808.3726" y="1276.2632">IP: 34.x.x.x</text><ellipse cx="853.147" cy="1296.2026" fill="#87CEEB" rx="16" ry="16" style="stroke:#000000;stroke-width:1;"/><path d="M853.147,1316.2026 C857.147,1316.2026 860.147,1316.2026 864.147,1312.2026 C872.147,1312.2026 880.147,1320.2026 880.147,1328.2026 L880.147,1332.2026 C880.147,1336.2026 876.147,1340.2026 872.147,1340.2026 L834.147,1340.2026 C830.147,1340.2026 826.147,1336.2026 826.147,1332.2026 L826.147,1328.2026 C826.147,1320.2026 834.147,1312.2026 842.147,1312.2026 C846.147,1316.2026 849.147,1316.2026 853.147,1316.2026" fill="#87CEEB" style="stroke:#000000;stroke-width:1;"/></g><g><title>VIP6</title><rect fill="#555555" height="140.9966" style="stroke:#FFFFFF;stroke-width:1;" width="10" x="465.2207" y="241.3799"/></g><g><title>VIP6</title><rect fill="#555555" height="140.9966" style="stroke:#FFFFFF;stroke-width:1;" width="10" x="465.2207" y="629.9717"/></g><g><title>VIP6</title><rect fill="#555555" height="140.9966" style="stroke:#FFFFFF;stroke-width:1;" width="10" x="465.2207" y="1018.5635"/></g><g><title>PeerB</title><rect fill="#87CEEB" height="190.7959" style="stroke:#FFFFFF;stroke-width:1;" width="10" x="637.7803" y="322.7778"/></g><g><title>PeerB</title><rect fill="#87CEEB" height="386.5918" style="stroke:#FFFFFF;stroke-width:1;" width="10" x="737.3291" y="515.5737"/></g><g><title>PeerB</title><rect fill="#87CEEB" height="255.3945" style="stroke:#FFFFFF;stroke-width:1;" width="10" x="848.147" y="904.1655"/></g><rect fill="#000000" height="3" style="stroke:#000000;stroke-width:1;" width="930.8638" x="5" y="196.6809"/><line style="stroke:#FFFFFF;stroke-width:0.5;" x1="5" x2="935.8638" y1="196.6809" y2="196.6809"/><line style="stroke:#FFFFFF;stroke-width:0.5;" x1="5" x2="935.8638" y1="199.6809" y2="199.6809"/><rect fill="#000000" height="23.7993" style="stroke:#FFFFFF;stroke-width:1;" width="217.5313" x="361.6663" y="185.7813"/><text fill="#FFFFFF" font-family="Verdana" font-size="13" font-weight="bold" lengthAdjust="spacing" textLength="199.0879" x="367.6663" y="202.8511">Scenario 1: PeerB on Azure</text><g class="message" data-participant-1="CL" data-participant-2="VIP"><polygon fill="#000000" points="453.2207,237.3799,463.2207,241.3799,453.2207,245.3799,457.2207,241.3799" style="stroke:#000000;stroke-width:1;"/><line style="stroke:#000000;stroke-width:1;" x1="267.4209" x2="459.2207" y1="241.3799" y2="241.3799"/><text fill="#FFFFFF" font-family="Verdana" font-size="13" font-weight="bold" lengthAdjust="spacing" textLength="9.2422" x="274.4209" y="236.6504">1</text><text fill="#FFFFFF" font-family="Verdana" font-size="13" lengthAdjust="spacing" textLength="128.6162" x="287.6631" y="236.6504">Connect(PeerID: B)</text></g><path d="M480,254.3799 L480,295.3799 L710,295.3799 L710,264.3799 L700,254.3799 L480,254.3799" fill="#FFFFFF" style="stroke:#000000;stroke-width:1;"/><path d="M700,254.3799 L700,264.3799 L710,264.3799 L700,254.3799" fill="#FFFFFF" style="stroke:#000000;stroke-width:1;"/><text fill="#000000" font-family="Verdana" font-size="13" lengthAdjust="spacing" textLength="125.5439" x="486" y="272.4497">Resolves PeerID: B</text><text fill="#000000" font-family="Verdana" font-size="13" lengthAdjust="spacing" textLength="209.1235" x="486" y="288.249">-&gt; Physical IP: 20.x.x.x (Azure)</text><g class="message" data-participant-1="VIP" data-participant-2="AZ"><polygon fill="#000000" points="625.7803,318.7778,635.7803,322.7778,625.7803,326.7778,629.7803,322.7778" style="stroke:#000000;stroke-width:1;"/><line style="stroke:#000000;stroke-width:1;" x1="475.2207" x2="631.7803" y1="322.7778" y2="322.7778"/><text fill="#FFFFFF" font-family="Verdana" font-size="13" font-weight="bold" lengthAdjust="spacing" textLength="9.2422" x="482.2207" y="318.0483">2</text><text fill="#FFFFFF" font-family="Verdana" font-size="13" lengthAdjust="spacing" textLength="130.3174" x="495.4629" y="318.0483">Forward Connection</text></g><g class="message" data-participant-1="AZ" data-participant-2="VIP"><polygon fill="#000000" points="486.2207,348.5771,476.2207,352.5771,486.2207,356.5771,482.2207,352.5771" style="stroke:#000000;stroke-width:1;"/><line style="stroke:#000000;stroke-width:1;stroke-dasharray:2.0,2.0;" x1="480.2207" x2="636.7803" y1="352.5771" y2="352.5771"/><text fill="#FFFFFF" font-family="Verdana" font-size="13" font-weight="bold" lengthAdjust="spacing" textLength="9.2422" x="492.2207" y="347.8477">3</text><text fill="#FFFFFF" font-family="Verdana" font-size="13" lengthAdjust="spacing" textLength="68.9038" x="505.4629" y="347.8477">Connected</text></g><g class="message" data-participant-1="VIP" data-participant-2="CL"><polygon fill="#000000" points="278.4209,378.3765,268.4209,382.3765,278.4209,386.3765,274.4209,382.3765" style="stroke:#000000;stroke-width:1;"/><line style="stroke:#000000;stroke-width:1;stroke-dasharray:2.0,2.0;" x1="272.4209" x2="469.2207" y1="382.3765" y2="382.3765"/><text fill="#FFFFFF" font-family="Verdana" font-size="13" font-weight="bold" lengthAdjust="spacing" textLength="9.2422" x="284.4209" y="377.647">4</text><text fill="#FFFFFF" font-family="Verdana" font-size="13" lengthAdjust="spacing" textLength="151.3154" x="297.6631" y="377.647">Connection Established</text></g><path d="M10,395.3765 L10,436.3765 L263,436.3765 L263,405.3765 L253,395.3765 L10,395.3765" fill="#FFFFFF" style="stroke:#000000;stroke-width:1;"/><path d="M253,395.3765 L253,405.3765 L263,405.3765 L253,395.3765" fill="#FFFFFF" style="stroke:#000000;stroke-width:1;"/><text fill="#000000" font-family="Verdana" font-size="13" lengthAdjust="spacing" textLength="232.1401" x="16" y="413.4463">PeerAClient connected to PeerID: B</text><text fill="#000000" font-family="Verdana" font-size="13" lengthAdjust="spacing" textLength="134.0054" x="16" y="429.2456">Unaware of Azure IP</text><rect fill="#000000" height="3" style="stroke:#000000;stroke-width:1;" width="930.8638" x="5" y="462.8748"/><line style="stroke:#FFFFFF;stroke-width:0.5;" x1="5" x2="935.8638" y1="462.8748" y2="462.8748"/><line style="stroke:#FFFFFF;stroke-width:0.5;" x1="5" x2="935.8638" y1="465.8748" y2="465.8748"/><rect fill="#000000" height="23.7993" style="stroke:#FFFFFF;stroke-width:1;" width="249.041" x="345.9114" y="451.9751"/><text fill="#FFFFFF" font-family="Verdana" font-size="13" font-weight="bold" lengthAdjust="spacing" textLength="230.5977" x="351.9114" y="469.0449">Migration: PeerB Moves to AWS</text><g class="message" data-participant-1="AZ" data-participant-2="AZ"><line style="stroke:#000000;stroke-width:1;" x1="647.7803" x2="689.7803" y1="512.5737" y2="512.5737"/><line style="stroke:#000000;stroke-width:1;" x1="689.7803" x2="689.7803" y1="512.5737" y2="525.5737"/><line style="stroke:#000000;stroke-width:1;" x1="642.7803" x2="689.7803" y1="525.5737" y2="525.5737"/><polygon fill="#000000" points="652.7803,521.5737,642.7803,525.5737,652.7803,529.5737,648.7803,525.5737" style="stroke:#000000;stroke-width:1;"/><text fill="#FFFFFF" font-family="Verdana" font-size="13" font-weight="bold" lengthAdjust="spacing" textLength="9.2422" x="654.7803" y="507.8442">5</text><text fill="#FFFFFF" font-family="Verdana" font-size="13" lengthAdjust="spacing" textLength="29.999" x="668.0225" y="507.8442">Stop</text></g><path d="M559,533.5737 L559,558.5737 L825,558.5737 L825,543.5737 L815,533.5737 L559,533.5737" fill="#FFFFFF" style="stroke:#000000;stroke-width:1;"/><path d="M815,533.5737 L815,543.5737 L825,543.5737 L815,533.5737" fill="#FFFFFF" style="stroke:#000000;stroke-width:1;"/><text fill="#000000" font-family="Verdana" font-size="13" lengthAdjust="spacing" textLength="245.8638" x="565" y="551.6436">PeerB migrates (Same Identity/Keys)</text><rect fill="#000000" height="3" style="stroke:#000000;stroke-width:1;" width="930.8638" x="5" y="585.2727"/><line style="stroke:#FFFFFF;stroke-width:0.5;" x1="5" x2="935.8638" y1="585.2727" y2="585.2727"/><line style="stroke:#FFFFFF;stroke-width:0.5;" x1="5" x2="935.8638" y1="588.2727" y2="588.2727"/><rect fill="#000000" height="23.7993" style="stroke:#FFFFFF;stroke-width:1;" width="209.3237" x="365.77" y="574.373"/><text fill="#FFFFFF" font-family="Verdana" font-size="13" font-weight="bold" lengthAdjust="spacing" textLength="190.8804" x="371.77" y="591.4429">Scenario 2: PeerB on AWS</text><g class="message" data-participant-1="CL" data-participant-2="VIP"><polygon fill="#000000" points="453.2207,625.9717,463.2207,629.9717,453.2207,633.9717,457.2207,629.9717" style="stroke:#000000;stroke-width:1;"/><line style="stroke:#000000;stroke-width:1;" x1="267.4209" x2="459.2207" y1="629.9717" y2="629.9717"/><text fill="#FFFFFF" font-family="Verdana" font-size="13" font-weight="bold" lengthAdjust="spacing" textLength="9.2422" x="274.4209" y="625.2422">6</text><text fill="#FFFFFF" font-family="Verdana" font-size="13" lengthAdjust="spacing" textLength="128.6162" x="287.6631" y="625.2422">Connect(PeerID: B)</text></g><path d="M480,642.9717 L480,683.9717 L703,683.9717 L703,652.9717 L693,642.9717 L480,642.9717" fill="#FFFFFF" style="stroke:#000000;stroke-width:1;"/><path d="M693,642.9717 L693,652.9717 L703,652.9717 L693,642.9717" fill="#FFFFFF" style="stroke:#000000;stroke-width:1;"/><text fill="#000000" font-family="Verdana" font-size="13" lengthAdjust="spacing" textLength="125.5439" x="486" y="661.0415">Resolves PeerID: B</text><text fill="#000000" font-family="Verdana" font-size="13" lengthAdjust="spacing" textLength="202.5156" x="486" y="676.8408">-&gt; Physical IP: 54.x.x.x (AWS)</text><g class="message" data-participant-1="VIP" data-participant-2="AWS"><polygon fill="#000000" points="725.3291,707.3696,735.3291,711.3696,725.3291,715.3696,729.3291,711.3696" style="stroke:#000000;stroke-width:1;"/><line style="stroke:#000000;stroke-width:1;" x1="475.2207" x2="731.3291" y1="711.3696" y2="711.3696"/><text fill="#FFFFFF" font-family="Verdana" font-size="13" font-weight="bold" lengthAdjust="spacing" textLength="9.2422" x="482.2207" y="706.6401">7</text><text fill="#FFFFFF" font-family="Verdana" font-size="13" lengthAdjust="spacing" textLength="130.3174" x="495.4629" y="706.6401">Forward Connection</text></g><g class="message" data-participant-1="AWS" data-participant-2="VIP"><polygon fill="#000000" points="486.2207,737.1689,476.2207,741.1689,486.2207,745.1689,482.2207,741.1689" style="stroke:#000000;stroke-width:1;"/><line style="stroke:#000000;stroke-width:1;stroke-dasharray:2.0,2.0;" x1="480.2207" x2="736.3291" y1="741.1689" y2="741.1689"/><text fill="#FFFFFF" font-family="Verdana" font-size="13" font-weight="bold" lengthAdjust="spacing" textLength="9.2422" x="492.2207" y="736.4395">8</text><text fill="#FFFFFF" font-family="Verdana" font-size="13" lengthAdjust="spacing" textLength="68.9038" x="505.4629" y="736.4395">Connected</text></g><g class="message" data-participant-1="VIP" data-participant-2="CL"><polygon fill="#000000" points="278.4209,766.9683,268.4209,770.9683,278.4209,774.9683,274.4209,770.9683" style="stroke:#000000;stroke-width:1;"/><line style="stroke:#000000;stroke-width:1;stroke-dasharray:2.0,2.0;" x1="272.4209" x2="469.2207" y1="770.9683" y2="770.9683"/><text fill="#FFFFFF" font-family="Verdana" font-size="13" font-weight="bold" lengthAdjust="spacing" textLength="9.2422" x="284.4209" y="766.2388">9</text><text fill="#FFFFFF" font-family="Verdana" font-size="13" lengthAdjust="spacing" textLength="151.3154" x="297.6631" y="766.2388">Connection Established</text></g><path d="M30,783.9683 L30,824.9683 L261,824.9683 L261,793.9683 L251,783.9683 L30,783.9683" fill="#FFFFFF" style="stroke:#000000;stroke-width:1;"/><path d="M251,783.9683 L251,793.9683 L261,793.9683 L251,783.9683" fill="#FFFFFF" style="stroke:#000000;stroke-width:1;"/><text fill="#000000" font-family="Verdana" font-size="13" lengthAdjust="spacing" textLength="210.6533" x="36" y="802.0381">PeerAClient Config UNCHANGED</text><text fill="#000000" font-family="Verdana" font-size="13" lengthAdjust="spacing" textLength="185.834" x="36" y="817.8374">Still connecting to PeerID: B</text><rect fill="#000000" height="3" style="stroke:#000000;stroke-width:1;" width="930.8638" x="5" y="851.4666"/><line style="stroke:#FFFFFF;stroke-width:0.5;" x1="5" x2="935.8638" y1="851.4666" y2="851.4666"/><line style="stroke:#FFFFFF;stroke-width:0.5;" x1="5" x2="935.8638" y1="854.4666" y2="854.4666"/><rect fill="#000000" height="23.7993" style="stroke:#FFFFFF;stroke-width:1;" width="311.1719" x="314.8459" y="840.5669"/><text fill="#FFFFFF" font-family="Verdana" font-size="13" font-weight="bold" lengthAdjust="spacing" textLength="292.7285" x="320.8459" y="857.6367">Migration: PeerB Moves to Google Cloud</text><g class="message" data-participant-1="AWS" data-participant-2="AWS"><line style="stroke:#000000;stroke-width:1;" x1="747.3291" x2="789.3291" y1="901.1655" y2="901.1655"/><line style="stroke:#000000;stroke-width:1;" x1="789.3291" x2="789.3291" y1="901.1655" y2="914.1655"/><line style="stroke:#000000;stroke-width:1;" x1="742.3291" x2="789.3291" y1="914.1655" y2="914.1655"/><polygon fill="#000000" points="752.3291,910.1655,742.3291,914.1655,752.3291,918.1655,748.3291,914.1655" style="stroke:#000000;stroke-width:1;"/><text fill="#FFFFFF" font-family="Verdana" font-size="13" font-weight="bold" lengthAdjust="spacing" textLength="18.4844" x="754.3291" y="896.436">10</text><text fill="#FFFFFF" font-family="Verdana" font-size="13" lengthAdjust="spacing" textLength="29.999" x="776.8135" y="896.436">Stop</text></g><path d="M664,922.1655 L664,947.1655 L930,947.1655 L930,932.1655 L920,922.1655 L664,922.1655" fill="#FFFFFF" style="stroke:#000000;stroke-width:1;"/><path d="M920,922.1655 L920,932.1655 L930,932.1655 L920,922.1655" fill="#FFFFFF" style="stroke:#000000;stroke-width:1;"/><text fill="#000000" font-family="Verdana" font-size="13" lengthAdjust="spacing" textLength="245.8638" x="670" y="940.2354">PeerB migrates (Same Identity/Keys)</text><rect fill="#000000" height="3" style="stroke:#000000;stroke-width:1;" width="930.8638" x="5" y="973.8645"/><line style="stroke:#FFFFFF;stroke-width:0.5;" x1="5" x2="935.8638" y1="973.8645" y2="973.8645"/><line style="stroke:#FFFFFF;stroke-width:0.5;" x1="5" x2="935.8638" y1="976.8645" y2="976.8645"/><rect fill="#000000" height="23.7993" style="stroke:#FFFFFF;stroke-width:1;" width="271.4546" x="334.7046" y="962.9648"/><text fill="#FFFFFF" font-family="Verdana" font-size="13" font-weight="bold" lengthAdjust="spacing" textLength="253.0112" x="340.7046" y="980.0347">Scenario 3: PeerB on Google Cloud</text><g class="message" data-participant-1="CL" data-participant-2="VIP"><polygon fill="#000000" points="453.2207,1014.5635,463.2207,1018.5635,453.2207,1022.5635,457.2207,1018.5635" style="stroke:#000000;stroke-width:1;"/><line style="stroke:#000000;stroke-width:1;" x1="267.4209" x2="459.2207" y1="1018.5635" y2="1018.5635"/><text fill="#FFFFFF" font-family="Verdana" font-size="13" font-weight="bold" lengthAdjust="spacing" textLength="18.4844" x="274.4209" y="1013.834">11</text><text fill="#FFFFFF" font-family="Verdana" font-size="13" lengthAdjust="spacing" textLength="128.6162" x="296.9053" y="1013.834">Connect(PeerID: B)</text></g><path d="M480,1031.5635 L480,1072.5635 L699,1072.5635 L699,1041.5635 L689,1031.5635 L480,1031.5635" fill="#FFFFFF" style="stroke:#000000;stroke-width:1;"/><path d="M689,1031.5635 L689,1041.5635 L699,1041.5635 L689,1031.5635" fill="#FFFFFF" style="stroke:#000000;stroke-width:1;"/><text fill="#000000" font-family="Verdana" font-size="13" lengthAdjust="spacing" textLength="125.5439" x="486" y="1049.6333">Resolves PeerID: B</text><text fill="#000000" font-family="Verdana" font-size="13" lengthAdjust="spacing" textLength="198.8848" x="486" y="1065.4326">-&gt; Physical IP: 34.x.x.x (GCP)</text><g class="message" data-participant-1="VIP" data-participant-2="GCP"><polygon fill="#000000" points="836.147,1095.9614,846.147,1099.9614,836.147,1103.9614,840.147,1099.9614" style="stroke:#000000;stroke-width:1;"/><line style="stroke:#000000;stroke-width:1;" x1="475.2207" x2="842.147" y1="1099.9614" y2="1099.9614"/><text fill="#FFFFFF" font-family="Verdana" font-size="13" font-weight="bold" lengthAdjust="spacing" textLength="18.4844" x="482.2207" y="1095.2319">12</text><text fill="#FFFFFF" font-family="Verdana" font-size="13" lengthAdjust="spacing" textLength="130.3174" x="504.7051" y="1095.2319">Forward Connection</text></g><g class="message" data-participant-1="GCP" data-participant-2="VIP"><polygon fill="#000000" points="486.2207,1125.7607,476.2207,1129.7607,486.2207,1133.7607,482.2207,1129.7607" style="stroke:#000000;stroke-width:1;"/><line style="stroke:#000000;stroke-width:1;stroke-dasharray:2.0,2.0;" x1="480.2207" x2="847.147" y1="1129.7607" y2="1129.7607"/><text fill="#FFFFFF" font-family="Verdana" font-size="13" font-weight="bold" lengthAdjust="spacing" textLength="18.4844" x="492.2207" y="1125.0313">13</text><text fill="#FFFFFF" font-family="Verdana" font-size="13" lengthAdjust="spacing" textLength="68.9038" x="514.7051" y="1125.0313">Connected</text></g><g class="message" data-participant-1="VIP" data-participant-2="CL"><polygon fill="#000000" points="278.4209,1155.5601,268.4209,1159.5601,278.4209,1163.5601,274.4209,1159.5601" style="stroke:#000000;stroke-width:1;"/><line style="stroke:#000000;stroke-width:1;stroke-dasharray:2.0,2.0;" x1="272.4209" x2="469.2207" y1="1159.5601" y2="1159.5601"/><text fill="#FFFFFF" font-family="Verdana" font-size="13" font-weight="bold" lengthAdjust="spacing" textLength="18.4844" x="284.4209" y="1154.8306">14</text><text fill="#FFFFFF" font-family="Verdana" font-size="13" lengthAdjust="spacing" textLength="151.3154" x="306.9053" y="1154.8306">Connection Established</text></g><path d="M30,1172.5601 L30,1213.5601 L261,1213.5601 L261,1182.5601 L251,1172.5601 L30,1172.5601" fill="#FFFFFF" style="stroke:#000000;stroke-width:1;"/><path d="M251,1172.5601 L251,1182.5601 L261,1182.5601 L251,1172.5601" fill="#FFFFFF" style="stroke:#000000;stroke-width:1;"/><text fill="#000000" font-family="Verdana" font-size="13" lengthAdjust="spacing" textLength="210.6533" x="36" y="1190.6299">PeerAClient Config UNCHANGED</text><text fill="#000000" font-family="Verdana" font-size="13" lengthAdjust="spacing" textLength="185.834" x="36" y="1206.4292">Still connecting to PeerID: B</text><!--SRC=[lLLjRzem4FwUNt5barQaTgFlBHAJGaeP6gKHKOk6a91935WDDdDCEpRjl-_i9DIyJfEwXW-0x-wvvxd7TlRKc4ueJ6F2kEDyW7ei1YI6YCX7I4C9LOhnKU8aZunFYIGJ693mSIJ5Z4UUY8M4ToNpM1aH7P9Ph6u4LrdAZNbqYvPGY3gb8HkoS1Cyrmc_7C2dkjefWp4n8ICgbndeTQjfjlfRjtL3XKkx-XAT4QXvJ84yqqHCw6emOnKeAgbGyobT5xZ285ir30BwVKPvYEAn1_Qsq9Cyb3PeiY5jCawN95eD5l4jHkWSdqZ5GZObN6s3kMPF30ExKFAKtGXR19kbH6y6nfbYWZjxx_rQhTrt-zvTywuD5IXWGVNSEohaeQeLkhpmQhMg3Zqq_FD-q_s62I_XC_FeSAtrq7Uxz-sQ5IsLBf388je9bdfUNPLAUQpk-LRizFZoxEQqeFbR8qoST0CKV4gbwyMCSbK0ae3NX2LDplIb20gQjqd37x2cmiQizlY- -tCcQR776tuPZaiVV-YFgNQxi3ITjS9Ea9MTdTfbdM1tNLs84UvsBnQpA0CuiG5mCYi0Zc8AAxIICcWOy8LKPC1YfkQGAe33pwOrVY50qN78J0a-cmoeT9nA1OAGSYAPWACKeWg2GrfPgJWuK2nyq5mymJaDrRvEQboNeLhK0jWJKNJBGCtL8Tbeh5A4DXxZ-8aci83eSKJtn_E4XNZFsPFEs1ST3QqbTCjuakKpaL7EH6_X1OCrKt3XS8KwZL8qNFQQPGi6QWbEBMR965CYQijAHSHqg4oDjU4Wp5512LlIFIT8au8OPdD453tfMpQIHBVB1tqhz32mMFk3mzQKKwM14bERYDjDUM21n3y7kY97cHXO1DeF2BuX6X5oG_i_VQNpnB9eVVijkNzikv_IUNFly-C2vWWjdDTIDrXlDlN_THZhXsm4zotlYzkgrwvxF50iZdFdyQsnPFrVNBRFjx4xFPL6tvhXdS1sl1CSwDFxZvPlk31ioqyiorUvlRdt9mllpIsLUMyqR_1UAtiLxws_YFcAM-4F]--></g></svg>