<svg xmlns="http://www.w3.org/2000/svg" xmlns:xlink="http://www.w3.org/1999/xlink" contentStyleType="text/css" data-diagram-type="DESCRIPTION" height="559px" preserveAspectRatio="none" style="width:1024px;height:559px;background:#000000;" version="1.1" viewBox="0 0 1024 559" width="1024px" zoomAndPan="magnify"><title>EPQB Network Topology</title><defs/><g><text fill="#FFFFFF" font-family="Verdana" font-size="22" font-weight="bold" lengthAdjust="spacing" textLength="300.1689" x="357.6814" y="37.1182">EPQB Network Topology</text><!--entity PA--><g class="entity" data-entity="PA" data-source-line="34" data-uid="ent0002" id="entity_PA"><ellipse cx="327.5" cy="74.7373" fill="#FFB6C1" rx="16" ry="16" style="stroke:#000000;stroke-width:1;"/><path d="M327.5,94.7373 C331.5,94.7373 334.5,94.7373 338.5,90.7373 C346.5,90.7373 354.5,98.7373 354.5,106.7373 L354.5,110.7373 C354.5,114.7373 350.5,118.7373 346.5,118.7373 L308.5,118.7373 C304.5,118.7373 300.5,114.7373 300.5,110.7373 L300.5,106.7373 C300.5,98.7373 308.5,90.7373 316.5,90.7373 C320.5,94.7373 323.5,94.7373 327.5,94.7373" fill="#FFB6C1" style="stroke:#000000;stroke-width:1;"/><text fill="#FFFFFF" font-family="Verdana" font-size="14" lengthAdjust="spacing" textLength="40.667" x="307.1665" y="133.8125">PeerA</text></g><!--entity PB--><g class="entity" data-entity="PB" data-source-line="35" data-uid="ent0003" id="entity_PB"><ellipse cx="371.5" cy="352.7373" fill="#87CEEB" rx="16" ry="16" style="stroke:#000000;stroke-width:1;"/><path d="M371.5,372.7373 C375.5,372.7373 378.5,372.7373 382.5,368.7373 C390.5,368.7373 398.5,376.7373 398.5,384.7373 L398.5,388.7373 C398.5,392.7373 394.5,396.7373 390.5,396.7373 L352.5,396.7373 C348.5,396.7373 344.5,392.7373 344.5,388.7373 L344.5,384.7373 C344.5,376.7373 352.5,368.7373 360.5,368.7373 C364.5,372.7373 367.5,372.7373 371.5,372.7373" fill="#87CEEB" style="stroke:#000000;stroke-width:1;"/><text fill="#FFFFFF" font-family="Verdana" font-size="14" lengthAdjust="spacing" textLength="40.6943" x="351.1528" y="411.8125">PeerB</text></g><!--entity PC--><g class="entity" data-entity="PC" data-source-line="36" data-uid="ent0004" id="entity_PC"><ellipse cx="663.5" cy="352.7373" fill="#DDA0DD" rx="16" ry="16" style="stroke:#000000;stroke-width:1;"/><path d="M663.5,372.7373 C667.5,372.7373 670.5,372.7373 674.5,368.7373 C682.5,368.7373 690.5,376.7373 690.5,384.7373 L690.5,388.7373 C690.5,392.7373 686.5,396.7373 682.5,396.7373 L644.5,396.7373 C640.5,396.7373 636.5,392.7373 636.5,388.7373 L636.5,384.7373 C636.5,376.7373 644.5,368.7373 652.5,368.7373 C656.5,372.7373 659.5,372.7373 663.5,372.7373" fill="#DDA0DD" style="stroke:#000000;stroke-width:1;"/><text fill="#FFFFFF" font-family="Verdana" font-size="14" lengthAdjust="spacing" textLength="40.8721" x="643.064" y="411.8125">PeerC</text></g><!--entity PD--><g class="entity" data-entity="PD" data-source-line="37" data-uid="ent0005" id="entity_PD"><ellipse cx="290.5" cy="491.7373" fill="#98FB98" rx="16" ry="16" style="stroke:#000000;stroke-width:1;"/><path d="M290.5,511.7373 C294.5,511.7373 297.5,511.7373 301.5,507.7373 C309.5,507.7373 317.5,515.7373 317.5,523.7373 L317.5,527.7373 C317.5,531.7373 313.5,535.7373 309.5,535.7373 L271.5,535.7373 C267.5,535.7373 263.5,531.7373 263.5,527.7373 L263.5,523.7373 C263.5,515.7373 271.5,507.7373 279.5,507.7373 C283.5,511.7373 286.5,511.7373 290.5,511.7373" fill="#98FB98" style="stroke:#000000;stroke-width:1;"/><text fill="#FFFFFF" font-family="Verdana" font-size="14" lengthAdjust="spacing" textLength="41.8838" x="269.5581" y="550.8125">PeerD</text></g><!--entity PE--><g class="entity" data-entity="PE" data-source-line="38" data-uid="ent0006" id="entity_PE"><ellipse cx="430.5" cy="213.7373" fill="#989E98" rx="16" ry="16" style="stroke:#000000;stroke-width:1;"/><path d="M430.5,233.7373 C434.5,233.7373 437.5,233.7373 441.5,229.7373 C449.5,229.7373 457.5,237.7373 457.5,245.7373 L457.5,249.7373 C457.5,253.7373 453.5,257.7373 449.5,257.7373 L411.5,257.7373 C407.5,257.7373 403.5,253.7373 403.5,249.7373 L403.5,245.7373 C403.5,237.7373 411.5,229.7373 419.5,229.7373 C423.5,233.7373 426.5,233.7373 430.5,233.7373" fill="#989E98" style="stroke:#000000;stroke-width:1;"/><text fill="#FFFFFF" font-family="Verdana" font-size="14" lengthAdjust="spacing" textLength="39.9492" x="410.5254" y="272.8125">PeerE</text></g><!--entity PF--><g class="entity" data-entity="PF" data-source-line="39" data-uid="ent0007" id="entity_PF"><ellipse cx="922.5" cy="213.7373" fill="#EEEEEE" rx="16" ry="16" style="stroke:#000000;stroke-width:1;"/><path d="M922.5,233.7373 C926.5,233.7373 929.5,233.7373 933.5,229.7373 C941.5,229.7373 949.5,237.7373 949.5,245.7373 L949.5,249.7373 C949.5,253.7373 945.5,257.7373 941.5,257.7373 L903.5,257.7373 C899.5,257.7373 895.5,253.7373 895.5,249.7373 L895.5,245.7373 C895.5,237.7373 903.5,229.7373 911.5,229.7373 C915.5,233.7373 918.5,233.7373 922.5,233.7373" fill="#EEEEEE" style="stroke:#000000;stroke-width:1;"/><text fill="#FFFFFF" font-family="Verdana" font-size="14" lengthAdjust="spacing" textLength="39.1426" x="902.9287" y="272.8125">PeerF</text></g><!--entity PCL--><g class="entity" data-entity="PCL" data-source-line="40" data-uid="ent0008" id="entity_PCL"><ellipse cx="922.6357" cy="74.7373" fill="#FFA07A" rx="16" ry="16" style="stroke:#000000;stroke-width:1;"/><path d="M922.6357,94.7373 C926.6357,94.7373 929.6357,94.7373 933.6357,90.7373 C941.6357,90.7373 949.6357,98.7373 949.6357,106.7373 L949.6357,110.7373 C949.6357,114.7373 945.6357,118.7373 941.6357,118.7373 L903.6357,118.7373 C899.6357,118.7373 895.6357,114.7373 895.6357,110.7373 L895.6357,106.7373 C895.6357,98.7373 903.6357,90.7373 911.6357,90.7373 C915.6357,94.7373 918.6357,94.7373 922.6357,94.7373" fill="#FFA07A" style="stroke:#000000;stroke-width:1;"/><text fill="#FFFFFF" font-family="Verdana" font-size="14" lengthAdjust="spacing" textLength="71.2715" x="887" y="133.8125">PeerClient</text></g><!--entity RP1--><g class="entity" data-entity="RP1" data-source-line="42" data-uid="ent0009" id="entity_RP1"><ellipse cx="533.3032" cy="213.7373" fill="#FFFFDD" rx="16" ry="16" style="stroke:#000000;stroke-width:1;"/><path d="M533.3032,233.7373 C537.3032,233.7373 540.3032,233.7373 544.3032,229.7373 C552.3032,229.7373 560.3032,237.7373 560.3032,245.7373 L560.3032,249.7373 C560.3032,253.7373 556.3032,257.7373 552.3032,257.7373 L514.3032,257.7373 C510.3032,257.7373 506.3032,253.7373 506.3032,249.7373 L506.3032,245.7373 C506.3032,237.7373 514.3032,229.7373 522.3032,229.7373 C526.3032,233.7373 529.3032,233.7373 533.3032,233.7373" fill="#FFFFDD" style="stroke:#000000;stroke-width:1;"/><text fill="#FFFFFF" font-family="Verdana" font-size="14" lengthAdjust="spacing" textLength="78.6064" x="494" y="272.8125">RelayPeer1</text></g><!--entity RP2--><g class="entity" data-entity="RP2" data-source-line="43" data-uid="ent0010" id="entity_RP2"><ellipse cx="327.3032" cy="213.7373" fill="#FFFFDD" rx="16" ry="16" style="stroke:#000000;stroke-width:1;"/><path d="M327.3032,233.7373 C331.3032,233.7373 334.3032,233.7373 338.3032,229.7373 C346.3032,229.7373 354.3032,237.7373 354.3032,245.7373 L354.3032,249.7373 C354.3032,253.7373 350.3032,257.7373 346.3032,257.7373 L308.3032,257.7373 C304.3032,257.7373 300.3032,253.7373 300.3032,249.7373 L300.3032,245.7373 C300.3032,237.7373 308.3032,229.7373 316.3032,229.7373 C320.3032,233.7373 323.3032,233.7373 327.3032,233.7373" fill="#FFFFDD" style="stroke:#000000;stroke-width:1;"/><text fill="#FFFFFF" font-family="Verdana" font-size="14" lengthAdjust="spacing" textLength="78.6064" x="288" y="272.8125">RelayPeer2</text></g><!--entity RP3--><g class="entity" data-entity="RP3" data-source-line="44" data-uid="ent0011" id="entity_RP3"><ellipse cx="213.3032" cy="213.7373" fill="#FFFFDD" rx="16" ry="16" style="stroke:#000000;stroke-width:1;"/><path d="M213.3032,233.7373 C217.3032,233.7373 220.3032,233.7373 224.3032,229.7373 C232.3032,229.7373 240.3032,237.7373 240.3032,245.7373 L240.3032,249.7373 C240.3032,253.7373 236.3032,257.7373 232.3032,257.7373 L194.3032,257.7373 C190.3032,257.7373 186.3032,253.7373 186.3032,249.7373 L186.3032,245.7373 C186.3032,237.7373 194.3032,229.7373 202.3032,229.7373 C206.3032,233.7373 209.3032,233.7373 213.3032,233.7373" fill="#FFFFDD" style="stroke:#000000;stroke-width:1;"/><text fill="#FFFFFF" font-family="Verdana" font-size="14" lengthAdjust="spacing" textLength="78.6064" x="174" y="272.8125">RelayPeer3</text></g><g class="entity" data-entity="GMN24" data-source-line="72" data-uid="ent0025" id="entity_GMN24"><path d="M391,60.7373 L391,93.2373 L355.51,97.2373 L391,101.2373 L391,133.9346 A0,0 0 0 0 391,133.9346 L668.2739,133.9346 A0,0 0 0 0 668.2739,133.9346 L668.2739,70.7373 L658.2739,60.7373 L391,60.7373 A0,0 0 0 0 391,60.7373" fill="#FFFFFF" style="stroke:#000000;stroke-width:1;"/><path d="M658.2739,60.7373 L658.2739,70.7373 L668.2739,70.7373 L658.2739,60.7373" fill="#FFFFFF" style="stroke:#000000;stroke-width:1;"/><text fill="#000000" font-family="Verdana" font-size="13" lengthAdjust="spacing" textLength="208" x="397" y="78.8071">PeerA connects to multiple Peer</text><text fill="#000000" font-family="Verdana" font-size="13" lengthAdjust="spacing" textLength="256.2739" x="397" y="94.6064">by RelayPeers or direct bridge to PeerE</text><text fill="#000000" font-family="Verdana" font-size="13" lengthAdjust="spacing" textLength="205.3213" x="397" y="110.4058">To connect to PeerD is selected</text><text fill="#000000" font-family="Verdana" font-size="13" lengthAdjust="spacing" textLength="147.1387" x="397" y="126.2051">the fastest RelayPeer3</text></g><g class="entity" data-entity="GMN27" data-source-line="79" data-uid="ent0028" id="entity_GMN27"><path d="M442,346.7373 L442,404.1353 A0,0 0 0 0 442,404.1353 L600.8901,404.1353 A0,0 0 0 0 600.8901,404.1353 L600.8901,356.7373 L590.8901,346.7373 L527.94,346.7373 L530.13,275.7673 L519.94,346.7373 L442,346.7373 A0,0 0 0 0 442,346.7373" fill="#FFFFFF" style="stroke:#000000;stroke-width:1;"/><path d="M590.8901,346.7373 L590.8901,356.7373 L600.8901,356.7373 L590.8901,346.7373" fill="#FFFFFF" style="stroke:#000000;stroke-width:1;"/><text fill="#000000" font-family="Verdana" font-size="13" lengthAdjust="spacing" textLength="124.7124" x="448" y="364.8071">RelayPeers provide</text><text fill="#000000" font-family="Verdana" font-size="13" lengthAdjust="spacing" textLength="137.8901" x="448" y="380.6064">signaling and routing</text><text fill="#000000" font-family="Verdana" font-size="13" lengthAdjust="spacing" textLength="115.6733" x="448" y="396.4058">services for peers</text></g><g class="entity" data-entity="GMN30" data-source-line="85" data-uid="ent0031" id="entity_GMN30"><path d="M11,346.7373 L11,404.1353 A0,0 0 0 0 11,404.1353 L166.437,404.1353 A0,0 0 0 0 166.437,404.1353 L166.437,379.2373 L343.43,375.2373 L166.437,371.2373 L166.437,356.7373 L156.437,346.7373 L11,346.7373 A0,0 0 0 0 11,346.7373" fill="#FFFFFF" style="stroke:#000000;stroke-width:1;"/><path d="M156.437,346.7373 L156.437,356.7373 L166.437,356.7373 L156.437,346.7373" fill="#FFFFFF" style="stroke:#000000;stroke-width:1;"/><text fill="#000000" font-family="Verdana" font-size="13" lengthAdjust="spacing" textLength="120.4912" x="17" y="364.8071">PeerB can connect</text><text fill="#000000" font-family="Verdana" font-size="13" lengthAdjust="spacing" textLength="109.1606" x="17" y="380.6064">directly to PeerD</text><text fill="#000000" font-family="Verdana" font-size="13" lengthAdjust="spacing" textLength="134.437" x="17" y="396.4058">bypassing RelayPeer</text></g><g class="entity" data-entity="GMN33" data-source-line="91" data-uid="ent0034" id="entity_GMN33"><path d="M703,68.7373 L703,126.1353 A0,0 0 0 0 703,126.1353 L852.2798,126.1353 A0,0 0 0 0 852.2798,126.1353 L852.2798,101.2373 L886.83,97.2373 L852.2798,93.2373 L852.2798,78.7373 L842.2798,68.7373 L703,68.7373 A0,0 0 0 0 703,68.7373" fill="#FFFFFF" style="stroke:#000000;stroke-width:1;"/><path d="M842.2798,68.7373 L842.2798,78.7373 L852.2798,78.7373 L842.2798,68.7373" fill="#FFFFFF" style="stroke:#000000;stroke-width:1;"/><text fill="#000000" font-family="Verdana" font-size="13" lengthAdjust="spacing" textLength="128.2798" x="709" y="86.8071">PeerClient connects</text><text fill="#000000" font-family="Verdana" font-size="13" lengthAdjust="spacing" textLength="96.6304" x="709" y="102.6064">via RelayPeer1</text><text fill="#000000" font-family="Verdana" font-size="13" lengthAdjust="spacing" textLength="95.3545" x="709" y="118.4058">direct to PeerF</text></g><g class="entity" data-entity="GMN36" data-source-line="97" data-uid="ent0037" id="entity_GMN36"><path d="M827.5,362.2373 L827.5,388.0366 A0,0 0 0 0 827.5,388.0366 L1017.5317,388.0366 A0,0 0 0 0 1017.5317,388.0366 L1017.5317,372.2373 L1007.5317,362.2373 L926.5,362.2373 L922.5,275.7673 L918.5,362.2373 L827.5,362.2373 A0,0 0 0 0 827.5,362.2373" fill="#FFFFFF" style="stroke:#000000;stroke-width:1;"/><path d="M1007.5317,362.2373 L1007.5317,372.2373 L1017.5317,372.2373 L1007.5317,362.2373" fill="#FFFFFF" style="stroke:#000000;stroke-width:1;"/><text fill="#000000" font-family="Verdana" font-size="13" lengthAdjust="spacing" textLength="169.0317" x="833.5" y="380.3071">PeerF is private local Peer</text></g><g class="entity" data-entity="GMN39" data-source-line="101" data-uid="ent0040" id="entity_GMN39"><path d="M72,485.7373 L72,543.1353 A0,0 0 0 0 72,543.1353 L227.437,543.1353 A0,0 0 0 0 227.437,543.1353 L227.437,518.2373 L262.29,514.2373 L227.437,510.2373 L227.437,495.7373 L217.437,485.7373 L72,485.7373 A0,0 0 0 0 72,485.7373" fill="#FFFFFF" style="stroke:#000000;stroke-width:1;"/><path d="M217.437,485.7373 L217.437,495.7373 L227.437,495.7373 L217.437,485.7373" fill="#FFFFFF" style="stroke:#000000;stroke-width:1;"/><text fill="#000000" font-family="Verdana" font-size="13" lengthAdjust="spacing" textLength="131.168" x="78" y="503.8071">To connect to PeerB</text><text fill="#000000" font-family="Verdana" font-size="13" lengthAdjust="spacing" textLength="109.1606" x="78" y="519.6064">directly to PeerD</text><text fill="#000000" font-family="Verdana" font-size="13" lengthAdjust="spacing" textLength="134.437" x="78" y="535.4058">bypassing RelayPeer</text></g><!--link PA to RP1--><g class="link" data-entity-1="PA" data-entity-2="RP1" data-source-line="47" data-uid="lnk12" id="link_PA_RP1"><path d="M355.63,123.0173 C361.4,127.7573 367.54,132.5373 373.5,136.7373 C416.48,167.0473 430.91,168.8473 475.5,196.7373 C481.44,200.4573 482.6461,201.1869 488.7261,205.1569" fill="none" id="PA-to-RP1" style="stroke:#FFB6C1;stroke-width:1;"/><polygon fill="#FFB6C1" points="493.75,208.4373,488.4011,200.1675,489.5635,205.7037,484.0273,206.866,493.75,208.4373" style="stroke:#FFB6C1;stroke-width:1;"/></g><!--link PA to PE--><g class="link" data-entity-1="PA" data-entity-2="PE" data-source-line="48" data-uid="lnk13" id="link_PA_PE"><path d="M355.65,135.6773 C370.18,155.0073 384.2536,173.7321 398.7836,193.0521" fill="none" id="PA-to-PE" style="stroke:#FFB6C1;stroke-width:1;"/><polygon fill="#FFB6C1" points="402.39,197.8473,400.1773,188.2502,399.3847,193.8513,393.7837,193.0587,402.39,197.8473" style="stroke:#FFB6C1;stroke-width:1;"/></g><!--link PA to RP2--><g class="link" data-entity-1="PA" data-entity-2="RP2" data-source-line="49" data-uid="lnk14" id="link_PA_RP2"><path d="M327.5,136.7673 C327.5,155.4373 327.5,171.8273 327.5,190.5273" fill="none" id="PA-to-RP2" style="stroke:#FFB6C1;stroke-width:1;"/><polygon fill="#FFB6C1" points="327.5,196.5273,331.5,187.5273,327.5,191.5273,323.5,187.5273,327.5,196.5273" style="stroke:#FFB6C1;stroke-width:1;"/></g><!--link PA to RP3--><g class="link" data-entity-1="PA" data-entity-2="RP3" data-source-line="50" data-uid="lnk15" id="link_PA_RP3"><path d="M299.32,132.1073 C283.1,151.5973 266.4982,171.5556 249.6282,191.8256" fill="none" id="PA-to-RP3" style="stroke:#FFB6C1;stroke-width:1;"/><polygon fill="#FFB6C1" points="245.79,196.4373,254.6218,192.0785,248.9885,192.5942,248.4728,186.9609,245.79,196.4373" style="stroke:#FFB6C1;stroke-width:1;"/></g><!--link RP1 to PB--><g class="link" data-entity-1="RP1" data-entity-2="PB" data-source-line="53" data-uid="lnk16" id="link_RP1_PB"><path d="M493.87,270.7473 C464.64,295.4673 430.1814,324.6129 404.1314,346.6429" fill="none" id="RP1-to-PB" style="stroke:#FFFFDD;stroke-width:1;"/><polygon fill="#FFFFDD" points="399.55,350.5173,409.005,347.76,403.3678,347.2886,403.8391,341.6515,399.55,350.5173" style="stroke:#FFFFDD;stroke-width:1;"/></g><!--link RP2 to PB--><g class="link" data-entity-1="RP2" data-entity-2="PB" data-source-line="54" data-uid="lnk17" id="link_RP2_PB"><path d="M339.87,275.7673 C345.87,294.4373 351.2241,311.1151 357.2341,329.8151" fill="none" id="RP2-to-PB" style="stroke:#FFFFDD;stroke-width:1;"/><polygon fill="#FFFFDD" points="359.07,335.5273,360.1244,325.735,357.5401,330.7671,352.5081,328.1829,359.07,335.5273" style="stroke:#FFFFDD;stroke-width:1;"/></g><!--link RP1 to PC--><g class="link" data-entity-1="RP1" data-entity-2="PC" data-source-line="57" data-uid="lnk18" id="link_RP1_PC"><path d="M570.06,275.7673 C590.79,297.6073 612.19,320.1649 631.32,340.3249" fill="none" id="RP1-to-PC" style="stroke:#FFFFDD;stroke-width:1;"/><polygon fill="#FFFFDD" points="635.45,344.6773,632.1566,335.3954,632.0083,341.0503,626.3534,340.9021,635.45,344.6773" style="stroke:#FFFFDD;stroke-width:1;"/></g><!--link RP2 to PD--><g class="link" data-entity-1="RP2" data-entity-2="PD" data-source-line="61" data-uid="lnk19" id="link_RP2_PD"><path d="M322.32,275.9073 C315.28,328.4273 303.5569,415.8305 296.5069,468.4405" fill="none" id="RP2-to-PD" style="stroke:#FFFFDD;stroke-width:1;"/><polygon fill="#FFFFDD" points="295.71,474.3873,300.8699,465.9983,296.3741,469.4316,292.9408,464.9358,295.71,474.3873" style="stroke:#FFFFDD;stroke-width:1;"/></g><!--link RP3 to PD--><g class="link" data-entity-1="RP3" data-entity-2="PD" data-source-line="62" data-uid="lnk20" id="link_RP3_PD"><path d="M224.29,275.9073 C238.94,328.4273 263.3674,415.9981 278.0474,468.6081" fill="none" id="RP3-to-PD" style="stroke:#FFFFDD;stroke-width:1;"/><polygon fill="#FFFFDD" points="279.66,474.3873,281.0939,464.6434,278.3162,469.5713,273.3883,466.7935,279.66,474.3873" style="stroke:#FFFFDD;stroke-width:1;"/></g><!--link PB to PD--><g class="link" data-entity-1="PB" data-entity-2="PD" data-source-line="65" data-uid="lnk21" id="link_PB_PD"><path d="M348.72,414.7673 C337.68,433.4373 327.5044,450.663 316.4444,469.363" fill="none" id="PB-to-PD" style="stroke:#87CEEB;stroke-width:1;"/><polygon fill="#87CEEB" points="313.39,474.5273,321.4145,468.8171,315.9354,470.2237,314.5287,464.7445,313.39,474.5273" style="stroke:#87CEEB;stroke-width:1;"/></g><!--link PCL to RP1--><g class="link" data-entity-1="PCL" data-entity-2="RP1" data-source-line="68" data-uid="lnk22" id="link_PCL_RP1"><path d="M886.76,126.6773 C881.17,130.3873 875.32,133.8773 869.5,136.7373 C768.43,186.3973 643.5816,214.6317 579.0416,227.0717" fill="none" id="PCL-to-RP1" style="stroke:#FFA07A;stroke-width:1;"/><polygon fill="#FFA07A" points="573.15,228.2073,582.7444,230.4316,578.0596,227.261,581.2303,222.5762,573.15,228.2073" style="stroke:#FFA07A;stroke-width:1;"/></g><!--link PCL to PF--><g class="link" data-entity-1="PCL" data-entity-2="PF" data-source-line="69" data-uid="lnk23" id="link_PCL_PF"><path d="M922.5,136.7673 C922.5,155.4373 922.5,171.8273 922.5,190.5273" fill="none" id="PCL-to-PF" style="stroke:#FFA07A;stroke-width:1;"/><polygon fill="#FFA07A" points="922.5,196.5273,926.5,187.5273,922.5,191.5273,918.5,187.5273,922.5,196.5273" style="stroke:#FFA07A;stroke-width:1;"/></g><!--SRC=[dLLTQzim57tNhxZD1digD0cixSC6_f378BHUsfSoHb5i9HLr96EfAM7il-zA_eZiDEwO7-yvElVUSw-bC_F4jnpAWWb9o2VuLgWLAo1drJFKaER62BdHH3yBMRAARM75ikTDfLva7gb2LV3XmdqU8-ThzbAOH4dJK1BtsHGtog1goJEn5jbRyj8IVXF0BnncQcGSfggSL_qARDnBsaJ_sBH1PZ0qbfTPnftP5npOAzTgouTWKzMTuHLNPb_oumO75JHHLu4BQUkDaC889SdPnvJIvMFm6DqkRfVm1IPu8FmSJISj57hGrML4QTX1aGV5SN0HnnqKUz3rLH9UNtKGxK7Nr8CI3wBkiz2IBeA7npgZLsMIUFcYnNTwSz_3WulBO4A84GRjfEcF46wuULMuLlUgH2Cs-suecjJcJbBEgs02J4CQGCyQdn7MZ11w3lcCg6P4q3FAPyGr8uQUNpw3rWmAFTjyHb8p4kYvrwkZ45oQffW577j5MlQI5snlZqmTUvbEuSZu8-wiuSx-WJjlkFCtk3W7vpnaIagUsStKO1HiyGyM9OwlKz441tF-ipUQN-TVRRqda9IUF38xYSnjIOUamxhS4X3h4PuUTkEIMdGsWhuh7utAH-HzXNYq18lEHr2KZqM5afvqtVT17_-0rhrmUFYmVPRVLKhi6hQ7_4NiXZY2ftXxkwkv4fid0sgDVobUTxtLwU-DImcmsljUuLhcTMkhIkGRtZP4aNclMg6kJH0Qx-e2Gpn71hv9i6RQS6qEedF2PUwUZQR2bJ96RMs9jYdmqvULsecSOr2BZMG5lW70y3G-ClOzi75UxKJ6DQonrD9j_K2-uEkw_x3fFuICoRPqZDKD5ll3iAmB9TFQfZkCuvHkj6Y4cncsxc9q9zX1ODhbQZCbfwr8aqOqiPwMbTWncrDb-DwFLXE_EPdmV_hy2m00]--></g></svg>