<svg xmlns="http://www.w3.org/2000/svg" xmlns:xlink="http://www.w3.org/1999/xlink" contentStyleType="text/css" data-diagram-type="DESCRIPTION" height="906px" preserveAspectRatio="none" style="width:898px;height:906px;background:#000000;" version="1.1" viewBox="0 0 898 906" width="898px" zoomAndPan="magnify"><title>PQCES Actors Overview</title><defs/><g><text fill="#FFFFFF" font-family="Verdana" font-size="22" font-weight="bold" lengthAdjust="spacing" textLength="292.1016" x="298.897" y="37.1182">PQCES Actors Overview</text><!--entity MP--><g class="entity" data-entity="MP" data-source-line="119" data-uid="ent0002" id="entity_MP"><ellipse cx="796.1406" cy="112.2373" fill="#90EE90" rx="16" ry="16" style="stroke:#000000;stroke-width:1;"/><path d="M796.1406,132.2373 C800.1406,132.2373 803.1406,132.2373 807.1406,128.2373 C815.1406,128.2373 823.1406,136.2373 823.1406,144.2373 L823.1406,148.2373 C823.1406,152.2373 819.1406,156.2373 815.1406,156.2373 L777.1406,156.2373 C773.1406,156.2373 769.1406,152.2373 769.1406,148.2373 L769.1406,144.2373 C769.1406,136.2373 777.1406,128.2373 785.1406,128.2373 C789.1406,132.2373 792.1406,132.2373 796.1406,132.2373" fill="#90EE90" style="stroke:#000000;stroke-width:1;"/><text fill="#FFFFFF" font-family="Verdana" font-size="14" lengthAdjust="spacing" textLength="87.2813" x="752.5" y="171.3125">EMasterPeer</text></g><!--entity MP_CARD--><g class="entity" data-entity="MP_CARD" data-source-line="120" data-uid="ent0003" id="entity_MP_CARD"><rect fill="#000000" height="23.0146" rx="2.5" ry="2.5" style="stroke:#FFFFFF;stroke-width:1;" width="208.4463" x="12" y="123.2373"/><text fill="#FFFFFF" font-family="Verdana" font-size="14" lengthAdjust="spacing" textLength="188.4463" x="22" y="140.3125">EMasterPeer Specifications</text></g><g class="entity" data-entity="GMN4" data-source-line="122" data-uid="ent0005" id="entity_GMN4"><path d="M255.5,58.7373 L255.5,130.7373 L220,134.7373 L255.5,138.7373 L255.5,210.9312 A0,0 0 0 0 255.5,210.9312 L576.3696,210.9312 A0,0 0 0 0 576.3696,210.9312 L576.3696,68.7373 L566.3696,58.7373 L255.5,58.7373 A0,0 0 0 0 255.5,58.7373" fill="#FFFFFF" style="stroke:#000000;stroke-width:1;"/><path d="M566.3696,58.7373 L566.3696,68.7373 L576.3696,68.7373 L566.3696,58.7373" fill="#FFFFFF" style="stroke:#000000;stroke-width:1;"/><text fill="#000000" font-family="Verdana" font-size="13" font-weight="bold" lengthAdjust="spacing" textLength="197.6152" x="261.5" y="76.8071">Cryptographic Capabilities:</text><text fill="#000000" font-family="Verdana" font-size="13" lengthAdjust="spacing" textLength="220.1431" x="261.5" y="92.6064">- Kyber-1024 (NIST Level 5) KEM</text><text fill="#000000" font-family="Verdana" font-size="13" lengthAdjust="spacing" textLength="299.8696" x="261.5" y="108.4058">- Dilithium-5 (NIST Level 5) digital signatures</text><text fill="#000000" font-family="Verdana" font-size="13" lengthAdjust="spacing" textLength="4.5703" x="261.5" y="124.2051">&#160;</text><text fill="#000000" font-family="Verdana" font-size="13" font-weight="bold" lengthAdjust="spacing" textLength="75.9624" x="261.5" y="140.0044">Maintains:</text><text fill="#000000" font-family="Verdana" font-size="13" lengthAdjust="spacing" textLength="162.9253" x="261.5" y="155.8037">- Peer certificate registry</text><text fill="#000000" font-family="Verdana" font-size="13" lengthAdjust="spacing" textLength="243.9976" x="261.5" y="171.603">- Public key directory &amp; trust anchors</text><text fill="#000000" font-family="Verdana" font-size="13" lengthAdjust="spacing" textLength="257.8354" x="261.5" y="187.4023">- Certificate issuance &amp; revocation data</text><text fill="#000000" font-family="Verdana" font-size="13" lengthAdjust="spacing" textLength="213.9604" x="261.5" y="203.2017">- Cryptographic material storage</text></g><!--entity DB--><g class="entity" data-entity="DB" data-source-line="134" data-uid="ent0007" id="entity_DB"><path d="M710.5,805.2373 C710.5,795.2373 796.1978,795.2373 796.1978,795.2373 C796.1978,795.2373 881.8955,795.2373 881.8955,805.2373 L881.8955,831.252 C881.8955,841.252 796.1978,841.252 796.1978,841.252 C796.1978,841.252 710.5,841.252 710.5,831.252 L710.5,805.2373" fill="#FBFF00" style="stroke:#000000;stroke-width:1;"/><path d="M710.5,805.2373 C710.5,815.2373 796.1978,815.2373 796.1978,815.2373 C796.1978,815.2373 881.8955,815.2373 881.8955,805.2373" fill="none" style="stroke:#000000;stroke-width:1;"/><text fill="#000000" font-family="Verdana" font-size="14" lengthAdjust="spacing" textLength="151.3955" x="720.5" y="833.3125">Certificate Repository</text></g><!--entity SYS_CARD--><g class="entity" data-entity="SYS_CARD" data-source-line="135" data-uid="ent0008" id="entity_SYS_CARD"><rect fill="#000000" height="23.0146" rx="2.5" ry="2.5" style="stroke:#FFFFFF;stroke-width:1;" width="171.3955" x="30.5" y="806.7373"/><text fill="#FFFFFF" font-family="Verdana" font-size="14" lengthAdjust="spacing" textLength="151.3955" x="40.5" y="823.8125">Certificate Repository</text></g><g class="entity" data-entity="GMN9" data-source-line="137" data-uid="ent0010" id="entity_GMN9"><path d="M236.5,765.7373 L236.5,814.2373 L201.66,818.2373 L236.5,822.2373 L236.5,870.5332 A0,0 0 0 0 236.5,870.5332 L675.6328,870.5332 A0,0 0 0 0 675.6328,870.5332 L675.6328,775.7373 L665.6328,765.7373 L236.5,765.7373 A0,0 0 0 0 236.5,765.7373" fill="#FFFFFF" style="stroke:#000000;stroke-width:1;"/><path d="M665.6328,765.7373 L665.6328,775.7373 L675.6328,775.7373 L665.6328,765.7373" fill="#FFFFFF" style="stroke:#000000;stroke-width:1;"/><text fill="#000000" font-family="Verdana" font-size="13" font-weight="bold" lengthAdjust="spacing" textLength="83.9731" x="242.5" y="783.8071">Repository:</text><text fill="#000000" font-family="Verdana" font-size="13" lengthAdjust="spacing" textLength="326.644" x="242.5" y="799.6064">- certificates with Dilithium signatures MasterPeer</text><text fill="#000000" font-family="Verdana" font-size="13" lengthAdjust="spacing" textLength="224.1484" x="242.5" y="815.4058">- Peer IDs (32-byte SHA3 hashes)</text><text fill="#000000" font-family="Verdana" font-size="13" lengthAdjust="spacing" textLength="239.4146" x="242.5" y="831.2051">- Public key chains &amp; revocation lists</text><text fill="#000000" font-family="Verdana" font-size="13" lengthAdjust="spacing" textLength="260.9966" x="242.5" y="847.0044">- Metadata: issuance, expiration, status</text><text fill="#000000" font-family="Verdana" font-size="13" lengthAdjust="spacing" textLength="418.1328" x="242.5" y="862.8037">- Secure storage (Evo Memento, Other decentralized channels )</text></g><!--entity PA--><g class="entity" data-entity="PA" data-source-line="146" data-uid="ent0012" id="entity_PA"><ellipse cx="796" cy="300.7373" fill="#87CEEB" rx="16" ry="16" style="stroke:#000000;stroke-width:1;"/><path d="M796,320.7373 C800,320.7373 803,320.7373 807,316.7373 C815,316.7373 823,324.7373 823,332.7373 L823,336.7373 C823,340.7373 819,344.7373 815,344.7373 L777,344.7373 C773,344.7373 769,340.7373 769,336.7373 L769,332.7373 C769,324.7373 777,316.7373 785,316.7373 C789,320.7373 792,320.7373 796,320.7373" fill="#87CEEB" style="stroke:#000000;stroke-width:1;"/><text fill="#FFFFFF" font-family="Verdana" font-size="14" lengthAdjust="spacing" textLength="49.5195" x="771.2402" y="359.8125">EPeerA</text></g><!--entity PA_CARD--><g class="entity" data-entity="PA_CARD" data-source-line="147" data-uid="ent0013" id="entity_PA_CARD"><rect fill="#000000" height="23.0146" rx="2.5" ry="2.5" style="stroke:#FFFFFF;stroke-width:1;" width="170.6846" x="30.5" y="311.7373"/><text fill="#FFFFFF" font-family="Verdana" font-size="14" lengthAdjust="spacing" textLength="150.6846" x="40.5" y="328.8125">EPeerA Specifications</text></g><g class="entity" data-entity="GMN14" data-source-line="149" data-uid="ent0015" id="entity_GMN14"><path d="M237,270.7373 L237,319.2373 L201.84,323.2373 L237,327.2373 L237,375.5332 A0,0 0 0 0 237,375.5332 L700.7173,375.5332 A0,0 0 0 0 700.7173,375.5332 L700.7173,280.7373 L690.7173,270.7373 L237,270.7373 A0,0 0 0 0 237,270.7373" fill="#FFFFFF" style="stroke:#000000;stroke-width:1;"/><path d="M690.7173,270.7373 L690.7173,280.7373 L700.7173,280.7373 L690.7173,270.7373" fill="#FFFFFF" style="stroke:#000000;stroke-width:1;"/><text fill="#000000" font-family="Verdana" font-size="13" lengthAdjust="spacing" textLength="442.7173" x="243" y="288.8071">- Unique Peer ID (32-byte hash, e.g. BLAKE3 from peer Public Key)</text><text fill="#000000" font-family="Verdana" font-size="13" lengthAdjust="spacing" textLength="257.4165" x="243" y="304.6064">- Kyber-1024 keypair for key exchange</text><text fill="#000000" font-family="Verdana" font-size="13" lengthAdjust="spacing" textLength="312.2983" x="243" y="320.4058">- ChaCha20-Poly1305 for symmetric encryption</text><text fill="#000000" font-family="Verdana" font-size="13" lengthAdjust="spacing" textLength="268.0234" x="243" y="336.2051">- Certificate chain issued by EMasterPeer</text><text fill="#000000" font-family="Verdana" font-size="13" lengthAdjust="spacing" textLength="373.7817" x="243" y="352.0044">- Embedded EMasterPeer public keys (Kyber &amp; Dilithium)</text><text fill="#000000" font-family="Verdana" font-size="13" lengthAdjust="spacing" textLength="299.1523" x="243" y="367.8037">- Supports multiple simultaneous connections</text></g><!--entity PB--><g class="entity" data-entity="PB" data-source-line="158" data-uid="ent0017" id="entity_PB"><ellipse cx="796" cy="465.7373" fill="#FFB6C1" rx="16" ry="16" style="stroke:#000000;stroke-width:1;"/><path d="M796,485.7373 C800,485.7373 803,485.7373 807,481.7373 C815,481.7373 823,489.7373 823,497.7373 L823,501.7373 C823,505.7373 819,509.7373 815,509.7373 L777,509.7373 C773,509.7373 769,505.7373 769,501.7373 L769,497.7373 C769,489.7373 777,481.7373 785,481.7373 C789,485.7373 792,485.7373 796,485.7373" fill="#FFB6C1" style="stroke:#000000;stroke-width:1;"/><text fill="#FFFFFF" font-family="Verdana" font-size="14" lengthAdjust="spacing" textLength="49.5469" x="771.2266" y="524.8125">EPeerB</text></g><!--entity PB_CARD--><g class="entity" data-entity="PB_CARD" data-source-line="159" data-uid="ent0018" id="entity_PB_CARD"><rect fill="#000000" height="23.0146" rx="2.5" ry="2.5" style="stroke:#FFFFFF;stroke-width:1;" width="170.7119" x="30.5" y="476.7373"/><text fill="#FFFFFF" font-family="Verdana" font-size="14" lengthAdjust="spacing" textLength="150.7119" x="40.5" y="493.8125">EPeerB Specifications</text></g><g class="entity" data-entity="GMN19" data-source-line="161" data-uid="ent0020" id="entity_GMN19"><path d="M237,435.7373 L237,484.2373 L201.84,488.2373 L237,492.2373 L237,540.5332 A0,0 0 0 0 237,540.5332 L700.7173,540.5332 A0,0 0 0 0 700.7173,540.5332 L700.7173,445.7373 L690.7173,435.7373 L237,435.7373 A0,0 0 0 0 237,435.7373" fill="#FFFFFF" style="stroke:#000000;stroke-width:1;"/><path d="M690.7173,435.7373 L690.7173,445.7373 L700.7173,445.7373 L690.7173,435.7373" fill="#FFFFFF" style="stroke:#000000;stroke-width:1;"/><text fill="#000000" font-family="Verdana" font-size="13" lengthAdjust="spacing" textLength="442.7173" x="243" y="453.8071">- Unique Peer ID (32-byte hash, e.g. BLAKE3 from peer Public Key)</text><text fill="#000000" font-family="Verdana" font-size="13" lengthAdjust="spacing" textLength="257.4165" x="243" y="469.6064">- Kyber-1024 keypair for key exchange</text><text fill="#000000" font-family="Verdana" font-size="13" lengthAdjust="spacing" textLength="312.2983" x="243" y="485.4058">- ChaCha20-Poly1305 for symmetric encryption</text><text fill="#000000" font-family="Verdana" font-size="13" lengthAdjust="spacing" textLength="268.0234" x="243" y="501.2051">- Certificate chain issued by EMasterPeer</text><text fill="#000000" font-family="Verdana" font-size="13" lengthAdjust="spacing" textLength="373.7817" x="243" y="517.0044">- Embedded EMasterPeer public keys (Kyber &amp; Dilithium)</text><text fill="#000000" font-family="Verdana" font-size="13" lengthAdjust="spacing" textLength="299.1523" x="243" y="532.8037">- Supports multiple simultaneous connections</text></g><!--entity PN--><g class="entity" data-entity="PN" data-source-line="170" data-uid="ent0022" id="entity_PN"><ellipse cx="796" cy="630.7373" fill="#DDA0DD" rx="16" ry="16" style="stroke:#000000;stroke-width:1;"/><path d="M796,650.7373 C800,650.7373 803,650.7373 807,646.7373 C815,646.7373 823,654.7373 823,662.7373 L823,666.7373 C823,670.7373 819,674.7373 815,674.7373 L777,674.7373 C773,674.7373 769,670.7373 769,666.7373 L769,662.7373 C769,654.7373 777,646.7373 785,646.7373 C789,650.7373 792,650.7373 796,650.7373" fill="#DDA0DD" style="stroke:#000000;stroke-width:1;"/><text fill="#FFFFFF" font-family="Verdana" font-size="14" lengthAdjust="spacing" textLength="50.4219" x="770.7891" y="689.8125">EPeerN</text></g><!--entity PN_CARD--><g class="entity" data-entity="PN_CARD" data-source-line="171" data-uid="ent0023" id="entity_PN_CARD"><rect fill="#000000" height="23.0146" rx="2.5" ry="2.5" style="stroke:#FFFFFF;stroke-width:1;" width="171.5869" x="30" y="641.7373"/><text fill="#FFFFFF" font-family="Verdana" font-size="14" lengthAdjust="spacing" textLength="151.5869" x="40" y="658.8125">EPeerN Specifications</text></g><g class="entity" data-entity="GMN24" data-source-line="173" data-uid="ent0025" id="entity_GMN24"><path d="M237,600.7373 L237,649.2373 L202.18,653.2373 L237,657.2373 L237,705.5332 A0,0 0 0 0 237,705.5332 L700.7173,705.5332 A0,0 0 0 0 700.7173,705.5332 L700.7173,610.7373 L690.7173,600.7373 L237,600.7373 A0,0 0 0 0 237,600.7373" fill="#FFFFFF" style="stroke:#000000;stroke-width:1;"/><path d="M690.7173,600.7373 L690.7173,610.7373 L700.7173,610.7373 L690.7173,600.7373" fill="#FFFFFF" style="stroke:#000000;stroke-width:1;"/><text fill="#000000" font-family="Verdana" font-size="13" lengthAdjust="spacing" textLength="442.7173" x="243" y="618.8071">- Unique Peer ID (32-byte hash, e.g. BLAKE3 from peer Public Key)</text><text fill="#000000" font-family="Verdana" font-size="13" lengthAdjust="spacing" textLength="257.4165" x="243" y="634.6064">- Kyber-1024 keypair for key exchange</text><text fill="#000000" font-family="Verdana" font-size="13" lengthAdjust="spacing" textLength="312.2983" x="243" y="650.4058">- ChaCha20-Poly1305 for symmetric encryption</text><text fill="#000000" font-family="Verdana" font-size="13" lengthAdjust="spacing" textLength="268.0234" x="243" y="666.2051">- Certificate chain issued by EMasterPeer</text><text fill="#000000" font-family="Verdana" font-size="13" lengthAdjust="spacing" textLength="373.7817" x="243" y="682.0044">- Embedded EMasterPeer public keys (Kyber &amp; Dilithium)</text><text fill="#000000" font-family="Verdana" font-size="13" lengthAdjust="spacing" textLength="299.1523" x="243" y="697.8037">- Supports multiple simultaneous connections</text></g><!--link MP to PA--><!--link PA to PB--><!--link PB to PN--><!--link PN to DB--><!--link MP_CARD to PA_CARD--><!--link PA_CARD to PB_CARD--><!--link PB_CARD to PN_CARD--><!--link PN_CARD to SYS_CARD--><text fill="#FFFFFF" font-family="Verdana" font-size="10" lengthAdjust="spacing" textLength="3.5156" x="443.1899" y="891.5869">&#160;</text><!--SRC=[xLPjRzis4FwkNt5rXiq9uiv9bcqji06Ih7H5OiUBiW_3C0IqTBQuoAHAKadLelzzHqgs9Rzq6BQF5P8uvZrtl7kUur4lJ8PBX29dN7ZUD_0cbpEMGyhK8zGcZSPmiT2UVkIYO8ejOSQInuMIfKX3cKi5HqFtj10fpbcPcoifJ0EvSWzjuRvhY-226ow5z-AhQHJTFVWFuUtDxHty1BsZ7ty8eoZeaMdin_TaT8YD_TKmYbuDUolNe6MwkWg-3y_MfadBD1hvmz78ckBVAUguusMV7kKNcogdUc5EMMzeQDKcf47uw04zmJOHJPNE9bMAgakGNMznqgn-ybhH4wRIGz5RKJhHMxlkClx9okedXfPqWGcVysIjAGoWrBROfHGooPIqUbFzxNAPSwqpYWqgbAOgS7UVGxjlHRBq8h1drBB3QaAkIkO7IjzjWnqM3a0-drBA39inZV-MyN_Iqt13LKv_3QEuvbx3xHEg9uxFLeunqyGaJ97-zEzLgGtu8iaenhSG-iTUpNalgd4MrWEcOJpTLwNhc3OMuaPdPe-NRbmVGlzkvBdcLNoH6P3pzIh0oKcegiB8XM95HXqIieBDU4u75FNhanD23E2wcg4Qd0tFluF-v6ry3pVuX3bS7iDrD7Q8aVN8UBaSN6v3KhxWXYQBvWl1JAbGUsxRCGqUGx_hNLm52IfJLq3Pue9hewhQMivoIkyHAugeqF9KmTTW78VCSQWTC6n5u5gNP4C2AdoIDIzE-nhQgNn97ehRJ2asMw278dLdtWhNZdg7XTJS9k2jswYt7-0a60LmD9_DvzGXjMIVmT9ysgVNUjaojt5PKTTYJSCpAR4HfCKxR3fbG_ZRaOR-nVbWLj5-yI_-1MHCPwYFjrbFCYjMbycSzAbP7wDXbepNQyvF0TyNN3dWAN5AETJG61FAPiKozACdIUvB54QUmYqDNHg_cD1NnNB-0LExin2OQpZkI6BJzw4VqnZBSU2A2NDEVfjZv22ErwaFdSjcTNZg87lEpTJVfyDgrTRnc-3lIbonk27HyaV5lroyXE36luukO4xp5GgBQ_Yynkfu-sGHnmNZobq_bczyR-kcDdITcZ7wEHyEfZAlpYw6bmwcg-KIZQA0A1BRo_PItJu3JZUd2b4vgo3Qwe9eESCq9Ljxa1HhtQaxN98a_BgdwjpZiYYaCXgMTE7pWiQUvlPV9b2MsivrGSVK4heZMm3ziNKwh5fGYn10vvvlgnRiLItOgrhmHRN_GRK9zD-WG9kv_TeLR5BpFu7EsrTRiCbUmIPx1Pjy4Um_2dR3AbdIpPZ-HHUa7QxQexU8mHyPfop4duEVQPPvD1KxAu579wwpCl58qlRAAF2yvkrXArejMVEv5RUn1NjiZTJDPyUsllMykPJslQdN-ni0]--></g></svg>