<svg xmlns="http://www.w3.org/2000/svg" xmlns:xlink="http://www.w3.org/1999/xlink" contentStyleType="text/css" data-diagram-type="DESCRIPTION" height="1045px" preserveAspectRatio="none" style="width:894px;height:1045px;background:#000000;" version="1.1" viewBox="0 0 894 1045" width="894px" zoomAndPan="magnify"><title>EPQB Actors Overview</title><defs/><g><text fill="#FFFFFF" font-family="Verdana" font-size="22" font-weight="bold" lengthAdjust="spacing" textLength="277.3096" x="304.293" y="37.1182">EPQB Actors Overview</text><!--entity MP--><g class="entity" data-entity="MP" data-source-line="129" data-uid="ent0002" id="entity_MP"><ellipse cx="792.2144" cy="112.2373" fill="#90EE90" rx="16" ry="16" style="stroke:#000000;stroke-width:1;"/><path d="M792.2144,132.2373 C796.2144,132.2373 799.2144,132.2373 803.2144,128.2373 C811.2144,128.2373 819.2144,136.2373 819.2144,144.2373 L819.2144,148.2373 C819.2144,152.2373 815.2144,156.2373 811.2144,156.2373 L773.2144,156.2373 C769.2144,156.2373 765.2144,152.2373 765.2144,148.2373 L765.2144,144.2373 C765.2144,136.2373 773.2144,128.2373 781.2144,128.2373 C785.2144,132.2373 788.2144,132.2373 792.2144,132.2373" fill="#90EE90" style="stroke:#000000;stroke-width:1;"/><text fill="#FFFFFF" font-family="Verdana" font-size="14" lengthAdjust="spacing" textLength="78.4287" x="753" y="171.3125">MasterPeer</text></g><!--entity MP_CARD--><g class="entity" data-entity="MP_CARD" data-source-line="130" data-uid="ent0003" id="entity_MP_CARD"><rect fill="#000000" height="23.0146" rx="2.5" ry="2.5" style="stroke:#FFFFFF;stroke-width:1;" width="199.5938" x="12" y="123.2373"/><text fill="#FFFFFF" font-family="Verdana" font-size="14" lengthAdjust="spacing" textLength="179.5938" x="22" y="140.3125">MasterPeer Specifications</text></g><g class="entity" data-entity="GMN4" data-source-line="132" data-uid="ent0005" id="entity_GMN4"><path d="M247.5,58.7373 L247.5,130.7373 L212.02,134.7373 L247.5,138.7373 L247.5,210.9312 A0,0 0 0 0 247.5,210.9312 L568.3696,210.9312 A0,0 0 0 0 568.3696,210.9312 L568.3696,68.7373 L558.3696,58.7373 L247.5,58.7373 A0,0 0 0 0 247.5,58.7373" fill="#FFFFFF" style="stroke:#000000;stroke-width:1;"/><path d="M558.3696,58.7373 L558.3696,68.7373 L568.3696,68.7373 L558.3696,58.7373" fill="#FFFFFF" style="stroke:#000000;stroke-width:1;"/><text fill="#000000" font-family="Verdana" font-size="13" font-weight="bold" lengthAdjust="spacing" textLength="197.6152" x="253.5" y="76.8071">Cryptographic Capabilities:</text><text fill="#000000" font-family="Verdana" font-size="13" lengthAdjust="spacing" textLength="220.1431" x="253.5" y="92.6064">- Kyber-1024 (NIST Level 5) KEM</text><text fill="#000000" font-family="Verdana" font-size="13" lengthAdjust="spacing" textLength="299.8696" x="253.5" y="108.4058">- Dilithium-5 (NIST Level 5) digital signatures</text><text fill="#000000" font-family="Verdana" font-size="13" lengthAdjust="spacing" textLength="4.5703" x="253.5" y="124.2051">&#160;</text><text fill="#000000" font-family="Verdana" font-size="13" font-weight="bold" lengthAdjust="spacing" textLength="75.9624" x="253.5" y="140.0044">Maintains:</text><text fill="#000000" font-family="Verdana" font-size="13" lengthAdjust="spacing" textLength="162.9253" x="253.5" y="155.8037">- Peer certificate registry</text><text fill="#000000" font-family="Verdana" font-size="13" lengthAdjust="spacing" textLength="243.9976" x="253.5" y="171.603">- Public key directory &amp; trust anchors</text><text fill="#000000" font-family="Verdana" font-size="13" lengthAdjust="spacing" textLength="257.8354" x="253.5" y="187.4023">- Certificate issuance &amp; revocation data</text><text fill="#000000" font-family="Verdana" font-size="13" lengthAdjust="spacing" textLength="213.9604" x="253.5" y="203.2017">- Cryptographic material storage</text></g><!--entity RP--><g class="entity" data-entity="RP" data-source-line="143" data-uid="ent0007" id="entity_RP"><ellipse cx="791.853" cy="287.7373" fill="#FFFFDD" rx="16" ry="16" style="stroke:#000000;stroke-width:1;"/><path d="M791.853,307.7373 C795.853,307.7373 798.853,307.7373 802.853,303.7373 C810.853,303.7373 818.853,311.7373 818.853,319.7373 L818.853,323.7373 C818.853,327.7373 814.853,331.7373 810.853,331.7373 L772.853,331.7373 C768.853,331.7373 764.853,327.7373 764.853,323.7373 L764.853,319.7373 C764.853,311.7373 772.853,303.7373 780.853,303.7373 C784.853,307.7373 787.853,307.7373 791.853,307.7373" fill="#FFFFDD" style="stroke:#000000;stroke-width:1;"/><text fill="#FFFFFF" font-family="Verdana" font-size="14" lengthAdjust="spacing" textLength="69.7061" x="757" y="346.8125">RelayPeer</text></g><!--entity RP_CARD--><g class="entity" data-entity="RP_CARD" data-source-line="144" data-uid="ent0008" id="entity_RP_CARD"><rect fill="#000000" height="23.0146" rx="2.5" ry="2.5" style="stroke:#FFFFFF;stroke-width:1;" width="190.8711" x="16.5" y="298.7373"/><text fill="#FFFFFF" font-family="Verdana" font-size="14" lengthAdjust="spacing" textLength="170.8711" x="26.5" y="315.8125">RelayPeer Specifications</text></g><g class="entity" data-entity="GMN9" data-source-line="146" data-uid="ent0010" id="entity_GMN9"><path d="M242.5,281.7373 L242.5,306.2373 L207.82,310.2373 L242.5,314.2373 L242.5,339.1353 A0,0 0 0 0 242.5,339.1353 L427.625,339.1353 A0,0 0 0 0 427.625,339.1353 L427.625,291.7373 L417.625,281.7373 L242.5,281.7373 A0,0 0 0 0 242.5,281.7373" fill="#FFFFFF" style="stroke:#000000;stroke-width:1;"/><path d="M417.625,281.7373 L417.625,291.7373 L427.625,291.7373 L417.625,281.7373" fill="#FFFFFF" style="stroke:#000000;stroke-width:1;"/><text fill="#000000" font-family="Verdana" font-size="13" font-weight="bold" lengthAdjust="spacing" textLength="75.9624" x="248.5" y="299.8071">Maintains:</text><text fill="#000000" font-family="Verdana" font-size="13" lengthAdjust="spacing" textLength="139.7437" x="248.5" y="315.6064">- Peer bridge registry</text><text fill="#000000" font-family="Verdana" font-size="13" lengthAdjust="spacing" textLength="164.125" x="248.5" y="331.4058">- Signaling bridge events</text></g><!--entity DB--><g class="entity" data-entity="DB" data-source-line="152" data-uid="ent0012" id="entity_DB"><path d="M706.5,944.2373 C706.5,934.2373 792.1978,934.2373 792.1978,934.2373 C792.1978,934.2373 877.8955,934.2373 877.8955,944.2373 L877.8955,970.252 C877.8955,980.252 792.1978,980.252 792.1978,980.252 C792.1978,980.252 706.5,980.252 706.5,970.252 L706.5,944.2373" fill="#FBFF00" style="stroke:#000000;stroke-width:1;"/><path d="M706.5,944.2373 C706.5,954.2373 792.1978,954.2373 792.1978,954.2373 C792.1978,954.2373 877.8955,954.2373 877.8955,944.2373" fill="none" style="stroke:#000000;stroke-width:1;"/><text fill="#000000" font-family="Verdana" font-size="14" lengthAdjust="spacing" textLength="151.3955" x="716.5" y="972.3125">Certificate Repository</text></g><!--entity SYS_CARD--><g class="entity" data-entity="SYS_CARD" data-source-line="153" data-uid="ent0013" id="entity_SYS_CARD"><rect fill="#000000" height="23.0146" rx="2.5" ry="2.5" style="stroke:#FFFFFF;stroke-width:1;" width="171.3955" x="26.5" y="945.7373"/><text fill="#FFFFFF" font-family="Verdana" font-size="14" lengthAdjust="spacing" textLength="151.3955" x="36.5" y="962.8125">Certificate Repository</text></g><g class="entity" data-entity="GMN14" data-source-line="155" data-uid="ent0015" id="entity_GMN14"><path d="M232.5,904.7373 L232.5,953.2373 L197.66,957.2373 L232.5,961.2373 L232.5,1009.5332 A0,0 0 0 0 232.5,1009.5332 L671.6328,1009.5332 A0,0 0 0 0 671.6328,1009.5332 L671.6328,914.7373 L661.6328,904.7373 L232.5,904.7373 A0,0 0 0 0 232.5,904.7373" fill="#FFFFFF" style="stroke:#000000;stroke-width:1;"/><path d="M661.6328,904.7373 L661.6328,914.7373 L671.6328,914.7373 L661.6328,904.7373" fill="#FFFFFF" style="stroke:#000000;stroke-width:1;"/><text fill="#000000" font-family="Verdana" font-size="13" font-weight="bold" lengthAdjust="spacing" textLength="83.9731" x="238.5" y="922.8071">Repository:</text><text fill="#000000" font-family="Verdana" font-size="13" lengthAdjust="spacing" textLength="326.644" x="238.5" y="938.6064">- certificates with Dilithium signatures MasterPeer</text><text fill="#000000" font-family="Verdana" font-size="13" lengthAdjust="spacing" textLength="224.1484" x="238.5" y="954.4058">- Peer IDs (32-byte SHA3 hashes)</text><text fill="#000000" font-family="Verdana" font-size="13" lengthAdjust="spacing" textLength="239.4146" x="238.5" y="970.2051">- Public key chains &amp; revocation lists</text><text fill="#000000" font-family="Verdana" font-size="13" lengthAdjust="spacing" textLength="260.9966" x="238.5" y="986.0044">- Metadata: issuance, expiration, status</text><text fill="#000000" font-family="Verdana" font-size="13" lengthAdjust="spacing" textLength="418.1328" x="238.5" y="1001.8037">- Secure storage (Evo Memento, Other decentralized channels )</text></g><!--entity PA--><g class="entity" data-entity="PA" data-source-line="164" data-uid="ent0017" id="entity_PA"><ellipse cx="792" cy="439.7373" fill="#FFB6C1" rx="16" ry="16" style="stroke:#000000;stroke-width:1;"/><path d="M792,459.7373 C796,459.7373 799,459.7373 803,455.7373 C811,455.7373 819,463.7373 819,471.7373 L819,475.7373 C819,479.7373 815,483.7373 811,483.7373 L773,483.7373 C769,483.7373 765,479.7373 765,475.7373 L765,471.7373 C765,463.7373 773,455.7373 781,455.7373 C785,459.7373 788,459.7373 792,459.7373" fill="#FFB6C1" style="stroke:#000000;stroke-width:1;"/><text fill="#FFFFFF" font-family="Verdana" font-size="14" lengthAdjust="spacing" textLength="40.667" x="771.6665" y="498.8125">PeerA</text></g><!--entity PA_CARD--><g class="entity" data-entity="PA_CARD" data-source-line="165" data-uid="ent0018" id="entity_PA_CARD"><rect fill="#000000" height="23.0146" rx="2.5" ry="2.5" style="stroke:#FFFFFF;stroke-width:1;" width="161.832" x="31" y="450.7373"/><text fill="#FFFFFF" font-family="Verdana" font-size="14" lengthAdjust="spacing" textLength="141.832" x="41" y="467.8125">PeerA Specifications</text></g><g class="entity" data-entity="GMN19" data-source-line="167" data-uid="ent0020" id="entity_GMN19"><path d="M228,409.7373 L228,458.2373 L193.22,462.2373 L228,466.2373 L228,514.5332 A0,0 0 0 0 228,514.5332 L691.7173,514.5332 A0,0 0 0 0 691.7173,514.5332 L691.7173,419.7373 L681.7173,409.7373 L228,409.7373 A0,0 0 0 0 228,409.7373" fill="#FFFFFF" style="stroke:#000000;stroke-width:1;"/><path d="M681.7173,409.7373 L681.7173,419.7373 L691.7173,419.7373 L681.7173,409.7373" fill="#FFFFFF" style="stroke:#000000;stroke-width:1;"/><text fill="#000000" font-family="Verdana" font-size="13" lengthAdjust="spacing" textLength="442.7173" x="234" y="427.8071">- Unique Peer ID (32-byte hash, e.g. BLAKE3 from peer Public Key)</text><text fill="#000000" font-family="Verdana" font-size="13" lengthAdjust="spacing" textLength="257.4165" x="234" y="443.6064">- Kyber-1024 keypair for key exchange</text><text fill="#000000" font-family="Verdana" font-size="13" lengthAdjust="spacing" textLength="265.5542" x="234" y="459.4058">- Aes256_Gcm for symmetric encryption</text><text fill="#000000" font-family="Verdana" font-size="13" lengthAdjust="spacing" textLength="268.0234" x="234" y="475.2051">- Certificate chain issued by EMasterPeer</text><text fill="#000000" font-family="Verdana" font-size="13" lengthAdjust="spacing" textLength="373.7817" x="234" y="491.0044">- Embedded EMasterPeer public keys (Kyber &amp; Dilithium)</text><text fill="#000000" font-family="Verdana" font-size="13" lengthAdjust="spacing" textLength="299.1523" x="234" y="506.8037">- Supports multiple simultaneous connections</text></g><!--entity PB--><g class="entity" data-entity="PB" data-source-line="176" data-uid="ent0022" id="entity_PB"><ellipse cx="792" cy="604.7373" fill="#87CEEB" rx="16" ry="16" style="stroke:#000000;stroke-width:1;"/><path d="M792,624.7373 C796,624.7373 799,624.7373 803,620.7373 C811,620.7373 819,628.7373 819,636.7373 L819,640.7373 C819,644.7373 815,648.7373 811,648.7373 L773,648.7373 C769,648.7373 765,644.7373 765,640.7373 L765,636.7373 C765,628.7373 773,620.7373 781,620.7373 C785,624.7373 788,624.7373 792,624.7373" fill="#87CEEB" style="stroke:#000000;stroke-width:1;"/><text fill="#FFFFFF" font-family="Verdana" font-size="14" lengthAdjust="spacing" textLength="40.6943" x="771.6528" y="663.8125">PeerB</text></g><!--entity PB_CARD--><g class="entity" data-entity="PB_CARD" data-source-line="177" data-uid="ent0023" id="entity_PB_CARD"><rect fill="#000000" height="23.0146" rx="2.5" ry="2.5" style="stroke:#FFFFFF;stroke-width:1;" width="161.8594" x="31" y="615.7373"/><text fill="#FFFFFF" font-family="Verdana" font-size="14" lengthAdjust="spacing" textLength="141.8594" x="41" y="632.8125">PeerB Specifications</text></g><g class="entity" data-entity="GMN24" data-source-line="179" data-uid="ent0025" id="entity_GMN24"><path d="M228,574.7373 L228,623.2373 L193.22,627.2373 L228,631.2373 L228,679.5332 A0,0 0 0 0 228,679.5332 L691.7173,679.5332 A0,0 0 0 0 691.7173,679.5332 L691.7173,584.7373 L681.7173,574.7373 L228,574.7373 A0,0 0 0 0 228,574.7373" fill="#FFFFFF" style="stroke:#000000;stroke-width:1;"/><path d="M681.7173,574.7373 L681.7173,584.7373 L691.7173,584.7373 L681.7173,574.7373" fill="#FFFFFF" style="stroke:#000000;stroke-width:1;"/><text fill="#000000" font-family="Verdana" font-size="13" lengthAdjust="spacing" textLength="442.7173" x="234" y="592.8071">- Unique Peer ID (32-byte hash, e.g. BLAKE3 from peer Public Key)</text><text fill="#000000" font-family="Verdana" font-size="13" lengthAdjust="spacing" textLength="257.4165" x="234" y="608.6064">- Kyber-1024 keypair for key exchange</text><text fill="#000000" font-family="Verdana" font-size="13" lengthAdjust="spacing" textLength="265.5542" x="234" y="624.4058">- Aes256_Gcm for symmetric encryption</text><text fill="#000000" font-family="Verdana" font-size="13" lengthAdjust="spacing" textLength="268.0234" x="234" y="640.2051">- Certificate chain issued by EMasterPeer</text><text fill="#000000" font-family="Verdana" font-size="13" lengthAdjust="spacing" textLength="373.7817" x="234" y="656.0044">- Embedded EMasterPeer public keys (Kyber &amp; Dilithium)</text><text fill="#000000" font-family="Verdana" font-size="13" lengthAdjust="spacing" textLength="299.1523" x="234" y="671.8037">- Supports multiple simultaneous connections</text></g><!--entity PN--><g class="entity" data-entity="PN" data-source-line="188" data-uid="ent0027" id="entity_PN"><ellipse cx="792" cy="769.7373" fill="#DDA0DD" rx="16" ry="16" style="stroke:#000000;stroke-width:1;"/><path d="M792,789.7373 C796,789.7373 799,789.7373 803,785.7373 C811,785.7373 819,793.7373 819,801.7373 L819,805.7373 C819,809.7373 815,813.7373 811,813.7373 L773,813.7373 C769,813.7373 765,809.7373 765,805.7373 L765,801.7373 C765,793.7373 773,785.7373 781,785.7373 C785,789.7373 788,789.7373 792,789.7373" fill="#DDA0DD" style="stroke:#000000;stroke-width:1;"/><text fill="#FFFFFF" font-family="Verdana" font-size="14" lengthAdjust="spacing" textLength="41.5693" x="771.2153" y="828.8125">PeerN</text></g><!--entity PN_CARD--><g class="entity" data-entity="PN_CARD" data-source-line="189" data-uid="ent0028" id="entity_PN_CARD"><rect fill="#000000" height="23.0146" rx="2.5" ry="2.5" style="stroke:#FFFFFF;stroke-width:1;" width="162.7344" x="30.5" y="780.7373"/><text fill="#FFFFFF" font-family="Verdana" font-size="14" lengthAdjust="spacing" textLength="142.7344" x="40.5" y="797.8125">PeerN Specifications</text></g><g class="entity" data-entity="GMN29" data-source-line="191" data-uid="ent0030" id="entity_GMN29"><path d="M229,739.7373 L229,788.2373 L193.8,792.2373 L229,796.2373 L229,844.5332 A0,0 0 0 0 229,844.5332 L692.7173,844.5332 A0,0 0 0 0 692.7173,844.5332 L692.7173,749.7373 L682.7173,739.7373 L229,739.7373 A0,0 0 0 0 229,739.7373" fill="#FFFFFF" style="stroke:#000000;stroke-width:1;"/><path d="M682.7173,739.7373 L682.7173,749.7373 L692.7173,749.7373 L682.7173,739.7373" fill="#FFFFFF" style="stroke:#000000;stroke-width:1;"/><text fill="#000000" font-family="Verdana" font-size="13" lengthAdjust="spacing" textLength="442.7173" x="235" y="757.8071">- Unique Peer ID (32-byte hash, e.g. BLAKE3 from peer Public Key)</text><text fill="#000000" font-family="Verdana" font-size="13" lengthAdjust="spacing" textLength="257.4165" x="235" y="773.6064">- Kyber-1024 keypair for key exchange</text><text fill="#000000" font-family="Verdana" font-size="13" lengthAdjust="spacing" textLength="265.5542" x="235" y="789.4058">- Aes256_Gcm for symmetric encryption</text><text fill="#000000" font-family="Verdana" font-size="13" lengthAdjust="spacing" textLength="268.0234" x="235" y="805.2051">- Certificate chain issued by EMasterPeer</text><text fill="#000000" font-family="Verdana" font-size="13" lengthAdjust="spacing" textLength="373.7817" x="235" y="821.0044">- Embedded EMasterPeer public keys (Kyber &amp; Dilithium)</text><text fill="#000000" font-family="Verdana" font-size="13" lengthAdjust="spacing" textLength="299.1523" x="235" y="836.8037">- Supports multiple simultaneous connections</text></g><!--link MP to RP--><!--link RP to PA--><!--link PA to PB--><!--link PB to PN--><!--link PN to DB--><!--link MP_CARD to RP_CARD--><!--link RP_CARD to PA_CARD--><!--link PA_CARD to PB_CARD--><!--link PB_CARD to PN_CARD--><!--link PN_CARD to SYS_CARD--><text fill="#FFFFFF" font-family="Verdana" font-size="10" lengthAdjust="spacing" textLength="3.5156" x="441.1899" y="1030.5869">&#160;</text><!--SRC=[xLRRRjj647tdLqoKefQDA5NiEcq2j00fCQvXwrBAVJ2AmbYH8sbhailkBksmHVwziqkA8cawHTlN2F15EsTdPyuvUtcXTvWWP37ZgUCSmKKirYo6YCbxA4CAjURfLZdgdgSPaoo1DGlljrBaQJGHiP3mScm_3KI46vR7-eD8TGNvO3-qXFsk38AdN7EHEY- -Mlf-SEVUJHRNYm1-W06XlRUJDuDzo6k4llzkulkU2StSrGq5BU8GVpVs_NTZ4m_yQ_Us6pPLJATbUBbONTuiWjj6U3msW7hXUICqdRhZSkRgbXQUTPAQMSxHIXSniGKRwlb0OeEPL6Y4lnoWZzUbiUB8neICKBRfDUCDHglHJquZUyXaz5psHfPMziQgJ_NwP4pXXfg6L8OXt_2mTWIC85UcsKIa8jn9OTn2_JVRPNPgMT5AeqIXYmoVhlFSwfrCXbu4zeXAj5WDQQeKyJEjFtNA4nQUWNo-f8XfjcOA_otZ_wIdvfgwz9S_UoNr2XOFA1yuFXerPamHaR14-ZMyaRdIuARXZb9y0nFts2af7vGmWne0Kp1RzlLe_TA0mgeIcPcTgQgPTnCtc3hMkP9lTnh4fXu5E3cPo2BJOYjPjYDxJ5Z6rZoclOtg_Sa98KPmLQnHZjwCJx-5uVnoTGFN-80nd1_3bJ-pYAcPiUDvCZhlGYA-vPeE9SMtATEvHENOPMTqPcdwgLUn7OGeTTa1LOjRhhGiocY-ZgcyUomeeqJ3KW5VWxOCCikWii198mDNAgSO4b3YWoXviSANq5Rd2SsGt5HAkTaM7KmZk-6TlIW1ngoeDGb8a-uXLKbI0_iK2NeL2HgAz5EpbZpQTbXP6LBjaLL5YVLKgqRfHor20io4ueOxfxR_e1zWQvrwy7Aptcp8sMLddy7IkThNM3riEZjCsRVM45p18vdeuAM6PU1WyWCXbrC5mxFJqRgWzLO_kMUmOsg7whXhc71do6oR82OIIyFCK3D3nllQBgy0FsPSMk0hiWFLK49N658rUuF0q7yGD3qXoiKhMD1bGTS6XlHLaYX_OcHMJbEC5Hot937bkp1SaN0nZcmpavZJl7h_MuIbTUb2wuQjX2XJzDXhwVQfi1yrNVoIyZzot7DueD2mHws_thu6xzgzyizWGxS2P0PNiNc5nN7tI226CyQblJGDs_ZHT4txn-1SLAVdR-ykmiJ6LP4ag2LbmZGqky-y8BgxrifbnI06rmNu7V7zP8rHHB560B9QRZA5hOxqhgrK5htAiqn8hI2XrmtFw9HMtFpBKXIvCjTGIWUBOVA9MXuCPsRIis9v9VaUjDuy3R6yNh6yNh6yBsBz7x7cCBp054tbvcjBftd9-nnQJyI6JlDUdUQzEis_wFHVTRfcXSZfvev-fmiyiPSMFN96l-uuLP7-DlgHRaGdQ8yiNOTEmzQ8vz2MQutC7HAtEJBr7ATwxtJob-e5FR7zSLdzxQnPnRoUMEM8wcyhLb-4paO8ymOS3Fu6]--></g></svg>