<svg xmlns="http://www.w3.org/2000/svg" xmlns:xlink="http://www.w3.org/1999/xlink" contentStyleType="text/css" data-diagram-type="SEQUENCE" height="770px" preserveAspectRatio="none" style="width:785px;height:770px;background:#000000;" version="1.1" viewBox="0 0 785 770" width="785px" zoomAndPan="magnify"><title>PeerA set_peer to MasterPeer</title><defs/><g><text fill="#FFFFFF" font-family="Verdana" font-size="22" font-weight="bold" lengthAdjust="spacing" textLength="370.3477" x="206.064" y="37.1182">PeerA set_peer to MasterPeer</text><g><title>MasterPeer</title><rect fill="#90EE90" height="362.3911" style="stroke:#FFFFFF;stroke-width:1;" width="10" x="479.3579" y="270.5479"/></g><g><title>CertDB</title><rect fill="#FFFFFF" height="112.9966" style="stroke:#FFFFFF;stroke-width:1;" width="10" x="657.8315" y="446.3438"/></g><g><title>PeerA</title><rect fill="#000000" fill-opacity="0.00000" height="554.9863" width="8" x="202" y="131.752"/><line style="stroke:#FFFFFF;stroke-width:1;" x1="206" x2="206" y1="131.752" y2="686.7383"/></g><g><title>MasterPeer</title><rect fill="#000000" fill-opacity="0.00000" height="554.9863" width="8" x="480.3579" y="131.752"/><line style="stroke:#FFFFFF;stroke-width:1;" x1="484.1436" x2="484.1436" y1="131.752" y2="686.7383"/></g><g><title>CertDB</title><rect fill="#000000" fill-opacity="0.00000" height="554.9863" width="8" x="658.8315" y="131.752"/><line style="stroke:#FFFFFF;stroke-width:1;" x1="661.8359" x2="661.8359" y1="131.752" y2="686.7383"/></g><g class="participant participant-head" data-participant="PA"><text fill="#FFFFFF" font-family="Verdana" font-size="14" lengthAdjust="spacing" textLength="40.667" x="182.6665" y="128.8125">PeerA</text><ellipse cx="206" cy="69.7373" fill="#87CEEB" rx="16" ry="16" style="stroke:#000000;stroke-width:1;"/><path d="M206,89.7373 C210,89.7373 213,89.7373 217,85.7373 C225,85.7373 233,93.7373 233,101.7373 L233,105.7373 C233,109.7373 229,113.7373 225,113.7373 L187,113.7373 C183,113.7373 179,109.7373 179,105.7373 L179,101.7373 C179,93.7373 187,85.7373 195,85.7373 C199,89.7373 202,89.7373 206,89.7373" fill="#87CEEB" style="stroke:#000000;stroke-width:1;"/></g><g class="participant participant-tail" data-participant="PA"><text fill="#FFFFFF" font-family="Verdana" font-size="14" lengthAdjust="spacing" textLength="40.667" x="182.6665" y="699.8135">PeerA</text><ellipse cx="206" cy="719.7529" fill="#87CEEB" rx="16" ry="16" style="stroke:#000000;stroke-width:1;"/><path d="M206,739.7529 C210,739.7529 213,739.7529 217,735.7529 C225,735.7529 233,743.7529 233,751.7529 L233,755.7529 C233,759.7529 229,763.7529 225,763.7529 L187,763.7529 C183,763.7529 179,759.7529 179,755.7529 L179,751.7529 C179,743.7529 187,735.7529 195,735.7529 C199,739.7529 202,739.7529 206,739.7529" fill="#87CEEB" style="stroke:#000000;stroke-width:1;"/></g><g class="participant participant-head" data-participant="MP"><text fill="#FFFFFF" font-family="Verdana" font-size="14" lengthAdjust="spacing" textLength="78.4287" x="442.1436" y="128.8125">MasterPeer</text><ellipse cx="484.3579" cy="69.7373" fill="#90EE90" rx="16" ry="16" style="stroke:#000000;stroke-width:1;"/><path d="M484.3579,89.7373 C488.3579,89.7373 491.3579,89.7373 495.3579,85.7373 C503.3579,85.7373 511.3579,93.7373 511.3579,101.7373 L511.3579,105.7373 C511.3579,109.7373 507.3579,113.7373 503.3579,113.7373 L465.3579,113.7373 C461.3579,113.7373 457.3579,109.7373 457.3579,105.7373 L457.3579,101.7373 C457.3579,93.7373 465.3579,85.7373 473.3579,85.7373 C477.3579,89.7373 480.3579,89.7373 484.3579,89.7373" fill="#90EE90" style="stroke:#000000;stroke-width:1;"/></g><g class="participant participant-tail" data-participant="MP"><text fill="#FFFFFF" font-family="Verdana" font-size="14" lengthAdjust="spacing" textLength="78.4287" x="442.1436" y="699.8135">MasterPeer</text><ellipse cx="484.3579" cy="719.7529" fill="#90EE90" rx="16" ry="16" style="stroke:#000000;stroke-width:1;"/><path d="M484.3579,739.7529 C488.3579,739.7529 491.3579,739.7529 495.3579,735.7529 C503.3579,735.7529 511.3579,743.7529 511.3579,751.7529 L511.3579,755.7529 C511.3579,759.7529 507.3579,763.7529 503.3579,763.7529 L465.3579,763.7529 C461.3579,763.7529 457.3579,759.7529 457.3579,755.7529 L457.3579,751.7529 C457.3579,743.7529 465.3579,735.7529 473.3579,735.7529 C477.3579,739.7529 480.3579,739.7529 484.3579,739.7529" fill="#90EE90" style="stroke:#000000;stroke-width:1;"/></g><g class="participant participant-head" data-participant="DB"><text fill="#FFFFFF" font-family="Verdana" font-size="14" lengthAdjust="spacing" textLength="49.9912" x="634.8359" y="128.8125">CertDB</text><path d="M644.8315,78.7373 C644.8315,68.7373 662.8315,68.7373 662.8315,68.7373 C662.8315,68.7373 680.8315,68.7373 680.8315,78.7373 L680.8315,104.7373 C680.8315,114.7373 662.8315,114.7373 662.8315,114.7373 C662.8315,114.7373 644.8315,114.7373 644.8315,104.7373 L644.8315,78.7373" fill="#FBFF00" style="stroke:#000000;stroke-width:1.5;"/><path d="M644.8315,78.7373 C644.8315,88.7373 662.8315,88.7373 662.8315,88.7373 C662.8315,88.7373 680.8315,88.7373 680.8315,78.7373" fill="none" style="stroke:#000000;stroke-width:1.5;"/></g><g class="participant participant-tail" data-participant="DB"><text fill="#FFFFFF" font-family="Verdana" font-size="14" lengthAdjust="spacing" textLength="49.9912" x="634.8359" y="699.8135">CertDB</text><path d="M644.8315,712.7529 C644.8315,702.7529 662.8315,702.7529 662.8315,702.7529 C662.8315,702.7529 680.8315,702.7529 680.8315,712.7529 L680.8315,738.7529 C680.8315,748.7529 662.8315,748.7529 662.8315,748.7529 C662.8315,748.7529 644.8315,748.7529 644.8315,738.7529 L644.8315,712.7529" fill="#FBFF00" style="stroke:#000000;stroke-width:1.5;"/><path d="M644.8315,712.7529 C644.8315,722.7529 662.8315,722.7529 662.8315,722.7529 C662.8315,722.7529 680.8315,722.7529 680.8315,712.7529" fill="none" style="stroke:#000000;stroke-width:1.5;"/></g><g><title>MasterPeer</title><rect fill="#90EE90" height="362.3911" style="stroke:#FFFFFF;stroke-width:1;" width="10" x="479.3579" y="270.5479"/></g><g><title>CertDB</title><rect fill="#FFFFFF" height="112.9966" style="stroke:#FFFFFF;stroke-width:1;" width="10" x="657.8315" y="446.3438"/></g><rect fill="#000000" height="3" style="stroke:#000000;stroke-width:1;" width="773.4756" x="5" y="162.6516"/><line style="stroke:#FFFFFF;stroke-width:0.5;" x1="5" x2="778.4756" y1="162.6516" y2="162.6516"/><line style="stroke:#FFFFFF;stroke-width:0.5;" x1="5" x2="778.4756" y1="165.6516" y2="165.6516"/><rect fill="#000000" height="23.7993" style="stroke:#FFFFFF;stroke-width:1;" width="132.1045" x="325.6855" y="151.752"/><text fill="#FFFFFF" font-family="Verdana" font-size="13" font-weight="bold" lengthAdjust="spacing" textLength="113.6611" x="331.6855" y="168.8218">PK Registration</text><g class="message" data-participant-1="PA" data-participant-2="MP"><polygon fill="#87CEEB" points="467.3579,266.5479,477.3579,270.5479,467.3579,274.5479,471.3579,270.5479" style="stroke:#87CEEB;stroke-width:1;"/><line style="stroke:#87CEEB;stroke-width:1;" x1="206" x2="473.3579" y1="270.5479" y2="270.5479"/><text fill="#FFFFFF" font-family="Verdana" font-size="13" font-weight="bold" lengthAdjust="spacing" textLength="9.2422" x="213" y="234.2197">1</text><text fill="#FFFFFF" font-family="Verdana" font-size="13" lengthAdjust="spacing" textLength="241.1157" x="226.2422" y="202.6211">EApiEvent(EPeerPublic,Dilitium Sign)</text><text fill="#FFFFFF" font-family="Verdana" font-size="13" lengthAdjust="spacing" textLength="4.5703" x="226.2422" y="218.4204">&#160;</text><text fill="#FFFFFF" font-family="Verdana" font-size="13" lengthAdjust="spacing" textLength="66.9868" x="226.2422" y="234.2197">Ake Kyber</text><text fill="#FFFFFF" font-family="Verdana" font-size="13" lengthAdjust="spacing" textLength="89.7432" x="226.2422" y="250.019">Dilithium sign</text><text fill="#FFFFFF" font-family="Verdana" font-size="13" lengthAdjust="spacing" textLength="123.7666" x="226.2422" y="265.8184">Aes256_Gcm crypt</text></g><path d="M494,283.5479 L494,340.5479 L664,340.5479 L664,293.5479 L654,283.5479 L494,283.5479" fill="#FFFFFF" style="stroke:#000000;stroke-width:1;"/><path d="M654,283.5479 L654,293.5479 L664,293.5479 L654,283.5479" fill="#FFFFFF" style="stroke:#000000;stroke-width:1;"/><text fill="#000000" font-family="Verdana" font-size="13" lengthAdjust="spacing" textLength="84.2588" x="500" y="301.6177">1. Use Kyber</text><text fill="#000000" font-family="Verdana" font-size="13" lengthAdjust="spacing" textLength="149.8872" x="500" y="317.417">2. Verify sign Dilithium</text><text fill="#000000" font-family="Verdana" font-size="13" lengthAdjust="spacing" textLength="130.7427" x="500" y="333.2163">3.Verify EPeerPublic</text><g class="message" data-participant-1="MP" data-participant-2="MP"><line style="stroke:#90EE90;stroke-width:1;" x1="489.3579" x2="531.3579" y1="367.7451" y2="367.7451"/><line style="stroke:#90EE90;stroke-width:1;" x1="531.3579" x2="531.3579" y1="367.7451" y2="380.7451"/><line style="stroke:#90EE90;stroke-width:1;" x1="490.3579" x2="531.3579" y1="380.7451" y2="380.7451"/><polygon fill="#90EE90" points="500.3579,376.7451,490.3579,380.7451,500.3579,384.7451,496.3579,380.7451" style="stroke:#90EE90;stroke-width:1;"/><text fill="#FFFFFF" font-family="Verdana" font-size="13" font-weight="bold" lengthAdjust="spacing" textLength="9.2422" x="496.3579" y="363.0156">2</text><text fill="#FFFFFF" font-family="Verdana" font-size="13" lengthAdjust="spacing" textLength="131.2314" x="509.6001" y="363.0156">Generate Certificate</text></g><path d="M182,393.7451 L182,418.7451 L474,418.7451 L474,403.7451 L464,393.7451 L182,393.7451" fill="#FFFFFF" style="stroke:#000000;stroke-width:1;"/><path d="M464,393.7451 L464,403.7451 L474,403.7451 L464,393.7451" fill="#FFFFFF" style="stroke:#000000;stroke-width:1;"/><text fill="#000000" font-family="Verdana" font-size="13" lengthAdjust="spacing" textLength="271.2925" x="188" y="411.8149">Master Dilithium Signature of ECertificate</text><g class="message" data-participant-1="MP" data-participant-2="DB"><polygon fill="#90EE90" points="645.8315,442.3438,655.8315,446.3438,645.8315,450.3438,649.8315,446.3438" style="stroke:#90EE90;stroke-width:1;"/><line style="stroke:#90EE90;stroke-width:1;" x1="489.3579" x2="651.8315" y1="446.3438" y2="446.3438"/><text fill="#FFFFFF" font-family="Verdana" font-size="13" font-weight="bold" lengthAdjust="spacing" textLength="9.2422" x="496.3579" y="441.6143">3</text><text fill="#FFFFFF" font-family="Verdana" font-size="13" lengthAdjust="spacing" textLength="116.4287" x="509.6001" y="441.6143">Store(ID_A, Cert)</text></g><path d="M672,459.3438 L672,532.3438 L773,532.3438 L773,469.3438 L763,459.3438 L672,459.3438" fill="#FFFFFF" style="stroke:#000000;stroke-width:1;"/><path d="M763,459.3438 L763,469.3438 L773,469.3438 L763,459.3438" fill="#FFFFFF" style="stroke:#000000;stroke-width:1;"/><text fill="#000000" font-family="Verdana" font-size="13" lengthAdjust="spacing" textLength="67.1011" x="678" y="477.4136">Structure:</text><text fill="#000000" font-family="Verdana" font-size="13" lengthAdjust="spacing" textLength="77.562" x="678" y="493.2129">- Public Key</text><text fill="#000000" font-family="Verdana" font-size="13" lengthAdjust="spacing" textLength="70.9414" x="678" y="509.0122">- Metadata</text><text fill="#000000" font-family="Verdana" font-size="13" lengthAdjust="spacing" textLength="80.4756" x="678" y="524.8115">- Signatures</text><g class="message" data-participant-1="DB" data-participant-2="MP"><polygon fill="#FFFFFF" points="500.3579,555.3403,490.3579,559.3403,500.3579,563.3403,496.3579,559.3403" style="stroke:#FFFFFF;stroke-width:1;"/><line style="stroke:#FFFFFF;stroke-width:1;stroke-dasharray:2.0,2.0;" x1="494.3579" x2="661.8315" y1="559.3403" y2="559.3403"/><text fill="#FFFFFF" font-family="Verdana" font-size="13" font-weight="bold" lengthAdjust="spacing" textLength="9.2422" x="506.3579" y="554.6108">4</text><text fill="#FFFFFF" font-family="Verdana" font-size="13" lengthAdjust="spacing" textLength="82.6401" x="519.6001" y="554.6108">Storage ACK</text></g><rect fill="#000000" height="3" style="stroke:#000000;stroke-width:1;" width="773.4756" x="5" y="588.24"/><line style="stroke:#FFFFFF;stroke-width:0.5;" x1="5" x2="778.4756" y1="588.24" y2="588.24"/><line style="stroke:#FFFFFF;stroke-width:0.5;" x1="5" x2="778.4756" y1="591.24" y2="591.24"/><rect fill="#000000" height="23.7993" style="stroke:#FFFFFF;stroke-width:1;" width="158.8916" x="312.292" y="577.3403"/><text fill="#FFFFFF" font-family="Verdana" font-size="13" font-weight="bold" lengthAdjust="spacing" textLength="140.4482" x="318.292" y="594.4102">Certificate Delivery</text><g class="message" data-participant-1="MP" data-participant-2="PA"><polygon fill="#90EE90" points="217,628.939,207,632.939,217,636.939,213,632.939" style="stroke:#90EE90;stroke-width:1;"/><line style="stroke:#90EE90;stroke-width:1;" x1="211" x2="483.3579" y1="632.939" y2="632.939"/><text fill="#FFFFFF" font-family="Verdana" font-size="13" font-weight="bold" lengthAdjust="spacing" textLength="9.2422" x="223" y="628.2095">5</text><text fill="#FFFFFF" font-family="Verdana" font-size="13" lengthAdjust="spacing" textLength="85.8267" x="236.2422" y="628.2095">Cert Package</text></g><path d="M10,645.939 L10,670.939 L201,670.939 L201,655.939 L191,645.939 L10,645.939" fill="#FFFFFF" style="stroke:#000000;stroke-width:1;"/><path d="M191,645.939 L191,655.939 L201,655.939 L191,645.939" fill="#FFFFFF" style="stroke:#000000;stroke-width:1;"/><text fill="#000000" font-family="Verdana" font-size="13" lengthAdjust="spacing" textLength="170.9551" x="16" y="664.0088">1. Verify Master Response</text><!--SRC=[VLDjRzem4FxkNt6bazPARKKxxQL8J0gGLXDbZM2RL8q9cN2X5i7ER8S9JVllEpifcBQGJuwVy_DoFX_PHrmY53aNah6tS9khASzXnlK2AiYWjKBE3JCB8Gkk-HAcF5tCjIhbhAjofU6uwR-WOeOPBtDxewIjIsxyvoI-Aaki1QOY4-bhzD8L_6L0N-UvKatZCQLdg7STkFr0jDxzvsIZrDBM8LtkAaPsdIFmFsZK4f-3jQkHHOtAhWjy6V2PWthNEnZXxn9bIk59WxG3TlC4LG9t8iCx8N4dOY2mmVTSXAj9kBOY5GMNTXzDJwm40OTOdaeEC-m9xBUC6mOXXHLAigCtIHmF9z6aUtztFuGsD8u_VUp6SQT1q20QVIFGLspnwsOSNpSz7W_kXmy1b4sphEcXqGCT7GHGPQFXN0IDCAownaQ2gAC6S0D913kUdYe6tD0jkpfVDaZWfJysuvPFkK5eT57RNiUNzZgmOvKnAopDbDTqSpSfQ0LMmLQ3CLvQ9SlbrAtRRKZwCCIvC5PprpXejnavFV-vu_NNP_BLWZWgHBn2QKzYnvMKqroaPpsHKy_B9Op4N9wEvLX62uJ-cXJ6qeEF3ZM44eJcwls7oMswX5Il2-kw85QStk7hmVqJrMB-QBs3omluRZRaLnVm0xN8rfuSDbfZ-UwY1WAZZ9441NiXKgUxHOdQEN4jTa-NrfL-ZbabN_LnA-GZSrjg19L171uy8DRhjEXbAuqdNtgJwCphdMuRuQur7BEm1zLHNQPEipMMvr1bWpwktTy0BNUpujORRuOHvJcP2LdhqCu7doD4tJwROU313qSG27gOYnNgjPkG_TcIgELFqMD85qGSDD11bviRgrivH5CeQJ0K7oJiFm00]--></g></svg>