<svg xmlns="http://www.w3.org/2000/svg" xmlns:xlink="http://www.w3.org/1999/xlink" contentStyleType="text/css" data-diagram-type="SEQUENCE" height="535px" preserveAspectRatio="none" style="width:622px;height:535px;background:#000000;" version="1.1" viewBox="0 0 622 535" width="622px" zoomAndPan="magnify"><title>Diagram 3: Certificate Revocation Protocol</title><defs/><g><text fill="#FFFFFF" font-family="Verdana" font-size="22" font-weight="bold" lengthAdjust="spacing" textLength="527.4629" x="46.2629" y="37.1182">Diagram 3: Certificate Revocation Protocol</text><g><title>MasterPeer</title><rect fill="#90EE90" height="244.3945" style="stroke:#FFFFFF;stroke-width:1;" width="10" x="222.6558" y="163.5513"/></g><g><title>CertDB</title><rect fill="#FBFF00" height="29.7993" style="stroke:#FFFFFF;stroke-width:1;" width="10" x="437.7256" y="244.9492"/></g><g><title>Peer</title><rect fill="#000000" fill-opacity="0.00000" height="294.1938" width="8" x="34" y="131.752"/><line style="stroke:#FFFFFF;stroke-width:1;" x1="38" x2="38" y1="131.752" y2="425.9458"/></g><g><title>MasterPeer</title><rect fill="#000000" fill-opacity="0.00000" height="294.1938" width="8" x="223.6558" y="131.752"/><line style="stroke:#FFFFFF;stroke-width:1;" x1="227.4414" x2="227.4414" y1="131.752" y2="425.9458"/></g><g><title>CertDB</title><rect fill="#000000" fill-opacity="0.00000" height="294.1938" width="8" x="438.7256" y="131.752"/><line style="stroke:#FFFFFF;stroke-width:1;" x1="441.73" x2="441.73" y1="131.752" y2="425.9458"/></g><g><title>IPFS</title><rect fill="#000000" fill-opacity="0.00000" height="294.1938" width="8" x="502.6968" y="131.752"/><line style="stroke:#FFFFFF;stroke-width:1;" x1="505.7212" x2="505.7212" y1="131.752" y2="425.9458"/></g><g><title>GitHub</title><rect fill="#000000" fill-opacity="0.00000" height="294.1938" width="8" x="572.8306" y="131.752"/><line style="stroke:#FFFFFF;stroke-width:1;" x1="576.6724" x2="576.6724" y1="131.752" y2="425.9458"/></g><g class="participant participant-head" data-participant="P"><text fill="#FFFFFF" font-family="Verdana" font-size="14" lengthAdjust="spacing" textLength="31.0967" x="19.4517" y="128.8125">Peer</text><ellipse cx="38" cy="69.7373" fill="#87CEEB" rx="16" ry="16" style="stroke:#000000;stroke-width:1;"/><path d="M38,89.7373 C42,89.7373 45,89.7373 49,85.7373 C57,85.7373 65,93.7373 65,101.7373 L65,105.7373 C65,109.7373 61,113.7373 57,113.7373 L19,113.7373 C15,113.7373 11,109.7373 11,105.7373 L11,101.7373 C11,93.7373 19,85.7373 27,85.7373 C31,89.7373 34,89.7373 38,89.7373" fill="#87CEEB" style="stroke:#000000;stroke-width:1;"/></g><g class="participant participant-tail" data-participant="P"><text fill="#FFFFFF" font-family="Verdana" font-size="14" lengthAdjust="spacing" textLength="31.0967" x="19.4517" y="439.021">Peer</text><ellipse cx="38" cy="458.9604" fill="#87CEEB" rx="16" ry="16" style="stroke:#000000;stroke-width:1;"/><path d="M38,478.9604 C42,478.9604 45,478.9604 49,474.9604 C57,474.9604 65,482.9604 65,490.9604 L65,494.9604 C65,498.9604 61,502.9604 57,502.9604 L19,502.9604 C15,502.9604 11,498.9604 11,494.9604 L11,490.9604 C11,482.9604 19,474.9604 27,474.9604 C31,478.9604 34,478.9604 38,478.9604" fill="#87CEEB" style="stroke:#000000;stroke-width:1;"/></g><g class="participant participant-head" data-participant="MP"><text fill="#FFFFFF" font-family="Verdana" font-size="14" lengthAdjust="spacing" textLength="78.4287" x="185.4414" y="128.8125">MasterPeer</text><ellipse cx="227.6558" cy="69.7373" fill="#90EE90" rx="16" ry="16" style="stroke:#000000;stroke-width:1;"/><path d="M227.6558,89.7373 C231.6558,89.7373 234.6558,89.7373 238.6558,85.7373 C246.6558,85.7373 254.6558,93.7373 254.6558,101.7373 L254.6558,105.7373 C254.6558,109.7373 250.6558,113.7373 246.6558,113.7373 L208.6558,113.7373 C204.6558,113.7373 200.6558,109.7373 200.6558,105.7373 L200.6558,101.7373 C200.6558,93.7373 208.6558,85.7373 216.6558,85.7373 C220.6558,89.7373 223.6558,89.7373 227.6558,89.7373" fill="#90EE90" style="stroke:#000000;stroke-width:1;"/></g><g class="participant participant-tail" data-participant="MP"><text fill="#FFFFFF" font-family="Verdana" font-size="14" lengthAdjust="spacing" textLength="78.4287" x="185.4414" y="439.021">MasterPeer</text><ellipse cx="227.6558" cy="458.9604" fill="#90EE90" rx="16" ry="16" style="stroke:#000000;stroke-width:1;"/><path d="M227.6558,478.9604 C231.6558,478.9604 234.6558,478.9604 238.6558,474.9604 C246.6558,474.9604 254.6558,482.9604 254.6558,490.9604 L254.6558,494.9604 C254.6558,498.9604 250.6558,502.9604 246.6558,502.9604 L208.6558,502.9604 C204.6558,502.9604 200.6558,498.9604 200.6558,494.9604 L200.6558,490.9604 C200.6558,482.9604 208.6558,474.9604 216.6558,474.9604 C220.6558,478.9604 223.6558,478.9604 227.6558,478.9604" fill="#90EE90" style="stroke:#000000;stroke-width:1;"/></g><g class="participant participant-head" data-participant="DB"><text fill="#FFFFFF" font-family="Verdana" font-size="14" lengthAdjust="spacing" textLength="49.9912" x="414.73" y="128.8125">CertDB</text><path d="M424.7256,78.7373 C424.7256,68.7373 442.7256,68.7373 442.7256,68.7373 C442.7256,68.7373 460.7256,68.7373 460.7256,78.7373 L460.7256,104.7373 C460.7256,114.7373 442.7256,114.7373 442.7256,114.7373 C442.7256,114.7373 424.7256,114.7373 424.7256,104.7373 L424.7256,78.7373" fill="#FBFF00" style="stroke:#000000;stroke-width:1.5;"/><path d="M424.7256,78.7373 C424.7256,88.7373 442.7256,88.7373 442.7256,88.7373 C442.7256,88.7373 460.7256,88.7373 460.7256,78.7373" fill="none" style="stroke:#000000;stroke-width:1.5;"/></g><g class="participant participant-tail" data-participant="DB"><text fill="#FFFFFF" font-family="Verdana" font-size="14" lengthAdjust="spacing" textLength="49.9912" x="414.73" y="439.021">CertDB</text><path d="M424.7256,451.9604 C424.7256,441.9604 442.7256,441.9604 442.7256,441.9604 C442.7256,441.9604 460.7256,441.9604 460.7256,451.9604 L460.7256,477.9604 C460.7256,487.9604 442.7256,487.9604 442.7256,487.9604 C442.7256,487.9604 424.7256,487.9604 424.7256,477.9604 L424.7256,451.9604" fill="#FBFF00" style="stroke:#000000;stroke-width:1.5;"/><path d="M424.7256,451.9604 C424.7256,461.9604 442.7256,461.9604 442.7256,461.9604 C442.7256,461.9604 460.7256,461.9604 460.7256,451.9604" fill="none" style="stroke:#000000;stroke-width:1.5;"/></g><g class="participant participant-head" data-participant="IPFS"><path d="M485.7212,104.7373 L527.6724,104.7373 C532.6724,104.7373 532.6724,118.2446 532.6724,118.2446 C532.6724,118.2446 532.6724,131.752 527.6724,131.752 L485.7212,131.752 C480.7212,131.752 480.7212,118.2446 480.7212,118.2446 C480.7212,118.2446 480.7212,104.7373 485.7212,104.7373" fill="#FFFFFF" style="stroke:#000000;stroke-width:1;"/><path d="M527.6724,104.7373 C522.6724,104.7373 522.6724,118.2446 522.6724,118.2446 C522.6724,131.752 527.6724,131.752 527.6724,131.752" fill="none" style="stroke:#000000;stroke-width:1;"/><text fill="#FFFFFF" font-family="Verdana" font-size="14" lengthAdjust="spacing" textLength="31.9512" x="485.7212" y="123.8125">IPFS</text></g><g class="participant participant-tail" data-participant="IPFS"><path d="M485.7212,424.9458 L527.6724,424.9458 C532.6724,424.9458 532.6724,438.4531 532.6724,438.4531 C532.6724,438.4531 532.6724,451.9604 527.6724,451.9604 L485.7212,451.9604 C480.7212,451.9604 480.7212,438.4531 480.7212,438.4531 C480.7212,438.4531 480.7212,424.9458 485.7212,424.9458" fill="#FFFFFF" style="stroke:#000000;stroke-width:1;"/><path d="M527.6724,424.9458 C522.6724,424.9458 522.6724,438.4531 522.6724,438.4531 C522.6724,451.9604 527.6724,451.9604 527.6724,451.9604" fill="none" style="stroke:#000000;stroke-width:1;"/><text fill="#FFFFFF" font-family="Verdana" font-size="14" lengthAdjust="spacing" textLength="31.9512" x="485.7212" y="444.021">IPFS</text></g><g class="participant participant-head" data-participant="GH"><path d="M547.6724,104.7373 L605.9888,104.7373 C610.9888,104.7373 610.9888,118.2446 610.9888,118.2446 C610.9888,118.2446 610.9888,131.752 605.9888,131.752 L547.6724,131.752 C542.6724,131.752 542.6724,118.2446 542.6724,118.2446 C542.6724,118.2446 542.6724,104.7373 547.6724,104.7373" fill="#FFFFFF" style="stroke:#000000;stroke-width:1;"/><path d="M605.9888,104.7373 C600.9888,104.7373 600.9888,118.2446 600.9888,118.2446 C600.9888,131.752 605.9888,131.752 605.9888,131.752" fill="none" style="stroke:#000000;stroke-width:1;"/><text fill="#FFFFFF" font-family="Verdana" font-size="14" lengthAdjust="spacing" textLength="48.3164" x="547.6724" y="123.8125">GitHub</text></g><g class="participant participant-tail" data-participant="GH"><path d="M547.6724,424.9458 L605.9888,424.9458 C610.9888,424.9458 610.9888,438.4531 610.9888,438.4531 C610.9888,438.4531 610.9888,451.9604 605.9888,451.9604 L547.6724,451.9604 C542.6724,451.9604 542.6724,438.4531 542.6724,438.4531 C542.6724,438.4531 542.6724,424.9458 547.6724,424.9458" fill="#FFFFFF" style="stroke:#000000;stroke-width:1;"/><path d="M605.9888,424.9458 C600.9888,424.9458 600.9888,438.4531 600.9888,438.4531 C600.9888,451.9604 605.9888,451.9604 605.9888,451.9604" fill="none" style="stroke:#000000;stroke-width:1;"/><text fill="#FFFFFF" font-family="Verdana" font-size="14" lengthAdjust="spacing" textLength="48.3164" x="547.6724" y="444.021">GitHub</text></g><g><title>MasterPeer</title><rect fill="#90EE90" height="244.3945" style="stroke:#FFFFFF;stroke-width:1;" width="10" x="222.6558" y="163.5513"/></g><g><title>CertDB</title><rect fill="#FBFF00" height="29.7993" style="stroke:#FFFFFF;stroke-width:1;" width="10" x="437.7256" y="244.9492"/></g><g class="message" data-participant-1="P" data-participant-2="MP"><polygon fill="#87CEEB" points="210.6558,159.5513,220.6558,163.5513,210.6558,167.5513,214.6558,163.5513" style="stroke:#87CEEB;stroke-width:1;"/><line style="stroke:#87CEEB;stroke-width:1;" x1="38" x2="216.6558" y1="163.5513" y2="163.5513"/><text fill="#FFFFFF" font-family="Verdana" font-size="13" font-weight="bold" lengthAdjust="spacing" textLength="9.2422" x="45" y="158.8218">1</text><text fill="#FFFFFF" font-family="Verdana" font-size="13" lengthAdjust="spacing" textLength="152.4136" x="58.2422" y="158.8218">REVOKE_REQ(Cert_ID)</text></g><path d="M237,176.5513 L237,217.5513 L394,217.5513 L394,186.5513 L384,176.5513 L237,176.5513" fill="#FFFFFF" style="stroke:#000000;stroke-width:1;"/><path d="M384,176.5513 L384,186.5513 L394,186.5513 L384,176.5513" fill="#FFFFFF" style="stroke:#000000;stroke-width:1;"/><text fill="#000000" font-family="Verdana" font-size="13" lengthAdjust="spacing" textLength="136.3984" x="243" y="194.6211">Authenticate request</text><text fill="#000000" font-family="Verdana" font-size="13" lengthAdjust="spacing" textLength="129.9175" x="243" y="210.4204">Check authorization</text><g class="message" data-participant-1="MP" data-participant-2="DB"><polygon fill="#90EE90" points="425.7256,240.9492,435.7256,244.9492,425.7256,248.9492,429.7256,244.9492" style="stroke:#90EE90;stroke-width:1;"/><line style="stroke:#90EE90;stroke-width:1;" x1="232.6558" x2="431.7256" y1="244.9492" y2="244.9492"/><text fill="#FFFFFF" font-family="Verdana" font-size="13" font-weight="bold" lengthAdjust="spacing" textLength="9.2422" x="239.6558" y="240.2197">2</text><text fill="#FFFFFF" font-family="Verdana" font-size="13" lengthAdjust="spacing" textLength="172.8276" x="252.8979" y="240.2197">MARK_REVOKED(Cert_ID)</text></g><g class="message" data-participant-1="DB" data-participant-2="MP"><polygon fill="#FBFF00" points="243.6558,270.7485,233.6558,274.7485,243.6558,278.7485,239.6558,274.7485" style="stroke:#FBFF00;stroke-width:1;"/><line style="stroke:#FBFF00;stroke-width:1;stroke-dasharray:2.0,2.0;" x1="237.6558" x2="441.7256" y1="274.7485" y2="274.7485"/><text fill="#FFFFFF" font-family="Verdana" font-size="13" font-weight="bold" lengthAdjust="spacing" textLength="9.2422" x="249.6558" y="270.019">3</text><text fill="#FFFFFF" font-family="Verdana" font-size="13" lengthAdjust="spacing" textLength="88.8418" x="262.8979" y="270.019">REVOKE_ACK</text></g><rect fill="#000000" height="3" style="stroke:#000000;stroke-width:1;" width="610.9888" x="5" y="303.6482"/><line style="stroke:#FFFFFF;stroke-width:0.5;" x1="5" x2="615.9888" y1="303.6482" y2="303.6482"/><line style="stroke:#FFFFFF;stroke-width:0.5;" x1="5" x2="615.9888" y1="306.6482" y2="306.6482"/><rect fill="#000000" height="23.7993" style="stroke:#FFFFFF;stroke-width:1;" width="185.5962" x="217.6963" y="292.7485"/><text fill="#FFFFFF" font-family="Verdana" font-size="13" font-weight="bold" lengthAdjust="spacing" textLength="167.1528" x="223.6963" y="309.8184">Revocation Publication</text><g class="message" data-participant-1="MP" data-participant-2="IPFS"><polygon fill="#90EE90" points="494.6968,344.3472,504.6968,348.3472,494.6968,352.3472,498.6968,348.3472" style="stroke:#90EE90;stroke-width:1;"/><line style="stroke:#90EE90;stroke-width:1;" x1="232.6558" x2="500.6968" y1="348.3472" y2="348.3472"/><text fill="#FFFFFF" font-family="Verdana" font-size="13" font-weight="bold" lengthAdjust="spacing" textLength="9.2422" x="239.6558" y="343.6177">4</text><text fill="#FFFFFF" font-family="Verdana" font-size="13" lengthAdjust="spacing" textLength="182.5522" x="252.8979" y="343.6177">PUBLISH_REVOKE(Cert_ID)</text></g><g class="message" data-participant-1="MP" data-participant-2="GH"><polygon fill="#90EE90" points="564.8306,374.1465,574.8306,378.1465,564.8306,382.1465,568.8306,378.1465" style="stroke:#90EE90;stroke-width:1;"/><line style="stroke:#90EE90;stroke-width:1;" x1="232.6558" x2="570.8306" y1="378.1465" y2="378.1465"/><text fill="#FFFFFF" font-family="Verdana" font-size="13" font-weight="bold" lengthAdjust="spacing" textLength="9.2422" x="239.6558" y="373.417">5</text><text fill="#FFFFFF" font-family="Verdana" font-size="13" lengthAdjust="spacing" textLength="182.5522" x="252.8979" y="373.417">PUBLISH_REVOKE(Cert_ID)</text></g><g class="message" data-participant-1="MP" data-participant-2="P"><polygon fill="#000000" points="49,403.9458,39,407.9458,49,411.9458,45,407.9458" style="stroke:#000000;stroke-width:1;"/><line style="stroke:#000000;stroke-width:1;stroke-dasharray:2.0,2.0;" x1="43" x2="226.6558" y1="407.9458" y2="407.9458"/><text fill="#FFFFFF" font-family="Verdana" font-size="13" font-weight="bold" lengthAdjust="spacing" textLength="9.2422" x="55" y="403.2163">6</text><text fill="#FFFFFF" font-family="Verdana" font-size="13" lengthAdjust="spacing" textLength="123.8428" x="68.2422" y="403.2163">REVOKE_CONFIRM</text></g><text fill="#FFFFFF" font-family="Verdana" font-size="10" lengthAdjust="spacing" textLength="3.5156" x="308.2366" y="520.0142">&#160;</text><!--SRC=[VLFRZjem47ttLyncAxLzG4BgGxj8h4GkN0HPqgIjj6ehv2GEM0IREWxLjjf_Nzi4rk6oVdBcd3bpPZovaIko8R0jCMK8lOTHoLDSGex56Wo4gZLbMopm1bAShPU2roptUCa5t7RDiHWvAN1ToY5dig4CpT7A3roIok8ozGt_4O1xAjlaA8IBd8XsCG1BlOazQ_r19hcm2s0TIEHJIG3_9HLlzM90KpwHH10kdxRat7QhM1CpnHBofoOi8r0fVSgMbd9rWBJuZ1PaHXbfTN8KFw9N1WiGOI5fHhUOoSiIFjrH5RwkS22ybNsbIHEgqCsxA0ZYXJUVpMDeJX-Sso-VlI1m7OM7W-IRObWqZTzrW-2kQ_0WdCUFjeB6YxGekWPF7bL-U8hlhJW8xT_AYGWH3k0A8h0S7T0GL-eXZvnGaSvieHnBdEAAWECH8NtNK7qNMWwHUhzQKIRHC344VO6MoGDbHEMuJWrfD3wX84cbMZsVugLUYqyzq3LfGJEi5ZycEwukb3E819SyuwLgj9QSrPkK28GYwFoqslnzhrhgGHpyc4-3HHny_Q3L5XF_enu0tMdDopsR_qpGvKeQXK6jVciczow4tjLA_cBUYcHhKFLNND1_nXT2eV5mfgYi-6uFma4yNUpz-1VCd4rL1JfQpegrcnfuKvGJIm2XVhyrg3ejQNFlzz-mfn-i1z5tTpP9net7LulNyqRZwrachNCFhtwz-SDm4eUsvp12gE1gu6eXdHS0]--></g></svg>