<svg xmlns="http://www.w3.org/2000/svg" xmlns:xlink="http://www.w3.org/1999/xlink" contentStyleType="text/css" data-diagram-type="CLASS" height="435px" preserveAspectRatio="none" style="width:534px;height:435px;background:#000000;" version="1.1" viewBox="0 0 534 435" width="534px" zoomAndPan="magnify"><title>Embedded Master Peer Certificate Model</title><defs/><g><g class="title" data-source-line="14"><text fill="#000000" font-family="Verdana" font-size="22" font-weight="bold" lengthAdjust="spacing" textLength="501.1338" x="15" y="37.1182">Embedded Master Peer Certificate Model</text></g><!--class MasterPeer--><g class="entity" data-entity="MasterPeer" data-source-line="16" data-uid="ent0002" id="entity_MasterPeer"><rect fill="#90EE90" height="112.0586" rx="2.5" ry="2.5" style="stroke:#FFFFFF;stroke-width:1;" width="250.3789" x="147.3774" y="59.7373"/><ellipse cx="229.6025" cy="73.7373" fill="#FFFFFF" rx="9" ry="9" style="stroke:#000000;stroke-width:1;"/><path d="M232.0757,79.8804 Q231.4946,80.1792 230.8555,80.3286 Q230.2163,80.478 229.5107,80.478 Q227.0039,80.478 225.6841,78.8262 Q224.3643,77.1743 224.3643,74.0532 Q224.3643,70.9238 225.6841,69.272 Q227.0039,67.6201 229.5107,67.6201 Q230.2163,67.6201 230.8638,67.7695 Q231.5112,67.9189 232.0757,68.2178 L232.0757,70.9404 Q231.4448,70.3594 230.8513,70.0896 Q230.2578,69.8198 229.627,69.8198 Q228.2822,69.8198 227.5974,70.8865 Q226.9126,71.9531 226.9126,74.0532 Q226.9126,76.145 227.5974,77.2117 Q228.2822,78.2783 229.627,78.2783 Q230.2578,78.2783 230.8513,78.0085 Q231.4448,77.7388 232.0757,77.1577 Z " fill="#000000"/><text fill="#000000" font-family="Verdana" font-size="14" lengthAdjust="spacing" textLength="78.4287" x="247.1025" y="79.3052">MasterPeer</text><line style="stroke:#FFFFFF;stroke-width:1;" x1="148.3774" x2="396.7563" y1="87.7373" y2="87.7373"/><ellipse cx="158.3774" cy="101.7446" fill="none" rx="3" ry="3" style="stroke:#000000;stroke-width:1;"/><text fill="#000000" font-family="Verdana" font-size="14" lengthAdjust="spacing" textLength="99.7568" x="165.3774" y="105.8125">peerId: String</text><ellipse cx="158.3774" cy="118.7593" fill="none" rx="3" ry="3" style="stroke:#000000;stroke-width:1;"/><text fill="#000000" font-family="Verdana" font-size="14" lengthAdjust="spacing" textLength="161.793" x="165.3774" y="122.8271">kyberPublicKey: byte[]</text><ellipse cx="158.3774" cy="135.7739" fill="none" rx="3" ry="3" style="stroke:#000000;stroke-width:1;"/><text fill="#000000" font-family="Verdana" font-size="14" lengthAdjust="spacing" textLength="183.1279" x="165.3774" y="139.8418">dilithiumPublicKey: byte[]</text><ellipse cx="158.3774" cy="152.7886" fill="none" rx="3" ry="3" style="stroke:#000000;stroke-width:1;"/><text fill="#000000" font-family="Verdana" font-size="14" lengthAdjust="spacing" textLength="226.3789" x="165.3774" y="156.8564">certificate: EmbeddedCertificate</text><line style="stroke:#FFFFFF;stroke-width:1;" x1="148.3774" x2="396.7563" y1="163.7959" y2="163.7959"/></g><!--class EmbeddedCertificate--><g class="entity" data-entity="EmbeddedCertificate" data-source-line="23" data-uid="ent0003" id="entity_EmbeddedCertificate"><rect fill="#90EE90" height="180.1172" rx="2.5" ry="2.5" style="stroke:#FFFFFF;stroke-width:1;" width="249.0459" x="148.0474" y="248.7973"/><ellipse cx="195.9151" cy="262.7973" fill="#FFFFFF" rx="9" ry="9" style="stroke:#000000;stroke-width:1;"/><path d="M198.3883,268.9404 Q197.8072,269.2392 197.168,269.3886 Q196.5289,269.538 195.8233,269.538 Q193.3165,269.538 191.9967,267.8862 Q190.6768,266.2343 190.6768,263.1132 Q190.6768,259.9838 191.9967,258.332 Q193.3165,256.6801 195.8233,256.6801 Q196.5289,256.6801 197.1763,256.8295 Q197.8238,256.9789 198.3883,257.2778 L198.3883,260.0004 Q197.7574,259.4194 197.1639,259.1496 Q196.5704,258.8798 195.9395,258.8798 Q194.5948,258.8798 193.91,259.9465 Q193.2252,261.0131 193.2252,263.1132 Q193.2252,265.205 193.91,266.2717 Q194.5948,267.3383 195.9395,267.3383 Q196.5704,267.3383 197.1639,267.0685 Q197.7574,266.7988 198.3883,266.2177 Z " fill="#000000"/><text fill="#000000" font-family="Verdana" font-size="14" lengthAdjust="spacing" textLength="145.8105" x="213.4151" y="268.3652">EmbeddedCertificate</text><line style="stroke:#FFFFFF;stroke-width:1;" x1="149.0474" x2="396.0933" y1="276.7973" y2="276.7973"/><ellipse cx="159.0474" cy="290.8046" fill="none" rx="3" ry="3" style="stroke:#000000;stroke-width:1;"/><text fill="#000000" font-family="Verdana" font-size="14" lengthAdjust="spacing" textLength="175.4307" x="166.0474" y="294.8725">certificateVersion: String</text><ellipse cx="159.0474" cy="307.8193" fill="none" rx="3" ry="3" style="stroke:#000000;stroke-width:1;"/><text fill="#000000" font-family="Verdana" font-size="14" lengthAdjust="spacing" textLength="109.9834" x="166.0474" y="311.8871">issuerId: String</text><ellipse cx="159.0474" cy="324.8339" fill="none" rx="3" ry="3" style="stroke:#000000;stroke-width:1;"/><text fill="#000000" font-family="Verdana" font-size="14" lengthAdjust="spacing" textLength="119.2256" x="166.0474" y="328.9018">subjectId: String</text><ellipse cx="159.0474" cy="341.8486" fill="none" rx="3" ry="3" style="stroke:#000000;stroke-width:1;"/><text fill="#000000" font-family="Verdana" font-size="14" lengthAdjust="spacing" textLength="173.0313" x="166.0474" y="345.9164">subjectPublicKey: byte[]</text><ellipse cx="159.0474" cy="358.8632" fill="none" rx="3" ry="3" style="stroke:#000000;stroke-width:1;"/><text fill="#000000" font-family="Verdana" font-size="14" lengthAdjust="spacing" textLength="120.6748" x="166.0474" y="362.9311">signature: byte[]</text><ellipse cx="159.0474" cy="375.8779" fill="none" rx="3" ry="3" style="stroke:#000000;stroke-width:1;"/><text fill="#000000" font-family="Verdana" font-size="14" lengthAdjust="spacing" textLength="147.9912" x="166.0474" y="379.9457">validFrom: DateTime</text><ellipse cx="159.0474" cy="392.8925" fill="none" rx="3" ry="3" style="stroke:#000000;stroke-width:1;"/><text fill="#000000" font-family="Verdana" font-size="14" lengthAdjust="spacing" textLength="128.9805" x="166.0474" y="396.9604">validTo: DateTime</text><ellipse cx="159.0474" cy="409.9072" fill="none" rx="3" ry="3" style="stroke:#000000;stroke-width:1;"/><text fill="#000000" font-family="Verdana" font-size="14" lengthAdjust="spacing" textLength="225.0459" x="166.0474" y="413.975">metadata: Map&lt;String, String&gt;</text><line style="stroke:#FFFFFF;stroke-width:1;" x1="149.0474" x2="396.0933" y1="420.9145" y2="420.9145"/></g><!--reverse link MasterPeer to EmbeddedCertificate--><g class="link" data-entity-1="MasterPeer" data-entity-2="EmbeddedCertificate" data-source-line="34" data-uid="lnk4" id="link_MasterPeer_EmbeddedCertificate"><path codeLine="34" d="M272.5674,184.2773 C272.5674,207.2973 272.5674,222.5973 272.5674,248.3273" fill="none" id="MasterPeer-backto-EmbeddedCertificate" style="stroke:#000000;stroke-width:1;"/><polygon fill="#000000" points="272.5674,172.2773,268.5674,178.2773,272.5674,184.2773,276.5674,178.2773,272.5674,172.2773" style="stroke:#000000;stroke-width:1;"/><text fill="#000000" font-family="Verdana" font-size="13" lengthAdjust="spacing" textLength="51.105" x="273.5674" y="215.8671">embeds</text></g><!--SRC=[RP91ImCn48Nl-HKZ7WIrq6iNyM1jHQGWMBo8XzdDj1qtkrcIYR28_zrajzHjkpc4yDxBp3SX5xAZYg0noBLIL_1aR8u6DBeIEalvaki67LQGOr5kdGsrdbjZ7LnEkpL8QDfWCBAqjHn7OkMvGU_1IskutWxk59t-em0UJklFfel5R9eSwpIvlRhiLbJFs_mg9Io6O57bf3LfMA4NSl1ASPkJ4zvmWKAmifgCKdtpFjHb4iSDDF7uh3Du4vTWarIsUOo4t73nGcq6UIlqyTbPcWtBZaCrRXV_RRC3s80bKVSS8-OUQ53ZdPndMn_1iVVXZDY7_8iA6LV7KJrlQvJWw4ZzHiDwwMoLmMC4M7Fy5GTzRK_KYWGr2cRnMPkxllFjdk0-pJfuxUl9P7Je32Yf_Wy0]--></g></svg>