<svg xmlns="http://www.w3.org/2000/svg" xmlns:xlink="http://www.w3.org/1999/xlink" contentStyleType="text/css" data-diagram-type="SEQUENCE" height="437px" preserveAspectRatio="none" style="width:538px;height:437px;background:#000000;" version="1.1" viewBox="0 0 538 437" width="538px" zoomAndPan="magnify"><title>Diagram 6: Keepalive Heartbeat Protocol</title><defs/><g><text fill="#FFFFFF" font-family="Verdana" font-size="22" font-weight="bold" lengthAdjust="spacing" textLength="505.7959" x="15" y="37.1182">Diagram 6: Keepalive Heartbeat Protocol</text><g><title>PeerA</title><rect fill="#87CEEB" height="146.9966" style="stroke:#000000;stroke-width:1;" width="10" x="69.6091" y="163.5513"/></g><g><title>PeerA</title><rect fill="#000000" fill-opacity="0.00000" height="196.7959" width="8" x="70.6091" y="131.752"/><line style="stroke:#FFFFFF;stroke-width:1;stroke-dasharray:5,5;" x1="74.6091" x2="74.6091" y1="131.752" y2="328.5479"/></g><g><title>PeerB</title><rect fill="#000000" fill-opacity="0.00000" height="196.7959" width="8" x="179.8401" y="131.752"/><line style="stroke:#FFFFFF;stroke-width:1;stroke-dasharray:5,5;" x1="183.8401" x2="183.8401" y1="131.752" y2="328.5479"/></g><g><title>Bridge</title><rect fill="#000000" fill-opacity="0.00000" height="196.7959" width="8" x="330.2737" y="131.752"/><line style="stroke:#FFFFFF;stroke-width:1;stroke-dasharray:5,5;" x1="333.6741" x2="333.6741" y1="131.752" y2="328.5479"/></g><g class="participant participant-head" data-participant="PA"><text fill="#FFFFFF" font-family="Verdana" font-size="14" lengthAdjust="spacing" textLength="40.667" x="51.2756" y="128.8125">PeerA</text><ellipse cx="74.6091" cy="69.7373" fill="#87CEEB" rx="16" ry="16" style="stroke:#000000;stroke-width:1;"/><path d="M74.6091,89.7373 C78.6091,89.7373 81.6091,89.7373 85.6091,85.7373 C93.6091,85.7373 101.6091,93.7373 101.6091,101.7373 L101.6091,105.7373 C101.6091,109.7373 97.6091,113.7373 93.6091,113.7373 L55.6091,113.7373 C51.6091,113.7373 47.6091,109.7373 47.6091,105.7373 L47.6091,101.7373 C47.6091,93.7373 55.6091,85.7373 63.6091,85.7373 C67.6091,89.7373 70.6091,89.7373 74.6091,89.7373" fill="#87CEEB" style="stroke:#000000;stroke-width:1;"/></g><g class="participant participant-tail" data-participant="PA"><text fill="#FFFFFF" font-family="Verdana" font-size="14" lengthAdjust="spacing" textLength="40.667" x="51.2756" y="341.623">PeerA</text><ellipse cx="74.6091" cy="361.5625" fill="#87CEEB" rx="16" ry="16" style="stroke:#000000;stroke-width:1;"/><path d="M74.6091,381.5625 C78.6091,381.5625 81.6091,381.5625 85.6091,377.5625 C93.6091,377.5625 101.6091,385.5625 101.6091,393.5625 L101.6091,397.5625 C101.6091,401.5625 97.6091,405.5625 93.6091,405.5625 L55.6091,405.5625 C51.6091,405.5625 47.6091,401.5625 47.6091,397.5625 L47.6091,393.5625 C47.6091,385.5625 55.6091,377.5625 63.6091,377.5625 C67.6091,381.5625 70.6091,381.5625 74.6091,381.5625" fill="#87CEEB" style="stroke:#000000;stroke-width:1;"/></g><g class="participant participant-head" data-participant="PB"><text fill="#FFFFFF" font-family="Verdana" font-size="14" lengthAdjust="spacing" textLength="40.6943" x="160.4929" y="128.8125">PeerB</text><ellipse cx="183.8401" cy="69.7373" fill="#FFB6C1" rx="16" ry="16" style="stroke:#000000;stroke-width:1;"/><path d="M183.8401,89.7373 C187.8401,89.7373 190.8401,89.7373 194.8401,85.7373 C202.8401,85.7373 210.8401,93.7373 210.8401,101.7373 L210.8401,105.7373 C210.8401,109.7373 206.8401,113.7373 202.8401,113.7373 L164.8401,113.7373 C160.8401,113.7373 156.8401,109.7373 156.8401,105.7373 L156.8401,101.7373 C156.8401,93.7373 164.8401,85.7373 172.8401,85.7373 C176.8401,89.7373 179.8401,89.7373 183.8401,89.7373" fill="#FFB6C1" style="stroke:#000000;stroke-width:1;"/></g><g class="participant participant-tail" data-participant="PB"><text fill="#FFFFFF" font-family="Verdana" font-size="14" lengthAdjust="spacing" textLength="40.6943" x="160.4929" y="341.623">PeerB</text><ellipse cx="183.8401" cy="361.5625" fill="#FFB6C1" rx="16" ry="16" style="stroke:#000000;stroke-width:1;"/><path d="M183.8401,381.5625 C187.8401,381.5625 190.8401,381.5625 194.8401,377.5625 C202.8401,377.5625 210.8401,385.5625 210.8401,393.5625 L210.8401,397.5625 C210.8401,401.5625 206.8401,405.5625 202.8401,405.5625 L164.8401,405.5625 C160.8401,405.5625 156.8401,401.5625 156.8401,397.5625 L156.8401,393.5625 C156.8401,385.5625 164.8401,377.5625 172.8401,377.5625 C176.8401,381.5625 179.8401,381.5625 183.8401,381.5625" fill="#FFB6C1" style="stroke:#000000;stroke-width:1;"/></g><g class="participant participant-head" data-participant="BR"><path d="M306.6741,104.7373 L361.8733,104.7373 C366.8733,104.7373 366.8733,118.2446 366.8733,118.2446 C366.8733,118.2446 366.8733,131.752 361.8733,131.752 L306.6741,131.752 C301.6741,131.752 301.6741,118.2446 301.6741,118.2446 C301.6741,118.2446 301.6741,104.7373 306.6741,104.7373" fill="#FF0000" style="stroke:#000000;stroke-width:1;"/><path d="M361.8733,104.7373 C356.8733,104.7373 356.8733,118.2446 356.8733,118.2446 C356.8733,131.752 361.8733,131.752 361.8733,131.752" fill="none" style="stroke:#000000;stroke-width:1;"/><text fill="#FFFFFF" font-family="Verdana" font-size="14" lengthAdjust="spacing" textLength="45.1992" x="306.6741" y="123.8125">Bridge</text></g><g class="participant participant-tail" data-participant="BR"><path d="M306.6741,327.5479 L361.8733,327.5479 C366.8733,327.5479 366.8733,341.0552 366.8733,341.0552 C366.8733,341.0552 366.8733,354.5625 361.8733,354.5625 L306.6741,354.5625 C301.6741,354.5625 301.6741,341.0552 301.6741,341.0552 C301.6741,341.0552 301.6741,327.5479 306.6741,327.5479" fill="#FF0000" style="stroke:#000000;stroke-width:1;"/><path d="M361.8733,327.5479 C356.8733,327.5479 356.8733,341.0552 356.8733,341.0552 C356.8733,354.5625 361.8733,354.5625 361.8733,354.5625" fill="none" style="stroke:#000000;stroke-width:1;"/><text fill="#FFFFFF" font-family="Verdana" font-size="14" lengthAdjust="spacing" textLength="45.1992" x="306.6741" y="346.623">Bridge</text></g><g><title>PeerA</title><rect fill="#87CEEB" height="146.9966" style="stroke:#000000;stroke-width:1;" width="10" x="69.6091" y="163.5513"/></g><g class="message" data-participant-1="PB" data-participant-2="PA"><polygon fill="#FFB6C1" points="90.6091,159.5513,80.6091,163.5513,90.6091,167.5513,86.6091,163.5513" style="stroke:#FFB6C1;stroke-width:1;"/><line style="stroke:#FFB6C1;stroke-width:1;" x1="84.6091" x2="182.8401" y1="163.5513" y2="163.5513"/><text fill="#FFFFFF" font-family="Verdana" font-size="13" font-weight="bold" lengthAdjust="spacing" textLength="9.2422" x="96.6091" y="158.8218">1</text><text fill="#FFFFFF" font-family="Verdana" font-size="13" lengthAdjust="spacing" textLength="71.9888" x="109.8513" y="158.8218">KEEPALIVE</text></g><path d="M84.6091,176.5513 L84.6091,217.5513 L219.6091,217.5513 L219.6091,186.5513 L209.6091,176.5513 L84.6091,176.5513" fill="#FFFFFF" style="stroke:#000000;stroke-width:1;"/><path d="M209.6091,176.5513 L209.6091,186.5513 L219.6091,186.5513 L209.6091,176.5513" fill="#FFFFFF" style="stroke:#000000;stroke-width:1;"/><text fill="#000000" font-family="Verdana" font-size="13" lengthAdjust="spacing" textLength="114.5244" x="90.6091" y="194.6211">Check connection</text><text fill="#000000" font-family="Verdana" font-size="13" lengthAdjust="spacing" textLength="91.311" x="90.6091" y="210.4204">Reset timeout</text><g class="message" data-participant-1="PA" data-participant-2="BR"><polygon fill="#87CEEB" points="322.2737,240.9492,332.2737,244.9492,322.2737,248.9492,326.2737,244.9492" style="stroke:#87CEEB;stroke-width:1;"/><line style="stroke:#87CEEB;stroke-width:1;" x1="79.6091" x2="328.2737" y1="244.9492" y2="244.9492"/><text fill="#FFFFFF" font-family="Verdana" font-size="13" font-weight="bold" lengthAdjust="spacing" textLength="9.2422" x="86.6091" y="240.2197">2</text><text fill="#FFFFFF" font-family="Verdana" font-size="13" lengthAdjust="spacing" textLength="77.9556" x="99.8513" y="240.2197">HEARTBEAT</text></g><path d="M338.6091,257.9492 L338.6091,282.9492 L489.6091,282.9492 L489.6091,267.9492 L479.6091,257.9492 L338.6091,257.9492" fill="#FFFFFF" style="stroke:#000000;stroke-width:1;"/><path d="M479.6091,257.9492 L479.6091,267.9492 L489.6091,267.9492 L479.6091,257.9492" fill="#FFFFFF" style="stroke:#000000;stroke-width:1;"/><text fill="#000000" font-family="Verdana" font-size="13" lengthAdjust="spacing" textLength="130.5776" x="344.6091" y="276.019">Forward to all peers</text><g class="message" data-participant-1="BR" data-participant-2="PB"><polygon fill="#FF0000" points="194.8401,306.5479,184.8401,310.5479,194.8401,314.5479,190.8401,310.5479" style="stroke:#FF0000;stroke-width:1;"/><line style="stroke:#FF0000;stroke-width:1;" x1="188.8401" x2="333.2737" y1="310.5479" y2="310.5479"/><text fill="#FFFFFF" font-family="Verdana" font-size="13" font-weight="bold" lengthAdjust="spacing" textLength="9.2422" x="200.8401" y="305.8184">3</text><text fill="#FFFFFF" font-family="Verdana" font-size="13" lengthAdjust="spacing" textLength="113.1914" x="214.0823" y="305.8184">HEARTBEAT_ACK</text></g><text fill="#FFFFFF" font-family="Verdana" font-size="10" lengthAdjust="spacing" textLength="3.5156" x="266.1401" y="422.6162">&#160;</text><!--SRC=[VP9HQzim58NVzIjktS6U1jjBDmeRI8xSbcQhiSEWT2CezhKZuaYUBAUKiVy-IKs2t2xJc- -vzpj7LpwpQzmYz9sGYf2tSDNfbUYW5cO3GIB3HgfU6B65bQWshT6ZgbFTQGFdxyE9EcfinDZPJ2kxRyd2yUHlsk8GzIht3Ry907k9tSyuHPiQpTGC8ABlQtyydrPMczX0-49fdpe4yOY3djmbYC6-j6XGswSUNyUUcErhmQp4NoEg2c5mVAdQY3mS90-VomRdKk7a9aVuKJsnM81S62ihsGjb_usOoPrqvTE4GyF_fazSCfG6SlOcvxnOqcLwDxyh0E0p9EUVFgQSi-GWiecOPUmY_U15LjpChlX4R1gVp8lbVRdWNrzC-fCGylm-IOveQ09YW9p294VSmPux64p24FSE8qB2ZAnR32siW4aaGgoqxl-OIT7wjxkuX5l4NdHoXt2DRlah51PoewskTETYZLQhSRj2GuZpU_SmSVpvnSLq2CvpEh_vpdr6kHFkFt-LFlpzHhPh6qRIDLORgBHIw4Qq-g4A7D22bLlKetLcz6X6ZsQik8HhJei5utGH8xsGQVCeJ0rMW-WwwDsU1aBS1Xmdte4FpIBEagQtfCOeEY6DTcotxEGl]--></g></svg>