<svg xmlns="http://www.w3.org/2000/svg" xmlns:xlink="http://www.w3.org/1999/xlink" contentStyleType="text/css" data-diagram-type="SEQUENCE" height="652px" preserveAspectRatio="none" style="width:613px;height:652px;background:#000000;" version="1.1" viewBox="0 0 613 652" width="613px" zoomAndPan="magnify"><title>Diagram 3: Identity Establishment Flow</title><defs/><g><text fill="#FFFFFF" font-family="Verdana" font-size="22" font-weight="bold" lengthAdjust="spacing" textLength="492.9053" x="58.5896" y="37.1182">Diagram 3: Identity Establishment Flow</text><g><title>PeerA</title><rect fill="#000000" fill-opacity="0.00000" height="436.3911" width="8" x="209" y="131.752"/><line style="stroke:#FFFFFF;stroke-width:1;" x1="213" x2="213" y1="131.752" y2="568.1431"/></g><g><title>MasterPeer</title><rect fill="#000000" fill-opacity="0.00000" height="436.3911" width="8" x="436.2314" y="131.752"/><line style="stroke:#FFFFFF;stroke-width:1;" x1="440.0171" x2="440.0171" y1="131.752" y2="568.1431"/></g><g class="participant participant-head" data-participant="PA"><text fill="#FFFFFF" font-family="Verdana" font-size="14" lengthAdjust="spacing" textLength="40.667" x="189.6665" y="128.8125">PeerA</text><ellipse cx="213" cy="69.7373" fill="#87CEEB" rx="16" ry="16" style="stroke:#000000;stroke-width:1;"/><path d="M213,89.7373 C217,89.7373 220,89.7373 224,85.7373 C232,85.7373 240,93.7373 240,101.7373 L240,105.7373 C240,109.7373 236,113.7373 232,113.7373 L194,113.7373 C190,113.7373 186,109.7373 186,105.7373 L186,101.7373 C186,93.7373 194,85.7373 202,85.7373 C206,89.7373 209,89.7373 213,89.7373" fill="#87CEEB" style="stroke:#000000;stroke-width:1;"/></g><g class="participant participant-tail" data-participant="PA"><text fill="#FFFFFF" font-family="Verdana" font-size="14" lengthAdjust="spacing" textLength="40.667" x="189.6665" y="581.2183">PeerA</text><ellipse cx="213" cy="601.1577" fill="#87CEEB" rx="16" ry="16" style="stroke:#000000;stroke-width:1;"/><path d="M213,621.1577 C217,621.1577 220,621.1577 224,617.1577 C232,617.1577 240,625.1577 240,633.1577 L240,637.1577 C240,641.1577 236,645.1577 232,645.1577 L194,645.1577 C190,645.1577 186,641.1577 186,637.1577 L186,633.1577 C186,625.1577 194,617.1577 202,617.1577 C206,621.1577 209,621.1577 213,621.1577" fill="#87CEEB" style="stroke:#000000;stroke-width:1;"/></g><g class="participant participant-head" data-participant="MP"><text fill="#FFFFFF" font-family="Verdana" font-size="14" lengthAdjust="spacing" textLength="78.4287" x="398.0171" y="128.8125">MasterPeer</text><ellipse cx="440.2314" cy="69.7373" fill="#90EE90" rx="16" ry="16" style="stroke:#000000;stroke-width:1;"/><path d="M440.2314,89.7373 C444.2314,89.7373 447.2314,89.7373 451.2314,85.7373 C459.2314,85.7373 467.2314,93.7373 467.2314,101.7373 L467.2314,105.7373 C467.2314,109.7373 463.2314,113.7373 459.2314,113.7373 L421.2314,113.7373 C417.2314,113.7373 413.2314,109.7373 413.2314,105.7373 L413.2314,101.7373 C413.2314,93.7373 421.2314,85.7373 429.2314,85.7373 C433.2314,89.7373 436.2314,89.7373 440.2314,89.7373" fill="#90EE90" style="stroke:#000000;stroke-width:1;"/></g><g class="participant participant-tail" data-participant="MP"><text fill="#FFFFFF" font-family="Verdana" font-size="14" lengthAdjust="spacing" textLength="78.4287" x="398.0171" y="581.2183">MasterPeer</text><ellipse cx="440.2314" cy="601.1577" fill="#90EE90" rx="16" ry="16" style="stroke:#000000;stroke-width:1;"/><path d="M440.2314,621.1577 C444.2314,621.1577 447.2314,621.1577 451.2314,617.1577 C459.2314,617.1577 467.2314,625.1577 467.2314,633.1577 L467.2314,637.1577 C467.2314,641.1577 463.2314,645.1577 459.2314,645.1577 L421.2314,645.1577 C417.2314,645.1577 413.2314,641.1577 413.2314,637.1577 L413.2314,633.1577 C413.2314,625.1577 421.2314,617.1577 429.2314,617.1577 C433.2314,621.1577 436.2314,621.1577 440.2314,621.1577" fill="#90EE90" style="stroke:#000000;stroke-width:1;"/></g><rect fill="#000000" height="3" style="stroke:#000000;stroke-width:1;" width="601.0845" x="5" y="162.6516"/><line style="stroke:#FFFFFF;stroke-width:0.5;" x1="5" x2="606.0845" y1="162.6516" y2="162.6516"/><line style="stroke:#FFFFFF;stroke-width:0.5;" x1="5" x2="606.0845" y1="165.6516" y2="165.6516"/><rect fill="#000000" height="23.7993" style="stroke:#FFFFFF;stroke-width:1;" width="191.6011" x="209.7417" y="151.752"/><text fill="#FFFFFF" font-family="Verdana" font-size="13" font-weight="bold" lengthAdjust="spacing" textLength="173.1577" x="215.7417" y="168.8218">Key Generation &amp; Claim</text><g class="message" data-participant-1="PA" data-participant-2="PA"><line style="stroke:#000000;stroke-width:1;" x1="213" x2="255" y1="207.3506" y2="207.3506"/><line style="stroke:#000000;stroke-width:1;" x1="255" x2="255" y1="207.3506" y2="220.3506"/><line style="stroke:#000000;stroke-width:1;" x1="214" x2="255" y1="220.3506" y2="220.3506"/><polygon fill="#000000" points="224,216.3506,214,220.3506,224,224.3506,220,220.3506" style="stroke:#000000;stroke-width:1;"/><text fill="#FFFFFF" font-family="Verdana" font-size="13" font-weight="bold" lengthAdjust="spacing" textLength="9.2422" x="220" y="202.6211">1</text><text fill="#FFFFFF" font-family="Verdana" font-size="13" lengthAdjust="spacing" textLength="199.9893" x="233.2422" y="202.6211">Generate Kyber-1024 Key Pair</text></g><path d="M10,233.3506 L10,274.3506 L208,274.3506 L208,243.3506 L198,233.3506 L10,233.3506" fill="#FFFFFF" style="stroke:#000000;stroke-width:1;"/><path d="M198,233.3506 L198,243.3506 L208,243.3506 L198,233.3506" fill="#FFFFFF" style="stroke:#000000;stroke-width:1;"/><text fill="#000000" font-family="Verdana" font-size="13" lengthAdjust="spacing" textLength="177.106" x="16" y="251.4204">- Follows NIST SP 800-56C</text><text fill="#000000" font-family="Verdana" font-size="13" lengthAdjust="spacing" textLength="168.9556" x="16" y="267.2197">- Store private key locally</text><g class="message" data-participant-1="PA" data-participant-2="PA"><line style="stroke:#000000;stroke-width:1;" x1="213" x2="255" y1="317.5479" y2="317.5479"/><line style="stroke:#000000;stroke-width:1;" x1="255" x2="255" y1="317.5479" y2="330.5479"/><line style="stroke:#000000;stroke-width:1;" x1="214" x2="255" y1="330.5479" y2="330.5479"/><polygon fill="#000000" points="224,326.5479,214,330.5479,224,334.5479,220,330.5479" style="stroke:#000000;stroke-width:1;"/><text fill="#FFFFFF" font-family="Verdana" font-size="13" font-weight="bold" lengthAdjust="spacing" textLength="9.2422" x="220" y="304.9187">2</text><text fill="#FFFFFF" font-family="Verdana" font-size="13" lengthAdjust="spacing" textLength="95.8179" x="233.2422" y="297.019">Derive Peer ID</text><text fill="#FFFFFF" font-family="Verdana" font-size="13" lengthAdjust="spacing" textLength="145.3994" x="233.2422" y="312.8184">SHA3-256(Public Key)</text></g><path d="M24,343.5479 L24,368.5479 L207,368.5479 L207,353.5479 L197,343.5479 L24,343.5479" fill="#FFFFFF" style="stroke:#000000;stroke-width:1;"/><path d="M197,343.5479 L197,353.5479 L207,353.5479 L197,343.5479" fill="#FFFFFF" style="stroke:#000000;stroke-width:1;"/><text fill="#000000" font-family="Verdana" font-size="13" lengthAdjust="spacing" textLength="162.0811" x="30" y="361.6177">32-byte unique identifier</text><g class="message" data-participant-1="PA" data-participant-2="PA"><line style="stroke:#000000;stroke-width:1;" x1="213" x2="255" y1="411.9458" y2="411.9458"/><line style="stroke:#000000;stroke-width:1;" x1="255" x2="255" y1="411.9458" y2="424.9458"/><line style="stroke:#000000;stroke-width:1;" x1="214" x2="255" y1="424.9458" y2="424.9458"/><polygon fill="#000000" points="224,420.9458,214,424.9458,224,428.9458,220,424.9458" style="stroke:#000000;stroke-width:1;"/><text fill="#FFFFFF" font-family="Verdana" font-size="13" font-weight="bold" lengthAdjust="spacing" textLength="9.2422" x="220" y="399.3167">3</text><text fill="#FFFFFF" font-family="Verdana" font-size="13" lengthAdjust="spacing" textLength="149.9824" x="233.2422" y="391.417">Self-sign identity claim</text><text fill="#FFFFFF" font-family="Verdana" font-size="13" lengthAdjust="spacing" textLength="84.481" x="233.2422" y="407.2163">(Dilithium-5)</text></g><rect fill="#000000" height="3" style="stroke:#000000;stroke-width:1;" width="601.0845" x="5" y="453.8455"/><line style="stroke:#FFFFFF;stroke-width:0.5;" x1="5" x2="606.0845" y1="453.8455" y2="453.8455"/><line style="stroke:#FFFFFF;stroke-width:0.5;" x1="5" x2="606.0845" y1="456.8455" y2="456.8455"/><rect fill="#000000" height="23.7993" style="stroke:#FFFFFF;stroke-width:1;" width="225.3516" x="192.8665" y="442.9458"/><text fill="#FFFFFF" font-family="Verdana" font-size="13" font-weight="bold" lengthAdjust="spacing" textLength="206.9082" x="198.8665" y="460.0156">Encrypted Claim Submission</text><g class="message" data-participant-1="PA" data-participant-2="MP"><polygon fill="#87CEEB" points="428.2314,494.5444,438.2314,498.5444,428.2314,502.5444,432.2314,498.5444" style="stroke:#87CEEB;stroke-width:1;"/><line style="stroke:#87CEEB;stroke-width:1;" x1="213" x2="434.2314" y1="498.5444" y2="498.5444"/><text fill="#FFFFFF" font-family="Verdana" font-size="13" font-weight="bold" lengthAdjust="spacing" textLength="9.2422" x="220" y="493.8149">4</text><text fill="#FFFFFF" font-family="Verdana" font-size="13" lengthAdjust="spacing" textLength="148.1035" x="233.2422" y="493.8149">ENC_IDENTITY_CLAIM</text></g><path d="M445,511.5444 L445,552.5444 L601,552.5444 L601,521.5444 L591,511.5444 L445,511.5444" fill="#FFFFFF" style="stroke:#000000;stroke-width:1;"/><path d="M591,511.5444 L591,521.5444 L601,521.5444 L591,511.5444" fill="#FFFFFF" style="stroke:#000000;stroke-width:1;"/><text fill="#000000" font-family="Verdana" font-size="13" lengthAdjust="spacing" textLength="132.7041" x="451" y="529.6143">ChaCha20-Poly1305</text><text fill="#000000" font-family="Verdana" font-size="13" lengthAdjust="spacing" textLength="135.0845" x="451" y="545.4136">Key from Kyber KEM</text><!--SRC=[VLDTR-8m47pthzYsqbtx42c5ezTMeX8DQGy1RTJmKXqdPC82LXsRivrMqUd- -wr3eD2Fi_Ba7S_ip6uEt19pX9NaGZ7s5I8jTM4Wqyewhfnb1pES2uMGnF73f3E9xWVt3r2Te_FlKHnVRn73JZeYJ0LSmuukmZY-2BU8z94GmpsEc-fuvLkffro2TQKKQi7iar0hRdWEKvuzBOmkrCmtP-0ehCuEWkXv8TsDLgw6rBIl49uvRLBYHk0lQ7MEEqMb7S8V1d3zLghceOesCpJx3G3iADPtVxsL57yNg3Bym8pTbBpSGCnnGC7iaMybjzLF_0Cat3YHYHKDwcEAhdWMTFqvmmRmlzVlOwrCxeXRLiKBXmcYwHokHyij99szjTcWXjmwD1vxw573vFtgCEQ4erbr1L_us9gNq9kXeiiIOjhCgHHscTC5t4ZzmdZXj2hoAHh6scteOmctgD1m9xI2Bn3HUkVGRZFgABYYlYutTOH-IS-2qx3nhNgNS65OjH0Ivww21ZHdIJ8Mxdhf2D84piCmQ9r5OnL0IfRe_p7YsPCz4OFK6PUoP3jYNQGw_KDa6NhTiKf_T9f1etLsd1Ja9FF29sz4curWMj95eGHj38ZA_LnuXw-yASfvOCL2rNLA9_DMn-guAwHmIr7aGUka2YLMcIbN3cTr6canpOMrFg0wc9-xm_frHOEvXFWkclIwyTseDtgSH8DERxZkquZ5qbM8QCdfQuH1ecLvsWnRO-Lpd1kThxE5VZna_m00]--></g></svg>