<svg xmlns="http://www.w3.org/2000/svg" xmlns:xlink="http://www.w3.org/1999/xlink" contentStyleType="text/css" data-diagram-type="SEQUENCE" height="1291px" preserveAspectRatio="none" style="width:906px;height:1291px;background:#FFFFFF;" version="1.1" viewBox="0 0 906 1291" width="906px" zoomAndPan="magnify"><title>Deserialization Flow (from_ai)</title><defs/><g><text fill="#000000" font-family="Verdana" font-size="22" font-weight="bold" lengthAdjust="spacing" textLength="378.7588" x="267.7119" y="37.1182">Deserialization Flow (from_ai)</text><g><title>from_ai()</title><rect fill="#FFFFFF" height="867.6875" style="stroke:#000000;stroke-width:1;" width="10" x="259.3691" y="223.1499"/></g><rect fill="#FFFFFF" height="688.8916" style="stroke:#000000;stroke-width:1;" width="716.2515" x="183.9312" y="373.1465"/><rect fill="#FFFFFF" height="657.0923" style="stroke:#000000;stroke-width:1;" width="696.2515" x="193.9312" y="397.9458"/><rect fill="#FFFFFF" height="98.7666" style="stroke:#000000;stroke-width:1;" width="396.6563" x="483.5264" y="541.9424"/><rect fill="#FFFFFF" height="45.168" style="stroke:none;stroke-width:1;" width="396.6563" x="483.5264" y="595.541"/><rect fill="#FFFFFF" height="92.7666" style="stroke:#000000;stroke-width:1;" width="291.8369" x="483.5264" y="684.5083"/><rect fill="#FFFFFF" height="45.168" style="stroke:none;stroke-width:1;" width="291.8369" x="483.5264" y="732.1069"/><rect fill="#FFFFFF" height="77.3979" style="stroke:#000000;stroke-width:1;" width="571.4321" x="203.9312" y="791.2749"/><rect fill="#FFFFFF" height="179.3652" style="stroke:none;stroke-width:1;" width="696.2515" x="193.9312" y="875.6729"/><rect fill="#FFFFFF" height="120.1973" style="stroke:#000000;stroke-width:1;" width="571.4321" x="203.9312" y="927.8408"/><g><title>Application</title><rect fill="#000000" fill-opacity="0.00000" height="1076.082" width="8" x="47.5581" y="131.752"/><line style="stroke:#000000;stroke-width:1;" x1="51" x2="51" y1="131.752" y2="1207.834"/></g><g><title>from_ai()</title><rect fill="#000000" fill-opacity="0.00000" height="1076.082" width="8" x="260.3691" y="131.752"/><line style="stroke:#000000;stroke-width:1;" x1="263.9312" x2="263.9312" y1="131.752" y2="1207.834"/></g><g><title>UAiEntity</title><rect fill="#000000" fill-opacity="0.00000" height="1076.082" width="8" x="538.792" y="131.752"/><line style="stroke:#000000;stroke-width:1;" x1="542.5264" x2="542.5264" y1="131.752" y2="1207.834"/></g><g><title>Parser</title><rect fill="#000000" fill-opacity="0.00000" height="1076.082" width="8" x="637.2744" y="131.752"/><line style="stroke:#000000;stroke-width:1;" x1="641.0576" x2="641.0576" y1="131.752" y2="1207.834"/></g><g><title>Entity</title><rect fill="#000000" fill-opacity="0.00000" height="1076.082" width="8" x="723.9272" y="131.752"/><line style="stroke:#000000;stroke-width:1;" x1="727.4912" x2="727.4912" y1="131.752" y2="1207.834"/></g><g><title>LLM</title><rect fill="#000000" fill-opacity="0.00000" height="1076.082" width="8" x="802.0557" y="131.752"/><line style="stroke:#000000;stroke-width:1;" x1="805.3633" x2="805.3633" y1="131.752" y2="1207.834"/></g><g class="participant participant-head" data-participant="App"><text fill="#000000" font-family="Verdana" font-size="14" lengthAdjust="spacing" textLength="77.1162" x="10" y="128.8125">Application</text><ellipse cx="51.5581" cy="69.7373" fill="#FFFFFF" rx="16" ry="16" style="stroke:#000000;stroke-width:1;"/><path d="M51.5581,89.7373 C55.5581,89.7373 58.5581,89.7373 62.5581,85.7373 C70.5581,85.7373 78.5581,93.7373 78.5581,101.7373 L78.5581,105.7373 C78.5581,109.7373 74.5581,113.7373 70.5581,113.7373 L32.5581,113.7373 C28.5581,113.7373 24.5581,109.7373 24.5581,105.7373 L24.5581,101.7373 C24.5581,93.7373 32.5581,85.7373 40.5581,85.7373 C44.5581,89.7373 47.5581,89.7373 51.5581,89.7373" fill="#FFFFFF" style="stroke:#000000;stroke-width:1;"/></g><g class="participant participant-tail" data-participant="App"><text fill="#000000" font-family="Verdana" font-size="14" lengthAdjust="spacing" textLength="77.1162" x="10" y="1220.9092">Application</text><ellipse cx="51.5581" cy="1240.8486" fill="#FFFFFF" rx="16" ry="16" style="stroke:#000000;stroke-width:1;"/><path d="M51.5581,1260.8486 C55.5581,1260.8486 58.5581,1260.8486 62.5581,1256.8486 C70.5581,1256.8486 78.5581,1264.8486 78.5581,1272.8486 L78.5581,1276.8486 C78.5581,1280.8486 74.5581,1284.8486 70.5581,1284.8486 L32.5581,1284.8486 C28.5581,1284.8486 24.5581,1280.8486 24.5581,1276.8486 L24.5581,1272.8486 C24.5581,1264.8486 32.5581,1256.8486 40.5581,1256.8486 C44.5581,1260.8486 47.5581,1260.8486 51.5581,1260.8486" fill="#FFFFFF" style="stroke:#000000;stroke-width:1;"/></g><g class="participant participant-head" data-participant="FromAI"><rect fill="#FFFFFF" height="31.0146" rx="2.5" ry="2.5" style="stroke:#000000;stroke-width:1;" width="80.876" x="223.9312" y="99.7373"/><text fill="#000000" font-family="Verdana" font-size="14" lengthAdjust="spacing" textLength="66.876" x="230.9312" y="120.8125">from_ai()</text></g><g class="participant participant-tail" data-participant="FromAI"><rect fill="#FFFFFF" height="31.0146" rx="2.5" ry="2.5" style="stroke:#000000;stroke-width:1;" width="80.876" x="223.9312" y="1206.834"/><text fill="#000000" font-family="Verdana" font-size="14" lengthAdjust="spacing" textLength="66.876" x="230.9312" y="1227.9092">from_ai()</text></g><g class="participant participant-head" data-participant="Helper"><rect fill="#FFFFFF" height="31.0146" rx="2.5" ry="2.5" style="stroke:#000000;stroke-width:1;" width="78.5313" x="503.5264" y="99.7373"/><text fill="#000000" font-family="Verdana" font-size="14" lengthAdjust="spacing" textLength="64.5313" x="510.5264" y="120.8125">UAiEntity</text></g><g class="participant participant-tail" data-participant="Helper"><rect fill="#FFFFFF" height="31.0146" rx="2.5" ry="2.5" style="stroke:#000000;stroke-width:1;" width="78.5313" x="503.5264" y="1206.834"/><text fill="#000000" font-family="Verdana" font-size="14" lengthAdjust="spacing" textLength="64.5313" x="510.5264" y="1227.9092">UAiEntity</text></g><g class="participant participant-head" data-participant="Parser"><rect fill="#FFFFFF" height="31.0146" rx="2.5" ry="2.5" style="stroke:#000000;stroke-width:1;" width="58.4336" x="612.0576" y="99.7373"/><text fill="#000000" font-family="Verdana" font-size="14" lengthAdjust="spacing" textLength="44.4336" x="619.0576" y="120.8125">Parser</text></g><g class="participant participant-tail" data-participant="Parser"><rect fill="#FFFFFF" height="31.0146" rx="2.5" ry="2.5" style="stroke:#000000;stroke-width:1;" width="58.4336" x="612.0576" y="1206.834"/><text fill="#000000" font-family="Verdana" font-size="14" lengthAdjust="spacing" textLength="44.4336" x="619.0576" y="1227.9092">Parser</text></g><g class="participant participant-head" data-participant="Entity"><rect fill="#FFFFFF" height="31.0146" rx="2.5" ry="2.5" style="stroke:#000000;stroke-width:1;" width="54.8721" x="700.4912" y="99.7373"/><text fill="#000000" font-family="Verdana" font-size="14" lengthAdjust="spacing" textLength="40.8721" x="707.4912" y="120.8125">Entity</text></g><g class="participant participant-tail" data-participant="Entity"><rect fill="#FFFFFF" height="31.0146" rx="2.5" ry="2.5" style="stroke:#000000;stroke-width:1;" width="54.8721" x="700.4912" y="1206.834"/><text fill="#000000" font-family="Verdana" font-size="14" lengthAdjust="spacing" textLength="40.8721" x="707.4912" y="1227.9092">Entity</text></g><g class="participant participant-head" data-participant="LLM"><rect fill="#FFFFFF" height="31.0146" rx="2.5" ry="2.5" style="stroke:#000000;stroke-width:1;" width="41.3848" x="785.3633" y="99.7373"/><text fill="#000000" font-family="Verdana" font-size="14" lengthAdjust="spacing" textLength="27.3848" x="792.3633" y="120.8125">LLM</text></g><g class="participant participant-tail" data-participant="LLM"><rect fill="#FFFFFF" height="31.0146" rx="2.5" ry="2.5" style="stroke:#000000;stroke-width:1;" width="41.3848" x="785.3633" y="1206.834"/><text fill="#000000" font-family="Verdana" font-size="14" lengthAdjust="spacing" textLength="27.3848" x="792.3633" y="1227.9092">LLM</text></g><g><title>from_ai()</title><rect fill="#FFFFFF" height="867.6875" style="stroke:#000000;stroke-width:1;" width="10" x="259.3691" y="223.1499"/></g><g class="message" data-participant-1="App" data-participant-2="LLM"><polygon fill="#000000" points="794.0557,159.5513,804.0557,163.5513,794.0557,167.5513,798.0557,163.5513" style="stroke:#000000;stroke-width:1;"/><line style="stroke:#000000;stroke-width:1;" x1="51.5581" x2="800.0557" y1="163.5513" y2="163.5513"/><text fill="#000000" font-family="Verdana" font-size="13" lengthAdjust="spacing" textLength="152.0962" x="58.5581" y="158.8218">receive compact_string</text></g><g class="message" data-participant-1="LLM" data-participant-2="App"><polygon fill="#000000" points="62.5581,189.3506,52.5581,193.3506,62.5581,197.3506,58.5581,193.3506" style="stroke:#000000;stroke-width:1;"/><line style="stroke:#000000;stroke-width:1;" x1="56.5581" x2="805.0557" y1="193.3506" y2="193.3506"/><text fill="#000000" font-family="Verdana" font-size="13" lengthAdjust="spacing" textLength="100.7119" x="68.5581" y="188.6211">compact_string</text></g><g class="message" data-participant-1="App" data-participant-2="FromAI"><polygon fill="#000000" points="247.3691,219.1499,257.3691,223.1499,247.3691,227.1499,251.3691,223.1499" style="stroke:#000000;stroke-width:1;"/><line style="stroke:#000000;stroke-width:1;" x1="51.5581" x2="253.3691" y1="223.1499" y2="223.1499"/><text fill="#000000" font-family="Verdana" font-size="13" lengthAdjust="spacing" textLength="188.811" x="58.5581" y="218.4204">Entity::from_ai(string, level)</text></g><g class="message" data-participant-1="FromAI" data-participant-2="Entity"><polygon fill="#000000" points="715.9272,248.9492,725.9272,252.9492,715.9272,256.9492,719.9272,252.9492" style="stroke:#000000;stroke-width:1;"/><line style="stroke:#000000;stroke-width:1;" x1="269.3691" x2="721.9272" y1="252.9492" y2="252.9492"/><text fill="#000000" font-family="Verdana" font-size="13" lengthAdjust="spacing" textLength="102.2544" x="276.3691" y="248.2197">create default()</text></g><g class="message" data-participant-1="FromAI" data-participant-2="Helper"><polygon fill="#000000" points="530.792,278.7485,540.792,282.7485,530.792,286.7485,534.792,282.7485" style="stroke:#000000;stroke-width:1;"/><line style="stroke:#000000;stroke-width:1;" x1="269.3691" x2="536.792" y1="282.7485" y2="282.7485"/><text fill="#000000" font-family="Verdana" font-size="13" lengthAdjust="spacing" textLength="139.2993" x="276.3691" y="278.019">do_split_code(string)</text></g><g class="message" data-participant-1="Helper" data-participant-2="Parser"><polygon fill="#000000" points="629.2744,324.3472,639.2744,328.3472,629.2744,332.3472,633.2744,328.3472" style="stroke:#000000;stroke-width:1;"/><line style="stroke:#000000;stroke-width:1;" x1="542.792" x2="635.2744" y1="328.3472" y2="328.3472"/><text fill="#000000" font-family="Verdana" font-size="13" lengthAdjust="spacing" textLength="55.5547" x="549.792" y="307.8184">split by '</text><text fill="#000000" font-family="Verdana" font-size="13" lengthAdjust="spacing" textLength="3.4912" x="549.792" y="323.6177">'</text></g><g class="message" data-participant-1="Parser" data-participant-2="FromAI"><polygon fill="#000000" points="280.3691,354.1465,270.3691,358.1465,280.3691,362.1465,276.3691,358.1465" style="stroke:#000000;stroke-width:1;"/><line style="stroke:#000000;stroke-width:1;" x1="274.3691" x2="640.2744" y1="358.1465" y2="358.1465"/><text fill="#000000" font-family="Verdana" font-size="13" lengthAdjust="spacing" textLength="41.6851" x="286.3691" y="353.417">lines[]</text></g><path d="M183.9312,373.1465 L260.314,373.1465 L260.314,380.9458 L250.314,390.9458 L183.9312,390.9458 L183.9312,373.1465" fill="#FFFFFF" style="stroke:#000000;stroke-width:1;"/><rect fill="none" height="688.8916" style="stroke:#000000;stroke-width:1;" width="716.2515" x="183.9312" y="373.1465"/><text fill="#000000" font-family="Verdana" font-size="13" font-weight="bold" lengthAdjust="spacing" textLength="31.3828" x="198.9312" y="387.2163">loop</text><text fill="#000000" font-family="Verdana" font-size="11" font-weight="bold" lengthAdjust="spacing" textLength="88.7627" x="275.314" y="386.2056">[for each line]</text><path d="M193.9312,397.9458 L257.9805,397.9458 L257.9805,405.7451 L247.9805,415.7451 L193.9312,415.7451 L193.9312,397.9458" fill="#FFFFFF" style="stroke:#000000;stroke-width:1;"/><rect fill="none" height="657.0923" style="stroke:#000000;stroke-width:1;" width="696.2515" x="193.9312" y="397.9458"/><text fill="#000000" font-family="Verdana" font-size="13" font-weight="bold" lengthAdjust="spacing" textLength="19.0493" x="208.9312" y="412.0156">alt</text><text fill="#000000" font-family="Verdana" font-size="11" font-weight="bold" lengthAdjust="spacing" textLength="108.8022" x="272.9805" y="411.0049">[main entity line]</text><g class="message" data-participant-1="FromAI" data-participant-2="Helper"><polygon fill="#000000" points="530.792,433.5444,540.792,437.5444,530.792,441.5444,534.792,437.5444" style="stroke:#000000;stroke-width:1;"/><line style="stroke:#000000;stroke-width:1;" x1="269.3691" x2="536.792" y1="437.5444" y2="437.5444"/><text fill="#000000" font-family="Verdana" font-size="13" lengthAdjust="spacing" textLength="199.0181" x="276.3691" y="432.8149">do_split_line(line, field_count)</text></g><g class="message" data-participant-1="Helper" data-participant-2="Parser"><polygon fill="#000000" points="629.2744,463.3438,639.2744,467.3438,629.2744,471.3438,633.2744,467.3438" style="stroke:#000000;stroke-width:1;"/><line style="stroke:#000000;stroke-width:1;" x1="542.792" x2="635.2744" y1="467.3438" y2="467.3438"/><text fill="#000000" font-family="Verdana" font-size="13" lengthAdjust="spacing" textLength="64.9492" x="549.792" y="462.6143">split by '&#166;'</text></g><g class="message" data-participant-1="Parser" data-participant-2="FromAI"><polygon fill="#000000" points="280.3691,493.1431,270.3691,497.1431,280.3691,501.1431,276.3691,497.1431" style="stroke:#000000;stroke-width:1;"/><line style="stroke:#000000;stroke-width:1;" x1="274.3691" x2="640.2744" y1="497.1431" y2="497.1431"/><text fill="#000000" font-family="Verdana" font-size="13" lengthAdjust="spacing" textLength="46.1284" x="286.3691" y="492.4136">fields[]</text></g><g class="message" data-participant-1="FromAI" data-participant-2="Helper"><polygon fill="#000000" points="530.792,522.9424,540.792,526.9424,530.792,530.9424,534.792,526.9424" style="stroke:#000000;stroke-width:1;"/><line style="stroke:#000000;stroke-width:1;" x1="269.3691" x2="536.792" y1="526.9424" y2="526.9424"/><text fill="#000000" font-family="Verdana" font-size="13" lengthAdjust="spacing" textLength="136.4238" x="276.3691" y="522.2129">from_ai_id(fields[1])</text></g><path d="M483.5264,541.9424 L547.5757,541.9424 L547.5757,549.7417 L537.5757,559.7417 L483.5264,559.7417 L483.5264,541.9424" fill="#FFFFFF" style="stroke:#000000;stroke-width:1;"/><rect fill="none" height="98.7666" style="stroke:#000000;stroke-width:1;" width="396.6563" x="483.5264" y="541.9424"/><text fill="#000000" font-family="Verdana" font-size="13" font-weight="bold" lengthAdjust="spacing" textLength="19.0493" x="498.5264" y="556.0122">alt</text><text fill="#000000" font-family="Verdana" font-size="11" font-weight="bold" lengthAdjust="spacing" textLength="83.7031" x="562.5757" y="555.0015">[ID is empty]</text><g class="message" data-participant-1="Helper" data-participant-2="Entity"><polygon fill="#000000" points="715.9272,580.541,725.9272,584.541,715.9272,588.541,719.9272,584.541" style="stroke:#000000;stroke-width:1;"/><line style="stroke:#000000;stroke-width:1;" x1="542.792" x2="721.9272" y1="584.541" y2="584.541"/><text fill="#000000" font-family="Verdana" font-size="13" lengthAdjust="spacing" textLength="109.7446" x="549.792" y="579.8115">set_id(UId::id())</text></g><path d="M732,564.7417 L732,589.7417 L864,589.7417 L864,574.7417 L854,564.7417 L732,564.7417" fill="#FFFFFF" style="stroke:#000000;stroke-width:1;"/><path d="M854,564.7417 L854,574.7417 L864,574.7417 L854,564.7417" fill="#FFFFFF" style="stroke:#000000;stroke-width:1;"/><text fill="#000000" font-family="Verdana" font-size="13" lengthAdjust="spacing" textLength="111.2554" x="738" y="582.8115">Generate new ID</text><line style="stroke:#000000;stroke-width:1;stroke-dasharray:2.0,2.0;" x1="483.5264" x2="880.1826" y1="596.541" y2="596.541"/><text fill="#000000" font-family="Verdana" font-size="11" font-weight="bold" lengthAdjust="spacing" textLength="85.1587" x="488.5264" y="607.6001">[ID provided]</text><g class="message" data-participant-1="Helper" data-participant-2="Entity"><polygon fill="#000000" points="715.9272,628.709,725.9272,632.709,715.9272,636.709,719.9272,632.709" style="stroke:#000000;stroke-width:1;"/><line style="stroke:#000000;stroke-width:1;" x1="542.792" x2="721.9272" y1="632.709" y2="632.709"/><text fill="#000000" font-family="Verdana" font-size="13" lengthAdjust="spacing" textLength="115.3813" x="549.792" y="627.9795">set_id(parsed_id)</text></g><g class="message" data-participant-1="FromAI" data-participant-2="Helper"><polygon fill="#000000" points="530.792,665.5083,540.792,669.5083,530.792,673.5083,534.792,669.5083" style="stroke:#000000;stroke-width:1;"/><line style="stroke:#000000;stroke-width:1;" x1="269.3691" x2="536.792" y1="669.5083" y2="669.5083"/><text fill="#000000" font-family="Verdana" font-size="13" lengthAdjust="spacing" textLength="116.4922" x="276.3691" y="664.7788">from_ai(fields[2])</text></g><path d="M483.5264,684.5083 L547.5757,684.5083 L547.5757,692.3076 L537.5757,702.3076 L483.5264,702.3076 L483.5264,684.5083" fill="#FFFFFF" style="stroke:#000000;stroke-width:1;"/><rect fill="none" height="92.7666" style="stroke:#000000;stroke-width:1;" width="291.8369" x="483.5264" y="684.5083"/><text fill="#000000" font-family="Verdana" font-size="13" font-weight="bold" lengthAdjust="spacing" textLength="19.0493" x="498.5264" y="698.5781">alt</text><text fill="#000000" font-family="Verdana" font-size="11" font-weight="bold" lengthAdjust="spacing" textLength="98.769" x="562.5757" y="697.5674">[Time is empty]</text><g class="message" data-participant-1="Helper" data-participant-2="Entity"><polygon fill="#000000" points="715.9272,720.1069,725.9272,724.1069,715.9272,728.1069,719.9272,724.1069" style="stroke:#000000;stroke-width:1;"/><line style="stroke:#000000;stroke-width:1;" x1="542.792" x2="721.9272" y1="724.1069" y2="724.1069"/><text fill="#000000" font-family="Verdana" font-size="13" lengthAdjust="spacing" textLength="77.0542" x="549.792" y="719.3774">set_time(0)</text></g><line style="stroke:#000000;stroke-width:1;stroke-dasharray:2.0,2.0;" x1="483.5264" x2="775.3633" y1="733.1069" y2="733.1069"/><text fill="#000000" font-family="Verdana" font-size="11" font-weight="bold" lengthAdjust="spacing" textLength="100.2246" x="488.5264" y="744.166">[Time provided]</text><g class="message" data-participant-1="Helper" data-participant-2="Entity"><polygon fill="#000000" points="715.9272,765.2749,725.9272,769.2749,715.9272,773.2749,719.9272,769.2749" style="stroke:#000000;stroke-width:1;"/><line style="stroke:#000000;stroke-width:1;" x1="542.792" x2="721.9272" y1="769.2749" y2="769.2749"/><text fill="#000000" font-family="Verdana" font-size="13" lengthAdjust="spacing" textLength="150.2046" x="549.792" y="764.5454">set_time(parsed_time)</text></g><path d="M203.9312,791.2749 L280.314,791.2749 L280.314,799.0742 L270.314,809.0742 L203.9312,809.0742 L203.9312,791.2749" fill="#FFFFFF" style="stroke:#000000;stroke-width:1;"/><rect fill="none" height="77.3979" style="stroke:#000000;stroke-width:1;" width="571.4321" x="203.9312" y="791.2749"/><text fill="#000000" font-family="Verdana" font-size="13" font-weight="bold" lengthAdjust="spacing" textLength="31.3828" x="218.9312" y="805.3447">loop</text><text fill="#000000" font-family="Verdana" font-size="11" font-weight="bold" lengthAdjust="spacing" textLength="93.2637" x="295.314" y="804.334">[for each field]</text><g class="message" data-participant-1="FromAI" data-participant-2="Helper"><polygon fill="#000000" points="530.792,826.8735,540.792,830.8735,530.792,834.8735,534.792,830.8735" style="stroke:#000000;stroke-width:1;"/><line style="stroke:#000000;stroke-width:1;" x1="269.3691" x2="536.792" y1="830.8735" y2="830.8735"/><text fill="#000000" font-family="Verdana" font-size="13" lengthAdjust="spacing" textLength="120.0596" x="276.3691" y="826.144">from_ai*(fields[i])</text></g><g class="message" data-participant-1="Helper" data-participant-2="Entity"><polygon fill="#000000" points="715.9272,856.6729,725.9272,860.6729,715.9272,864.6729,719.9272,860.6729" style="stroke:#000000;stroke-width:1;"/><line style="stroke:#000000;stroke-width:1;" x1="542.792" x2="721.9272" y1="860.6729" y2="860.6729"/><text fill="#000000" font-family="Verdana" font-size="13" lengthAdjust="spacing" textLength="102.2988" x="549.792" y="855.9434">set_field(value)</text></g><line style="stroke:#000000;stroke-width:1;stroke-dasharray:2.0,2.0;" x1="193.9312" x2="890.1826" y1="876.6729" y2="876.6729"/><text fill="#000000" font-family="Verdana" font-size="11" font-weight="bold" lengthAdjust="spacing" textLength="119.8936" x="198.9312" y="887.7319">[nested entity line]</text><g class="message" data-participant-1="FromAI" data-participant-2="Helper"><polygon fill="#000000" points="530.792,908.8408,540.792,912.8408,530.792,916.8408,534.792,912.8408" style="stroke:#000000;stroke-width:1;"/><line style="stroke:#000000;stroke-width:1;" x1="269.3691" x2="536.792" y1="912.8408" y2="912.8408"/><text fill="#000000" font-family="Verdana" font-size="13" lengthAdjust="spacing" textLength="245.1782" x="276.3691" y="908.1113">parse_nested_line(line, level+1, key)</text></g><path d="M203.9312,927.8408 L267.9805,927.8408 L267.9805,935.6401 L257.9805,945.6401 L203.9312,945.6401 L203.9312,927.8408" fill="#FFFFFF" style="stroke:#000000;stroke-width:1;"/><rect fill="none" height="120.1973" style="stroke:#000000;stroke-width:1;" width="571.4321" x="203.9312" y="927.8408"/><text fill="#000000" font-family="Verdana" font-size="13" font-weight="bold" lengthAdjust="spacing" textLength="19.0493" x="218.9312" y="941.9106">alt</text><text fill="#000000" font-family="Verdana" font-size="11" font-weight="bold" lengthAdjust="spacing" textLength="149.3701" x="282.9805" y="940.8999">[matches level and key]</text><g class="message" data-participant-1="Helper" data-participant-2="FromAI"><polygon fill="#000000" points="280.3691,963.4395,270.3691,967.4395,280.3691,971.4395,276.3691,967.4395" style="stroke:#000000;stroke-width:1;"/><line style="stroke:#000000;stroke-width:1;" x1="274.3691" x2="541.792" y1="967.4395" y2="967.4395"/><text fill="#000000" font-family="Verdana" font-size="13" lengthAdjust="spacing" textLength="74.5786" x="286.3691" y="962.71">entity_data</text></g><g class="message" data-participant-1="FromAI" data-participant-2="FromAI"><line style="stroke:#000000;stroke-width:1;" x1="269.3691" x2="311.3691" y1="997.2388" y2="997.2388"/><line style="stroke:#000000;stroke-width:1;" x1="311.3691" x2="311.3691" y1="997.2388" y2="1010.2388"/><line style="stroke:#000000;stroke-width:1;" x1="270.3691" x2="311.3691" y1="1010.2388" y2="1010.2388"/><polygon fill="#000000" points="280.3691,1006.2388,270.3691,1010.2388,280.3691,1014.2388,276.3691,1010.2388" style="stroke:#000000;stroke-width:1;"/><text fill="#000000" font-family="Verdana" font-size="13" lengthAdjust="spacing" textLength="244.4229" x="276.3691" y="992.5093">NestedEntity::from_ai(data, level+1)</text></g><path d="M542.4229,983.9395 L542.4229,1008.9395 L678.4229,1008.9395 L678.4229,993.9395 L668.4229,983.9395 L542.4229,983.9395" fill="#FFFFFF" style="stroke:#000000;stroke-width:1;"/><path d="M668.4229,983.9395 L668.4229,993.9395 L678.4229,993.9395 L668.4229,983.9395" fill="#FFFFFF" style="stroke:#000000;stroke-width:1;"/><text fill="#000000" font-family="Verdana" font-size="13" lengthAdjust="spacing" textLength="115.8003" x="548.4229" y="1002.0093">Recursive parsing</text><g class="message" data-participant-1="FromAI" data-participant-2="Entity"><polygon fill="#000000" points="715.9272,1036.0381,725.9272,1040.0381,715.9272,1044.0381,719.9272,1040.0381" style="stroke:#000000;stroke-width:1;"/><line style="stroke:#000000;stroke-width:1;" x1="269.3691" x2="721.9272" y1="1040.0381" y2="1040.0381"/><text fill="#000000" font-family="Verdana" font-size="13" lengthAdjust="spacing" textLength="172.8721" x="276.3691" y="1035.3086">set_nested(nested_entity)</text></g><g class="message" data-participant-1="FromAI" data-participant-2="App"><polygon fill="#000000" points="62.5581,1086.8374,52.5581,1090.8374,62.5581,1094.8374,58.5581,1090.8374" style="stroke:#000000;stroke-width:1;"/><line style="stroke:#000000;stroke-width:1;" x1="56.5581" x2="263.3691" y1="1090.8374" y2="1090.8374"/><text fill="#000000" font-family="Verdana" font-size="13" lengthAdjust="spacing" textLength="82.4624" x="68.5581" y="1086.1079">return entity</text></g><path d="M646,1103.8374 L646,1191.8374 L816,1191.8374 L816,1113.8374 L806,1103.8374 L646,1103.8374" fill="#FFFFFF" style="stroke:#000000;stroke-width:1;"/><path d="M806,1103.8374 L806,1113.8374 L816,1113.8374 L806,1103.8374" fill="#FFFFFF" style="stroke:#000000;stroke-width:1;"/><text fill="#000000" font-family="Verdana" font-size="13" lengthAdjust="spacing" textLength="103.7461" x="652" y="1121.9072">Robust parsing:</text><text fill="#000000" font-family="Verdana" font-size="13" lengthAdjust="spacing" textLength="141.2163" x="652" y="1137.7065">- Level-based nesting</text><text fill="#000000" font-family="Verdana" font-size="13" lengthAdjust="spacing" textLength="81.104" x="652" y="1153.5059">- UTF-8 safe</text><text fill="#000000" font-family="Verdana" font-size="13" lengthAdjust="spacing" textLength="103.6191" x="652" y="1169.3052">- Error handling</text><text fill="#000000" font-family="Verdana" font-size="13" lengthAdjust="spacing" textLength="149.6396" x="652" y="1185.1045">- Backward compatible</text><!--SRC=[bLLHRzCm47xthpZ6mn9O9SOJoWFIO2jC6WYDzGcco8slgpN7ZcotLVb1_11-6MSxIPFHZirI6yVtdU_xxkpB2x_46g5HN6hcxgLkkEKrp7brVsVDIekFHXaBBwTn312yyiP-zrk5m3VeJ8tCIqzlv-ZGIgxaB-wbqJ1LPWFPmfgwv39dB3h2qLdJA5b5o15m1_JEQ6SlAzbmxU6ezSZoQ9xIszdb634xanUQWcuZuZEg1kqOyOrR8XFDQJes3xpJT6o-kleIRVHaZFZ1v7sOGm4MAvHhXChK3UafdRTItx5W94o05WzjtGP92DbJnABeT2RS2IXSeyf3ckIQU-oKizQHjaYU8OJ5W12uu2lbito0ITaWZ32beqpxiZ82so0vQyq4J7aXO4J1V0l7F_KnQvU7X9NKw7xSCgQCQM11HKHUBUCo0nfSUQZf604cVhqXZCUO1M0M_avW8L49ehhIFkzz7oNxv_Tn3zn3EcuOM7UOnnYrfIYbo5g_qziTZQ3lyXoa0wmREYim63kAVN4S-h3Hx58K1JtpVEIW3HNEohkbB-0JQhIXa1et5A77eN8O8ZRMhAL0ySI8JSY2eDak8chnd0Hqwjy-K7yZgLKyHxydX-nDFbOKTtcEfhXBgohC_wDhV3oZb56KmxfVTSBbRVuKOX6ThRbQxU4KjTADyIYUUYEYnZBv36z5R0clJq_W7hVZYjJSLqjq2G5SYm0vGBs_4ubDARZd1nBJGxz6BWzRLV3iMHq-rzTOhQmBVJ882qrmVxHHJfFwh4r2ehedkVGClq77IrtNeb_PhWKnWV-qqHr1C8lkgn2sl3RpbVCTrIAkJU0gY9pCEPszMCnEnGHcDzF9Et1yWUt2XRLqw9PK1BL3VQ0FwOPRaJu7NiuL1k8nJ-ml]--></g></svg>