<svg xmlns="http://www.w3.org/2000/svg" xmlns:xlink="http://www.w3.org/1999/xlink" contentStyleType="text/css" data-diagram-type="CLASS" height="1338px" preserveAspectRatio="none" style="width:568px;height:1338px;" version="1.1" viewBox="0 0 568 1338" width="568px" zoomAndPan="magnify"><defs/><g><!--class IEvo--><g class="entity" data-entity="IEvo" data-source-line="13" data-uid="ent0002" id="entity_IEvo"><rect fill="#F1F1F1" height="86.1358" rx="2.5" ry="2.5" style="stroke:#181818;stroke-width:0.5;" width="264.209" x="7.5" y="7"/><ellipse cx="122.2786" cy="23" fill="#FFFFFF" rx="11" ry="11" style="stroke:#181818;stroke-width:1;"/><path d="M118.2004,18.7656 L118.2004,16.6094 L125.5911,16.6094 L125.5911,18.7656 L123.1223,18.7656 L123.1223,26.8438 L125.5911,26.8438 L125.5911,29 L118.2004,29 L118.2004,26.8438 L120.6692,26.8438 L120.6692,18.7656 L118.2004,18.7656 Z " fill="#000000"/><text fill="#000000" font-family="sans-serif" font-size="14" font-style="italic" lengthAdjust="spacing" textLength="26.1519" x="142.7786" y="28.432">IEvo</text><line style="stroke:#181818;stroke-width:0.5;" x1="8.5" x2="270.709" y1="39" y2="39"/><line style="stroke:#181818;stroke-width:0.5;" x1="8.5" x2="270.709" y1="47" y2="47"/><ellipse cx="18.5" cy="62.034" fill="#84BE84" rx="3" ry="3" style="stroke:#038048;stroke-width:1;"/><text fill="#000000" font-family="sans-serif" font-size="14" lengthAdjust="spacing" text-decoration="underline" textLength="210.4332" x="27.5" y="65.9659">evo_version() -&gt; TypeEvoVersion</text><ellipse cx="18.5" cy="81.1019" fill="#84BE84" rx="3" ry="3" style="stroke:#038048;stroke-width:1;"/><text fill="#000000" font-family="sans-serif" font-size="14" lengthAdjust="spacing" textLength="238.209" x="27.5" y="85.0339">get_evo_version() -&gt; TypeEvoVersion</text></g><!--class ID--><g class="entity" data-entity="ID" data-source-line="18" data-uid="ent0003" id="entity_ID"><rect fill="#F1F1F1" height="86.1358" rx="2.5" ry="2.5" style="stroke:#181818;stroke-width:0.5;" width="140.5895" x="7" y="153"/><ellipse cx="46.4221" cy="169" fill="#FFFFFF" rx="11" ry="11" style="stroke:#181818;stroke-width:1;"/><path d="M42.344,164.7656 L42.344,162.6094 L49.7346,162.6094 L49.7346,164.7656 L47.2659,164.7656 L47.2659,172.8438 L49.7346,172.8438 L49.7346,175 L42.344,175 L42.344,172.8438 L44.8127,172.8438 L44.8127,164.7656 L42.344,164.7656 Z " fill="#000000"/><text fill="#000000" font-family="sans-serif" font-size="14" font-style="italic" lengthAdjust="spacing" textLength="13.8739" x="65.8492" y="174.432">ID</text><rect fill="#FFFFFF" height="18.3441" style="stroke:#181818;stroke-width:1;stroke-dasharray:2.0,2.0;" width="38.4442" x="112.1453" y="150"/><text fill="#000000" font-family="sans-serif" font-size="12" font-style="italic" lengthAdjust="spacing" textLength="36.4442" x="113.1453" y="163.8281">TypeID</text><line style="stroke:#181818;stroke-width:0.5;" x1="8" x2="146.5895" y1="185" y2="185"/><line style="stroke:#181818;stroke-width:0.5;" x1="8" x2="146.5895" y1="193" y2="193"/><ellipse cx="18" cy="208.034" fill="#84BE84" rx="3" ry="3" style="stroke:#038048;stroke-width:1;"/><text fill="#000000" font-family="sans-serif" font-size="14" lengthAdjust="spacing" textLength="114.5895" x="27" y="211.9659">get_id() -&gt; TypeID</text><ellipse cx="18" cy="227.1019" fill="#84BE84" rx="3" ry="3" style="stroke:#038048;stroke-width:1;"/><text fill="#000000" font-family="sans-serif" font-size="14" lengthAdjust="spacing" textLength="112.5036" x="27" y="231.0339">set_id(id: TypeID)</text></g><!--class ITime--><g class="entity" data-entity="ITime" data-source-line="23" data-uid="ent0004" id="entity_ITime"><rect fill="#F1F1F1" height="86.1358" rx="2.5" ry="2.5" style="stroke:#181818;stroke-width:0.5;" width="190.7793" x="255" y="153"/><ellipse cx="328.9407" cy="169" fill="#FFFFFF" rx="11" ry="11" style="stroke:#181818;stroke-width:1;"/><path d="M324.8626,164.7656 L324.8626,162.6094 L332.2532,162.6094 L332.2532,164.7656 L329.7845,164.7656 L329.7845,172.8438 L332.2532,172.8438 L332.2532,175 L324.8626,175 L324.8626,172.8438 L327.3314,172.8438 L327.3314,164.7656 L324.8626,164.7656 Z " fill="#000000"/><text fill="#000000" font-family="sans-serif" font-size="14" font-style="italic" lengthAdjust="spacing" textLength="34.3979" x="349.4407" y="174.432">ITime</text><line style="stroke:#181818;stroke-width:0.5;" x1="256" x2="444.7793" y1="185" y2="185"/><line style="stroke:#181818;stroke-width:0.5;" x1="256" x2="444.7793" y1="193" y2="193"/><ellipse cx="266" cy="208.034" fill="#84BE84" rx="3" ry="3" style="stroke:#038048;stroke-width:1;"/><text fill="#000000" font-family="sans-serif" font-size="14" lengthAdjust="spacing" textLength="149.4354" x="275" y="211.9659">get_time() -&gt; TypeTime</text><ellipse cx="266" cy="227.1019" fill="#84BE84" rx="3" ry="3" style="stroke:#038048;stroke-width:1;"/><text fill="#000000" font-family="sans-serif" font-size="14" lengthAdjust="spacing" textLength="164.7793" x="275" y="231.0339">set_time(time: TypeTime)</text></g><!--class IEntity--><g class="entity" data-entity="IEntity" data-source-line="27" data-uid="ent0005" id="entity_IEntity"><rect fill="#09B620" height="105.2038" rx="2.5" ry="2.5" style="stroke:#181818;stroke-width:0.5;" width="229.0272" x="87" y="308.5"/><ellipse cx="157.3996" cy="324.5" fill="#09B620" rx="11" ry="11" style="stroke:#181818;stroke-width:1;"/><path d="M153.3214,320.2656 L153.3214,318.1094 L160.7121,318.1094 L160.7121,320.2656 L158.2433,320.2656 L158.2433,328.3438 L160.7121,328.3438 L160.7121,330.5 L153.3214,330.5 L153.3214,328.3438 L155.7902,328.3438 L155.7902,320.2656 L153.3214,320.2656 Z " fill="#000000"/><text fill="#000000" font-family="sans-serif" font-size="14" font-style="italic" lengthAdjust="spacing" textLength="39.2838" x="177.8996" y="329.932">IEntity</text><rect fill="#FFFFFF" height="18.3441" style="stroke:#181818;stroke-width:1;stroke-dasharray:2.0,2.0;" width="38.4442" x="280.583" y="305.5"/><text fill="#000000" font-family="sans-serif" font-size="12" font-style="italic" lengthAdjust="spacing" textLength="36.4442" x="281.583" y="319.3281">TypeID</text><line style="stroke:#181818;stroke-width:0.5;" x1="88" x2="315.0272" y1="340.5" y2="340.5"/><line style="stroke:#181818;stroke-width:0.5;" x1="88" x2="315.0272" y1="348.5" y2="348.5"/><ellipse cx="98" cy="363.534" fill="#84BE84" rx="3" ry="3" style="stroke:#038048;stroke-width:1;"/><text fill="#000000" font-family="sans-serif" font-size="14" lengthAdjust="spacing" textLength="139.0334" x="107" y="367.4659">to_bytes() -&gt; Vec&lt;u8&gt;</text><ellipse cx="98" cy="382.6019" fill="#84BE84" rx="3" ry="3" style="stroke:#038048;stroke-width:1;"/><text fill="#000000" font-family="sans-serif" font-size="14" lengthAdjust="spacing" textLength="203.0272" x="107" y="386.5339">from_bytes(data: BYTES) -&gt; Self</text><ellipse cx="98" cy="401.6698" fill="#84BE84" rx="3" ry="3" style="stroke:#038048;stroke-width:1;"/><text fill="#000000" font-family="sans-serif" font-size="14" lengthAdjust="spacing" textLength="125.7475" x="107" y="405.6018">to_string() -&gt; String</text></g><!--class IAiEntity--><g class="entity" data-entity="IAiEntity" data-source-line="33" data-uid="ent0006" id="entity_IAiEntity"><rect fill="#FFA600" height="124.2717" rx="2.5" ry="2.5" style="stroke:#181818;stroke-width:0.5;" width="210.0573" x="351.5" y="299"/><ellipse cx="426.8968" cy="315" fill="#FFA600" rx="11" ry="11" style="stroke:#181818;stroke-width:1;"/><path d="M422.8186,310.7656 L422.8186,308.6094 L430.2093,308.6094 L430.2093,310.7656 L427.7405,310.7656 L427.7405,318.8438 L430.2093,318.8438 L430.2093,321 L422.8186,321 L422.8186,318.8438 L425.2874,318.8438 L425.2874,310.7656 L422.8186,310.7656 Z " fill="#000000"/><text fill="#000000" font-family="sans-serif" font-size="14" font-style="italic" lengthAdjust="spacing" textLength="50.7638" x="447.3968" y="320.432">IAiEntity</text><line style="stroke:#181818;stroke-width:0.5;" x1="352.5" x2="560.5573" y1="331" y2="331"/><line style="stroke:#181818;stroke-width:0.5;" x1="352.5" x2="560.5573" y1="339" y2="339"/><ellipse cx="362.5" cy="354.034" fill="#84BE84" rx="3" ry="3" style="stroke:#038048;stroke-width:1;"/><text fill="#000000" font-family="sans-serif" font-size="14" lengthAdjust="spacing" text-decoration="underline" textLength="125.2715" x="371.5" y="357.9659">get_ai_id() -&gt; String</text><ellipse cx="362.5" cy="373.1019" fill="#84BE84" rx="3" ry="3" style="stroke:#038048;stroke-width:1;"/><text fill="#000000" font-family="sans-serif" font-size="14" lengthAdjust="spacing" text-decoration="underline" textLength="163.9674" x="371.5" y="377.0339">get_ai_schema() -&gt; String</text><ellipse cx="362.5" cy="392.1698" fill="#84BE84" rx="3" ry="3" style="stroke:#038048;stroke-width:1;"/><text fill="#000000" font-family="sans-serif" font-size="14" lengthAdjust="spacing" textLength="98.7976" x="371.5" y="396.1018">to_ai() -&gt; String</text><ellipse cx="362.5" cy="411.2377" fill="#84BE84" rx="3" ry="3" style="stroke:#038048;stroke-width:1;"/><text fill="#000000" font-family="sans-serif" font-size="14" lengthAdjust="spacing" text-decoration="underline" textLength="184.0573" x="371.5" y="415.1697">from_ai(str_ai: String) -&gt; Self</text></g><!--class EApiEvent--><g class="entity" data-entity="EApiEvent" data-source-line="40" data-uid="ent0007" id="entity_EApiEvent"><rect fill="#09B620" height="848.8525" rx="2.5" ry="2.5" style="stroke:#181818;stroke-width:0.5;" width="408.9405" x="124" y="483"/><ellipse cx="291.4954" cy="499" fill="#F1F1F1" rx="11" ry="11" style="stroke:#181818;stroke-width:1;"/><path d="M290.9798,499.5625 Q289.1204,498.8594 288.4641,498.0938 Q287.8235,497.3125 287.8235,496 Q287.8235,494.3125 288.9016,493.3438 Q289.9798,492.375 291.8548,492.375 Q292.7141,492.375 293.5579,492.5781 Q294.4173,492.7656 295.261,493.1563 L295.261,495.5469 Q294.4798,494.9844 293.6516,494.7031 Q292.8391,494.4063 292.0423,494.4063 Q291.1673,494.4063 290.6829,494.7656 Q290.2141,495.125 290.2141,495.7813 Q290.2141,496.2969 290.5579,496.6406 Q290.9016,496.9688 291.9954,497.375 L293.0579,497.7813 Q294.5423,498.3281 295.2454,499.2344 Q295.9641,500.1406 295.9641,501.5156 Q295.9641,503.3906 294.8548,504.3125 Q293.7454,505.2344 291.4954,505.2344 Q290.5735,505.2344 289.6516,505.0156 Q288.7298,504.7969 287.8704,504.375 L287.8704,501.8438 Q288.8391,502.5313 289.761,502.875 Q290.6829,503.2188 291.5735,503.2188 Q292.4798,503.2188 292.9798,502.8125 Q293.4798,502.3906 293.4798,501.6563 Q293.4798,501.0938 293.136,500.6875 Q292.8079,500.2656 292.1829,500.0156 L290.9798,499.5625 Z " fill="#000000"/><text fill="#000000" font-family="sans-serif" font-size="14" lengthAdjust="spacing" textLength="65.4497" x="311.9954" y="504.432">EApiEvent</text><line style="stroke:#181818;stroke-width:0.5;" x1="125" x2="531.9405" y1="515" y2="515"/><rect fill="none" height="6" style="stroke:#C82930;stroke-width:1;" width="6" x="132" y="527.034"/><text fill="#000000" font-family="sans-serif" font-size="14" lengthAdjust="spacing" textLength="66.0097" x="144" y="533.9659">id: TypeID</text><rect fill="none" height="6" style="stroke:#C82930;stroke-width:1;" width="6" x="132" y="546.1019"/><text fill="#000000" font-family="sans-serif" font-size="14" lengthAdjust="spacing" textLength="61.7117" x="144" y="553.0339">time: u64</text><rect fill="none" height="6" style="stroke:#C82930;stroke-width:1;" width="6" x="132" y="565.1698"/><text fill="#000000" font-family="sans-serif" font-size="14" lengthAdjust="spacing" textLength="92.4556" x="144" y="572.1018">data: Vec&lt;u8&gt;</text><rect fill="none" height="6" style="stroke:#C82930;stroke-width:1;" width="6" x="132" y="584.2377"/><text fill="#000000" font-family="sans-serif" font-size="14" lengthAdjust="spacing" textLength="147.6994" x="144" y="591.1697">enum_action_state: u8</text><rect fill="none" height="6" style="stroke:#C82930;stroke-width:1;" width="6" x="132" y="603.3056"/><text fill="#000000" font-family="sans-serif" font-size="14" lengthAdjust="spacing" textLength="112.5876" x="144" y="610.2376">id_action: TypeID</text><rect fill="none" height="6" style="stroke:#C82930;stroke-width:1;" width="6" x="132" y="622.3735"/><text fill="#000000" font-family="sans-serif" font-size="14" lengthAdjust="spacing" textLength="110.2916" x="144" y="629.3055">id_agent: TypeID</text><rect fill="none" height="6" style="stroke:#C82930;stroke-width:1;" width="6" x="132" y="641.4415"/><text fill="#000000" font-family="sans-serif" font-size="14" lengthAdjust="spacing" textLength="104.3836" x="144" y="648.3734">id_from: TypeID</text><rect fill="none" height="6" style="stroke:#C82930;stroke-width:1;" width="6" x="132" y="660.5094"/><text fill="#000000" font-family="sans-serif" font-size="14" lengthAdjust="spacing" textLength="104.5096" x="144" y="667.4414">id_relay: TypeID</text><rect fill="none" height="6" style="stroke:#C82930;stroke-width:1;" width="6" x="132" y="679.5773"/><text fill="#000000" font-family="sans-serif" font-size="14" lengthAdjust="spacing" textLength="85.7497" x="144" y="686.5093">id_to: TypeID</text><rect fill="none" height="6" style="stroke:#C82930;stroke-width:1;" width="6" x="132" y="698.6452"/><text fill="#000000" font-family="sans-serif" font-size="14" lengthAdjust="spacing" textLength="52.0518" x="144" y="705.5772">is_ai: u8</text><rect fill="none" height="6" style="stroke:#C82930;stroke-width:1;" width="6" x="132" y="717.7131"/><text fill="#000000" font-family="sans-serif" font-size="14" lengthAdjust="spacing" textLength="85.0777" x="144" y="724.6451">is_output: u8</text><rect fill="none" height="6" style="stroke:#C82930;stroke-width:1;" width="6" x="132" y="736.781"/><text fill="#000000" font-family="sans-serif" font-size="14" lengthAdjust="spacing" textLength="74.5357" x="144" y="743.713">length: u64</text><rect fill="none" height="6" style="stroke:#C82930;stroke-width:1;" width="6" x="132" y="755.849"/><text fill="#000000" font-family="sans-serif" font-size="14" lengthAdjust="spacing" textLength="82.6137" x="144" y="762.7809">progress: u8</text><rect fill="none" height="6" style="stroke:#C82930;stroke-width:1;" width="6" x="132" y="774.9169"/><text fill="#000000" font-family="sans-serif" font-size="14" lengthAdjust="spacing" textLength="62.0337" x="144" y="781.8489">seek: u64</text><line style="stroke:#181818;stroke-width:0.5;" x1="125" x2="531.9405" y1="789.9508" y2="789.9508"/><ellipse cx="135" cy="804.9848" fill="#84BE84" rx="3" ry="3" style="stroke:#038048;stroke-width:1;"/><text fill="#000000" font-family="sans-serif" font-size="14" lengthAdjust="spacing" textLength="147.8674" x="144" y="808.9168">get_id(&amp;self) -&gt; TypeID</text><ellipse cx="135" cy="824.0527" fill="#84BE84" rx="3" ry="3" style="stroke:#038048;stroke-width:1;"/><text fill="#000000" font-family="sans-serif" font-size="14" lengthAdjust="spacing" textLength="189.8252" x="144" y="827.9847">set_id(&amp;mut self, _id: TypeID)</text><ellipse cx="135" cy="843.1206" fill="#84BE84" rx="3" ry="3" style="stroke:#038048;stroke-width:1;"/><text fill="#000000" font-family="sans-serif" font-size="14" lengthAdjust="spacing" textLength="143.5694" x="144" y="847.0526">get_time(&amp;self) -&gt; u64</text><ellipse cx="135" cy="862.1885" fill="#84BE84" rx="3" ry="3" style="stroke:#038048;stroke-width:1;"/><text fill="#000000" font-family="sans-serif" font-size="14" lengthAdjust="spacing" textLength="202.9572" x="144" y="866.1205">set_time(&amp;mut self, _time: u64)</text><ellipse cx="135" cy="881.2565" fill="#84BE84" rx="3" ry="3" style="stroke:#038048;stroke-width:1;"/><text fill="#000000" font-family="sans-serif" font-size="14" lengthAdjust="spacing" textLength="174.3133" x="144" y="885.1884">get_data(&amp;self) -&gt; Vec&lt;u8&gt;</text><ellipse cx="135" cy="900.3244" fill="#84BE84" rx="3" ry="3" style="stroke:#038048;stroke-width:1;"/><text fill="#000000" font-family="sans-serif" font-size="14" lengthAdjust="spacing" textLength="233.4211" x="144" y="904.2564">set_data(&amp;mut self, _data: Vec&lt;u8&gt;)</text><ellipse cx="135" cy="919.3923" fill="#84BE84" rx="3" ry="3" style="stroke:#038048;stroke-width:1;"/><text fill="#000000" font-family="sans-serif" font-size="14" lengthAdjust="spacing" textLength="229.5571" x="144" y="923.3243">get_enum_action_state(&amp;self) -&gt; u8</text><ellipse cx="135" cy="938.4602" fill="#84BE84" rx="3" ry="3" style="stroke:#038048;stroke-width:1;"/><text fill="#000000" font-family="sans-serif" font-size="14" lengthAdjust="spacing" textLength="382.9405" x="144" y="942.3922">set_enum_action_state(&amp;mut self, _enum_action_state: u8)</text><ellipse cx="135" cy="957.5281" fill="#84BE84" rx="3" ry="3" style="stroke:#038048;stroke-width:1;"/><text fill="#000000" font-family="sans-serif" font-size="14" lengthAdjust="spacing" textLength="194.4452" x="144" y="961.4601">get_id_action(&amp;self) -&gt; TypeID</text><ellipse cx="135" cy="976.596" fill="#84BE84" rx="3" ry="3" style="stroke:#038048;stroke-width:1;"/><text fill="#000000" font-family="sans-serif" font-size="14" lengthAdjust="spacing" textLength="282.9809" x="144" y="980.528">set_id_action(&amp;mut self, _id_action: TypeID)</text><ellipse cx="135" cy="995.664" fill="#84BE84" rx="3" ry="3" style="stroke:#038048;stroke-width:1;"/><text fill="#000000" font-family="sans-serif" font-size="14" lengthAdjust="spacing" textLength="192.1492" x="144" y="999.5959">get_id_agent(&amp;self) -&gt; TypeID</text><ellipse cx="135" cy="1014.7319" fill="#84BE84" rx="3" ry="3" style="stroke:#038048;stroke-width:1;"/><text fill="#000000" font-family="sans-serif" font-size="14" lengthAdjust="spacing" textLength="278.3889" x="144" y="1018.6639">set_id_agent(&amp;mut self, _id_agent: TypeID)</text><ellipse cx="135" cy="1033.7998" fill="#84BE84" rx="3" ry="3" style="stroke:#038048;stroke-width:1;"/><text fill="#000000" font-family="sans-serif" font-size="14" lengthAdjust="spacing" textLength="186.2413" x="144" y="1037.7318">get_id_from(&amp;self) -&gt; TypeID</text><ellipse cx="135" cy="1052.8677" fill="#84BE84" rx="3" ry="3" style="stroke:#038048;stroke-width:1;"/><text fill="#000000" font-family="sans-serif" font-size="14" lengthAdjust="spacing" textLength="266.573" x="144" y="1056.7997">set_id_from(&amp;mut self, _id_from: TypeID)</text><ellipse cx="135" cy="1071.9356" fill="#84BE84" rx="3" ry="3" style="stroke:#038048;stroke-width:1;"/><text fill="#000000" font-family="sans-serif" font-size="14" lengthAdjust="spacing" textLength="186.3672" x="144" y="1075.8676">get_id_relay(&amp;self) -&gt; TypeID</text><ellipse cx="135" cy="1091.0035" fill="#84BE84" rx="3" ry="3" style="stroke:#038048;stroke-width:1;"/><text fill="#000000" font-family="sans-serif" font-size="14" lengthAdjust="spacing" textLength="266.8249" x="144" y="1094.9355">set_id_relay(&amp;mut self, _id_relay: TypeID)</text><ellipse cx="135" cy="1110.0715" fill="#84BE84" rx="3" ry="3" style="stroke:#038048;stroke-width:1;"/><text fill="#000000" font-family="sans-serif" font-size="14" lengthAdjust="spacing" textLength="167.6073" x="144" y="1114.0034">get_id_to(&amp;self) -&gt; TypeID</text><ellipse cx="135" cy="1129.1394" fill="#84BE84" rx="3" ry="3" style="stroke:#038048;stroke-width:1;"/><text fill="#000000" font-family="sans-serif" font-size="14" lengthAdjust="spacing" textLength="229.3051" x="144" y="1133.0714">set_id_to(&amp;mut self, _id_to: TypeID)</text><ellipse cx="135" cy="1148.2073" fill="#84BE84" rx="3" ry="3" style="stroke:#038048;stroke-width:1;"/><text fill="#000000" font-family="sans-serif" font-size="14" lengthAdjust="spacing" textLength="133.9095" x="144" y="1152.1393">get_is_ai(&amp;self) -&gt; u8</text><ellipse cx="135" cy="1167.2752" fill="#84BE84" rx="3" ry="3" style="stroke:#038048;stroke-width:1;"/><text fill="#000000" font-family="sans-serif" font-size="14" lengthAdjust="spacing" textLength="191.6452" x="144" y="1171.2072">set_is_ai(&amp;mut self, _is_ai: u8)</text><ellipse cx="135" cy="1186.3431" fill="#84BE84" rx="3" ry="3" style="stroke:#038048;stroke-width:1;"/><text fill="#000000" font-family="sans-serif" font-size="14" lengthAdjust="spacing" textLength="166.9353" x="144" y="1190.2751">get_is_output(&amp;self) -&gt; u8</text><ellipse cx="135" cy="1205.411" fill="#84BE84" rx="3" ry="3" style="stroke:#038048;stroke-width:1;"/><text fill="#000000" font-family="sans-serif" font-size="14" lengthAdjust="spacing" textLength="257.697" x="144" y="1209.343">set_is_output(&amp;mut self, _is_output: u8)</text><ellipse cx="135" cy="1224.479" fill="#84BE84" rx="3" ry="3" style="stroke:#038048;stroke-width:1;"/><text fill="#000000" font-family="sans-serif" font-size="14" lengthAdjust="spacing" textLength="156.3934" x="144" y="1228.4109">get_length(&amp;self) -&gt; u64</text><ellipse cx="135" cy="1243.5469" fill="#84BE84" rx="3" ry="3" style="stroke:#038048;stroke-width:1;"/><text fill="#000000" font-family="sans-serif" font-size="14" lengthAdjust="spacing" textLength="228.6051" x="144" y="1247.4789">set_length(&amp;mut self, _length: u64)</text><ellipse cx="135" cy="1262.6148" fill="#84BE84" rx="3" ry="3" style="stroke:#038048;stroke-width:1;"/><text fill="#000000" font-family="sans-serif" font-size="14" lengthAdjust="spacing" textLength="164.4714" x="144" y="1266.5468">get_progress(&amp;self) -&gt; u8</text><ellipse cx="135" cy="1281.6827" fill="#84BE84" rx="3" ry="3" style="stroke:#038048;stroke-width:1;"/><text fill="#000000" font-family="sans-serif" font-size="14" lengthAdjust="spacing" textLength="252.769" x="144" y="1285.6147">set_progress(&amp;mut self, _progress: u8)</text><ellipse cx="135" cy="1300.7506" fill="#84BE84" rx="3" ry="3" style="stroke:#038048;stroke-width:1;"/><text fill="#000000" font-family="sans-serif" font-size="14" lengthAdjust="spacing" textLength="143.8914" x="144" y="1304.6826">get_seek(&amp;self) -&gt; u64</text><ellipse cx="135" cy="1319.8186" fill="#84BE84" rx="3" ry="3" style="stroke:#038048;stroke-width:1;"/><text fill="#000000" font-family="sans-serif" font-size="14" lengthAdjust="spacing" textLength="203.6012" x="144" y="1323.7505">set_seek(&amp;mut self, _seek: u64)</text></g><!--reverse link IEvo to IEntity--><g class="link" data-entity-1="IEvo" data-entity-2="IEntity" data-source-line="89" data-uid="lnk8" id="link_IEvo_IEntity"><path codeLine="89" d="M155.5564,110.4211 C160.3664,128.7611 161.25,133.16 165.5,153 C176.76,205.61 187,266.32 193.65,308.32" fill="none" id="IEvo-backto-IEntity" style="stroke:#09B620;stroke-width:1;"/><polygon fill="none" points="150.99,93.01,149.7527,111.9433,161.3601,108.899,150.99,93.01" style="stroke:#09B620;stroke-width:1;"/></g><!--reverse link ID to IEntity--><g class="link" data-entity-1="ID" data-entity-2="IEntity" data-source-line="90" data-uid="lnk9" id="link_ID_IEntity"><path codeLine="90" d="M120.6556,253.7278 C136.6556,274.7678 145.22,286.03 162.1,308.21" fill="none" id="ID-backto-IEntity" style="stroke:#09B620;stroke-width:1;"/><polygon fill="none" points="109.76,239.4,115.8797,257.3597,125.4316,250.0959,109.76,239.4" style="stroke:#09B620;stroke-width:1;"/></g><!--reverse link ITime to IEntity--><g class="link" data-entity-1="ITime" data-entity-2="IEntity" data-source-line="91" data-uid="lnk10" id="link_ITime_IEntity"><path codeLine="91" d="M299.5964,252.6866 C280.3664,273.7266 269.12,286.03 248.84,308.21" fill="none" id="ITime-backto-IEntity" style="stroke:#09B620;stroke-width:1;"/><polygon fill="none" points="311.74,239.4,295.1676,248.6387,304.0253,256.7344,311.74,239.4" style="stroke:#09B620;stroke-width:1;"/></g><!--reverse link IEntity to EApiEvent--><g class="link" data-entity-1="IEntity" data-entity-2="EApiEvent" data-source-line="93" data-uid="lnk11" id="link_IEntity_EApiEvent"><path codeLine="93" d="M217.6542,431.2482 C222.1342,450.4282 223.54,456.48 229.68,482.83" fill="none" id="IEntity-backto-EApiEvent" style="stroke:#09B620;stroke-width:1;"/><polygon fill="none" points="213.56,413.72,211.8114,432.6129,223.4969,429.8835,213.56,413.72" style="stroke:#09B620;stroke-width:1;"/></g><!--reverse link IAiEntity to EApiEvent--><g class="link" data-entity-1="IAiEntity" data-entity-2="EApiEvent" data-source-line="94" data-uid="lnk12" id="link_IAiEntity_EApiEvent"><path codeLine="94" d="M438.0056,440.6611 C433.9356,457.9511 433.31,460.67 428.09,482.87" fill="none" id="IAiEntity-backto-EApiEvent" style="stroke:#FFA600;stroke-width:1;"/><polygon fill="none" points="442.13,423.14,432.1652,439.2863,443.846,442.0359,442.13,423.14" style="stroke:#FFA600;stroke-width:1;"/></g><!--link IEvo to ID--><g class="link" data-entity-1="IEvo" data-entity-2="ID" data-source-line="95" data-uid="lnk13" id="link_IEvo_ID"><line style="stroke:none;stroke-width:1;" x1="95.73" x2="97.7064" y1="152.66" y2="148.0672"/></g><!--SRC=[XPRTRk8m48NlynHULMgBsaZLQbLHX93Q3IjnJLLfho8J9c01DeeTAjJjkw__Oay20IvQc7FyUJpsEBaZSr1aGOlDgX8rNv92R4MLo0tZUrhH7NaBqc-Z45LHBhK4N2N97ScWP1pSA4bARG1Qh0dZ2ggI5f3yM3h7R7eGZd3pntwYalN4tzaEUgGfLqmTlVZqidZ- -PH4zPLvfIpfyvDMGZes3J8UtyyUOqQ3oOHy9KH_7hwaeeeLtmGE8Zz09PdWzmEIJiZxSGzwm8UBEVSAL7xD-DsQFHiRUPPDcXooRWQ6oPOHDSjSNBeuMuvyUD11cserr52v3bZfU4GRLuHRpVmP1T5CWKjdYzvT0TeACnl-xMTM8byS5KWtymSKuteuSL9PYPqNbrJH4Ndx-pwTMzySjcKOBrN5-Ce1vlPxP_MlpCtRPEMFWCt8V-zkiIa8PQ7O7dlM8uirxEYfJsT6sONXTddQeTFN_qRU59Udrw2bkb1a-hfdquDkgZC5J4dSTHzm-rG___A_NV5mQLC2lDQJ5qgVmjmaP0OC0z0h7Qw9htGMfs6pbDDe1LjwF0qhqOr9k_uulyn5hVQrGh4jy9LQurNjAx6gG4faaW0RPqd80_7DSYjrCKywXlYMkTtLYXZ78ybn-_Znzjn7GZEx6-v410Y53-DDwT7url6s36T0ZDPc1Sx9Tk6aXeXtneZWPtTz48lbjSir2wPMwJf7fWKrX-OQqtawI7pQCD6Sjoj0Psdpy375E7jGh_2yfmridN1CLE8ApXZQhDWM4MGQes-dlOWXJHzXWEka2v36q0R51WmmruAztT38Y8EQDb2QjktBAEe8X7iza4otzsRZH8G8TyCWCJThU3bHQo1c6ytXbMksbsG1wXE0nzSKcIJkpU1VcZOtSEicJcRP9T4zV7lrf8bQIxphEvJu4ElQ_2FC9PaknIVNvT0ftU3NiJiTIBTGAgFPZ5hoVm00]--></g></svg>