<svg xmlns="http://www.w3.org/2000/svg" xmlns:xlink="http://www.w3.org/1999/xlink" contentStyleType="text/css" data-diagram-type="CLASS" height="881px" preserveAspectRatio="none" style="width:568px;height:881px;" version="1.1" viewBox="0 0 568 881" width="568px" zoomAndPan="magnify"><defs/><g><!--class IEvo--><g class="entity" data-entity="IEvo" data-source-line="13" data-uid="ent0002" id="entity_IEvo"><rect fill="#F1F1F1" height="86.1358" rx="2.5" ry="2.5" style="stroke:#181818;stroke-width:0.5;" width="264.209" x="7.5" y="7"/><ellipse cx="122.2786" cy="23" fill="#FFFFFF" rx="11" ry="11" style="stroke:#181818;stroke-width:1;"/><path d="M118.2004,18.7656 L118.2004,16.6094 L125.5911,16.6094 L125.5911,18.7656 L123.1223,18.7656 L123.1223,26.8438 L125.5911,26.8438 L125.5911,29 L118.2004,29 L118.2004,26.8438 L120.6692,26.8438 L120.6692,18.7656 L118.2004,18.7656 Z " fill="#000000"/><text fill="#000000" font-family="sans-serif" font-size="14" font-style="italic" lengthAdjust="spacing" textLength="26.1519" x="142.7786" y="28.432">IEvo</text><line style="stroke:#181818;stroke-width:0.5;" x1="8.5" x2="270.709" y1="39" y2="39"/><line style="stroke:#181818;stroke-width:0.5;" x1="8.5" x2="270.709" y1="47" y2="47"/><ellipse cx="18.5" cy="62.034" fill="#84BE84" rx="3" ry="3" style="stroke:#038048;stroke-width:1;"/><text fill="#000000" font-family="sans-serif" font-size="14" lengthAdjust="spacing" text-decoration="underline" textLength="210.4332" x="27.5" y="65.9659">evo_version() -&gt; TypeEvoVersion</text><ellipse cx="18.5" cy="81.1019" fill="#84BE84" rx="3" ry="3" style="stroke:#038048;stroke-width:1;"/><text fill="#000000" font-family="sans-serif" font-size="14" lengthAdjust="spacing" textLength="238.209" x="27.5" y="85.0339">get_evo_version() -&gt; TypeEvoVersion</text></g><!--class ID--><g class="entity" data-entity="ID" data-source-line="18" data-uid="ent0003" id="entity_ID"><rect fill="#F1F1F1" height="86.1358" rx="2.5" ry="2.5" style="stroke:#181818;stroke-width:0.5;" width="140.5895" x="7" y="153"/><ellipse cx="46.4221" cy="169" fill="#FFFFFF" rx="11" ry="11" style="stroke:#181818;stroke-width:1;"/><path d="M42.344,164.7656 L42.344,162.6094 L49.7346,162.6094 L49.7346,164.7656 L47.2659,164.7656 L47.2659,172.8438 L49.7346,172.8438 L49.7346,175 L42.344,175 L42.344,172.8438 L44.8127,172.8438 L44.8127,164.7656 L42.344,164.7656 Z " fill="#000000"/><text fill="#000000" font-family="sans-serif" font-size="14" font-style="italic" lengthAdjust="spacing" textLength="13.8739" x="65.8492" y="174.432">ID</text><rect fill="#FFFFFF" height="18.3441" style="stroke:#181818;stroke-width:1;stroke-dasharray:2.0,2.0;" width="38.4442" x="112.1453" y="150"/><text fill="#000000" font-family="sans-serif" font-size="12" font-style="italic" lengthAdjust="spacing" textLength="36.4442" x="113.1453" y="163.8281">TypeID</text><line style="stroke:#181818;stroke-width:0.5;" x1="8" x2="146.5895" y1="185" y2="185"/><line style="stroke:#181818;stroke-width:0.5;" x1="8" x2="146.5895" y1="193" y2="193"/><ellipse cx="18" cy="208.034" fill="#84BE84" rx="3" ry="3" style="stroke:#038048;stroke-width:1;"/><text fill="#000000" font-family="sans-serif" font-size="14" lengthAdjust="spacing" textLength="114.5895" x="27" y="211.9659">get_id() -&gt; TypeID</text><ellipse cx="18" cy="227.1019" fill="#84BE84" rx="3" ry="3" style="stroke:#038048;stroke-width:1;"/><text fill="#000000" font-family="sans-serif" font-size="14" lengthAdjust="spacing" textLength="112.5036" x="27" y="231.0339">set_id(id: TypeID)</text></g><!--class ITime--><g class="entity" data-entity="ITime" data-source-line="23" data-uid="ent0004" id="entity_ITime"><rect fill="#F1F1F1" height="86.1358" rx="2.5" ry="2.5" style="stroke:#181818;stroke-width:0.5;" width="190.7793" x="255" y="153"/><ellipse cx="328.9407" cy="169" fill="#FFFFFF" rx="11" ry="11" style="stroke:#181818;stroke-width:1;"/><path d="M324.8626,164.7656 L324.8626,162.6094 L332.2532,162.6094 L332.2532,164.7656 L329.7845,164.7656 L329.7845,172.8438 L332.2532,172.8438 L332.2532,175 L324.8626,175 L324.8626,172.8438 L327.3314,172.8438 L327.3314,164.7656 L324.8626,164.7656 Z " fill="#000000"/><text fill="#000000" font-family="sans-serif" font-size="14" font-style="italic" lengthAdjust="spacing" textLength="34.3979" x="349.4407" y="174.432">ITime</text><line style="stroke:#181818;stroke-width:0.5;" x1="256" x2="444.7793" y1="185" y2="185"/><line style="stroke:#181818;stroke-width:0.5;" x1="256" x2="444.7793" y1="193" y2="193"/><ellipse cx="266" cy="208.034" fill="#84BE84" rx="3" ry="3" style="stroke:#038048;stroke-width:1;"/><text fill="#000000" font-family="sans-serif" font-size="14" lengthAdjust="spacing" textLength="149.4354" x="275" y="211.9659">get_time() -&gt; TypeTime</text><ellipse cx="266" cy="227.1019" fill="#84BE84" rx="3" ry="3" style="stroke:#038048;stroke-width:1;"/><text fill="#000000" font-family="sans-serif" font-size="14" lengthAdjust="spacing" textLength="164.7793" x="275" y="231.0339">set_time(time: TypeTime)</text></g><!--class IEntity--><g class="entity" data-entity="IEntity" data-source-line="27" data-uid="ent0005" id="entity_IEntity"><rect fill="#09B620" height="105.2038" rx="2.5" ry="2.5" style="stroke:#181818;stroke-width:0.5;" width="229.0272" x="87" y="308.5"/><ellipse cx="157.3996" cy="324.5" fill="#09B620" rx="11" ry="11" style="stroke:#181818;stroke-width:1;"/><path d="M153.3214,320.2656 L153.3214,318.1094 L160.7121,318.1094 L160.7121,320.2656 L158.2433,320.2656 L158.2433,328.3438 L160.7121,328.3438 L160.7121,330.5 L153.3214,330.5 L153.3214,328.3438 L155.7902,328.3438 L155.7902,320.2656 L153.3214,320.2656 Z " fill="#000000"/><text fill="#000000" font-family="sans-serif" font-size="14" font-style="italic" lengthAdjust="spacing" textLength="39.2838" x="177.8996" y="329.932">IEntity</text><rect fill="#FFFFFF" height="18.3441" style="stroke:#181818;stroke-width:1;stroke-dasharray:2.0,2.0;" width="38.4442" x="280.583" y="305.5"/><text fill="#000000" font-family="sans-serif" font-size="12" font-style="italic" lengthAdjust="spacing" textLength="36.4442" x="281.583" y="319.3281">TypeID</text><line style="stroke:#181818;stroke-width:0.5;" x1="88" x2="315.0272" y1="340.5" y2="340.5"/><line style="stroke:#181818;stroke-width:0.5;" x1="88" x2="315.0272" y1="348.5" y2="348.5"/><ellipse cx="98" cy="363.534" fill="#84BE84" rx="3" ry="3" style="stroke:#038048;stroke-width:1;"/><text fill="#000000" font-family="sans-serif" font-size="14" lengthAdjust="spacing" textLength="139.0334" x="107" y="367.4659">to_bytes() -&gt; Vec&lt;u8&gt;</text><ellipse cx="98" cy="382.6019" fill="#84BE84" rx="3" ry="3" style="stroke:#038048;stroke-width:1;"/><text fill="#000000" font-family="sans-serif" font-size="14" lengthAdjust="spacing" textLength="203.0272" x="107" y="386.5339">from_bytes(data: BYTES) -&gt; Self</text><ellipse cx="98" cy="401.6698" fill="#84BE84" rx="3" ry="3" style="stroke:#038048;stroke-width:1;"/><text fill="#000000" font-family="sans-serif" font-size="14" lengthAdjust="spacing" textLength="125.7475" x="107" y="405.6018">to_string() -&gt; String</text></g><!--class IAiEntity--><g class="entity" data-entity="IAiEntity" data-source-line="33" data-uid="ent0006" id="entity_IAiEntity"><rect fill="#FFA600" height="124.2717" rx="2.5" ry="2.5" style="stroke:#181818;stroke-width:0.5;" width="210.0573" x="351.5" y="299"/><ellipse cx="426.8968" cy="315" fill="#FFA600" rx="11" ry="11" style="stroke:#181818;stroke-width:1;"/><path d="M422.8186,310.7656 L422.8186,308.6094 L430.2093,308.6094 L430.2093,310.7656 L427.7405,310.7656 L427.7405,318.8438 L430.2093,318.8438 L430.2093,321 L422.8186,321 L422.8186,318.8438 L425.2874,318.8438 L425.2874,310.7656 L422.8186,310.7656 Z " fill="#000000"/><text fill="#000000" font-family="sans-serif" font-size="14" font-style="italic" lengthAdjust="spacing" textLength="50.7638" x="447.3968" y="320.432">IAiEntity</text><line style="stroke:#181818;stroke-width:0.5;" x1="352.5" x2="560.5573" y1="331" y2="331"/><line style="stroke:#181818;stroke-width:0.5;" x1="352.5" x2="560.5573" y1="339" y2="339"/><ellipse cx="362.5" cy="354.034" fill="#84BE84" rx="3" ry="3" style="stroke:#038048;stroke-width:1;"/><text fill="#000000" font-family="sans-serif" font-size="14" lengthAdjust="spacing" text-decoration="underline" textLength="125.2715" x="371.5" y="357.9659">get_ai_id() -&gt; String</text><ellipse cx="362.5" cy="373.1019" fill="#84BE84" rx="3" ry="3" style="stroke:#038048;stroke-width:1;"/><text fill="#000000" font-family="sans-serif" font-size="14" lengthAdjust="spacing" text-decoration="underline" textLength="163.9674" x="371.5" y="377.0339">get_ai_schema() -&gt; String</text><ellipse cx="362.5" cy="392.1698" fill="#84BE84" rx="3" ry="3" style="stroke:#038048;stroke-width:1;"/><text fill="#000000" font-family="sans-serif" font-size="14" lengthAdjust="spacing" textLength="98.7976" x="371.5" y="396.1018">to_ai() -&gt; String</text><ellipse cx="362.5" cy="411.2377" fill="#84BE84" rx="3" ry="3" style="stroke:#038048;stroke-width:1;"/><text fill="#000000" font-family="sans-serif" font-size="14" lengthAdjust="spacing" text-decoration="underline" textLength="184.0573" x="371.5" y="415.1697">from_ai(str_ai: String) -&gt; Self</text></g><!--class EApiCrypto--><g class="entity" data-entity="EApiCrypto" data-source-line="40" data-uid="ent0007" id="entity_EApiCrypto"><rect fill="#09B620" height="391.2225" rx="2.5" ry="2.5" style="stroke:#181818;stroke-width:0.5;" width="464.3524" x="96.5" y="483"/><ellipse cx="287.9983" cy="499" fill="#F1F1F1" rx="11" ry="11" style="stroke:#181818;stroke-width:1;"/><path d="M287.4827,499.5625 Q285.6233,498.8594 284.9671,498.0938 Q284.3265,497.3125 284.3265,496 Q284.3265,494.3125 285.4046,493.3438 Q286.4827,492.375 288.3577,492.375 Q289.2171,492.375 290.0608,492.5781 Q290.9202,492.7656 291.764,493.1563 L291.764,495.5469 Q290.9827,494.9844 290.1546,494.7031 Q289.3421,494.4063 288.5452,494.4063 Q287.6702,494.4063 287.1858,494.7656 Q286.7171,495.125 286.7171,495.7813 Q286.7171,496.2969 287.0608,496.6406 Q287.4046,496.9688 288.4983,497.375 L289.5608,497.7813 Q291.0452,498.3281 291.7483,499.2344 Q292.4671,500.1406 292.4671,501.5156 Q292.4671,503.3906 291.3577,504.3125 Q290.2483,505.2344 287.9983,505.2344 Q287.0765,505.2344 286.1546,505.0156 Q285.2327,504.7969 284.3733,504.375 L284.3733,501.8438 Q285.3421,502.5313 286.264,502.875 Q287.1858,503.2188 288.0765,503.2188 Q288.9827,503.2188 289.4827,502.8125 Q289.9827,502.3906 289.9827,501.6563 Q289.9827,501.0938 289.639,500.6875 Q289.3108,500.2656 288.6858,500.0156 L287.4827,499.5625 Z " fill="#000000"/><text fill="#000000" font-family="sans-serif" font-size="14" lengthAdjust="spacing" textLength="72.8557" x="308.4983" y="504.432">EApiCrypto</text><line style="stroke:#181818;stroke-width:0.5;" x1="97.5" x2="559.8524" y1="515" y2="515"/><rect fill="none" height="6" style="stroke:#C82930;stroke-width:1;" width="6" x="104.5" y="527.034"/><text fill="#000000" font-family="sans-serif" font-size="14" lengthAdjust="spacing" textLength="66.0097" x="116.5" y="533.9659">id: TypeID</text><rect fill="none" height="6" style="stroke:#C82930;stroke-width:1;" width="6" x="104.5" y="546.1019"/><text fill="#000000" font-family="sans-serif" font-size="14" lengthAdjust="spacing" textLength="61.7117" x="116.5" y="553.0339">time: u64</text><rect fill="none" height="6" style="stroke:#C82930;stroke-width:1;" width="6" x="104.5" y="565.1698"/><text fill="#000000" font-family="sans-serif" font-size="14" lengthAdjust="spacing" textLength="175.4053" x="116.5" y="572.1018">enum_api_crypto_state: u8</text><rect fill="none" height="6" style="stroke:#C82930;stroke-width:1;" width="6" x="104.5" y="584.2377"/><text fill="#000000" font-family="sans-serif" font-size="14" lengthAdjust="spacing" textLength="159.6694" x="116.5" y="591.1697">enum_bridge_crypto: u8</text><rect fill="none" height="6" style="stroke:#C82930;stroke-width:1;" width="6" x="104.5" y="603.3056"/><text fill="#000000" font-family="sans-serif" font-size="14" lengthAdjust="spacing" textLength="142.3374" x="116.5" y="610.2376">send_server: Vec&lt;u8&gt;</text><rect fill="none" height="6" style="stroke:#C82930;stroke-width:1;" width="6" x="104.5" y="622.3735"/><text fill="#000000" font-family="sans-serif" font-size="14" lengthAdjust="spacing" textLength="154.8534" x="116.5" y="629.3055">shared_secret: Vec&lt;u8&gt;</text><line style="stroke:#181818;stroke-width:0.5;" x1="97.5" x2="559.8524" y1="637.4075" y2="637.4075"/><ellipse cx="107.5" cy="652.4415" fill="#84BE84" rx="3" ry="3" style="stroke:#038048;stroke-width:1;"/><text fill="#000000" font-family="sans-serif" font-size="14" lengthAdjust="spacing" textLength="147.8674" x="116.5" y="656.3734">get_id(&amp;self) -&gt; TypeID</text><ellipse cx="107.5" cy="671.5094" fill="#84BE84" rx="3" ry="3" style="stroke:#038048;stroke-width:1;"/><text fill="#000000" font-family="sans-serif" font-size="14" lengthAdjust="spacing" textLength="189.8252" x="116.5" y="675.4414">set_id(&amp;mut self, _id: TypeID)</text><ellipse cx="107.5" cy="690.5773" fill="#84BE84" rx="3" ry="3" style="stroke:#038048;stroke-width:1;"/><text fill="#000000" font-family="sans-serif" font-size="14" lengthAdjust="spacing" textLength="143.5694" x="116.5" y="694.5093">get_time(&amp;self) -&gt; u64</text><ellipse cx="107.5" cy="709.6452" fill="#84BE84" rx="3" ry="3" style="stroke:#038048;stroke-width:1;"/><text fill="#000000" font-family="sans-serif" font-size="14" lengthAdjust="spacing" textLength="202.9572" x="116.5" y="713.5772">set_time(&amp;mut self, _time: u64)</text><ellipse cx="107.5" cy="728.7131" fill="#84BE84" rx="3" ry="3" style="stroke:#038048;stroke-width:1;"/><text fill="#000000" font-family="sans-serif" font-size="14" lengthAdjust="spacing" textLength="257.263" x="116.5" y="732.6451">get_enum_api_crypto_state(&amp;self) -&gt; u8</text><ellipse cx="107.5" cy="747.781" fill="#84BE84" rx="3" ry="3" style="stroke:#038048;stroke-width:1;"/><text fill="#000000" font-family="sans-serif" font-size="14" lengthAdjust="spacing" textLength="438.3524" x="116.5" y="751.713">set_enum_api_crypto_state(&amp;mut self, _enum_api_crypto_state: u8)</text><ellipse cx="107.5" cy="766.849" fill="#84BE84" rx="3" ry="3" style="stroke:#038048;stroke-width:1;"/><text fill="#000000" font-family="sans-serif" font-size="14" lengthAdjust="spacing" textLength="241.527" x="116.5" y="770.7809">get_enum_bridge_crypto(&amp;self) -&gt; u8</text><ellipse cx="107.5" cy="785.9169" fill="#84BE84" rx="3" ry="3" style="stroke:#038048;stroke-width:1;"/><text fill="#000000" font-family="sans-serif" font-size="14" lengthAdjust="spacing" textLength="406.8804" x="116.5" y="789.8489">set_enum_bridge_crypto(&amp;mut self, _enum_bridge_crypto: u8)</text><ellipse cx="107.5" cy="804.9848" fill="#84BE84" rx="3" ry="3" style="stroke:#038048;stroke-width:1;"/><text fill="#000000" font-family="sans-serif" font-size="14" lengthAdjust="spacing" textLength="224.1951" x="116.5" y="808.9168">get_send_server(&amp;self) -&gt; Vec&lt;u8&gt;</text><ellipse cx="107.5" cy="824.0527" fill="#84BE84" rx="3" ry="3" style="stroke:#038048;stroke-width:1;"/><text fill="#000000" font-family="sans-serif" font-size="14" lengthAdjust="spacing" textLength="333.1847" x="116.5" y="827.9847">set_send_server(&amp;mut self, _send_server: Vec&lt;u8&gt;)</text><ellipse cx="107.5" cy="843.1206" fill="#84BE84" rx="3" ry="3" style="stroke:#038048;stroke-width:1;"/><text fill="#000000" font-family="sans-serif" font-size="14" lengthAdjust="spacing" textLength="236.711" x="116.5" y="847.0526">get_shared_secret(&amp;self) -&gt; Vec&lt;u8&gt;</text><ellipse cx="107.5" cy="862.1885" fill="#84BE84" rx="3" ry="3" style="stroke:#038048;stroke-width:1;"/><text fill="#000000" font-family="sans-serif" font-size="14" lengthAdjust="spacing" textLength="358.2166" x="116.5" y="866.1205">set_shared_secret(&amp;mut self, _shared_secret: Vec&lt;u8&gt;)</text></g><!--reverse link IEvo to IEntity--><g class="link" data-entity-1="IEvo" data-entity-2="IEntity" data-source-line="65" data-uid="lnk8" id="link_IEvo_IEntity"><path codeLine="65" d="M155.5564,110.4211 C160.3664,128.7611 161.25,133.16 165.5,153 C176.76,205.61 187,266.32 193.65,308.32" fill="none" id="IEvo-backto-IEntity" style="stroke:#09B620;stroke-width:1;"/><polygon fill="none" points="150.99,93.01,149.7527,111.9433,161.3601,108.899,150.99,93.01" style="stroke:#09B620;stroke-width:1;"/></g><!--reverse link ID to IEntity--><g class="link" data-entity-1="ID" data-entity-2="IEntity" data-source-line="66" data-uid="lnk9" id="link_ID_IEntity"><path codeLine="66" d="M120.6556,253.7278 C136.6556,274.7678 145.22,286.03 162.1,308.21" fill="none" id="ID-backto-IEntity" style="stroke:#09B620;stroke-width:1;"/><polygon fill="none" points="109.76,239.4,115.8797,257.3597,125.4316,250.0959,109.76,239.4" style="stroke:#09B620;stroke-width:1;"/></g><!--reverse link ITime to IEntity--><g class="link" data-entity-1="ITime" data-entity-2="IEntity" data-source-line="67" data-uid="lnk10" id="link_ITime_IEntity"><path codeLine="67" d="M299.5964,252.6866 C280.3664,273.7266 269.12,286.03 248.84,308.21" fill="none" id="ITime-backto-IEntity" style="stroke:#09B620;stroke-width:1;"/><polygon fill="none" points="311.74,239.4,295.1676,248.6387,304.0253,256.7344,311.74,239.4" style="stroke:#09B620;stroke-width:1;"/></g><!--reverse link IEntity to EApiCrypto--><g class="link" data-entity-1="IEntity" data-entity-2="EApiCrypto" data-source-line="69" data-uid="lnk11" id="link_IEntity_EApiCrypto"><path codeLine="69" d="M229.0542,430.4469 C237.0442,450.2869 239.98,457.59 250.18,482.94" fill="none" id="IEntity-backto-EApiCrypto" style="stroke:#09B620;stroke-width:1;"/><polygon fill="none" points="222.33,413.75,223.4886,432.6883,234.6198,428.2055,222.33,413.75" style="stroke:#09B620;stroke-width:1;"/></g><!--reverse link IAiEntity to EApiCrypto--><g class="link" data-entity-1="IAiEntity" data-entity-2="EApiCrypto" data-source-line="70" data-uid="lnk12" id="link_IAiEntity_EApiCrypto"><path codeLine="70" d="M424.9008,439.8887 C417.7008,457.6287 416.2,461.33 407.54,482.68" fill="none" id="IAiEntity-backto-EApiCrypto" style="stroke:#FFA600;stroke-width:1;"/><polygon fill="none" points="431.67,423.21,419.3412,437.6322,430.4603,442.1451,431.67,423.21" style="stroke:#FFA600;stroke-width:1;"/></g><!--link IEvo to ID--><g class="link" data-entity-1="IEvo" data-entity-2="ID" data-source-line="71" data-uid="lnk13" id="link_IEvo_ID"><line style="stroke:none;stroke-width:1;" x1="95.73" x2="97.7064" y1="152.66" y2="148.0672"/></g><!--SRC=[XLNBQkCm5DtxA-vGQ1fQGnY6aeOGIEiCP9rGc9LHxEj4D96D9AU4JlzzzB8bEu_n8h7lEJhtAMa0AvIm8Td7bfSroo4hzoMFn0Tb5U7a0AyjzAOHa9mmeI1aCee6a6116TfL0Wf5G9BjW3A9l20PHZzoorWkZgLLkFjj7eyaL-nhUi0hq899AayE7Bridd-E8e_EgKEAWZoF5DA6OyA0wVHX-UGZ6ivcy1M1UXw_X2IIPj-0np8z8XUqP0z3Y6UmFbMe5hnRcsLlKQR_8tvtl2TJ3I-JMHD3qez0QzBSIoqJQnVMJlE9CmzxqhfQZMfRkPwmL7OlhLbUt63wPzA2saLOEbFqVWP1AxItyDjvbcMwEKaKrlCxPjDwFBDGmSk30tCYoGHU_wmNAyDRuRverml9ATjQWPLvxsK_fzPl4vKR0HEHU- -tM1U4qBROJlOYHsGxF91pdegCq1lBJNgAeS9NVnD7ykcf71HKPn8Myug-yLCbomiLZC6ttHbie-hdN-uRMQqyLJJDZ4Yg8z24SOXlECstw2W1A93bgK2kvdZIwO-2TcghQp3ZA3qOmIEuIRqNAfEpSGKth_U7Me9cF44QpgvRRuREApJvsEKM30JQfDlr5zCE1SU1tXLouE1g5RiEEtMywQt7xBiwQqZh9sX9uA2pTuoN3Y-GlzHIBnuszRPybnawk3WOmqZFT7ijo1q2nxtQ32KJEre9sA3yH6J-WX1HPC_alt7SZ7vd2qJBv1PeZxshUDHO3INOPJqPVtwSyTpnOSECy_AJgLAfeEx2gt2W3F4U2wan4rC7_WS0]--></g></svg>