<svg xmlns="http://www.w3.org/2000/svg" xmlns:xlink="http://www.w3.org/1999/xlink" contentStyleType="text/css" data-diagram-type="CLASS" height="938px" preserveAspectRatio="none" style="width:568px;height:938px;" version="1.1" viewBox="0 0 568 938" width="568px" zoomAndPan="magnify"><defs/><g><!--class IEvo--><g class="entity" data-entity="IEvo" data-source-line="13" data-uid="ent0002" id="entity_IEvo"><rect fill="#F1F1F1" height="86.1358" rx="2.5" ry="2.5" style="stroke:#181818;stroke-width:0.5;" width="264.209" x="7.5" y="7"/><ellipse cx="122.2786" cy="23" fill="#FFFFFF" rx="11" ry="11" style="stroke:#181818;stroke-width:1;"/><path d="M118.2004,18.7656 L118.2004,16.6094 L125.5911,16.6094 L125.5911,18.7656 L123.1223,18.7656 L123.1223,26.8438 L125.5911,26.8438 L125.5911,29 L118.2004,29 L118.2004,26.8438 L120.6692,26.8438 L120.6692,18.7656 L118.2004,18.7656 Z " fill="#000000"/><text fill="#000000" font-family="sans-serif" font-size="14" font-style="italic" lengthAdjust="spacing" textLength="26.1519" x="142.7786" y="28.432">IEvo</text><line style="stroke:#181818;stroke-width:0.5;" x1="8.5" x2="270.709" y1="39" y2="39"/><line style="stroke:#181818;stroke-width:0.5;" x1="8.5" x2="270.709" y1="47" y2="47"/><ellipse cx="18.5" cy="62.034" fill="#84BE84" rx="3" ry="3" style="stroke:#038048;stroke-width:1;"/><text fill="#000000" font-family="sans-serif" font-size="14" lengthAdjust="spacing" text-decoration="underline" textLength="210.4332" x="27.5" y="65.9659">evo_version() -&gt; TypeEvoVersion</text><ellipse cx="18.5" cy="81.1019" fill="#84BE84" rx="3" ry="3" style="stroke:#038048;stroke-width:1;"/><text fill="#000000" font-family="sans-serif" font-size="14" lengthAdjust="spacing" textLength="238.209" x="27.5" y="85.0339">get_evo_version() -&gt; TypeEvoVersion</text></g><!--class ID--><g class="entity" data-entity="ID" data-source-line="18" data-uid="ent0003" id="entity_ID"><rect fill="#F1F1F1" height="86.1358" rx="2.5" ry="2.5" style="stroke:#181818;stroke-width:0.5;" width="140.5895" x="7" y="153"/><ellipse cx="46.4221" cy="169" fill="#FFFFFF" rx="11" ry="11" style="stroke:#181818;stroke-width:1;"/><path d="M42.344,164.7656 L42.344,162.6094 L49.7346,162.6094 L49.7346,164.7656 L47.2659,164.7656 L47.2659,172.8438 L49.7346,172.8438 L49.7346,175 L42.344,175 L42.344,172.8438 L44.8127,172.8438 L44.8127,164.7656 L42.344,164.7656 Z " fill="#000000"/><text fill="#000000" font-family="sans-serif" font-size="14" font-style="italic" lengthAdjust="spacing" textLength="13.8739" x="65.8492" y="174.432">ID</text><rect fill="#FFFFFF" height="18.3441" style="stroke:#181818;stroke-width:1;stroke-dasharray:2.0,2.0;" width="38.4442" x="112.1453" y="150"/><text fill="#000000" font-family="sans-serif" font-size="12" font-style="italic" lengthAdjust="spacing" textLength="36.4442" x="113.1453" y="163.8281">TypeID</text><line style="stroke:#181818;stroke-width:0.5;" x1="8" x2="146.5895" y1="185" y2="185"/><line style="stroke:#181818;stroke-width:0.5;" x1="8" x2="146.5895" y1="193" y2="193"/><ellipse cx="18" cy="208.034" fill="#84BE84" rx="3" ry="3" style="stroke:#038048;stroke-width:1;"/><text fill="#000000" font-family="sans-serif" font-size="14" lengthAdjust="spacing" textLength="114.5895" x="27" y="211.9659">get_id() -&gt; TypeID</text><ellipse cx="18" cy="227.1019" fill="#84BE84" rx="3" ry="3" style="stroke:#038048;stroke-width:1;"/><text fill="#000000" font-family="sans-serif" font-size="14" lengthAdjust="spacing" textLength="112.5036" x="27" y="231.0339">set_id(id: TypeID)</text></g><!--class ITime--><g class="entity" data-entity="ITime" data-source-line="23" data-uid="ent0004" id="entity_ITime"><rect fill="#F1F1F1" height="86.1358" rx="2.5" ry="2.5" style="stroke:#181818;stroke-width:0.5;" width="190.7793" x="255" y="153"/><ellipse cx="328.9407" cy="169" fill="#FFFFFF" rx="11" ry="11" style="stroke:#181818;stroke-width:1;"/><path d="M324.8626,164.7656 L324.8626,162.6094 L332.2532,162.6094 L332.2532,164.7656 L329.7845,164.7656 L329.7845,172.8438 L332.2532,172.8438 L332.2532,175 L324.8626,175 L324.8626,172.8438 L327.3314,172.8438 L327.3314,164.7656 L324.8626,164.7656 Z " fill="#000000"/><text fill="#000000" font-family="sans-serif" font-size="14" font-style="italic" lengthAdjust="spacing" textLength="34.3979" x="349.4407" y="174.432">ITime</text><line style="stroke:#181818;stroke-width:0.5;" x1="256" x2="444.7793" y1="185" y2="185"/><line style="stroke:#181818;stroke-width:0.5;" x1="256" x2="444.7793" y1="193" y2="193"/><ellipse cx="266" cy="208.034" fill="#84BE84" rx="3" ry="3" style="stroke:#038048;stroke-width:1;"/><text fill="#000000" font-family="sans-serif" font-size="14" lengthAdjust="spacing" textLength="149.4354" x="275" y="211.9659">get_time() -&gt; TypeTime</text><ellipse cx="266" cy="227.1019" fill="#84BE84" rx="3" ry="3" style="stroke:#038048;stroke-width:1;"/><text fill="#000000" font-family="sans-serif" font-size="14" lengthAdjust="spacing" textLength="164.7793" x="275" y="231.0339">set_time(time: TypeTime)</text></g><!--class IEntity--><g class="entity" data-entity="IEntity" data-source-line="27" data-uid="ent0005" id="entity_IEntity"><rect fill="#09B620" height="105.2038" rx="2.5" ry="2.5" style="stroke:#181818;stroke-width:0.5;" width="229.0272" x="87" y="308.5"/><ellipse cx="157.3996" cy="324.5" fill="#09B620" rx="11" ry="11" style="stroke:#181818;stroke-width:1;"/><path d="M153.3214,320.2656 L153.3214,318.1094 L160.7121,318.1094 L160.7121,320.2656 L158.2433,320.2656 L158.2433,328.3438 L160.7121,328.3438 L160.7121,330.5 L153.3214,330.5 L153.3214,328.3438 L155.7902,328.3438 L155.7902,320.2656 L153.3214,320.2656 Z " fill="#000000"/><text fill="#000000" font-family="sans-serif" font-size="14" font-style="italic" lengthAdjust="spacing" textLength="39.2838" x="177.8996" y="329.932">IEntity</text><rect fill="#FFFFFF" height="18.3441" style="stroke:#181818;stroke-width:1;stroke-dasharray:2.0,2.0;" width="38.4442" x="280.583" y="305.5"/><text fill="#000000" font-family="sans-serif" font-size="12" font-style="italic" lengthAdjust="spacing" textLength="36.4442" x="281.583" y="319.3281">TypeID</text><line style="stroke:#181818;stroke-width:0.5;" x1="88" x2="315.0272" y1="340.5" y2="340.5"/><line style="stroke:#181818;stroke-width:0.5;" x1="88" x2="315.0272" y1="348.5" y2="348.5"/><ellipse cx="98" cy="363.534" fill="#84BE84" rx="3" ry="3" style="stroke:#038048;stroke-width:1;"/><text fill="#000000" font-family="sans-serif" font-size="14" lengthAdjust="spacing" textLength="139.0334" x="107" y="367.4659">to_bytes() -&gt; Vec&lt;u8&gt;</text><ellipse cx="98" cy="382.6019" fill="#84BE84" rx="3" ry="3" style="stroke:#038048;stroke-width:1;"/><text fill="#000000" font-family="sans-serif" font-size="14" lengthAdjust="spacing" textLength="203.0272" x="107" y="386.5339">from_bytes(data: BYTES) -&gt; Self</text><ellipse cx="98" cy="401.6698" fill="#84BE84" rx="3" ry="3" style="stroke:#038048;stroke-width:1;"/><text fill="#000000" font-family="sans-serif" font-size="14" lengthAdjust="spacing" textLength="125.7475" x="107" y="405.6018">to_string() -&gt; String</text></g><!--class IAiEntity--><g class="entity" data-entity="IAiEntity" data-source-line="33" data-uid="ent0006" id="entity_IAiEntity"><rect fill="#FFA600" height="124.2717" rx="2.5" ry="2.5" style="stroke:#181818;stroke-width:0.5;" width="210.0573" x="351.5" y="299"/><ellipse cx="426.8968" cy="315" fill="#FFA600" rx="11" ry="11" style="stroke:#181818;stroke-width:1;"/><path d="M422.8186,310.7656 L422.8186,308.6094 L430.2093,308.6094 L430.2093,310.7656 L427.7405,310.7656 L427.7405,318.8438 L430.2093,318.8438 L430.2093,321 L422.8186,321 L422.8186,318.8438 L425.2874,318.8438 L425.2874,310.7656 L422.8186,310.7656 Z " fill="#000000"/><text fill="#000000" font-family="sans-serif" font-size="14" font-style="italic" lengthAdjust="spacing" textLength="50.7638" x="447.3968" y="320.432">IAiEntity</text><line style="stroke:#181818;stroke-width:0.5;" x1="352.5" x2="560.5573" y1="331" y2="331"/><line style="stroke:#181818;stroke-width:0.5;" x1="352.5" x2="560.5573" y1="339" y2="339"/><ellipse cx="362.5" cy="354.034" fill="#84BE84" rx="3" ry="3" style="stroke:#038048;stroke-width:1;"/><text fill="#000000" font-family="sans-serif" font-size="14" lengthAdjust="spacing" text-decoration="underline" textLength="125.2715" x="371.5" y="357.9659">get_ai_id() -&gt; String</text><ellipse cx="362.5" cy="373.1019" fill="#84BE84" rx="3" ry="3" style="stroke:#038048;stroke-width:1;"/><text fill="#000000" font-family="sans-serif" font-size="14" lengthAdjust="spacing" text-decoration="underline" textLength="163.9674" x="371.5" y="377.0339">get_ai_schema() -&gt; String</text><ellipse cx="362.5" cy="392.1698" fill="#84BE84" rx="3" ry="3" style="stroke:#038048;stroke-width:1;"/><text fill="#000000" font-family="sans-serif" font-size="14" lengthAdjust="spacing" textLength="98.7976" x="371.5" y="396.1018">to_ai() -&gt; String</text><ellipse cx="362.5" cy="411.2377" fill="#84BE84" rx="3" ry="3" style="stroke:#038048;stroke-width:1;"/><text fill="#000000" font-family="sans-serif" font-size="14" lengthAdjust="spacing" text-decoration="underline" textLength="184.0573" x="371.5" y="415.1697">from_ai(str_ai: String) -&gt; Self</text></g><!--class EBridgeEvent--><g class="entity" data-entity="EBridgeEvent" data-source-line="40" data-uid="ent0007" id="entity_EBridgeEvent"><rect fill="#09B620" height="448.4263" rx="2.5" ry="2.5" style="stroke:#181818;stroke-width:0.5;" width="422.5484" x="117" y="483"/><ellipse cx="280.0784" cy="499" fill="#F1F1F1" rx="11" ry="11" style="stroke:#181818;stroke-width:1;"/><path d="M279.5628,499.5625 Q277.7034,498.8594 277.0471,498.0938 Q276.4065,497.3125 276.4065,496 Q276.4065,494.3125 277.4846,493.3438 Q278.5628,492.375 280.4378,492.375 Q281.2971,492.375 282.1409,492.5781 Q283.0003,492.7656 283.844,493.1563 L283.844,495.5469 Q283.0628,494.9844 282.2346,494.7031 Q281.4221,494.4063 280.6253,494.4063 Q279.7503,494.4063 279.2659,494.7656 Q278.7971,495.125 278.7971,495.7813 Q278.7971,496.2969 279.1409,496.6406 Q279.4846,496.9688 280.5784,497.375 L281.6409,497.7813 Q283.1253,498.3281 283.8284,499.2344 Q284.5471,500.1406 284.5471,501.5156 Q284.5471,503.3906 283.4378,504.3125 Q282.3284,505.2344 280.0784,505.2344 Q279.1565,505.2344 278.2346,505.0156 Q277.3128,504.7969 276.4534,504.375 L276.4534,501.8438 Q277.4221,502.5313 278.344,502.875 Q279.2659,503.2188 280.1565,503.2188 Q281.0628,503.2188 281.5628,502.8125 Q282.0628,502.3906 282.0628,501.6563 Q282.0628,501.0938 281.719,500.6875 Q281.3909,500.2656 280.7659,500.0156 L279.5628,499.5625 Z " fill="#000000"/><text fill="#000000" font-family="sans-serif" font-size="14" lengthAdjust="spacing" textLength="87.8916" x="300.5784" y="504.432">EBridgeEvent</text><line style="stroke:#181818;stroke-width:0.5;" x1="118" x2="538.5484" y1="515" y2="515"/><rect fill="none" height="6" style="stroke:#C82930;stroke-width:1;" width="6" x="125" y="527.034"/><text fill="#000000" font-family="sans-serif" font-size="14" lengthAdjust="spacing" textLength="66.0097" x="137" y="533.9659">id: TypeID</text><rect fill="none" height="6" style="stroke:#C82930;stroke-width:1;" width="6" x="125" y="546.1019"/><text fill="#000000" font-family="sans-serif" font-size="14" lengthAdjust="spacing" textLength="61.7117" x="137" y="553.0339">time: u64</text><rect fill="none" height="6" style="stroke:#C82930;stroke-width:1;" width="6" x="125" y="565.1698"/><text fill="#000000" font-family="sans-serif" font-size="14" lengthAdjust="spacing" textLength="92.4556" x="137" y="572.1018">data: Vec&lt;u8&gt;</text><rect fill="none" height="6" style="stroke:#C82930;stroke-width:1;" width="6" x="125" y="584.2377"/><text fill="#000000" font-family="sans-serif" font-size="14" lengthAdjust="spacing" textLength="157.9474" x="137" y="591.1697">e_error: Option&lt;EError&gt;</text><rect fill="none" height="6" style="stroke:#C82930;stroke-width:1;" width="6" x="125" y="603.3056"/><text fill="#000000" font-family="sans-serif" font-size="14" lengthAdjust="spacing" textLength="154.5034" x="137" y="610.2376">enum_bridge_event: u8</text><rect fill="none" height="6" style="stroke:#C82930;stroke-width:1;" width="6" x="125" y="622.3735"/><text fill="#000000" font-family="sans-serif" font-size="14" lengthAdjust="spacing" textLength="115.3456" x="137" y="629.3055">id_bridge: TypeID</text><rect fill="none" height="6" style="stroke:#C82930;stroke-width:1;" width="6" x="125" y="641.4415"/><text fill="#000000" font-family="sans-serif" font-size="14" lengthAdjust="spacing" textLength="151.0454" x="137" y="648.3734">id_bridge_bind: TypeID</text><line style="stroke:#181818;stroke-width:0.5;" x1="118" x2="538.5484" y1="656.4754" y2="656.4754"/><ellipse cx="128" cy="671.5094" fill="#84BE84" rx="3" ry="3" style="stroke:#038048;stroke-width:1;"/><text fill="#000000" font-family="sans-serif" font-size="14" lengthAdjust="spacing" textLength="147.8674" x="137" y="675.4414">get_id(&amp;self) -&gt; TypeID</text><ellipse cx="128" cy="690.5773" fill="#84BE84" rx="3" ry="3" style="stroke:#038048;stroke-width:1;"/><text fill="#000000" font-family="sans-serif" font-size="14" lengthAdjust="spacing" textLength="189.8252" x="137" y="694.5093">set_id(&amp;mut self, _id: TypeID)</text><ellipse cx="128" cy="709.6452" fill="#84BE84" rx="3" ry="3" style="stroke:#038048;stroke-width:1;"/><text fill="#000000" font-family="sans-serif" font-size="14" lengthAdjust="spacing" textLength="143.5694" x="137" y="713.5772">get_time(&amp;self) -&gt; u64</text><ellipse cx="128" cy="728.7131" fill="#84BE84" rx="3" ry="3" style="stroke:#038048;stroke-width:1;"/><text fill="#000000" font-family="sans-serif" font-size="14" lengthAdjust="spacing" textLength="202.9572" x="137" y="732.6451">set_time(&amp;mut self, _time: u64)</text><ellipse cx="128" cy="747.781" fill="#84BE84" rx="3" ry="3" style="stroke:#038048;stroke-width:1;"/><text fill="#000000" font-family="sans-serif" font-size="14" lengthAdjust="spacing" textLength="174.3133" x="137" y="751.713">get_data(&amp;self) -&gt; Vec&lt;u8&gt;</text><ellipse cx="128" cy="766.849" fill="#84BE84" rx="3" ry="3" style="stroke:#038048;stroke-width:1;"/><text fill="#000000" font-family="sans-serif" font-size="14" lengthAdjust="spacing" textLength="233.4211" x="137" y="770.7809">set_data(&amp;mut self, _data: Vec&lt;u8&gt;)</text><ellipse cx="128" cy="785.9169" fill="#84BE84" rx="3" ry="3" style="stroke:#038048;stroke-width:1;"/><text fill="#000000" font-family="sans-serif" font-size="14" lengthAdjust="spacing" textLength="239.8051" x="137" y="789.8489">get_e_error(&amp;self) -&gt; Option&lt;EError&gt;</text><ellipse cx="128" cy="804.9848" fill="#84BE84" rx="3" ry="3" style="stroke:#038048;stroke-width:1;"/><text fill="#000000" font-family="sans-serif" font-size="14" lengthAdjust="spacing" textLength="317.3648" x="137" y="808.9168">set_e_error(&amp;mut self, _e_error: Option&lt;EError&gt;)</text><ellipse cx="128" cy="824.0527" fill="#84BE84" rx="3" ry="3" style="stroke:#038048;stroke-width:1;"/><text fill="#000000" font-family="sans-serif" font-size="14" lengthAdjust="spacing" textLength="236.361" x="137" y="827.9847">get_enum_bridge_event(&amp;self) -&gt; u8</text><ellipse cx="128" cy="843.1206" fill="#84BE84" rx="3" ry="3" style="stroke:#038048;stroke-width:1;"/><text fill="#000000" font-family="sans-serif" font-size="14" lengthAdjust="spacing" textLength="396.5484" x="137" y="847.0526">set_enum_bridge_event(&amp;mut self, _enum_bridge_event: u8)</text><ellipse cx="128" cy="862.1885" fill="#84BE84" rx="3" ry="3" style="stroke:#038048;stroke-width:1;"/><text fill="#000000" font-family="sans-serif" font-size="14" lengthAdjust="spacing" textLength="197.2032" x="137" y="866.1205">get_id_bridge(&amp;self) -&gt; TypeID</text><ellipse cx="128" cy="881.2565" fill="#84BE84" rx="3" ry="3" style="stroke:#038048;stroke-width:1;"/><text fill="#000000" font-family="sans-serif" font-size="14" lengthAdjust="spacing" textLength="288.4969" x="137" y="885.1884">set_id_bridge(&amp;mut self, _id_bridge: TypeID)</text><ellipse cx="128" cy="900.3244" fill="#84BE84" rx="3" ry="3" style="stroke:#038048;stroke-width:1;"/><text fill="#000000" font-family="sans-serif" font-size="14" lengthAdjust="spacing" textLength="232.9031" x="137" y="904.2564">get_id_bridge_bind(&amp;self) -&gt; TypeID</text><ellipse cx="128" cy="919.3923" fill="#84BE84" rx="3" ry="3" style="stroke:#038048;stroke-width:1;"/><text fill="#000000" font-family="sans-serif" font-size="14" lengthAdjust="spacing" textLength="359.8967" x="137" y="923.3243">set_id_bridge_bind(&amp;mut self, _id_bridge_bind: TypeID)</text></g><!--reverse link IEvo to IEntity--><g class="link" data-entity-1="IEvo" data-entity-2="IEntity" data-source-line="68" data-uid="lnk8" id="link_IEvo_IEntity"><path codeLine="68" d="M155.5564,110.4211 C160.3664,128.7611 161.25,133.16 165.5,153 C176.76,205.61 187,266.32 193.65,308.32" fill="none" id="IEvo-backto-IEntity" style="stroke:#09B620;stroke-width:1;"/><polygon fill="none" points="150.99,93.01,149.7527,111.9433,161.3601,108.899,150.99,93.01" style="stroke:#09B620;stroke-width:1;"/></g><!--reverse link ID to IEntity--><g class="link" data-entity-1="ID" data-entity-2="IEntity" data-source-line="69" data-uid="lnk9" id="link_ID_IEntity"><path codeLine="69" d="M120.6556,253.7278 C136.6556,274.7678 145.22,286.03 162.1,308.21" fill="none" id="ID-backto-IEntity" style="stroke:#09B620;stroke-width:1;"/><polygon fill="none" points="109.76,239.4,115.8797,257.3597,125.4316,250.0959,109.76,239.4" style="stroke:#09B620;stroke-width:1;"/></g><!--reverse link ITime to IEntity--><g class="link" data-entity-1="ITime" data-entity-2="IEntity" data-source-line="70" data-uid="lnk10" id="link_ITime_IEntity"><path codeLine="70" d="M299.5964,252.6866 C280.3664,273.7266 269.12,286.03 248.84,308.21" fill="none" id="ITime-backto-IEntity" style="stroke:#09B620;stroke-width:1;"/><polygon fill="none" points="311.74,239.4,295.1676,248.6387,304.0253,256.7344,311.74,239.4" style="stroke:#09B620;stroke-width:1;"/></g><!--reverse link IEntity to EBridgeEvent--><g class="link" data-entity-1="IEntity" data-entity-2="EBridgeEvent" data-source-line="72" data-uid="lnk11" id="link_IEntity_EBridgeEvent"><path codeLine="72" d="M226.7474,430.3847 C234.0174,450.0647 236.61,457.09 246.05,482.67" fill="none" id="IEntity-backto-EBridgeEvent" style="stroke:#09B620;stroke-width:1;"/><polygon fill="none" points="220.51,413.5,221.1192,432.4639,232.3757,428.3056,220.51,413.5" style="stroke:#09B620;stroke-width:1;"/></g><!--reverse link IAiEntity to EBridgeEvent--><g class="link" data-entity-1="IAiEntity" data-entity-2="EBridgeEvent" data-source-line="73" data-uid="lnk12" id="link_IAiEntity_EBridgeEvent"><path codeLine="73" d="M427.4869,439.9715 C420.9169,457.6415 419.6,461.16 411.58,482.73" fill="none" id="IAiEntity-backto-EBridgeEvent" style="stroke:#FFA600;stroke-width:1;"/><polygon fill="none" points="433.76,423.1,421.8631,437.8805,433.1107,442.0626,433.76,423.1" style="stroke:#FFA600;stroke-width:1;"/></g><!--link IEvo to ID--><g class="link" data-entity-1="IEvo" data-entity-2="ID" data-source-line="74" data-uid="lnk13" id="link_IEvo_ID"><line style="stroke:none;stroke-width:1;" x1="95.73" x2="97.7064" y1="152.66" y2="148.0672"/></g><!--SRC=[ZLLTRzem57tthxXJfLBKHaBJL364aCgIIJpj0LHfJv597B0A3h8TAjJrlyzVs4u8R7c0v9xZSw_FlKu6i2GIrhXus_2wOIKKzQxcIBnHTi0Sxs7keHyQ0San4meYJ28qW9HKb16xIa2b20GNMw1C4bxXWg0lfMKiicDj5Uv-cYiWwPNuYkx95IXZaigJ0qVVryzVHoYWBzGXLOMVHmhnvPWoO3fzM3o5YeQp6NmWKDVZXv1Oqk8JoB7EZuGBMhE78IGpM9qEH2rujJ7BtX2P_ulusSgUJZMyI6Vd6j9k1LgJba5gaTgui75QJbnus97MRfrLlNCTOQdYGLgpWhZ1zC_4Wpf5R9qnlRk3g1KwM_piCiiwNvya4JRpAoccpNXceOhNUmUMME89p7-ligNXBSckykk5v9HjhC3It7Ts_q9jtdDLRWHCHUw-ss9j2ARUR2VRon75bkpn9KzLXkcDvMPxYg7ALtyJHmhRKtjGK5D8oEQSbXirEEfSzNYOG6Yy2zXMDS_VtBFrBtOt0P8Jpci-WLy7gOPnccNwqQEiKUQRl6gCLM8bD_Rf7DB9wkFvch9G4e97S9DxBzJEBiONtFpUxni9cl44UJpBRhqPmg1mtfrTRi58m5lWrsiJelMjMJCQbX1fj6ppEiwuIAh7GQlegP7e5T-3VDVvUC_ZMFoI6AVfQ-0mzC9XjrlYIQtETBf_AMhw_r_AZjadtngY8TBdmNzIv9O09pki3HHRUX2m9lAT41O-BW8X-px_aoJdGzCwF6YHtWBjA_CgZivHGscTq8vGUFlqCDthnvQQbFKxKtQfmkxYJ-b01P8TgQJ6J5qj-2y0]--></g></svg>