<svg xmlns="http://www.w3.org/2000/svg" xmlns:xlink="http://www.w3.org/1999/xlink" contentStyleType="text/css" data-diagram-type="CLASS" height="824px" preserveAspectRatio="none" style="width:568px;height:824px;" version="1.1" viewBox="0 0 568 824" width="568px" zoomAndPan="magnify"><defs/><g><!--class IEvo--><g class="entity" data-entity="IEvo" data-source-line="13" data-uid="ent0002" id="entity_IEvo"><rect fill="#F1F1F1" height="86.1358" rx="2.5" ry="2.5" style="stroke:#181818;stroke-width:0.5;" width="264.209" x="7.5" y="7"/><ellipse cx="122.2786" cy="23" fill="#FFFFFF" rx="11" ry="11" style="stroke:#181818;stroke-width:1;"/><path d="M118.2004,18.7656 L118.2004,16.6094 L125.5911,16.6094 L125.5911,18.7656 L123.1223,18.7656 L123.1223,26.8438 L125.5911,26.8438 L125.5911,29 L118.2004,29 L118.2004,26.8438 L120.6692,26.8438 L120.6692,18.7656 L118.2004,18.7656 Z " fill="#000000"/><text fill="#000000" font-family="sans-serif" font-size="14" font-style="italic" lengthAdjust="spacing" textLength="26.1519" x="142.7786" y="28.432">IEvo</text><line style="stroke:#181818;stroke-width:0.5;" x1="8.5" x2="270.709" y1="39" y2="39"/><line style="stroke:#181818;stroke-width:0.5;" x1="8.5" x2="270.709" y1="47" y2="47"/><ellipse cx="18.5" cy="62.034" fill="#84BE84" rx="3" ry="3" style="stroke:#038048;stroke-width:1;"/><text fill="#000000" font-family="sans-serif" font-size="14" lengthAdjust="spacing" text-decoration="underline" textLength="210.4332" x="27.5" y="65.9659">evo_version() -&gt; TypeEvoVersion</text><ellipse cx="18.5" cy="81.1019" fill="#84BE84" rx="3" ry="3" style="stroke:#038048;stroke-width:1;"/><text fill="#000000" font-family="sans-serif" font-size="14" lengthAdjust="spacing" textLength="238.209" x="27.5" y="85.0339">get_evo_version() -&gt; TypeEvoVersion</text></g><!--class ID--><g class="entity" data-entity="ID" data-source-line="18" data-uid="ent0003" id="entity_ID"><rect fill="#F1F1F1" height="86.1358" rx="2.5" ry="2.5" style="stroke:#181818;stroke-width:0.5;" width="140.5895" x="7" y="153"/><ellipse cx="46.4221" cy="169" fill="#FFFFFF" rx="11" ry="11" style="stroke:#181818;stroke-width:1;"/><path d="M42.344,164.7656 L42.344,162.6094 L49.7346,162.6094 L49.7346,164.7656 L47.2659,164.7656 L47.2659,172.8438 L49.7346,172.8438 L49.7346,175 L42.344,175 L42.344,172.8438 L44.8127,172.8438 L44.8127,164.7656 L42.344,164.7656 Z " fill="#000000"/><text fill="#000000" font-family="sans-serif" font-size="14" font-style="italic" lengthAdjust="spacing" textLength="13.8739" x="65.8492" y="174.432">ID</text><rect fill="#FFFFFF" height="18.3441" style="stroke:#181818;stroke-width:1;stroke-dasharray:2.0,2.0;" width="38.4442" x="112.1453" y="150"/><text fill="#000000" font-family="sans-serif" font-size="12" font-style="italic" lengthAdjust="spacing" textLength="36.4442" x="113.1453" y="163.8281">TypeID</text><line style="stroke:#181818;stroke-width:0.5;" x1="8" x2="146.5895" y1="185" y2="185"/><line style="stroke:#181818;stroke-width:0.5;" x1="8" x2="146.5895" y1="193" y2="193"/><ellipse cx="18" cy="208.034" fill="#84BE84" rx="3" ry="3" style="stroke:#038048;stroke-width:1;"/><text fill="#000000" font-family="sans-serif" font-size="14" lengthAdjust="spacing" textLength="114.5895" x="27" y="211.9659">get_id() -&gt; TypeID</text><ellipse cx="18" cy="227.1019" fill="#84BE84" rx="3" ry="3" style="stroke:#038048;stroke-width:1;"/><text fill="#000000" font-family="sans-serif" font-size="14" lengthAdjust="spacing" textLength="112.5036" x="27" y="231.0339">set_id(id: TypeID)</text></g><!--class ITime--><g class="entity" data-entity="ITime" data-source-line="23" data-uid="ent0004" id="entity_ITime"><rect fill="#F1F1F1" height="86.1358" rx="2.5" ry="2.5" style="stroke:#181818;stroke-width:0.5;" width="190.7793" x="255" y="153"/><ellipse cx="328.9407" cy="169" fill="#FFFFFF" rx="11" ry="11" style="stroke:#181818;stroke-width:1;"/><path d="M324.8626,164.7656 L324.8626,162.6094 L332.2532,162.6094 L332.2532,164.7656 L329.7845,164.7656 L329.7845,172.8438 L332.2532,172.8438 L332.2532,175 L324.8626,175 L324.8626,172.8438 L327.3314,172.8438 L327.3314,164.7656 L324.8626,164.7656 Z " fill="#000000"/><text fill="#000000" font-family="sans-serif" font-size="14" font-style="italic" lengthAdjust="spacing" textLength="34.3979" x="349.4407" y="174.432">ITime</text><line style="stroke:#181818;stroke-width:0.5;" x1="256" x2="444.7793" y1="185" y2="185"/><line style="stroke:#181818;stroke-width:0.5;" x1="256" x2="444.7793" y1="193" y2="193"/><ellipse cx="266" cy="208.034" fill="#84BE84" rx="3" ry="3" style="stroke:#038048;stroke-width:1;"/><text fill="#000000" font-family="sans-serif" font-size="14" lengthAdjust="spacing" textLength="149.4354" x="275" y="211.9659">get_time() -&gt; TypeTime</text><ellipse cx="266" cy="227.1019" fill="#84BE84" rx="3" ry="3" style="stroke:#038048;stroke-width:1;"/><text fill="#000000" font-family="sans-serif" font-size="14" lengthAdjust="spacing" textLength="164.7793" x="275" y="231.0339">set_time(time: TypeTime)</text></g><!--class IEntity--><g class="entity" data-entity="IEntity" data-source-line="27" data-uid="ent0005" id="entity_IEntity"><rect fill="#09B620" height="105.2038" rx="2.5" ry="2.5" style="stroke:#181818;stroke-width:0.5;" width="229.0272" x="87" y="308.5"/><ellipse cx="157.3996" cy="324.5" fill="#09B620" rx="11" ry="11" style="stroke:#181818;stroke-width:1;"/><path d="M153.3214,320.2656 L153.3214,318.1094 L160.7121,318.1094 L160.7121,320.2656 L158.2433,320.2656 L158.2433,328.3438 L160.7121,328.3438 L160.7121,330.5 L153.3214,330.5 L153.3214,328.3438 L155.7902,328.3438 L155.7902,320.2656 L153.3214,320.2656 Z " fill="#000000"/><text fill="#000000" font-family="sans-serif" font-size="14" font-style="italic" lengthAdjust="spacing" textLength="39.2838" x="177.8996" y="329.932">IEntity</text><rect fill="#FFFFFF" height="18.3441" style="stroke:#181818;stroke-width:1;stroke-dasharray:2.0,2.0;" width="38.4442" x="280.583" y="305.5"/><text fill="#000000" font-family="sans-serif" font-size="12" font-style="italic" lengthAdjust="spacing" textLength="36.4442" x="281.583" y="319.3281">TypeID</text><line style="stroke:#181818;stroke-width:0.5;" x1="88" x2="315.0272" y1="340.5" y2="340.5"/><line style="stroke:#181818;stroke-width:0.5;" x1="88" x2="315.0272" y1="348.5" y2="348.5"/><ellipse cx="98" cy="363.534" fill="#84BE84" rx="3" ry="3" style="stroke:#038048;stroke-width:1;"/><text fill="#000000" font-family="sans-serif" font-size="14" lengthAdjust="spacing" textLength="139.0334" x="107" y="367.4659">to_bytes() -&gt; Vec&lt;u8&gt;</text><ellipse cx="98" cy="382.6019" fill="#84BE84" rx="3" ry="3" style="stroke:#038048;stroke-width:1;"/><text fill="#000000" font-family="sans-serif" font-size="14" lengthAdjust="spacing" textLength="203.0272" x="107" y="386.5339">from_bytes(data: BYTES) -&gt; Self</text><ellipse cx="98" cy="401.6698" fill="#84BE84" rx="3" ry="3" style="stroke:#038048;stroke-width:1;"/><text fill="#000000" font-family="sans-serif" font-size="14" lengthAdjust="spacing" textLength="125.7475" x="107" y="405.6018">to_string() -&gt; String</text></g><!--class IAiEntity--><g class="entity" data-entity="IAiEntity" data-source-line="33" data-uid="ent0006" id="entity_IAiEntity"><rect fill="#FFA600" height="124.2717" rx="2.5" ry="2.5" style="stroke:#181818;stroke-width:0.5;" width="210.0573" x="351.5" y="299"/><ellipse cx="426.8968" cy="315" fill="#FFA600" rx="11" ry="11" style="stroke:#181818;stroke-width:1;"/><path d="M422.8186,310.7656 L422.8186,308.6094 L430.2093,308.6094 L430.2093,310.7656 L427.7405,310.7656 L427.7405,318.8438 L430.2093,318.8438 L430.2093,321 L422.8186,321 L422.8186,318.8438 L425.2874,318.8438 L425.2874,310.7656 L422.8186,310.7656 Z " fill="#000000"/><text fill="#000000" font-family="sans-serif" font-size="14" font-style="italic" lengthAdjust="spacing" textLength="50.7638" x="447.3968" y="320.432">IAiEntity</text><line style="stroke:#181818;stroke-width:0.5;" x1="352.5" x2="560.5573" y1="331" y2="331"/><line style="stroke:#181818;stroke-width:0.5;" x1="352.5" x2="560.5573" y1="339" y2="339"/><ellipse cx="362.5" cy="354.034" fill="#84BE84" rx="3" ry="3" style="stroke:#038048;stroke-width:1;"/><text fill="#000000" font-family="sans-serif" font-size="14" lengthAdjust="spacing" text-decoration="underline" textLength="125.2715" x="371.5" y="357.9659">get_ai_id() -&gt; String</text><ellipse cx="362.5" cy="373.1019" fill="#84BE84" rx="3" ry="3" style="stroke:#038048;stroke-width:1;"/><text fill="#000000" font-family="sans-serif" font-size="14" lengthAdjust="spacing" text-decoration="underline" textLength="163.9674" x="371.5" y="377.0339">get_ai_schema() -&gt; String</text><ellipse cx="362.5" cy="392.1698" fill="#84BE84" rx="3" ry="3" style="stroke:#038048;stroke-width:1;"/><text fill="#000000" font-family="sans-serif" font-size="14" lengthAdjust="spacing" textLength="98.7976" x="371.5" y="396.1018">to_ai() -&gt; String</text><ellipse cx="362.5" cy="411.2377" fill="#84BE84" rx="3" ry="3" style="stroke:#038048;stroke-width:1;"/><text fill="#000000" font-family="sans-serif" font-size="14" lengthAdjust="spacing" text-decoration="underline" textLength="184.0573" x="371.5" y="415.1697">from_ai(str_ai: String) -&gt; Self</text></g><!--class EPeerSecret--><g class="entity" data-entity="EPeerSecret" data-source-line="40" data-uid="ent0007" id="entity_EPeerSecret"><rect fill="#09B620" height="334.0188" rx="2.5" ry="2.5" style="stroke:#181818;stroke-width:0.5;" width="407.0085" x="125" y="483"/><ellipse cx="284.8234" cy="499" fill="#F1F1F1" rx="11" ry="11" style="stroke:#181818;stroke-width:1;"/><path d="M284.3078,499.5625 Q282.4484,498.8594 281.7921,498.0938 Q281.1515,497.3125 281.1515,496 Q281.1515,494.3125 282.2296,493.3438 Q283.3078,492.375 285.1828,492.375 Q286.0421,492.375 286.8859,492.5781 Q287.7453,492.7656 288.589,493.1563 L288.589,495.5469 Q287.8078,494.9844 286.9796,494.7031 Q286.1671,494.4063 285.3703,494.4063 Q284.4953,494.4063 284.0109,494.7656 Q283.5421,495.125 283.5421,495.7813 Q283.5421,496.2969 283.8859,496.6406 Q284.2296,496.9688 285.3234,497.375 L286.3859,497.7813 Q287.8703,498.3281 288.5734,499.2344 Q289.2921,500.1406 289.2921,501.5156 Q289.2921,503.3906 288.1828,504.3125 Q287.0734,505.2344 284.8234,505.2344 Q283.9015,505.2344 282.9796,505.0156 Q282.0578,504.7969 281.1984,504.375 L281.1984,501.8438 Q282.1671,502.5313 283.089,502.875 Q284.0109,503.2188 284.9015,503.2188 Q285.8078,503.2188 286.3078,502.8125 Q286.8078,502.3906 286.8078,501.6563 Q286.8078,501.0938 286.464,500.6875 Q286.1359,500.2656 285.5109,500.0156 L284.3078,499.5625 Z " fill="#000000"/><text fill="#000000" font-family="sans-serif" font-size="14" lengthAdjust="spacing" textLength="78.8617" x="305.3234" y="504.432">EPeerSecret</text><line style="stroke:#181818;stroke-width:0.5;" x1="126" x2="531.0085" y1="515" y2="515"/><rect fill="none" height="6" style="stroke:#C82930;stroke-width:1;" width="6" x="133" y="527.034"/><text fill="#000000" font-family="sans-serif" font-size="14" lengthAdjust="spacing" textLength="66.0097" x="145" y="533.9659">id: TypeID</text><rect fill="none" height="6" style="stroke:#C82930;stroke-width:1;" width="6" x="133" y="546.1019"/><text fill="#000000" font-family="sans-serif" font-size="14" lengthAdjust="spacing" textLength="61.7117" x="145" y="553.0339">time: u64</text><rect fill="none" height="6" style="stroke:#C82930;stroke-width:1;" width="6" x="133" y="565.1698"/><text fill="#000000" font-family="sans-serif" font-size="14" lengthAdjust="spacing" textLength="146.7334" x="145" y="572.1018">enum_peer_crypto: u8</text><rect fill="none" height="6" style="stroke:#C82930;stroke-width:1;" width="6" x="133" y="584.2377"/><text fill="#000000" font-family="sans-serif" font-size="14" lengthAdjust="spacing" textLength="77.2657" x="145" y="591.1697">sk: Vec&lt;u8&gt;</text><rect fill="none" height="6" style="stroke:#C82930;stroke-width:1;" width="6" x="133" y="603.3056"/><text fill="#000000" font-family="sans-serif" font-size="14" lengthAdjust="spacing" textLength="111.0615" x="145" y="610.2376">sk_sign: Vec&lt;u8&gt;</text><line style="stroke:#181818;stroke-width:0.5;" x1="126" x2="531.0085" y1="618.3396" y2="618.3396"/><ellipse cx="136" cy="633.3735" fill="#84BE84" rx="3" ry="3" style="stroke:#038048;stroke-width:1;"/><text fill="#000000" font-family="sans-serif" font-size="14" lengthAdjust="spacing" textLength="147.8674" x="145" y="637.3055">get_id(&amp;self) -&gt; TypeID</text><ellipse cx="136" cy="652.4415" fill="#84BE84" rx="3" ry="3" style="stroke:#038048;stroke-width:1;"/><text fill="#000000" font-family="sans-serif" font-size="14" lengthAdjust="spacing" textLength="189.8252" x="145" y="656.3734">set_id(&amp;mut self, _id: TypeID)</text><ellipse cx="136" cy="671.5094" fill="#84BE84" rx="3" ry="3" style="stroke:#038048;stroke-width:1;"/><text fill="#000000" font-family="sans-serif" font-size="14" lengthAdjust="spacing" textLength="143.5694" x="145" y="675.4414">get_time(&amp;self) -&gt; u64</text><ellipse cx="136" cy="690.5773" fill="#84BE84" rx="3" ry="3" style="stroke:#038048;stroke-width:1;"/><text fill="#000000" font-family="sans-serif" font-size="14" lengthAdjust="spacing" textLength="202.9572" x="145" y="694.5093">set_time(&amp;mut self, _time: u64)</text><ellipse cx="136" cy="709.6452" fill="#84BE84" rx="3" ry="3" style="stroke:#038048;stroke-width:1;"/><text fill="#000000" font-family="sans-serif" font-size="14" lengthAdjust="spacing" textLength="228.5911" x="145" y="713.5772">get_enum_peer_crypto(&amp;self) -&gt; u8</text><ellipse cx="136" cy="728.7131" fill="#84BE84" rx="3" ry="3" style="stroke:#038048;stroke-width:1;"/><text fill="#000000" font-family="sans-serif" font-size="14" lengthAdjust="spacing" textLength="381.0085" x="145" y="732.6451">set_enum_peer_crypto(&amp;mut self, _enum_peer_crypto: u8)</text><ellipse cx="136" cy="747.781" fill="#84BE84" rx="3" ry="3" style="stroke:#038048;stroke-width:1;"/><text fill="#000000" font-family="sans-serif" font-size="14" lengthAdjust="spacing" textLength="159.1233" x="145" y="751.713">get_sk(&amp;self) -&gt; Vec&lt;u8&gt;</text><ellipse cx="136" cy="766.849" fill="#84BE84" rx="3" ry="3" style="stroke:#038048;stroke-width:1;"/><text fill="#000000" font-family="sans-serif" font-size="14" lengthAdjust="spacing" textLength="203.0412" x="145" y="770.7809">set_sk(&amp;mut self, _sk: Vec&lt;u8&gt;)</text><ellipse cx="136" cy="785.9169" fill="#84BE84" rx="3" ry="3" style="stroke:#038048;stroke-width:1;"/><text fill="#000000" font-family="sans-serif" font-size="14" lengthAdjust="spacing" textLength="192.9192" x="145" y="789.8489">get_sk_sign(&amp;self) -&gt; Vec&lt;u8&gt;</text><ellipse cx="136" cy="804.9848" fill="#84BE84" rx="3" ry="3" style="stroke:#038048;stroke-width:1;"/><text fill="#000000" font-family="sans-serif" font-size="14" lengthAdjust="spacing" textLength="270.6329" x="145" y="808.9168">set_sk_sign(&amp;mut self, _sk_sign: Vec&lt;u8&gt;)</text></g><!--reverse link IEvo to IEntity--><g class="link" data-entity-1="IEvo" data-entity-2="IEntity" data-source-line="62" data-uid="lnk8" id="link_IEvo_IEntity"><path codeLine="62" d="M155.5564,110.4211 C160.3664,128.7611 161.25,133.16 165.5,153 C176.76,205.61 187,266.32 193.65,308.32" fill="none" id="IEvo-backto-IEntity" style="stroke:#09B620;stroke-width:1;"/><polygon fill="none" points="150.99,93.01,149.7527,111.9433,161.3601,108.899,150.99,93.01" style="stroke:#09B620;stroke-width:1;"/></g><!--reverse link ID to IEntity--><g class="link" data-entity-1="ID" data-entity-2="IEntity" data-source-line="63" data-uid="lnk9" id="link_ID_IEntity"><path codeLine="63" d="M120.6556,253.7278 C136.6556,274.7678 145.22,286.03 162.1,308.21" fill="none" id="ID-backto-IEntity" style="stroke:#09B620;stroke-width:1;"/><polygon fill="none" points="109.76,239.4,115.8797,257.3597,125.4316,250.0959,109.76,239.4" style="stroke:#09B620;stroke-width:1;"/></g><!--reverse link ITime to IEntity--><g class="link" data-entity-1="ITime" data-entity-2="IEntity" data-source-line="64" data-uid="lnk10" id="link_ITime_IEntity"><path codeLine="64" d="M299.5964,252.6866 C280.3664,273.7266 269.12,286.03 248.84,308.21" fill="none" id="ITime-backto-IEntity" style="stroke:#09B620;stroke-width:1;"/><polygon fill="none" points="311.74,239.4,295.1676,248.6387,304.0253,256.7344,311.74,239.4" style="stroke:#09B620;stroke-width:1;"/></g><!--reverse link IEntity to EPeerSecret--><g class="link" data-entity-1="IEntity" data-entity-2="EPeerSecret" data-source-line="66" data-uid="lnk11" id="link_IEntity_EPeerSecret"><path codeLine="66" d="M231.6376,430.0988 C240.4976,450.1088 243.88,457.78 254.98,482.85" fill="none" id="IEntity-backto-EPeerSecret" style="stroke:#09B620;stroke-width:1;"/><polygon fill="none" points="224.35,413.64,226.1513,432.528,237.1238,427.6696,224.35,413.64" style="stroke:#09B620;stroke-width:1;"/></g><!--reverse link IAiEntity to EPeerSecret--><g class="link" data-entity-1="IAiEntity" data-entity-2="EPeerSecret" data-source-line="67" data-uid="lnk12" id="link_IAiEntity_EPeerSecret"><path codeLine="67" d="M421.8615,439.6561 C413.8515,457.5961 412.04,461.7 402.57,482.91" fill="none" id="IAiEntity-backto-EPeerSecret" style="stroke:#FFA600;stroke-width:1;"/><polygon fill="none" points="429.2,423.22,416.3828,437.2099,427.3402,442.1023,429.2,423.22" style="stroke:#FFA600;stroke-width:1;"/></g><!--link IEvo to ID--><g class="link" data-entity-1="IEvo" data-entity-2="ID" data-source-line="68" data-uid="lnk13" id="link_IEvo_ID"><line style="stroke:none;stroke-width:1;" x1="95.73" x2="97.7064" y1="152.66" y2="148.0672"/></g><!--SRC=[XLLTQ-Cm47pNhzYZq3IqXd0S9HT2e3td86y72OLxCegpJaHYEKXoIkZrlv- -RCbEq_eXiNT6ixEhjJo09IfOqto_5LNDDv1NXqeGkMVyI0KjuRc5VXa4bA1SQWYv8cG0AHQCeribeT04fFaE65Se2feZ-RPnZCNyL3c5cz_s2aXw9RvY9Lw1vbmnTVRWwEVwyVk81FI9UQGewED88wqTQmEcqxl5Gt0qdCtWZO2-xj-aeehbxu2dAZkXaApYTqD8Ph0w7r4lU74nnzwYohuYldUofrC3Bz9Puo7jEp2QR1Ea5gcBInTdcuaF3tlIfbkDQjkvdh3IyI1jM47SOkPdqe8cHTmws_H-1T5Mc6pniy-igcnzLYXTvXVCf_Luvg12LAK7DrJH2Jp_NSsNbhV4Gz6kbqemldK2ItlVg_w9kRoDApy2rf6_xs-nQGXbRREzx8SScU-mf9SyxOooJvRRyZH3szT_4qyAvUaQD5Jd2kP_4CKISw7VniiM9X3stGVSJjMFF_mpyhhCZbeaoyNvg2gDZJqazvDErqqaaspBGvZ0FVZ9kvNQsSNuWP-_sx9MO1WFaCMpwDVR8GeAZJstt86HG5j3kxvVHQmrZgGkUP7iHwreCyXzfDcPHIjiu4WgQbsaO9ltXOpdTBIwJHyIi__j4Qfs208FUd0gBdViA66DwXMHXyDK4kBEhtz9qan9Prh88lqCT4V4LPmqKKk99xAd4rwsIw9_sPpHP5EzSjqWRUic_d0CT20vOA4CPbrruFy0]--></g></svg>