<svg xmlns="http://www.w3.org/2000/svg" xmlns:xlink="http://www.w3.org/1999/xlink" contentStyleType="text/css" data-diagram-type="CLASS" height="709px" preserveAspectRatio="none" style="width:568px;height:709px;" version="1.1" viewBox="0 0 568 709" width="568px" zoomAndPan="magnify"><defs/><g><!--class IEvo--><g class="entity" data-entity="IEvo" data-source-line="13" data-uid="ent0002" id="entity_IEvo"><rect fill="#F1F1F1" height="86.1358" rx="2.5" ry="2.5" style="stroke:#181818;stroke-width:0.5;" width="264.209" x="7.5" y="7"/><ellipse cx="122.2786" cy="23" fill="#FFFFFF" rx="11" ry="11" style="stroke:#181818;stroke-width:1;"/><path d="M118.2004,18.7656 L118.2004,16.6094 L125.5911,16.6094 L125.5911,18.7656 L123.1223,18.7656 L123.1223,26.8438 L125.5911,26.8438 L125.5911,29 L118.2004,29 L118.2004,26.8438 L120.6692,26.8438 L120.6692,18.7656 L118.2004,18.7656 Z " fill="#000000"/><text fill="#000000" font-family="sans-serif" font-size="14" font-style="italic" lengthAdjust="spacing" textLength="26.1519" x="142.7786" y="28.432">IEvo</text><line style="stroke:#181818;stroke-width:0.5;" x1="8.5" x2="270.709" y1="39" y2="39"/><line style="stroke:#181818;stroke-width:0.5;" x1="8.5" x2="270.709" y1="47" y2="47"/><ellipse cx="18.5" cy="62.034" fill="#84BE84" rx="3" ry="3" style="stroke:#038048;stroke-width:1;"/><text fill="#000000" font-family="sans-serif" font-size="14" lengthAdjust="spacing" text-decoration="underline" textLength="210.4332" x="27.5" y="65.9659">evo_version() -&gt; TypeEvoVersion</text><ellipse cx="18.5" cy="81.1019" fill="#84BE84" rx="3" ry="3" style="stroke:#038048;stroke-width:1;"/><text fill="#000000" font-family="sans-serif" font-size="14" lengthAdjust="spacing" textLength="238.209" x="27.5" y="85.0339">get_evo_version() -&gt; TypeEvoVersion</text></g><!--class ID--><g class="entity" data-entity="ID" data-source-line="18" data-uid="ent0003" id="entity_ID"><rect fill="#F1F1F1" height="86.1358" rx="2.5" ry="2.5" style="stroke:#181818;stroke-width:0.5;" width="140.5895" x="7" y="153"/><ellipse cx="46.4221" cy="169" fill="#FFFFFF" rx="11" ry="11" style="stroke:#181818;stroke-width:1;"/><path d="M42.344,164.7656 L42.344,162.6094 L49.7346,162.6094 L49.7346,164.7656 L47.2659,164.7656 L47.2659,172.8438 L49.7346,172.8438 L49.7346,175 L42.344,175 L42.344,172.8438 L44.8127,172.8438 L44.8127,164.7656 L42.344,164.7656 Z " fill="#000000"/><text fill="#000000" font-family="sans-serif" font-size="14" font-style="italic" lengthAdjust="spacing" textLength="13.8739" x="65.8492" y="174.432">ID</text><rect fill="#FFFFFF" height="18.3441" style="stroke:#181818;stroke-width:1;stroke-dasharray:2.0,2.0;" width="38.4442" x="112.1453" y="150"/><text fill="#000000" font-family="sans-serif" font-size="12" font-style="italic" lengthAdjust="spacing" textLength="36.4442" x="113.1453" y="163.8281">TypeID</text><line style="stroke:#181818;stroke-width:0.5;" x1="8" x2="146.5895" y1="185" y2="185"/><line style="stroke:#181818;stroke-width:0.5;" x1="8" x2="146.5895" y1="193" y2="193"/><ellipse cx="18" cy="208.034" fill="#84BE84" rx="3" ry="3" style="stroke:#038048;stroke-width:1;"/><text fill="#000000" font-family="sans-serif" font-size="14" lengthAdjust="spacing" textLength="114.5895" x="27" y="211.9659">get_id() -&gt; TypeID</text><ellipse cx="18" cy="227.1019" fill="#84BE84" rx="3" ry="3" style="stroke:#038048;stroke-width:1;"/><text fill="#000000" font-family="sans-serif" font-size="14" lengthAdjust="spacing" textLength="112.5036" x="27" y="231.0339">set_id(id: TypeID)</text></g><!--class ITime--><g class="entity" data-entity="ITime" data-source-line="23" data-uid="ent0004" id="entity_ITime"><rect fill="#F1F1F1" height="86.1358" rx="2.5" ry="2.5" style="stroke:#181818;stroke-width:0.5;" width="190.7793" x="255" y="153"/><ellipse cx="328.9407" cy="169" fill="#FFFFFF" rx="11" ry="11" style="stroke:#181818;stroke-width:1;"/><path d="M324.8626,164.7656 L324.8626,162.6094 L332.2532,162.6094 L332.2532,164.7656 L329.7845,164.7656 L329.7845,172.8438 L332.2532,172.8438 L332.2532,175 L324.8626,175 L324.8626,172.8438 L327.3314,172.8438 L327.3314,164.7656 L324.8626,164.7656 Z " fill="#000000"/><text fill="#000000" font-family="sans-serif" font-size="14" font-style="italic" lengthAdjust="spacing" textLength="34.3979" x="349.4407" y="174.432">ITime</text><line style="stroke:#181818;stroke-width:0.5;" x1="256" x2="444.7793" y1="185" y2="185"/><line style="stroke:#181818;stroke-width:0.5;" x1="256" x2="444.7793" y1="193" y2="193"/><ellipse cx="266" cy="208.034" fill="#84BE84" rx="3" ry="3" style="stroke:#038048;stroke-width:1;"/><text fill="#000000" font-family="sans-serif" font-size="14" lengthAdjust="spacing" textLength="149.4354" x="275" y="211.9659">get_time() -&gt; TypeTime</text><ellipse cx="266" cy="227.1019" fill="#84BE84" rx="3" ry="3" style="stroke:#038048;stroke-width:1;"/><text fill="#000000" font-family="sans-serif" font-size="14" lengthAdjust="spacing" textLength="164.7793" x="275" y="231.0339">set_time(time: TypeTime)</text></g><!--class IEntity--><g class="entity" data-entity="IEntity" data-source-line="27" data-uid="ent0005" id="entity_IEntity"><rect fill="#09B620" height="105.2038" rx="2.5" ry="2.5" style="stroke:#181818;stroke-width:0.5;" width="229.0272" x="87" y="308.5"/><ellipse cx="157.3996" cy="324.5" fill="#09B620" rx="11" ry="11" style="stroke:#181818;stroke-width:1;"/><path d="M153.3214,320.2656 L153.3214,318.1094 L160.7121,318.1094 L160.7121,320.2656 L158.2433,320.2656 L158.2433,328.3438 L160.7121,328.3438 L160.7121,330.5 L153.3214,330.5 L153.3214,328.3438 L155.7902,328.3438 L155.7902,320.2656 L153.3214,320.2656 Z " fill="#000000"/><text fill="#000000" font-family="sans-serif" font-size="14" font-style="italic" lengthAdjust="spacing" textLength="39.2838" x="177.8996" y="329.932">IEntity</text><rect fill="#FFFFFF" height="18.3441" style="stroke:#181818;stroke-width:1;stroke-dasharray:2.0,2.0;" width="38.4442" x="280.583" y="305.5"/><text fill="#000000" font-family="sans-serif" font-size="12" font-style="italic" lengthAdjust="spacing" textLength="36.4442" x="281.583" y="319.3281">TypeID</text><line style="stroke:#181818;stroke-width:0.5;" x1="88" x2="315.0272" y1="340.5" y2="340.5"/><line style="stroke:#181818;stroke-width:0.5;" x1="88" x2="315.0272" y1="348.5" y2="348.5"/><ellipse cx="98" cy="363.534" fill="#84BE84" rx="3" ry="3" style="stroke:#038048;stroke-width:1;"/><text fill="#000000" font-family="sans-serif" font-size="14" lengthAdjust="spacing" textLength="139.0334" x="107" y="367.4659">to_bytes() -&gt; Vec&lt;u8&gt;</text><ellipse cx="98" cy="382.6019" fill="#84BE84" rx="3" ry="3" style="stroke:#038048;stroke-width:1;"/><text fill="#000000" font-family="sans-serif" font-size="14" lengthAdjust="spacing" textLength="203.0272" x="107" y="386.5339">from_bytes(data: BYTES) -&gt; Self</text><ellipse cx="98" cy="401.6698" fill="#84BE84" rx="3" ry="3" style="stroke:#038048;stroke-width:1;"/><text fill="#000000" font-family="sans-serif" font-size="14" lengthAdjust="spacing" textLength="125.7475" x="107" y="405.6018">to_string() -&gt; String</text></g><!--class IAiEntity--><g class="entity" data-entity="IAiEntity" data-source-line="33" data-uid="ent0006" id="entity_IAiEntity"><rect fill="#FFA600" height="124.2717" rx="2.5" ry="2.5" style="stroke:#181818;stroke-width:0.5;" width="210.0573" x="351.5" y="299"/><ellipse cx="426.8968" cy="315" fill="#FFA600" rx="11" ry="11" style="stroke:#181818;stroke-width:1;"/><path d="M422.8186,310.7656 L422.8186,308.6094 L430.2093,308.6094 L430.2093,310.7656 L427.7405,310.7656 L427.7405,318.8438 L430.2093,318.8438 L430.2093,321 L422.8186,321 L422.8186,318.8438 L425.2874,318.8438 L425.2874,310.7656 L422.8186,310.7656 Z " fill="#000000"/><text fill="#000000" font-family="sans-serif" font-size="14" font-style="italic" lengthAdjust="spacing" textLength="50.7638" x="447.3968" y="320.432">IAiEntity</text><line style="stroke:#181818;stroke-width:0.5;" x1="352.5" x2="560.5573" y1="331" y2="331"/><line style="stroke:#181818;stroke-width:0.5;" x1="352.5" x2="560.5573" y1="339" y2="339"/><ellipse cx="362.5" cy="354.034" fill="#84BE84" rx="3" ry="3" style="stroke:#038048;stroke-width:1;"/><text fill="#000000" font-family="sans-serif" font-size="14" lengthAdjust="spacing" text-decoration="underline" textLength="125.2715" x="371.5" y="357.9659">get_ai_id() -&gt; String</text><ellipse cx="362.5" cy="373.1019" fill="#84BE84" rx="3" ry="3" style="stroke:#038048;stroke-width:1;"/><text fill="#000000" font-family="sans-serif" font-size="14" lengthAdjust="spacing" text-decoration="underline" textLength="163.9674" x="371.5" y="377.0339">get_ai_schema() -&gt; String</text><ellipse cx="362.5" cy="392.1698" fill="#84BE84" rx="3" ry="3" style="stroke:#038048;stroke-width:1;"/><text fill="#000000" font-family="sans-serif" font-size="14" lengthAdjust="spacing" textLength="98.7976" x="371.5" y="396.1018">to_ai() -&gt; String</text><ellipse cx="362.5" cy="411.2377" fill="#84BE84" rx="3" ry="3" style="stroke:#038048;stroke-width:1;"/><text fill="#000000" font-family="sans-serif" font-size="14" lengthAdjust="spacing" text-decoration="underline" textLength="184.0573" x="371.5" y="415.1697">from_ai(str_ai: String) -&gt; Self</text></g><!--class EPeerPublicQuery--><g class="entity" data-entity="EPeerPublicQuery" data-source-line="40" data-uid="ent0007" id="entity_EPeerPublicQuery"><rect fill="#09B620" height="219.6113" rx="2.5" ry="2.5" style="stroke:#181818;stroke-width:0.5;" width="408.9126" x="124" y="483"/><ellipse cx="265.2525" cy="499" fill="#F1F1F1" rx="11" ry="11" style="stroke:#181818;stroke-width:1;"/><path d="M264.7369,499.5625 Q262.8775,498.8594 262.2213,498.0938 Q261.5806,497.3125 261.5806,496 Q261.5806,494.3125 262.6588,493.3438 Q263.7369,492.375 265.6119,492.375 Q266.4713,492.375 267.315,492.5781 Q268.1744,492.7656 269.0181,493.1563 L269.0181,495.5469 Q268.2369,494.9844 267.4088,494.7031 Q266.5963,494.4063 265.7994,494.4063 Q264.9244,494.4063 264.44,494.7656 Q263.9713,495.125 263.9713,495.7813 Q263.9713,496.2969 264.315,496.6406 Q264.6588,496.9688 265.7525,497.375 L266.815,497.7813 Q268.2994,498.3281 269.0025,499.2344 Q269.7213,500.1406 269.7213,501.5156 Q269.7213,503.3906 268.6119,504.3125 Q267.5025,505.2344 265.2525,505.2344 Q264.3306,505.2344 263.4088,505.0156 Q262.4869,504.7969 261.6275,504.375 L261.6275,501.8438 Q262.5963,502.5313 263.5181,502.875 Q264.44,503.2188 265.3306,503.2188 Q266.2369,503.2188 266.7369,502.8125 Q267.2369,502.3906 267.2369,501.6563 Q267.2369,501.0938 266.8931,500.6875 Q266.565,500.2656 265.94,500.0156 L264.7369,499.5625 Z " fill="#000000"/><text fill="#000000" font-family="sans-serif" font-size="14" lengthAdjust="spacing" textLength="117.9075" x="285.7525" y="504.432">EPeerPublicQuery</text><line style="stroke:#181818;stroke-width:0.5;" x1="125" x2="531.9126" y1="515" y2="515"/><rect fill="none" height="6" style="stroke:#C82930;stroke-width:1;" width="6" x="132" y="527.034"/><text fill="#000000" font-family="sans-serif" font-size="14" lengthAdjust="spacing" textLength="66.0097" x="144" y="533.9659">id: TypeID</text><rect fill="none" height="6" style="stroke:#C82930;stroke-width:1;" width="6" x="132" y="546.1019"/><text fill="#000000" font-family="sans-serif" font-size="14" lengthAdjust="spacing" textLength="61.7117" x="144" y="553.0339">time: u64</text><rect fill="none" height="6" style="stroke:#C82930;stroke-width:1;" width="6" x="132" y="565.1698"/><text fill="#000000" font-family="sans-serif" font-size="14" lengthAdjust="spacing" textLength="162.5533" x="144" y="572.1018">id_e_peer_public: TypeID</text><line style="stroke:#181818;stroke-width:0.5;" x1="125" x2="531.9126" y1="580.2038" y2="580.2038"/><ellipse cx="135" cy="595.2377" fill="#84BE84" rx="3" ry="3" style="stroke:#038048;stroke-width:1;"/><text fill="#000000" font-family="sans-serif" font-size="14" lengthAdjust="spacing" textLength="147.8674" x="144" y="599.1697">get_id(&amp;self) -&gt; TypeID</text><ellipse cx="135" cy="614.3056" fill="#84BE84" rx="3" ry="3" style="stroke:#038048;stroke-width:1;"/><text fill="#000000" font-family="sans-serif" font-size="14" lengthAdjust="spacing" textLength="189.8252" x="144" y="618.2376">set_id(&amp;mut self, _id: TypeID)</text><ellipse cx="135" cy="633.3735" fill="#84BE84" rx="3" ry="3" style="stroke:#038048;stroke-width:1;"/><text fill="#000000" font-family="sans-serif" font-size="14" lengthAdjust="spacing" textLength="143.5694" x="144" y="637.3055">get_time(&amp;self) -&gt; u64</text><ellipse cx="135" cy="652.4415" fill="#84BE84" rx="3" ry="3" style="stroke:#038048;stroke-width:1;"/><text fill="#000000" font-family="sans-serif" font-size="14" lengthAdjust="spacing" textLength="202.9572" x="144" y="656.3734">set_time(&amp;mut self, _time: u64)</text><ellipse cx="135" cy="671.5094" fill="#84BE84" rx="3" ry="3" style="stroke:#038048;stroke-width:1;"/><text fill="#000000" font-family="sans-serif" font-size="14" lengthAdjust="spacing" textLength="244.411" x="144" y="675.4414">get_id_e_peer_public(&amp;self) -&gt; TypeID</text><ellipse cx="135" cy="690.5773" fill="#84BE84" rx="3" ry="3" style="stroke:#038048;stroke-width:1;"/><text fill="#000000" font-family="sans-serif" font-size="14" lengthAdjust="spacing" textLength="382.9126" x="144" y="694.5093">set_id_e_peer_public(&amp;mut self, _id_e_peer_public: TypeID)</text></g><!--reverse link IEvo to IEntity--><g class="link" data-entity-1="IEvo" data-entity-2="IEntity" data-source-line="56" data-uid="lnk8" id="link_IEvo_IEntity"><path codeLine="56" d="M155.5564,110.4211 C160.3664,128.7611 161.25,133.16 165.5,153 C176.76,205.61 187,266.32 193.65,308.32" fill="none" id="IEvo-backto-IEntity" style="stroke:#09B620;stroke-width:1;"/><polygon fill="none" points="150.99,93.01,149.7527,111.9433,161.3601,108.899,150.99,93.01" style="stroke:#09B620;stroke-width:1;"/></g><!--reverse link ID to IEntity--><g class="link" data-entity-1="ID" data-entity-2="IEntity" data-source-line="57" data-uid="lnk9" id="link_ID_IEntity"><path codeLine="57" d="M120.6556,253.7278 C136.6556,274.7678 145.22,286.03 162.1,308.21" fill="none" id="ID-backto-IEntity" style="stroke:#09B620;stroke-width:1;"/><polygon fill="none" points="109.76,239.4,115.8797,257.3597,125.4316,250.0959,109.76,239.4" style="stroke:#09B620;stroke-width:1;"/></g><!--reverse link ITime to IEntity--><g class="link" data-entity-1="ITime" data-entity-2="IEntity" data-source-line="58" data-uid="lnk10" id="link_ITime_IEntity"><path codeLine="58" d="M299.5964,252.6866 C280.3664,273.7266 269.12,286.03 248.84,308.21" fill="none" id="ITime-backto-IEntity" style="stroke:#09B620;stroke-width:1;"/><polygon fill="none" points="311.74,239.4,295.1676,248.6387,304.0253,256.7344,311.74,239.4" style="stroke:#09B620;stroke-width:1;"/></g><!--reverse link IEntity to EPeerPublicQuery--><g class="link" data-entity-1="IEntity" data-entity-2="EPeerPublicQuery" data-source-line="60" data-uid="lnk11" id="link_IEntity_EPeerPublicQuery"><path codeLine="60" d="M238.7031,429.3761 C250.0431,449.9061 254.84,458.59 268.15,482.71" fill="none" id="IEntity-backto-EPeerPublicQuery" style="stroke:#09B620;stroke-width:1;"/><polygon fill="none" points="230,413.62,233.4511,432.2772,243.9551,426.4751,230,413.62" style="stroke:#09B620;stroke-width:1;"/></g><!--reverse link IAiEntity to EPeerPublicQuery--><g class="link" data-entity-1="IAiEntity" data-entity-2="EPeerPublicQuery" data-source-line="61" data-uid="lnk12" id="link_IAiEntity_EPeerPublicQuery"><path codeLine="61" d="M413.779,438.7596 C403.559,457.1296 400.77,462.14 389.36,482.64" fill="none" id="IAiEntity-backto-EPeerPublicQuery" style="stroke:#FFA600;stroke-width:1;"/><polygon fill="none" points="422.53,423.03,408.5358,435.8426,419.0222,441.6766,422.53,423.03" style="stroke:#FFA600;stroke-width:1;"/></g><!--link IEvo to ID--><g class="link" data-entity-1="IEvo" data-entity-2="ID" data-source-line="62" data-uid="lnk13" id="link_IEvo_ID"><line style="stroke:none;stroke-width:1;" x1="95.73" x2="97.7064" y1="152.66" y2="148.0672"/></g><!--SRC=[XLJRQkCm47tNLynIQ1fQGrYMi1j2eArJo5kNXC8-6SKU9wAs72Gv9NJxxwkRBSUvh1yIPywPCsT64mrWYGhMD7tVYAhc6QHLKGaYtndVKK5BU6gXPuE04fHB3I5NX0mWnfnnT5aISar0ccw1SOKYfocIRvbZBERxoYdSlDWd8F65-8gLU06QSyNKmOEZN-lnzn49w2FpI9xJyKWZhHrh0wRJkyL3S3ISpU2JW7xkFwMYYgLVWFigsQEGhE9tGuXci3hiK2UykPXZRr0b_oD-7LMFfmPUnBF6GzntO3HP5gGMiOjB5sVPn8U7FMaphKQrdLnFMEbua3Qi86unyp5fGLEYEpexz7u7dQCmrRg_VMLL9Uk3Gkagls4whN_E79IBglHWHXMTmDEVrNnfUKiiyZPVAi7unWaixNkl-qVcwZQk_0fOH_wzVyHc89Irm_QoPpaotM99JtdQ6MLNqcrxcg7jww-99uNsT0yQgbC5yrT4yLgl2vR-hb4SpimnWd3uFk2Egnx_Q0a99ZkjbEoiL4idS0z-iswbhdooNk3twxQi5HZ60oJTNVFvTac2GbFPfJkm8z3Q6uRwnmQlk-bpZxoTxtH8p53RUqbj4GGM-ZGgBhTi9s6DwWEHXnjA4k8kXRzHr4pzQFfa4Ly3tV_k8awQgAMS77DFBApn1RRVPMSvogeFhaUd3Tvqx-M13aG5vifWrjyH_0y0]--></g></svg>