<svg xmlns="http://www.w3.org/2000/svg" xmlns:xlink="http://www.w3.org/1999/xlink" contentStyleType="text/css" data-diagram-type="CLASS" height="995px" preserveAspectRatio="none" style="width:585px;height:995px;" version="1.1" viewBox="0 0 585 995" width="585px" zoomAndPan="magnify"><defs/><g><!--class IEvo--><g class="entity" data-entity="IEvo" data-source-line="13" data-uid="ent0002" id="entity_IEvo"><rect fill="#F1F1F1" height="86.1358" rx="2.5" ry="2.5" style="stroke:#181818;stroke-width:0.5;" width="264.209" x="7.5" y="7"/><ellipse cx="122.2786" cy="23" fill="#FFFFFF" rx="11" ry="11" style="stroke:#181818;stroke-width:1;"/><path d="M118.2004,18.7656 L118.2004,16.6094 L125.5911,16.6094 L125.5911,18.7656 L123.1223,18.7656 L123.1223,26.8438 L125.5911,26.8438 L125.5911,29 L118.2004,29 L118.2004,26.8438 L120.6692,26.8438 L120.6692,18.7656 L118.2004,18.7656 Z " fill="#000000"/><text fill="#000000" font-family="sans-serif" font-size="14" font-style="italic" lengthAdjust="spacing" textLength="26.1519" x="142.7786" y="28.432">IEvo</text><line style="stroke:#181818;stroke-width:0.5;" x1="8.5" x2="270.709" y1="39" y2="39"/><line style="stroke:#181818;stroke-width:0.5;" x1="8.5" x2="270.709" y1="47" y2="47"/><ellipse cx="18.5" cy="62.034" fill="#84BE84" rx="3" ry="3" style="stroke:#038048;stroke-width:1;"/><text fill="#000000" font-family="sans-serif" font-size="14" lengthAdjust="spacing" text-decoration="underline" textLength="210.4332" x="27.5" y="65.9659">evo_version() -&gt; TypeEvoVersion</text><ellipse cx="18.5" cy="81.1019" fill="#84BE84" rx="3" ry="3" style="stroke:#038048;stroke-width:1;"/><text fill="#000000" font-family="sans-serif" font-size="14" lengthAdjust="spacing" textLength="238.209" x="27.5" y="85.0339">get_evo_version() -&gt; TypeEvoVersion</text></g><!--class ID--><g class="entity" data-entity="ID" data-source-line="18" data-uid="ent0003" id="entity_ID"><rect fill="#F1F1F1" height="86.1358" rx="2.5" ry="2.5" style="stroke:#181818;stroke-width:0.5;" width="140.5895" x="7" y="153"/><ellipse cx="46.4221" cy="169" fill="#FFFFFF" rx="11" ry="11" style="stroke:#181818;stroke-width:1;"/><path d="M42.344,164.7656 L42.344,162.6094 L49.7346,162.6094 L49.7346,164.7656 L47.2659,164.7656 L47.2659,172.8438 L49.7346,172.8438 L49.7346,175 L42.344,175 L42.344,172.8438 L44.8127,172.8438 L44.8127,164.7656 L42.344,164.7656 Z " fill="#000000"/><text fill="#000000" font-family="sans-serif" font-size="14" font-style="italic" lengthAdjust="spacing" textLength="13.8739" x="65.8492" y="174.432">ID</text><rect fill="#FFFFFF" height="18.3441" style="stroke:#181818;stroke-width:1;stroke-dasharray:2.0,2.0;" width="38.4442" x="112.1453" y="150"/><text fill="#000000" font-family="sans-serif" font-size="12" font-style="italic" lengthAdjust="spacing" textLength="36.4442" x="113.1453" y="163.8281">TypeID</text><line style="stroke:#181818;stroke-width:0.5;" x1="8" x2="146.5895" y1="185" y2="185"/><line style="stroke:#181818;stroke-width:0.5;" x1="8" x2="146.5895" y1="193" y2="193"/><ellipse cx="18" cy="208.034" fill="#84BE84" rx="3" ry="3" style="stroke:#038048;stroke-width:1;"/><text fill="#000000" font-family="sans-serif" font-size="14" lengthAdjust="spacing" textLength="114.5895" x="27" y="211.9659">get_id() -&gt; TypeID</text><ellipse cx="18" cy="227.1019" fill="#84BE84" rx="3" ry="3" style="stroke:#038048;stroke-width:1;"/><text fill="#000000" font-family="sans-serif" font-size="14" lengthAdjust="spacing" textLength="112.5036" x="27" y="231.0339">set_id(id: TypeID)</text></g><!--class ITime--><g class="entity" data-entity="ITime" data-source-line="23" data-uid="ent0004" id="entity_ITime"><rect fill="#F1F1F1" height="86.1358" rx="2.5" ry="2.5" style="stroke:#181818;stroke-width:0.5;" width="190.7793" x="255" y="153"/><ellipse cx="328.9407" cy="169" fill="#FFFFFF" rx="11" ry="11" style="stroke:#181818;stroke-width:1;"/><path d="M324.8626,164.7656 L324.8626,162.6094 L332.2532,162.6094 L332.2532,164.7656 L329.7845,164.7656 L329.7845,172.8438 L332.2532,172.8438 L332.2532,175 L324.8626,175 L324.8626,172.8438 L327.3314,172.8438 L327.3314,164.7656 L324.8626,164.7656 Z " fill="#000000"/><text fill="#000000" font-family="sans-serif" font-size="14" font-style="italic" lengthAdjust="spacing" textLength="34.3979" x="349.4407" y="174.432">ITime</text><line style="stroke:#181818;stroke-width:0.5;" x1="256" x2="444.7793" y1="185" y2="185"/><line style="stroke:#181818;stroke-width:0.5;" x1="256" x2="444.7793" y1="193" y2="193"/><ellipse cx="266" cy="208.034" fill="#84BE84" rx="3" ry="3" style="stroke:#038048;stroke-width:1;"/><text fill="#000000" font-family="sans-serif" font-size="14" lengthAdjust="spacing" textLength="149.4354" x="275" y="211.9659">get_time() -&gt; TypeTime</text><ellipse cx="266" cy="227.1019" fill="#84BE84" rx="3" ry="3" style="stroke:#038048;stroke-width:1;"/><text fill="#000000" font-family="sans-serif" font-size="14" lengthAdjust="spacing" textLength="164.7793" x="275" y="231.0339">set_time(time: TypeTime)</text></g><!--class IEntity--><g class="entity" data-entity="IEntity" data-source-line="27" data-uid="ent0005" id="entity_IEntity"><rect fill="#09B620" height="105.2038" rx="2.5" ry="2.5" style="stroke:#181818;stroke-width:0.5;" width="229.0272" x="87" y="308.5"/><ellipse cx="157.3996" cy="324.5" fill="#09B620" rx="11" ry="11" style="stroke:#181818;stroke-width:1;"/><path d="M153.3214,320.2656 L153.3214,318.1094 L160.7121,318.1094 L160.7121,320.2656 L158.2433,320.2656 L158.2433,328.3438 L160.7121,328.3438 L160.7121,330.5 L153.3214,330.5 L153.3214,328.3438 L155.7902,328.3438 L155.7902,320.2656 L153.3214,320.2656 Z " fill="#000000"/><text fill="#000000" font-family="sans-serif" font-size="14" font-style="italic" lengthAdjust="spacing" textLength="39.2838" x="177.8996" y="329.932">IEntity</text><rect fill="#FFFFFF" height="18.3441" style="stroke:#181818;stroke-width:1;stroke-dasharray:2.0,2.0;" width="38.4442" x="280.583" y="305.5"/><text fill="#000000" font-family="sans-serif" font-size="12" font-style="italic" lengthAdjust="spacing" textLength="36.4442" x="281.583" y="319.3281">TypeID</text><line style="stroke:#181818;stroke-width:0.5;" x1="88" x2="315.0272" y1="340.5" y2="340.5"/><line style="stroke:#181818;stroke-width:0.5;" x1="88" x2="315.0272" y1="348.5" y2="348.5"/><ellipse cx="98" cy="363.534" fill="#84BE84" rx="3" ry="3" style="stroke:#038048;stroke-width:1;"/><text fill="#000000" font-family="sans-serif" font-size="14" lengthAdjust="spacing" textLength="139.0334" x="107" y="367.4659">to_bytes() -&gt; Vec&lt;u8&gt;</text><ellipse cx="98" cy="382.6019" fill="#84BE84" rx="3" ry="3" style="stroke:#038048;stroke-width:1;"/><text fill="#000000" font-family="sans-serif" font-size="14" lengthAdjust="spacing" textLength="203.0272" x="107" y="386.5339">from_bytes(data: BYTES) -&gt; Self</text><ellipse cx="98" cy="401.6698" fill="#84BE84" rx="3" ry="3" style="stroke:#038048;stroke-width:1;"/><text fill="#000000" font-family="sans-serif" font-size="14" lengthAdjust="spacing" textLength="125.7475" x="107" y="405.6018">to_string() -&gt; String</text></g><!--class IAiEntity--><g class="entity" data-entity="IAiEntity" data-source-line="33" data-uid="ent0006" id="entity_IAiEntity"><rect fill="#FFA600" height="124.2717" rx="2.5" ry="2.5" style="stroke:#181818;stroke-width:0.5;" width="210.0573" x="351.5" y="299"/><ellipse cx="426.8968" cy="315" fill="#FFA600" rx="11" ry="11" style="stroke:#181818;stroke-width:1;"/><path d="M422.8186,310.7656 L422.8186,308.6094 L430.2093,308.6094 L430.2093,310.7656 L427.7405,310.7656 L427.7405,318.8438 L430.2093,318.8438 L430.2093,321 L422.8186,321 L422.8186,318.8438 L425.2874,318.8438 L425.2874,310.7656 L422.8186,310.7656 Z " fill="#000000"/><text fill="#000000" font-family="sans-serif" font-size="14" font-style="italic" lengthAdjust="spacing" textLength="50.7638" x="447.3968" y="320.432">IAiEntity</text><line style="stroke:#181818;stroke-width:0.5;" x1="352.5" x2="560.5573" y1="331" y2="331"/><line style="stroke:#181818;stroke-width:0.5;" x1="352.5" x2="560.5573" y1="339" y2="339"/><ellipse cx="362.5" cy="354.034" fill="#84BE84" rx="3" ry="3" style="stroke:#038048;stroke-width:1;"/><text fill="#000000" font-family="sans-serif" font-size="14" lengthAdjust="spacing" text-decoration="underline" textLength="125.2715" x="371.5" y="357.9659">get_ai_id() -&gt; String</text><ellipse cx="362.5" cy="373.1019" fill="#84BE84" rx="3" ry="3" style="stroke:#038048;stroke-width:1;"/><text fill="#000000" font-family="sans-serif" font-size="14" lengthAdjust="spacing" text-decoration="underline" textLength="163.9674" x="371.5" y="377.0339">get_ai_schema() -&gt; String</text><ellipse cx="362.5" cy="392.1698" fill="#84BE84" rx="3" ry="3" style="stroke:#038048;stroke-width:1;"/><text fill="#000000" font-family="sans-serif" font-size="14" lengthAdjust="spacing" textLength="98.7976" x="371.5" y="396.1018">to_ai() -&gt; String</text><ellipse cx="362.5" cy="411.2377" fill="#84BE84" rx="3" ry="3" style="stroke:#038048;stroke-width:1;"/><text fill="#000000" font-family="sans-serif" font-size="14" lengthAdjust="spacing" text-decoration="underline" textLength="184.0573" x="371.5" y="415.1697">from_ai(str_ai: String) -&gt; Self</text></g><!--class EPeerPublic--><g class="entity" data-entity="EPeerPublic" data-source-line="40" data-uid="ent0007" id="entity_EPeerPublic"><rect fill="#09B620" height="505.63" rx="2.5" ry="2.5" style="stroke:#181818;stroke-width:0.5;" width="499.6743" x="78.5" y="483"/><ellipse cx="285.3353" cy="499" fill="#F1F1F1" rx="11" ry="11" style="stroke:#181818;stroke-width:1;"/><path d="M284.8197,499.5625 Q282.9603,498.8594 282.304,498.0938 Q281.6634,497.3125 281.6634,496 Q281.6634,494.3125 282.7415,493.3438 Q283.8197,492.375 285.6947,492.375 Q286.554,492.375 287.3978,492.5781 Q288.2572,492.7656 289.1009,493.1563 L289.1009,495.5469 Q288.3197,494.9844 287.4915,494.7031 Q286.679,494.4063 285.8822,494.4063 Q285.0072,494.4063 284.5228,494.7656 Q284.054,495.125 284.054,495.7813 Q284.054,496.2969 284.3978,496.6406 Q284.7415,496.9688 285.8353,497.375 L286.8978,497.7813 Q288.3822,498.3281 289.0853,499.2344 Q289.804,500.1406 289.804,501.5156 Q289.804,503.3906 288.6947,504.3125 Q287.5853,505.2344 285.3353,505.2344 Q284.4134,505.2344 283.4915,505.0156 Q282.5697,504.7969 281.7103,504.375 L281.7103,501.8438 Q282.679,502.5313 283.6009,502.875 Q284.5228,503.2188 285.4134,503.2188 Q286.3197,503.2188 286.8197,502.8125 Q287.3197,502.3906 287.3197,501.6563 Q287.3197,501.0938 286.9759,500.6875 Q286.6478,500.2656 286.0228,500.0156 L284.8197,499.5625 Z " fill="#000000"/><text fill="#000000" font-family="sans-serif" font-size="14" lengthAdjust="spacing" textLength="77.5037" x="305.8353" y="504.432">EPeerPublic</text><line style="stroke:#181818;stroke-width:0.5;" x1="79.5" x2="577.1743" y1="515" y2="515"/><rect fill="none" height="6" style="stroke:#C82930;stroke-width:1;" width="6" x="86.5" y="527.034"/><text fill="#000000" font-family="sans-serif" font-size="14" lengthAdjust="spacing" textLength="66.0097" x="98.5" y="533.9659">id: TypeID</text><rect fill="none" height="6" style="stroke:#C82930;stroke-width:1;" width="6" x="86.5" y="546.1019"/><text fill="#000000" font-family="sans-serif" font-size="14" lengthAdjust="spacing" textLength="61.7117" x="98.5" y="553.0339">time: u64</text><rect fill="none" height="6" style="stroke:#C82930;stroke-width:1;" width="6" x="86.5" y="565.1698"/><text fill="#000000" font-family="sans-serif" font-size="14" lengthAdjust="spacing" textLength="146.7334" x="98.5" y="572.1018">enum_peer_crypto: u8</text><rect fill="none" height="6" style="stroke:#C82930;stroke-width:1;" width="6" x="86.5" y="584.2377"/><text fill="#000000" font-family="sans-serif" font-size="14" lengthAdjust="spacing" textLength="157.6394" x="98.5" y="591.1697">enum_peer_visibility: u8</text><rect fill="none" height="6" style="stroke:#C82930;stroke-width:1;" width="6" x="86.5" y="603.3056"/><text fill="#000000" font-family="sans-serif" font-size="14" lengthAdjust="spacing" textLength="283.1909" x="98.5" y="610.2376">map_bridge: MapEntity&lt;EBridgeEvoPublic&gt;</text><rect fill="none" height="6" style="stroke:#C82930;stroke-width:1;" width="6" x="86.5" y="622.3735"/><text fill="#000000" font-family="sans-serif" font-size="14" lengthAdjust="spacing" textLength="84.2797" x="98.5" y="629.3055">name: String</text><rect fill="none" height="6" style="stroke:#C82930;stroke-width:1;" width="6" x="86.5" y="641.4415"/><text fill="#000000" font-family="sans-serif" font-size="14" lengthAdjust="spacing" textLength="79.1697" x="98.5" y="648.3734">pk: Vec&lt;u8&gt;</text><rect fill="none" height="6" style="stroke:#C82930;stroke-width:1;" width="6" x="86.5" y="660.5094"/><text fill="#000000" font-family="sans-serif" font-size="14" lengthAdjust="spacing" textLength="112.9655" x="98.5" y="667.4414">pk_sign: Vec&lt;u8&gt;</text><line style="stroke:#181818;stroke-width:0.5;" x1="79.5" x2="577.1743" y1="675.5433" y2="675.5433"/><ellipse cx="89.5" cy="690.5773" fill="#84BE84" rx="3" ry="3" style="stroke:#038048;stroke-width:1;"/><text fill="#000000" font-family="sans-serif" font-size="14" lengthAdjust="spacing" textLength="147.8674" x="98.5" y="694.5093">get_id(&amp;self) -&gt; TypeID</text><ellipse cx="89.5" cy="709.6452" fill="#84BE84" rx="3" ry="3" style="stroke:#038048;stroke-width:1;"/><text fill="#000000" font-family="sans-serif" font-size="14" lengthAdjust="spacing" textLength="189.8252" x="98.5" y="713.5772">set_id(&amp;mut self, _id: TypeID)</text><ellipse cx="89.5" cy="728.7131" fill="#84BE84" rx="3" ry="3" style="stroke:#038048;stroke-width:1;"/><text fill="#000000" font-family="sans-serif" font-size="14" lengthAdjust="spacing" textLength="143.5694" x="98.5" y="732.6451">get_time(&amp;self) -&gt; u64</text><ellipse cx="89.5" cy="747.781" fill="#84BE84" rx="3" ry="3" style="stroke:#038048;stroke-width:1;"/><text fill="#000000" font-family="sans-serif" font-size="14" lengthAdjust="spacing" textLength="202.9572" x="98.5" y="751.713">set_time(&amp;mut self, _time: u64)</text><ellipse cx="89.5" cy="766.849" fill="#84BE84" rx="3" ry="3" style="stroke:#038048;stroke-width:1;"/><text fill="#000000" font-family="sans-serif" font-size="14" lengthAdjust="spacing" textLength="228.5911" x="98.5" y="770.7809">get_enum_peer_crypto(&amp;self) -&gt; u8</text><ellipse cx="89.5" cy="785.9169" fill="#84BE84" rx="3" ry="3" style="stroke:#038048;stroke-width:1;"/><text fill="#000000" font-family="sans-serif" font-size="14" lengthAdjust="spacing" textLength="381.0085" x="98.5" y="789.8489">set_enum_peer_crypto(&amp;mut self, _enum_peer_crypto: u8)</text><ellipse cx="89.5" cy="804.9848" fill="#84BE84" rx="3" ry="3" style="stroke:#038048;stroke-width:1;"/><text fill="#000000" font-family="sans-serif" font-size="14" lengthAdjust="spacing" textLength="239.497" x="98.5" y="808.9168">get_enum_peer_visibility(&amp;self) -&gt; u8</text><ellipse cx="89.5" cy="824.0527" fill="#84BE84" rx="3" ry="3" style="stroke:#038048;stroke-width:1;"/><text fill="#000000" font-family="sans-serif" font-size="14" lengthAdjust="spacing" textLength="402.8205" x="98.5" y="827.9847">set_enum_peer_visibility(&amp;mut self, _enum_peer_visibility: u8)</text><ellipse cx="89.5" cy="843.1206" fill="#84BE84" rx="3" ry="3" style="stroke:#038048;stroke-width:1;"/><text fill="#000000" font-family="sans-serif" font-size="14" lengthAdjust="spacing" textLength="365.0486" x="98.5" y="847.0526">get_map_bridge(&amp;self) -&gt; MapEntity&lt;EBridgeEvoPublic&gt;</text><ellipse cx="89.5" cy="862.1885" fill="#84BE84" rx="3" ry="3" style="stroke:#038048;stroke-width:1;"/><text fill="#000000" font-family="sans-serif" font-size="14" lengthAdjust="spacing" textLength="473.6743" x="98.5" y="866.1205">set_map_bridge(&amp;mut self, _map_bridge: MapEntity&lt;EBridgeEvoPublic&gt;)</text><ellipse cx="89.5" cy="881.2565" fill="#84BE84" rx="3" ry="3" style="stroke:#038048;stroke-width:1;"/><text fill="#000000" font-family="sans-serif" font-size="14" lengthAdjust="spacing" textLength="166.1373" x="98.5" y="885.1884">get_name(&amp;self) -&gt; String</text><ellipse cx="89.5" cy="900.3244" fill="#84BE84" rx="3" ry="3" style="stroke:#038048;stroke-width:1;"/><text fill="#000000" font-family="sans-serif" font-size="14" lengthAdjust="spacing" textLength="233.3651" x="98.5" y="904.2564">set_name(&amp;mut self, _name: String)</text><ellipse cx="89.5" cy="919.3923" fill="#84BE84" rx="3" ry="3" style="stroke:#038048;stroke-width:1;"/><text fill="#000000" font-family="sans-serif" font-size="14" lengthAdjust="spacing" textLength="161.0273" x="98.5" y="923.3243">get_pk(&amp;self) -&gt; Vec&lt;u8&gt;</text><ellipse cx="89.5" cy="938.4602" fill="#84BE84" rx="3" ry="3" style="stroke:#038048;stroke-width:1;"/><text fill="#000000" font-family="sans-serif" font-size="14" lengthAdjust="spacing" textLength="206.8492" x="98.5" y="942.3922">set_pk(&amp;mut self, _pk: Vec&lt;u8&gt;)</text><ellipse cx="89.5" cy="957.5281" fill="#84BE84" rx="3" ry="3" style="stroke:#038048;stroke-width:1;"/><text fill="#000000" font-family="sans-serif" font-size="14" lengthAdjust="spacing" textLength="194.8232" x="98.5" y="961.4601">get_pk_sign(&amp;self) -&gt; Vec&lt;u8&gt;</text><ellipse cx="89.5" cy="976.596" fill="#84BE84" rx="3" ry="3" style="stroke:#038048;stroke-width:1;"/><text fill="#000000" font-family="sans-serif" font-size="14" lengthAdjust="spacing" textLength="274.4409" x="98.5" y="980.528">set_pk_sign(&amp;mut self, _pk_sign: Vec&lt;u8&gt;)</text></g><!--reverse link IEvo to IEntity--><g class="link" data-entity-1="IEvo" data-entity-2="IEntity" data-source-line="71" data-uid="lnk8" id="link_IEvo_IEntity"><path codeLine="71" d="M155.5564,110.4211 C160.3664,128.7611 161.25,133.16 165.5,153 C176.76,205.61 187,266.32 193.65,308.32" fill="none" id="IEvo-backto-IEntity" style="stroke:#09B620;stroke-width:1;"/><polygon fill="none" points="150.99,93.01,149.7527,111.9433,161.3601,108.899,150.99,93.01" style="stroke:#09B620;stroke-width:1;"/></g><!--reverse link ID to IEntity--><g class="link" data-entity-1="ID" data-entity-2="IEntity" data-source-line="72" data-uid="lnk9" id="link_ID_IEntity"><path codeLine="72" d="M120.6556,253.7278 C136.6556,274.7678 145.22,286.03 162.1,308.21" fill="none" id="ID-backto-IEntity" style="stroke:#09B620;stroke-width:1;"/><polygon fill="none" points="109.76,239.4,115.8797,257.3597,125.4316,250.0959,109.76,239.4" style="stroke:#09B620;stroke-width:1;"/></g><!--reverse link ITime to IEntity--><g class="link" data-entity-1="ITime" data-entity-2="IEntity" data-source-line="73" data-uid="lnk10" id="link_ITime_IEntity"><path codeLine="73" d="M299.5964,252.6866 C280.3664,273.7266 269.12,286.03 248.84,308.21" fill="none" id="ITime-backto-IEntity" style="stroke:#09B620;stroke-width:1;"/><polygon fill="none" points="311.74,239.4,295.1676,248.6387,304.0253,256.7344,311.74,239.4" style="stroke:#09B620;stroke-width:1;"/></g><!--reverse link IEntity to EPeerPublic--><g class="link" data-entity-1="IEntity" data-entity-2="EPeerPublic" data-source-line="75" data-uid="lnk11" id="link_IEntity_EPeerPublic"><path codeLine="75" d="M224.9568,430.9011 C231.5968,450.4211 233.88,457.11 242.61,482.74" fill="none" id="IEntity-backto-EPeerPublic" style="stroke:#09B620;stroke-width:1;"/><polygon fill="none" points="219.16,413.86,219.2764,432.8333,230.6371,428.9688,219.16,413.86" style="stroke:#09B620;stroke-width:1;"/></g><!--reverse link IAiEntity to EPeerPublic--><g class="link" data-entity-1="IAiEntity" data-entity-2="EPeerPublic" data-source-line="76" data-uid="lnk12" id="link_IAiEntity_EPeerPublic"><path codeLine="76" d="M429.664,440.2042 C423.634,457.7642 422.5,461.07 415.06,482.76" fill="none" id="IAiEntity-backto-EPeerPublic" style="stroke:#FFA600;stroke-width:1;"/><polygon fill="none" points="435.51,423.18,423.9892,438.2555,435.3387,442.1529,435.51,423.18" style="stroke:#FFA600;stroke-width:1;"/></g><!--link IEvo to ID--><g class="link" data-entity-1="IEvo" data-entity-2="ID" data-source-line="77" data-uid="lnk13" id="link_IEvo_ID"><line style="stroke:none;stroke-width:1;" x1="95.73" x2="97.7064" y1="152.66" y2="148.0672"/></g><!--SRC=[ZLLTQ-Cm47pthzYZq3QqXd8S8HT2e3td80y7XOH2dunihnEHM3QMd19w_U-dBrkoapQNXyJP6SsiTbVo3QnGG4BItQOk6vP1MkxBEk0xoYfIamAUEkYNGa3KX7498HD1S0CHvfIXMSKXbmGawHOe4rZd9CNWMsOOoyMXD0fNl_N78T4dyJKjy1DemGGLHmi-_4p6tny2XpvIY-Gv6Jz8f4j7fm6psUtotcKqci_XFG3vkNldWWYQVW0UolY0DQSbknr1E8VriKAvuCN437k38hv4_EYvHpC5BwDvcqCqp41fqin9BICJvoPEiwaDZmRIgbgjQbUvWR2GSIUjM4vSO-fhse7AmY-TBlfm1ruhb9l_tpgBCawE0hbnVi5qrapc1ihhih1WHWIPmjFhUh7Il1Nkysuz5pLb6oEmqi-3tJzIuzjcPKT0PsIVXorM1I6qAxQLFSlXwHOBSigJcH7wnNAzFScGwSkVgIMvxSazIAX91IoU4Uld9jdJz4m9Gt1zjm7JgMRym_v7rXHn9KNYj3vMefJOv0GwK4uJkfVY7boGAavgccsatXzIsIulddH8JhB9QcxPZ2XVRxSXLBjfhwig4dEwOIuSm1tOoRxcSkSdumrslg-BHe1Yt4FipxfThuVKARJRDyiDw0bqDUhM3wlaQqqygLEU9tkkr6SSNB4lk_ZSiqxzpdLkhdUUnwKc6dD_gMVvdzFGPQ3cmVFsZu6sCRXdu0zGfrBjF8tU3Q555En9U0FdAUYHko1ZEJsj_gYE0dKgknURs2BKk9V7kMHyIoiE2OetHEPUSJm8p5lbRnYsPxTtXeDbz1LeBkvFyQ2DQef_Jmnqt1LuIhHNe4aqpCet9WiaqxhoN-StCX3kCHSAqrdru7y0]--></g></svg>