<svg xmlns="http://www.w3.org/2000/svg" xmlns:xlink="http://www.w3.org/1999/xlink" contentStyleType="text/css" data-diagram-type="CLASS" height="1052px" preserveAspectRatio="none" style="width:568px;height:1052px;" version="1.1" viewBox="0 0 568 1052" width="568px" zoomAndPan="magnify"><defs/><g><!--class IEvo--><g class="entity" data-entity="IEvo" data-source-line="13" data-uid="ent0002" id="entity_IEvo"><rect fill="#F1F1F1" height="86.1358" rx="2.5" ry="2.5" style="stroke:#181818;stroke-width:0.5;" width="264.209" x="7.5" y="7"/><ellipse cx="122.2786" cy="23" fill="#FFFFFF" rx="11" ry="11" style="stroke:#181818;stroke-width:1;"/><path d="M118.2004,18.7656 L118.2004,16.6094 L125.5911,16.6094 L125.5911,18.7656 L123.1223,18.7656 L123.1223,26.8438 L125.5911,26.8438 L125.5911,29 L118.2004,29 L118.2004,26.8438 L120.6692,26.8438 L120.6692,18.7656 L118.2004,18.7656 Z " fill="#000000"/><text fill="#000000" font-family="sans-serif" font-size="14" font-style="italic" lengthAdjust="spacing" textLength="26.1519" x="142.7786" y="28.432">IEvo</text><line style="stroke:#181818;stroke-width:0.5;" x1="8.5" x2="270.709" y1="39" y2="39"/><line style="stroke:#181818;stroke-width:0.5;" x1="8.5" x2="270.709" y1="47" y2="47"/><ellipse cx="18.5" cy="62.034" fill="#84BE84" rx="3" ry="3" style="stroke:#038048;stroke-width:1;"/><text fill="#000000" font-family="sans-serif" font-size="14" lengthAdjust="spacing" text-decoration="underline" textLength="210.4332" x="27.5" y="65.9659">evo_version() -&gt; TypeEvoVersion</text><ellipse cx="18.5" cy="81.1019" fill="#84BE84" rx="3" ry="3" style="stroke:#038048;stroke-width:1;"/><text fill="#000000" font-family="sans-serif" font-size="14" lengthAdjust="spacing" textLength="238.209" x="27.5" y="85.0339">get_evo_version() -&gt; TypeEvoVersion</text></g><!--class ID--><g class="entity" data-entity="ID" data-source-line="18" data-uid="ent0003" id="entity_ID"><rect fill="#F1F1F1" height="86.1358" rx="2.5" ry="2.5" style="stroke:#181818;stroke-width:0.5;" width="140.5895" x="7" y="153"/><ellipse cx="46.4221" cy="169" fill="#FFFFFF" rx="11" ry="11" style="stroke:#181818;stroke-width:1;"/><path d="M42.344,164.7656 L42.344,162.6094 L49.7346,162.6094 L49.7346,164.7656 L47.2659,164.7656 L47.2659,172.8438 L49.7346,172.8438 L49.7346,175 L42.344,175 L42.344,172.8438 L44.8127,172.8438 L44.8127,164.7656 L42.344,164.7656 Z " fill="#000000"/><text fill="#000000" font-family="sans-serif" font-size="14" font-style="italic" lengthAdjust="spacing" textLength="13.8739" x="65.8492" y="174.432">ID</text><rect fill="#FFFFFF" height="18.3441" style="stroke:#181818;stroke-width:1;stroke-dasharray:2.0,2.0;" width="38.4442" x="112.1453" y="150"/><text fill="#000000" font-family="sans-serif" font-size="12" font-style="italic" lengthAdjust="spacing" textLength="36.4442" x="113.1453" y="163.8281">TypeID</text><line style="stroke:#181818;stroke-width:0.5;" x1="8" x2="146.5895" y1="185" y2="185"/><line style="stroke:#181818;stroke-width:0.5;" x1="8" x2="146.5895" y1="193" y2="193"/><ellipse cx="18" cy="208.034" fill="#84BE84" rx="3" ry="3" style="stroke:#038048;stroke-width:1;"/><text fill="#000000" font-family="sans-serif" font-size="14" lengthAdjust="spacing" textLength="114.5895" x="27" y="211.9659">get_id() -&gt; TypeID</text><ellipse cx="18" cy="227.1019" fill="#84BE84" rx="3" ry="3" style="stroke:#038048;stroke-width:1;"/><text fill="#000000" font-family="sans-serif" font-size="14" lengthAdjust="spacing" textLength="112.5036" x="27" y="231.0339">set_id(id: TypeID)</text></g><!--class ITime--><g class="entity" data-entity="ITime" data-source-line="23" data-uid="ent0004" id="entity_ITime"><rect fill="#F1F1F1" height="86.1358" rx="2.5" ry="2.5" style="stroke:#181818;stroke-width:0.5;" width="190.7793" x="255" y="153"/><ellipse cx="328.9407" cy="169" fill="#FFFFFF" rx="11" ry="11" style="stroke:#181818;stroke-width:1;"/><path d="M324.8626,164.7656 L324.8626,162.6094 L332.2532,162.6094 L332.2532,164.7656 L329.7845,164.7656 L329.7845,172.8438 L332.2532,172.8438 L332.2532,175 L324.8626,175 L324.8626,172.8438 L327.3314,172.8438 L327.3314,164.7656 L324.8626,164.7656 Z " fill="#000000"/><text fill="#000000" font-family="sans-serif" font-size="14" font-style="italic" lengthAdjust="spacing" textLength="34.3979" x="349.4407" y="174.432">ITime</text><line style="stroke:#181818;stroke-width:0.5;" x1="256" x2="444.7793" y1="185" y2="185"/><line style="stroke:#181818;stroke-width:0.5;" x1="256" x2="444.7793" y1="193" y2="193"/><ellipse cx="266" cy="208.034" fill="#84BE84" rx="3" ry="3" style="stroke:#038048;stroke-width:1;"/><text fill="#000000" font-family="sans-serif" font-size="14" lengthAdjust="spacing" textLength="149.4354" x="275" y="211.9659">get_time() -&gt; TypeTime</text><ellipse cx="266" cy="227.1019" fill="#84BE84" rx="3" ry="3" style="stroke:#038048;stroke-width:1;"/><text fill="#000000" font-family="sans-serif" font-size="14" lengthAdjust="spacing" textLength="164.7793" x="275" y="231.0339">set_time(time: TypeTime)</text></g><!--class IEntity--><g class="entity" data-entity="IEntity" data-source-line="27" data-uid="ent0005" id="entity_IEntity"><rect fill="#09B620" height="105.2038" rx="2.5" ry="2.5" style="stroke:#181818;stroke-width:0.5;" width="229.0272" x="87" y="308.5"/><ellipse cx="157.3996" cy="324.5" fill="#09B620" rx="11" ry="11" style="stroke:#181818;stroke-width:1;"/><path d="M153.3214,320.2656 L153.3214,318.1094 L160.7121,318.1094 L160.7121,320.2656 L158.2433,320.2656 L158.2433,328.3438 L160.7121,328.3438 L160.7121,330.5 L153.3214,330.5 L153.3214,328.3438 L155.7902,328.3438 L155.7902,320.2656 L153.3214,320.2656 Z " fill="#000000"/><text fill="#000000" font-family="sans-serif" font-size="14" font-style="italic" lengthAdjust="spacing" textLength="39.2838" x="177.8996" y="329.932">IEntity</text><rect fill="#FFFFFF" height="18.3441" style="stroke:#181818;stroke-width:1;stroke-dasharray:2.0,2.0;" width="38.4442" x="280.583" y="305.5"/><text fill="#000000" font-family="sans-serif" font-size="12" font-style="italic" lengthAdjust="spacing" textLength="36.4442" x="281.583" y="319.3281">TypeID</text><line style="stroke:#181818;stroke-width:0.5;" x1="88" x2="315.0272" y1="340.5" y2="340.5"/><line style="stroke:#181818;stroke-width:0.5;" x1="88" x2="315.0272" y1="348.5" y2="348.5"/><ellipse cx="98" cy="363.534" fill="#84BE84" rx="3" ry="3" style="stroke:#038048;stroke-width:1;"/><text fill="#000000" font-family="sans-serif" font-size="14" lengthAdjust="spacing" textLength="139.0334" x="107" y="367.4659">to_bytes() -&gt; Vec&lt;u8&gt;</text><ellipse cx="98" cy="382.6019" fill="#84BE84" rx="3" ry="3" style="stroke:#038048;stroke-width:1;"/><text fill="#000000" font-family="sans-serif" font-size="14" lengthAdjust="spacing" textLength="203.0272" x="107" y="386.5339">from_bytes(data: BYTES) -&gt; Self</text><ellipse cx="98" cy="401.6698" fill="#84BE84" rx="3" ry="3" style="stroke:#038048;stroke-width:1;"/><text fill="#000000" font-family="sans-serif" font-size="14" lengthAdjust="spacing" textLength="125.7475" x="107" y="405.6018">to_string() -&gt; String</text></g><!--class IAiEntity--><g class="entity" data-entity="IAiEntity" data-source-line="33" data-uid="ent0006" id="entity_IAiEntity"><rect fill="#FFA600" height="124.2717" rx="2.5" ry="2.5" style="stroke:#181818;stroke-width:0.5;" width="210.0573" x="351.5" y="299"/><ellipse cx="426.8968" cy="315" fill="#FFA600" rx="11" ry="11" style="stroke:#181818;stroke-width:1;"/><path d="M422.8186,310.7656 L422.8186,308.6094 L430.2093,308.6094 L430.2093,310.7656 L427.7405,310.7656 L427.7405,318.8438 L430.2093,318.8438 L430.2093,321 L422.8186,321 L422.8186,318.8438 L425.2874,318.8438 L425.2874,310.7656 L422.8186,310.7656 Z " fill="#000000"/><text fill="#000000" font-family="sans-serif" font-size="14" font-style="italic" lengthAdjust="spacing" textLength="50.7638" x="447.3968" y="320.432">IAiEntity</text><line style="stroke:#181818;stroke-width:0.5;" x1="352.5" x2="560.5573" y1="331" y2="331"/><line style="stroke:#181818;stroke-width:0.5;" x1="352.5" x2="560.5573" y1="339" y2="339"/><ellipse cx="362.5" cy="354.034" fill="#84BE84" rx="3" ry="3" style="stroke:#038048;stroke-width:1;"/><text fill="#000000" font-family="sans-serif" font-size="14" lengthAdjust="spacing" text-decoration="underline" textLength="125.2715" x="371.5" y="357.9659">get_ai_id() -&gt; String</text><ellipse cx="362.5" cy="373.1019" fill="#84BE84" rx="3" ry="3" style="stroke:#038048;stroke-width:1;"/><text fill="#000000" font-family="sans-serif" font-size="14" lengthAdjust="spacing" text-decoration="underline" textLength="163.9674" x="371.5" y="377.0339">get_ai_schema() -&gt; String</text><ellipse cx="362.5" cy="392.1698" fill="#84BE84" rx="3" ry="3" style="stroke:#038048;stroke-width:1;"/><text fill="#000000" font-family="sans-serif" font-size="14" lengthAdjust="spacing" textLength="98.7976" x="371.5" y="396.1018">to_ai() -&gt; String</text><ellipse cx="362.5" cy="411.2377" fill="#84BE84" rx="3" ry="3" style="stroke:#038048;stroke-width:1;"/><text fill="#000000" font-family="sans-serif" font-size="14" lengthAdjust="spacing" text-decoration="underline" textLength="184.0573" x="371.5" y="415.1697">from_ai(str_ai: String) -&gt; Self</text></g><!--class EPeerCertificate--><g class="entity" data-entity="EPeerCertificate" data-source-line="40" data-uid="ent0007" id="entity_EPeerCertificate"><rect fill="#09B620" height="562.8338" rx="2.5" ry="2.5" style="stroke:#181818;stroke-width:0.5;" width="452.5083" x="102" y="483"/><ellipse cx="271.5184" cy="499" fill="#F1F1F1" rx="11" ry="11" style="stroke:#181818;stroke-width:1;"/><path d="M271.0027,499.5625 Q269.1434,498.8594 268.4871,498.0938 Q267.8465,497.3125 267.8465,496 Q267.8465,494.3125 268.9246,493.3438 Q270.0027,492.375 271.8777,492.375 Q272.7371,492.375 273.5809,492.5781 Q274.4402,492.7656 275.284,493.1563 L275.284,495.5469 Q274.5027,494.9844 273.6746,494.7031 Q272.8621,494.4063 272.0652,494.4063 Q271.1902,494.4063 270.7059,494.7656 Q270.2371,495.125 270.2371,495.7813 Q270.2371,496.2969 270.5809,496.6406 Q270.9246,496.9688 272.0184,497.375 L273.0809,497.7813 Q274.5652,498.3281 275.2684,499.2344 Q275.9871,500.1406 275.9871,501.5156 Q275.9871,503.3906 274.8777,504.3125 Q273.7684,505.2344 271.5184,505.2344 Q270.5965,505.2344 269.6746,505.0156 Q268.7527,504.7969 267.8934,504.375 L267.8934,501.8438 Q268.8621,502.5313 269.784,502.875 Q270.7059,503.2188 271.5965,503.2188 Q272.5027,503.2188 273.0027,502.8125 Q273.5027,502.3906 273.5027,501.6563 Q273.5027,501.0938 273.159,500.6875 Q272.8309,500.2656 272.2059,500.0156 L271.0027,499.5625 Z " fill="#000000"/><text fill="#000000" font-family="sans-serif" font-size="14" lengthAdjust="spacing" textLength="104.9716" x="292.0184" y="504.432">EPeerCertificate</text><line style="stroke:#181818;stroke-width:0.5;" x1="103" x2="553.5083" y1="515" y2="515"/><rect fill="none" height="6" style="stroke:#C82930;stroke-width:1;" width="6" x="110" y="527.034"/><text fill="#000000" font-family="sans-serif" font-size="14" lengthAdjust="spacing" textLength="66.0097" x="122" y="533.9659">id: TypeID</text><rect fill="none" height="6" style="stroke:#C82930;stroke-width:1;" width="6" x="110" y="546.1019"/><text fill="#000000" font-family="sans-serif" font-size="14" lengthAdjust="spacing" textLength="61.7117" x="122" y="553.0339">time: u64</text><rect fill="none" height="6" style="stroke:#C82930;stroke-width:1;" width="6" x="110" y="565.1698"/><text fill="#000000" font-family="sans-serif" font-size="14" lengthAdjust="spacing" textLength="72.7297" x="122" y="572.1018">cid: TypeID</text><rect fill="none" height="6" style="stroke:#C82930;stroke-width:1;" width="6" x="110" y="584.2377"/><text fill="#000000" font-family="sans-serif" font-size="14" lengthAdjust="spacing" textLength="188.9992" x="122" y="591.1697">data_e_peer_public: Vec&lt;u8&gt;</text><rect fill="none" height="6" style="stroke:#C82930;stroke-width:1;" width="6" x="110" y="603.3056"/><text fill="#000000" font-family="sans-serif" font-size="14" lengthAdjust="spacing" textLength="146.7334" x="122" y="610.2376">enum_peer_crypto: u8</text><rect fill="none" height="6" style="stroke:#C82930;stroke-width:1;" width="6" x="110" y="622.3735"/><text fill="#000000" font-family="sans-serif" font-size="14" lengthAdjust="spacing" textLength="113.4836" x="122" y="629.3055">id_signer: TypeID</text><rect fill="none" height="6" style="stroke:#C82930;stroke-width:1;" width="6" x="110" y="641.4415"/><text fill="#000000" font-family="sans-serif" font-size="14" lengthAdjust="spacing" textLength="74.3677" x="122" y="648.3734">ipns: String</text><rect fill="none" height="6" style="stroke:#C82930;stroke-width:1;" width="6" x="110" y="660.5094"/><text fill="#000000" font-family="sans-serif" font-size="14" lengthAdjust="spacing" textLength="90.6636" x="122" y="667.4414">sign: Vec&lt;u8&gt;</text><rect fill="none" height="6" style="stroke:#C82930;stroke-width:1;" width="6" x="110" y="679.5773"/><text fill="#000000" font-family="sans-serif" font-size="14" lengthAdjust="spacing" textLength="64.8338" x="122" y="686.5093">url: String</text><line style="stroke:#181818;stroke-width:0.5;" x1="103" x2="553.5083" y1="694.6113" y2="694.6113"/><ellipse cx="113" cy="709.6452" fill="#84BE84" rx="3" ry="3" style="stroke:#038048;stroke-width:1;"/><text fill="#000000" font-family="sans-serif" font-size="14" lengthAdjust="spacing" textLength="147.8674" x="122" y="713.5772">get_id(&amp;self) -&gt; TypeID</text><ellipse cx="113" cy="728.7131" fill="#84BE84" rx="3" ry="3" style="stroke:#038048;stroke-width:1;"/><text fill="#000000" font-family="sans-serif" font-size="14" lengthAdjust="spacing" textLength="189.8252" x="122" y="732.6451">set_id(&amp;mut self, _id: TypeID)</text><ellipse cx="113" cy="747.781" fill="#84BE84" rx="3" ry="3" style="stroke:#038048;stroke-width:1;"/><text fill="#000000" font-family="sans-serif" font-size="14" lengthAdjust="spacing" textLength="143.5694" x="122" y="751.713">get_time(&amp;self) -&gt; u64</text><ellipse cx="113" cy="766.849" fill="#84BE84" rx="3" ry="3" style="stroke:#038048;stroke-width:1;"/><text fill="#000000" font-family="sans-serif" font-size="14" lengthAdjust="spacing" textLength="202.9572" x="122" y="770.7809">set_time(&amp;mut self, _time: u64)</text><ellipse cx="113" cy="785.9169" fill="#84BE84" rx="3" ry="3" style="stroke:#038048;stroke-width:1;"/><text fill="#000000" font-family="sans-serif" font-size="14" lengthAdjust="spacing" textLength="154.5874" x="122" y="789.8489">get_cid(&amp;self) -&gt; TypeID</text><ellipse cx="113" cy="804.9848" fill="#84BE84" rx="3" ry="3" style="stroke:#038048;stroke-width:1;"/><text fill="#000000" font-family="sans-serif" font-size="14" lengthAdjust="spacing" textLength="203.2652" x="122" y="808.9168">set_cid(&amp;mut self, _cid: TypeID)</text><ellipse cx="113" cy="824.0527" fill="#84BE84" rx="3" ry="3" style="stroke:#038048;stroke-width:1;"/><text fill="#000000" font-family="sans-serif" font-size="14" lengthAdjust="spacing" textLength="270.8569" x="122" y="827.9847">get_data_e_peer_public(&amp;self) -&gt; Vec&lt;u8&gt;</text><ellipse cx="113" cy="843.1206" fill="#84BE84" rx="3" ry="3" style="stroke:#038048;stroke-width:1;"/><text fill="#000000" font-family="sans-serif" font-size="14" lengthAdjust="spacing" textLength="426.5083" x="122" y="847.0526">set_data_e_peer_public(&amp;mut self, _data_e_peer_public: Vec&lt;u8&gt;)</text><ellipse cx="113" cy="862.1885" fill="#84BE84" rx="3" ry="3" style="stroke:#038048;stroke-width:1;"/><text fill="#000000" font-family="sans-serif" font-size="14" lengthAdjust="spacing" textLength="228.5911" x="122" y="866.1205">get_enum_peer_crypto(&amp;self) -&gt; u8</text><ellipse cx="113" cy="881.2565" fill="#84BE84" rx="3" ry="3" style="stroke:#038048;stroke-width:1;"/><text fill="#000000" font-family="sans-serif" font-size="14" lengthAdjust="spacing" textLength="381.0085" x="122" y="885.1884">set_enum_peer_crypto(&amp;mut self, _enum_peer_crypto: u8)</text><ellipse cx="113" cy="900.3244" fill="#84BE84" rx="3" ry="3" style="stroke:#038048;stroke-width:1;"/><text fill="#000000" font-family="sans-serif" font-size="14" lengthAdjust="spacing" textLength="195.3412" x="122" y="904.2564">get_id_signer(&amp;self) -&gt; TypeID</text><ellipse cx="113" cy="919.3923" fill="#84BE84" rx="3" ry="3" style="stroke:#038048;stroke-width:1;"/><text fill="#000000" font-family="sans-serif" font-size="14" lengthAdjust="spacing" textLength="284.7729" x="122" y="923.3243">set_id_signer(&amp;mut self, _id_signer: TypeID)</text><ellipse cx="113" cy="938.4602" fill="#84BE84" rx="3" ry="3" style="stroke:#038048;stroke-width:1;"/><text fill="#000000" font-family="sans-serif" font-size="14" lengthAdjust="spacing" textLength="156.2254" x="122" y="942.3922">get_ipns(&amp;self) -&gt; String</text><ellipse cx="113" cy="957.5281" fill="#84BE84" rx="3" ry="3" style="stroke:#038048;stroke-width:1;"/><text fill="#000000" font-family="sans-serif" font-size="14" lengthAdjust="spacing" textLength="213.5412" x="122" y="961.4601">set_ipns(&amp;mut self, _ipns: String)</text><ellipse cx="113" cy="976.596" fill="#84BE84" rx="3" ry="3" style="stroke:#038048;stroke-width:1;"/><text fill="#000000" font-family="sans-serif" font-size="14" lengthAdjust="spacing" textLength="172.5213" x="122" y="980.528">get_sign(&amp;self) -&gt; Vec&lt;u8&gt;</text><ellipse cx="113" cy="995.664" fill="#84BE84" rx="3" ry="3" style="stroke:#038048;stroke-width:1;"/><text fill="#000000" font-family="sans-serif" font-size="14" lengthAdjust="spacing" textLength="229.8371" x="122" y="999.5959">set_sign(&amp;mut self, _sign: Vec&lt;u8&gt;)</text><ellipse cx="113" cy="1014.7319" fill="#84BE84" rx="3" ry="3" style="stroke:#038048;stroke-width:1;"/><text fill="#000000" font-family="sans-serif" font-size="14" lengthAdjust="spacing" textLength="146.6914" x="122" y="1018.6639">get_url(&amp;self) -&gt; String</text><ellipse cx="113" cy="1033.7998" fill="#84BE84" rx="3" ry="3" style="stroke:#038048;stroke-width:1;"/><text fill="#000000" font-family="sans-serif" font-size="14" lengthAdjust="spacing" textLength="194.4732" x="122" y="1037.7318">set_url(&amp;mut self, _url: String)</text></g><!--reverse link IEvo to IEntity--><g class="link" data-entity-1="IEvo" data-entity-2="IEntity" data-source-line="74" data-uid="lnk8" id="link_IEvo_IEntity"><path codeLine="74" d="M155.5564,110.4211 C160.3664,128.7611 161.25,133.16 165.5,153 C176.76,205.61 187,266.32 193.65,308.32" fill="none" id="IEvo-backto-IEntity" style="stroke:#09B620;stroke-width:1;"/><polygon fill="none" points="150.99,93.01,149.7527,111.9433,161.3601,108.899,150.99,93.01" style="stroke:#09B620;stroke-width:1;"/></g><!--reverse link ID to IEntity--><g class="link" data-entity-1="ID" data-entity-2="IEntity" data-source-line="75" data-uid="lnk9" id="link_ID_IEntity"><path codeLine="75" d="M120.6556,253.7278 C136.6556,274.7678 145.22,286.03 162.1,308.21" fill="none" id="ID-backto-IEntity" style="stroke:#09B620;stroke-width:1;"/><polygon fill="none" points="109.76,239.4,115.8797,257.3597,125.4316,250.0959,109.76,239.4" style="stroke:#09B620;stroke-width:1;"/></g><!--reverse link ITime to IEntity--><g class="link" data-entity-1="ITime" data-entity-2="IEntity" data-source-line="76" data-uid="lnk10" id="link_ITime_IEntity"><path codeLine="76" d="M299.5964,252.6866 C280.3664,273.7266 269.12,286.03 248.84,308.21" fill="none" id="ITime-backto-IEntity" style="stroke:#09B620;stroke-width:1;"/><polygon fill="none" points="311.74,239.4,295.1676,248.6387,304.0253,256.7344,311.74,239.4" style="stroke:#09B620;stroke-width:1;"/></g><!--reverse link IEntity to EPeerCertificate--><g class="link" data-entity-1="IEntity" data-entity-2="EPeerCertificate" data-source-line="78" data-uid="lnk11" id="link_IEntity_EPeerCertificate"><path codeLine="78" d="M223.2751,430.8298 C229.4451,450.3098 231.53,456.93 239.72,482.83" fill="none" id="IEntity-backto-EPeerCertificate" style="stroke:#09B620;stroke-width:1;"/><polygon fill="none" points="217.84,413.67,217.5552,432.6415,228.9951,429.0181,217.84,413.67" style="stroke:#09B620;stroke-width:1;"/></g><!--reverse link IAiEntity to EPeerCertificate--><g class="link" data-entity-1="IAiEntity" data-entity-2="EPeerCertificate" data-source-line="79" data-uid="lnk12" id="link_IAiEntity_EPeerCertificate"><path codeLine="79" d="M431.4494,440.5685 C425.8794,458.0285 424.9,461.12 417.97,482.85" fill="none" id="IAiEntity-backto-EPeerCertificate" style="stroke:#FFA600;stroke-width:1;"/><polygon fill="none" points="436.92,423.42,425.7332,438.745,437.1655,442.3921,436.92,423.42" style="stroke:#FFA600;stroke-width:1;"/></g><!--link IEvo to ID--><g class="link" data-entity-1="IEvo" data-entity-2="ID" data-source-line="80" data-uid="lnk13" id="link_IEvo_ID"><line style="stroke:none;stroke-width:1;" x1="95.73" x2="97.7064" y1="152.66" y2="148.0672"/></g><!--SRC=[XLLTQzim57tthxYZq3QqXZ96wK88j7K6UHka5FPa5EKw4Kra8yajeUj_dxuYoKxY-I6nxpawzrFI5InGmPBGjxMeMxu2MczhaSatnXiYo0wU0lHi4522SAaXv2hBhg30Yd5qgoHKce24Re1nXQ8Y5BDlAyUOpzvhft3nopuHASxONzWEpq0phfZQU_3kv_B- -rqMqKVcaQeYztSQ2U7OC60okPxVneX6qobyPg2Vcq-fY6Bq2_2zBjzHI5Rpwn7aKtZPDwWNl3gROwzHbVyZVdMy5nC3pulf8OQY7u7HPAieDI-SNJexMuszUTIJDjKwg8RAzOILjaTfmuhY5ZC_um0Q5sdfRD7x6IIjCDxIR-zPrULohr0wpwz89-t3r46Lg7SUN155nl3qvsMsiBm5RgkmNYh1-De9BEnxB_j7vlmUel8ZO2Fox_qMcu8G5ehjPKzo9DtWZXppT6I43IotwMc63b__ZJqffgTpq51B5Sn-8ufd58fLZ1A59-gOGso-DxXsjVS__3SzOfYgbbWsMhriskMMqN6d0paWRtSEfsBVg5hhFGH_fMHhZg8doXeknsd6EHXUNxaLsy3Au0RyQ5zAdVhHV8CVyCjTgy0mRg5CXzsljrCQ5Gwfk-KEJ0H2VS9wEXm0xKL0JuHmND94iJFTLl8KFV4mqA3WiT-Yj00FYQjZNkBeL9z7iIs-qyFT2QHEatf34aNrc2HwwGvnUXPFfPAv2Yf6VB30Zf38T6OnwEXf70h6meb8ChoZp6pKSDUf3OB0hTxXDPSRraXOelf0vF7MardcBfg_UNxOoPqTdSsB8T2TvMVnx62rbAEZeoSMZyOpR7y-kf3pLVt1TO5qW1VfNN-b3VaMAsKm6ry7_WS0]--></g></svg>