<svg xmlns="http://www.w3.org/2000/svg" xmlns:xlink="http://www.w3.org/1999/xlink" contentStyleType="text/css" data-diagram-type="SEQUENCE" height="987px" preserveAspectRatio="none" style="width:934px;height:987px;background:#FFFFFF;" version="1.1" viewBox="0 0 934 987" width="934px" zoomAndPan="magnify"><title>Serialization Flow (to_ai)</title><defs/><g><text fill="#000000" font-family="Verdana" font-size="22" font-weight="bold" lengthAdjust="spacing" textLength="314.9824" x="313.9265" y="37.1182">Serialization Flow (to_ai)</text><g><title>Entity</title><rect fill="#FFFFFF" height="641.585" style="stroke:#000000;stroke-width:1;" width="10" x="221.2559" y="162.5513"/></g><rect fill="#FFFFFF" height="77.3979" style="stroke:#000000;stroke-width:1;" width="573.3589" x="178.8198" y="386.1465"/><rect fill="#FFFFFF" height="99.1973" style="stroke:#000000;stroke-width:1;" width="738.0903" x="178.8198" y="537.1431"/><rect fill="#FFFFFF" height="124.9966" style="stroke:#000000;stroke-width:1;" width="593.3589" x="168.8198" y="650.3403"/><rect fill="#FFFFFF" height="93.1973" style="stroke:#000000;stroke-width:1;" width="573.3589" x="178.8198" y="675.1396"/><g><title>Application</title><rect fill="#000000" fill-opacity="0.00000" height="774.5815" width="8" x="47.5581" y="130.752"/><line style="stroke:#000000;stroke-width:1;" x1="51" x2="51" y1="130.752" y2="905.3335"/></g><g><title>Entity</title><rect fill="#000000" fill-opacity="0.00000" height="774.5815" width="8" x="222.2559" y="130.752"/><line style="stroke:#000000;stroke-width:1;" x1="225.8198" x2="225.8198" y1="130.752" y2="905.3335"/></g><g><title>to_ai()</title><rect fill="#000000" fill-opacity="0.00000" height="774.5815" width="8" x="310.6313" y="130.752"/><line style="stroke:#000000;stroke-width:1;" x1="313.6919" x2="313.6919" y1="130.752" y2="905.3335"/></g><g><title>UAiEntity</title><rect fill="#000000" fill-opacity="0.00000" height="774.5815" width="8" x="499.0366" y="130.752"/><line style="stroke:#000000;stroke-width:1;" x1="502.771" x2="502.771" y1="130.752" y2="905.3335"/></g><g><title>String Buffer</title><rect fill="#000000" fill-opacity="0.00000" height="774.5815" width="8" x="676.1675" y="130.752"/><line style="stroke:#000000;stroke-width:1;" x1="680.1563" x2="680.1563" y1="130.752" y2="905.3335"/></g><g><title>LLM</title><rect fill="#000000" fill-opacity="0.00000" height="774.5815" width="8" x="778.8711" y="130.752"/><line style="stroke:#000000;stroke-width:1;" x1="782.1787" x2="782.1787" y1="130.752" y2="905.3335"/></g><g class="participant participant-head" data-participant="App"><text fill="#000000" font-family="Verdana" font-size="14" lengthAdjust="spacing" textLength="77.1162" x="10" y="127.8125">Application</text><ellipse cx="51.5581" cy="61.7373" fill="#FFFFFF" rx="8" ry="8" style="stroke:#000000;stroke-width:1;"/><path d="M51.5581,69.7373 L51.5581,96.7373 M38.5581,77.7373 L64.5581,77.7373 M51.5581,96.7373 L38.5581,111.7373 M51.5581,96.7373 L64.5581,111.7373" fill="none" style="stroke:#000000;stroke-width:1;"/></g><g class="participant participant-tail" data-participant="App"><text fill="#000000" font-family="Verdana" font-size="14" lengthAdjust="spacing" textLength="77.1162" x="10" y="918.4087">Application</text><ellipse cx="51.5581" cy="930.3481" fill="#FFFFFF" rx="8" ry="8" style="stroke:#000000;stroke-width:1;"/><path d="M51.5581,938.3481 L51.5581,965.3481 M38.5581,946.3481 L64.5581,946.3481 M51.5581,965.3481 L38.5581,980.3481 M51.5581,965.3481 L64.5581,980.3481" fill="none" style="stroke:#000000;stroke-width:1;"/></g><g class="participant participant-head" data-participant="Entity"><rect fill="#FFFFFF" height="31.0146" rx="2.5" ry="2.5" style="stroke:#000000;stroke-width:1;" width="54.8721" x="198.8198" y="98.7373"/><text fill="#000000" font-family="Verdana" font-size="14" lengthAdjust="spacing" textLength="40.8721" x="205.8198" y="119.8125">Entity</text></g><g class="participant participant-tail" data-participant="Entity"><rect fill="#FFFFFF" height="31.0146" rx="2.5" ry="2.5" style="stroke:#000000;stroke-width:1;" width="54.8721" x="198.8198" y="904.3335"/><text fill="#000000" font-family="Verdana" font-size="14" lengthAdjust="spacing" textLength="40.8721" x="205.8198" y="925.4087">Entity</text></g><g class="participant participant-head" data-participant="ToAI"><rect fill="#FFFFFF" height="31.0146" rx="2.5" ry="2.5" style="stroke:#000000;stroke-width:1;" width="61.8789" x="283.6919" y="98.7373"/><text fill="#000000" font-family="Verdana" font-size="14" lengthAdjust="spacing" textLength="47.8789" x="290.6919" y="119.8125">to_ai()</text></g><g class="participant participant-tail" data-participant="ToAI"><rect fill="#FFFFFF" height="31.0146" rx="2.5" ry="2.5" style="stroke:#000000;stroke-width:1;" width="61.8789" x="283.6919" y="904.3335"/><text fill="#000000" font-family="Verdana" font-size="14" lengthAdjust="spacing" textLength="47.8789" x="290.6919" y="925.4087">to_ai()</text></g><g class="participant participant-head" data-participant="Helper"><rect fill="#FFFFFF" height="31.0146" rx="2.5" ry="2.5" style="stroke:#000000;stroke-width:1;" width="78.5313" x="463.771" y="98.7373"/><text fill="#000000" font-family="Verdana" font-size="14" lengthAdjust="spacing" textLength="64.5313" x="470.771" y="119.8125">UAiEntity</text></g><g class="participant participant-tail" data-participant="Helper"><rect fill="#FFFFFF" height="31.0146" rx="2.5" ry="2.5" style="stroke:#000000;stroke-width:1;" width="78.5313" x="463.771" y="904.3335"/><text fill="#000000" font-family="Verdana" font-size="14" lengthAdjust="spacing" textLength="64.5313" x="470.771" y="925.4087">UAiEntity</text></g><g class="participant participant-head" data-participant="Buffer"><rect fill="#FFFFFF" height="31.0146" rx="2.5" ry="2.5" style="stroke:#000000;stroke-width:1;" width="104.0225" x="628.1563" y="98.7373"/><text fill="#000000" font-family="Verdana" font-size="14" lengthAdjust="spacing" textLength="90.0225" x="635.1563" y="119.8125">String Buffer</text></g><g class="participant participant-tail" data-participant="Buffer"><rect fill="#FFFFFF" height="31.0146" rx="2.5" ry="2.5" style="stroke:#000000;stroke-width:1;" width="104.0225" x="628.1563" y="904.3335"/><text fill="#000000" font-family="Verdana" font-size="14" lengthAdjust="spacing" textLength="90.0225" x="635.1563" y="925.4087">String Buffer</text></g><g class="participant participant-head" data-participant="LLM"><rect fill="#FFFFFF" height="31.0146" rx="2.5" ry="2.5" style="stroke:#000000;stroke-width:1;" width="41.3848" x="762.1787" y="98.7373"/><text fill="#000000" font-family="Verdana" font-size="14" lengthAdjust="spacing" textLength="27.3848" x="769.1787" y="119.8125">LLM</text></g><g class="participant participant-tail" data-participant="LLM"><rect fill="#FFFFFF" height="31.0146" rx="2.5" ry="2.5" style="stroke:#000000;stroke-width:1;" width="41.3848" x="762.1787" y="904.3335"/><text fill="#000000" font-family="Verdana" font-size="14" lengthAdjust="spacing" textLength="27.3848" x="769.1787" y="925.4087">LLM</text></g><g><title>Entity</title><rect fill="#FFFFFF" height="641.585" style="stroke:#000000;stroke-width:1;" width="10" x="221.2559" y="162.5513"/></g><g class="message" data-participant-1="App" data-participant-2="Entity"><polygon fill="#000000" points="209.2559,158.5513,219.2559,162.5513,209.2559,166.5513,213.2559,162.5513" style="stroke:#000000;stroke-width:1;"/><line style="stroke:#000000;stroke-width:1;" x1="51.5581" x2="215.2559" y1="162.5513" y2="162.5513"/><text fill="#000000" font-family="Verdana" font-size="13" lengthAdjust="spacing" textLength="116.981" x="58.5581" y="157.8218">entity.to_ai(level)</text></g><g class="message" data-participant-1="Entity" data-participant-2="Buffer"><polygon fill="#000000" points="668.1675,188.3506,678.1675,192.3506,668.1675,196.3506,672.1675,192.3506" style="stroke:#000000;stroke-width:1;"/><line style="stroke:#000000;stroke-width:1;" x1="231.2559" x2="674.1675" y1="192.3506" y2="192.3506"/><text fill="#000000" font-family="Verdana" font-size="13" lengthAdjust="spacing" textLength="84.7603" x="238.2559" y="187.6211">create String</text></g><g class="message" data-participant-1="Entity" data-participant-2="Helper"><polygon fill="#000000" points="491.0366,218.1499,501.0366,222.1499,491.0366,226.1499,495.0366,222.1499" style="stroke:#000000;stroke-width:1;"/><line style="stroke:#000000;stroke-width:1;" x1="231.2559" x2="497.0366" y1="222.1499" y2="222.1499"/><text fill="#000000" font-family="Verdana" font-size="13" lengthAdjust="spacing" textLength="188.5635" x="238.2559" y="217.4204">to_ai_start(buffer, entity_id)</text></g><g class="message" data-participant-1="Helper" data-participant-2="Buffer"><polygon fill="#000000" points="668.1675,247.9492,678.1675,251.9492,668.1675,255.9492,672.1675,251.9492" style="stroke:#000000;stroke-width:1;"/><line style="stroke:#000000;stroke-width:1;" x1="503.0366" x2="674.1675" y1="251.9492" y2="251.9492"/><text fill="#000000" font-family="Verdana" font-size="13" lengthAdjust="spacing" textLength="122.1035" x="510.0366" y="247.2197">append "611dd51"</text></g><g class="message" data-participant-1="Entity" data-participant-2="Helper"><polygon fill="#000000" points="491.0366,277.7485,501.0366,281.7485,491.0366,285.7485,495.0366,281.7485" style="stroke:#000000;stroke-width:1;"/><line style="stroke:#000000;stroke-width:1;" x1="231.2559" x2="497.0366" y1="281.7485" y2="281.7485"/><text fill="#000000" font-family="Verdana" font-size="13" lengthAdjust="spacing" textLength="136.1128" x="238.2559" y="277.019">to_ai_hex(buffer, id)</text></g><g class="message" data-participant-1="Helper" data-participant-2="Buffer"><polygon fill="#000000" points="668.1675,307.5479,678.1675,311.5479,668.1675,315.5479,672.1675,311.5479" style="stroke:#000000;stroke-width:1;"/><line style="stroke:#000000;stroke-width:1;" x1="503.0366" x2="674.1675" y1="311.5479" y2="311.5479"/><text fill="#000000" font-family="Verdana" font-size="13" lengthAdjust="spacing" textLength="132.1455" x="510.0366" y="306.8184">append "&#166;abc123..."</text></g><g class="message" data-participant-1="Entity" data-participant-2="Helper"><polygon fill="#000000" points="491.0366,337.3472,501.0366,341.3472,491.0366,345.3472,495.0366,341.3472" style="stroke:#000000;stroke-width:1;"/><line style="stroke:#000000;stroke-width:1;" x1="231.2559" x2="497.0366" y1="341.3472" y2="341.3472"/><text fill="#000000" font-family="Verdana" font-size="13" lengthAdjust="spacing" textLength="121.5957" x="238.2559" y="336.6177">to_ai(buffer, time)</text></g><g class="message" data-participant-1="Helper" data-participant-2="Buffer"><polygon fill="#000000" points="668.1675,367.1465,678.1675,371.1465,668.1675,375.1465,672.1675,371.1465" style="stroke:#000000;stroke-width:1;"/><line style="stroke:#000000;stroke-width:1;" x1="503.0366" x2="674.1675" y1="371.1465" y2="371.1465"/><text fill="#000000" font-family="Verdana" font-size="13" lengthAdjust="spacing" textLength="153.1309" x="510.0366" y="366.417">append "&#166;1763212259"</text></g><path d="M178.8198,386.1465 L255.2026,386.1465 L255.2026,393.9458 L245.2026,403.9458 L178.8198,403.9458 L178.8198,386.1465" fill="#FFFFFF" style="stroke:#000000;stroke-width:1;"/><rect fill="none" height="77.3979" style="stroke:#000000;stroke-width:1;" width="573.3589" x="178.8198" y="386.1465"/><text fill="#000000" font-family="Verdana" font-size="13" font-weight="bold" lengthAdjust="spacing" textLength="31.3828" x="193.8198" y="400.2163">loop</text><text fill="#000000" font-family="Verdana" font-size="11" font-weight="bold" lengthAdjust="spacing" textLength="93.2637" x="270.2026" y="399.2056">[for each field]</text><g class="message" data-participant-1="Entity" data-participant-2="Helper"><polygon fill="#000000" points="491.0366,421.7451,501.0366,425.7451,491.0366,429.7451,495.0366,425.7451" style="stroke:#000000;stroke-width:1;"/><line style="stroke:#000000;stroke-width:1;" x1="231.2559" x2="497.0366" y1="425.7451" y2="425.7451"/><text fill="#000000" font-family="Verdana" font-size="13" lengthAdjust="spacing" textLength="128.3306" x="238.2559" y="421.0156">to_ai*(buffer, field)</text></g><g class="message" data-participant-1="Helper" data-participant-2="Buffer"><polygon fill="#000000" points="668.1675,451.5444,678.1675,455.5444,668.1675,459.5444,672.1675,455.5444" style="stroke:#000000;stroke-width:1;"/><line style="stroke:#000000;stroke-width:1;" x1="503.0366" x2="674.1675" y1="455.5444" y2="455.5444"/><text fill="#000000" font-family="Verdana" font-size="13" lengthAdjust="spacing" textLength="105.5234" x="510.0366" y="450.8149">append "&#166;value"</text></g><g class="message" data-participant-1="Entity" data-participant-2="Helper"><polygon fill="#000000" points="491.0366,488.3438,501.0366,492.3438,491.0366,496.3438,495.0366,492.3438" style="stroke:#000000;stroke-width:1;"/><line style="stroke:#000000;stroke-width:1;" x1="231.2559" x2="497.0366" y1="492.3438" y2="492.3438"/><text fill="#000000" font-family="Verdana" font-size="13" lengthAdjust="spacing" textLength="115.5527" x="238.2559" y="487.6143">to_ai_end(buffer)</text></g><g class="message" data-participant-1="Helper" data-participant-2="Buffer"><polygon fill="#000000" points="668.1675,518.1431,678.1675,522.1431,668.1675,526.1431,672.1675,522.1431" style="stroke:#000000;stroke-width:1;"/><line style="stroke:#000000;stroke-width:1;" x1="503.0366" x2="674.1675" y1="522.1431" y2="522.1431"/><text fill="#000000" font-family="Verdana" font-size="13" lengthAdjust="spacing" textLength="70.4844" x="510.0366" y="517.4136">append "&#166;"</text></g><path d="M178.8198,537.1431 L242.8691,537.1431 L242.8691,544.9424 L232.8691,554.9424 L178.8198,554.9424 L178.8198,537.1431" fill="#FFFFFF" style="stroke:#000000;stroke-width:1;"/><rect fill="none" height="99.1973" style="stroke:#000000;stroke-width:1;" width="738.0903" x="178.8198" y="537.1431"/><text fill="#000000" font-family="Verdana" font-size="13" font-weight="bold" lengthAdjust="spacing" textLength="19.0493" x="193.8198" y="551.2129">alt</text><text fill="#000000" font-family="Verdana" font-size="11" font-weight="bold" lengthAdjust="spacing" textLength="129.3735" x="257.8691" y="550.2021">[has nested entities]</text><g class="message" data-participant-1="Entity" data-participant-2="Helper"><polygon fill="#000000" points="491.0366,572.7417,501.0366,576.7417,491.0366,580.7417,495.0366,576.7417" style="stroke:#000000;stroke-width:1;"/><line style="stroke:#000000;stroke-width:1;" x1="231.2559" x2="497.0366" y1="576.7417" y2="576.7417"/><text fill="#000000" font-family="Verdana" font-size="13" lengthAdjust="spacing" textLength="247.7808" x="238.2559" y="572.0122">to_ai_entity(buffer, level, key, entity)</text></g><g class="message" data-participant-1="Helper" data-participant-2="Buffer"><polygon fill="#000000" points="668.1675,621.3403,678.1675,625.3403,668.1675,629.3403,672.1675,625.3403" style="stroke:#000000;stroke-width:1;"/><line style="stroke:#000000;stroke-width:1;" x1="503.0366" x2="674.1675" y1="625.3403" y2="625.3403"/><text fill="#000000" font-family="Verdana" font-size="13" lengthAdjust="spacing" textLength="58.6143" x="510.0366" y="604.8115">append "</text><text fill="#000000" font-family="Verdana" font-size="13" lengthAdjust="spacing" textLength="63.356" x="510.0366" y="620.6108">1&#166;key&#166;..."</text></g><path d="M685,589.7417 L685,630.7417 L901,630.7417 L901,599.7417 L891,589.7417 L685,589.7417" fill="#FFFFFF" style="stroke:#000000;stroke-width:1;"/><path d="M891,589.7417 L891,599.7417 L901,599.7417 L891,589.7417" fill="#FFFFFF" style="stroke:#000000;stroke-width:1;"/><text fill="#000000" font-family="Verdana" font-size="13" lengthAdjust="spacing" textLength="168.9365" x="691" y="607.8115">Nested entities at level+1</text><text fill="#000000" font-family="Verdana" font-size="13" lengthAdjust="spacing" textLength="195.7427" x="691" y="623.6108">Format: level&#166;key&#166;EntityID&#166;...</text><path d="M168.8198,650.3403 L232.8691,650.3403 L232.8691,658.1396 L222.8691,668.1396 L168.8198,668.1396 L168.8198,650.3403" fill="#FFFFFF" style="stroke:#000000;stroke-width:1;"/><rect fill="none" height="124.9966" style="stroke:#000000;stroke-width:1;" width="593.3589" x="168.8198" y="650.3403"/><text fill="#000000" font-family="Verdana" font-size="13" font-weight="bold" lengthAdjust="spacing" textLength="19.0493" x="183.8198" y="664.4102">alt</text><text fill="#000000" font-family="Verdana" font-size="11" font-weight="bold" lengthAdjust="spacing" textLength="70.6299" x="247.8691" y="663.3994">[has maps]</text><path d="M178.8198,675.1396 L255.2026,675.1396 L255.2026,682.939 L245.2026,692.939 L178.8198,692.939 L178.8198,675.1396" fill="#FFFFFF" style="stroke:#000000;stroke-width:1;"/><rect fill="none" height="93.1973" style="stroke:#000000;stroke-width:1;" width="573.3589" x="178.8198" y="675.1396"/><text fill="#000000" font-family="Verdana" font-size="13" font-weight="bold" lengthAdjust="spacing" textLength="31.3828" x="193.8198" y="689.2095">loop</text><text fill="#000000" font-family="Verdana" font-size="11" font-weight="bold" lengthAdjust="spacing" textLength="129.3198" x="270.2026" y="688.1987">[for each map entry]</text><g class="message" data-participant-1="Entity" data-participant-2="Helper"><polygon fill="#000000" points="491.0366,710.7383,501.0366,714.7383,491.0366,718.7383,495.0366,714.7383" style="stroke:#000000;stroke-width:1;"/><line style="stroke:#000000;stroke-width:1;" x1="231.2559" x2="497.0366" y1="714.7383" y2="714.7383"/><text fill="#000000" font-family="Verdana" font-size="13" lengthAdjust="spacing" textLength="229.9312" x="238.2559" y="710.0088">to_ai_map(buffer, level, key, map)</text></g><g class="message" data-participant-1="Helper" data-participant-2="Buffer"><polygon fill="#000000" points="668.1675,756.3369,678.1675,760.3369,668.1675,764.3369,672.1675,760.3369" style="stroke:#000000;stroke-width:1;"/><line style="stroke:#000000;stroke-width:1;" x1="503.0366" x2="674.1675" y1="760.3369" y2="760.3369"/><text fill="#000000" font-family="Verdana" font-size="13" lengthAdjust="spacing" textLength="58.6143" x="510.0366" y="739.8081">append "</text><text fill="#000000" font-family="Verdana" font-size="13" lengthAdjust="spacing" textLength="63.356" x="510.0366" y="755.6074">1&#166;key&#166;..."</text></g><g class="message" data-participant-1="Entity" data-participant-2="App"><polygon fill="#000000" points="62.5581,800.1362,52.5581,804.1362,62.5581,808.1362,58.5581,804.1362" style="stroke:#000000;stroke-width:1;"/><line style="stroke:#000000;stroke-width:1;" x1="56.5581" x2="225.2559" y1="804.1362" y2="804.1362"/><text fill="#000000" font-family="Verdana" font-size="13" lengthAdjust="spacing" textLength="145.6978" x="68.5581" y="799.4067">return compact_string</text></g><g class="message" data-participant-1="App" data-participant-2="LLM"><polygon fill="#000000" points="770.8711,856.6345,780.8711,860.6345,770.8711,864.6345,774.8711,860.6345" style="stroke:#000000;stroke-width:1;"/><line style="stroke:#000000;stroke-width:1;" x1="51.5581" x2="776.8711" y1="860.6345" y2="860.6345"/><text fill="#000000" font-family="Verdana" font-size="13" lengthAdjust="spacing" textLength="136.1255" x="58.5581" y="855.905">send compact_string</text></g><path d="M787,817.1362 L787,890.1362 L927,890.1362 L927,827.1362 L917,817.1362 L787,817.1362" fill="#FFFFFF" style="stroke:#000000;stroke-width:1;"/><path d="M917,817.1362 L917,827.1362 L927,827.1362 L917,817.1362" fill="#FFFFFF" style="stroke:#000000;stroke-width:1;"/><text fill="#000000" font-family="Verdana" font-size="13" lengthAdjust="spacing" textLength="119.9644" x="793" y="835.2061">Optimized format:</text><text fill="#000000" font-family="Verdana" font-size="13" lengthAdjust="spacing" textLength="108.8306" x="793" y="851.0054">- Minimal tokens</text><text fill="#000000" font-family="Verdana" font-size="13" lengthAdjust="spacing" textLength="90.3398" x="793" y="866.8047">- Fast parsing</text><text fill="#000000" font-family="Verdana" font-size="13" lengthAdjust="spacing" textLength="118.1362" x="793" y="882.604">- Human readable</text><!--SRC=[bLJDZjem4BxxAQRfXRIxI66rMvL39Vg3TgNTzh3jhH8QaW4i7Djo32txG3m8JzQ97I922wY-n9xvvflFCvwyyWig2Qn2gKMrbDgYmnAcc2_dpgnqySaeu-3rE2mXlFIAu9cSH2LVq4kZOQpCB-XvCq6P2e6vvu1aPAsIUG0aW1NmMJ2tbxcqg3qaNpHpRO8lRhlkGDTBW_-x6JrqlJz6yY3-dfGbrqKyUoVr73wkPZDo0HMtNTJZurFmyLS8bWZN7nerC0GActvKecXDAgrl9zVeQQzPD6YEY_mSbpkg4L710I3AP41Wd5IUbVIc8UggIJQHHIeQt24bMakwWEGkouhYDal4QTe5_Mv9Bx3jjZZDiy5Dlzy_mzYoULdI1RxitTtD81iCRjypeJB6memV0s6-W9aaLGZWTIhHcpPJmAO1V3RT6jMA4i6dCmLXRqDyGJnBHkLXmUz1K-MfY4sHL9sLFOcjQyM7bt85Izhikthn9Zzrjjjom6uRMb6ZjU4dvEHyuSEnNb-xeW1zpFKsQo5ZuqhqmsXlAAFkXy-1F23hd3L_BDp-pYNQUD5ktzXSftIRDid9GZ3qdrLWUzf6_ryPQeL7xQt7T0YE_Cffo4rfUIPvcCAm5VJNW3PJpHFEKLMTvoZcgDBVBBzp-SA5diLY1kirF4ajIrHyrINfgZ6EiVB0VvIg9egc-rM9ckLXWLCLIXnh_GS0]--></g></svg>