<svg xmlns="http://www.w3.org/2000/svg" xmlns:xlink="http://www.w3.org/1999/xlink" contentStyleType="text/css" data-diagram-type="DESCRIPTION" height="653px" preserveAspectRatio="none" style="width:2518px;height:653px;background:#FFFFFF;" version="1.1" viewBox="0 0 2518 653" width="2518px" zoomAndPan="magnify"><title>Token Optimization Strategies</title><defs/><g><text fill="#000000" font-family="Verdana" font-size="22" font-weight="bold" lengthAdjust="spacing" textLength="375.2246" x="1067.2441" y="37.1182">Token Optimization Strategies</text><!--cluster JSON--><g class="cluster" data-entity="JSON" data-source-line="6" data-uid="ent0002" id="cluster_JSON"><rect fill="#FFE6E6" height="275.5" rx="2.5" ry="2.5" style="stroke:#000000;stroke-width:1;" width="525" x="561" y="59.7373"/><text fill="#000000" font-family="Verdana" font-size="14" font-weight="bold" lengthAdjust="spacing" textLength="102.4775" x="772.2612" y="75.8125">JSON Format</text></g><!--cluster AI--><g class="cluster" data-entity="AI" data-source-line="20" data-uid="ent0011" id="cluster_AI"><rect fill="#E6FFE6" height="320" rx="2.5" ry="2.5" style="stroke:#000000;stroke-width:1;" width="541" x="1126" y="211.7373"/><text fill="#000000" font-family="Verdana" font-size="14" font-weight="bold" lengthAdjust="spacing" textLength="79.5156" x="1356.7422" y="227.8125">AI Format</text></g><!--cluster OPT--><g class="cluster" data-entity="OPT" data-source-line="35" data-uid="ent0020" id="cluster_OPT"><rect fill="#E6E6FF" height="247.5" rx="2.5" ry="2.5" style="stroke:#000000;stroke-width:1;" width="1074" x="12" y="400.2373"/><text fill="#000000" font-family="Verdana" font-size="14" font-weight="bold" lengthAdjust="spacing" textLength="194.8652" x="451.5674" y="416.3125">Optimization Techniques</text></g><!--entity JFN--><g class="entity" data-entity="JFN" data-source-line="7" data-uid="ent0003" id="entity_JFN"><rect fill="#FFFFFF" height="37.0146" rx="2.5" ry="2.5" style="stroke:#000000;stroke-width:1;" width="105.8457" x="832" y="103.7373"/><text fill="#000000" font-family="Verdana" font-size="14" lengthAdjust="spacing" textLength="85.8457" x="842" y="127.8125">Field Names</text></g><!--entity JQ--><g class="entity" data-entity="JQ" data-source-line="8" data-uid="ent0004" id="entity_JQ"><rect fill="#FFFFFF" height="37.0146" rx="2.5" ry="2.5" style="stroke:#000000;stroke-width:1;" width="69.5264" x="973" y="103.7373"/><text fill="#000000" font-family="Verdana" font-size="14" lengthAdjust="spacing" textLength="49.5264" x="983" y="127.8125">Quotes</text></g><!--entity JB--><g class="entity" data-entity="JB" data-source-line="9" data-uid="ent0005" id="entity_JB"><rect fill="#FFFFFF" height="37.0146" rx="2.5" ry="2.5" style="stroke:#000000;stroke-width:1;" width="80.71" x="856.5" y="264.2373"/><text fill="#000000" font-family="Verdana" font-size="14" lengthAdjust="spacing" textLength="60.71" x="866.5" y="288.3125">Brackets</text></g><!--entity JC--><g class="entity" data-entity="JC" data-source-line="10" data-uid="ent0006" id="entity_JC"><rect fill="#FFFFFF" height="37.0146" rx="2.5" ry="2.5" style="stroke:#000000;stroke-width:1;" width="81.209" x="972.5" y="264.2373"/><text fill="#000000" font-family="Verdana" font-size="14" lengthAdjust="spacing" textLength="61.209" x="982.5" y="288.3125">Commas</text></g><!--entity JW--><g class="entity" data-entity="JW" data-source-line="11" data-uid="ent0007" id="entity_JW"><rect fill="#FFFFFF" height="37.0146" rx="2.5" ry="2.5" style="stroke:#000000;stroke-width:1;" width="100.459" x="653" y="103.7373"/><text fill="#000000" font-family="Verdana" font-size="14" lengthAdjust="spacing" textLength="80.459" x="663" y="127.8125">Whitespace</text></g><g class="entity" data-entity="GMN8" data-source-line="14" data-uid="ent0009" id="entity_GMN8"><path d="M585,254.2373 L585,311.6353 A0,0 0 0 0 585,311.6353 L820.811,311.6353 A0,0 0 0 0 820.811,311.6353 L820.811,264.2373 L810.811,254.2373 L707,254.2373 L703,140.8073 L699,254.2373 L585,254.2373 A0,0 0 0 0 585,254.2373" fill="#FFFFFF" style="stroke:#000000;stroke-width:1;"/><path d="M810.811,254.2373 L810.811,264.2373 L820.811,264.2373 L810.811,254.2373" fill="#FFFFFF" style="stroke:#000000;stroke-width:1;"/><text fill="#000000" font-family="Verdana" font-size="13" lengthAdjust="spacing" textLength="61.6802" x="591" y="272.3071">Example:</text><text fill="#000000" font-family="Verdana" font-size="13" lengthAdjust="spacing" textLength="214.811" x="591" y="288.1064">{"id": "abc123", "name": "test"}</text><text fill="#000000" font-family="Verdana" font-size="13" lengthAdjust="spacing" textLength="207.0605" x="591" y="303.9058">~800 tokens for complex entity</text></g><!--entity AID--><g class="entity" data-entity="AID" data-source-line="21" data-uid="ent0012" id="entity_AID"><rect fill="#FFFFFF" height="54.0293" rx="2.5" ry="2.5" style="stroke:#000000;stroke-width:1;" width="84.3672" x="1383" y="255.7373"/><text fill="#000000" font-family="Verdana" font-size="14" lengthAdjust="spacing" textLength="62.4736" x="1393" y="279.8125">Entity ID</text><text fill="#000000" font-family="Verdana" font-size="14" lengthAdjust="spacing" textLength="64.3672" x="1393" y="296.8271">(7 chars)</text></g><!--entity AD--><g class="entity" data-entity="AD" data-source-line="22" data-uid="ent0013" id="entity_AD"><rect fill="#FFFFFF" height="54.0293" rx="2.5" ry="2.5" style="stroke:#000000;stroke-width:1;" width="84.1006" x="1502" y="255.7373"/><text fill="#000000" font-family="Verdana" font-size="14" lengthAdjust="spacing" textLength="64.1006" x="1512" y="279.8125">Delimiter</text><text fill="#000000" font-family="Verdana" font-size="14" lengthAdjust="spacing" textLength="57.0732" x="1512" y="296.8271">(1 char)</text></g><!--entity AV--><g class="entity" data-entity="AV" data-source-line="23" data-uid="ent0014" id="entity_AV"><rect fill="#FFFFFF" height="37.0146" rx="2.5" ry="2.5" style="stroke:#000000;stroke-width:1;" width="103.2412" x="1402.5" y="452.7373"/><text fill="#000000" font-family="Verdana" font-size="14" lengthAdjust="spacing" textLength="83.2412" x="1412.5" y="476.8125">Values Only</text></g><!--entity ANQ--><g class="entity" data-entity="ANQ" data-source-line="24" data-uid="ent0015" id="entity_ANQ"><rect fill="#FFFFFF" height="54.0293" rx="2.5" ry="2.5" style="stroke:#000000;stroke-width:1;" width="101.9902" x="1541" y="444.2373"/><text fill="#000000" font-family="Verdana" font-size="14" lengthAdjust="spacing" textLength="73.418" x="1551" y="468.3125">No Quotes</text><text fill="#000000" font-family="Verdana" font-size="14" lengthAdjust="spacing" textLength="81.9902" x="1551" y="485.3271">(primitives)</text></g><!--entity ACI--><g class="entity" data-entity="ACI" data-source-line="25" data-uid="ent0016" id="entity_ACI"><rect fill="#FFFFFF" height="37.0146" rx="2.5" ry="2.5" style="stroke:#000000;stroke-width:1;" width="110.7266" x="1207.5" y="264.2373"/><text fill="#000000" font-family="Verdana" font-size="14" lengthAdjust="spacing" textLength="90.7266" x="1217.5" y="288.3125">Compact IDs</text></g><g class="entity" data-entity="GMN17" data-source-line="28" data-uid="ent0018" id="entity_GMN17"><path d="M1158.5,434.7373 L1158.5,507.9346 A0,0 0 0 0 1158.5,507.9346 L1367.1177,507.9346 A0,0 0 0 0 1367.1177,507.9346 L1367.1177,444.7373 L1357.1177,434.7373 L1267,434.7373 L1263,301.2873 L1259,434.7373 L1158.5,434.7373 A0,0 0 0 0 1158.5,434.7373" fill="#FFFFFF" style="stroke:#000000;stroke-width:1;"/><path d="M1357.1177,434.7373 L1357.1177,444.7373 L1367.1177,444.7373 L1357.1177,434.7373" fill="#FFFFFF" style="stroke:#000000;stroke-width:1;"/><text fill="#000000" font-family="Verdana" font-size="13" lengthAdjust="spacing" textLength="61.6802" x="1164.5" y="452.8071">Example:</text><text fill="#000000" font-family="Verdana" font-size="13" lengthAdjust="spacing" textLength="141.5654" x="1164.5" y="468.6064">611dd51&#166;abc123&#166;test</text><text fill="#000000" font-family="Verdana" font-size="13" lengthAdjust="spacing" textLength="187.6177" x="1164.5" y="484.4058">~507 tokens for same entity</text><text fill="#000000" font-family="Verdana" font-size="13" lengthAdjust="spacing" textLength="101.4038" x="1164.5" y="500.2051">40% reduction!</text></g><!--entity O1--><g class="entity" data-entity="O1" data-source-line="36" data-uid="ent0021" id="entity_O1"><rect fill="#FFFFFF" height="54.0293" rx="2.5" ry="2.5" style="stroke:#000000;stroke-width:1;" width="121.835" x="921" y="444.2373"/><text fill="#000000" font-family="Verdana" font-size="14" lengthAdjust="spacing" textLength="101.835" x="931" y="468.3125">Hex Entity IDs</text><text fill="#000000" font-family="Verdana" font-size="14" lengthAdjust="spacing" textLength="60.8125" x="931" y="485.3271">(28 bits)</text></g><!--entity O2--><g class="entity" data-entity="O2" data-source-line="37" data-uid="ent0022" id="entity_O2"><rect fill="#FFFFFF" height="54.0293" rx="2.5" ry="2.5" style="stroke:#000000;stroke-width:1;" width="144.7627" x="740.5" y="444.2373"/><text fill="#000000" font-family="Verdana" font-size="14" lengthAdjust="spacing" textLength="124.7627" x="750.5" y="468.3125">Omit Field Names</text><text fill="#000000" font-family="Verdana" font-size="14" lengthAdjust="spacing" textLength="114.3721" x="750.5" y="485.3271">(schema-based)</text></g><!--entity O3--><g class="entity" data-entity="O3" data-source-line="38" data-uid="ent0023" id="entity_O3"><rect fill="#FFFFFF" height="54.0293" rx="2.5" ry="2.5" style="stroke:#000000;stroke-width:1;" width="132.1982" x="573" y="444.2373"/><text fill="#000000" font-family="Verdana" font-size="14" lengthAdjust="spacing" textLength="112.1982" x="583" y="468.3125">Single Delimiter</text><text fill="#000000" font-family="Verdana" font-size="14" lengthAdjust="spacing" textLength="19.0723" x="583" y="485.3271">(&#166;)</text></g><!--entity O4--><g class="entity" data-entity="O4" data-source-line="39" data-uid="ent0024" id="entity_O4"><rect fill="#FFFFFF" height="37.0146" rx="2.5" ry="2.5" style="stroke:#000000;stroke-width:1;" width="124.3506" x="36" y="452.7373"/><text fill="#000000" font-family="Verdana" font-size="14" lengthAdjust="spacing" textLength="104.3506" x="46" y="476.8125">No Whitespace</text></g><!--entity O5--><g class="entity" data-entity="O5" data-source-line="40" data-uid="ent0025" id="entity_O5"><rect fill="#FFFFFF" height="37.0146" rx="2.5" ry="2.5" style="stroke:#000000;stroke-width:1;" width="161.6816" x="195" y="452.7373"/><text fill="#000000" font-family="Verdana" font-size="14" lengthAdjust="spacing" textLength="141.6816" x="205" y="476.8125">Primitives Unquoted</text></g><!--entity O6--><g class="entity" data-entity="O6" data-source-line="41" data-uid="ent0026" id="entity_O6"><rect fill="#FFFFFF" height="37.0146" rx="2.5" ry="2.5" style="stroke:#000000;stroke-width:1;" width="145.6445" x="392" y="452.7373"/><text fill="#000000" font-family="Verdana" font-size="14" lengthAdjust="spacing" textLength="125.6445" x="402" y="476.8125">Base64 for Binary</text></g><!--entity O7--><g class="entity" data-entity="O7" data-source-line="42" data-uid="ent0027" id="entity_O7"><rect fill="#FFFFFF" height="37.0146" rx="2.5" ry="2.5" style="stroke:#000000;stroke-width:1;" width="163.2881" x="36.5" y="586.7373"/><text fill="#000000" font-family="Verdana" font-size="14" lengthAdjust="spacing" textLength="143.2881" x="46.5" y="610.8125">Level-Based Nesting</text></g><g class="entity" data-entity="GMN30" data-source-line="49" data-uid="ent0031" id="entity_GMN30"><path d="M1691,450.2373 L1691,491.8359 L1849.1982,491.8359 L1849.1982,460.2373 L1839.1982,450.2373 L1691,450.2373" fill="#FFFFFF" style="stroke:#000000;stroke-width:1;"/><path d="M1839.1982,450.2373 L1839.1982,460.2373 L1849.1982,460.2373 L1839.1982,450.2373" fill="#FFFFFF" style="stroke:#000000;stroke-width:1;"/><text fill="#000000" font-family="Verdana" font-size="13" lengthAdjust="spacing" textLength="137.1982" x="1697" y="468.3071">611dd51 vs "ETest0"</text><text fill="#000000" font-family="Verdana" font-size="13" lengthAdjust="spacing" textLength="129.4033" x="1697" y="484.1064">1 token vs 2 tokens</text></g><g class="entity" data-entity="GMN33" data-source-line="54" data-uid="ent0034" id="entity_GMN33"><path d="M1884.5,450.2373 L1884.5,491.8359 L2081.2222,491.8359 L2081.2222,460.2373 L2071.2222,450.2373 L1884.5,450.2373" fill="#FFFFFF" style="stroke:#000000;stroke-width:1;"/><path d="M2071.2222,450.2373 L2071.2222,460.2373 L2081.2222,460.2373 L2071.2222,450.2373" fill="#FFFFFF" style="stroke:#000000;stroke-width:1;"/><text fill="#000000" font-family="Verdana" font-size="13" lengthAdjust="spacing" textLength="175.7222" x="1890.5" y="468.3071">Schema provides structure</text><text fill="#000000" font-family="Verdana" font-size="13" lengthAdjust="spacing" textLength="142.7397" x="1890.5" y="484.1064">LLM knows field order</text></g><g class="entity" data-entity="GMN36" data-source-line="59" data-uid="ent0037" id="entity_GMN36"><path d="M2116.5,450.2373 L2116.5,491.8359 L2287.6348,491.8359 L2287.6348,460.2373 L2277.6348,450.2373 L2116.5,450.2373" fill="#FFFFFF" style="stroke:#000000;stroke-width:1;"/><path d="M2277.6348,450.2373 L2277.6348,460.2373 L2287.6348,460.2373 L2277.6348,450.2373" fill="#FFFFFF" style="stroke:#000000;stroke-width:1;"/><text fill="#000000" font-family="Verdana" font-size="13" lengthAdjust="spacing" textLength="75.1943" x="2122.5" y="468.3071">&#166; = 1 token</text><text fill="#000000" font-family="Verdana" font-size="13" lengthAdjust="spacing" textLength="150.1348" x="2122.5" y="484.1064">vs {, }, :, , = 4 tokens</text></g><g class="entity" data-entity="GMN39" data-source-line="64" data-uid="ent0040" id="entity_GMN39"><path d="M2322.5,450.2373 L2322.5,491.8359 L2511.7129,491.8359 L2511.7129,460.2373 L2501.7129,450.2373 L2322.5,450.2373" fill="#FFFFFF" style="stroke:#000000;stroke-width:1;"/><path d="M2501.7129,450.2373 L2501.7129,460.2373 L2511.7129,460.2373 L2501.7129,450.2373" fill="#FFFFFF" style="stroke:#000000;stroke-width:1;"/><text fill="#000000" font-family="Verdana" font-size="13" lengthAdjust="spacing" textLength="168.2129" x="2328.5" y="468.3071">AQIDBAU= vs [1,2,3,4,5]</text><text fill="#000000" font-family="Verdana" font-size="13" lengthAdjust="spacing" textLength="144.4409" x="2328.5" y="484.1064">2 tokens vs 11 tokens</text></g><!--link JSON to AI--><g class="link" data-entity-1="JSON" data-entity-2="AI" data-source-line="45" data-uid="lnk28" id="link_JSON_AI"><path d="M1086.0643,146.0601 C1086.1414,146.2783 1086.2189,146.4977 1086.2968,146.7183 C1086.6085,147.6006 1086.9269,148.5015 1087.2514,149.4201 C1092.4441,164.1173 1099.2281,183.3186 1106.0113,202.5173 C1112.7944,221.7161 1119.5766,240.9123 1124.7655,255.5995 C1125.0898,256.5174 1125.4079,257.4178 1125.7193,258.2994 C1125.7972,258.5198 1123.876,253.0817 1123.953,253.2998" fill="none" id="JSON-to-AI" style="stroke:#000000;stroke-width:1;"/><polygon fill="#000000" points="1125.9517,258.9571,1126.7252,249.1387,1124.2861,254.2427,1119.1821,251.8036,1125.9517,258.9571" style="stroke:#000000;stroke-width:1;"/><text fill="#000000" font-family="Verdana" font-size="13" lengthAdjust="spacing" textLength="57.8081" x="1100" y="184.8071">Optimize</text></g><!--link AI to OPT--><g class="link" data-entity-1="AI" data-entity-2="OPT" data-source-line="46" data-uid="lnk29" id="link_AI_OPT"><path d="M1125.921,308.561 C1125.8854,308.6715 1125.8497,308.7823 1125.8139,308.8934 C1125.6708,309.3375 1125.5266,309.7856 1125.3813,310.2373 C1120.73,324.6923 1114.945,342.9173 1110,359.2373 C1102.67,383.4223 1094.8025,410.6898 1088.7025,432.1461 C1087.94,434.8281 1087.2051,437.4193 1086.5024,439.9024 C1086.4145,440.2128 1086.3272,440.5215 1086.2403,440.8284 C1086.1969,440.9819 1087.7864,435.3614 1087.7432,435.514" fill="none" id="AI-to-OPT" style="stroke:#000000;stroke-width:1;"/><polygon fill="#000000" points="1086.1105,441.2876,1092.4086,433.7157,1087.4711,436.4763,1084.7106,431.5387,1086.1105,441.2876" style="stroke:#000000;stroke-width:1;"/><text fill="#000000" font-family="Verdana" font-size="13" lengthAdjust="spacing" textLength="30.8052" x="1111" y="373.3071">Uses</text></g><!--link O1 to GMN30--><g class="link" data-entity-1="O1" data-entity-2="GMN30" data-source-line="49" data-uid="lnk32" id="link_O1_GMN30"><path d="M993.69,444.2173 C1006.65,418.3473 1030.33,381.3073 1064.5,367.7373 C1094.29,355.9073 1611.27,357.0773 1641.5,367.7373 C1687.7,384.0273 1729.51,424.7373 1752.19,449.9673" fill="none" id="O1-GMN30" style="stroke:#000000;stroke-width:1;stroke-dasharray:7.0,7.0;"/></g><!--link O2 to GMN33--><g class="link" data-entity-1="O2" data-entity-2="GMN33" data-source-line="54" data-uid="lnk35" id="link_O2_GMN33"><path d="M831.72,444.0173 C850.9,418.7873 883.27,382.9173 921.5,367.7373 C969.42,348.7073 1800.72,351.0473 1849.5,367.7373 C1896.95,383.9773 1940.57,424.6973 1964.31,449.9573" fill="none" id="O2-GMN33" style="stroke:#000000;stroke-width:1;stroke-dasharray:7.0,7.0;"/></g><!--link O3 to GMN36--><g class="link" data-entity-1="O3" data-entity-2="GMN36" data-source-line="59" data-uid="lnk38" id="link_O3_GMN36"><path d="M655.99,443.7973 C673.54,418.3973 703.54,382.4173 740.5,367.7373 C775.12,353.9873 2046.57,354.7973 2081.5,367.7373 C2125.72,384.1173 2164.63,424.7973 2185.59,449.9973" fill="none" id="O3-GMN36" style="stroke:#000000;stroke-width:1;stroke-dasharray:7.0,7.0;"/></g><!--link O6 to GMN39--><g class="link" data-entity-1="O6" data-entity-2="GMN39" data-source-line="64" data-uid="lnk41" id="link_O6_GMN39"><path d="M477.22,452.5873 C494.81,427.6573 529.88,384.6573 572.5,367.7373 C616.78,350.1573 2242.54,351.9773 2287.5,367.7373 C2333.94,384.0173 2376.12,424.7273 2399.01,449.9673" fill="none" id="O6-GMN39" style="stroke:#000000;stroke-width:1;stroke-dasharray:7.0,7.0;"/></g><!--SRC=[bPJVRjem5CRlynIdgIPjKf081LeXTH9_DIP6Yg3jnROBaxXWaTYfOsWxn1w71-79Tcm7HaEtQRu0sUVpyV7lEywPcjE4GXeJnfrimNXA94bWIiB5J8ebZzeY5XBEUsOuZc8gfZ0H2yeXI1LBs0-YcE0mLf8eEcCqSnn9GqNu38Nkvt4mX9wG2L4ka0pC7BDrwzqwh1t0SQJkCHf7C2G9pQowDonAHakXzj5HCTYIM3TLURXL3BT5af0ys2u6x-SC4wSaf5PmRmJcX-EHC1LAYSJCzUW-aoIDQUEmi7PPv3R09TFGhrou7hWSxw5NCAroDmVXpwjo6PGccC43iWs5JlGCb2FS5oEZF3A7EfjNC9lzOvGuE-_MDSfJa5sJ2_gTR_pz9OHp8hCF-QPEKTkXCTgeg4IjRxIvz4HvH-8bpI3WyOjLt1KLGm7M8CoLIfsMhUZ-wE7e3KCGkC8whIlDTly_gTTzFufg_cvhiU-s6lPlrBNovJ7g31qvvgn7jVmEIugMeMxZix_XVzNl4nhEENjSvhqOt4oq6zgFKpS-eRi7HpIQoXLCcSgv17vH7o0tE7eBk2CByPsIqfHaDCgtLOhRnipy7_kvs-RYYpUSAdHyK2rgRWuEmYr_rBv6LbaxUNXOLxrg6BSO9zBsHr0lwWPqHUEILkFLq2cis2elDMlpSIX5uecNFkhsRXoOKzV1-JwaOMFiDaFuZcFwHBBPN85usDFC-m9M6Jw62PvKTiswRzj1hrVopd0ETXTJMS9ZWnvIALOiGXIPajWiIqbDT33u0Wikdh31Z652HbJ-EQNrORU5wtqfPW7BMNkmyQ3XWOUnwZzhisYRetwdrRozrWc- -bx5k_2gNksxYUtlfsE-VvBm5m00]--></g></svg>