<svg xmlns="http://www.w3.org/2000/svg" xmlns:xlink="http://www.w3.org/1999/xlink" contentStyleType="text/css" data-diagram-type="SEQUENCE" height="1288px" preserveAspectRatio="none" style="width:906px;height:1288px;background:#FFFFFF;" version="1.1" viewBox="0 0 906 1288" width="906px" zoomAndPan="magnify"><title>Deserialization Flow (from_ai)</title><defs/><g><text fill="#000000" font-family="Verdana" font-size="22" font-weight="bold" lengthAdjust="spacing" textLength="378.7588" x="267.7119" y="37.1182">Deserialization Flow (from_ai)</text><g><title>from_ai()</title><rect fill="#FFFFFF" height="867.6875" style="stroke:#000000;stroke-width:1;" width="10" x="259.3691" y="222.1499"/></g><rect fill="#FFFFFF" height="688.8916" style="stroke:#000000;stroke-width:1;" width="716.2515" x="183.9312" y="372.1465"/><rect fill="#FFFFFF" height="657.0923" style="stroke:#000000;stroke-width:1;" width="696.2515" x="193.9312" y="396.9458"/><rect fill="#FFFFFF" height="98.7666" style="stroke:#000000;stroke-width:1;" width="396.6563" x="483.5264" y="540.9424"/><rect fill="#FFFFFF" height="45.168" style="stroke:none;stroke-width:1;" width="396.6563" x="483.5264" y="594.541"/><rect fill="#FFFFFF" height="92.7666" style="stroke:#000000;stroke-width:1;" width="291.8369" x="483.5264" y="683.5083"/><rect fill="#FFFFFF" height="45.168" style="stroke:none;stroke-width:1;" width="291.8369" x="483.5264" y="731.1069"/><rect fill="#FFFFFF" height="77.3979" style="stroke:#000000;stroke-width:1;" width="571.4321" x="203.9312" y="790.2749"/><rect fill="#FFFFFF" height="179.3652" style="stroke:none;stroke-width:1;" width="696.2515" x="193.9312" y="874.6729"/><rect fill="#FFFFFF" height="120.1973" style="stroke:#000000;stroke-width:1;" width="571.4321" x="203.9312" y="926.8408"/><g><title>Application</title><rect fill="#000000" fill-opacity="0.00000" height="1076.082" width="8" x="47.5581" y="130.752"/><line style="stroke:#000000;stroke-width:1;" x1="51" x2="51" y1="130.752" y2="1206.834"/></g><g><title>from_ai()</title><rect fill="#000000" fill-opacity="0.00000" height="1076.082" width="8" x="260.3691" y="130.752"/><line style="stroke:#000000;stroke-width:1;" x1="263.9312" x2="263.9312" y1="130.752" y2="1206.834"/></g><g><title>UAiEntity</title><rect fill="#000000" fill-opacity="0.00000" height="1076.082" width="8" x="538.792" y="130.752"/><line style="stroke:#000000;stroke-width:1;" x1="542.5264" x2="542.5264" y1="130.752" y2="1206.834"/></g><g><title>Parser</title><rect fill="#000000" fill-opacity="0.00000" height="1076.082" width="8" x="637.2744" y="130.752"/><line style="stroke:#000000;stroke-width:1;" x1="641.0576" x2="641.0576" y1="130.752" y2="1206.834"/></g><g><title>Entity</title><rect fill="#000000" fill-opacity="0.00000" height="1076.082" width="8" x="723.9272" y="130.752"/><line style="stroke:#000000;stroke-width:1;" x1="727.4912" x2="727.4912" y1="130.752" y2="1206.834"/></g><g><title>LLM</title><rect fill="#000000" fill-opacity="0.00000" height="1076.082" width="8" x="802.0557" y="130.752"/><line style="stroke:#000000;stroke-width:1;" x1="805.3633" x2="805.3633" y1="130.752" y2="1206.834"/></g><g class="participant participant-head" data-participant="App"><text fill="#000000" font-family="Verdana" font-size="14" lengthAdjust="spacing" textLength="77.1162" x="10" y="127.8125">Application</text><ellipse cx="51.5581" cy="61.7373" fill="#FFFFFF" rx="8" ry="8" style="stroke:#000000;stroke-width:1;"/><path d="M51.5581,69.7373 L51.5581,96.7373 M38.5581,77.7373 L64.5581,77.7373 M51.5581,96.7373 L38.5581,111.7373 M51.5581,96.7373 L64.5581,111.7373" fill="none" style="stroke:#000000;stroke-width:1;"/></g><g class="participant participant-tail" data-participant="App"><text fill="#000000" font-family="Verdana" font-size="14" lengthAdjust="spacing" textLength="77.1162" x="10" y="1219.9092">Application</text><ellipse cx="51.5581" cy="1231.8486" fill="#FFFFFF" rx="8" ry="8" style="stroke:#000000;stroke-width:1;"/><path d="M51.5581,1239.8486 L51.5581,1266.8486 M38.5581,1247.8486 L64.5581,1247.8486 M51.5581,1266.8486 L38.5581,1281.8486 M51.5581,1266.8486 L64.5581,1281.8486" fill="none" style="stroke:#000000;stroke-width:1;"/></g><g class="participant participant-head" data-participant="FromAI"><rect fill="#FFFFFF" height="31.0146" rx="2.5" ry="2.5" style="stroke:#000000;stroke-width:1;" width="80.876" x="223.9312" y="98.7373"/><text fill="#000000" font-family="Verdana" font-size="14" lengthAdjust="spacing" textLength="66.876" x="230.9312" y="119.8125">from_ai()</text></g><g class="participant participant-tail" data-participant="FromAI"><rect fill="#FFFFFF" height="31.0146" rx="2.5" ry="2.5" style="stroke:#000000;stroke-width:1;" width="80.876" x="223.9312" y="1205.834"/><text fill="#000000" font-family="Verdana" font-size="14" lengthAdjust="spacing" textLength="66.876" x="230.9312" y="1226.9092">from_ai()</text></g><g class="participant participant-head" data-participant="Helper"><rect fill="#FFFFFF" height="31.0146" rx="2.5" ry="2.5" style="stroke:#000000;stroke-width:1;" width="78.5313" x="503.5264" y="98.7373"/><text fill="#000000" font-family="Verdana" font-size="14" lengthAdjust="spacing" textLength="64.5313" x="510.5264" y="119.8125">UAiEntity</text></g><g class="participant participant-tail" data-participant="Helper"><rect fill="#FFFFFF" height="31.0146" rx="2.5" ry="2.5" style="stroke:#000000;stroke-width:1;" width="78.5313" x="503.5264" y="1205.834"/><text fill="#000000" font-family="Verdana" font-size="14" lengthAdjust="spacing" textLength="64.5313" x="510.5264" y="1226.9092">UAiEntity</text></g><g class="participant participant-head" data-participant="Parser"><rect fill="#FFFFFF" height="31.0146" rx="2.5" ry="2.5" style="stroke:#000000;stroke-width:1;" width="58.4336" x="612.0576" y="98.7373"/><text fill="#000000" font-family="Verdana" font-size="14" lengthAdjust="spacing" textLength="44.4336" x="619.0576" y="119.8125">Parser</text></g><g class="participant participant-tail" data-participant="Parser"><rect fill="#FFFFFF" height="31.0146" rx="2.5" ry="2.5" style="stroke:#000000;stroke-width:1;" width="58.4336" x="612.0576" y="1205.834"/><text fill="#000000" font-family="Verdana" font-size="14" lengthAdjust="spacing" textLength="44.4336" x="619.0576" y="1226.9092">Parser</text></g><g class="participant participant-head" data-participant="Entity"><rect fill="#FFFFFF" height="31.0146" rx="2.5" ry="2.5" style="stroke:#000000;stroke-width:1;" width="54.8721" x="700.4912" y="98.7373"/><text fill="#000000" font-family="Verdana" font-size="14" lengthAdjust="spacing" textLength="40.8721" x="707.4912" y="119.8125">Entity</text></g><g class="participant participant-tail" data-participant="Entity"><rect fill="#FFFFFF" height="31.0146" rx="2.5" ry="2.5" style="stroke:#000000;stroke-width:1;" width="54.8721" x="700.4912" y="1205.834"/><text fill="#000000" font-family="Verdana" font-size="14" lengthAdjust="spacing" textLength="40.8721" x="707.4912" y="1226.9092">Entity</text></g><g class="participant participant-head" data-participant="LLM"><rect fill="#FFFFFF" height="31.0146" rx="2.5" ry="2.5" style="stroke:#000000;stroke-width:1;" width="41.3848" x="785.3633" y="98.7373"/><text fill="#000000" font-family="Verdana" font-size="14" lengthAdjust="spacing" textLength="27.3848" x="792.3633" y="119.8125">LLM</text></g><g class="participant participant-tail" data-participant="LLM"><rect fill="#FFFFFF" height="31.0146" rx="2.5" ry="2.5" style="stroke:#000000;stroke-width:1;" width="41.3848" x="785.3633" y="1205.834"/><text fill="#000000" font-family="Verdana" font-size="14" lengthAdjust="spacing" textLength="27.3848" x="792.3633" y="1226.9092">LLM</text></g><g><title>from_ai()</title><rect fill="#FFFFFF" height="867.6875" style="stroke:#000000;stroke-width:1;" width="10" x="259.3691" y="222.1499"/></g><g class="message" data-participant-1="App" data-participant-2="LLM"><polygon fill="#000000" points="794.0557,158.5513,804.0557,162.5513,794.0557,166.5513,798.0557,162.5513" style="stroke:#000000;stroke-width:1;"/><line style="stroke:#000000;stroke-width:1;" x1="51.5581" x2="800.0557" y1="162.5513" y2="162.5513"/><text fill="#000000" font-family="Verdana" font-size="13" lengthAdjust="spacing" textLength="152.0962" x="58.5581" y="157.8218">receive compact_string</text></g><g class="message" data-participant-1="LLM" data-participant-2="App"><polygon fill="#000000" points="62.5581,188.3506,52.5581,192.3506,62.5581,196.3506,58.5581,192.3506" style="stroke:#000000;stroke-width:1;"/><line style="stroke:#000000;stroke-width:1;" x1="56.5581" x2="805.0557" y1="192.3506" y2="192.3506"/><text fill="#000000" font-family="Verdana" font-size="13" lengthAdjust="spacing" textLength="100.7119" x="68.5581" y="187.6211">compact_string</text></g><g class="message" data-participant-1="App" data-participant-2="FromAI"><polygon fill="#000000" points="247.3691,218.1499,257.3691,222.1499,247.3691,226.1499,251.3691,222.1499" style="stroke:#000000;stroke-width:1;"/><line style="stroke:#000000;stroke-width:1;" x1="51.5581" x2="253.3691" y1="222.1499" y2="222.1499"/><text fill="#000000" font-family="Verdana" font-size="13" lengthAdjust="spacing" textLength="188.811" x="58.5581" y="217.4204">Entity::from_ai(string, level)</text></g><g class="message" data-participant-1="FromAI" data-participant-2="Entity"><polygon fill="#000000" points="715.9272,247.9492,725.9272,251.9492,715.9272,255.9492,719.9272,251.9492" style="stroke:#000000;stroke-width:1;"/><line style="stroke:#000000;stroke-width:1;" x1="269.3691" x2="721.9272" y1="251.9492" y2="251.9492"/><text fill="#000000" font-family="Verdana" font-size="13" lengthAdjust="spacing" textLength="102.2544" x="276.3691" y="247.2197">create default()</text></g><g class="message" data-participant-1="FromAI" data-participant-2="Helper"><polygon fill="#000000" points="530.792,277.7485,540.792,281.7485,530.792,285.7485,534.792,281.7485" style="stroke:#000000;stroke-width:1;"/><line style="stroke:#000000;stroke-width:1;" x1="269.3691" x2="536.792" y1="281.7485" y2="281.7485"/><text fill="#000000" font-family="Verdana" font-size="13" lengthAdjust="spacing" textLength="139.2993" x="276.3691" y="277.019">do_split_code(string)</text></g><g class="message" data-participant-1="Helper" data-participant-2="Parser"><polygon fill="#000000" points="629.2744,323.3472,639.2744,327.3472,629.2744,331.3472,633.2744,327.3472" style="stroke:#000000;stroke-width:1;"/><line style="stroke:#000000;stroke-width:1;" x1="542.792" x2="635.2744" y1="327.3472" y2="327.3472"/><text fill="#000000" font-family="Verdana" font-size="13" lengthAdjust="spacing" textLength="55.5547" x="549.792" y="306.8184">split by '</text><text fill="#000000" font-family="Verdana" font-size="13" lengthAdjust="spacing" textLength="3.4912" x="549.792" y="322.6177">'</text></g><g class="message" data-participant-1="Parser" data-participant-2="FromAI"><polygon fill="#000000" points="280.3691,353.1465,270.3691,357.1465,280.3691,361.1465,276.3691,357.1465" style="stroke:#000000;stroke-width:1;"/><line style="stroke:#000000;stroke-width:1;" x1="274.3691" x2="640.2744" y1="357.1465" y2="357.1465"/><text fill="#000000" font-family="Verdana" font-size="13" lengthAdjust="spacing" textLength="41.6851" x="286.3691" y="352.417">lines[]</text></g><path d="M183.9312,372.1465 L260.314,372.1465 L260.314,379.9458 L250.314,389.9458 L183.9312,389.9458 L183.9312,372.1465" fill="#FFFFFF" style="stroke:#000000;stroke-width:1;"/><rect fill="none" height="688.8916" style="stroke:#000000;stroke-width:1;" width="716.2515" x="183.9312" y="372.1465"/><text fill="#000000" font-family="Verdana" font-size="13" font-weight="bold" lengthAdjust="spacing" textLength="31.3828" x="198.9312" y="386.2163">loop</text><text fill="#000000" font-family="Verdana" font-size="11" font-weight="bold" lengthAdjust="spacing" textLength="88.7627" x="275.314" y="385.2056">[for each line]</text><path d="M193.9312,396.9458 L257.9805,396.9458 L257.9805,404.7451 L247.9805,414.7451 L193.9312,414.7451 L193.9312,396.9458" fill="#FFFFFF" style="stroke:#000000;stroke-width:1;"/><rect fill="none" height="657.0923" style="stroke:#000000;stroke-width:1;" width="696.2515" x="193.9312" y="396.9458"/><text fill="#000000" font-family="Verdana" font-size="13" font-weight="bold" lengthAdjust="spacing" textLength="19.0493" x="208.9312" y="411.0156">alt</text><text fill="#000000" font-family="Verdana" font-size="11" font-weight="bold" lengthAdjust="spacing" textLength="108.8022" x="272.9805" y="410.0049">[main entity line]</text><g class="message" data-participant-1="FromAI" data-participant-2="Helper"><polygon fill="#000000" points="530.792,432.5444,540.792,436.5444,530.792,440.5444,534.792,436.5444" style="stroke:#000000;stroke-width:1;"/><line style="stroke:#000000;stroke-width:1;" x1="269.3691" x2="536.792" y1="436.5444" y2="436.5444"/><text fill="#000000" font-family="Verdana" font-size="13" lengthAdjust="spacing" textLength="199.0181" x="276.3691" y="431.8149">do_split_line(line, field_count)</text></g><g class="message" data-participant-1="Helper" data-participant-2="Parser"><polygon fill="#000000" points="629.2744,462.3438,639.2744,466.3438,629.2744,470.3438,633.2744,466.3438" style="stroke:#000000;stroke-width:1;"/><line style="stroke:#000000;stroke-width:1;" x1="542.792" x2="635.2744" y1="466.3438" y2="466.3438"/><text fill="#000000" font-family="Verdana" font-size="13" lengthAdjust="spacing" textLength="64.9492" x="549.792" y="461.6143">split by '&#166;'</text></g><g class="message" data-participant-1="Parser" data-participant-2="FromAI"><polygon fill="#000000" points="280.3691,492.1431,270.3691,496.1431,280.3691,500.1431,276.3691,496.1431" style="stroke:#000000;stroke-width:1;"/><line style="stroke:#000000;stroke-width:1;" x1="274.3691" x2="640.2744" y1="496.1431" y2="496.1431"/><text fill="#000000" font-family="Verdana" font-size="13" lengthAdjust="spacing" textLength="46.1284" x="286.3691" y="491.4136">fields[]</text></g><g class="message" data-participant-1="FromAI" data-participant-2="Helper"><polygon fill="#000000" points="530.792,521.9424,540.792,525.9424,530.792,529.9424,534.792,525.9424" style="stroke:#000000;stroke-width:1;"/><line style="stroke:#000000;stroke-width:1;" x1="269.3691" x2="536.792" y1="525.9424" y2="525.9424"/><text fill="#000000" font-family="Verdana" font-size="13" lengthAdjust="spacing" textLength="136.4238" x="276.3691" y="521.2129">from_ai_id(fields[1])</text></g><path d="M483.5264,540.9424 L547.5757,540.9424 L547.5757,548.7417 L537.5757,558.7417 L483.5264,558.7417 L483.5264,540.9424" fill="#FFFFFF" style="stroke:#000000;stroke-width:1;"/><rect fill="none" height="98.7666" style="stroke:#000000;stroke-width:1;" width="396.6563" x="483.5264" y="540.9424"/><text fill="#000000" font-family="Verdana" font-size="13" font-weight="bold" lengthAdjust="spacing" textLength="19.0493" x="498.5264" y="555.0122">alt</text><text fill="#000000" font-family="Verdana" font-size="11" font-weight="bold" lengthAdjust="spacing" textLength="83.7031" x="562.5757" y="554.0015">[ID is empty]</text><g class="message" data-participant-1="Helper" data-participant-2="Entity"><polygon fill="#000000" points="715.9272,579.541,725.9272,583.541,715.9272,587.541,719.9272,583.541" style="stroke:#000000;stroke-width:1;"/><line style="stroke:#000000;stroke-width:1;" x1="542.792" x2="721.9272" y1="583.541" y2="583.541"/><text fill="#000000" font-family="Verdana" font-size="13" lengthAdjust="spacing" textLength="109.7446" x="549.792" y="578.8115">set_id(UId::id())</text></g><path d="M732,563.7417 L732,588.7417 L864,588.7417 L864,573.7417 L854,563.7417 L732,563.7417" fill="#FFFFFF" style="stroke:#000000;stroke-width:1;"/><path d="M854,563.7417 L854,573.7417 L864,573.7417 L854,563.7417" fill="#FFFFFF" style="stroke:#000000;stroke-width:1;"/><text fill="#000000" font-family="Verdana" font-size="13" lengthAdjust="spacing" textLength="111.2554" x="738" y="581.8115">Generate new ID</text><line style="stroke:#000000;stroke-width:1;stroke-dasharray:2.0,2.0;" x1="483.5264" x2="880.1826" y1="595.541" y2="595.541"/><text fill="#000000" font-family="Verdana" font-size="11" font-weight="bold" lengthAdjust="spacing" textLength="85.1587" x="488.5264" y="606.6001">[ID provided]</text><g class="message" data-participant-1="Helper" data-participant-2="Entity"><polygon fill="#000000" points="715.9272,627.709,725.9272,631.709,715.9272,635.709,719.9272,631.709" style="stroke:#000000;stroke-width:1;"/><line style="stroke:#000000;stroke-width:1;" x1="542.792" x2="721.9272" y1="631.709" y2="631.709"/><text fill="#000000" font-family="Verdana" font-size="13" lengthAdjust="spacing" textLength="115.3813" x="549.792" y="626.9795">set_id(parsed_id)</text></g><g class="message" data-participant-1="FromAI" data-participant-2="Helper"><polygon fill="#000000" points="530.792,664.5083,540.792,668.5083,530.792,672.5083,534.792,668.5083" style="stroke:#000000;stroke-width:1;"/><line style="stroke:#000000;stroke-width:1;" x1="269.3691" x2="536.792" y1="668.5083" y2="668.5083"/><text fill="#000000" font-family="Verdana" font-size="13" lengthAdjust="spacing" textLength="116.4922" x="276.3691" y="663.7788">from_ai(fields[2])</text></g><path d="M483.5264,683.5083 L547.5757,683.5083 L547.5757,691.3076 L537.5757,701.3076 L483.5264,701.3076 L483.5264,683.5083" fill="#FFFFFF" style="stroke:#000000;stroke-width:1;"/><rect fill="none" height="92.7666" style="stroke:#000000;stroke-width:1;" width="291.8369" x="483.5264" y="683.5083"/><text fill="#000000" font-family="Verdana" font-size="13" font-weight="bold" lengthAdjust="spacing" textLength="19.0493" x="498.5264" y="697.5781">alt</text><text fill="#000000" font-family="Verdana" font-size="11" font-weight="bold" lengthAdjust="spacing" textLength="98.769" x="562.5757" y="696.5674">[Time is empty]</text><g class="message" data-participant-1="Helper" data-participant-2="Entity"><polygon fill="#000000" points="715.9272,719.1069,725.9272,723.1069,715.9272,727.1069,719.9272,723.1069" style="stroke:#000000;stroke-width:1;"/><line style="stroke:#000000;stroke-width:1;" x1="542.792" x2="721.9272" y1="723.1069" y2="723.1069"/><text fill="#000000" font-family="Verdana" font-size="13" lengthAdjust="spacing" textLength="77.0542" x="549.792" y="718.3774">set_time(0)</text></g><line style="stroke:#000000;stroke-width:1;stroke-dasharray:2.0,2.0;" x1="483.5264" x2="775.3633" y1="732.1069" y2="732.1069"/><text fill="#000000" font-family="Verdana" font-size="11" font-weight="bold" lengthAdjust="spacing" textLength="100.2246" x="488.5264" y="743.166">[Time provided]</text><g class="message" data-participant-1="Helper" data-participant-2="Entity"><polygon fill="#000000" points="715.9272,764.2749,725.9272,768.2749,715.9272,772.2749,719.9272,768.2749" style="stroke:#000000;stroke-width:1;"/><line style="stroke:#000000;stroke-width:1;" x1="542.792" x2="721.9272" y1="768.2749" y2="768.2749"/><text fill="#000000" font-family="Verdana" font-size="13" lengthAdjust="spacing" textLength="150.2046" x="549.792" y="763.5454">set_time(parsed_time)</text></g><path d="M203.9312,790.2749 L280.314,790.2749 L280.314,798.0742 L270.314,808.0742 L203.9312,808.0742 L203.9312,790.2749" fill="#FFFFFF" style="stroke:#000000;stroke-width:1;"/><rect fill="none" height="77.3979" style="stroke:#000000;stroke-width:1;" width="571.4321" x="203.9312" y="790.2749"/><text fill="#000000" font-family="Verdana" font-size="13" font-weight="bold" lengthAdjust="spacing" textLength="31.3828" x="218.9312" y="804.3447">loop</text><text fill="#000000" font-family="Verdana" font-size="11" font-weight="bold" lengthAdjust="spacing" textLength="93.2637" x="295.314" y="803.334">[for each field]</text><g class="message" data-participant-1="FromAI" data-participant-2="Helper"><polygon fill="#000000" points="530.792,825.8735,540.792,829.8735,530.792,833.8735,534.792,829.8735" style="stroke:#000000;stroke-width:1;"/><line style="stroke:#000000;stroke-width:1;" x1="269.3691" x2="536.792" y1="829.8735" y2="829.8735"/><text fill="#000000" font-family="Verdana" font-size="13" lengthAdjust="spacing" textLength="120.0596" x="276.3691" y="825.144">from_ai*(fields[i])</text></g><g class="message" data-participant-1="Helper" data-participant-2="Entity"><polygon fill="#000000" points="715.9272,855.6729,725.9272,859.6729,715.9272,863.6729,719.9272,859.6729" style="stroke:#000000;stroke-width:1;"/><line style="stroke:#000000;stroke-width:1;" x1="542.792" x2="721.9272" y1="859.6729" y2="859.6729"/><text fill="#000000" font-family="Verdana" font-size="13" lengthAdjust="spacing" textLength="102.2988" x="549.792" y="854.9434">set_field(value)</text></g><line style="stroke:#000000;stroke-width:1;stroke-dasharray:2.0,2.0;" x1="193.9312" x2="890.1826" y1="875.6729" y2="875.6729"/><text fill="#000000" font-family="Verdana" font-size="11" font-weight="bold" lengthAdjust="spacing" textLength="119.8936" x="198.9312" y="886.7319">[nested entity line]</text><g class="message" data-participant-1="FromAI" data-participant-2="Helper"><polygon fill="#000000" points="530.792,907.8408,540.792,911.8408,530.792,915.8408,534.792,911.8408" style="stroke:#000000;stroke-width:1;"/><line style="stroke:#000000;stroke-width:1;" x1="269.3691" x2="536.792" y1="911.8408" y2="911.8408"/><text fill="#000000" font-family="Verdana" font-size="13" lengthAdjust="spacing" textLength="245.1782" x="276.3691" y="907.1113">parse_nested_line(line, level+1, key)</text></g><path d="M203.9312,926.8408 L267.9805,926.8408 L267.9805,934.6401 L257.9805,944.6401 L203.9312,944.6401 L203.9312,926.8408" fill="#FFFFFF" style="stroke:#000000;stroke-width:1;"/><rect fill="none" height="120.1973" style="stroke:#000000;stroke-width:1;" width="571.4321" x="203.9312" y="926.8408"/><text fill="#000000" font-family="Verdana" font-size="13" font-weight="bold" lengthAdjust="spacing" textLength="19.0493" x="218.9312" y="940.9106">alt</text><text fill="#000000" font-family="Verdana" font-size="11" font-weight="bold" lengthAdjust="spacing" textLength="149.3701" x="282.9805" y="939.8999">[matches level and key]</text><g class="message" data-participant-1="Helper" data-participant-2="FromAI"><polygon fill="#000000" points="280.3691,962.4395,270.3691,966.4395,280.3691,970.4395,276.3691,966.4395" style="stroke:#000000;stroke-width:1;"/><line style="stroke:#000000;stroke-width:1;" x1="274.3691" x2="541.792" y1="966.4395" y2="966.4395"/><text fill="#000000" font-family="Verdana" font-size="13" lengthAdjust="spacing" textLength="74.5786" x="286.3691" y="961.71">entity_data</text></g><g class="message" data-participant-1="FromAI" data-participant-2="FromAI"><line style="stroke:#000000;stroke-width:1;" x1="269.3691" x2="311.3691" y1="996.2388" y2="996.2388"/><line style="stroke:#000000;stroke-width:1;" x1="311.3691" x2="311.3691" y1="996.2388" y2="1009.2388"/><line style="stroke:#000000;stroke-width:1;" x1="270.3691" x2="311.3691" y1="1009.2388" y2="1009.2388"/><polygon fill="#000000" points="280.3691,1005.2388,270.3691,1009.2388,280.3691,1013.2388,276.3691,1009.2388" style="stroke:#000000;stroke-width:1;"/><text fill="#000000" font-family="Verdana" font-size="13" lengthAdjust="spacing" textLength="244.4229" x="276.3691" y="991.5093">NestedEntity::from_ai(data, level+1)</text></g><path d="M542.4229,982.9395 L542.4229,1007.9395 L678.4229,1007.9395 L678.4229,992.9395 L668.4229,982.9395 L542.4229,982.9395" fill="#FFFFFF" style="stroke:#000000;stroke-width:1;"/><path d="M668.4229,982.9395 L668.4229,992.9395 L678.4229,992.9395 L668.4229,982.9395" fill="#FFFFFF" style="stroke:#000000;stroke-width:1;"/><text fill="#000000" font-family="Verdana" font-size="13" lengthAdjust="spacing" textLength="115.8003" x="548.4229" y="1001.0093">Recursive parsing</text><g class="message" data-participant-1="FromAI" data-participant-2="Entity"><polygon fill="#000000" points="715.9272,1035.0381,725.9272,1039.0381,715.9272,1043.0381,719.9272,1039.0381" style="stroke:#000000;stroke-width:1;"/><line style="stroke:#000000;stroke-width:1;" x1="269.3691" x2="721.9272" y1="1039.0381" y2="1039.0381"/><text fill="#000000" font-family="Verdana" font-size="13" lengthAdjust="spacing" textLength="172.8721" x="276.3691" y="1034.3086">set_nested(nested_entity)</text></g><g class="message" data-participant-1="FromAI" data-participant-2="App"><polygon fill="#000000" points="62.5581,1085.8374,52.5581,1089.8374,62.5581,1093.8374,58.5581,1089.8374" style="stroke:#000000;stroke-width:1;"/><line style="stroke:#000000;stroke-width:1;" x1="56.5581" x2="263.3691" y1="1089.8374" y2="1089.8374"/><text fill="#000000" font-family="Verdana" font-size="13" lengthAdjust="spacing" textLength="82.4624" x="68.5581" y="1085.1079">return entity</text></g><path d="M646,1102.8374 L646,1190.8374 L816,1190.8374 L816,1112.8374 L806,1102.8374 L646,1102.8374" fill="#FFFFFF" style="stroke:#000000;stroke-width:1;"/><path d="M806,1102.8374 L806,1112.8374 L816,1112.8374 L806,1102.8374" fill="#FFFFFF" style="stroke:#000000;stroke-width:1;"/><text fill="#000000" font-family="Verdana" font-size="13" lengthAdjust="spacing" textLength="103.7461" x="652" y="1120.9072">Robust parsing:</text><text fill="#000000" font-family="Verdana" font-size="13" lengthAdjust="spacing" textLength="141.2163" x="652" y="1136.7065">- Level-based nesting</text><text fill="#000000" font-family="Verdana" font-size="13" lengthAdjust="spacing" textLength="81.104" x="652" y="1152.5059">- UTF-8 safe</text><text fill="#000000" font-family="Verdana" font-size="13" lengthAdjust="spacing" textLength="103.6191" x="652" y="1168.3052">- Error handling</text><text fill="#000000" font-family="Verdana" font-size="13" lengthAdjust="spacing" textLength="149.6396" x="652" y="1184.1045">- Backward compatible</text><!--SRC=[bLLHRzCm47xthpZ6mn9O9SOJoWDIOIjC6WXDwnDCaHjVLskE7TbEf_63-27yiftj96r6MpPBRHpVTxxlkxClh_mAQuH6SQcPkvEwuPRNiE3LtQqrhHQVZJ8MNi_YOCnBhn3EqA6LNCdVt4kZOQRCFMHBQ-gIovmnNdboEfesZP9LX1m1Tq3lZFRtif8DrnwEEeyiZ-OPlKqlneZvL9vh2leG4LzHDMZ7Y1_S4fbeJjEnUSixJSVcoyjlqKPFneWVJ3w6EHHWiKAvHgXCtP2UqdahzIqBHi84QF7Krc-GX90zHIoANcV2dO32DQeyf4ckkSTUEUiSQOla6K9O30Y1Izugd-LRc9GDmWXJEigqBoiZi0kIiyvCm9GN0aOKB1xW-9S-PjtoDc4bDRgVDumfOnfOKX6HLwkup806LnvgEYg0YTzW2ECGim3Cmjy9B2KgGLHRxVF1zo3Plt-E1-0Eqd73mBh776BKbQAK8klyJcysD8A-YpEG3h1kwAp0rjXG78hZq8UDvXUYAEYPvoC7RQXmLjwkV05VKACDXTHuJn4672g78M9ZpLeA5C-Cs8Gi29fj8g8MBqb0h_xz4_NNajh1I_HxSiZUvMD5SPUNQ8gxTAh2_3-wniSpIXb5sQ_xJIzStkJF8HRHsPghTWUdg9LkZ4Vnt1iHDPR9P_jMn9RmzlG4xl1XN96Q-sg5BY60Qn4WUwWFToAnAGNtV4zY1kZtoELfgmgU0wlzv_eAgzQwq2U3iD04TqSRvJIfpxea9AexaalFyDlgUAdhMlIjxLiG4_XF6zqG1BFilmfXookpQ9tlgHPnRGANGUHamUdinMBsAYOmlvvDFe3ZI-mMpgsbGxUY8gWDwXDzBE-v5UbpuEL2OI0UyyGU0G00]--></g></svg>