<svg xmlns="http://www.w3.org/2000/svg" xmlns:xlink="http://www.w3.org/1999/xlink" contentStyleType="text/css" data-diagram-type="CLASS" height="398px" preserveAspectRatio="none" style="width:298px;height:398px;" version="1.1" viewBox="0 0 298 398" width="298px" zoomAndPan="magnify"><defs/><g><!--class IAiEnum--><g class="entity" data-entity="IAiEnum" data-source-line="12" data-uid="ent0002" id="entity_IAiEnum"><rect fill="#FFA600" height="124.2717" rx="2.5" ry="2.5" style="stroke:#181818;stroke-width:0.5;" width="210.0573" x="44.5" y="7"/><ellipse cx="119.4417" cy="23" fill="#FFA600" rx="11" ry="11" style="stroke:#181818;stroke-width:1;"/><path d="M115.3636,18.7656 L115.3636,16.6094 L122.7542,16.6094 L122.7542,18.7656 L120.2855,18.7656 L120.2855,26.8438 L122.7542,26.8438 L122.7542,29 L115.3636,29 L115.3636,26.8438 L117.8324,26.8438 L117.8324,18.7656 L115.3636,18.7656 Z " fill="#000000"/><text fill="#000000" font-family="sans-serif" font-size="14" font-style="italic" lengthAdjust="spacing" textLength="51.6738" x="139.9417" y="28.432">IAiEnum</text><line style="stroke:#181818;stroke-width:0.5;" x1="45.5" x2="253.5573" y1="39" y2="39"/><line style="stroke:#181818;stroke-width:0.5;" x1="45.5" x2="253.5573" y1="47" y2="47"/><ellipse cx="55.5" cy="62.034" fill="#84BE84" rx="3" ry="3" style="stroke:#038048;stroke-width:1;"/><text fill="#000000" font-family="sans-serif" font-size="14" lengthAdjust="spacing" text-decoration="underline" textLength="125.2715" x="64.5" y="65.9659">get_ai_id() -&gt; String</text><ellipse cx="55.5" cy="81.1019" fill="#84BE84" rx="3" ry="3" style="stroke:#038048;stroke-width:1;"/><text fill="#000000" font-family="sans-serif" font-size="14" lengthAdjust="spacing" text-decoration="underline" textLength="163.9674" x="64.5" y="85.0339">get_ai_schema() -&gt; String</text><ellipse cx="55.5" cy="100.1698" fill="#84BE84" rx="3" ry="3" style="stroke:#038048;stroke-width:1;"/><text fill="#000000" font-family="sans-serif" font-size="14" lengthAdjust="spacing" textLength="98.7976" x="64.5" y="104.1018">to_ai() -&gt; String</text><ellipse cx="55.5" cy="119.2377" fill="#84BE84" rx="3" ry="3" style="stroke:#038048;stroke-width:1;"/><text fill="#000000" font-family="sans-serif" font-size="14" lengthAdjust="spacing" text-decoration="underline" textLength="184.0573" x="64.5" y="123.1697">from_ai(str_ai: String) -&gt; Self</text></g><!--class EnumPeerVisibility--><g class="entity" data-entity="EnumPeerVisibility" data-source-line="19" data-uid="ent0003" id="entity_EnumPeerVisibility"><rect fill="#09B620" height="200.5433" rx="2.5" ry="2.5" style="stroke:#181818;stroke-width:0.5;" width="284.8309" x="7" y="191"/><ellipse cx="84.0697" cy="207" fill="#EB937F" rx="11" ry="11" style="stroke:#181818;stroke-width:1;"/><path d="M88.1791,213 L80.4603,213 L80.4603,200.6094 L88.1791,200.6094 L88.1791,202.7656 L82.9135,202.7656 L82.9135,205.4375 L87.6791,205.4375 L87.6791,207.5938 L82.9135,207.5938 L82.9135,210.8438 L88.1791,210.8438 L88.1791,213 Z " fill="#000000"/><text fill="#000000" font-family="sans-serif" font-size="14" lengthAdjust="spacing" textLength="122.1915" x="104.5697" y="212.432">EnumPeerVisibility</text><line style="stroke:#181818;stroke-width:0.5;" x1="8" x2="290.8309" y1="223" y2="223"/><rect fill="none" height="6" style="stroke:#C82930;stroke-width:1;" width="6" x="15" y="235.034"/><text fill="#000000" font-family="sans-serif" font-size="14" lengthAdjust="spacing" textLength="62.9717" x="27" y="241.9659">Public = 0</text><rect fill="none" height="6" style="stroke:#C82930;stroke-width:1;" width="6" x="15" y="254.1019"/><text fill="#000000" font-family="sans-serif" font-size="14" lengthAdjust="spacing" textLength="69.0757" x="27" y="261.0339">Private = 1</text><rect fill="none" height="6" style="stroke:#C82930;stroke-width:1;" width="6" x="15" y="273.1698"/><text fill="#000000" font-family="sans-serif" font-size="14" lengthAdjust="spacing" textLength="57.2878" x="27" y="280.1018">Local = 2</text><rect fill="none" height="6" style="stroke:#C82930;stroke-width:1;" width="6" x="15" y="292.2377"/><text fill="#000000" font-family="sans-serif" font-size="14" lengthAdjust="spacing" textLength="60.9697" x="27" y="299.1697">Client = 3</text><rect fill="none" height="6" style="stroke:#C82930;stroke-width:1;" width="6" x="15" y="311.3056"/><text fill="#000000" font-family="sans-serif" font-size="14" lengthAdjust="spacing" textLength="58.5058" x="27" y="318.2376">Relay = 4</text><rect fill="none" height="6" style="stroke:#C82930;stroke-width:1;" width="6" x="15" y="330.3735"/><text fill="#000000" font-family="sans-serif" font-size="14" lengthAdjust="spacing" textLength="82.5437" x="27" y="337.3055">Validator = 5</text><line style="stroke:#181818;stroke-width:0.5;" x1="8" x2="290.8309" y1="345.4075" y2="345.4075"/><ellipse cx="18" cy="360.4415" fill="#84BE84" rx="3" ry="3" style="stroke:#038048;stroke-width:1;"/><text fill="#000000" font-family="sans-serif" font-size="14" lengthAdjust="spacing" textLength="258.8309" x="27" y="364.3734">fn from(value: EnumPeerVisibility) -&gt; u8</text><ellipse cx="18" cy="379.5094" fill="#84BE84" rx="3" ry="3" style="stroke:#038048;stroke-width:1;"/><text fill="#000000" font-family="sans-serif" font-size="14" lengthAdjust="spacing" textLength="258.8309" x="27" y="383.4414">fn from(value: u8) -&gt; EnumPeerVisibility</text></g><!--reverse link IAiEnum to EnumPeerVisibility--><g class="link" data-entity-1="IAiEnum" data-entity-2="EnumPeerVisibility" data-source-line="31" data-uid="lnk4" id="link_IAiEnum_EnumPeerVisibility"><path codeLine="31" d="M149.5,149.13 C149.5,167.61 149.5,170.4 149.5,190.72" fill="none" id="IAiEnum-backto-EnumPeerVisibility" style="stroke:#FFA600;stroke-width:1;"/><polygon fill="none" points="149.5,131.13,143.5,149.13,155.5,149.13,149.5,131.13" style="stroke:#FFA600;stroke-width:1;"/></g><!--SRC=[VP5FQy904CNl-occzA1Y0wbjnOeAhLeGUf1QlCfaCz71pQPiDe9OltitVnefQlUIpFkzMTxCDc115WAKsxL9CXs2J5HYHBfb_OK6OtYjqJWdO0tgr27ILeW6J2XYJMLN2f4p4CeDiBPa8fGaRiBICPlkalA6sxVYdCZaYlx9CLr1KstPxYleFmVTZd-2Bro1ACAkxmjHfydPL6Sn30RDsLtjR8r6zVz1W3ljGshHiZp2ckmAUSLXimNU21RMi5vVzgHoGp6U-spYw3_jaKdYt95QupxzobJwIKNYA0JbeVFaSoApv9G3Lcu1VnPH9lTWdWMA9Gp1_nKCxz2IK-uhvJsHg5pTgUgnOlUUJdYeX0zIk7VrOrKlKN68rYrr24_2YMs8T16ykKELKVz2k6A0h9VVSEREUWKzRyg7hH_fs_Ck3Ls_rGy0]--></g></svg>