<svg xmlns="http://www.w3.org/2000/svg" xmlns:xlink="http://www.w3.org/1999/xlink" contentStyleType="text/css" data-diagram-type="DESCRIPTION" height="399px" preserveAspectRatio="none" style="width:1584px;height:399px;background:#FFFFFF;" version="1.1" viewBox="0 0 1584 399" width="1584px" zoomAndPan="magnify"><defs/><g><!--cluster Evo Framework--><g class="cluster" data-entity="Evo Framework" data-source-line="7" data-uid="ent0002" id="cluster_Evo Framework"><path d="M13.5,11 L136.7607,11 A3.75,3.75 0 0 1 139.2607,13.5 L146.2607,34.0146 L1574.5,34.0146 A2.5,2.5 0 0 1 1577,36.5146 L1577,389.54 A2.5,2.5 0 0 1 1574.5,392.04 L13.5,392.04 A2.5,2.5 0 0 1 11,389.54 L11,13.5 A2.5,2.5 0 0 1 13.5,11" fill="#333333" style="stroke:#000000;stroke-width:1;"/><line style="stroke:#000000;stroke-width:1;" x1="11" x2="146.2607" y1="34.0146" y2="34.0146"/><text fill="#FFFFFF" font-family="Verdana" font-size="14" font-weight="bold" lengthAdjust="spacing" textLength="122.2607" x="15" y="27.0752">Evo Framework</text></g><!--cluster evo_packages--><g class="cluster" data-entity="evo_packages" data-source-line="16" data-uid="ent0004" id="cluster_evo_packages"><path d="M37.5,58.5 L149.9736,58.5 A3.75,3.75 0 0 1 152.4736,61 L159.4736,81.5146 L630.5,81.5146 A2.5,2.5 0 0 1 633,84.0146 L633,148.01 A2.5,2.5 0 0 1 630.5,150.51 L37.5,150.51 A2.5,2.5 0 0 1 35,148.01 L35,61 A2.5,2.5 0 0 1 37.5,58.5" fill="#333333" style="stroke:#000000;stroke-width:1;"/><line style="stroke:#000000;stroke-width:1;" x1="35" x2="159.4736" y1="81.5146" y2="81.5146"/><text fill="#FFFFFF" font-family="Verdana" font-size="14" font-weight="bold" lengthAdjust="spacing" textLength="111.4736" x="39" y="74.5752">evo_packages</text></g><!--cluster evo_core--><g class="cluster" data-entity="evo_core" data-source-line="32" data-uid="ent0008" id="cluster_evo_core"><path d="M659.5,55 L732.5645,55 A3.75,3.75 0 0 1 735.0645,57.5 L742.0645,78.0146 L1376.5,78.0146 A2.5,2.5 0 0 1 1379,80.5146 L1379,365.54 A2.5,2.5 0 0 1 1376.5,368.04 L659.5,368.04 A2.5,2.5 0 0 1 657,365.54 L657,57.5 A2.5,2.5 0 0 1 659.5,55" fill="#333333" style="stroke:#000000;stroke-width:1;"/><line style="stroke:#000000;stroke-width:1;" x1="657" x2="742.0645" y1="78.0146" y2="78.0146"/><text fill="#FFFFFF" font-family="Verdana" font-size="14" font-weight="bold" lengthAdjust="spacing" textLength="72.0645" x="661" y="71.0752">evo_core</text></g><!--entity evo_framework--><g class="entity" data-entity="evo_framework" data-source-line="11" data-uid="ent0003" id="entity_evo_framework"><path d="M1397.52,94.5 L1534.4897,94.5 A3.75,3.75 0 0 1 1536.9897,97 L1543.9897,117.5146 L1558.4897,117.5146 A2.5,2.5 0 0 1 1560.9897,120.0146 L1560.9897,132.0146 A2.5,2.5 0 0 1 1558.4897,134.5146 L1397.52,134.5146 A2.5,2.5 0 0 1 1395.02,132.0146 L1395.02,97 A2.5,2.5 0 0 1 1397.52,94.5" fill="#333333" style="stroke:#000000;stroke-width:1;"/><line style="stroke:#000000;stroke-width:1;" x1="1395.02" x2="1543.9897" y1="117.5146" y2="117.5146"/><text fill="#FFFFFF" font-family="Verdana" font-size="14" font-weight="bold" lengthAdjust="spacing" textLength="123.9697" x="1405.02" y="111.5752">evo_framework</text></g><!--entity evo_package_n--><g class="entity" data-entity="evo_package_n" data-source-line="17" data-uid="ent0005" id="entity_evo_package_n"><path d="M53.95,94.5 L190.0447,94.5 A3.75,3.75 0 0 1 192.5447,97 L199.5447,117.5146 L214.0447,117.5146 A2.5,2.5 0 0 1 216.5447,120.0146 L216.5447,132.0146 A2.5,2.5 0 0 1 214.0447,134.5146 L53.95,134.5146 A2.5,2.5 0 0 1 51.45,132.0146 L51.45,97 A2.5,2.5 0 0 1 53.95,94.5" fill="#333333" style="stroke:#000000;stroke-width:1;"/><line style="stroke:#000000;stroke-width:1;" x1="51.45" x2="199.5447" y1="117.5146" y2="117.5146"/><text fill="#FFFFFF" font-family="Verdana" font-size="14" font-weight="bold" lengthAdjust="spacing" textLength="123.0947" x="61.45" y="111.5752">evo_package_n</text></g><!--entity evo_package_2--><g class="entity" data-entity="evo_package_2" data-source-line="19" data-uid="ent0006" id="entity_evo_package_2"><path d="M253.96,94.5 L390.0342,94.5 A3.75,3.75 0 0 1 392.5342,97 L399.5342,117.5146 L414.0342,117.5146 A2.5,2.5 0 0 1 416.5342,120.0146 L416.5342,132.0146 A2.5,2.5 0 0 1 414.0342,134.5146 L253.96,134.5146 A2.5,2.5 0 0 1 251.46,132.0146 L251.46,97 A2.5,2.5 0 0 1 253.96,94.5" fill="#333333" style="stroke:#000000;stroke-width:1;"/><line style="stroke:#000000;stroke-width:1;" x1="251.46" x2="399.5342" y1="117.5146" y2="117.5146"/><text fill="#FFFFFF" font-family="Verdana" font-size="14" font-weight="bold" lengthAdjust="spacing" textLength="123.0742" x="261.46" y="111.5752">evo_package_2</text></g><!--entity evo_package_1--><g class="entity" data-entity="evo_package_1" data-source-line="23" data-uid="ent0007" id="entity_evo_package_1"><path d="M453.96,94.5 L590.0342,94.5 A3.75,3.75 0 0 1 592.5342,97 L599.5342,117.5146 L614.0342,117.5146 A2.5,2.5 0 0 1 616.5342,120.0146 L616.5342,132.0146 A2.5,2.5 0 0 1 614.0342,134.5146 L453.96,134.5146 A2.5,2.5 0 0 1 451.46,132.0146 L451.46,97 A2.5,2.5 0 0 1 453.96,94.5" fill="#333333" style="stroke:#000000;stroke-width:1;"/><line style="stroke:#000000;stroke-width:1;" x1="451.46" x2="599.5342" y1="117.5146" y2="117.5146"/><text fill="#FFFFFF" font-family="Verdana" font-size="14" font-weight="bold" lengthAdjust="spacing" textLength="123.0742" x="461.46" y="111.5752">evo_package_1</text></g><!--entity evo_core_log--><g class="entity" data-entity="evo_core_log" data-source-line="34" data-uid="ent0009" id="entity_evo_core_log"><rect fill="#333333" height="47.0146" rx="2.5" ry="2.5" style="stroke:#000000;stroke-width:1;" width="134.0898" x="682.96" y="91"/><rect fill="#333333" height="10" style="stroke:#000000;stroke-width:1;" width="15" x="797.0498" y="96"/><rect fill="#333333" height="2" style="stroke:#000000;stroke-width:1;" width="4" x="795.0498" y="98"/><rect fill="#333333" height="2" style="stroke:#000000;stroke-width:1;" width="4" x="795.0498" y="102"/><text fill="#FFFFFF" font-family="Verdana" font-size="14" lengthAdjust="spacing" textLength="94.0898" x="697.96" y="125.0752">evo_core_log</text></g><!--entity evo_core_id--><g class="entity" data-entity="evo_core_id" data-source-line="35" data-uid="ent0010" id="entity_evo_core_id"><rect fill="#333333" height="47.0146" rx="2.5" ry="2.5" style="stroke:#000000;stroke-width:1;" width="125.5928" x="852.2" y="91"/><rect fill="#333333" height="10" style="stroke:#000000;stroke-width:1;" width="15" x="957.7928" y="96"/><rect fill="#333333" height="2" style="stroke:#000000;stroke-width:1;" width="4" x="955.7928" y="98"/><rect fill="#333333" height="2" style="stroke:#000000;stroke-width:1;" width="4" x="955.7928" y="102"/><text fill="#FFFFFF" font-family="Verdana" font-size="14" lengthAdjust="spacing" textLength="85.5928" x="867.2" y="125.0752">evo_core_id</text></g><!--entity evo_core_time--><g class="entity" data-entity="evo_core_time" data-source-line="36" data-uid="ent0011" id="entity_evo_core_time"><rect fill="#333333" height="47.0146" rx="2.5" ry="2.5" style="stroke:#000000;stroke-width:1;" width="144.3438" x="1012.83" y="91"/><rect fill="#333333" height="10" style="stroke:#000000;stroke-width:1;" width="15" x="1137.1738" y="96"/><rect fill="#333333" height="2" style="stroke:#000000;stroke-width:1;" width="4" x="1135.1738" y="98"/><rect fill="#333333" height="2" style="stroke:#000000;stroke-width:1;" width="4" x="1135.1738" y="102"/><text fill="#FFFFFF" font-family="Verdana" font-size="14" lengthAdjust="spacing" textLength="104.3438" x="1027.83" y="125.0752">evo_core_time</text></g><!--entity evo_core_crypto--><g class="entity" data-entity="evo_core_crypto" data-source-line="37" data-uid="ent0012" id="entity_evo_core_crypto"><rect fill="#333333" height="47.0146" rx="2.5" ry="2.5" style="stroke:#000000;stroke-width:1;" width="157.3184" x="1192.34" y="91"/><rect fill="#333333" height="10" style="stroke:#000000;stroke-width:1;" width="15" x="1329.6584" y="96"/><rect fill="#333333" height="2" style="stroke:#000000;stroke-width:1;" width="4" x="1327.6584" y="98"/><rect fill="#333333" height="2" style="stroke:#000000;stroke-width:1;" width="4" x="1327.6584" y="102"/><text fill="#FFFFFF" font-family="Verdana" font-size="14" lengthAdjust="spacing" textLength="117.3184" x="1207.34" y="125.0752">evo_core_crypto</text></g><!--entity evo_core_entity--><g class="entity" data-entity="evo_core_entity" data-source-line="38" data-uid="ent0013" id="entity_evo_core_entity"><rect fill="#333333" height="47.0146" rx="2.5" ry="2.5" style="stroke:#000000;stroke-width:1;" width="153.3877" x="673.31" y="198.01"/><rect fill="#333333" height="10" style="stroke:#000000;stroke-width:1;" width="15" x="806.6977" y="203.01"/><rect fill="#333333" height="2" style="stroke:#000000;stroke-width:1;" width="4" x="804.6977" y="205.01"/><rect fill="#333333" height="2" style="stroke:#000000;stroke-width:1;" width="4" x="804.6977" y="209.01"/><text fill="#FFFFFF" font-family="Verdana" font-size="14" lengthAdjust="spacing" textLength="113.3877" x="688.31" y="232.0852">evo_core_entity</text></g><!--entity evo_core_api--><g class="entity" data-entity="evo_core_api" data-source-line="39" data-uid="ent0014" id="entity_evo_core_api"><rect fill="#333333" height="47.0146" rx="2.5" ry="2.5" style="stroke:#000000;stroke-width:1;" width="134.001" x="862" y="198.01"/><rect fill="#333333" height="10" style="stroke:#000000;stroke-width:1;" width="15" x="976.001" y="203.01"/><rect fill="#333333" height="2" style="stroke:#000000;stroke-width:1;" width="4" x="974.001" y="205.01"/><rect fill="#333333" height="2" style="stroke:#000000;stroke-width:1;" width="4" x="974.001" y="209.01"/><text fill="#FFFFFF" font-family="Verdana" font-size="14" lengthAdjust="spacing" textLength="94.001" x="877" y="232.0852">evo_core_api</text></g><!--entity evo_core_ai--><g class="entity" data-entity="evo_core_ai" data-source-line="40" data-uid="ent0015" id="entity_evo_core_ai"><rect fill="#333333" height="47.0146" rx="2.5" ry="2.5" style="stroke:#000000;stroke-width:1;" width="125.2783" x="1031.36" y="198.01"/><rect fill="#333333" height="10" style="stroke:#000000;stroke-width:1;" width="15" x="1136.6383" y="203.01"/><rect fill="#333333" height="2" style="stroke:#000000;stroke-width:1;" width="4" x="1134.6383" y="205.01"/><rect fill="#333333" height="2" style="stroke:#000000;stroke-width:1;" width="4" x="1134.6383" y="209.01"/><text fill="#FFFFFF" font-family="Verdana" font-size="14" lengthAdjust="spacing" textLength="85.2783" x="1046.36" y="232.0852">evo_core_ai</text></g><!--entity evo_core_memory--><g class="entity" data-entity="evo_core_memory" data-source-line="41" data-uid="ent0016" id="entity_evo_core_memory"><rect fill="#333333" height="47.0146" rx="2.5" ry="2.5" style="stroke:#000000;stroke-width:1;" width="171.3594" x="1191.32" y="198.01"/><rect fill="#333333" height="10" style="stroke:#000000;stroke-width:1;" width="15" x="1342.6794" y="203.01"/><rect fill="#333333" height="2" style="stroke:#000000;stroke-width:1;" width="4" x="1340.6794" y="205.01"/><rect fill="#333333" height="2" style="stroke:#000000;stroke-width:1;" width="4" x="1340.6794" y="209.01"/><text fill="#FFFFFF" font-family="Verdana" font-size="14" lengthAdjust="spacing" textLength="131.3594" x="1206.32" y="232.0852">evo_core_memory</text></g><!--entity evo_core_storage--><g class="entity" data-entity="evo_core_storage" data-source-line="42" data-uid="ent0017" id="entity_evo_core_storage"><rect fill="#333333" height="47.0146" rx="2.5" ry="2.5" style="stroke:#000000;stroke-width:1;" width="165.7813" x="673.11" y="305.03"/><rect fill="#333333" height="10" style="stroke:#000000;stroke-width:1;" width="15" x="818.8913" y="310.03"/><rect fill="#333333" height="2" style="stroke:#000000;stroke-width:1;" width="4" x="816.8913" y="312.03"/><rect fill="#333333" height="2" style="stroke:#000000;stroke-width:1;" width="4" x="816.8913" y="316.03"/><text fill="#FFFFFF" font-family="Verdana" font-size="14" lengthAdjust="spacing" textLength="125.7813" x="688.11" y="339.1052">evo_core_storage</text></g><!--entity evo_core_bridge--><g class="entity" data-entity="evo_core_bridge" data-source-line="43" data-uid="ent0018" id="entity_evo_core_bridge"><rect fill="#333333" height="47.0146" rx="2.5" ry="2.5" style="stroke:#000000;stroke-width:1;" width="157.3525" x="874.32" y="305.03"/><rect fill="#333333" height="10" style="stroke:#000000;stroke-width:1;" width="15" x="1011.6725" y="310.03"/><rect fill="#333333" height="2" style="stroke:#000000;stroke-width:1;" width="4" x="1009.6725" y="312.03"/><rect fill="#333333" height="2" style="stroke:#000000;stroke-width:1;" width="4" x="1009.6725" y="316.03"/><text fill="#FFFFFF" font-family="Verdana" font-size="14" lengthAdjust="spacing" textLength="117.3525" x="889.32" y="339.1052">evo_core_bridge</text></g><!--entity evo_core_gui--><g class="entity" data-entity="evo_core_gui" data-source-line="44" data-uid="ent0019" id="entity_evo_core_gui"><rect fill="#333333" height="47.0146" rx="2.5" ry="2.5" style="stroke:#000000;stroke-width:1;" width="134.4521" x="1066.77" y="305.03"/><rect fill="#333333" height="10" style="stroke:#000000;stroke-width:1;" width="15" x="1181.2221" y="310.03"/><rect fill="#333333" height="2" style="stroke:#000000;stroke-width:1;" width="4" x="1179.2221" y="312.03"/><rect fill="#333333" height="2" style="stroke:#000000;stroke-width:1;" width="4" x="1179.2221" y="316.03"/><text fill="#FFFFFF" font-family="Verdana" font-size="14" lengthAdjust="spacing" textLength="94.4521" x="1081.77" y="339.1052">evo_core_gui</text></g><!--SRC=[XP7HReCW58RlUOgpzcAtM_S8ozX3B8r1eOu878BOnJI- -z2o5YnnVoB1VD-F0a_-MsW1LZ5f27c6JuKrKy2Pws11fE-aiSmn3JLhkjRXOFWxAdImVvb3QQ9mSMA3yXIDZmwzXX0RsgmLiFiu8z0WYnzqtGxsRqik90HkaZXZTRfBgGKmpKEcnfS-DSjAPN8dPhfEYut3-lkhKhdrMcnD9CwNFUJD1ft8IalZwmzL2jlZ3SS5xrJo3UYb5XkuSQFrk248uwKV7uJ4O5O-ufG7lAO9raAZ6mjAulGUNJYiRQbsal_dj4F-C_EbpCyl]--></g></svg>