<svg xmlns="http://www.w3.org/2000/svg" xmlns:xlink="http://www.w3.org/1999/xlink" contentStyleType="text/css" data-diagram-type="DESCRIPTION" height="399px" preserveAspectRatio="none" style="width:1584px;height:399px;background:#FFFFFF;" version="1.1" viewBox="0 0 1584 399" width="1584px" zoomAndPan="magnify"><defs/><g><!--cluster Evo Framework--><g class="cluster" data-entity="Evo Framework" data-source-line="7" data-uid="ent0002" id="cluster_Evo Framework"><path d="M13.5,11 L136.7607,11 A3.75,3.75 0 0 1 139.2607,13.5 L146.2607,34.0146 L1574.5,34.0146 A2.5,2.5 0 0 1 1577,36.5146 L1577,389.5 A2.5,2.5 0 0 1 1574.5,392 L13.5,392 A2.5,2.5 0 0 1 11,389.5 L11,13.5 A2.5,2.5 0 0 1 13.5,11" fill="#333333" style="stroke:#000000;stroke-width:1;"/><line style="stroke:#000000;stroke-width:1;" x1="11" x2="146.2607" y1="34.0146" y2="34.0146"/><text fill="#FFFFFF" font-family="Verdana" font-size="14" font-weight="bold" lengthAdjust="spacing" textLength="122.2607" x="15" y="27.0752">Evo Framework</text></g><!--cluster evo_packages--><g class="cluster" data-entity="evo_packages" data-source-line="16" data-uid="ent0004" id="cluster_evo_packages"><path d="M957.5,58.5 L1069.9736,58.5 A3.75,3.75 0 0 1 1072.4736,61 L1079.4736,81.5146 L1550.5,81.5146 A2.5,2.5 0 0 1 1553,84.0146 L1553,148 A2.5,2.5 0 0 1 1550.5,150.5 L957.5,150.5 A2.5,2.5 0 0 1 955,148 L955,61 A2.5,2.5 0 0 1 957.5,58.5" fill="#333333" style="stroke:#000000;stroke-width:1;"/><line style="stroke:#000000;stroke-width:1;" x1="955" x2="1079.4736" y1="81.5146" y2="81.5146"/><text fill="#FFFFFF" font-family="Verdana" font-size="14" font-weight="bold" lengthAdjust="spacing" textLength="111.4736" x="959" y="74.5752">evo_packages</text></g><!--cluster evo_core--><g class="cluster" data-entity="evo_core" data-source-line="32" data-uid="ent0008" id="cluster_evo_core"><path d="M211.5,55 L284.5645,55 A3.75,3.75 0 0 1 287.0645,57.5 L294.0645,78.0146 L928.5,78.0146 A2.5,2.5 0 0 1 931,80.5146 L931,365.5 A2.5,2.5 0 0 1 928.5,368 L211.5,368 A2.5,2.5 0 0 1 209,365.5 L209,57.5 A2.5,2.5 0 0 1 211.5,55" fill="#333333" style="stroke:#000000;stroke-width:1;"/><line style="stroke:#000000;stroke-width:1;" x1="209" x2="294.0645" y1="78.0146" y2="78.0146"/><text fill="#FFFFFF" font-family="Verdana" font-size="14" font-weight="bold" lengthAdjust="spacing" textLength="72.0645" x="213" y="71.0752">evo_core</text></g><!--entity evo_framework--><g class="entity" data-entity="evo_framework" data-source-line="11" data-uid="ent0003" id="entity_evo_framework"><path d="M29.5,94.5 L166.4697,94.5 A3.75,3.75 0 0 1 168.9697,97 L175.9697,117.5146 L190.4697,117.5146 A2.5,2.5 0 0 1 192.9697,120.0146 L192.9697,132.0146 A2.5,2.5 0 0 1 190.4697,134.5146 L29.5,134.5146 A2.5,2.5 0 0 1 27,132.0146 L27,97 A2.5,2.5 0 0 1 29.5,94.5" fill="#333333" style="stroke:#000000;stroke-width:1;"/><line style="stroke:#000000;stroke-width:1;" x1="27" x2="175.9697" y1="117.5146" y2="117.5146"/><text fill="#FFFFFF" font-family="Verdana" font-size="14" font-weight="bold" lengthAdjust="spacing" textLength="123.9697" x="37" y="111.5752">evo_framework</text></g><!--entity evo_package_n--><g class="entity" data-entity="evo_package_n" data-source-line="17" data-uid="ent0005" id="entity_evo_package_n"><path d="M1374,94.5 L1510.0947,94.5 A3.75,3.75 0 0 1 1512.5947,97 L1519.5947,117.5146 L1534.0947,117.5146 A2.5,2.5 0 0 1 1536.5947,120.0146 L1536.5947,132.0146 A2.5,2.5 0 0 1 1534.0947,134.5146 L1374,134.5146 A2.5,2.5 0 0 1 1371.5,132.0146 L1371.5,97 A2.5,2.5 0 0 1 1374,94.5" fill="#333333" style="stroke:#000000;stroke-width:1;"/><line style="stroke:#000000;stroke-width:1;" x1="1371.5" x2="1519.5947" y1="117.5146" y2="117.5146"/><text fill="#FFFFFF" font-family="Verdana" font-size="14" font-weight="bold" lengthAdjust="spacing" textLength="123.0947" x="1381.5" y="111.5752">evo_package_n</text></g><!--entity evo_package_2--><g class="entity" data-entity="evo_package_2" data-source-line="19" data-uid="ent0006" id="entity_evo_package_2"><path d="M1174,94.5 L1310.0742,94.5 A3.75,3.75 0 0 1 1312.5742,97 L1319.5742,117.5146 L1334.0742,117.5146 A2.5,2.5 0 0 1 1336.5742,120.0146 L1336.5742,132.0146 A2.5,2.5 0 0 1 1334.0742,134.5146 L1174,134.5146 A2.5,2.5 0 0 1 1171.5,132.0146 L1171.5,97 A2.5,2.5 0 0 1 1174,94.5" fill="#333333" style="stroke:#000000;stroke-width:1;"/><line style="stroke:#000000;stroke-width:1;" x1="1171.5" x2="1319.5742" y1="117.5146" y2="117.5146"/><text fill="#FFFFFF" font-family="Verdana" font-size="14" font-weight="bold" lengthAdjust="spacing" textLength="123.0742" x="1181.5" y="111.5752">evo_package_2</text></g><!--entity evo_package_1--><g class="entity" data-entity="evo_package_1" data-source-line="23" data-uid="ent0007" id="entity_evo_package_1"><path d="M974,94.5 L1110.0742,94.5 A3.75,3.75 0 0 1 1112.5742,97 L1119.5742,117.5146 L1134.0742,117.5146 A2.5,2.5 0 0 1 1136.5742,120.0146 L1136.5742,132.0146 A2.5,2.5 0 0 1 1134.0742,134.5146 L974,134.5146 A2.5,2.5 0 0 1 971.5,132.0146 L971.5,97 A2.5,2.5 0 0 1 974,94.5" fill="#333333" style="stroke:#000000;stroke-width:1;"/><line style="stroke:#000000;stroke-width:1;" x1="971.5" x2="1119.5742" y1="117.5146" y2="117.5146"/><text fill="#FFFFFF" font-family="Verdana" font-size="14" font-weight="bold" lengthAdjust="spacing" textLength="123.0742" x="981.5" y="111.5752">evo_package_1</text></g><!--entity evo_core_log--><g class="entity" data-entity="evo_core_log" data-source-line="34" data-uid="ent0009" id="entity_evo_core_log"><rect fill="#333333" height="47.0146" rx="2.5" ry="2.5" style="stroke:#000000;stroke-width:1;" width="134.0898" x="235" y="91"/><rect fill="#333333" height="10" style="stroke:#000000;stroke-width:1;" width="15" x="349.0898" y="96"/><rect fill="#333333" height="2" style="stroke:#000000;stroke-width:1;" width="4" x="347.0898" y="98"/><rect fill="#333333" height="2" style="stroke:#000000;stroke-width:1;" width="4" x="347.0898" y="102"/><text fill="#FFFFFF" font-family="Verdana" font-size="14" lengthAdjust="spacing" textLength="94.0898" x="250" y="125.0752">evo_core_log</text></g><!--entity evo_core_id--><g class="entity" data-entity="evo_core_id" data-source-line="35" data-uid="ent0010" id="entity_evo_core_id"><rect fill="#333333" height="47.0146" rx="2.5" ry="2.5" style="stroke:#000000;stroke-width:1;" width="125.5928" x="404" y="91"/><rect fill="#333333" height="10" style="stroke:#000000;stroke-width:1;" width="15" x="509.5928" y="96"/><rect fill="#333333" height="2" style="stroke:#000000;stroke-width:1;" width="4" x="507.5928" y="98"/><rect fill="#333333" height="2" style="stroke:#000000;stroke-width:1;" width="4" x="507.5928" y="102"/><text fill="#FFFFFF" font-family="Verdana" font-size="14" lengthAdjust="spacing" textLength="85.5928" x="419" y="125.0752">evo_core_id</text></g><!--entity evo_core_time--><g class="entity" data-entity="evo_core_time" data-source-line="36" data-uid="ent0011" id="entity_evo_core_time"><rect fill="#333333" height="47.0146" rx="2.5" ry="2.5" style="stroke:#000000;stroke-width:1;" width="144.3438" x="565" y="91"/><rect fill="#333333" height="10" style="stroke:#000000;stroke-width:1;" width="15" x="689.3438" y="96"/><rect fill="#333333" height="2" style="stroke:#000000;stroke-width:1;" width="4" x="687.3438" y="98"/><rect fill="#333333" height="2" style="stroke:#000000;stroke-width:1;" width="4" x="687.3438" y="102"/><text fill="#FFFFFF" font-family="Verdana" font-size="14" lengthAdjust="spacing" textLength="104.3438" x="580" y="125.0752">evo_core_time</text></g><!--entity evo_core_crypto--><g class="entity" data-entity="evo_core_crypto" data-source-line="37" data-uid="ent0012" id="entity_evo_core_crypto"><rect fill="#333333" height="47.0146" rx="2.5" ry="2.5" style="stroke:#000000;stroke-width:1;" width="157.3184" x="744.5" y="91"/><rect fill="#333333" height="10" style="stroke:#000000;stroke-width:1;" width="15" x="881.8184" y="96"/><rect fill="#333333" height="2" style="stroke:#000000;stroke-width:1;" width="4" x="879.8184" y="98"/><rect fill="#333333" height="2" style="stroke:#000000;stroke-width:1;" width="4" x="879.8184" y="102"/><text fill="#FFFFFF" font-family="Verdana" font-size="14" lengthAdjust="spacing" textLength="117.3184" x="759.5" y="125.0752">evo_core_crypto</text></g><!--entity evo_core_entity--><g class="entity" data-entity="evo_core_entity" data-source-line="38" data-uid="ent0013" id="entity_evo_core_entity"><rect fill="#333333" height="47.0146" rx="2.5" ry="2.5" style="stroke:#000000;stroke-width:1;" width="153.3877" x="225.5" y="198"/><rect fill="#333333" height="10" style="stroke:#000000;stroke-width:1;" width="15" x="358.8877" y="203"/><rect fill="#333333" height="2" style="stroke:#000000;stroke-width:1;" width="4" x="356.8877" y="205"/><rect fill="#333333" height="2" style="stroke:#000000;stroke-width:1;" width="4" x="356.8877" y="209"/><text fill="#FFFFFF" font-family="Verdana" font-size="14" lengthAdjust="spacing" textLength="113.3877" x="240.5" y="232.0752">evo_core_entity</text></g><!--entity evo_core_api--><g class="entity" data-entity="evo_core_api" data-source-line="39" data-uid="ent0014" id="entity_evo_core_api"><rect fill="#333333" height="47.0146" rx="2.5" ry="2.5" style="stroke:#000000;stroke-width:1;" width="134.001" x="414" y="198"/><rect fill="#333333" height="10" style="stroke:#000000;stroke-width:1;" width="15" x="528.001" y="203"/><rect fill="#333333" height="2" style="stroke:#000000;stroke-width:1;" width="4" x="526.001" y="205"/><rect fill="#333333" height="2" style="stroke:#000000;stroke-width:1;" width="4" x="526.001" y="209"/><text fill="#FFFFFF" font-family="Verdana" font-size="14" lengthAdjust="spacing" textLength="94.001" x="429" y="232.0752">evo_core_api</text></g><!--entity evo_core_ai--><g class="entity" data-entity="evo_core_ai" data-source-line="40" data-uid="ent0015" id="entity_evo_core_ai"><rect fill="#333333" height="47.0146" rx="2.5" ry="2.5" style="stroke:#000000;stroke-width:1;" width="125.2783" x="583.5" y="198"/><rect fill="#333333" height="10" style="stroke:#000000;stroke-width:1;" width="15" x="688.7783" y="203"/><rect fill="#333333" height="2" style="stroke:#000000;stroke-width:1;" width="4" x="686.7783" y="205"/><rect fill="#333333" height="2" style="stroke:#000000;stroke-width:1;" width="4" x="686.7783" y="209"/><text fill="#FFFFFF" font-family="Verdana" font-size="14" lengthAdjust="spacing" textLength="85.2783" x="598.5" y="232.0752">evo_core_ai</text></g><!--entity evo_core_memory--><g class="entity" data-entity="evo_core_memory" data-source-line="41" data-uid="ent0016" id="entity_evo_core_memory"><rect fill="#333333" height="47.0146" rx="2.5" ry="2.5" style="stroke:#000000;stroke-width:1;" width="171.3594" x="743.5" y="198"/><rect fill="#333333" height="10" style="stroke:#000000;stroke-width:1;" width="15" x="894.8594" y="203"/><rect fill="#333333" height="2" style="stroke:#000000;stroke-width:1;" width="4" x="892.8594" y="205"/><rect fill="#333333" height="2" style="stroke:#000000;stroke-width:1;" width="4" x="892.8594" y="209"/><text fill="#FFFFFF" font-family="Verdana" font-size="14" lengthAdjust="spacing" textLength="131.3594" x="758.5" y="232.0752">evo_core_memory</text></g><!--entity evo_core_storage--><g class="entity" data-entity="evo_core_storage" data-source-line="42" data-uid="ent0017" id="entity_evo_core_storage"><rect fill="#333333" height="47.0146" rx="2.5" ry="2.5" style="stroke:#000000;stroke-width:1;" width="165.7813" x="225" y="305"/><rect fill="#333333" height="10" style="stroke:#000000;stroke-width:1;" width="15" x="370.7813" y="310"/><rect fill="#333333" height="2" style="stroke:#000000;stroke-width:1;" width="4" x="368.7813" y="312"/><rect fill="#333333" height="2" style="stroke:#000000;stroke-width:1;" width="4" x="368.7813" y="316"/><text fill="#FFFFFF" font-family="Verdana" font-size="14" lengthAdjust="spacing" textLength="125.7813" x="240" y="339.0752">evo_core_storage</text></g><!--entity evo_core_bridge--><g class="entity" data-entity="evo_core_bridge" data-source-line="43" data-uid="ent0018" id="entity_evo_core_bridge"><rect fill="#333333" height="47.0146" rx="2.5" ry="2.5" style="stroke:#000000;stroke-width:1;" width="157.3525" x="426.5" y="305"/><rect fill="#333333" height="10" style="stroke:#000000;stroke-width:1;" width="15" x="563.8525" y="310"/><rect fill="#333333" height="2" style="stroke:#000000;stroke-width:1;" width="4" x="561.8525" y="312"/><rect fill="#333333" height="2" style="stroke:#000000;stroke-width:1;" width="4" x="561.8525" y="316"/><text fill="#FFFFFF" font-family="Verdana" font-size="14" lengthAdjust="spacing" textLength="117.3525" x="441.5" y="339.0752">evo_core_bridge</text></g><!--entity evo_core_gui--><g class="entity" data-entity="evo_core_gui" data-source-line="44" data-uid="ent0019" id="entity_evo_core_gui"><rect fill="#333333" height="47.0146" rx="2.5" ry="2.5" style="stroke:#000000;stroke-width:1;" width="134.4521" x="619" y="305"/><rect fill="#333333" height="10" style="stroke:#000000;stroke-width:1;" width="15" x="733.4521" y="310"/><rect fill="#333333" height="2" style="stroke:#000000;stroke-width:1;" width="4" x="731.4521" y="312"/><rect fill="#333333" height="2" style="stroke:#000000;stroke-width:1;" width="4" x="731.4521" y="316"/><text fill="#FFFFFF" font-family="Verdana" font-size="14" lengthAdjust="spacing" textLength="94.4521" x="634" y="339.0752">evo_core_gui</text></g><!--SRC=[XP7HReCW58RlUOgpzcAtM_S8ozX3B8r1eOu878BOnJI- -z2o5YnnVoB1VD-F0a_-MsW1LZ5f27c6JuKrKy2Pws11fE-aiSmn3JLhkjRXOFWxAdImVvb3QQ9mSMA3yXIDZmwzXX0RsgmLiFiu8z0WYnzqtGxsRqik90HkaZXZTRfBgGKmpKEcnfS-DSjAPN8dPhfEYut3-lkhKhdrMcnD9CwNFUJD1ft8IalZwmzL2jlZ3SS5xrJo3UYb5XkuSQFrk248uwKV7uJ4O5O-ufG7lAO9raAZ6mjAulGUNJYiRQbsal_dj4F-C_EbpCyl]--></g></svg>