<svg xmlns="http://www.w3.org/2000/svg" xmlns:xlink="http://www.w3.org/1999/xlink" contentStyleType="text/css" data-diagram-type="SEQUENCE" height="1845px" preserveAspectRatio="none" style="width:1191px;height:1845px;background:#000000;" version="1.1" viewBox="0 0 1191 1845" width="1191px" zoomAndPan="magnify"><title>ESS Serialization Flow - Bridge Layer Communication</title><defs/><g><text fill="#FFFFFF" font-family="Verdana" font-size="22" font-weight="bold" lengthAdjust="spacing" textLength="656.584" x="265.8179" y="60.2715">ESS Serialization Flow - Bridge Layer Communication</text><g><title>ETest0</title><rect fill="#FFFFFF" height="696.9829" style="stroke:#FFFFFF;stroke-width:1;" width="10" x="270.5542" y="247.5186"/></g><g><title>ETest0</title><rect fill="#FFFFFF" height="512.5884" style="stroke:#FFFFFF;stroke-width:1;" width="10" x="270.5542" y="1115.2974"/></g><g><title>Header</title><rect fill="#FFFFFF" height="30" style="stroke:#FFFFFF;stroke-width:1;" width="10" x="547.4238" y="586.709"/></g><g><title>Header</title><rect fill="#FFFFFF" height="30" style="stroke:#FFFFFF;stroke-width:1;" width="10" x="547.4238" y="1187.896"/></g><g><title>Nested</title><rect fill="#FFFFFF" height="59.5986" style="stroke:#FFFFFF;stroke-width:1;" width="10" x="642.6079" y="277.3179"/></g><g><title>Nested</title><rect fill="#FFFFFF" height="29.7993" style="stroke:#FFFFFF;stroke-width:1;" width="10" x="642.6079" y="1346.6919"/></g><g><title>Nested</title><rect fill="#FFFFFF" height="29.7993" style="stroke:#FFFFFF;stroke-width:1;" width="10" x="642.6079" y="1406.2905"/></g><g><title>MapEntity</title><rect fill="#FFFFFF" height="59.5986" style="stroke:#FFFFFF;stroke-width:1;" width="10" x="747.54" y="366.7158"/></g><g><title>MapEntity</title><rect fill="#FFFFFF" height="29.7993" style="stroke:#FFFFFF;stroke-width:1;" width="10" x="747.54" y="1465.8892"/></g><g><title>MapEntity</title><rect fill="#FFFFFF" height="29.7993" style="stroke:#FFFFFF;stroke-width:1;" width="10" x="747.54" y="1525.4878"/></g><g><title>Buffer</title><rect fill="#FFFFFF" height="268.1938" style="stroke:#FFFFFF;stroke-width:1;" width="10" x="847.7485" y="646.5083"/></g><g><title>Bridge</title><rect fill="#FFFFFF" height="92.3979" style="stroke:#FFFFFF;stroke-width:1;" width="10" x="934.5278" y="993.1001"/></g><g><title>PeerA</title><rect fill="#000000" fill-opacity="0.00000" height="1572.9624" width="8" x="40.2607" y="171.9199"/><line style="stroke:#FFFFFF;stroke-width:1;" x1="44" x2="44" y1="171.9199" y2="1744.8823"/></g><g><title>ETest0</title><rect fill="#000000" fill-opacity="0.00000" height="1572.9624" width="8" x="271.5542" y="171.9199"/><line style="stroke:#FFFFFF;stroke-width:1;" x1="274.7891" x2="274.7891" y1="171.9199" y2="1744.8823"/></g><g><title>Header</title><rect fill="#000000" fill-opacity="0.00000" height="1572.9624" width="8" x="548.4238" y="171.9199"/><line style="stroke:#FFFFFF;stroke-width:1;" x1="552.271" x2="552.271" y1="171.9199" y2="1744.8823"/></g><g><title>Nested</title><rect fill="#000000" fill-opacity="0.00000" height="1572.9624" width="8" x="643.6079" y="171.9199"/><line style="stroke:#FFFFFF;stroke-width:1;" x1="647.5767" x2="647.5767" y1="171.9199" y2="1744.8823"/></g><g><title>MapEntity</title><rect fill="#000000" fill-opacity="0.00000" height="1572.9624" width="8" x="748.54" y="171.9199"/><line style="stroke:#FFFFFF;stroke-width:1;" x1="751.6392" x2="751.6392" y1="171.9199" y2="1744.8823"/></g><g><title>Buffer</title><rect fill="#000000" fill-opacity="0.00000" height="1572.9624" width="8" x="848.7485" y="171.9199"/><line style="stroke:#FFFFFF;stroke-width:1;" x1="852.4409" x2="852.4409" y1="171.9199" y2="1744.8823"/></g><g><title>Bridge</title><rect fill="#000000" fill-opacity="0.00000" height="1572.9624" width="8" x="935.5278" y="171.9199"/><line style="stroke:#FFFFFF;stroke-width:1;" x1="939.0562" x2="939.0562" y1="171.9199" y2="1744.8823"/></g><g><title>PeerB</title><rect fill="#000000" fill-opacity="0.00000" height="1572.9624" width="8" x="1135.7876" y="171.9199"/><line style="stroke:#FFFFFF;stroke-width:1;" x1="1139.3555" x2="1139.3555" y1="171.9199" y2="1744.8823"/></g><g class="participant participant-head" data-participant="PeerA"><text fill="#FFFFFF" font-family="Verdana" font-size="14" lengthAdjust="spacing" textLength="40.667" x="20.9272" y="151.9658">PeerA</text><text fill="#FFFFFF" font-family="Verdana" font-size="14" lengthAdjust="spacing" textLength="62.5215" x="10" y="168.9805">(Sender)</text><ellipse cx="44.2607" cy="92.8906" fill="#FFB6C1" rx="16" ry="16" style="stroke:#FFFFFF;stroke-width:1;"/><path d="M44.2607,112.8906 C48.2607,112.8906 51.2607,112.8906 55.2607,108.8906 C63.2607,108.8906 71.2607,116.8906 71.2607,124.8906 L71.2607,128.8906 C71.2607,132.8906 67.2607,136.8906 63.2607,136.8906 L25.2607,136.8906 C21.2607,136.8906 17.2607,132.8906 17.2607,128.8906 L17.2607,124.8906 C17.2607,116.8906 25.2607,108.8906 33.2607,108.8906 C37.2607,112.8906 40.2607,112.8906 44.2607,112.8906" fill="#FFB6C1" style="stroke:#FFFFFF;stroke-width:1;"/></g><g class="participant participant-tail" data-participant="PeerA"><text fill="#FFFFFF" font-family="Verdana" font-size="14" lengthAdjust="spacing" textLength="40.667" x="20.9272" y="1757.9575">PeerA</text><text fill="#FFFFFF" font-family="Verdana" font-size="14" lengthAdjust="spacing" textLength="62.5215" x="10" y="1774.9722">(Sender)</text><ellipse cx="44.2607" cy="1794.9116" fill="#FFB6C1" rx="16" ry="16" style="stroke:#FFFFFF;stroke-width:1;"/><path d="M44.2607,1814.9116 C48.2607,1814.9116 51.2607,1814.9116 55.2607,1810.9116 C63.2607,1810.9116 71.2607,1818.9116 71.2607,1826.9116 L71.2607,1830.9116 C71.2607,1834.9116 67.2607,1838.9116 63.2607,1838.9116 L25.2607,1838.9116 C21.2607,1838.9116 17.2607,1834.9116 17.2607,1830.9116 L17.2607,1826.9116 C17.2607,1818.9116 25.2607,1810.9116 33.2607,1810.9116 C37.2607,1814.9116 40.2607,1814.9116 44.2607,1814.9116" fill="#FFB6C1" style="stroke:#FFFFFF;stroke-width:1;"/></g><g class="participant participant-head" data-participant="entity"><rect fill="#09B620" height="31.0146" rx="2.5" ry="2.5" style="stroke:#FFFFFF;stroke-width:1;" width="61.5303" x="244.7891" y="139.9053"/><text fill="#FFFFFF" font-family="Verdana" font-size="14" lengthAdjust="spacing" textLength="47.5303" x="251.7891" y="160.9805">ETest0</text></g><g class="participant participant-tail" data-participant="entity"><rect fill="#09B620" height="31.0146" rx="2.5" ry="2.5" style="stroke:#FFFFFF;stroke-width:1;" width="61.5303" x="244.7891" y="1743.8823"/><text fill="#FFFFFF" font-family="Verdana" font-size="14" lengthAdjust="spacing" textLength="47.5303" x="251.7891" y="1764.9575">ETest0</text></g><g class="participant participant-head" data-participant="header"><rect fill="#09B620" height="31.0146" rx="2.5" ry="2.5" style="stroke:#FFFFFF;stroke-width:1;" width="64.3057" x="520.271" y="139.9053"/><text fill="#FFFFFF" font-family="Verdana" font-size="14" lengthAdjust="spacing" textLength="50.3057" x="527.271" y="160.9805">Header</text></g><g class="participant participant-tail" data-participant="header"><rect fill="#09B620" height="31.0146" rx="2.5" ry="2.5" style="stroke:#FFFFFF;stroke-width:1;" width="64.3057" x="520.271" y="1743.8823"/><text fill="#FFFFFF" font-family="Verdana" font-size="14" lengthAdjust="spacing" textLength="50.3057" x="527.271" y="1764.9575">Header</text></g><g class="participant participant-head" data-participant="nested"><rect fill="#09B620" height="48.0293" rx="2.5" ry="2.5" style="stroke:#FFFFFF;stroke-width:1;" width="66.0625" x="614.5767" y="122.8906"/><text fill="#FFFFFF" font-family="Verdana" font-size="14" lengthAdjust="spacing" textLength="48.6855" x="623.2651" y="143.9658">Nested</text><text fill="#FFFFFF" font-family="Verdana" font-size="14" lengthAdjust="spacing" textLength="52.0625" x="621.5767" y="160.9805">Entities</text></g><g class="participant participant-tail" data-participant="nested"><rect fill="#09B620" height="48.0293" rx="2.5" ry="2.5" style="stroke:#FFFFFF;stroke-width:1;" width="66.0625" x="614.5767" y="1743.8823"/><text fill="#FFFFFF" font-family="Verdana" font-size="14" lengthAdjust="spacing" textLength="48.6855" x="623.2651" y="1764.9575">Nested</text><text fill="#FFFFFF" font-family="Verdana" font-size="14" lengthAdjust="spacing" textLength="52.0625" x="621.5767" y="1781.9722">Entities</text></g><g class="participant participant-head" data-participant="map"><rect fill="#333333" height="31.0146" rx="2.5" ry="2.5" style="stroke:#FFFFFF;stroke-width:1;" width="83.8018" x="710.6392" y="139.9053"/><text fill="#FFFFFF" font-family="Verdana" font-size="14" lengthAdjust="spacing" textLength="69.8018" x="717.6392" y="160.9805">MapEntity</text></g><g class="participant participant-tail" data-participant="map"><rect fill="#333333" height="31.0146" rx="2.5" ry="2.5" style="stroke:#FFFFFF;stroke-width:1;" width="83.8018" x="710.6392" y="1743.8823"/><text fill="#FFFFFF" font-family="Verdana" font-size="14" lengthAdjust="spacing" textLength="69.8018" x="717.6392" y="1764.9575">MapEntity</text></g><g class="participant participant-head" data-participant="buffer"><rect fill="#333333" height="31.0146" rx="2.5" ry="2.5" style="stroke:#FFFFFF;stroke-width:1;" width="56.6152" x="824.4409" y="139.9053"/><text fill="#FFFFFF" font-family="Verdana" font-size="14" lengthAdjust="spacing" textLength="42.6152" x="831.4409" y="160.9805">Buffer</text></g><g class="participant participant-tail" data-participant="buffer"><rect fill="#333333" height="31.0146" rx="2.5" ry="2.5" style="stroke:#FFFFFF;stroke-width:1;" width="56.6152" x="824.4409" y="1743.8823"/><text fill="#FFFFFF" font-family="Verdana" font-size="14" lengthAdjust="spacing" textLength="42.6152" x="831.4409" y="1764.9575">Buffer</text></g><g class="participant participant-head" data-participant="bridge"><path d="M906.0562,127.8906 L972.9995,127.8906 C977.9995,127.8906 977.9995,149.9053 977.9995,149.9053 C977.9995,149.9053 977.9995,171.9199 972.9995,171.9199 L906.0562,171.9199 C901.0562,171.9199 901.0562,149.9053 901.0562,149.9053 C901.0562,149.9053 901.0562,127.8906 906.0562,127.8906" fill="#FF0000" style="stroke:#000000;stroke-width:1;"/><path d="M972.9995,127.8906 C967.9995,127.8906 967.9995,149.9053 967.9995,149.9053 C967.9995,171.9199 972.9995,171.9199 972.9995,171.9199" fill="none" style="stroke:#000000;stroke-width:1;"/><text fill="#FFFFFF" font-family="Verdana" font-size="14" lengthAdjust="spacing" textLength="45.1992" x="911.9282" y="146.9658">Bridge</text><text fill="#FFFFFF" font-family="Verdana" font-size="14" lengthAdjust="spacing" textLength="56.9434" x="906.0562" y="163.9805">Channel</text></g><g class="participant participant-tail" data-participant="bridge"><path d="M906.0562,1743.8823 L972.9995,1743.8823 C977.9995,1743.8823 977.9995,1765.897 977.9995,1765.897 C977.9995,1765.897 977.9995,1787.9116 972.9995,1787.9116 L906.0562,1787.9116 C901.0562,1787.9116 901.0562,1765.897 901.0562,1765.897 C901.0562,1765.897 901.0562,1743.8823 906.0562,1743.8823" fill="#FF0000" style="stroke:#000000;stroke-width:1;"/><path d="M972.9995,1743.8823 C967.9995,1743.8823 967.9995,1765.897 967.9995,1765.897 C967.9995,1787.9116 972.9995,1787.9116 972.9995,1787.9116" fill="none" style="stroke:#000000;stroke-width:1;"/><text fill="#FFFFFF" font-family="Verdana" font-size="14" lengthAdjust="spacing" textLength="45.1992" x="911.9282" y="1762.9575">Bridge</text><text fill="#FFFFFF" font-family="Verdana" font-size="14" lengthAdjust="spacing" textLength="56.9434" x="906.0562" y="1779.9722">Channel</text></g><g class="participant participant-head" data-participant="PeerB"><text fill="#FFFFFF" font-family="Verdana" font-size="14" lengthAdjust="spacing" textLength="40.6943" x="1116.4404" y="151.9658">PeerB</text><text fill="#FFFFFF" font-family="Verdana" font-size="14" lengthAdjust="spacing" textLength="72.8643" x="1100.3555" y="168.9805">(Receiver)</text><ellipse cx="1139.7876" cy="92.8906" fill="#87CEEB" rx="16" ry="16" style="stroke:#FFFFFF;stroke-width:1;"/><path d="M1139.7876,112.8906 C1143.7876,112.8906 1146.7876,112.8906 1150.7876,108.8906 C1158.7876,108.8906 1166.7876,116.8906 1166.7876,124.8906 L1166.7876,128.8906 C1166.7876,132.8906 1162.7876,136.8906 1158.7876,136.8906 L1120.7876,136.8906 C1116.7876,136.8906 1112.7876,132.8906 1112.7876,128.8906 L1112.7876,124.8906 C1112.7876,116.8906 1120.7876,108.8906 1128.7876,108.8906 C1132.7876,112.8906 1135.7876,112.8906 1139.7876,112.8906" fill="#87CEEB" style="stroke:#FFFFFF;stroke-width:1;"/></g><g class="participant participant-tail" data-participant="PeerB"><text fill="#FFFFFF" font-family="Verdana" font-size="14" lengthAdjust="spacing" textLength="40.6943" x="1116.4404" y="1757.9575">PeerB</text><text fill="#FFFFFF" font-family="Verdana" font-size="14" lengthAdjust="spacing" textLength="72.8643" x="1100.3555" y="1774.9722">(Receiver)</text><ellipse cx="1139.7876" cy="1794.9116" fill="#87CEEB" rx="16" ry="16" style="stroke:#FFFFFF;stroke-width:1;"/><path d="M1139.7876,1814.9116 C1143.7876,1814.9116 1146.7876,1814.9116 1150.7876,1810.9116 C1158.7876,1810.9116 1166.7876,1818.9116 1166.7876,1826.9116 L1166.7876,1830.9116 C1166.7876,1834.9116 1162.7876,1838.9116 1158.7876,1838.9116 L1120.7876,1838.9116 C1116.7876,1838.9116 1112.7876,1834.9116 1112.7876,1830.9116 L1112.7876,1826.9116 C1112.7876,1818.9116 1120.7876,1810.9116 1128.7876,1810.9116 C1132.7876,1814.9116 1135.7876,1814.9116 1139.7876,1814.9116" fill="#87CEEB" style="stroke:#FFFFFF;stroke-width:1;"/></g><g><title>ETest0</title><rect fill="#FFFFFF" height="696.9829" style="stroke:#FFFFFF;stroke-width:1;" width="10" x="270.5542" y="247.5186"/></g><g><title>ETest0</title><rect fill="#FFFFFF" height="512.5884" style="stroke:#FFFFFF;stroke-width:1;" width="10" x="270.5542" y="1115.2974"/></g><g><title>Header</title><rect fill="#FFFFFF" height="30" style="stroke:#FFFFFF;stroke-width:1;" width="10" x="547.4238" y="586.709"/></g><g><title>Header</title><rect fill="#FFFFFF" height="30" style="stroke:#FFFFFF;stroke-width:1;" width="10" x="547.4238" y="1187.896"/></g><g><title>Nested</title><rect fill="#FFFFFF" height="59.5986" style="stroke:#FFFFFF;stroke-width:1;" width="10" x="642.6079" y="277.3179"/></g><g><title>Nested</title><rect fill="#FFFFFF" height="29.7993" style="stroke:#FFFFFF;stroke-width:1;" width="10" x="642.6079" y="1346.6919"/></g><g><title>Nested</title><rect fill="#FFFFFF" height="29.7993" style="stroke:#FFFFFF;stroke-width:1;" width="10" x="642.6079" y="1406.2905"/></g><g><title>MapEntity</title><rect fill="#FFFFFF" height="59.5986" style="stroke:#FFFFFF;stroke-width:1;" width="10" x="747.54" y="366.7158"/></g><g><title>MapEntity</title><rect fill="#FFFFFF" height="29.7993" style="stroke:#FFFFFF;stroke-width:1;" width="10" x="747.54" y="1465.8892"/></g><g><title>MapEntity</title><rect fill="#FFFFFF" height="29.7993" style="stroke:#FFFFFF;stroke-width:1;" width="10" x="747.54" y="1525.4878"/></g><g><title>Buffer</title><rect fill="#FFFFFF" height="268.1938" style="stroke:#FFFFFF;stroke-width:1;" width="10" x="847.7485" y="646.5083"/></g><g><title>Bridge</title><rect fill="#FFFFFF" height="92.3979" style="stroke:#FFFFFF;stroke-width:1;" width="10" x="934.5278" y="993.1001"/></g><rect fill="#FFFFFF" height="3" style="stroke:#FFFFFF;stroke-width:1;" width="1179.2197" x="5" y="202.8196"/><line style="stroke:#000000;stroke-width:0.5;" x1="5" x2="1184.2197" y1="202.8196" y2="202.8196"/><line style="stroke:#000000;stroke-width:0.5;" x1="5" x2="1184.2197" y1="205.8196" y2="205.8196"/><rect fill="#FFFFFF" height="23.7993" style="stroke:#000000;stroke-width:1;" width="219.9624" x="484.6287" y="191.9199"/><text fill="#FFFFFF" font-family="Verdana" font-size="13" font-weight="bold" lengthAdjust="spacing" textLength="201.519" x="490.6287" y="208.9897">Serialization Phase (PeerA)</text><g class="message" data-participant-1="PeerA" data-participant-2="entity"><polygon fill="#FFFFFF" points="258.5542,243.5186,268.5542,247.5186,258.5542,251.5186,262.5542,247.5186" style="stroke:#FFFFFF;stroke-width:1;"/><line style="stroke:#FFFFFF;stroke-width:1;" x1="44.2607" x2="264.5542" y1="247.5186" y2="247.5186"/><text fill="#FFFFFF" font-family="Verdana" font-size="13" lengthAdjust="spacing" textLength="68.5166" x="51.2607" y="242.7891">to_bytes()</text></g><g class="message" data-participant-1="entity" data-participant-2="nested"><polygon fill="#FFFFFF" points="630.6079,273.3179,640.6079,277.3179,630.6079,281.3179,634.6079,277.3179" style="stroke:#FFFFFF;stroke-width:1;"/><line style="stroke:#FFFFFF;stroke-width:1;" x1="280.5542" x2="636.6079" y1="277.3179" y2="277.3179"/><text fill="#FFFFFF" font-family="Verdana" font-size="13" lengthAdjust="spacing" textLength="155.981" x="287.5542" y="272.5884">Serialize nested entities</text></g><g class="message" data-participant-1="nested" data-participant-2="entity"><polygon fill="#FFFFFF" points="291.5542,303.1172,281.5542,307.1172,291.5542,311.1172,287.5542,307.1172" style="stroke:#FFFFFF;stroke-width:1;"/><line style="stroke:#FFFFFF;stroke-width:1;stroke-dasharray:2.0,2.0;" x1="285.5542" x2="641.6079" y1="307.1172" y2="307.1172"/><text fill="#FFFFFF" font-family="Verdana" font-size="13" lengthAdjust="spacing" textLength="166.9878" x="297.5542" y="302.3877">Vec&lt;u8&gt; (entity1_bytes)</text></g><g class="message" data-participant-1="nested" data-participant-2="entity"><polygon fill="#FFFFFF" points="291.5542,332.9165,281.5542,336.9165,291.5542,340.9165,287.5542,336.9165" style="stroke:#FFFFFF;stroke-width:1;"/><line style="stroke:#FFFFFF;stroke-width:1;stroke-dasharray:2.0,2.0;" x1="285.5542" x2="646.6079" y1="336.9165" y2="336.9165"/><text fill="#FFFFFF" font-family="Verdana" font-size="13" lengthAdjust="spacing" textLength="166.9878" x="297.5542" y="332.187">Vec&lt;u8&gt; (entity2_bytes)</text></g><g class="message" data-participant-1="entity" data-participant-2="map"><polygon fill="#FFFFFF" points="735.54,362.7158,745.54,366.7158,735.54,370.7158,739.54,366.7158" style="stroke:#FFFFFF;stroke-width:1;"/><line style="stroke:#FFFFFF;stroke-width:1;" x1="280.5542" x2="741.54" y1="366.7158" y2="366.7158"/><text fill="#FFFFFF" font-family="Verdana" font-size="13" lengthAdjust="spacing" textLength="95.1577" x="287.5542" y="361.9863">Serialize maps</text></g><g class="message" data-participant-1="map" data-participant-2="entity"><polygon fill="#FFFFFF" points="291.5542,392.5151,281.5542,396.5151,291.5542,400.5151,287.5542,396.5151" style="stroke:#FFFFFF;stroke-width:1;"/><line style="stroke:#FFFFFF;stroke-width:1;stroke-dasharray:2.0,2.0;" x1="285.5542" x2="746.54" y1="396.5151" y2="396.5151"/><text fill="#FFFFFF" font-family="Verdana" font-size="13" lengthAdjust="spacing" textLength="158.063" x="297.5542" y="391.7856">Vec&lt;u8&gt; (map0_bytes)</text></g><g class="message" data-participant-1="map" data-participant-2="entity"><polygon fill="#FFFFFF" points="291.5542,422.3145,281.5542,426.3145,291.5542,430.3145,287.5542,426.3145" style="stroke:#FFFFFF;stroke-width:1;"/><line style="stroke:#FFFFFF;stroke-width:1;stroke-dasharray:2.0,2.0;" x1="285.5542" x2="751.54" y1="426.3145" y2="426.3145"/><text fill="#FFFFFF" font-family="Verdana" font-size="13" lengthAdjust="spacing" textLength="158.063" x="297.5542" y="421.585">Vec&lt;u8&gt; (map1_bytes)</text></g><g class="message" data-participant-1="entity" data-participant-2="entity"><line style="stroke:#FFFFFF;stroke-width:1;" x1="280.5542" x2="322.5542" y1="500.0117" y2="500.0117"/><line style="stroke:#FFFFFF;stroke-width:1;" x1="322.5542" x2="322.5542" y1="500.0117" y2="513.0117"/><line style="stroke:#FFFFFF;stroke-width:1;" x1="281.5542" x2="322.5542" y1="513.0117" y2="513.0117"/><polygon fill="#FFFFFF" points="291.5542,509.0117,281.5542,513.0117,291.5542,517.0117,287.5542,513.0117" style="stroke:#FFFFFF;stroke-width:1;"/><text fill="#FFFFFF" font-family="Verdana" font-size="13" lengthAdjust="spacing" textLength="123.2588" x="287.5542" y="495.2822">Calculate total size</text></g><path d="M432.2588,439.3145 L432.2588,559.3145 L629.2588,559.3145 L629.2588,449.3145 L619.2588,439.3145 L432.2588,439.3145" fill="#FFFFFF" style="stroke:#000000;stroke-width:1;"/><path d="M619.2588,439.3145 L619.2588,449.3145 L629.2588,449.3145 L619.2588,439.3145" fill="#FFFFFF" style="stroke:#000000;stroke-width:1;"/><text fill="#000000" font-family="Verdana" font-size="13" lengthAdjust="spacing" textLength="176.3696" x="438.2588" y="457.3843">total_size = HEADER_SIZE</text><text fill="#000000" font-family="Verdana" font-size="13" lengthAdjust="spacing" textLength="88.7529" x="456.54" y="473.1836">+ entity1_len</text><text fill="#000000" font-family="Verdana" font-size="13" lengthAdjust="spacing" textLength="88.7529" x="456.54" y="488.9829">+ entity2_len</text><text fill="#000000" font-family="Verdana" font-size="13" lengthAdjust="spacing" textLength="79.8281" x="456.54" y="504.7822">+ map0_len</text><text fill="#000000" font-family="Verdana" font-size="13" lengthAdjust="spacing" textLength="79.8281" x="456.54" y="520.5815">+ map1_len</text><text fill="#000000" font-family="Verdana" font-size="13" lengthAdjust="spacing" textLength="80.3486" x="456.54" y="536.3809">+ string_len</text><text fill="#000000" font-family="Verdana" font-size="13" lengthAdjust="spacing" textLength="29.396" x="456.54" y="552.1802">+ ...</text><g class="message" data-participant-1="entity" data-participant-2="header"><polygon fill="#FFFFFF" points="535.4238,582.709,545.4238,586.709,535.4238,590.709,539.4238,586.709" style="stroke:#FFFFFF;stroke-width:1;"/><line style="stroke:#FFFFFF;stroke-width:1;" x1="280.5542" x2="541.4238" y1="586.709" y2="586.709"/><text fill="#FFFFFF" font-family="Verdana" font-size="13" lengthAdjust="spacing" textLength="130.8379" x="287.5542" y="581.9795">Update length fields</text></g><g class="message" data-participant-1="entity" data-participant-2="buffer"><polygon fill="#FFFFFF" points="835.7485,642.5083,845.7485,646.5083,835.7485,650.5083,839.7485,646.5083" style="stroke:#FFFFFF;stroke-width:1;"/><line style="stroke:#FFFFFF;stroke-width:1;" x1="280.5542" x2="841.7485" y1="646.5083" y2="646.5083"/><text fill="#FFFFFF" font-family="Verdana" font-size="13" lengthAdjust="spacing" textLength="191.5977" x="287.5542" y="641.7788">Allocate Vec&lt;u8&gt;(total_size)</text></g><g class="message" data-participant-1="entity" data-participant-2="buffer"><polygon fill="#FFFFFF" points="835.7485,672.3076,845.7485,676.3076,835.7485,680.3076,839.7485,676.3076" style="stroke:#FFFFFF;stroke-width:1;"/><line style="stroke:#FFFFFF;stroke-width:1;" x1="280.5542" x2="841.7485" y1="676.3076" y2="676.3076"/><text fill="#FFFFFF" font-family="Verdana" font-size="13" lengthAdjust="spacing" textLength="151.4932" x="287.5542" y="671.5781">Write version (8 bytes)</text></g><g class="message" data-participant-1="entity" data-participant-2="header"><polygon fill="#FFFFFF" points="540.4238,702.1069,550.4238,706.1069,540.4238,710.1069,544.4238,706.1069" style="stroke:#FFFFFF;stroke-width:1;"/><line style="stroke:#FFFFFF;stroke-width:1;" x1="280.5542" x2="546.4238" y1="706.1069" y2="706.1069"/><text fill="#FFFFFF" font-family="Verdana" font-size="13" lengthAdjust="spacing" textLength="70.0845" x="287.5542" y="701.3774">as_bytes()</text></g><g class="message" data-participant-1="entity" data-participant-2="buffer"><polygon fill="#FFFFFF" points="835.7485,731.9063,845.7485,735.9063,835.7485,739.9063,839.7485,735.9063" style="stroke:#FFFFFF;stroke-width:1;"/><line style="stroke:#FFFFFF;stroke-width:1;" x1="280.5542" x2="841.7485" y1="735.9063" y2="735.9063"/><text fill="#FFFFFF" font-family="Verdana" font-size="13" lengthAdjust="spacing" textLength="124.5791" x="287.5542" y="731.1768">Write header bytes</text></g><g class="message" data-participant-1="entity" data-participant-2="buffer"><polygon fill="#FFFFFF" points="835.7485,761.7056,845.7485,765.7056,835.7485,769.7056,839.7485,765.7056" style="stroke:#FFFFFF;stroke-width:1;"/><line style="stroke:#FFFFFF;stroke-width:1;" x1="280.5542" x2="841.7485" y1="765.7056" y2="765.7056"/><text fill="#FFFFFF" font-family="Verdana" font-size="13" lengthAdjust="spacing" textLength="128.8447" x="287.5542" y="760.9761">Write entity1_bytes</text></g><g class="message" data-participant-1="entity" data-participant-2="buffer"><polygon fill="#FFFFFF" points="835.7485,791.5049,845.7485,795.5049,835.7485,799.5049,839.7485,795.5049" style="stroke:#FFFFFF;stroke-width:1;"/><line style="stroke:#FFFFFF;stroke-width:1;" x1="280.5542" x2="841.7485" y1="795.5049" y2="795.5049"/><text fill="#FFFFFF" font-family="Verdana" font-size="13" lengthAdjust="spacing" textLength="128.8447" x="287.5542" y="790.7754">Write entity2_bytes</text></g><g class="message" data-participant-1="entity" data-participant-2="buffer"><polygon fill="#FFFFFF" points="835.7485,821.3042,845.7485,825.3042,835.7485,829.3042,839.7485,825.3042" style="stroke:#FFFFFF;stroke-width:1;"/><line style="stroke:#FFFFFF;stroke-width:1;" x1="280.5542" x2="841.7485" y1="825.3042" y2="825.3042"/><text fill="#FFFFFF" font-family="Verdana" font-size="13" lengthAdjust="spacing" textLength="119.9199" x="287.5542" y="820.5747">Write map0_bytes</text></g><g class="message" data-participant-1="entity" data-participant-2="buffer"><polygon fill="#FFFFFF" points="835.7485,851.1035,845.7485,855.1035,835.7485,859.1035,839.7485,855.1035" style="stroke:#FFFFFF;stroke-width:1;"/><line style="stroke:#FFFFFF;stroke-width:1;" x1="280.5542" x2="841.7485" y1="855.1035" y2="855.1035"/><text fill="#FFFFFF" font-family="Verdana" font-size="13" lengthAdjust="spacing" textLength="119.9199" x="287.5542" y="850.374">Write map1_bytes</text></g><g class="message" data-participant-1="entity" data-participant-2="buffer"><polygon fill="#FFFFFF" points="835.7485,880.9028,845.7485,884.9028,835.7485,888.9028,839.7485,884.9028" style="stroke:#FFFFFF;stroke-width:1;"/><line style="stroke:#FFFFFF;stroke-width:1;" x1="280.5542" x2="841.7485" y1="884.9028" y2="884.9028"/><text fill="#FFFFFF" font-family="Verdana" font-size="13" lengthAdjust="spacing" textLength="83.5161" x="287.5542" y="880.1733">Write strings</text></g><g class="message" data-participant-1="buffer" data-participant-2="entity"><polygon fill="#FFFFFF" points="291.5542,910.7021,281.5542,914.7021,291.5542,918.7021,287.5542,914.7021" style="stroke:#FFFFFF;stroke-width:1;"/><line style="stroke:#FFFFFF;stroke-width:1;stroke-dasharray:2.0,2.0;" x1="285.5542" x2="851.7485" y1="914.7021" y2="914.7021"/><text fill="#FFFFFF" font-family="Verdana" font-size="13" lengthAdjust="spacing" textLength="134.0942" x="297.5542" y="909.9727">Complete byte array</text></g><g class="message" data-participant-1="entity" data-participant-2="PeerA"><polygon fill="#FFFFFF" points="55.2607,940.5015,45.2607,944.5015,55.2607,948.5015,51.2607,944.5015" style="stroke:#FFFFFF;stroke-width:1;"/><line style="stroke:#FFFFFF;stroke-width:1;stroke-dasharray:2.0,2.0;" x1="49.2607" x2="274.5542" y1="944.5015" y2="944.5015"/><text fill="#FFFFFF" font-family="Verdana" font-size="13" lengthAdjust="spacing" textLength="202.2935" x="61.2607" y="939.772">Result&lt;Vec&lt;u8&gt;, EnumError&gt;</text></g><g class="message" data-participant-1="PeerA" data-participant-2="bridge"><polygon fill="#FFFFFF" points="922.5278,989.1001,932.5278,993.1001,922.5278,997.1001,926.5278,993.1001" style="stroke:#FFFFFF;stroke-width:1;"/><line style="stroke:#FFFFFF;stroke-width:1;" x1="44.2607" x2="928.5278" y1="993.1001" y2="993.1001"/><text fill="#FFFFFF" font-family="Verdana" font-size="13" lengthAdjust="spacing" textLength="136.2715" x="51.2607" y="988.3706">Send bytes to bridge</text></g><path d="M949,957.5015 L949,1014.5015 L1147,1014.5015 L1147,967.5015 L1137,957.5015 L949,957.5015" fill="#FFFFFF" style="stroke:#000000;stroke-width:1;"/><path d="M1137,957.5015 L1137,967.5015 L1147,967.5015 L1137,957.5015" fill="#FFFFFF" style="stroke:#000000;stroke-width:1;"/><text fill="#000000" font-family="Verdana" font-size="13" font-weight="bold" lengthAdjust="spacing" textLength="177.0234" x="955" y="975.5713">Bridge Channel Transfer</text><text fill="#000000" font-family="Verdana" font-size="13" lengthAdjust="spacing" textLength="112.9375" x="955" y="991.3706">Size: 176+ bytes</text><text fill="#000000" font-family="Verdana" font-size="13" lengthAdjust="spacing" textLength="131.752" x="955" y="1007.1699">Universal ID routing</text><rect fill="#FFFFFF" height="3" style="stroke:#FFFFFF;stroke-width:1;" width="1179.2197" x="5" y="1040.7991"/><line style="stroke:#000000;stroke-width:0.5;" x1="5" x2="1184.2197" y1="1040.7991" y2="1040.7991"/><line style="stroke:#000000;stroke-width:0.5;" x1="5" x2="1184.2197" y1="1043.7991" y2="1043.7991"/><rect fill="#FFFFFF" height="23.7993" style="stroke:#000000;stroke-width:1;" width="237.6724" x="475.7737" y="1029.8994"/><text fill="#FFFFFF" font-family="Verdana" font-size="13" font-weight="bold" lengthAdjust="spacing" textLength="219.229" x="481.7737" y="1046.9692">Deserialization Phase (PeerB)</text><g class="message" data-participant-1="bridge" data-participant-2="PeerB"><polygon fill="#FFFFFF" points="1127.7876,1081.498,1137.7876,1085.498,1127.7876,1089.498,1131.7876,1085.498" style="stroke:#FFFFFF;stroke-width:1;"/><line style="stroke:#FFFFFF;stroke-width:1;" x1="939.5278" x2="1133.7876" y1="1085.498" y2="1085.498"/><text fill="#FFFFFF" font-family="Verdana" font-size="13" lengthAdjust="spacing" textLength="171.2598" x="946.5278" y="1080.7686">Receive bytes from bridge</text></g><g class="message" data-participant-1="PeerB" data-participant-2="entity"><polygon fill="#FFFFFF" points="291.5542,1111.2974,281.5542,1115.2974,291.5542,1119.2974,287.5542,1115.2974" style="stroke:#FFFFFF;stroke-width:1;"/><line style="stroke:#FFFFFF;stroke-width:1;" x1="285.5542" x2="1138.7876" y1="1115.2974" y2="1115.2974"/><text fill="#FFFFFF" font-family="Verdana" font-size="13" lengthAdjust="spacing" textLength="114.9941" x="297.5542" y="1110.5679">from_bytes(data)</text></g><g class="message" data-participant-1="entity" data-participant-2="entity"><line style="stroke:#FFFFFF;stroke-width:1;" x1="280.5542" x2="322.5542" y1="1145.0967" y2="1145.0967"/><line style="stroke:#FFFFFF;stroke-width:1;" x1="322.5542" x2="322.5542" y1="1145.0967" y2="1158.0967"/><line style="stroke:#FFFFFF;stroke-width:1;" x1="281.5542" x2="322.5542" y1="1158.0967" y2="1158.0967"/><polygon fill="#FFFFFF" points="291.5542,1154.0967,281.5542,1158.0967,291.5542,1162.0967,287.5542,1158.0967" style="stroke:#FFFFFF;stroke-width:1;"/><text fill="#FFFFFF" font-family="Verdana" font-size="13" lengthAdjust="spacing" textLength="218.2134" x="287.5542" y="1140.3672">Validate size (&gt;= HEADER_SIZE)</text></g><g class="message" data-participant-1="entity" data-participant-2="header"><polygon fill="#FFFFFF" points="535.4238,1183.896,545.4238,1187.896,535.4238,1191.896,539.4238,1187.896" style="stroke:#FFFFFF;stroke-width:1;"/><line style="stroke:#FFFFFF;stroke-width:1;" x1="280.5542" x2="541.4238" y1="1187.896" y2="1187.896"/><text fill="#FFFFFF" font-family="Verdana" font-size="13" lengthAdjust="spacing" textLength="247.8696" x="287.5542" y="1183.1665">from_bytes(&amp;data[0..HEADER_SIZE])</text></g><g class="message" data-participant-1="entity" data-participant-2="entity"><line style="stroke:#FFFFFF;stroke-width:1;" x1="280.5542" x2="322.5542" y1="1275.7939" y2="1275.7939"/><line style="stroke:#FFFFFF;stroke-width:1;" x1="322.5542" x2="322.5542" y1="1275.7939" y2="1288.7939"/><line style="stroke:#FFFFFF;stroke-width:1;" x1="281.5542" x2="322.5542" y1="1288.7939" y2="1288.7939"/><polygon fill="#FFFFFF" points="291.5542,1284.7939,281.5542,1288.7939,291.5542,1292.7939,287.5542,1288.7939" style="stroke:#FFFFFF;stroke-width:1;"/><text fill="#FFFFFF" font-family="Verdana" font-size="13" lengthAdjust="spacing" textLength="195.2603" x="287.5542" y="1271.0645">Calculate offsets from lengths</text></g><path d="M504.2603,1230.896 L504.2603,1318.896 L675.2603,1318.896 L675.2603,1240.896 L665.2603,1230.896 L504.2603,1230.896" fill="#FFFFFF" style="stroke:#000000;stroke-width:1;"/><path d="M665.2603,1230.896 L665.2603,1240.896 L675.2603,1240.896 L665.2603,1230.896" fill="#FFFFFF" style="stroke:#000000;stroke-width:1;"/><text fill="#000000" font-family="Verdana" font-size="13" lengthAdjust="spacing" textLength="150.3506" x="510.2603" y="1248.9658">offset = HEADER_SIZE</text><text fill="#000000" font-family="Verdana" font-size="13" lengthAdjust="spacing" textLength="147.126" x="510.2603" y="1264.7651">entity1_offset = offset</text><text fill="#000000" font-family="Verdana" font-size="13" lengthAdjust="spacing" textLength="140.6323" x="510.2603" y="1280.5645">offset += entity1_len</text><text fill="#000000" font-family="Verdana" font-size="13" lengthAdjust="spacing" textLength="147.126" x="510.2603" y="1296.3638">entity2_offset = offset</text><text fill="#000000" font-family="Verdana" font-size="13" lengthAdjust="spacing" textLength="14.187" x="510.2603" y="1312.1631">...</text><g class="message" data-participant-1="entity" data-participant-2="nested"><polygon fill="#FFFFFF" points="630.6079,1342.6919,640.6079,1346.6919,630.6079,1350.6919,634.6079,1346.6919" style="stroke:#FFFFFF;stroke-width:1;"/><line style="stroke:#FFFFFF;stroke-width:1;" x1="280.5542" x2="636.6079" y1="1346.6919" y2="1346.6919"/><text fill="#FFFFFF" font-family="Verdana" font-size="13" lengthAdjust="spacing" textLength="236.3804" x="287.5542" y="1341.9624">from_bytes(&amp;data[entity1_offset..])</text></g><g class="message" data-participant-1="nested" data-participant-2="entity"><polygon fill="#FFFFFF" points="291.5542,1372.4912,281.5542,1376.4912,291.5542,1380.4912,287.5542,1376.4912" style="stroke:#FFFFFF;stroke-width:1;"/><line style="stroke:#FFFFFF;stroke-width:1;stroke-dasharray:2.0,2.0;" x1="285.5542" x2="646.6079" y1="1376.4912" y2="1376.4912"/><text fill="#FFFFFF" font-family="Verdana" font-size="13" lengthAdjust="spacing" textLength="151.0361" x="297.5542" y="1371.7617">Option&lt;Arc&lt;ETest1&gt;&gt;</text></g><g class="message" data-participant-1="entity" data-participant-2="nested"><polygon fill="#FFFFFF" points="630.6079,1402.2905,640.6079,1406.2905,630.6079,1410.2905,634.6079,1406.2905" style="stroke:#FFFFFF;stroke-width:1;"/><line style="stroke:#FFFFFF;stroke-width:1;" x1="280.5542" x2="636.6079" y1="1406.2905" y2="1406.2905"/><text fill="#FFFFFF" font-family="Verdana" font-size="13" lengthAdjust="spacing" textLength="236.3804" x="287.5542" y="1401.561">from_bytes(&amp;data[entity2_offset..])</text></g><g class="message" data-participant-1="nested" data-participant-2="entity"><polygon fill="#FFFFFF" points="291.5542,1432.0898,281.5542,1436.0898,291.5542,1440.0898,287.5542,1436.0898" style="stroke:#FFFFFF;stroke-width:1;"/><line style="stroke:#FFFFFF;stroke-width:1;stroke-dasharray:2.0,2.0;" x1="285.5542" x2="646.6079" y1="1436.0898" y2="1436.0898"/><text fill="#FFFFFF" font-family="Verdana" font-size="13" lengthAdjust="spacing" textLength="151.0361" x="297.5542" y="1431.3604">Option&lt;Arc&lt;ETest2&gt;&gt;</text></g><g class="message" data-participant-1="entity" data-participant-2="map"><polygon fill="#FFFFFF" points="735.54,1461.8892,745.54,1465.8892,735.54,1469.8892,739.54,1465.8892" style="stroke:#FFFFFF;stroke-width:1;"/><line style="stroke:#FFFFFF;stroke-width:1;" x1="280.5542" x2="741.54" y1="1465.8892" y2="1465.8892"/><text fill="#FFFFFF" font-family="Verdana" font-size="13" lengthAdjust="spacing" textLength="227.4556" x="287.5542" y="1461.1597">from_bytes(&amp;data[map0_offset..])</text></g><g class="message" data-participant-1="map" data-participant-2="entity"><polygon fill="#FFFFFF" points="291.5542,1491.6885,281.5542,1495.6885,291.5542,1499.6885,287.5542,1495.6885" style="stroke:#FFFFFF;stroke-width:1;"/><line style="stroke:#FFFFFF;stroke-width:1;stroke-dasharray:2.0,2.0;" x1="285.5542" x2="751.54" y1="1495.6885" y2="1495.6885"/><text fill="#FFFFFF" font-family="Verdana" font-size="13" lengthAdjust="spacing" textLength="130.2285" x="297.5542" y="1490.959">MapEntity&lt;ETest1&gt;</text></g><g class="message" data-participant-1="entity" data-participant-2="map"><polygon fill="#FFFFFF" points="735.54,1521.4878,745.54,1525.4878,735.54,1529.4878,739.54,1525.4878" style="stroke:#FFFFFF;stroke-width:1;"/><line style="stroke:#FFFFFF;stroke-width:1;" x1="280.5542" x2="741.54" y1="1525.4878" y2="1525.4878"/><text fill="#FFFFFF" font-family="Verdana" font-size="13" lengthAdjust="spacing" textLength="227.4556" x="287.5542" y="1520.7583">from_bytes(&amp;data[map1_offset..])</text></g><g class="message" data-participant-1="map" data-participant-2="entity"><polygon fill="#FFFFFF" points="291.5542,1551.2871,281.5542,1555.2871,291.5542,1559.2871,287.5542,1555.2871" style="stroke:#FFFFFF;stroke-width:1;"/><line style="stroke:#FFFFFF;stroke-width:1;stroke-dasharray:2.0,2.0;" x1="285.5542" x2="751.54" y1="1555.2871" y2="1555.2871"/><text fill="#FFFFFF" font-family="Verdana" font-size="13" lengthAdjust="spacing" textLength="130.2285" x="297.5542" y="1550.5576">MapEntity&lt;ETest2&gt;</text></g><g class="message" data-participant-1="entity" data-participant-2="entity"><line style="stroke:#FFFFFF;stroke-width:1;" x1="280.5542" x2="322.5542" y1="1585.0864" y2="1585.0864"/><line style="stroke:#FFFFFF;stroke-width:1;" x1="322.5542" x2="322.5542" y1="1585.0864" y2="1598.0864"/><line style="stroke:#FFFFFF;stroke-width:1;" x1="281.5542" x2="322.5542" y1="1598.0864" y2="1598.0864"/><polygon fill="#FFFFFF" points="291.5542,1594.0864,281.5542,1598.0864,291.5542,1602.0864,287.5542,1598.0864" style="stroke:#FFFFFF;stroke-width:1;"/><text fill="#FFFFFF" font-family="Verdana" font-size="13" lengthAdjust="spacing" textLength="170.2759" x="287.5542" y="1580.3569">Construct ETest0 instance</text></g><g class="message" data-participant-1="entity" data-participant-2="PeerB"><polygon fill="#FFFFFF" points="1127.7876,1623.8857,1137.7876,1627.8857,1127.7876,1631.8857,1131.7876,1627.8857" style="stroke:#FFFFFF;stroke-width:1;"/><line style="stroke:#FFFFFF;stroke-width:1;stroke-dasharray:2.0,2.0;" x1="275.5542" x2="1133.7876" y1="1627.8857" y2="1627.8857"/><text fill="#FFFFFF" font-family="Verdana" font-size="13" lengthAdjust="spacing" textLength="185.2563" x="282.5542" y="1623.1563">Result&lt;ETest0, EnumError&gt;</text></g><path d="M10,1640.8857 L10,1728.8857 L1174,1728.8857 L1174,1650.8857 L1164,1640.8857 L10,1640.8857" fill="#FFFFFF" style="stroke:#000000;stroke-width:1;"/><path d="M1164,1640.8857 L1164,1650.8857 L1174,1650.8857 L1164,1640.8857" fill="#FFFFFF" style="stroke:#000000;stroke-width:1;"/><text fill="#000000" font-family="Verdana" font-size="13" font-weight="bold" lengthAdjust="spacing" textLength="166.645" x="447.2886" y="1658.9556">Bridge Layer Summary</text><text fill="#000000" font-family="Verdana" font-size="13" lengthAdjust="spacing" textLength="280.6426" x="447.2886" y="1674.7549">&#8226; Version verification ensures compatibility</text><text fill="#000000" font-family="Verdana" font-size="13" lengthAdjust="spacing" textLength="246.1494" x="447.2886" y="1690.5542">&#8226; Universal ID enables entity tracking</text><text fill="#000000" font-family="Verdana" font-size="13" lengthAdjust="spacing" textLength="160.6973" x="447.2886" y="1706.3535">&#8226; Zero-copy serialization</text><text fill="#000000" font-family="Verdana" font-size="13" lengthAdjust="spacing" textLength="179.937" x="447.2886" y="1722.1528">&#8226; Type-safe communication</text><text fill="#FFFFFF" font-family="Verdana" font-size="10" lengthAdjust="spacing" textLength="131.0645" x="1047.1553" y="20.0537">--&gt; entity : ETest0Header</text><!--SRC=[fLVRRjiu47tdLx09qBLpCMmlccIDs83bo6s0R1FOQHTeKmIqJDb2PKgbg6JTei1-otxQViaEBvAfY-rWLq_Iy0pdp91pIBqIIxgYE0v9mD2hEVK3Hl6roqGWrgCeZ3W-RFysE-ksyy4xrvqy3Xz7jpUt4tmu7ZjdeqvnqCa6Byv7hklaWyxa-kgjcmtwVXiUXD0l-6qOpKY8vuH_nPfFGeK8s291oTU0nOIJ5PuHx-k2HocRPxpKOo4W34b3COwOC92nV905WRH2YdyW34y5znEeJEctb38F68Xr20oGxHtI1MLpSD_k_puIu1jJB_03houD9W6QW5FEQApdKMCHdrDUpBGKr5X_sWoza2J9jkdVgASwVNVqPdn-hkn3pgFdAfjogZ9NX7GntUaKgiO34WRVYGWYXiTXz8nFiSE3-OBY6xAc78-YrIfbWQSGDkCaA_YFNGI6deXuXJGyXlTDuDCRs6C5oCRzZd0HU45CcAWlUWLLcKUdR14daj8KTWd5v9acqOeYPS87TvJouGDhJ66pKDuym2J1obRe7HHlmk43zvucegsWL3LVtdS5s3jAO4e5MwhNUjXxc8pE7vZguu0coe4fOxt3xoJMFQ-GAnBZmr_LKuGvgU-Ry3FrciDW4LCA0BNc3soq98pHK2FrFh2xtwwK0vMQK8y6JtQjd8AK8DJlbpRPtP8a53TKNPkutqT8b_Xqa1MmXqNqE5iBcZIQCc3mHA3rz2121WHmKvTU7e1c9chAj_7M0yYCdzh1FbBlChqOu8QsT7JevakmtGmxf-L85a-vAZP9-BQOmHUIYFeuCDBEWkn4TMgeoAaj7hdVY8HU6ag4Y0JeTmAiaD8t7YoMGlMK6dcK8xYFtxd3ArZKwVKdLmtAvnXdzGefgrYx9QlAes8g-oQ2W-gMZArM2qdrbWJjT4mVzV27U2vp0Q-5M68_eE7Sgg-68OEs_QPKs3cSsDJXGtWjkvXc7ek0wQGU7ePXv4cCMP36fdZM1jRmsWd-u040e8yIsI6D2spMiYPPakIjaQLaB-thp-d5b-qXZ8kQOGUJGYViWtNtmJPxU2TcRpYzEu2tiHSIXtCg3gaiCqo22UTaRQzUkVZWgcMdXoSqWSl7fLcx4-ooTEN2QSO7zWIP_EHYPTHHRYFOd8ewD8qnMwkklqlTTNHa3bcZj_YU4vO0mwCZDJw5hTF3dVEpOxDMqlY1IQbDe66lhp2SXFA6OdK6AEqLJRPfhQErrh0swJigVINX9WEVHwkCirq-RK7QoQwxT30x4hgGx1JiZN01HTMpIbyQWuB2D6kRt8hpMWRwt6wrBASlpPTq_4UeZh_E6gqECO4NNOIOm-NtJzpuJdbqwaNnkhxXzFclZ_VTSb4Zlv7lmqtJL5thLrBUAXfJ8y9Pa-O0_M8x7VSh8ftrR9tNDgND3zhA8XGvj5hsCkmuSczZkJqlXzoxLFNh30QxZz1z3Bh_bq5t7mDzY5V2AsshYrrxhEUtjIpj7QVrze2T_nomEtZHzI1Y8BMf9ypcnW5y4xZgL-JJsSYdXkvJJxMt8-W_hRudUfQY9Eh_ZccwMX6-Ddhuprz_o-PLn-EJR6BpGm8J9oa7tV90_i4o2q8P9tCfA2PbP1RI_9ekEFnGI0NDm9-oHiS54St7xzSnFKs8JsKmwvyexvX_0G00]--></g></svg>