<svg xmlns="http://www.w3.org/2000/svg" xmlns:xlink="http://www.w3.org/1999/xlink" contentStyleType="text/css" data-diagram-type="CLASS" height="968px" preserveAspectRatio="none" style="width:2267px;height:968px;" version="1.1" viewBox="0 0 2267 968" width="2267px" zoomAndPan="magnify"><defs/><g><!--class IEvo--><g class="entity" data-entity="IEvo" data-source-line="23" data-uid="ent0002" id="entity_IEvo"><rect fill="#F1F1F1" height="86.1358" rx="2.5" ry="2.5" style="stroke:#181818;stroke-width:0.5;" width="175.7994" x="762" y="7"/><ellipse cx="832.5737" cy="23" fill="#FFFFFF" rx="11" ry="11" style="stroke:#181818;stroke-width:1;"/><path d="M828.4956,18.7656 L828.4956,16.6094 L835.8862,16.6094 L835.8862,18.7656 L833.4175,18.7656 L833.4175,26.8438 L835.8862,26.8438 L835.8862,29 L828.4956,29 L828.4956,26.8438 L830.9644,26.8438 L830.9644,18.7656 L828.4956,18.7656 Z " fill="#000000"/><text fill="#000000" font-family="sans-serif" font-size="14" font-style="italic" lengthAdjust="spacing" textLength="26.1519" x="853.0737" y="28.432">IEvo</text><line style="stroke:#181818;stroke-width:0.5;" x1="763" x2="936.7994" y1="39" y2="39"/><line style="stroke:#181818;stroke-width:0.5;" x1="763" x2="936.7994" y1="47" y2="47"/><ellipse cx="773" cy="62.034" fill="#84BE84" rx="3" ry="3" style="stroke:#038048;stroke-width:1;"/><text fill="#000000" font-family="sans-serif" font-size="14" lengthAdjust="spacing" text-decoration="underline" textLength="122.0235" x="782" y="65.9659">evo_version() : u64</text><ellipse cx="773" cy="81.1019" fill="#84BE84" rx="3" ry="3" style="stroke:#038048;stroke-width:1;"/><text fill="#000000" font-family="sans-serif" font-size="14" lengthAdjust="spacing" textLength="149.7994" x="782" y="85.0339">get_evo_version() : u64</text></g><!--class ID--><g class="entity" data-entity="ID" data-source-line="30" data-uid="ent0003" id="entity_ID"><rect fill="#F1F1F1" height="86.1358" rx="2.5" ry="2.5" style="stroke:#181818;stroke-width:0.5;" width="141.3875" x="190.5" y="152.5"/><ellipse cx="250.0068" cy="168.5" fill="#FFFFFF" rx="11" ry="11" style="stroke:#181818;stroke-width:1;"/><path d="M245.9287,164.2656 L245.9287,162.1094 L253.3193,162.1094 L253.3193,164.2656 L250.8505,164.2656 L250.8505,172.3438 L253.3193,172.3438 L253.3193,174.5 L245.9287,174.5 L245.9287,172.3438 L248.3974,172.3438 L248.3974,164.2656 L245.9287,164.2656 Z " fill="#000000"/><text fill="#000000" font-family="sans-serif" font-size="14" font-style="italic" lengthAdjust="spacing" textLength="13.8739" x="270.5068" y="173.932">ID</text><line style="stroke:#181818;stroke-width:0.5;" x1="191.5" x2="330.8875" y1="184.5" y2="184.5"/><line style="stroke:#181818;stroke-width:0.5;" x1="191.5" x2="330.8875" y1="192.5" y2="192.5"/><ellipse cx="201.5" cy="207.534" fill="#84BE84" rx="3" ry="3" style="stroke:#038048;stroke-width:1;"/><text fill="#000000" font-family="sans-serif" font-size="14" lengthAdjust="spacing" textLength="108.7096" x="210.5" y="211.4659">get_id() : [u8; 32]</text><ellipse cx="201.5" cy="226.6019" fill="#84BE84" rx="3" ry="3" style="stroke:#038048;stroke-width:1;"/><text fill="#000000" font-family="sans-serif" font-size="14" lengthAdjust="spacing" textLength="115.3875" x="210.5" y="230.5339">set_id(id: [u8; 32])</text></g><!--class ITime--><g class="entity" data-entity="ITime" data-source-line="34" data-uid="ent0004" id="entity_ITime"><rect fill="#F1F1F1" height="86.1358" rx="2.5" ry="2.5" style="stroke:#181818;stroke-width:0.5;" width="151.6355" x="2109" y="152.5"/><ellipse cx="2163.3688" cy="168.5" fill="#FFFFFF" rx="11" ry="11" style="stroke:#181818;stroke-width:1;"/><path d="M2159.2907,164.2656 L2159.2907,162.1094 L2166.6813,162.1094 L2166.6813,164.2656 L2164.2126,164.2656 L2164.2126,172.3438 L2166.6813,172.3438 L2166.6813,174.5 L2159.2907,174.5 L2159.2907,172.3438 L2161.7594,172.3438 L2161.7594,164.2656 L2159.2907,164.2656 Z " fill="#000000"/><text fill="#000000" font-family="sans-serif" font-size="14" font-style="italic" lengthAdjust="spacing" textLength="34.3979" x="2183.8688" y="173.932">ITime</text><line style="stroke:#181818;stroke-width:0.5;" x1="2110" x2="2259.6355" y1="184.5" y2="184.5"/><line style="stroke:#181818;stroke-width:0.5;" x1="2110" x2="2259.6355" y1="192.5" y2="192.5"/><ellipse cx="2120" cy="207.534" fill="#84BE84" rx="3" ry="3" style="stroke:#038048;stroke-width:1;"/><text fill="#000000" font-family="sans-serif" font-size="14" lengthAdjust="spacing" textLength="101.5276" x="2129" y="211.4659">get_time() : u64</text><ellipse cx="2120" cy="226.6019" fill="#84BE84" rx="3" ry="3" style="stroke:#038048;stroke-width:1;"/><text fill="#000000" font-family="sans-serif" font-size="14" lengthAdjust="spacing" textLength="125.6355" x="2129" y="230.5339">set_time(time: u64)</text></g><!--class IEntity--><g class="entity" data-entity="IEntity" data-source-line="41" data-uid="ent0005" id="entity_IEntity"><rect fill="#09B620" height="181.4754" rx="2.5" ry="2.5" style="stroke:#181818;stroke-width:0.5;" width="468.7764" x="961.5" y="298"/><ellipse cx="1171.9963" cy="314" fill="#09B620" rx="11" ry="11" style="stroke:#181818;stroke-width:1;"/><path d="M1167.9181,309.7656 L1167.9181,307.6094 L1175.3088,307.6094 L1175.3088,309.7656 L1172.84,309.7656 L1172.84,317.8438 L1175.3088,317.8438 L1175.3088,320 L1167.9181,320 L1167.9181,317.8438 L1170.3869,317.8438 L1170.3869,309.7656 L1167.9181,309.7656 Z " fill="#000000"/><text fill="#000000" font-family="sans-serif" font-size="14" font-style="italic" lengthAdjust="spacing" textLength="39.2838" x="1192.4963" y="319.432">IEntity</text><line style="stroke:#181818;stroke-width:0.5;" x1="962.5" x2="1429.2764" y1="330" y2="330"/><line style="stroke:#181818;stroke-width:0.5;" x1="962.5" x2="1429.2764" y1="338" y2="338"/><ellipse cx="972.5" cy="353.034" fill="#84BE84" rx="3" ry="3" style="stroke:#038048;stroke-width:1;"/><text fill="#000000" font-family="sans-serif" font-size="14" lengthAdjust="spacing" textLength="266.0829" x="981.5" y="356.9659">to_bytes() : Result&lt;Vec&lt;u8&gt;, EnumError&gt;</text><ellipse cx="972.5" cy="372.1019" fill="#84BE84" rx="3" ry="3" style="stroke:#038048;stroke-width:1;"/><text fill="#000000" font-family="sans-serif" font-size="14" lengthAdjust="spacing" textLength="325.9188" x="981.5" y="376.0339">from_bytes(data: &amp;[u8]) : Result&lt;Self, EnumError&gt;</text><ellipse cx="972.5" cy="391.1698" fill="#84BE84" rx="3" ry="3" style="stroke:#038048;stroke-width:1;"/><text fill="#000000" font-family="sans-serif" font-size="14" lengthAdjust="spacing" textLength="442.7764" x="981.5" y="395.1018">from_bytes_instance(data: &amp;[u8]) : Result&lt;Arc&lt;IEntity&gt;, EnumError&gt;</text><ellipse cx="972.5" cy="410.2377" fill="#84BE84" rx="3" ry="3" style="stroke:#038048;stroke-width:1;"/><text fill="#000000" font-family="sans-serif" font-size="14" lengthAdjust="spacing" textLength="116.9836" x="981.5" y="414.1697">to_string() : String</text><ellipse cx="972.5" cy="429.3056" fill="#84BE84" rx="3" ry="3" style="stroke:#038048;stroke-width:1;"/><text fill="#000000" font-family="sans-serif" font-size="14" lengthAdjust="spacing" textLength="98.8396" x="981.5" y="433.2376">as_any() : &amp;Any</text><ellipse cx="972.5" cy="448.3735" fill="#84BE84" rx="3" ry="3" style="stroke:#038048;stroke-width:1;"/><text fill="#000000" font-family="sans-serif" font-size="14" lengthAdjust="spacing" textLength="162.2874" x="981.5" y="452.3055">as_any_mut() : &amp;mut Any</text><ellipse cx="972.5" cy="467.4415" fill="#84BE84" rx="3" ry="3" style="stroke:#038048;stroke-width:1;"/><text fill="#000000" font-family="sans-serif" font-size="14" lengthAdjust="spacing" textLength="140.8114" x="981.5" y="471.3734">into_any() : Box&lt;Any&gt;</text></g><!--class IAiEntity--><g class="entity" data-entity="IAiEntity" data-source-line="50" data-uid="ent0006" id="entity_IAiEntity"><rect fill="#FFA600" height="105.2038" rx="2.5" ry="2.5" style="stroke:#181818;stroke-width:0.5;" width="465.3043" x="381.5" y="143"/><ellipse cx="584.5202" cy="159" fill="#FFA600" rx="11" ry="11" style="stroke:#181818;stroke-width:1;"/><path d="M580.4421,154.7656 L580.4421,152.6094 L587.8327,152.6094 L587.8327,154.7656 L585.364,154.7656 L585.364,162.8438 L587.8327,162.8438 L587.8327,165 L580.4421,165 L580.4421,162.8438 L582.9109,162.8438 L582.9109,154.7656 L580.4421,154.7656 Z " fill="#000000"/><text fill="#000000" font-family="sans-serif" font-size="14" font-style="italic" lengthAdjust="spacing" textLength="50.7638" x="605.0202" y="164.432">IAiEntity</text><line style="stroke:#181818;stroke-width:0.5;" x1="382.5" x2="845.8043" y1="175" y2="175"/><line style="stroke:#181818;stroke-width:0.5;" x1="382.5" x2="845.8043" y1="183" y2="183"/><ellipse cx="392.5" cy="198.034" fill="#84BE84" rx="3" ry="3" style="stroke:#038048;stroke-width:1;"/><text fill="#000000" font-family="sans-serif" font-size="14" lengthAdjust="spacing" text-decoration="underline" textLength="155.2034" x="401.5" y="201.9659">get_ai_schema() : String</text><ellipse cx="392.5" cy="217.1019" fill="#84BE84" rx="3" ry="3" style="stroke:#038048;stroke-width:1;"/><text fill="#000000" font-family="sans-serif" font-size="14" lengthAdjust="spacing" textLength="144.2134" x="401.5" y="221.0339">to_ai(level: u8) : String</text><ellipse cx="392.5" cy="236.1698" fill="#84BE84" rx="3" ry="3" style="stroke:#038048;stroke-width:1;"/><text fill="#000000" font-family="sans-serif" font-size="14" lengthAdjust="spacing" text-decoration="underline" textLength="439.3043" x="401.5" y="240.1018">from_ai(ai_entity: &amp;str, level: u8) : Result&lt;Self, EnumErrorMessage&gt;</text></g><!--class IAiEnum--><g class="entity" data-entity="IAiEnum" data-source-line="55" data-uid="ent0007" id="entity_IAiEnum"><rect fill="#FFA600" height="105.2038" rx="2.5" ry="2.5" style="stroke:#181818;stroke-width:0.5;" width="380.3386" x="897" y="143"/><ellipse cx="1057.0824" cy="159" fill="#FFA600" rx="11" ry="11" style="stroke:#181818;stroke-width:1;"/><path d="M1053.0043,154.7656 L1053.0043,152.6094 L1060.3949,152.6094 L1060.3949,154.7656 L1057.9262,154.7656 L1057.9262,162.8438 L1060.3949,162.8438 L1060.3949,165 L1053.0043,165 L1053.0043,162.8438 L1055.473,162.8438 L1055.473,154.7656 L1053.0043,154.7656 Z " fill="#000000"/><text fill="#000000" font-family="sans-serif" font-size="14" font-style="italic" lengthAdjust="spacing" textLength="51.6738" x="1077.5824" y="164.432">IAiEnum</text><line style="stroke:#181818;stroke-width:0.5;" x1="898" x2="1276.3386" y1="175" y2="175"/><line style="stroke:#181818;stroke-width:0.5;" x1="898" x2="1276.3386" y1="183" y2="183"/><ellipse cx="908" cy="198.034" fill="#84BE84" rx="3" ry="3" style="stroke:#038048;stroke-width:1;"/><text fill="#000000" font-family="sans-serif" font-size="14" lengthAdjust="spacing" text-decoration="underline" textLength="143.5974" x="917" y="201.9659">get_ai_schema() : &amp;str</text><ellipse cx="908" cy="217.1019" fill="#84BE84" rx="3" ry="3" style="stroke:#038048;stroke-width:1;"/><text fill="#000000" font-family="sans-serif" font-size="14" lengthAdjust="spacing" textLength="90.0337" x="917" y="221.0339">to_ai() : String</text><ellipse cx="908" cy="236.1698" fill="#84BE84" rx="3" ry="3" style="stroke:#038048;stroke-width:1;"/><text fill="#000000" font-family="sans-serif" font-size="14" lengthAdjust="spacing" text-decoration="underline" textLength="354.3386" x="917" y="240.1018">from_ai(code: &amp;str) : Result&lt;Self, EnumErrorMessage&gt;</text></g><!--class IControl--><g class="entity" data-entity="IControl" data-source-line="63" data-uid="ent0008" id="entity_IControl"><rect fill="#2735F3" height="105.2038" rx="2.5" ry="2.5" style="stroke:#181818;stroke-width:0.5;" width="243.3912" x="1036.5" y="586.5"/><ellipse cx="1128.7177" cy="602.5" fill="#2735F3" rx="11" ry="11" style="stroke:#181818;stroke-width:1;"/><path d="M1124.6395,598.2656 L1124.6395,596.1094 L1132.0302,596.1094 L1132.0302,598.2656 L1129.5614,598.2656 L1129.5614,606.3438 L1132.0302,606.3438 L1132.0302,608.5 L1124.6395,608.5 L1124.6395,606.3438 L1127.1083,606.3438 L1127.1083,598.2656 L1124.6395,598.2656 Z " fill="#000000"/><text fill="#000000" font-family="sans-serif" font-size="14" font-style="italic" lengthAdjust="spacing" textLength="50.4558" x="1149.2177" y="607.932">IControl</text><line style="stroke:#181818;stroke-width:0.5;" x1="1037.5" x2="1278.8912" y1="618.5" y2="618.5"/><line style="stroke:#181818;stroke-width:0.5;" x1="1037.5" x2="1278.8912" y1="626.5" y2="626.5"/><ellipse cx="1047.5" cy="641.534" fill="#84BE84" rx="3" ry="3" style="stroke:#038048;stroke-width:1;"/><text fill="#000000" font-family="sans-serif" font-size="14" lengthAdjust="spacing" textLength="207.8712" x="1056.5" y="645.4659">do_init() : Result&lt;(), EnumError&gt;</text><ellipse cx="1047.5" cy="660.6019" fill="#84BE84" rx="3" ry="3" style="stroke:#038048;stroke-width:1;"/><text fill="#000000" font-family="sans-serif" font-size="14" lengthAdjust="spacing" textLength="217.3912" x="1056.5" y="664.5339">do_start() : Result&lt;(), EnumError&gt;</text><ellipse cx="1047.5" cy="679.6698" fill="#84BE84" rx="3" ry="3" style="stroke:#038048;stroke-width:1;"/><text fill="#000000" font-family="sans-serif" font-size="14" lengthAdjust="spacing" textLength="215.7812" x="1056.5" y="683.6018">do_stop() : Result&lt;(), EnumError&gt;</text></g><!--class IMemory--><g class="entity" data-entity="IMemory" data-source-line="68" data-uid="ent0009" id="entity_IMemory"><rect fill="#FBFF00" height="219.6113" rx="2.5" ry="2.5" style="stroke:#181818;stroke-width:0.5;" width="351.9188" x="596" y="529"/><ellipse cx="734.6285" cy="545" fill="#FBFF00" rx="11" ry="11" style="stroke:#181818;stroke-width:1;"/><path d="M730.5503,540.7656 L730.5503,538.6094 L737.941,538.6094 L737.941,540.7656 L735.4722,540.7656 L735.4722,548.8438 L737.941,548.8438 L737.941,551 L730.5503,551 L730.5503,548.8438 L733.0191,548.8438 L733.0191,540.7656 L730.5503,540.7656 Z " fill="#000000"/><text fill="#000000" font-family="sans-serif" font-size="14" font-style="italic" lengthAdjust="spacing" textLength="55.5378" x="755.1285" y="550.432">IMemory</text><rect fill="#FFFFFF" height="18.3441" style="stroke:#181818;stroke-width:1;stroke-dasharray:2.0,2.0;" width="8.6241" x="942.2947" y="526"/><text fill="#000000" font-family="sans-serif" font-size="12" font-style="italic" lengthAdjust="spacing" textLength="6.6241" x="943.2947" y="539.8281">V</text><line style="stroke:#181818;stroke-width:0.5;" x1="597" x2="946.9188" y1="561" y2="561"/><line style="stroke:#181818;stroke-width:0.5;" x1="597" x2="946.9188" y1="569" y2="569"/><ellipse cx="607" cy="584.034" fill="#84BE84" rx="3" ry="3" style="stroke:#038048;stroke-width:1;"/><text fill="#000000" font-family="sans-serif" font-size="14" lengthAdjust="spacing" textLength="142.0154" x="616" y="587.9659">do_set(entity: Arc&lt;V&gt;)</text><ellipse cx="607" cy="603.1019" fill="#84BE84" rx="3" ry="3" style="stroke:#038048;stroke-width:1;"/><text fill="#000000" font-family="sans-serif" font-size="14" lengthAdjust="spacing" textLength="268.3929" x="616" y="607.0339">do_set_with_id(id: TypeID, entity: Arc&lt;V&gt;)</text><ellipse cx="607" cy="622.1698" fill="#84BE84" rx="3" ry="3" style="stroke:#038048;stroke-width:1;"/><text fill="#000000" font-family="sans-serif" font-size="14" lengthAdjust="spacing" textLength="258.005" x="616" y="626.1018">do_get(id: &amp;TypeID) : Option&lt;&amp;Arc&lt;V&gt;&gt;</text><ellipse cx="607" cy="641.2377" fill="#84BE84" rx="3" ry="3" style="stroke:#038048;stroke-width:1;"/><text fill="#000000" font-family="sans-serif" font-size="14" lengthAdjust="spacing" textLength="321.4527" x="616" y="645.1697">do_get_mut(id: &amp;TypeID) : Option&lt;&amp;mut Arc&lt;V&gt;&gt;</text><ellipse cx="607" cy="660.3056" fill="#84BE84" rx="3" ry="3" style="stroke:#038048;stroke-width:1;"/><text fill="#000000" font-family="sans-serif" font-size="14" lengthAdjust="spacing" textLength="269.5549" x="616" y="664.2376">do_query&lt;Q&gt;(query: &amp;Q) : Vec&lt;&amp;Arc&lt;V&gt;&gt;</text><ellipse cx="607" cy="679.3735" fill="#84BE84" rx="3" ry="3" style="stroke:#038048;stroke-width:1;"/><text fill="#000000" font-family="sans-serif" font-size="14" lengthAdjust="spacing" textLength="128.0715" x="616" y="683.3055">do_del(id: &amp;TypeID)</text><ellipse cx="607" cy="698.4415" fill="#84BE84" rx="3" ry="3" style="stroke:#038048;stroke-width:1;"/><text fill="#000000" font-family="sans-serif" font-size="14" lengthAdjust="spacing" textLength="63.5598" x="616" y="702.3734">do_clear()</text><ellipse cx="607" cy="717.5094" fill="#84BE84" rx="3" ry="3" style="stroke:#038048;stroke-width:1;"/><text fill="#000000" font-family="sans-serif" font-size="14" lengthAdjust="spacing" textLength="266.0829" x="616" y="721.4414">to_bytes() : Result&lt;Vec&lt;u8&gt;, EnumError&gt;</text><ellipse cx="607" cy="736.5773" fill="#84BE84" rx="3" ry="3" style="stroke:#038048;stroke-width:1;"/><text fill="#000000" font-family="sans-serif" font-size="14" lengthAdjust="spacing" text-decoration="underline" textLength="325.9188" x="616" y="740.5093">from_bytes(data: &amp;[u8]) : Result&lt;Self, EnumError&gt;</text></g><!--class IQuery--><g class="entity" data-entity="IQuery" data-source-line="79" data-uid="ent0010" id="entity_IQuery"><rect fill="#F1F1F1" height="67.0679" rx="2.5" ry="2.5" style="stroke:#181818;stroke-width:0.5;" width="288.5549" x="520.5" y="355"/><ellipse cx="634.2995" cy="371" fill="#FFFFFF" rx="11" ry="11" style="stroke:#181818;stroke-width:1;"/><path d="M630.2214,366.7656 L630.2214,364.6094 L637.612,364.6094 L637.612,366.7656 L635.1433,366.7656 L635.1433,374.8438 L637.612,374.8438 L637.612,377 L630.2214,377 L630.2214,374.8438 L632.6901,374.8438 L632.6901,366.7656 L630.2214,366.7656 Z " fill="#000000"/><text fill="#000000" font-family="sans-serif" font-size="14" font-style="italic" lengthAdjust="spacing" textLength="41.8318" x="654.7995" y="376.432">IQuery</text><rect fill="#FFFFFF" height="18.3441" style="stroke:#181818;stroke-width:1;stroke-dasharray:2.0,2.0;" width="8.6241" x="803.4309" y="352"/><text fill="#000000" font-family="sans-serif" font-size="12" font-style="italic" lengthAdjust="spacing" textLength="6.6241" x="804.4309" y="365.8281">V</text><line style="stroke:#181818;stroke-width:0.5;" x1="521.5" x2="808.0549" y1="387" y2="387"/><line style="stroke:#181818;stroke-width:0.5;" x1="521.5" x2="808.0549" y1="395" y2="395"/><ellipse cx="531.5" cy="410.034" fill="#84BE84" rx="3" ry="3" style="stroke:#038048;stroke-width:1;"/><text fill="#000000" font-family="sans-serif" font-size="14" lengthAdjust="spacing" textLength="262.5549" x="540.5" y="413.9659">matches(key: &amp;[u8; 32], value: &amp;V) : bool</text></g><!--class IAiApi--><g class="entity" data-entity="IAiApi" data-source-line="82" data-uid="ent0011" id="entity_IAiApi"><rect fill="#FFA600" height="105.2038" rx="2.5" ry="2.5" style="stroke:#181818;stroke-width:0.5;" width="628.8517" x="1429.5" y="143"/><ellipse cx="1721.8749" cy="159" fill="#FFA600" rx="11" ry="11" style="stroke:#181818;stroke-width:1;"/><path d="M1717.7968,154.7656 L1717.7968,152.6094 L1725.1874,152.6094 L1725.1874,154.7656 L1722.7187,154.7656 L1722.7187,162.8438 L1725.1874,162.8438 L1725.1874,165 L1717.7968,165 L1717.7968,162.8438 L1720.2655,162.8438 L1720.2655,154.7656 L1717.7968,154.7656 Z " fill="#000000"/><text fill="#000000" font-family="sans-serif" font-size="14" font-style="italic" lengthAdjust="spacing" textLength="35.6019" x="1742.3749" y="164.432">IAiApi</text><line style="stroke:#181818;stroke-width:0.5;" x1="1430.5" x2="2057.3517" y1="175" y2="175"/><line style="stroke:#181818;stroke-width:0.5;" x1="1430.5" x2="2057.3517" y1="183" y2="183"/><ellipse cx="1440.5" cy="198.034" fill="#84BE84" rx="3" ry="3" style="stroke:#038048;stroke-width:1;"/><text fill="#000000" font-family="sans-serif" font-size="14" lengthAdjust="spacing" textLength="161.9094" x="1449.5" y="201.9659">get_ai_schemas() : String</text><ellipse cx="1440.5" cy="217.1019" fill="#84BE84" rx="3" ry="3" style="stroke:#038048;stroke-width:1;"/><text fill="#000000" font-family="sans-serif" font-size="14" lengthAdjust="spacing" textLength="225.5531" x="1449.5" y="221.0339">do_init_ai() : Result&lt;(), EnumError&gt;</text><ellipse cx="1440.5" cy="236.1698" fill="#84BE84" rx="3" ry="3" style="stroke:#038048;stroke-width:1;"/><text fill="#000000" font-family="sans-serif" font-size="14" lengthAdjust="spacing" textLength="602.8517" x="1449.5" y="240.1018">get_ai_api(id_api: &amp;u64, ai_entity: &amp;str) : Result&lt;(TypeID, Box&lt;IEntity&gt;), EnumErrorMessage&gt;</text></g><!--class IBridge--><g class="entity" data-entity="IBridge" data-source-line="90" data-uid="ent0012" id="entity_IBridge"><rect fill="#FF0000" height="162.4075" rx="2.5" ry="2.5" style="stroke:#181818;stroke-width:0.5;" width="457.4783" x="216.5" y="799"/><ellipse cx="418.3303" cy="815" fill="#FF0000" rx="11" ry="11" style="stroke:#181818;stroke-width:1;"/><path d="M414.2521,810.7656 L414.2521,808.6094 L421.6428,808.6094 L421.6428,810.7656 L419.174,810.7656 L419.174,818.8438 L421.6428,818.8438 L421.6428,821 L414.2521,821 L414.2521,818.8438 L416.7209,818.8438 L416.7209,810.7656 L414.2521,810.7656 Z " fill="#000000"/><text fill="#000000" font-family="sans-serif" font-size="14" font-style="italic" lengthAdjust="spacing" textLength="45.3178" x="438.8303" y="820.432">IBridge</text><line style="stroke:#181818;stroke-width:0.5;" x1="217.5" x2="672.9783" y1="831" y2="831"/><line style="stroke:#181818;stroke-width:0.5;" x1="217.5" x2="672.9783" y1="839" y2="839"/><ellipse cx="227.5" cy="854.034" fill="#84BE84" rx="3" ry="3" style="stroke:#038048;stroke-width:1;"/><text fill="#000000" font-family="sans-serif" font-size="14" lengthAdjust="spacing" textLength="141.5534" x="236.5" y="857.9659">get_bridge_kind() : u8</text><ellipse cx="227.5" cy="873.1019" fill="#84BE84" rx="3" ry="3" style="stroke:#038048;stroke-width:1;"/><text fill="#000000" font-family="sans-serif" font-size="14" lengthAdjust="spacing" textLength="133.7975" x="236.5" y="877.0339">is_connected() : bool</text><ellipse cx="227.5" cy="892.1698" fill="#84BE84" rx="3" ry="3" style="stroke:#038048;stroke-width:1;"/><text fill="#000000" font-family="sans-serif" font-size="14" lengthAdjust="spacing" textLength="207.8712" x="236.5" y="896.1018">do_init() : Result&lt;(), EnumError&gt;</text><ellipse cx="227.5" cy="911.2377" fill="#84BE84" rx="3" ry="3" style="stroke:#038048;stroke-width:1;"/><text fill="#000000" font-family="sans-serif" font-size="14" lengthAdjust="spacing" textLength="239.105" x="236.5" y="915.1697">do_connect() : Result&lt;(), EnumError&gt;</text><ellipse cx="227.5" cy="930.3056" fill="#84BE84" rx="3" ry="3" style="stroke:#038048;stroke-width:1;"/><text fill="#000000" font-family="sans-serif" font-size="14" lengthAdjust="spacing" textLength="427.1523" x="236.5" y="934.2376">do_disconnect(id_client: Option&lt;TypeID&gt;) : Result&lt;(), EnumError&gt;</text><ellipse cx="227.5" cy="949.3735" fill="#84BE84" rx="3" ry="3" style="stroke:#038048;stroke-width:1;"/><text fill="#000000" font-family="sans-serif" font-size="14" lengthAdjust="spacing" textLength="431.4783" x="236.5" y="953.3055">do_send(id_peer_to: &amp;TypeID, data: &amp;[u8]) : Result&lt;(), EnumError&gt;</text></g><!--class IGui--><g class="entity" data-entity="IGui" data-source-line="98" data-uid="ent0013" id="entity_IGui"><rect fill="#B700FF" height="143.3396" rx="2.5" ry="2.5" style="stroke:#181818;stroke-width:0.5;" width="361.9707" x="7" y="317"/><ellipse cx="132.6762" cy="333" fill="#B700FF" rx="11" ry="11" style="stroke:#181818;stroke-width:1;"/><path d="M128.598,328.7656 L128.598,326.6094 L135.9887,326.6094 L135.9887,328.7656 L133.5199,328.7656 L133.5199,336.8438 L135.9887,336.8438 L135.9887,339 L128.598,339 L128.598,336.8438 L131.0668,336.8438 L131.0668,328.7656 L128.598,328.7656 Z " fill="#000000"/><text fill="#000000" font-family="sans-serif" font-size="14" font-style="italic" lengthAdjust="spacing" textLength="25.7459" x="153.1762" y="338.432">IGui</text><rect fill="#FFFFFF" height="18.3441" style="stroke:#181818;stroke-width:1;stroke-dasharray:2.0,2.0;" width="74.3725" x="297.5982" y="314"/><text fill="#000000" font-family="sans-serif" font-size="12" font-style="italic" lengthAdjust="spacing" textLength="72.3725" x="298.5982" y="327.8281">Input, Output</text><line style="stroke:#181818;stroke-width:0.5;" x1="8" x2="367.9707" y1="349" y2="349"/><line style="stroke:#181818;stroke-width:0.5;" x1="8" x2="367.9707" y1="357" y2="357"/><ellipse cx="18" cy="372.034" fill="#84BE84" rx="3" ry="3" style="stroke:#038048;stroke-width:1;"/><text fill="#000000" font-family="sans-serif" font-size="14" lengthAdjust="spacing" textLength="216.6071" x="27" y="375.9659">on_view() : Result&lt;(), EnumError&gt;</text><ellipse cx="18" cy="391.1019" fill="#84BE84" rx="3" ry="3" style="stroke:#038048;stroke-width:1;"/><text fill="#000000" font-family="sans-serif" font-size="14" lengthAdjust="spacing" textLength="215.7531" x="27" y="395.0339">on_hide() : Result&lt;(), EnumError&gt;</text><ellipse cx="18" cy="410.1698" fill="#84BE84" rx="3" ry="3" style="stroke:#038048;stroke-width:1;"/><text fill="#000000" font-family="sans-serif" font-size="14" lengthAdjust="spacing" textLength="318.9188" x="27" y="414.1018">do_view(obj: Input) : Result&lt;Output, EnumError&gt;</text><ellipse cx="18" cy="429.2377" fill="#84BE84" rx="3" ry="3" style="stroke:#038048;stroke-width:1;"/><text fill="#000000" font-family="sans-serif" font-size="14" lengthAdjust="spacing" textLength="279.5089" x="27" y="433.1697">do_hide(obj: Input) : Result&lt;(), EnumError&gt;</text><ellipse cx="18" cy="448.3056" fill="#84BE84" rx="3" ry="3" style="stroke:#038048;stroke-width:1;"/><text fill="#000000" font-family="sans-serif" font-size="14" lengthAdjust="spacing" textLength="335.9707" x="27" y="452.2376">do_update(obj: Input) : Result&lt;Output, EnumError&gt;</text></g><!--reverse link IEvo to ID--><g class="link" data-entity-1="IEvo" data-entity-2="ID" data-source-line="107" data-uid="lnk14" id="link_IEvo_ID"><path codeLine="107" d="M743.92,25 C574.43,25 237.5,25 237.5,25 C237.5,25 237.5,101.97 237.5,152.48" fill="none" id="IEvo-backto-ID" style="stroke:#FFFFFF;stroke-width:1;"/><polygon fill="none" points="761.92,25,743.92,19,743.92,31,761.92,25" style="stroke:#FFFFFF;stroke-width:1;"/></g><!--link IEvo to ID--><!--reverse link IEvo to ITime--><g class="link" data-entity-1="IEvo" data-entity-2="ITime" data-source-line="108" data-uid="lnk15" id="link_IEvo_ITime"><path codeLine="108" d="M956.11,36 C1253.69,36 2185,36 2185,36 C2185,36 2185,105.1 2185,152.34" fill="none" id="IEvo-backto-ITime" style="stroke:#FFFFFF;stroke-width:1;"/><polygon fill="none" points="938.11,36,956.11,42,956.11,30,938.11,36" style="stroke:#FFFFFF;stroke-width:1;"/></g><!--reverse link IEvo to IEntity--><g class="link" data-entity-1="IEvo" data-entity-2="IEntity" data-source-line="109" data-uid="lnk16" id="link_IEvo_IEntity"><path codeLine="109" d="M880.17,111.2 C880.17,183.46 880.17,303 880.17,303 C880.17,303 914.78,303 961.09,303" fill="none" id="IEvo-backto-IEntity" style="stroke:#09B620;stroke-width:1;"/><polygon fill="none" points="880.17,93.2,874.17,111.2,886.17,111.2,880.17,93.2" style="stroke:#09B620;stroke-width:1;"/></g><!--reverse link IEvo to IControl--><g class="link" data-entity-1="IEvo" data-entity-2="IControl" data-source-line="110" data-uid="lnk17" id="link_IEvo_IControl"><path codeLine="110" d="M863.33,111.12 C863.33,224.45 863.33,504 863.33,504 C863.33,504 1117.5,504 1117.5,504 C1117.5,504 1117.5,548.51 1117.5,586.42" fill="none" id="IEvo-backto-IControl" style="stroke:#2735F3;stroke-width:1;"/><polygon fill="none" points="863.33,93.12,857.33,111.12,869.33,111.12,863.33,93.12" style="stroke:#2735F3;stroke-width:1;"/></g><!--reverse link IEvo to IBridge--><g class="link" data-entity-1="IEvo" data-entity-2="IBridge" data-source-line="111" data-uid="lnk18" id="link_IEvo_IBridge"><path codeLine="111" d="M743.93,76 C607.18,76 377.33,76 377.33,76 C377.33,76 377.33,594.71 377.33,798.86" fill="none" id="IEvo-backto-IBridge" style="stroke:#FF0000;stroke-width:1;"/><polygon fill="none" points="761.93,76,743.93,70,743.93,82,761.93,76" style="stroke:#FF0000;stroke-width:1;"/></g><!--reverse link IEvo to IGui--><g class="link" data-entity-1="IEvo" data-entity-2="IGui" data-source-line="112" data-uid="lnk19" id="link_IEvo_IGui"><path codeLine="112" d="M743.81,59 C600.34,59 350.25,59 350.25,59 C350.25,59 350.25,219.65 350.25,316.6" fill="none" id="IEvo-backto-IGui" style="stroke:#B700FF;stroke-width:1;"/><polygon fill="none" points="761.81,59,743.81,53,743.81,65,761.81,59" style="stroke:#B700FF;stroke-width:1;"/></g><!--reverse link IEvo to IAiApi--><g class="link" data-entity-1="IEvo" data-entity-2="IAiApi" data-source-line="113" data-uid="lnk20" id="link_IEvo_IAiApi"><path codeLine="113" d="M956.17,65 C1181.71,65 1744,65 1744,65 C1744,65 1744,106.58 1744,142.8" fill="none" id="IEvo-backto-IAiApi" style="stroke:#FFA600;stroke-width:1;"/><polygon fill="none" points="938.17,65,956.17,71,956.17,59,938.17,65" style="stroke:#FFA600;stroke-width:1;"/></g><!--reverse link IEvo to IAiEntity--><g class="link" data-entity-1="IEvo" data-entity-2="IAiEntity" data-source-line="114" data-uid="lnk21" id="link_IEvo_IAiEntity"><path codeLine="114" d="M804.25,111.26 C804.25,126.84 804.25,126.6 804.25,142.89" fill="none" id="IEvo-backto-IAiEntity" style="stroke:#FFA600;stroke-width:1;"/><polygon fill="none" points="804.25,93.26,798.25,111.26,810.25,111.26,804.25,93.26" style="stroke:#FFA600;stroke-width:1;"/></g><!--reverse link IEvo to IAiEnum--><g class="link" data-entity-1="IEvo" data-entity-2="IAiEnum" data-source-line="115" data-uid="lnk22" id="link_IEvo_IAiEnum"><path codeLine="115" d="M917.5,111.26 C917.5,126.84 917.5,126.6 917.5,142.89" fill="none" id="IEvo-backto-IAiEnum" style="stroke:#FFA600;stroke-width:1;"/><polygon fill="none" points="917.5,93.26,911.5,111.26,923.5,111.26,917.5,93.26" style="stroke:#FFA600;stroke-width:1;"/></g><!--reverse link ID to IEntity--><g class="link" data-entity-1="ID" data-entity-2="IEntity" data-source-line="118" data-uid="lnk23" id="link_ID_IEntity"><path codeLine="118" d="M275.1,256.67 C275.1,288.4 275.1,308 275.1,308 C275.1,308 688.4,308 961.24,308" fill="none" id="ID-backto-IEntity" style="stroke:#09B620;stroke-width:1;"/><polygon fill="none" points="275.1,238.67,269.1,256.67,281.1,256.67,275.1,238.67" style="stroke:#09B620;stroke-width:1;"/></g><!--link ID to IEntity--><!--reverse link ITime to IEntity--><g class="link" data-entity-1="ITime" data-entity-2="IEntity" data-source-line="119" data-uid="lnk24" id="link_ITime_IEntity"><path codeLine="119" d="M2185,256.93 C2185,313.98 2185,389 2185,389 C2185,389 1723.17,389 1430.69,389" fill="none" id="ITime-backto-IEntity" style="stroke:#09B620;stroke-width:1;"/><polygon fill="none" points="2185,238.93,2179,256.93,2191,256.93,2185,238.93" style="stroke:#09B620;stroke-width:1;"/></g><!--reverse link ID to IControl--><g class="link" data-entity-1="ID" data-entity-2="IControl" data-source-line="120" data-uid="lnk25" id="link_ID_IControl"><path codeLine="120" d="M303.3,256.78 C303.3,274.53 303.3,273 303.3,273 C303.3,273 954.75,273 954.75,273 C954.75,273 954.75,639 954.75,639 C954.75,639 992.96,639 1036.25,639" fill="none" id="ID-backto-IControl" style="stroke:#2735F3;stroke-width:1;"/><polygon fill="none" points="303.3,238.78,297.3,256.78,309.3,256.78,303.3,238.78" style="stroke:#2735F3;stroke-width:1;"/></g><!--reverse link ID to IBridge--><g class="link" data-entity-1="ID" data-entity-2="IBridge" data-source-line="121" data-uid="lnk26" id="link_ID_IBridge"><path codeLine="121" d="M349.72,196 C372.12,196 373.17,196 373.17,196 C373.17,196 373.17,617.67 373.17,798.85" fill="none" id="ID-backto-IBridge" style="stroke:#FF0000;stroke-width:1;"/><polygon fill="none" points="331.72,196,349.72,202,349.72,190,331.72,196" style="stroke:#FF0000;stroke-width:1;"/></g><!--reverse link ID to IGui--><g class="link" data-entity-1="ID" data-entity-2="IGui" data-source-line="122" data-uid="lnk27" id="link_ID_IGui"><path codeLine="122" d="M218.7,256.81 C218.7,279.82 218.7,290.69 218.7,316.92" fill="none" id="ID-backto-IGui" style="stroke:#B700FF;stroke-width:1;"/><polygon fill="none" points="218.7,238.81,212.7,256.81,224.7,256.81,218.7,238.81" style="stroke:#B700FF;stroke-width:1;"/></g><!--reverse link IEntity to IMemory--><g class="link" data-entity-1="IEntity" data-entity-2="IMemory" data-source-line="124" data-uid="lnk28" id="link_IEntity_IMemory"><path codeLine="124" d="M955.4,470 C931.9,470 922.5,470 922.5,470 C922.5,470 922.5,496.57 922.5,528.63" fill="none" id="IEntity-backto-IMemory" style="stroke:#FBFF00;stroke-width:1;stroke-dasharray:7.0,7.0;"/><polygon fill="#FBFF00" points="961.4,470,952.4,466,956.4,470,952.4,474,961.4,470" style="stroke:#FBFF00;stroke-width:1;"/><text fill="#000000" font-family="sans-serif" font-size="13" lengthAdjust="spacing" textLength="27.82" x="894.5" y="475.767">uses</text></g><!--reverse link IQuery to IMemory--><g class="link" data-entity-1="IQuery" data-entity-2="IMemory" data-source-line="125" data-uid="lnk29" id="link_IQuery_IMemory"><path codeLine="125" d="M702.75,428.02 C702.75,455.55 702.75,490.17 702.75,528.84" fill="none" id="IQuery-backto-IMemory" style="stroke:#FBFF00;stroke-width:1;stroke-dasharray:7.0,7.0;"/><polygon fill="#FBFF00" points="702.75,422.02,698.75,431.02,702.75,427.02,706.75,431.02,702.75,422.02" style="stroke:#FBFF00;stroke-width:1;"/><text fill="#000000" font-family="sans-serif" font-size="13" lengthAdjust="spacing" textLength="27.82" x="674.75" y="471.327">uses</text></g><!--link IEntity to IControl--><!--link IControl to IBridge--><!--SRC=[fLTRRzis57xNh-0mmBKnf_2I9iqymq0IfuE15aMM8Yz58CZIaSr59ZMIScPq-Uyxl4cKurimFTWoltE_yVWTkGT5PadwD1UyOXb9US5599yeAnEHBCbr3TreX2YHC8aGC1LG5PI1MfT0k50B7W2CPo2X9EU3u115FBd3w1sPG8xSLh4aEUg095qGoXI8F4aX-Ycp5DFR5RT6_Fp9F0qosN7-ZIvX1tGjQ3RtO9uFy6d06ywKu8L3Jp-UdUTdWHrCKRLsuE2tsSLfmFe5bbnuC9zfoGtuIGSoKPIpMd5o4HByKL67p3uE1ddU85UbHmO3W1P2TmYxgw2snBcFyVuCAoZ8hqDommL4TPXDUCber9tscqZtncFo8oBu_F93AZGyVI6mul4AX4GdkZqo9DN51qin1nLl0ryYV08z4wzbigb3Iw2POVnUNVvEpauVBI0jGBC6wA7SGAZEj9TRPtr3jCBpjidId-eFSzupvleedGs9IJO5sOgKAO0wM4qvQ8NXRwTSyNYsLY2DyZz1LeKQFK0wgYx7VLHGBM-5u69iYNF1buuSIoKPaWww_1XmtaEHxsEBASDSiHHsy5-9TEICtA8URPLAK3OtnjwRLuiaCaxOsXnthjWwF8oNbR80lf0Qn93nckUQ_pD2PDpEsnLj1zCLimcaUzyiG9tAXCOoNS0oUMMbraYxXKuV9lHo4wwbc7WX9Ke2Om4QZuxtIOjrUyY_W9J97BQuKYt_boFQWj2DWzQdE5yjsr7MDfNzOKW-ypbDIGSLS85uw8gRVzwNS1mQXy83vrN6iUwe2akystjTNfakhqGSHyVBFMIjsDkfEteOUvE3CMmi3iUoivXe7Q2wFlswBnx6lHOOFrEryAFd6zvmqqcVx6J0X1h2ZgNKjdyjzRGVTIpjk4LhkcO7lUcZJPw_zK0VtOsxvWNvxZIBdYIlvMTGj6GtI5f08hh-u4spYRGBy4rJgfKlSpK5wMgkgc1cBnE5hI6xJx2syitWxvDLKbIwwX-qkXddnMOVubrvk0rRtITVjPghPz-5UqhL2KfAYW7NNsWQtYHziZ5QGZ6-bFHGzBEuTwXdpuTaMhlP8NQ32Jst9zxrOCCnxWU_Wn3Cp6cCovczUAjBDxjbd7B685LW0HFeDxQwat04PKQb9yOWfWN5oDNTOACrFc9a0DEj6fS08bQyhlu-sLwa-qOAhcAZAIihrITVAuNVTR7w9Sr4jTxO_5JXB5vHU3xaiwPRq0mEqg5RHXwV_QNpZuO47DQoxLn6-bQkNNgg4iC4Hsjw2TPtjG0Ye32xhLpGKf8Pg6S0rYpoCh8hvhyd9te9TEjVU6YMk6Pz2o6t9OJBLGZx2wjrCuK4hZN29WXXp6AJoX2mmyIFZZRYRTe1uYvGGr6arzxTdjZrTJS-sU_dP9-Nawq-HlKM-_wzlnxRroJE0gcJPcRpGJ8iXLk6_zwmTOfapV7wCekKI_h9Twp63DXZnf-PJhysQ_FG6bGRjWaxbwCw29i4RY3-1m00]--></g></svg>