<svg xmlns="http://www.w3.org/2000/svg" xmlns:xlink="http://www.w3.org/1999/xlink" contentStyleType="text/css" data-diagram-type="CLASS" height="836px" preserveAspectRatio="none" style="width:1302px;height:836px;" version="1.1" viewBox="0 0 1302 836" width="1302px" zoomAndPan="magnify"><defs/><g><!--class IEvo--><g class="entity" data-entity="IEvo" data-source-line="19" data-uid="ent0002" id="entity_IEvo"><rect fill="#F1F1F1" height="86.1358" rx="2.5" ry="2.5" style="stroke:#181818;stroke-width:0.5;" width="255.4451" x="494.31" y="7"/><ellipse cx="604.7066" cy="23" fill="#FFFFFF" rx="11" ry="11" style="stroke:#181818;stroke-width:1;"/><path d="M600.6285,18.7656 L600.6285,16.6094 L608.0191,16.6094 L608.0191,18.7656 L605.5503,18.7656 L605.5503,26.8438 L608.0191,26.8438 L608.0191,29 L600.6285,29 L600.6285,26.8438 L603.0972,26.8438 L603.0972,18.7656 L600.6285,18.7656 Z " fill="#000000"/><text fill="#000000" font-family="sans-serif" font-size="14" font-style="italic" lengthAdjust="spacing" textLength="26.1519" x="625.2066" y="28.432">IEvo</text><line style="stroke:#181818;stroke-width:0.5;" x1="495.31" x2="748.7551" y1="39" y2="39"/><line style="stroke:#181818;stroke-width:0.5;" x1="495.31" x2="748.7551" y1="47" y2="47"/><ellipse cx="505.31" cy="62.034" fill="#84BE84" rx="3" ry="3" style="stroke:#038048;stroke-width:1;"/><text fill="#000000" font-family="sans-serif" font-size="14" lengthAdjust="spacing" text-decoration="underline" textLength="201.6692" x="514.31" y="65.9659">evo_version() : TypeEvoVersion</text><ellipse cx="505.31" cy="81.1019" fill="#84BE84" rx="3" ry="3" style="stroke:#038048;stroke-width:1;"/><text fill="#000000" font-family="sans-serif" font-size="14" lengthAdjust="spacing" textLength="229.4451" x="514.31" y="85.0339">get_evo_version() : TypeEvoVersion</text></g><!--class ID--><g class="entity" data-entity="ID" data-source-line="24" data-uid="ent0003" id="entity_ID"><rect fill="#F1F1F1" height="86.1358" rx="2.5" ry="2.5" style="stroke:#181818;stroke-width:0.5;" width="138.5036" x="381.31" y="153"/><ellipse cx="419.7934" cy="169" fill="#FFFFFF" rx="11" ry="11" style="stroke:#181818;stroke-width:1;"/><path d="M415.7153,164.7656 L415.7153,162.6094 L423.1059,162.6094 L423.1059,164.7656 L420.6372,164.7656 L420.6372,172.8438 L423.1059,172.8438 L423.1059,175 L415.7153,175 L415.7153,172.8438 L418.184,172.8438 L418.184,164.7656 L415.7153,164.7656 Z " fill="#000000"/><text fill="#000000" font-family="sans-serif" font-size="14" font-style="italic" lengthAdjust="spacing" textLength="13.8739" x="439.012" y="174.432">ID</text><rect fill="#FFFFFF" height="18.3441" style="stroke:#181818;stroke-width:1;stroke-dasharray:2.0,2.0;" width="38.4442" x="484.3693" y="150"/><text fill="#000000" font-family="sans-serif" font-size="12" font-style="italic" lengthAdjust="spacing" textLength="36.4442" x="485.3693" y="163.8281">TypeID</text><line style="stroke:#181818;stroke-width:0.5;" x1="382.31" x2="518.8136" y1="185" y2="185"/><line style="stroke:#181818;stroke-width:0.5;" x1="382.31" x2="518.8136" y1="193" y2="193"/><ellipse cx="392.31" cy="208.034" fill="#84BE84" rx="3" ry="3" style="stroke:#038048;stroke-width:1;"/><text fill="#000000" font-family="sans-serif" font-size="14" lengthAdjust="spacing" textLength="105.8256" x="401.31" y="211.9659">get_id() : TypeID</text><ellipse cx="392.31" cy="227.1019" fill="#84BE84" rx="3" ry="3" style="stroke:#038048;stroke-width:1;"/><text fill="#000000" font-family="sans-serif" font-size="14" lengthAdjust="spacing" textLength="112.5036" x="401.31" y="231.0339">set_id(id: TypeID)</text></g><!--class ITime--><g class="entity" data-entity="ITime" data-source-line="29" data-uid="ent0004" id="entity_ITime"><rect fill="#F1F1F1" height="86.1358" rx="2.5" ry="2.5" style="stroke:#181818;stroke-width:0.5;" width="190.7793" x="821.31" y="153"/><ellipse cx="895.2507" cy="169" fill="#FFFFFF" rx="11" ry="11" style="stroke:#181818;stroke-width:1;"/><path d="M891.1726,164.7656 L891.1726,162.6094 L898.5632,162.6094 L898.5632,164.7656 L896.0945,164.7656 L896.0945,172.8438 L898.5632,172.8438 L898.5632,175 L891.1726,175 L891.1726,172.8438 L893.6414,172.8438 L893.6414,164.7656 L891.1726,164.7656 Z " fill="#000000"/><text fill="#000000" font-family="sans-serif" font-size="14" font-style="italic" lengthAdjust="spacing" textLength="34.3979" x="915.7507" y="174.432">ITime</text><line style="stroke:#181818;stroke-width:0.5;" x1="822.31" x2="1011.0893" y1="185" y2="185"/><line style="stroke:#181818;stroke-width:0.5;" x1="822.31" x2="1011.0893" y1="193" y2="193"/><ellipse cx="832.31" cy="208.034" fill="#84BE84" rx="3" ry="3" style="stroke:#038048;stroke-width:1;"/><text fill="#000000" font-family="sans-serif" font-size="14" lengthAdjust="spacing" textLength="140.6714" x="841.31" y="211.9659">get_time() : TypeTime</text><ellipse cx="832.31" cy="227.1019" fill="#84BE84" rx="3" ry="3" style="stroke:#038048;stroke-width:1;"/><text fill="#000000" font-family="sans-serif" font-size="14" lengthAdjust="spacing" textLength="164.7793" x="841.31" y="231.0339">set_time(time: TypeTime)</text></g><!--class IEntity--><g class="entity" data-entity="IEntity" data-source-line="33" data-uid="ent0005" id="entity_IEntity"><rect fill="#09B620" height="105.2038" rx="2.5" ry="2.5" style="stroke:#181818;stroke-width:0.5;" width="238.2952" x="723.81" y="299"/><ellipse cx="798.8435" cy="315" fill="#09B620" rx="11" ry="11" style="stroke:#181818;stroke-width:1;"/><path d="M794.7654,310.7656 L794.7654,308.6094 L802.156,308.6094 L802.156,310.7656 L799.6873,310.7656 L799.6873,318.8438 L802.156,318.8438 L802.156,321 L794.7654,321 L794.7654,318.8438 L797.2342,318.8438 L797.2342,310.7656 L794.7654,310.7656 Z " fill="#000000"/><text fill="#000000" font-family="sans-serif" font-size="14" font-style="italic" lengthAdjust="spacing" textLength="39.2838" x="819.3435" y="320.432">IEntity</text><rect fill="#FFFFFF" height="18.3441" style="stroke:#181818;stroke-width:1;stroke-dasharray:2.0,2.0;" width="38.4442" x="926.6609" y="296"/><text fill="#000000" font-family="sans-serif" font-size="12" font-style="italic" lengthAdjust="spacing" textLength="36.4442" x="927.6609" y="309.8281">TypeID</text><line style="stroke:#181818;stroke-width:0.5;" x1="724.81" x2="961.1052" y1="331" y2="331"/><line style="stroke:#181818;stroke-width:0.5;" x1="724.81" x2="961.1052" y1="339" y2="339"/><ellipse cx="734.81" cy="354.034" fill="#84BE84" rx="3" ry="3" style="stroke:#038048;stroke-width:1;"/><text fill="#000000" font-family="sans-serif" font-size="14" lengthAdjust="spacing" textLength="114.8555" x="743.81" y="357.9659">to_bytes() : BYTES</text><ellipse cx="734.81" cy="373.1019" fill="#84BE84" rx="3" ry="3" style="stroke:#038048;stroke-width:1;"/><text fill="#000000" font-family="sans-serif" font-size="14" lengthAdjust="spacing" textLength="212.2952" x="743.81" y="377.0339">from_bytes(data: BYTES) : IEntity</text><ellipse cx="734.81" cy="392.1698" fill="#84BE84" rx="3" ry="3" style="stroke:#038048;stroke-width:1;"/><text fill="#000000" font-family="sans-serif" font-size="14" lengthAdjust="spacing" textLength="127.3435" x="743.81" y="396.1018">to_string() : STRING</text></g><!--class IControl--><g class="entity" data-entity="IControl" data-source-line="40" data-uid="ent0006" id="entity_IControl"><rect fill="#2735F3" height="86.1358" rx="2.5" ry="2.5" style="stroke:#181818;stroke-width:0.5;" width="88.1878" x="626.81" y="153"/><ellipse cx="644.3894" cy="169" fill="#2735F3" rx="11" ry="11" style="stroke:#181818;stroke-width:1;"/><path d="M640.3113,164.7656 L640.3113,162.6094 L647.7019,162.6094 L647.7019,164.7656 L645.2331,164.7656 L645.2331,172.8438 L647.7019,172.8438 L647.7019,175 L640.3113,175 L640.3113,172.8438 L642.78,172.8438 L642.78,164.7656 L640.3113,164.7656 Z " fill="#000000"/><text fill="#000000" font-family="sans-serif" font-size="14" font-style="italic" lengthAdjust="spacing" textLength="50.4558" x="658.9626" y="174.432">IControl</text><line style="stroke:#181818;stroke-width:0.5;" x1="627.81" x2="713.9978" y1="185" y2="185"/><line style="stroke:#181818;stroke-width:0.5;" x1="627.81" x2="713.9978" y1="193" y2="193"/><ellipse cx="637.81" cy="208.034" fill="#84BE84" rx="3" ry="3" style="stroke:#038048;stroke-width:1;"/><text fill="#000000" font-family="sans-serif" font-size="14" lengthAdjust="spacing" textLength="62.1878" x="646.81" y="211.9659">on_start()</text><ellipse cx="637.81" cy="227.1019" fill="#84BE84" rx="3" ry="3" style="stroke:#038048;stroke-width:1;"/><text fill="#000000" font-family="sans-serif" font-size="14" lengthAdjust="spacing" textLength="60.5778" x="646.81" y="231.0339">on_stop()</text></g><!--class IApi--><g class="entity" data-entity="IApi" data-source-line="45" data-uid="ent0007" id="entity_IApi"><rect fill="#00EEFF" height="86.1358" rx="2.5" ry="2.5" style="stroke:#181818;stroke-width:0.5;" width="88.1878" x="529.81" y="308.5"/><ellipse cx="559.2396" cy="324.5" fill="#00EEFF" rx="11" ry="11" style="stroke:#181818;stroke-width:1;"/><path d="M555.1615,320.2656 L555.1615,318.1094 L562.5521,318.1094 L562.5521,320.2656 L560.0834,320.2656 L560.0834,328.3438 L562.5521,328.3438 L562.5521,330.5 L555.1615,330.5 L555.1615,328.3438 L557.6303,328.3438 L557.6303,320.2656 L555.1615,320.2656 Z " fill="#000000"/><text fill="#000000" font-family="sans-serif" font-size="14" font-style="italic" lengthAdjust="spacing" textLength="24.1219" x="576.4462" y="329.932">IApi</text><line style="stroke:#181818;stroke-width:0.5;" x1="530.81" x2="616.9978" y1="340.5" y2="340.5"/><line style="stroke:#181818;stroke-width:0.5;" x1="530.81" x2="616.9978" y1="348.5" y2="348.5"/><ellipse cx="540.81" cy="363.534" fill="#84BE84" rx="3" ry="3" style="stroke:#038048;stroke-width:1;"/><text fill="#000000" font-family="sans-serif" font-size="14" lengthAdjust="spacing" textLength="62.1878" x="549.81" y="367.4659">on_start()</text><ellipse cx="540.81" cy="382.6019" fill="#84BE84" rx="3" ry="3" style="stroke:#038048;stroke-width:1;"/><text fill="#000000" font-family="sans-serif" font-size="14" lengthAdjust="spacing" textLength="60.5778" x="549.81" y="386.5339">on_stop()</text></g><!--class IAi--><g class="entity" data-entity="IAi" data-source-line="50" data-uid="ent0008" id="entity_IAi"><rect fill="#FFA600" height="105.2038" rx="2.5" ry="2.5" style="stroke:#181818;stroke-width:0.5;" width="301.4909" x="51.31" y="299"/><ellipse cx="189.7975" cy="315" fill="#FFA600" rx="11" ry="11" style="stroke:#181818;stroke-width:1;"/><path d="M185.7194,310.7656 L185.7194,308.6094 L193.11,308.6094 L193.11,310.7656 L190.6413,310.7656 L190.6413,318.8438 L193.11,318.8438 L193.11,321 L185.7194,321 L185.7194,318.8438 L188.1881,318.8438 L188.1881,310.7656 L185.7194,310.7656 Z " fill="#000000"/><text fill="#000000" font-family="sans-serif" font-size="14" font-style="italic" lengthAdjust="spacing" textLength="16.0159" x="210.2975" y="320.432">IAi</text><line style="stroke:#181818;stroke-width:0.5;" x1="52.31" x2="351.8009" y1="331" y2="331"/><line style="stroke:#181818;stroke-width:0.5;" x1="52.31" x2="351.8009" y1="339" y2="339"/><ellipse cx="62.31" cy="354.034" fill="#84BE84" rx="3" ry="3" style="stroke:#038048;stroke-width:1;"/><text fill="#000000" font-family="sans-serif" font-size="14" lengthAdjust="spacing" textLength="84.5597" x="71.31" y="357.9659">get_models()</text><ellipse cx="62.31" cy="373.1019" fill="#84BE84" rx="3" ry="3" style="stroke:#038048;stroke-width:1;"/><text fill="#000000" font-family="sans-serif" font-size="14" lengthAdjust="spacing" textLength="275.4909" x="71.31" y="377.0339">do_agent_run(e_ai_agent: EAiAgentPublic)</text><ellipse cx="62.31" cy="392.1698" fill="#84BE84" rx="3" ry="3" style="stroke:#038048;stroke-width:1;"/><text fill="#000000" font-family="sans-serif" font-size="14" lengthAdjust="spacing" textLength="219.3092" x="71.31" y="396.1018">do_agent_stop(id_agent: TypeID))</text></g><!--class IBridge--><g class="entity" data-entity="IBridge" data-source-line="56" data-uid="ent0009" id="entity_IBridge"><rect fill="#FF0000" height="162.4075" rx="2.5" ry="2.5" style="stroke:#181818;stroke-width:0.5;" width="364.5327" x="314.31" y="464"/><ellipse cx="464.2954" cy="480" fill="#FF0000" rx="11" ry="11" style="stroke:#181818;stroke-width:1;"/><path d="M460.2173,475.7656 L460.2173,473.6094 L467.6079,473.6094 L467.6079,475.7656 L465.1391,475.7656 L465.1391,483.8438 L467.6079,483.8438 L467.6079,486 L460.2173,486 L460.2173,483.8438 L462.686,483.8438 L462.686,475.7656 L460.2173,475.7656 Z " fill="#000000"/><text fill="#000000" font-family="sans-serif" font-size="14" font-style="italic" lengthAdjust="spacing" textLength="45.3178" x="484.7954" y="485.432">IBridge</text><rect fill="#FFFFFF" height="18.3441" style="stroke:#181818;stroke-width:1;stroke-dasharray:2.0,2.0;" width="8.744" x="673.0986" y="461"/><text fill="#000000" font-family="sans-serif" font-size="12" font-style="italic" lengthAdjust="spacing" textLength="6.744" x="674.0986" y="474.8281">K</text><line style="stroke:#181818;stroke-width:0.5;" x1="315.31" x2="677.8427" y1="496" y2="496"/><line style="stroke:#181818;stroke-width:0.5;" x1="315.31" x2="677.8427" y1="504" y2="504"/><ellipse cx="325.31" cy="519.034" fill="#84BE84" rx="3" ry="3" style="stroke:#038048;stroke-width:1;"/><text fill="#000000" font-family="sans-serif" font-size="14" lengthAdjust="spacing" textLength="301.1948" x="334.31" y="522.9659">set_on_connected(callback: OnConnected&lt;K&gt;)</text><ellipse cx="325.31" cy="538.1019" fill="#84BE84" rx="3" ry="3" style="stroke:#038048;stroke-width:1;"/><text fill="#000000" font-family="sans-serif" font-size="14" lengthAdjust="spacing" textLength="338.5327" x="334.31" y="542.0339">set_on_disconnected(callback: OnDisconnected&lt;K&gt;)</text><ellipse cx="325.31" cy="557.1698" fill="#84BE84" rx="3" ry="3" style="stroke:#038048;stroke-width:1;"/><text fill="#000000" font-family="sans-serif" font-size="14" lengthAdjust="spacing" textLength="229.0391" x="334.31" y="561.1018">set_on_error(callback: OnError&lt;K&gt;)</text><ellipse cx="325.31" cy="576.2377" fill="#84BE84" rx="3" ry="3" style="stroke:#038048;stroke-width:1;"/><text fill="#000000" font-family="sans-serif" font-size="14" lengthAdjust="spacing" textLength="278.8509" x="334.31" y="580.1697">set_on_message(callback: OnMessage&lt;K&gt;)</text><ellipse cx="325.31" cy="595.3056" fill="#84BE84" rx="3" ry="3" style="stroke:#038048;stroke-width:1;"/><text fill="#000000" font-family="sans-serif" font-size="14" lengthAdjust="spacing" textLength="83.8597" x="334.31" y="599.2376">do_connect()</text><ellipse cx="325.31" cy="614.3735" fill="#84BE84" rx="3" ry="3" style="stroke:#038048;stroke-width:1;"/><text fill="#000000" font-family="sans-serif" font-size="14" lengthAdjust="spacing" textLength="102.7876" x="334.31" y="618.3055">do_disconnect()</text></g><!--class IMemory--><g class="entity" data-entity="IMemory" data-source-line="65" data-uid="ent0010" id="entity_IMemory"><rect fill="#FBFF00" height="143.3396" rx="2.5" ry="2.5" style="stroke:#181818;stroke-width:0.5;" width="378.8546" x="855.31" y="473.5"/><ellipse cx="972.5642" cy="489.5" fill="#FBFF00" rx="11" ry="11" style="stroke:#181818;stroke-width:1;"/><path d="M968.486,485.2656 L968.486,483.1094 L975.8767,483.1094 L975.8767,485.2656 L973.4079,485.2656 L973.4079,493.3438 L975.8767,493.3438 L975.8767,495.5 L968.486,495.5 L968.486,493.3438 L970.9548,493.3438 L970.9548,485.2656 L968.486,485.2656 Z " fill="#000000"/><text fill="#000000" font-family="sans-serif" font-size="14" font-style="italic" lengthAdjust="spacing" textLength="55.5378" x="993.0642" y="494.932">IMemory</text><rect fill="#FFFFFF" height="18.3441" style="stroke:#181818;stroke-width:1;stroke-dasharray:2.0,2.0;" width="78.3085" x="1158.8561" y="470.5"/><text fill="#000000" font-family="sans-serif" font-size="12" font-style="italic" lengthAdjust="spacing" textLength="76.3085" x="1159.8561" y="484.3281">TypeID, IEntity</text><line style="stroke:#181818;stroke-width:0.5;" x1="856.31" x2="1233.1646" y1="505.5" y2="505.5"/><line style="stroke:#181818;stroke-width:0.5;" x1="856.31" x2="1233.1646" y1="513.5" y2="513.5"/><ellipse cx="866.31" cy="528.534" fill="#84BE84" rx="3" ry="3" style="stroke:#038048;stroke-width:1;"/><text fill="#000000" font-family="sans-serif" font-size="14" lengthAdjust="spacing" textLength="138.1935" x="875.31" y="532.4659">do_set(entity: IEntity)</text><ellipse cx="866.31" cy="547.6019" fill="#84BE84" rx="3" ry="3" style="stroke:#038048;stroke-width:1;"/><text fill="#000000" font-family="sans-serif" font-size="14" lengthAdjust="spacing" textLength="264.571" x="875.31" y="551.5339">do_set_with_id(id: TypeID, entity: IEntity)</text><ellipse cx="866.31" cy="566.6698" fill="#84BE84" rx="3" ry="3" style="stroke:#038048;stroke-width:1;"/><text fill="#000000" font-family="sans-serif" font-size="14" lengthAdjust="spacing" textLength="178.4153" x="875.31" y="570.6018">do_get(id: TypeID) : IEntity?</text><ellipse cx="866.31" cy="585.7377" fill="#84BE84" rx="3" ry="3" style="stroke:#038048;stroke-width:1;"/><text fill="#000000" font-family="sans-serif" font-size="14" lengthAdjust="spacing" textLength="352.8546" x="875.31" y="589.6697">do_query&lt;TypeID, IEntity, Q&gt;(query: IQuery) : [IEntity]</text><ellipse cx="866.31" cy="604.8056" fill="#84BE84" rx="3" ry="3" style="stroke:#038048;stroke-width:1;"/><text fill="#000000" font-family="sans-serif" font-size="14" lengthAdjust="spacing" textLength="117.8235" x="875.31" y="608.7376">do_del(id: TypeID)</text></g><!--class IGui--><g class="entity" data-entity="IGui" data-source-line="75" data-uid="ent0011" id="entity_IGui"><rect fill="#B700FF" height="143.3396" rx="2.5" ry="2.5" style="stroke:#181818;stroke-width:0.5;" width="163.2695" x="685.31" y="686"/><ellipse cx="744.4498" cy="702" fill="#B700FF" rx="11" ry="11" style="stroke:#181818;stroke-width:1;"/><path d="M740.3716,697.7656 L740.3716,695.6094 L747.7623,695.6094 L747.7623,697.7656 L745.2935,697.7656 L745.2935,705.8438 L747.7623,705.8438 L747.7623,708 L740.3716,708 L740.3716,705.8438 L742.8404,705.8438 L742.8404,697.7656 L740.3716,697.7656 Z " fill="#000000"/><text fill="#000000" font-family="sans-serif" font-size="14" font-style="italic" lengthAdjust="spacing" textLength="25.7459" x="764.9498" y="707.432">IGui</text><rect fill="#FFFFFF" height="18.3441" style="stroke:#181818;stroke-width:1;stroke-dasharray:2.0,2.0;" width="8.744" x="842.8354" y="683"/><text fill="#000000" font-family="sans-serif" font-size="12" font-style="italic" lengthAdjust="spacing" textLength="6.744" x="843.8354" y="696.8281">K</text><line style="stroke:#181818;stroke-width:0.5;" x1="686.31" x2="847.5795" y1="718" y2="718"/><line style="stroke:#181818;stroke-width:0.5;" x1="686.31" x2="847.5795" y1="726" y2="726"/><ellipse cx="696.31" cy="741.034" fill="#84BE84" rx="3" ry="3" style="stroke:#038048;stroke-width:1;"/><text fill="#000000" font-family="sans-serif" font-size="14" lengthAdjust="spacing" textLength="62.1878" x="705.31" y="744.9659">on_start()</text><ellipse cx="696.31" cy="760.1019" fill="#84BE84" rx="3" ry="3" style="stroke:#038048;stroke-width:1;"/><text fill="#000000" font-family="sans-serif" font-size="14" lengthAdjust="spacing" textLength="60.5778" x="705.31" y="764.0339">on_stop()</text><ellipse cx="696.31" cy="779.1698" fill="#84BE84" rx="3" ry="3" style="stroke:#038048;stroke-width:1;"/><text fill="#000000" font-family="sans-serif" font-size="14" lengthAdjust="spacing" textLength="120.2175" x="705.31" y="783.1018">do_view(obj: Any?)</text><ellipse cx="696.31" cy="798.2377" fill="#84BE84" rx="3" ry="3" style="stroke:#038048;stroke-width:1;"/><text fill="#000000" font-family="sans-serif" font-size="14" lengthAdjust="spacing" textLength="119.3635" x="705.31" y="802.1697">do_hide(obj: Any?)</text><ellipse cx="696.31" cy="817.3056" fill="#84BE84" rx="3" ry="3" style="stroke:#038048;stroke-width:1;"/><text fill="#000000" font-family="sans-serif" font-size="14" lengthAdjust="spacing" textLength="137.2695" x="705.31" y="821.2376">do_update(obj: Any?)</text></g><!--reverse link IEvo to IControl--><g class="link" data-entity-1="IEvo" data-entity-2="IControl" data-source-line="86" data-uid="lnk12" id="link_IEvo_IControl"><path codeLine="86" d="M641.9156,110.0815 C648.2956,128.8415 650.01,133.86 656.41,152.66" fill="none" id="IEvo-backto-IControl" style="stroke:#2735F3;stroke-width:1;"/><polygon fill="none" points="636.12,93.04,636.2351,112.0133,647.596,108.1496,636.12,93.04" style="stroke:#2735F3;stroke-width:1;"/></g><!--reverse link IEvo to IEntity--><g class="link" data-entity-1="IEvo" data-entity-2="IEntity" data-source-line="88" data-uid="lnk13" id="link_IEvo_IEntity"><path codeLine="88" d="M687.2736,105.127 C706.8036,122.457 714.88,131.52 731.81,153 C767.73,198.56 799.11,257.19 819.25,298.69" fill="none" id="IEvo-backto-IEntity" style="stroke:#09B620;stroke-width:1;"/><polygon fill="none" points="673.81,93.18,683.2913,109.6149,691.256,100.6391,673.81,93.18" style="stroke:#09B620;stroke-width:1;"/></g><!--reverse link ID to IEntity--><g class="link" data-entity-1="ID" data-entity-2="IEntity" data-source-line="89" data-uid="lnk14" id="link_ID_IEntity"><path codeLine="89" d="M537.2009,230.833 C593.4109,252.843 657.04,277.76 723.48,303.77" fill="none" id="ID-backto-IEntity" style="stroke:#09B620;stroke-width:1;"/><polygon fill="none" points="520.44,224.27,535.0132,236.42,539.3885,225.2461,520.44,224.27" style="stroke:#09B620;stroke-width:1;"/></g><!--reverse link ITime to IEntity--><g class="link" data-entity-1="ITime" data-entity-2="IEntity" data-source-line="90" data-uid="lnk15" id="link_ITime_IEntity"><path codeLine="90" d="M888.5829,255.564 C879.6829,274.024 876.99,279.61 867.64,299" fill="none" id="ITime-backto-IEntity" style="stroke:#09B620;stroke-width:1;"/><polygon fill="none" points="896.4,239.35,883.1782,252.9582,893.9875,258.1697,896.4,239.35" style="stroke:#09B620;stroke-width:1;"/></g><!--reverse link IEvo to IBridge--><g class="link" data-entity-1="IEvo" data-entity-2="IBridge" data-source-line="92" data-uid="lnk16" id="link_IEvo_IBridge"><path codeLine="92" d="M476.1695,63.4907 C332.3695,82.7607 124.86,136.34 33.81,299 C11.02,339.72 6,366.53 33.81,404 C68.32,450.48 199.96,487.51 314.09,511.78" fill="none" id="IEvo-backto-IBridge" style="stroke:#FF0000;stroke-width:1;"/><polygon fill="none" points="494.01,61.1,475.3726,57.5439,476.9664,69.4376,494.01,61.1" style="stroke:#FF0000;stroke-width:1;"/></g><!--reverse link ID to IBridge--><g class="link" data-entity-1="ID" data-entity-2="IBridge" data-source-line="93" data-uid="lnk17" id="link_ID_IBridge"><path codeLine="93" d="M458.774,257.0441 C466.144,312.6741 476.91,393.83 486.19,463.89" fill="none" id="ID-backto-IBridge" style="stroke:#FF0000;stroke-width:1;"/><polygon fill="none" points="456.41,239.2,452.826,257.8321,464.7221,256.2561,456.41,239.2" style="stroke:#FF0000;stroke-width:1;"/></g><!--reverse link IEvo to IMemory--><g class="link" data-entity-1="IEvo" data-entity-2="IMemory" data-source-line="95" data-uid="lnk18" id="link_IEvo_IMemory"><path codeLine="95" d="M767.2613,68.7494 C873.3313,84.2294 994.57,109.61 1029.81,153 C1103.04,243.17 1085.13,387.34 1065.17,473.13" fill="none" id="IEvo-backto-IMemory" style="stroke:#FBFF00;stroke-width:1;"/><polygon fill="none" points="749.45,66.15,766.3948,74.6865,768.1278,62.8123,749.45,66.15" style="stroke:#FBFF00;stroke-width:1;"/></g><!--reverse link IEvo to IGui--><g class="link" data-entity-1="IEvo" data-entity-2="IGui" data-source-line="97" data-uid="lnk19" id="link_IEvo_IGui"><path codeLine="97" d="M767.1099,70.5662 C882.7099,87.9462 1024.76,115.12 1075.81,153 C1203.35,247.64 1211.37,310.42 1251.81,464 C1270.15,533.63 1295.61,568.86 1251.81,626 C1202.98,689.71 973.5,729.28 848.49,746.48" fill="none" id="IEvo-backto-IGui" style="stroke:#B700FF;stroke-width:1;"/><polygon fill="none" points="749.31,67.89,766.2179,76.4995,768.002,64.6328,749.31,67.89" style="stroke:#B700FF;stroke-width:1;"/></g><!--reverse link ID to IGui--><g class="link" data-entity-1="ID" data-entity-2="IGui" data-source-line="98" data-uid="lnk20" id="link_ID_IGui"><path codeLine="98" d="M436.4311,256.7626 C424.7611,300.9226 406.65,353.25 369.81,404 C345.14,437.99 314.75,426.03 296.81,464 C266.05,529.1 253.24,568.68 296.81,626 C343.67,687.64 563.43,727.81 685.14,745.73" fill="none" id="ID-backto-IGui" style="stroke:#B700FF;stroke-width:1;"/><polygon fill="none" points="441.03,239.36,430.6302,255.2296,442.2319,258.2956,441.03,239.36" style="stroke:#B700FF;stroke-width:1;"/></g><!--reverse link IEvo to IApi--><g class="link" data-entity-1="IEvo" data-entity-2="IApi" data-source-line="100" data-uid="lnk21" id="link_IEvo_IApi"><path codeLine="100" d="M612.1909,111.0531 C603.0409,168.1331 589.68,251.47 580.55,308.44" fill="none" id="IEvo-backto-IApi" style="stroke:#00EEFF;stroke-width:1;"/><polygon fill="none" points="615.04,93.28,606.2666,110.1034,618.1153,112.0028,615.04,93.28" style="stroke:#00EEFF;stroke-width:1;"/></g><!--reverse link ID to IApi--><g class="link" data-entity-1="ID" data-entity-2="IApi" data-source-line="101" data-uid="lnk22" id="link_ID_IApi"><path codeLine="101" d="M496.0049,253.3973 C513.2149,274.8773 522.79,286.83 539.99,308.29" fill="none" id="ID-backto-IApi" style="stroke:#00EEFF;stroke-width:1;"/><polygon fill="none" points="484.75,239.35,491.3224,257.149,500.6873,249.6457,484.75,239.35" style="stroke:#00EEFF;stroke-width:1;"/></g><!--reverse link IEvo to IAi--><g class="link" data-entity-1="IEvo" data-entity-2="IAi" data-source-line="103" data-uid="lnk23" id="link_IEvo_IAi"><path codeLine="103" d="M477.2698,93.1381 C433.4598,109.1181 402.63,124.69 363.81,153 C309.35,192.72 262.45,254.9 233.33,298.86" fill="none" id="IEvo-backto-IAi" style="stroke:#FFA600;stroke-width:1;"/><polygon fill="none" points="494.18,86.97,475.2138,87.5014,479.3258,98.7748,494.18,86.97" style="stroke:#FFA600;stroke-width:1;"/></g><!--reverse link ID to IAi--><g class="link" data-entity-1="ID" data-entity-2="IAi" data-source-line="104" data-uid="lnk24" id="link_ID_IAi"><path codeLine="104" d="M367.1182,248.5969 C337.1782,267.0569 317.07,279.45 285.56,298.87" fill="none" id="ID-backto-IAi" style="stroke:#FFA600;stroke-width:1;"/><polygon fill="none" points="382.44,239.15,363.9693,243.4896,370.2672,253.7041,382.44,239.15" style="stroke:#FFA600;stroke-width:1;"/></g><!--link IEvo to ID--><g class="link" data-entity-1="IEvo" data-entity-2="ID" data-source-line="106" data-uid="lnk25" id="link_IEvo_ID"><line style="stroke:none;stroke-width:1;" x1="500.79" x2="504.615" y1="152.91" y2="149.6898"/></g><!--reverse link IBridge to IMemory--><g class="link" data-entity-1="IBridge" data-entity-2="IMemory" data-source-line="109" data-uid="lnk27" id="link_IBridge_IMemory"><line style="stroke:none;stroke-width:1;" x1="679.57" x2="684.57" y1="545" y2="545"/></g><!--link IControl to IGui--><g class="link" data-entity-1="IControl" data-entity-2="IGui" data-source-line="111" data-uid="lnk28" id="link_IControl_IGui"><line style="stroke:none;stroke-width:1;" x1="754.52" x2="753.6637" y1="685.96" y2="681.0339"/></g><!--link IControl to IApi--><g class="link" data-entity-1="IControl" data-entity-2="IApi" data-source-line="112" data-uid="lnk29" id="link_IControl_IApi"><line style="stroke:none;stroke-width:1;" x1="600.49" x2="603.1609" y1="308.29" y2="304.0631"/></g><!--link IEntity to IGui--><g class="link" data-entity-1="IEntity" data-entity-2="IGui" data-source-line="113" data-uid="lnk30" id="link_IEntity_IGui"><line style="stroke:none;stroke-width:1;" x1="780.09" x2="781.0145" y1="685.9" y2="680.9862"/></g><!--link IEntity to IBridge--><g class="link" data-entity-1="IEntity" data-entity-2="IBridge" data-source-line="114" data-uid="lnk31" id="link_IEntity_IBridge"><line style="stroke:none;stroke-width:1;" x1="641.62" x2="645.9946" y1="463.85" y2="461.4286"/></g><!--reverse link IControl to IEntity--><g class="link" data-entity-1="IControl" data-entity-2="IEntity" data-source-line="115" data-uid="lnk33" id="link_IControl_IEntity"><line style="stroke:none;stroke-width:1;" x1="715.11" x2="718.8404" y1="236.53" y2="239.8593"/></g><!--link IMemory to IGui--><g class="link" data-entity-1="IMemory" data-entity-2="IGui" data-source-line="116" data-uid="lnk34" id="link_IMemory_IGui"><line style="stroke:none;stroke-width:1;" x1="848.73" x2="852.7157" y1="694.48" y2="691.461"/></g><!--link IBridge to IGui--><g class="link" data-entity-1="IBridge" data-entity-2="IGui" data-source-line="117" data-uid="lnk35" id="link_IBridge_IGui"><line style="stroke:none;stroke-width:1;" x1="685.23" x2="681.2866" y1="692.89" y2="689.816"/></g><!--SRC=[bLPTJzim57tFh_340wb6fGeqqAggg110rSGsHZLfcgOgJMvQZzRk7BTLnVZly_T7seAM1o3td7jyVNrzmZ5w18ucUV4qPNH5IbJGEML9_OJ9CcVv0bqvw5eYYBESr082mfFa66LGOG8wgqQL841Up10c75YL5v2yApLZUBEcMk7eLZqUoGx4HtW11w0hXikf1Qkg8nuFNbF26PqRzFJYx4Dr5jH1EEPR0tO-JivFWzHxM51cmMeYbJruAxkGSqo9MpW_3mbtAsoGoKMdKrKU6Imjqka0H0YEnNnF-Gny7skqmNmcOvWX1lKI2exNjl69uwa-erul7PxubhVwVVIS8F6yVwwvs47nWc1DnsjWjTXDsa9TDDekGV2_wv0cJu6Ft-2z9E7QMK_2mwnlAyYQwqj9N3gbOQR3jGxZqePR3MKv2rRKpKL3bukuKvOahwqW-SE3SeMmRMeiclK7mo8N2z_DmfoE9riEjLhuwiVevb77AqON1X4panjCaeo8IwyvmsIgyXz7tuQVx-JMmzBCFDkQml5MHOK1KnKbGZPdF6q5xtIPDjigvjBAsX5LalRbV-MyMYWMQScJMj0IvhLLA-audme_6RCLIM6SO_tQHJS3F91_VLrDvhXeibK5kBHaCpVDahHJz3wv8msiGrKNl3_xWH4xB2WXufP1cHRvV2ujiek-YAjleaAo5V5BNEzFoG9W9miOeooYtyZ83cy1TIrs6Z7lTSnpHM_CIa5lVLqxvwNjpWoz6tVNgi0DLQj2TpIzGc81KM4AAjCDToj2nzAxuljzWWvdY0a9dS1VcKlF-RE2tS9Fq4C_LOX8UP2_PV9FW_xosMBwOgz1INpbX9C78sDzNJN1cRpjGFDo87yxt89h39kKJdvtqO1iBmDWXalO2woMmZOYIBf2_7LWC5UVetg6bpMQ0Dy0aE2RaUYFmTzssvj8v1P9oD1TYZmk6MQlWTgK3-AXkBvbqMtpull0C5dFNJH_4IwEn9-Bbut3OOAqFUTnFY4EHmdOsLX03uAQt2xfXhJ5a6JeAFn7wLW4sdEekCHKrtPXcseFAcBO5ZWHqxA8bBXS9oPR40iv2iFJcPAIkuuvvZ1VKMaozfNZIAlbs_iwl9IHFin8_W40]--></g></svg>