<svg xmlns="http://www.w3.org/2000/svg" xmlns:xlink="http://www.w3.org/1999/xlink" contentStyleType="text/css" data-diagram-type="SEQUENCE" height="1842px" preserveAspectRatio="none" style="width:1191px;height:1842px;background:#FFFFFF;" version="1.1" viewBox="0 0 1191 1842" width="1191px" zoomAndPan="magnify"><title>ESS Serialization Flow - Bridge Layer Communication</title><defs/><g><text fill="#000000" font-family="Verdana" font-size="22" font-weight="bold" lengthAdjust="spacing" textLength="656.584" x="265.8179" y="60.2715">ESS Serialization Flow - Bridge Layer Communication</text><g><title>ETest0</title><rect fill="#FFFFFF" height="696.9829" style="stroke:#2C5F77;stroke-width:1;" width="10" x="270.5542" y="246.5186"/></g><g><title>ETest0</title><rect fill="#FFFFFF" height="512.5884" style="stroke:#2C5F77;stroke-width:1;" width="10" x="270.5542" y="1114.2974"/></g><g><title>Header</title><rect fill="#FFFFFF" height="30" style="stroke:#2C5F77;stroke-width:1;" width="10" x="547.4238" y="585.709"/></g><g><title>Header</title><rect fill="#FFFFFF" height="30" style="stroke:#2C5F77;stroke-width:1;" width="10" x="547.4238" y="1186.896"/></g><g><title>Nested</title><rect fill="#FFFFFF" height="59.5986" style="stroke:#2C5F77;stroke-width:1;" width="10" x="642.6079" y="276.3179"/></g><g><title>Nested</title><rect fill="#FFFFFF" height="29.7993" style="stroke:#2C5F77;stroke-width:1;" width="10" x="642.6079" y="1345.6919"/></g><g><title>Nested</title><rect fill="#FFFFFF" height="29.7993" style="stroke:#2C5F77;stroke-width:1;" width="10" x="642.6079" y="1405.2905"/></g><g><title>MapEntity</title><rect fill="#FFFFFF" height="59.5986" style="stroke:#2C5F77;stroke-width:1;" width="10" x="747.54" y="365.7158"/></g><g><title>MapEntity</title><rect fill="#FFFFFF" height="29.7993" style="stroke:#2C5F77;stroke-width:1;" width="10" x="747.54" y="1464.8892"/></g><g><title>MapEntity</title><rect fill="#FFFFFF" height="29.7993" style="stroke:#2C5F77;stroke-width:1;" width="10" x="747.54" y="1524.4878"/></g><g><title>Buffer</title><rect fill="#FFFFFF" height="268.1938" style="stroke:#2C5F77;stroke-width:1;" width="10" x="847.7485" y="645.5083"/></g><g><title>Bridge</title><rect fill="#FFFFFF" height="92.3979" style="stroke:#2C5F77;stroke-width:1;" width="10" x="934.5278" y="992.1001"/></g><g><title>PeerA</title><rect fill="#000000" fill-opacity="0.00000" height="1572.9624" width="8" x="40.2607" y="170.9199"/><line style="stroke:#2C5F77;stroke-width:1;" x1="44" x2="44" y1="170.9199" y2="1743.8823"/></g><g><title>ETest0</title><rect fill="#000000" fill-opacity="0.00000" height="1572.9624" width="8" x="271.5542" y="170.9199"/><line style="stroke:#2C5F77;stroke-width:1;" x1="274.7891" x2="274.7891" y1="170.9199" y2="1743.8823"/></g><g><title>Header</title><rect fill="#000000" fill-opacity="0.00000" height="1572.9624" width="8" x="548.4238" y="170.9199"/><line style="stroke:#2C5F77;stroke-width:1;" x1="552.271" x2="552.271" y1="170.9199" y2="1743.8823"/></g><g><title>Nested</title><rect fill="#000000" fill-opacity="0.00000" height="1572.9624" width="8" x="643.6079" y="170.9199"/><line style="stroke:#2C5F77;stroke-width:1;" x1="647.5767" x2="647.5767" y1="170.9199" y2="1743.8823"/></g><g><title>MapEntity</title><rect fill="#000000" fill-opacity="0.00000" height="1572.9624" width="8" x="748.54" y="170.9199"/><line style="stroke:#2C5F77;stroke-width:1;" x1="751.6392" x2="751.6392" y1="170.9199" y2="1743.8823"/></g><g><title>Buffer</title><rect fill="#000000" fill-opacity="0.00000" height="1572.9624" width="8" x="848.7485" y="170.9199"/><line style="stroke:#2C5F77;stroke-width:1;" x1="852.4409" x2="852.4409" y1="170.9199" y2="1743.8823"/></g><g><title>Bridge</title><rect fill="#000000" fill-opacity="0.00000" height="1572.9624" width="8" x="935.5278" y="170.9199"/><line style="stroke:#2C5F77;stroke-width:1;" x1="939.0562" x2="939.0562" y1="170.9199" y2="1743.8823"/></g><g><title>PeerB</title><rect fill="#000000" fill-opacity="0.00000" height="1572.9624" width="8" x="1135.7876" y="170.9199"/><line style="stroke:#2C5F77;stroke-width:1;" x1="1139.3555" x2="1139.3555" y1="170.9199" y2="1743.8823"/></g><g class="participant participant-head" data-participant="PeerA"><text fill="#000000" font-family="Verdana" font-size="14" lengthAdjust="spacing" textLength="40.667" x="20.9272" y="150.9658">PeerA</text><text fill="#000000" font-family="Verdana" font-size="14" lengthAdjust="spacing" textLength="62.5215" x="10" y="167.9805">(Sender)</text><ellipse cx="44.2607" cy="84.8906" fill="#FFB6C1" rx="8" ry="8" style="stroke:#2C5F77;stroke-width:1;"/><path d="M44.2607,92.8906 L44.2607,119.8906 M31.2607,100.8906 L57.2607,100.8906 M44.2607,119.8906 L31.2607,134.8906 M44.2607,119.8906 L57.2607,134.8906" fill="none" style="stroke:#2C5F77;stroke-width:1;"/></g><g class="participant participant-tail" data-participant="PeerA"><text fill="#000000" font-family="Verdana" font-size="14" lengthAdjust="spacing" textLength="40.667" x="20.9272" y="1756.9575">PeerA</text><text fill="#000000" font-family="Verdana" font-size="14" lengthAdjust="spacing" textLength="62.5215" x="10" y="1773.9722">(Sender)</text><ellipse cx="44.2607" cy="1785.9116" fill="#FFB6C1" rx="8" ry="8" style="stroke:#2C5F77;stroke-width:1;"/><path d="M44.2607,1793.9116 L44.2607,1820.9116 M31.2607,1801.9116 L57.2607,1801.9116 M44.2607,1820.9116 L31.2607,1835.9116 M44.2607,1820.9116 L57.2607,1835.9116" fill="none" style="stroke:#2C5F77;stroke-width:1;"/></g><g class="participant participant-head" data-participant="entity"><rect fill="#09B620" height="31.0146" rx="2.5" ry="2.5" style="stroke:#2C5F77;stroke-width:1;" width="61.5303" x="244.7891" y="138.9053"/><text fill="#000000" font-family="Verdana" font-size="14" lengthAdjust="spacing" textLength="47.5303" x="251.7891" y="159.9805">ETest0</text></g><g class="participant participant-tail" data-participant="entity"><rect fill="#09B620" height="31.0146" rx="2.5" ry="2.5" style="stroke:#2C5F77;stroke-width:1;" width="61.5303" x="244.7891" y="1742.8823"/><text fill="#000000" font-family="Verdana" font-size="14" lengthAdjust="spacing" textLength="47.5303" x="251.7891" y="1763.9575">ETest0</text></g><g class="participant participant-head" data-participant="header"><rect fill="#09B620" height="31.0146" rx="2.5" ry="2.5" style="stroke:#2C5F77;stroke-width:1;" width="64.3057" x="520.271" y="138.9053"/><text fill="#000000" font-family="Verdana" font-size="14" lengthAdjust="spacing" textLength="50.3057" x="527.271" y="159.9805">Header</text></g><g class="participant participant-tail" data-participant="header"><rect fill="#09B620" height="31.0146" rx="2.5" ry="2.5" style="stroke:#2C5F77;stroke-width:1;" width="64.3057" x="520.271" y="1742.8823"/><text fill="#000000" font-family="Verdana" font-size="14" lengthAdjust="spacing" textLength="50.3057" x="527.271" y="1763.9575">Header</text></g><g class="participant participant-head" data-participant="nested"><rect fill="#09B620" height="48.0293" rx="2.5" ry="2.5" style="stroke:#2C5F77;stroke-width:1;" width="66.0625" x="614.5767" y="121.8906"/><text fill="#000000" font-family="Verdana" font-size="14" lengthAdjust="spacing" textLength="48.6855" x="623.2651" y="142.9658">Nested</text><text fill="#000000" font-family="Verdana" font-size="14" lengthAdjust="spacing" textLength="52.0625" x="621.5767" y="159.9805">Entities</text></g><g class="participant participant-tail" data-participant="nested"><rect fill="#09B620" height="48.0293" rx="2.5" ry="2.5" style="stroke:#2C5F77;stroke-width:1;" width="66.0625" x="614.5767" y="1742.8823"/><text fill="#000000" font-family="Verdana" font-size="14" lengthAdjust="spacing" textLength="48.6855" x="623.2651" y="1763.9575">Nested</text><text fill="#000000" font-family="Verdana" font-size="14" lengthAdjust="spacing" textLength="52.0625" x="621.5767" y="1780.9722">Entities</text></g><g class="participant participant-head" data-participant="map"><rect fill="#E8F4F8" height="31.0146" rx="2.5" ry="2.5" style="stroke:#2C5F77;stroke-width:1;" width="83.8018" x="710.6392" y="138.9053"/><text fill="#000000" font-family="Verdana" font-size="14" lengthAdjust="spacing" textLength="69.8018" x="717.6392" y="159.9805">MapEntity</text></g><g class="participant participant-tail" data-participant="map"><rect fill="#E8F4F8" height="31.0146" rx="2.5" ry="2.5" style="stroke:#2C5F77;stroke-width:1;" width="83.8018" x="710.6392" y="1742.8823"/><text fill="#000000" font-family="Verdana" font-size="14" lengthAdjust="spacing" textLength="69.8018" x="717.6392" y="1763.9575">MapEntity</text></g><g class="participant participant-head" data-participant="buffer"><rect fill="#E8F4F8" height="31.0146" rx="2.5" ry="2.5" style="stroke:#2C5F77;stroke-width:1;" width="56.6152" x="824.4409" y="138.9053"/><text fill="#000000" font-family="Verdana" font-size="14" lengthAdjust="spacing" textLength="42.6152" x="831.4409" y="159.9805">Buffer</text></g><g class="participant participant-tail" data-participant="buffer"><rect fill="#E8F4F8" height="31.0146" rx="2.5" ry="2.5" style="stroke:#2C5F77;stroke-width:1;" width="56.6152" x="824.4409" y="1742.8823"/><text fill="#000000" font-family="Verdana" font-size="14" lengthAdjust="spacing" textLength="42.6152" x="831.4409" y="1763.9575">Buffer</text></g><g class="participant participant-head" data-participant="bridge"><path d="M906.0562,126.8906 L972.9995,126.8906 C977.9995,126.8906 977.9995,148.9053 977.9995,148.9053 C977.9995,148.9053 977.9995,170.9199 972.9995,170.9199 L906.0562,170.9199 C901.0562,170.9199 901.0562,148.9053 901.0562,148.9053 C901.0562,148.9053 901.0562,126.8906 906.0562,126.8906" fill="#FF0000" style="stroke:#000000;stroke-width:1;"/><path d="M972.9995,126.8906 C967.9995,126.8906 967.9995,148.9053 967.9995,148.9053 C967.9995,170.9199 972.9995,170.9199 972.9995,170.9199" fill="none" style="stroke:#000000;stroke-width:1;"/><text fill="#000000" font-family="Verdana" font-size="14" lengthAdjust="spacing" textLength="45.1992" x="911.9282" y="145.9658">Bridge</text><text fill="#000000" font-family="Verdana" font-size="14" lengthAdjust="spacing" textLength="56.9434" x="906.0562" y="162.9805">Channel</text></g><g class="participant participant-tail" data-participant="bridge"><path d="M906.0562,1742.8823 L972.9995,1742.8823 C977.9995,1742.8823 977.9995,1764.897 977.9995,1764.897 C977.9995,1764.897 977.9995,1786.9116 972.9995,1786.9116 L906.0562,1786.9116 C901.0562,1786.9116 901.0562,1764.897 901.0562,1764.897 C901.0562,1764.897 901.0562,1742.8823 906.0562,1742.8823" fill="#FF0000" style="stroke:#000000;stroke-width:1;"/><path d="M972.9995,1742.8823 C967.9995,1742.8823 967.9995,1764.897 967.9995,1764.897 C967.9995,1786.9116 972.9995,1786.9116 972.9995,1786.9116" fill="none" style="stroke:#000000;stroke-width:1;"/><text fill="#000000" font-family="Verdana" font-size="14" lengthAdjust="spacing" textLength="45.1992" x="911.9282" y="1761.9575">Bridge</text><text fill="#000000" font-family="Verdana" font-size="14" lengthAdjust="spacing" textLength="56.9434" x="906.0562" y="1778.9722">Channel</text></g><g class="participant participant-head" data-participant="PeerB"><text fill="#000000" font-family="Verdana" font-size="14" lengthAdjust="spacing" textLength="40.6943" x="1116.4404" y="150.9658">PeerB</text><text fill="#000000" font-family="Verdana" font-size="14" lengthAdjust="spacing" textLength="72.8643" x="1100.3555" y="167.9805">(Receiver)</text><ellipse cx="1139.7876" cy="84.8906" fill="#87CEEB" rx="8" ry="8" style="stroke:#2C5F77;stroke-width:1;"/><path d="M1139.7876,92.8906 L1139.7876,119.8906 M1126.7876,100.8906 L1152.7876,100.8906 M1139.7876,119.8906 L1126.7876,134.8906 M1139.7876,119.8906 L1152.7876,134.8906" fill="none" style="stroke:#2C5F77;stroke-width:1;"/></g><g class="participant participant-tail" data-participant="PeerB"><text fill="#000000" font-family="Verdana" font-size="14" lengthAdjust="spacing" textLength="40.6943" x="1116.4404" y="1756.9575">PeerB</text><text fill="#000000" font-family="Verdana" font-size="14" lengthAdjust="spacing" textLength="72.8643" x="1100.3555" y="1773.9722">(Receiver)</text><ellipse cx="1139.7876" cy="1785.9116" fill="#87CEEB" rx="8" ry="8" style="stroke:#2C5F77;stroke-width:1;"/><path d="M1139.7876,1793.9116 L1139.7876,1820.9116 M1126.7876,1801.9116 L1152.7876,1801.9116 M1139.7876,1820.9116 L1126.7876,1835.9116 M1139.7876,1820.9116 L1152.7876,1835.9116" fill="none" style="stroke:#2C5F77;stroke-width:1;"/></g><g><title>ETest0</title><rect fill="#FFFFFF" height="696.9829" style="stroke:#2C5F77;stroke-width:1;" width="10" x="270.5542" y="246.5186"/></g><g><title>ETest0</title><rect fill="#FFFFFF" height="512.5884" style="stroke:#2C5F77;stroke-width:1;" width="10" x="270.5542" y="1114.2974"/></g><g><title>Header</title><rect fill="#FFFFFF" height="30" style="stroke:#2C5F77;stroke-width:1;" width="10" x="547.4238" y="585.709"/></g><g><title>Header</title><rect fill="#FFFFFF" height="30" style="stroke:#2C5F77;stroke-width:1;" width="10" x="547.4238" y="1186.896"/></g><g><title>Nested</title><rect fill="#FFFFFF" height="59.5986" style="stroke:#2C5F77;stroke-width:1;" width="10" x="642.6079" y="276.3179"/></g><g><title>Nested</title><rect fill="#FFFFFF" height="29.7993" style="stroke:#2C5F77;stroke-width:1;" width="10" x="642.6079" y="1345.6919"/></g><g><title>Nested</title><rect fill="#FFFFFF" height="29.7993" style="stroke:#2C5F77;stroke-width:1;" width="10" x="642.6079" y="1405.2905"/></g><g><title>MapEntity</title><rect fill="#FFFFFF" height="59.5986" style="stroke:#2C5F77;stroke-width:1;" width="10" x="747.54" y="365.7158"/></g><g><title>MapEntity</title><rect fill="#FFFFFF" height="29.7993" style="stroke:#2C5F77;stroke-width:1;" width="10" x="747.54" y="1464.8892"/></g><g><title>MapEntity</title><rect fill="#FFFFFF" height="29.7993" style="stroke:#2C5F77;stroke-width:1;" width="10" x="747.54" y="1524.4878"/></g><g><title>Buffer</title><rect fill="#FFFFFF" height="268.1938" style="stroke:#2C5F77;stroke-width:1;" width="10" x="847.7485" y="645.5083"/></g><g><title>Bridge</title><rect fill="#FFFFFF" height="92.3979" style="stroke:#2C5F77;stroke-width:1;" width="10" x="934.5278" y="992.1001"/></g><rect fill="#FFFFFF" height="3" style="stroke:#FFFFFF;stroke-width:1;" width="1179.2197" x="5" y="201.8196"/><line style="stroke:#000000;stroke-width:0.5;" x1="5" x2="1184.2197" y1="201.8196" y2="201.8196"/><line style="stroke:#000000;stroke-width:0.5;" x1="5" x2="1184.2197" y1="204.8196" y2="204.8196"/><rect fill="#FFFFFF" height="23.7993" style="stroke:#000000;stroke-width:1;" width="219.9624" x="484.6287" y="190.9199"/><text fill="#000000" font-family="Verdana" font-size="13" font-weight="bold" lengthAdjust="spacing" textLength="201.519" x="490.6287" y="207.9897">Serialization Phase (PeerA)</text><g class="message" data-participant-1="PeerA" data-participant-2="entity"><polygon fill="#2C5F77" points="258.5542,242.5186,268.5542,246.5186,258.5542,250.5186,262.5542,246.5186" style="stroke:#2C5F77;stroke-width:1;"/><line style="stroke:#2C5F77;stroke-width:1;" x1="44.2607" x2="264.5542" y1="246.5186" y2="246.5186"/><text fill="#000000" font-family="Verdana" font-size="13" lengthAdjust="spacing" textLength="68.5166" x="51.2607" y="241.7891">to_bytes()</text></g><g class="message" data-participant-1="entity" data-participant-2="nested"><polygon fill="#2C5F77" points="630.6079,272.3179,640.6079,276.3179,630.6079,280.3179,634.6079,276.3179" style="stroke:#2C5F77;stroke-width:1;"/><line style="stroke:#2C5F77;stroke-width:1;" x1="280.5542" x2="636.6079" y1="276.3179" y2="276.3179"/><text fill="#000000" font-family="Verdana" font-size="13" lengthAdjust="spacing" textLength="155.981" x="287.5542" y="271.5884">Serialize nested entities</text></g><g class="message" data-participant-1="nested" data-participant-2="entity"><polygon fill="#2C5F77" points="291.5542,302.1172,281.5542,306.1172,291.5542,310.1172,287.5542,306.1172" style="stroke:#2C5F77;stroke-width:1;"/><line style="stroke:#2C5F77;stroke-width:1;stroke-dasharray:2.0,2.0;" x1="285.5542" x2="641.6079" y1="306.1172" y2="306.1172"/><text fill="#000000" font-family="Verdana" font-size="13" lengthAdjust="spacing" textLength="166.9878" x="297.5542" y="301.3877">Vec&lt;u8&gt; (entity1_bytes)</text></g><g class="message" data-participant-1="nested" data-participant-2="entity"><polygon fill="#2C5F77" points="291.5542,331.9165,281.5542,335.9165,291.5542,339.9165,287.5542,335.9165" style="stroke:#2C5F77;stroke-width:1;"/><line style="stroke:#2C5F77;stroke-width:1;stroke-dasharray:2.0,2.0;" x1="285.5542" x2="646.6079" y1="335.9165" y2="335.9165"/><text fill="#000000" font-family="Verdana" font-size="13" lengthAdjust="spacing" textLength="166.9878" x="297.5542" y="331.187">Vec&lt;u8&gt; (entity2_bytes)</text></g><g class="message" data-participant-1="entity" data-participant-2="map"><polygon fill="#2C5F77" points="735.54,361.7158,745.54,365.7158,735.54,369.7158,739.54,365.7158" style="stroke:#2C5F77;stroke-width:1;"/><line style="stroke:#2C5F77;stroke-width:1;" x1="280.5542" x2="741.54" y1="365.7158" y2="365.7158"/><text fill="#000000" font-family="Verdana" font-size="13" lengthAdjust="spacing" textLength="95.1577" x="287.5542" y="360.9863">Serialize maps</text></g><g class="message" data-participant-1="map" data-participant-2="entity"><polygon fill="#2C5F77" points="291.5542,391.5151,281.5542,395.5151,291.5542,399.5151,287.5542,395.5151" style="stroke:#2C5F77;stroke-width:1;"/><line style="stroke:#2C5F77;stroke-width:1;stroke-dasharray:2.0,2.0;" x1="285.5542" x2="746.54" y1="395.5151" y2="395.5151"/><text fill="#000000" font-family="Verdana" font-size="13" lengthAdjust="spacing" textLength="158.063" x="297.5542" y="390.7856">Vec&lt;u8&gt; (map0_bytes)</text></g><g class="message" data-participant-1="map" data-participant-2="entity"><polygon fill="#2C5F77" points="291.5542,421.3145,281.5542,425.3145,291.5542,429.3145,287.5542,425.3145" style="stroke:#2C5F77;stroke-width:1;"/><line style="stroke:#2C5F77;stroke-width:1;stroke-dasharray:2.0,2.0;" x1="285.5542" x2="751.54" y1="425.3145" y2="425.3145"/><text fill="#000000" font-family="Verdana" font-size="13" lengthAdjust="spacing" textLength="158.063" x="297.5542" y="420.585">Vec&lt;u8&gt; (map1_bytes)</text></g><g class="message" data-participant-1="entity" data-participant-2="entity"><line style="stroke:#2C5F77;stroke-width:1;" x1="280.5542" x2="322.5542" y1="499.0117" y2="499.0117"/><line style="stroke:#2C5F77;stroke-width:1;" x1="322.5542" x2="322.5542" y1="499.0117" y2="512.0117"/><line style="stroke:#2C5F77;stroke-width:1;" x1="281.5542" x2="322.5542" y1="512.0117" y2="512.0117"/><polygon fill="#2C5F77" points="291.5542,508.0117,281.5542,512.0117,291.5542,516.0117,287.5542,512.0117" style="stroke:#2C5F77;stroke-width:1;"/><text fill="#000000" font-family="Verdana" font-size="13" lengthAdjust="spacing" textLength="123.2588" x="287.5542" y="494.2822">Calculate total size</text></g><path d="M432.2588,438.3145 L432.2588,558.3145 L629.2588,558.3145 L629.2588,448.3145 L619.2588,438.3145 L432.2588,438.3145" fill="#FFFFFF" style="stroke:#000000;stroke-width:1;"/><path d="M619.2588,438.3145 L619.2588,448.3145 L629.2588,448.3145 L619.2588,438.3145" fill="#FFFFFF" style="stroke:#000000;stroke-width:1;"/><text fill="#000000" font-family="Verdana" font-size="13" lengthAdjust="spacing" textLength="176.3696" x="438.2588" y="456.3843">total_size = HEADER_SIZE</text><text fill="#000000" font-family="Verdana" font-size="13" lengthAdjust="spacing" textLength="88.7529" x="456.54" y="472.1836">+ entity1_len</text><text fill="#000000" font-family="Verdana" font-size="13" lengthAdjust="spacing" textLength="88.7529" x="456.54" y="487.9829">+ entity2_len</text><text fill="#000000" font-family="Verdana" font-size="13" lengthAdjust="spacing" textLength="79.8281" x="456.54" y="503.7822">+ map0_len</text><text fill="#000000" font-family="Verdana" font-size="13" lengthAdjust="spacing" textLength="79.8281" x="456.54" y="519.5815">+ map1_len</text><text fill="#000000" font-family="Verdana" font-size="13" lengthAdjust="spacing" textLength="80.3486" x="456.54" y="535.3809">+ string_len</text><text fill="#000000" font-family="Verdana" font-size="13" lengthAdjust="spacing" textLength="29.396" x="456.54" y="551.1802">+ ...</text><g class="message" data-participant-1="entity" data-participant-2="header"><polygon fill="#2C5F77" points="535.4238,581.709,545.4238,585.709,535.4238,589.709,539.4238,585.709" style="stroke:#2C5F77;stroke-width:1;"/><line style="stroke:#2C5F77;stroke-width:1;" x1="280.5542" x2="541.4238" y1="585.709" y2="585.709"/><text fill="#000000" font-family="Verdana" font-size="13" lengthAdjust="spacing" textLength="130.8379" x="287.5542" y="580.9795">Update length fields</text></g><g class="message" data-participant-1="entity" data-participant-2="buffer"><polygon fill="#2C5F77" points="835.7485,641.5083,845.7485,645.5083,835.7485,649.5083,839.7485,645.5083" style="stroke:#2C5F77;stroke-width:1;"/><line style="stroke:#2C5F77;stroke-width:1;" x1="280.5542" x2="841.7485" y1="645.5083" y2="645.5083"/><text fill="#000000" font-family="Verdana" font-size="13" lengthAdjust="spacing" textLength="191.5977" x="287.5542" y="640.7788">Allocate Vec&lt;u8&gt;(total_size)</text></g><g class="message" data-participant-1="entity" data-participant-2="buffer"><polygon fill="#2C5F77" points="835.7485,671.3076,845.7485,675.3076,835.7485,679.3076,839.7485,675.3076" style="stroke:#2C5F77;stroke-width:1;"/><line style="stroke:#2C5F77;stroke-width:1;" x1="280.5542" x2="841.7485" y1="675.3076" y2="675.3076"/><text fill="#000000" font-family="Verdana" font-size="13" lengthAdjust="spacing" textLength="151.4932" x="287.5542" y="670.5781">Write version (8 bytes)</text></g><g class="message" data-participant-1="entity" data-participant-2="header"><polygon fill="#2C5F77" points="540.4238,701.1069,550.4238,705.1069,540.4238,709.1069,544.4238,705.1069" style="stroke:#2C5F77;stroke-width:1;"/><line style="stroke:#2C5F77;stroke-width:1;" x1="280.5542" x2="546.4238" y1="705.1069" y2="705.1069"/><text fill="#000000" font-family="Verdana" font-size="13" lengthAdjust="spacing" textLength="70.0845" x="287.5542" y="700.3774">as_bytes()</text></g><g class="message" data-participant-1="entity" data-participant-2="buffer"><polygon fill="#2C5F77" points="835.7485,730.9063,845.7485,734.9063,835.7485,738.9063,839.7485,734.9063" style="stroke:#2C5F77;stroke-width:1;"/><line style="stroke:#2C5F77;stroke-width:1;" x1="280.5542" x2="841.7485" y1="734.9063" y2="734.9063"/><text fill="#000000" font-family="Verdana" font-size="13" lengthAdjust="spacing" textLength="124.5791" x="287.5542" y="730.1768">Write header bytes</text></g><g class="message" data-participant-1="entity" data-participant-2="buffer"><polygon fill="#2C5F77" points="835.7485,760.7056,845.7485,764.7056,835.7485,768.7056,839.7485,764.7056" style="stroke:#2C5F77;stroke-width:1;"/><line style="stroke:#2C5F77;stroke-width:1;" x1="280.5542" x2="841.7485" y1="764.7056" y2="764.7056"/><text fill="#000000" font-family="Verdana" font-size="13" lengthAdjust="spacing" textLength="128.8447" x="287.5542" y="759.9761">Write entity1_bytes</text></g><g class="message" data-participant-1="entity" data-participant-2="buffer"><polygon fill="#2C5F77" points="835.7485,790.5049,845.7485,794.5049,835.7485,798.5049,839.7485,794.5049" style="stroke:#2C5F77;stroke-width:1;"/><line style="stroke:#2C5F77;stroke-width:1;" x1="280.5542" x2="841.7485" y1="794.5049" y2="794.5049"/><text fill="#000000" font-family="Verdana" font-size="13" lengthAdjust="spacing" textLength="128.8447" x="287.5542" y="789.7754">Write entity2_bytes</text></g><g class="message" data-participant-1="entity" data-participant-2="buffer"><polygon fill="#2C5F77" points="835.7485,820.3042,845.7485,824.3042,835.7485,828.3042,839.7485,824.3042" style="stroke:#2C5F77;stroke-width:1;"/><line style="stroke:#2C5F77;stroke-width:1;" x1="280.5542" x2="841.7485" y1="824.3042" y2="824.3042"/><text fill="#000000" font-family="Verdana" font-size="13" lengthAdjust="spacing" textLength="119.9199" x="287.5542" y="819.5747">Write map0_bytes</text></g><g class="message" data-participant-1="entity" data-participant-2="buffer"><polygon fill="#2C5F77" points="835.7485,850.1035,845.7485,854.1035,835.7485,858.1035,839.7485,854.1035" style="stroke:#2C5F77;stroke-width:1;"/><line style="stroke:#2C5F77;stroke-width:1;" x1="280.5542" x2="841.7485" y1="854.1035" y2="854.1035"/><text fill="#000000" font-family="Verdana" font-size="13" lengthAdjust="spacing" textLength="119.9199" x="287.5542" y="849.374">Write map1_bytes</text></g><g class="message" data-participant-1="entity" data-participant-2="buffer"><polygon fill="#2C5F77" points="835.7485,879.9028,845.7485,883.9028,835.7485,887.9028,839.7485,883.9028" style="stroke:#2C5F77;stroke-width:1;"/><line style="stroke:#2C5F77;stroke-width:1;" x1="280.5542" x2="841.7485" y1="883.9028" y2="883.9028"/><text fill="#000000" font-family="Verdana" font-size="13" lengthAdjust="spacing" textLength="83.5161" x="287.5542" y="879.1733">Write strings</text></g><g class="message" data-participant-1="buffer" data-participant-2="entity"><polygon fill="#2C5F77" points="291.5542,909.7021,281.5542,913.7021,291.5542,917.7021,287.5542,913.7021" style="stroke:#2C5F77;stroke-width:1;"/><line style="stroke:#2C5F77;stroke-width:1;stroke-dasharray:2.0,2.0;" x1="285.5542" x2="851.7485" y1="913.7021" y2="913.7021"/><text fill="#000000" font-family="Verdana" font-size="13" lengthAdjust="spacing" textLength="134.0942" x="297.5542" y="908.9727">Complete byte array</text></g><g class="message" data-participant-1="entity" data-participant-2="PeerA"><polygon fill="#2C5F77" points="55.2607,939.5015,45.2607,943.5015,55.2607,947.5015,51.2607,943.5015" style="stroke:#2C5F77;stroke-width:1;"/><line style="stroke:#2C5F77;stroke-width:1;stroke-dasharray:2.0,2.0;" x1="49.2607" x2="274.5542" y1="943.5015" y2="943.5015"/><text fill="#000000" font-family="Verdana" font-size="13" lengthAdjust="spacing" textLength="202.2935" x="61.2607" y="938.772">Result&lt;Vec&lt;u8&gt;, EnumError&gt;</text></g><g class="message" data-participant-1="PeerA" data-participant-2="bridge"><polygon fill="#2C5F77" points="922.5278,988.1001,932.5278,992.1001,922.5278,996.1001,926.5278,992.1001" style="stroke:#2C5F77;stroke-width:1;"/><line style="stroke:#2C5F77;stroke-width:1;" x1="44.2607" x2="928.5278" y1="992.1001" y2="992.1001"/><text fill="#000000" font-family="Verdana" font-size="13" lengthAdjust="spacing" textLength="136.2715" x="51.2607" y="987.3706">Send bytes to bridge</text></g><path d="M949,956.5015 L949,1013.5015 L1147,1013.5015 L1147,966.5015 L1137,956.5015 L949,956.5015" fill="#FFFFFF" style="stroke:#000000;stroke-width:1;"/><path d="M1137,956.5015 L1137,966.5015 L1147,966.5015 L1137,956.5015" fill="#FFFFFF" style="stroke:#000000;stroke-width:1;"/><text fill="#000000" font-family="Verdana" font-size="13" font-weight="bold" lengthAdjust="spacing" textLength="177.0234" x="955" y="974.5713">Bridge Channel Transfer</text><text fill="#000000" font-family="Verdana" font-size="13" lengthAdjust="spacing" textLength="112.9375" x="955" y="990.3706">Size: 176+ bytes</text><text fill="#000000" font-family="Verdana" font-size="13" lengthAdjust="spacing" textLength="131.752" x="955" y="1006.1699">Universal ID routing</text><rect fill="#FFFFFF" height="3" style="stroke:#FFFFFF;stroke-width:1;" width="1179.2197" x="5" y="1039.7991"/><line style="stroke:#000000;stroke-width:0.5;" x1="5" x2="1184.2197" y1="1039.7991" y2="1039.7991"/><line style="stroke:#000000;stroke-width:0.5;" x1="5" x2="1184.2197" y1="1042.7991" y2="1042.7991"/><rect fill="#FFFFFF" height="23.7993" style="stroke:#000000;stroke-width:1;" width="237.6724" x="475.7737" y="1028.8994"/><text fill="#000000" font-family="Verdana" font-size="13" font-weight="bold" lengthAdjust="spacing" textLength="219.229" x="481.7737" y="1045.9692">Deserialization Phase (PeerB)</text><g class="message" data-participant-1="bridge" data-participant-2="PeerB"><polygon fill="#2C5F77" points="1127.7876,1080.498,1137.7876,1084.498,1127.7876,1088.498,1131.7876,1084.498" style="stroke:#2C5F77;stroke-width:1;"/><line style="stroke:#2C5F77;stroke-width:1;" x1="939.5278" x2="1133.7876" y1="1084.498" y2="1084.498"/><text fill="#000000" font-family="Verdana" font-size="13" lengthAdjust="spacing" textLength="171.2598" x="946.5278" y="1079.7686">Receive bytes from bridge</text></g><g class="message" data-participant-1="PeerB" data-participant-2="entity"><polygon fill="#2C5F77" points="291.5542,1110.2974,281.5542,1114.2974,291.5542,1118.2974,287.5542,1114.2974" style="stroke:#2C5F77;stroke-width:1;"/><line style="stroke:#2C5F77;stroke-width:1;" x1="285.5542" x2="1138.7876" y1="1114.2974" y2="1114.2974"/><text fill="#000000" font-family="Verdana" font-size="13" lengthAdjust="spacing" textLength="114.9941" x="297.5542" y="1109.5679">from_bytes(data)</text></g><g class="message" data-participant-1="entity" data-participant-2="entity"><line style="stroke:#2C5F77;stroke-width:1;" x1="280.5542" x2="322.5542" y1="1144.0967" y2="1144.0967"/><line style="stroke:#2C5F77;stroke-width:1;" x1="322.5542" x2="322.5542" y1="1144.0967" y2="1157.0967"/><line style="stroke:#2C5F77;stroke-width:1;" x1="281.5542" x2="322.5542" y1="1157.0967" y2="1157.0967"/><polygon fill="#2C5F77" points="291.5542,1153.0967,281.5542,1157.0967,291.5542,1161.0967,287.5542,1157.0967" style="stroke:#2C5F77;stroke-width:1;"/><text fill="#000000" font-family="Verdana" font-size="13" lengthAdjust="spacing" textLength="218.2134" x="287.5542" y="1139.3672">Validate size (&gt;= HEADER_SIZE)</text></g><g class="message" data-participant-1="entity" data-participant-2="header"><polygon fill="#2C5F77" points="535.4238,1182.896,545.4238,1186.896,535.4238,1190.896,539.4238,1186.896" style="stroke:#2C5F77;stroke-width:1;"/><line style="stroke:#2C5F77;stroke-width:1;" x1="280.5542" x2="541.4238" y1="1186.896" y2="1186.896"/><text fill="#000000" font-family="Verdana" font-size="13" lengthAdjust="spacing" textLength="247.8696" x="287.5542" y="1182.1665">from_bytes(&amp;data[0..HEADER_SIZE])</text></g><g class="message" data-participant-1="entity" data-participant-2="entity"><line style="stroke:#2C5F77;stroke-width:1;" x1="280.5542" x2="322.5542" y1="1274.7939" y2="1274.7939"/><line style="stroke:#2C5F77;stroke-width:1;" x1="322.5542" x2="322.5542" y1="1274.7939" y2="1287.7939"/><line style="stroke:#2C5F77;stroke-width:1;" x1="281.5542" x2="322.5542" y1="1287.7939" y2="1287.7939"/><polygon fill="#2C5F77" points="291.5542,1283.7939,281.5542,1287.7939,291.5542,1291.7939,287.5542,1287.7939" style="stroke:#2C5F77;stroke-width:1;"/><text fill="#000000" font-family="Verdana" font-size="13" lengthAdjust="spacing" textLength="195.2603" x="287.5542" y="1270.0645">Calculate offsets from lengths</text></g><path d="M504.2603,1229.896 L504.2603,1317.896 L675.2603,1317.896 L675.2603,1239.896 L665.2603,1229.896 L504.2603,1229.896" fill="#FFFFFF" style="stroke:#000000;stroke-width:1;"/><path d="M665.2603,1229.896 L665.2603,1239.896 L675.2603,1239.896 L665.2603,1229.896" fill="#FFFFFF" style="stroke:#000000;stroke-width:1;"/><text fill="#000000" font-family="Verdana" font-size="13" lengthAdjust="spacing" textLength="150.3506" x="510.2603" y="1247.9658">offset = HEADER_SIZE</text><text fill="#000000" font-family="Verdana" font-size="13" lengthAdjust="spacing" textLength="147.126" x="510.2603" y="1263.7651">entity1_offset = offset</text><text fill="#000000" font-family="Verdana" font-size="13" lengthAdjust="spacing" textLength="140.6323" x="510.2603" y="1279.5645">offset += entity1_len</text><text fill="#000000" font-family="Verdana" font-size="13" lengthAdjust="spacing" textLength="147.126" x="510.2603" y="1295.3638">entity2_offset = offset</text><text fill="#000000" font-family="Verdana" font-size="13" lengthAdjust="spacing" textLength="14.187" x="510.2603" y="1311.1631">...</text><g class="message" data-participant-1="entity" data-participant-2="nested"><polygon fill="#2C5F77" points="630.6079,1341.6919,640.6079,1345.6919,630.6079,1349.6919,634.6079,1345.6919" style="stroke:#2C5F77;stroke-width:1;"/><line style="stroke:#2C5F77;stroke-width:1;" x1="280.5542" x2="636.6079" y1="1345.6919" y2="1345.6919"/><text fill="#000000" font-family="Verdana" font-size="13" lengthAdjust="spacing" textLength="236.3804" x="287.5542" y="1340.9624">from_bytes(&amp;data[entity1_offset..])</text></g><g class="message" data-participant-1="nested" data-participant-2="entity"><polygon fill="#2C5F77" points="291.5542,1371.4912,281.5542,1375.4912,291.5542,1379.4912,287.5542,1375.4912" style="stroke:#2C5F77;stroke-width:1;"/><line style="stroke:#2C5F77;stroke-width:1;stroke-dasharray:2.0,2.0;" x1="285.5542" x2="646.6079" y1="1375.4912" y2="1375.4912"/><text fill="#000000" font-family="Verdana" font-size="13" lengthAdjust="spacing" textLength="151.0361" x="297.5542" y="1370.7617">Option&lt;Arc&lt;ETest1&gt;&gt;</text></g><g class="message" data-participant-1="entity" data-participant-2="nested"><polygon fill="#2C5F77" points="630.6079,1401.2905,640.6079,1405.2905,630.6079,1409.2905,634.6079,1405.2905" style="stroke:#2C5F77;stroke-width:1;"/><line style="stroke:#2C5F77;stroke-width:1;" x1="280.5542" x2="636.6079" y1="1405.2905" y2="1405.2905"/><text fill="#000000" font-family="Verdana" font-size="13" lengthAdjust="spacing" textLength="236.3804" x="287.5542" y="1400.561">from_bytes(&amp;data[entity2_offset..])</text></g><g class="message" data-participant-1="nested" data-participant-2="entity"><polygon fill="#2C5F77" points="291.5542,1431.0898,281.5542,1435.0898,291.5542,1439.0898,287.5542,1435.0898" style="stroke:#2C5F77;stroke-width:1;"/><line style="stroke:#2C5F77;stroke-width:1;stroke-dasharray:2.0,2.0;" x1="285.5542" x2="646.6079" y1="1435.0898" y2="1435.0898"/><text fill="#000000" font-family="Verdana" font-size="13" lengthAdjust="spacing" textLength="151.0361" x="297.5542" y="1430.3604">Option&lt;Arc&lt;ETest2&gt;&gt;</text></g><g class="message" data-participant-1="entity" data-participant-2="map"><polygon fill="#2C5F77" points="735.54,1460.8892,745.54,1464.8892,735.54,1468.8892,739.54,1464.8892" style="stroke:#2C5F77;stroke-width:1;"/><line style="stroke:#2C5F77;stroke-width:1;" x1="280.5542" x2="741.54" y1="1464.8892" y2="1464.8892"/><text fill="#000000" font-family="Verdana" font-size="13" lengthAdjust="spacing" textLength="227.4556" x="287.5542" y="1460.1597">from_bytes(&amp;data[map0_offset..])</text></g><g class="message" data-participant-1="map" data-participant-2="entity"><polygon fill="#2C5F77" points="291.5542,1490.6885,281.5542,1494.6885,291.5542,1498.6885,287.5542,1494.6885" style="stroke:#2C5F77;stroke-width:1;"/><line style="stroke:#2C5F77;stroke-width:1;stroke-dasharray:2.0,2.0;" x1="285.5542" x2="751.54" y1="1494.6885" y2="1494.6885"/><text fill="#000000" font-family="Verdana" font-size="13" lengthAdjust="spacing" textLength="130.2285" x="297.5542" y="1489.959">MapEntity&lt;ETest1&gt;</text></g><g class="message" data-participant-1="entity" data-participant-2="map"><polygon fill="#2C5F77" points="735.54,1520.4878,745.54,1524.4878,735.54,1528.4878,739.54,1524.4878" style="stroke:#2C5F77;stroke-width:1;"/><line style="stroke:#2C5F77;stroke-width:1;" x1="280.5542" x2="741.54" y1="1524.4878" y2="1524.4878"/><text fill="#000000" font-family="Verdana" font-size="13" lengthAdjust="spacing" textLength="227.4556" x="287.5542" y="1519.7583">from_bytes(&amp;data[map1_offset..])</text></g><g class="message" data-participant-1="map" data-participant-2="entity"><polygon fill="#2C5F77" points="291.5542,1550.2871,281.5542,1554.2871,291.5542,1558.2871,287.5542,1554.2871" style="stroke:#2C5F77;stroke-width:1;"/><line style="stroke:#2C5F77;stroke-width:1;stroke-dasharray:2.0,2.0;" x1="285.5542" x2="751.54" y1="1554.2871" y2="1554.2871"/><text fill="#000000" font-family="Verdana" font-size="13" lengthAdjust="spacing" textLength="130.2285" x="297.5542" y="1549.5576">MapEntity&lt;ETest2&gt;</text></g><g class="message" data-participant-1="entity" data-participant-2="entity"><line style="stroke:#2C5F77;stroke-width:1;" x1="280.5542" x2="322.5542" y1="1584.0864" y2="1584.0864"/><line style="stroke:#2C5F77;stroke-width:1;" x1="322.5542" x2="322.5542" y1="1584.0864" y2="1597.0864"/><line style="stroke:#2C5F77;stroke-width:1;" x1="281.5542" x2="322.5542" y1="1597.0864" y2="1597.0864"/><polygon fill="#2C5F77" points="291.5542,1593.0864,281.5542,1597.0864,291.5542,1601.0864,287.5542,1597.0864" style="stroke:#2C5F77;stroke-width:1;"/><text fill="#000000" font-family="Verdana" font-size="13" lengthAdjust="spacing" textLength="170.2759" x="287.5542" y="1579.3569">Construct ETest0 instance</text></g><g class="message" data-participant-1="entity" data-participant-2="PeerB"><polygon fill="#2C5F77" points="1127.7876,1622.8857,1137.7876,1626.8857,1127.7876,1630.8857,1131.7876,1626.8857" style="stroke:#2C5F77;stroke-width:1;"/><line style="stroke:#2C5F77;stroke-width:1;stroke-dasharray:2.0,2.0;" x1="275.5542" x2="1133.7876" y1="1626.8857" y2="1626.8857"/><text fill="#000000" font-family="Verdana" font-size="13" lengthAdjust="spacing" textLength="185.2563" x="282.5542" y="1622.1563">Result&lt;ETest0, EnumError&gt;</text></g><path d="M10,1639.8857 L10,1727.8857 L1174,1727.8857 L1174,1649.8857 L1164,1639.8857 L10,1639.8857" fill="#FFFFFF" style="stroke:#000000;stroke-width:1;"/><path d="M1164,1639.8857 L1164,1649.8857 L1174,1649.8857 L1164,1639.8857" fill="#FFFFFF" style="stroke:#000000;stroke-width:1;"/><text fill="#000000" font-family="Verdana" font-size="13" font-weight="bold" lengthAdjust="spacing" textLength="166.645" x="447.2886" y="1657.9556">Bridge Layer Summary</text><text fill="#000000" font-family="Verdana" font-size="13" lengthAdjust="spacing" textLength="280.6426" x="447.2886" y="1673.7549">&#8226; Version verification ensures compatibility</text><text fill="#000000" font-family="Verdana" font-size="13" lengthAdjust="spacing" textLength="246.1494" x="447.2886" y="1689.5542">&#8226; Universal ID enables entity tracking</text><text fill="#000000" font-family="Verdana" font-size="13" lengthAdjust="spacing" textLength="160.6973" x="447.2886" y="1705.3535">&#8226; Zero-copy serialization</text><text fill="#000000" font-family="Verdana" font-size="13" lengthAdjust="spacing" textLength="179.937" x="447.2886" y="1721.1528">&#8226; Type-safe communication</text><text fill="#000000" font-family="Verdana" font-size="10" lengthAdjust="spacing" textLength="131.0645" x="1047.1553" y="20.0537">--&gt; entity : ETest0Header</text><!--SRC=[fLVhRjf85FxlfvYcKWMv843RX8q24YPc6ocxYI3jIcsgQ6AEmwXcx8x7wT9gfNsMVRHzaZrpiHc3WMYNN_YSxrpcNBwnNyavB82aCMNSUpM3Y74WLm6NJ2v7IPm8yhhzy-DfjrqgRuDWyZ1y6DrStqp8w_7OFnrrgag_KFREHa7Wbqf_SdNvIr0eewYDFmy3nK22wPHCGJ0Qi-zKieIJSPny8oV45sps1EIQBa6GKR9Ov9o56k5vsHV6KoheWcJmDGSU0ldX4VmDXKY-sUoxexVZipCZ3cKY_4JCG6mghra4rvZbDlqj5PA5BALS-ZJyyYIIdCyiBEYDVnhtDc0rdlxqFAgo80Ut069upnjJu8Xg7X2Q4Ish5DXBL_x8GN07cMnhAEWEbSsfmDu1HPSQDjT_ws6_eJEOtNFTR0QPDk1QM6_mAqtDO6ZaWgPLjPz7aGtxgFzws9GSKA5xUCz7Syevn0PX-kgEX5iP7oipWH3OiriRlp9VdjVlhmtDxPncG1gwZatIxtkUAUd9e2ZOEP79m-DIGjPege3icKgmIi-p88JREfoN0Q0GWItNojeeFAi_SODzWF0Yxmr8mqWw9dJp9TXkWPt1UYGdJ-n29KbyTZ9JFLA8-ZYeQHT1Tg8wDQaerquUfTs8nc4UAuHC98r9XbbvFC5dmPxcKY-9rZme3UcJTy7m4fiwlVeOQANw7P6YNZ7m3MbtJQhFiI5QjysaOFnfJTXgjV0GCw8IT8zZz-QSl4zdwYnezIJd968Gpvpw6fXdqQxT5AHxXcCtTNoGOSijflNZ960s21qDupW95SOsfB4gdZF0Tk7g7Fmk609mZpAr8OqUiRsiEIpDojKeZkIszisdlFTvUmXheZtioAIo2VjWtNsmrGplnEmDPwO3yxRooi7ntabZK6L69uGAGPTkzzQBZwQ6Tix91B8ybXUsTySauFaYmDj935m71VsKP6NPKOqH3gTE7PV6Yfskc-UrxJeyj9UcvLjo9oZFCCF3GwsVukYSayxPwP7jbHA-vufgCrpOgqk2Tvl4QZYRWKnx2TashlKDrzgixV5zVNnDuVO4aKWMHSvk-Op4CqPktPM1dKZSGhgJi5V4XIdgdTNyqXXK6APPk-HEd3SgqATsg-KOVMw-PEC_O7MYPR5eTOW9_Z55I0M-4Vr16jz192TXaYxh5yxSz-OwtqqNDVIRH546qbRTy5UsFYe6KqF2nPAM0FF7DJhgRv1qiRDrLjkOjhneDvfGpQ7LSjkmuygzITLuNWn5UA7hrnaCTb-X-pBe_jyCklioC9VuHdZDRNMnQw_ryksiEFQEstfxmCv_3jWTlEZr8E58jNaexN0JXiyKNzqtwDDVqQU1xcDFFTi9xfzXtsFZfKg9vZjYcYyML2mj7_xprzzgUVNr-AoMs7vWeECi5yXR8T8_IXvPhE8K9XN614uVOoXVowN0JmJ5e0NuOx7ef4AYfVvkcS99HYDGmPnld79Z_WK0]--></g></svg>