<svg xmlns="http://www.w3.org/2000/svg" xmlns:xlink="http://www.w3.org/1999/xlink" contentStyleType="text/css" data-diagram-type="CLASS" height="836px" preserveAspectRatio="none" style="width:1107px;height:836px;" version="1.1" viewBox="0 0 1107 836" width="1107px" zoomAndPan="magnify"><defs/><g><!--class IEvo--><g class="entity" data-entity="IEvo" data-source-line="19" data-uid="ent0002" id="entity_IEvo"><rect fill="#F1F1F1" height="86.1358" rx="2.5" ry="2.5" style="stroke:#181818;stroke-width:0.5;" width="255.4451" x="394.48" y="7"/><ellipse cx="504.8766" cy="23" fill="#FFFFFF" rx="11" ry="11" style="stroke:#181818;stroke-width:1;"/><path d="M500.7985,18.7656 L500.7985,16.6094 L508.1891,16.6094 L508.1891,18.7656 L505.7203,18.7656 L505.7203,26.8438 L508.1891,26.8438 L508.1891,29 L500.7985,29 L500.7985,26.8438 L503.2672,26.8438 L503.2672,18.7656 L500.7985,18.7656 Z " fill="#000000"/><text fill="#000000" font-family="sans-serif" font-size="14" font-style="italic" lengthAdjust="spacing" textLength="26.1519" x="525.3766" y="28.432">IEvo</text><line style="stroke:#181818;stroke-width:0.5;" x1="395.48" x2="648.9251" y1="39" y2="39"/><line style="stroke:#181818;stroke-width:0.5;" x1="395.48" x2="648.9251" y1="47" y2="47"/><ellipse cx="405.48" cy="62.034" fill="#84BE84" rx="3" ry="3" style="stroke:#038048;stroke-width:1;"/><text fill="#000000" font-family="sans-serif" font-size="14" lengthAdjust="spacing" text-decoration="underline" textLength="201.6692" x="414.48" y="65.9659">evo_version() : TypeEvoVersion</text><ellipse cx="405.48" cy="81.1019" fill="#84BE84" rx="3" ry="3" style="stroke:#038048;stroke-width:1;"/><text fill="#000000" font-family="sans-serif" font-size="14" lengthAdjust="spacing" textLength="229.4451" x="414.48" y="85.0339">get_evo_version() : TypeEvoVersion</text></g><!--class ID--><g class="entity" data-entity="ID" data-source-line="24" data-uid="ent0003" id="entity_ID"><rect fill="#F1F1F1" height="86.1358" rx="2.5" ry="2.5" style="stroke:#181818;stroke-width:0.5;" width="138.5036" x="232.48" y="153"/><ellipse cx="270.9634" cy="169" fill="#FFFFFF" rx="11" ry="11" style="stroke:#181818;stroke-width:1;"/><path d="M266.8853,164.7656 L266.8853,162.6094 L274.2759,162.6094 L274.2759,164.7656 L271.8072,164.7656 L271.8072,172.8438 L274.2759,172.8438 L274.2759,175 L266.8853,175 L266.8853,172.8438 L269.354,172.8438 L269.354,164.7656 L266.8853,164.7656 Z " fill="#000000"/><text fill="#000000" font-family="sans-serif" font-size="14" font-style="italic" lengthAdjust="spacing" textLength="13.8739" x="290.182" y="174.432">ID</text><rect fill="#FFFFFF" height="18.3441" style="stroke:#181818;stroke-width:1;stroke-dasharray:2.0,2.0;" width="38.4442" x="335.5393" y="150"/><text fill="#000000" font-family="sans-serif" font-size="12" font-style="italic" lengthAdjust="spacing" textLength="36.4442" x="336.5393" y="163.8281">TypeID</text><line style="stroke:#181818;stroke-width:0.5;" x1="233.48" x2="369.9836" y1="185" y2="185"/><line style="stroke:#181818;stroke-width:0.5;" x1="233.48" x2="369.9836" y1="193" y2="193"/><ellipse cx="243.48" cy="208.034" fill="#84BE84" rx="3" ry="3" style="stroke:#038048;stroke-width:1;"/><text fill="#000000" font-family="sans-serif" font-size="14" lengthAdjust="spacing" textLength="105.8256" x="252.48" y="211.9659">get_id() : TypeID</text><ellipse cx="243.48" cy="227.1019" fill="#84BE84" rx="3" ry="3" style="stroke:#038048;stroke-width:1;"/><text fill="#000000" font-family="sans-serif" font-size="14" lengthAdjust="spacing" textLength="112.5036" x="252.48" y="231.0339">set_id(id: TypeID)</text></g><!--class ITime--><g class="entity" data-entity="ITime" data-source-line="29" data-uid="ent0004" id="entity_ITime"><rect fill="#F1F1F1" height="86.1358" rx="2.5" ry="2.5" style="stroke:#181818;stroke-width:0.5;" width="190.7793" x="601.48" y="153"/><ellipse cx="675.4207" cy="169" fill="#FFFFFF" rx="11" ry="11" style="stroke:#181818;stroke-width:1;"/><path d="M671.3426,164.7656 L671.3426,162.6094 L678.7332,162.6094 L678.7332,164.7656 L676.2645,164.7656 L676.2645,172.8438 L678.7332,172.8438 L678.7332,175 L671.3426,175 L671.3426,172.8438 L673.8114,172.8438 L673.8114,164.7656 L671.3426,164.7656 Z " fill="#000000"/><text fill="#000000" font-family="sans-serif" font-size="14" font-style="italic" lengthAdjust="spacing" textLength="34.3979" x="695.9207" y="174.432">ITime</text><line style="stroke:#181818;stroke-width:0.5;" x1="602.48" x2="791.2593" y1="185" y2="185"/><line style="stroke:#181818;stroke-width:0.5;" x1="602.48" x2="791.2593" y1="193" y2="193"/><ellipse cx="612.48" cy="208.034" fill="#84BE84" rx="3" ry="3" style="stroke:#038048;stroke-width:1;"/><text fill="#000000" font-family="sans-serif" font-size="14" lengthAdjust="spacing" textLength="140.6714" x="621.48" y="211.9659">get_time() : TypeTime</text><ellipse cx="612.48" cy="227.1019" fill="#84BE84" rx="3" ry="3" style="stroke:#038048;stroke-width:1;"/><text fill="#000000" font-family="sans-serif" font-size="14" lengthAdjust="spacing" textLength="164.7793" x="621.48" y="231.0339">set_time(time: TypeTime)</text></g><!--class IEntity--><g class="entity" data-entity="IEntity" data-source-line="33" data-uid="ent0005" id="entity_IEntity"><rect fill="#09B620" height="105.2038" rx="2.5" ry="2.5" style="stroke:#181818;stroke-width:0.5;" width="238.2952" x="577.98" y="299"/><ellipse cx="653.0135" cy="315" fill="#09B620" rx="11" ry="11" style="stroke:#181818;stroke-width:1;"/><path d="M648.9354,310.7656 L648.9354,308.6094 L656.326,308.6094 L656.326,310.7656 L653.8573,310.7656 L653.8573,318.8438 L656.326,318.8438 L656.326,321 L648.9354,321 L648.9354,318.8438 L651.4042,318.8438 L651.4042,310.7656 L648.9354,310.7656 Z " fill="#000000"/><text fill="#000000" font-family="sans-serif" font-size="14" font-style="italic" lengthAdjust="spacing" textLength="39.2838" x="673.5135" y="320.432">IEntity</text><rect fill="#FFFFFF" height="18.3441" style="stroke:#181818;stroke-width:1;stroke-dasharray:2.0,2.0;" width="38.4442" x="780.8309" y="296"/><text fill="#000000" font-family="sans-serif" font-size="12" font-style="italic" lengthAdjust="spacing" textLength="36.4442" x="781.8309" y="309.8281">TypeID</text><line style="stroke:#181818;stroke-width:0.5;" x1="578.98" x2="815.2752" y1="331" y2="331"/><line style="stroke:#181818;stroke-width:0.5;" x1="578.98" x2="815.2752" y1="339" y2="339"/><ellipse cx="588.98" cy="354.034" fill="#84BE84" rx="3" ry="3" style="stroke:#038048;stroke-width:1;"/><text fill="#000000" font-family="sans-serif" font-size="14" lengthAdjust="spacing" textLength="114.8555" x="597.98" y="357.9659">to_bytes() : BYTES</text><ellipse cx="588.98" cy="373.1019" fill="#84BE84" rx="3" ry="3" style="stroke:#038048;stroke-width:1;"/><text fill="#000000" font-family="sans-serif" font-size="14" lengthAdjust="spacing" textLength="212.2952" x="597.98" y="377.0339">from_bytes(data: BYTES) : IEntity</text><ellipse cx="588.98" cy="392.1698" fill="#84BE84" rx="3" ry="3" style="stroke:#038048;stroke-width:1;"/><text fill="#000000" font-family="sans-serif" font-size="14" lengthAdjust="spacing" textLength="127.3435" x="597.98" y="396.1018">to_string() : STRING</text></g><!--class IControl--><g class="entity" data-entity="IControl" data-source-line="40" data-uid="ent0006" id="entity_IControl"><rect fill="#2735F3" height="86.1358" rx="2.5" ry="2.5" style="stroke:#181818;stroke-width:0.5;" width="88.1878" x="477.98" y="153"/><ellipse cx="495.5594" cy="169" fill="#2735F3" rx="11" ry="11" style="stroke:#181818;stroke-width:1;"/><path d="M491.4813,164.7656 L491.4813,162.6094 L498.8719,162.6094 L498.8719,164.7656 L496.4031,164.7656 L496.4031,172.8438 L498.8719,172.8438 L498.8719,175 L491.4813,175 L491.4813,172.8438 L493.95,172.8438 L493.95,164.7656 L491.4813,164.7656 Z " fill="#000000"/><text fill="#000000" font-family="sans-serif" font-size="14" font-style="italic" lengthAdjust="spacing" textLength="50.4558" x="510.1326" y="174.432">IControl</text><line style="stroke:#181818;stroke-width:0.5;" x1="478.98" x2="565.1678" y1="185" y2="185"/><line style="stroke:#181818;stroke-width:0.5;" x1="478.98" x2="565.1678" y1="193" y2="193"/><ellipse cx="488.98" cy="208.034" fill="#84BE84" rx="3" ry="3" style="stroke:#038048;stroke-width:1;"/><text fill="#000000" font-family="sans-serif" font-size="14" lengthAdjust="spacing" textLength="62.1878" x="497.98" y="211.9659">on_start()</text><ellipse cx="488.98" cy="227.1019" fill="#84BE84" rx="3" ry="3" style="stroke:#038048;stroke-width:1;"/><text fill="#000000" font-family="sans-serif" font-size="14" lengthAdjust="spacing" textLength="60.5778" x="497.98" y="231.0339">on_stop()</text></g><!--class IApi--><g class="entity" data-entity="IApi" data-source-line="45" data-uid="ent0007" id="entity_IApi"><rect fill="#00EEFF" height="86.1358" rx="2.5" ry="2.5" style="stroke:#181818;stroke-width:0.5;" width="88.1878" x="381.98" y="308.5"/><ellipse cx="411.4096" cy="324.5" fill="#00EEFF" rx="11" ry="11" style="stroke:#181818;stroke-width:1;"/><path d="M407.3315,320.2656 L407.3315,318.1094 L414.7221,318.1094 L414.7221,320.2656 L412.2534,320.2656 L412.2534,328.3438 L414.7221,328.3438 L414.7221,330.5 L407.3315,330.5 L407.3315,328.3438 L409.8003,328.3438 L409.8003,320.2656 L407.3315,320.2656 Z " fill="#000000"/><text fill="#000000" font-family="sans-serif" font-size="14" font-style="italic" lengthAdjust="spacing" textLength="24.1219" x="428.6162" y="329.932">IApi</text><line style="stroke:#181818;stroke-width:0.5;" x1="382.98" x2="469.1678" y1="340.5" y2="340.5"/><line style="stroke:#181818;stroke-width:0.5;" x1="382.98" x2="469.1678" y1="348.5" y2="348.5"/><ellipse cx="392.98" cy="363.534" fill="#84BE84" rx="3" ry="3" style="stroke:#038048;stroke-width:1;"/><text fill="#000000" font-family="sans-serif" font-size="14" lengthAdjust="spacing" textLength="62.1878" x="401.98" y="367.4659">on_start()</text><ellipse cx="392.98" cy="382.6019" fill="#84BE84" rx="3" ry="3" style="stroke:#038048;stroke-width:1;"/><text fill="#000000" font-family="sans-serif" font-size="14" lengthAdjust="spacing" textLength="60.5778" x="401.98" y="386.5339">on_stop()</text></g><!--class IBridge--><g class="entity" data-entity="IBridge" data-source-line="51" data-uid="ent0008" id="entity_IBridge"><rect fill="#FF0000" height="162.4075" rx="2.5" ry="2.5" style="stroke:#181818;stroke-width:0.5;" width="364.5327" x="119.48" y="464"/><ellipse cx="269.4654" cy="480" fill="#FF0000" rx="11" ry="11" style="stroke:#181818;stroke-width:1;"/><path d="M265.3873,475.7656 L265.3873,473.6094 L272.7779,473.6094 L272.7779,475.7656 L270.3091,475.7656 L270.3091,483.8438 L272.7779,483.8438 L272.7779,486 L265.3873,486 L265.3873,483.8438 L267.856,483.8438 L267.856,475.7656 L265.3873,475.7656 Z " fill="#000000"/><text fill="#000000" font-family="sans-serif" font-size="14" font-style="italic" lengthAdjust="spacing" textLength="45.3178" x="289.9654" y="485.432">IBridge</text><rect fill="#FFFFFF" height="18.3441" style="stroke:#181818;stroke-width:1;stroke-dasharray:2.0,2.0;" width="8.744" x="478.2686" y="461"/><text fill="#000000" font-family="sans-serif" font-size="12" font-style="italic" lengthAdjust="spacing" textLength="6.744" x="479.2686" y="474.8281">K</text><line style="stroke:#181818;stroke-width:0.5;" x1="120.48" x2="483.0127" y1="496" y2="496"/><line style="stroke:#181818;stroke-width:0.5;" x1="120.48" x2="483.0127" y1="504" y2="504"/><ellipse cx="130.48" cy="519.034" fill="#84BE84" rx="3" ry="3" style="stroke:#038048;stroke-width:1;"/><text fill="#000000" font-family="sans-serif" font-size="14" lengthAdjust="spacing" textLength="301.1948" x="139.48" y="522.9659">set_on_connected(callback: OnConnected&lt;K&gt;)</text><ellipse cx="130.48" cy="538.1019" fill="#84BE84" rx="3" ry="3" style="stroke:#038048;stroke-width:1;"/><text fill="#000000" font-family="sans-serif" font-size="14" lengthAdjust="spacing" textLength="338.5327" x="139.48" y="542.0339">set_on_disconnected(callback: OnDisconnected&lt;K&gt;)</text><ellipse cx="130.48" cy="557.1698" fill="#84BE84" rx="3" ry="3" style="stroke:#038048;stroke-width:1;"/><text fill="#000000" font-family="sans-serif" font-size="14" lengthAdjust="spacing" textLength="229.0391" x="139.48" y="561.1018">set_on_error(callback: OnError&lt;K&gt;)</text><ellipse cx="130.48" cy="576.2377" fill="#84BE84" rx="3" ry="3" style="stroke:#038048;stroke-width:1;"/><text fill="#000000" font-family="sans-serif" font-size="14" lengthAdjust="spacing" textLength="278.8509" x="139.48" y="580.1697">set_on_message(callback: OnMessage&lt;K&gt;)</text><ellipse cx="130.48" cy="595.3056" fill="#84BE84" rx="3" ry="3" style="stroke:#038048;stroke-width:1;"/><text fill="#000000" font-family="sans-serif" font-size="14" lengthAdjust="spacing" textLength="83.8597" x="139.48" y="599.2376">do_connect()</text><ellipse cx="130.48" cy="614.3735" fill="#84BE84" rx="3" ry="3" style="stroke:#038048;stroke-width:1;"/><text fill="#000000" font-family="sans-serif" font-size="14" lengthAdjust="spacing" textLength="102.7876" x="139.48" y="618.3055">do_disconnect()</text></g><!--class IMemory--><g class="entity" data-entity="IMemory" data-source-line="60" data-uid="ent0009" id="entity_IMemory"><rect fill="#FBFF00" height="143.3396" rx="2.5" ry="2.5" style="stroke:#181818;stroke-width:0.5;" width="378.8546" x="660.48" y="473.5"/><ellipse cx="777.7342" cy="489.5" fill="#FBFF00" rx="11" ry="11" style="stroke:#181818;stroke-width:1;"/><path d="M773.656,485.2656 L773.656,483.1094 L781.0467,483.1094 L781.0467,485.2656 L778.5779,485.2656 L778.5779,493.3438 L781.0467,493.3438 L781.0467,495.5 L773.656,495.5 L773.656,493.3438 L776.1248,493.3438 L776.1248,485.2656 L773.656,485.2656 Z " fill="#000000"/><text fill="#000000" font-family="sans-serif" font-size="14" font-style="italic" lengthAdjust="spacing" textLength="55.5378" x="798.2342" y="494.932">IMemory</text><rect fill="#FFFFFF" height="18.3441" style="stroke:#181818;stroke-width:1;stroke-dasharray:2.0,2.0;" width="78.3085" x="964.0261" y="470.5"/><text fill="#000000" font-family="sans-serif" font-size="12" font-style="italic" lengthAdjust="spacing" textLength="76.3085" x="965.0261" y="484.3281">TypeID, IEntity</text><line style="stroke:#181818;stroke-width:0.5;" x1="661.48" x2="1038.3346" y1="505.5" y2="505.5"/><line style="stroke:#181818;stroke-width:0.5;" x1="661.48" x2="1038.3346" y1="513.5" y2="513.5"/><ellipse cx="671.48" cy="528.534" fill="#84BE84" rx="3" ry="3" style="stroke:#038048;stroke-width:1;"/><text fill="#000000" font-family="sans-serif" font-size="14" lengthAdjust="spacing" textLength="138.1935" x="680.48" y="532.4659">do_set(entity: IEntity)</text><ellipse cx="671.48" cy="547.6019" fill="#84BE84" rx="3" ry="3" style="stroke:#038048;stroke-width:1;"/><text fill="#000000" font-family="sans-serif" font-size="14" lengthAdjust="spacing" textLength="264.571" x="680.48" y="551.5339">do_set_with_id(id: TypeID, entity: IEntity)</text><ellipse cx="671.48" cy="566.6698" fill="#84BE84" rx="3" ry="3" style="stroke:#038048;stroke-width:1;"/><text fill="#000000" font-family="sans-serif" font-size="14" lengthAdjust="spacing" textLength="178.4153" x="680.48" y="570.6018">do_get(id: TypeID) : IEntity?</text><ellipse cx="671.48" cy="585.7377" fill="#84BE84" rx="3" ry="3" style="stroke:#038048;stroke-width:1;"/><text fill="#000000" font-family="sans-serif" font-size="14" lengthAdjust="spacing" textLength="352.8546" x="680.48" y="589.6697">do_query&lt;TypeID, IEntity, Q&gt;(query: IQuery) : [IEntity]</text><ellipse cx="671.48" cy="604.8056" fill="#84BE84" rx="3" ry="3" style="stroke:#038048;stroke-width:1;"/><text fill="#000000" font-family="sans-serif" font-size="14" lengthAdjust="spacing" textLength="117.8235" x="680.48" y="608.7376">do_del(id: TypeID)</text></g><!--class IGui--><g class="entity" data-entity="IGui" data-source-line="70" data-uid="ent0010" id="entity_IGui"><rect fill="#B700FF" height="143.3396" rx="2.5" ry="2.5" style="stroke:#181818;stroke-width:0.5;" width="163.2695" x="490.48" y="686"/><ellipse cx="549.6198" cy="702" fill="#B700FF" rx="11" ry="11" style="stroke:#181818;stroke-width:1;"/><path d="M545.5416,697.7656 L545.5416,695.6094 L552.9323,695.6094 L552.9323,697.7656 L550.4635,697.7656 L550.4635,705.8438 L552.9323,705.8438 L552.9323,708 L545.5416,708 L545.5416,705.8438 L548.0104,705.8438 L548.0104,697.7656 L545.5416,697.7656 Z " fill="#000000"/><text fill="#000000" font-family="sans-serif" font-size="14" font-style="italic" lengthAdjust="spacing" textLength="25.7459" x="570.1198" y="707.432">IGui</text><rect fill="#FFFFFF" height="18.3441" style="stroke:#181818;stroke-width:1;stroke-dasharray:2.0,2.0;" width="8.744" x="648.0054" y="683"/><text fill="#000000" font-family="sans-serif" font-size="12" font-style="italic" lengthAdjust="spacing" textLength="6.744" x="649.0054" y="696.8281">K</text><line style="stroke:#181818;stroke-width:0.5;" x1="491.48" x2="652.7495" y1="718" y2="718"/><line style="stroke:#181818;stroke-width:0.5;" x1="491.48" x2="652.7495" y1="726" y2="726"/><ellipse cx="501.48" cy="741.034" fill="#84BE84" rx="3" ry="3" style="stroke:#038048;stroke-width:1;"/><text fill="#000000" font-family="sans-serif" font-size="14" lengthAdjust="spacing" textLength="62.1878" x="510.48" y="744.9659">on_start()</text><ellipse cx="501.48" cy="760.1019" fill="#84BE84" rx="3" ry="3" style="stroke:#038048;stroke-width:1;"/><text fill="#000000" font-family="sans-serif" font-size="14" lengthAdjust="spacing" textLength="60.5778" x="510.48" y="764.0339">on_stop()</text><ellipse cx="501.48" cy="779.1698" fill="#84BE84" rx="3" ry="3" style="stroke:#038048;stroke-width:1;"/><text fill="#000000" font-family="sans-serif" font-size="14" lengthAdjust="spacing" textLength="120.2175" x="510.48" y="783.1018">do_view(obj: Any?)</text><ellipse cx="501.48" cy="798.2377" fill="#84BE84" rx="3" ry="3" style="stroke:#038048;stroke-width:1;"/><text fill="#000000" font-family="sans-serif" font-size="14" lengthAdjust="spacing" textLength="119.3635" x="510.48" y="802.1697">do_hide(obj: Any?)</text><ellipse cx="501.48" cy="817.3056" fill="#84BE84" rx="3" ry="3" style="stroke:#038048;stroke-width:1;"/><text fill="#000000" font-family="sans-serif" font-size="14" lengthAdjust="spacing" textLength="137.2695" x="510.48" y="821.2376">do_update(obj: Any?)</text></g><!--reverse link IEvo to IControl--><g class="link" data-entity-1="IEvo" data-entity-2="IControl" data-source-line="81" data-uid="lnk11" id="link_IEvo_IControl"><path codeLine="81" d="M521.98,111.04 C521.98,129.8 521.98,133.86 521.98,152.66" fill="none" id="IEvo-backto-IControl" style="stroke:#2735F3;stroke-width:1;"/><polygon fill="none" points="521.98,93.04,515.98,111.04,527.98,111.04,521.98,93.04" style="stroke:#2735F3;stroke-width:1;"/></g><!--reverse link IEvo to IEntity--><g class="link" data-entity-1="IEvo" data-entity-2="IEntity" data-source-line="83" data-uid="lnk12" id="link_IEvo_IEntity"><path codeLine="83" d="M667.4451,66.8762 C726.3551,79.5862 773.55,101.45 809.98,153 C832.04,184.21 824.73,203.74 809.98,239 C800.52,261.63 783.98,282 766.43,298.95" fill="none" id="IEvo-backto-IEntity" style="stroke:#09B620;stroke-width:1;"/><polygon fill="none" points="649.85,63.08,666.1797,72.7412,668.7105,61.0112,649.85,63.08" style="stroke:#09B620;stroke-width:1;"/></g><!--reverse link ID to IEntity--><g class="link" data-entity-1="ID" data-entity-2="IEntity" data-source-line="84" data-uid="lnk13" id="link_ID_IEntity"><path codeLine="84" d="M388.4676,230.61 C445.3876,252.73 510.35,277.97 577.65,304.13" fill="none" id="ID-backto-IEntity" style="stroke:#09B620;stroke-width:1;"/><polygon fill="none" points="371.69,224.09,386.2943,236.2026,390.641,225.0175,371.69,224.09" style="stroke:#09B620;stroke-width:1;"/></g><!--reverse link ITime to IEntity--><g class="link" data-entity-1="ITime" data-entity-2="IEntity" data-source-line="85" data-uid="lnk14" id="link_ITime_IEntity"><path codeLine="85" d="M696.98,257.35 C696.98,275.81 696.98,279.61 696.98,299" fill="none" id="ITime-backto-IEntity" style="stroke:#09B620;stroke-width:1;"/><polygon fill="none" points="696.98,239.35,690.98,257.35,702.98,257.35,696.98,239.35" style="stroke:#09B620;stroke-width:1;"/></g><!--reverse link IEvo to IBridge--><g class="link" data-entity-1="IEvo" data-entity-2="IBridge" data-source-line="87" data-uid="lnk15" id="link_IEvo_IBridge"><path codeLine="87" d="M376.4542,62.3997 C311.6042,73.8497 255.81,96.41 214.98,153 C148.46,245.21 202.39,379.12 250.06,463.86" fill="none" id="IEvo-backto-IBridge" style="stroke:#FF0000;stroke-width:1;"/><polygon fill="none" points="394.18,59.27,375.4109,56.4911,377.4974,68.3083,394.18,59.27" style="stroke:#FF0000;stroke-width:1;"/></g><!--reverse link ID to IBridge--><g class="link" data-entity-1="ID" data-entity-2="IBridge" data-source-line="88" data-uid="lnk16" id="link_ID_IBridge"><path codeLine="88" d="M301.98,257.2 C301.98,312.83 301.98,393.83 301.98,463.89" fill="none" id="ID-backto-IBridge" style="stroke:#FF0000;stroke-width:1;"/><polygon fill="none" points="301.98,239.2,295.98,257.2,307.98,257.2,301.98,239.2" style="stroke:#FF0000;stroke-width:1;"/></g><!--reverse link IEvo to IMemory--><g class="link" data-entity-1="IEvo" data-entity-2="IMemory" data-source-line="90" data-uid="lnk17" id="link_IEvo_IMemory"><path codeLine="90" d="M667.4864,60.0951 C736.0564,70.7551 797.59,93.54 841.98,153 C911.24,245.76 891.79,388.4 871.08,473.33" fill="none" id="IEvo-backto-IMemory" style="stroke:#FBFF00;stroke-width:1;"/><polygon fill="none" points="649.7,57.33,666.5647,66.0239,668.408,54.1663,649.7,57.33" style="stroke:#FBFF00;stroke-width:1;"/></g><!--reverse link IEvo to IGui--><g class="link" data-entity-1="IEvo" data-entity-2="IGui" data-source-line="92" data-uid="lnk18" id="link_IEvo_IGui"><path codeLine="92" d="M667.6108,64.9232 C743.0208,77.0732 818.76,99.67 885.98,153 C1009.56,251.03 1017.75,311.22 1056.98,464 C1074.89,533.74 1100.78,568.86 1056.98,626 C1008.15,689.71 778.67,729.28 653.66,746.48" fill="none" id="IEvo-backto-IGui" style="stroke:#B700FF;stroke-width:1;"/><polygon fill="none" points="649.84,62.06,666.6564,70.8468,668.5652,58.9996,649.84,62.06" style="stroke:#B700FF;stroke-width:1;"/></g><!--reverse link ID to IGui--><g class="link" data-entity-1="ID" data-entity-2="IGui" data-source-line="93" data-uid="lnk19" id="link_ID_IGui"><path codeLine="93" d="M241.0696,251.5642 C155.3196,332.3642 6,499.74 101.98,626 C148.84,687.64 368.6,727.81 490.32,745.73" fill="none" id="ID-backto-IGui" style="stroke:#B700FF;stroke-width:1;"/><polygon fill="none" points="254.17,239.22,236.9548,247.1974,245.1843,255.931,254.17,239.22" style="stroke:#B700FF;stroke-width:1;"/></g><!--reverse link IEvo to IApi--><g class="link" data-entity-1="IEvo" data-entity-2="IApi" data-source-line="95" data-uid="lnk20" id="link_IEvo_IApi"><path codeLine="95" d="M481.5394,108.4345 C470.0794,126.1145 467.76,132.23 459.98,153 C440.7,204.48 432.27,267.65 428.64,308.46" fill="none" id="IEvo-backto-IApi" style="stroke:#00EEFF;stroke-width:1;"/><polygon fill="none" points="491.33,93.33,476.5046,105.1709,486.5743,111.698,491.33,93.33" style="stroke:#00EEFF;stroke-width:1;"/></g><!--reverse link ID to IApi--><g class="link" data-entity-1="ID" data-entity-2="IApi" data-source-line="96" data-uid="lnk21" id="link_ID_IApi"><path codeLine="96" d="M347.5004,253.3527 C364.8504,274.8327 374.55,286.83 391.88,308.29" fill="none" id="ID-backto-IApi" style="stroke:#00EEFF;stroke-width:1;"/><polygon fill="none" points="336.19,239.35,342.8328,257.1228,352.1679,249.5826,336.19,239.35" style="stroke:#00EEFF;stroke-width:1;"/></g><!--reverse link IControl to IApi--><g class="link" data-entity-1="IControl" data-entity-2="IApi" data-source-line="97" data-uid="lnk22" id="link_IControl_IApi"><path codeLine="97" d="M473.6312,254.0917 C458.5812,275.5717 452.65,286.83 440.86,308.29" fill="none" id="IControl-backto-IApi" style="stroke:#00EEFF;stroke-width:1;"/><polygon fill="none" points="483.96,239.35,468.7173,250.6487,478.5451,257.5346,483.96,239.35" style="stroke:#00EEFF;stroke-width:1;"/></g><!--link IControl to IApi--><g class="link" data-entity-1="IControl" data-entity-2="IApi" data-source-line="105" data-uid="lnk27" id="link_IControl_IApi"><line style="stroke:none;stroke-width:1;" x1="464.59" x2="467.4724" y1="308.29" y2="304.2044"/></g><!--link IEvo to ID--><g class="link" data-entity-1="IEvo" data-entity-2="ID" data-source-line="99" data-uid="lnk23" id="link_IEvo_ID"><line style="stroke:none;stroke-width:1;" x1="366.29" x2="370.4736" y1="152.91" y2="150.1718"/></g><!--reverse link IBridge to IMemory--><g class="link" data-entity-1="IBridge" data-entity-2="IMemory" data-source-line="102" data-uid="lnk25" id="link_IBridge_IMemory"><line style="stroke:none;stroke-width:1;" x1="484.74" x2="489.74" y1="545" y2="545"/></g><!--link IControl to IGui--><g class="link" data-entity-1="IControl" data-entity-2="IGui" data-source-line="104" data-uid="lnk26" id="link_IControl_IGui"><line style="stroke:none;stroke-width:1;" x1="565.65" x2="565.2052" y1="685.65" y2="680.6698"/></g><!--link IEntity to IGui--><g class="link" data-entity-1="IEntity" data-entity-2="IGui" data-source-line="106" data-uid="lnk28" id="link_IEntity_IGui"><line style="stroke:none;stroke-width:1;" x1="584.74" x2="585.71" y1="685.83" y2="680.925"/></g><!--link IEntity to IBridge--><g class="link" data-entity-1="IEntity" data-entity-2="IBridge" data-source-line="107" data-uid="lnk29" id="link_IEntity_IBridge"><line style="stroke:none;stroke-width:1;" x1="467.3" x2="471.799" y1="463.85" y2="461.6685"/></g><!--reverse link IControl to IEntity--><g class="link" data-entity-1="IControl" data-entity-2="IEntity" data-source-line="108" data-uid="lnk31" id="link_IControl_IEntity"><line style="stroke:none;stroke-width:1;" x1="566.14" x2="569.8985" y1="235.73" y2="239.0275"/></g><!--link IMemory to IGui--><g class="link" data-entity-1="IMemory" data-entity-2="IGui" data-source-line="109" data-uid="lnk32" id="link_IMemory_IGui"><line style="stroke:none;stroke-width:1;" x1="653.9" x2="657.8862" y1="694.48" y2="691.4616"/></g><!--link IBridge to IGui--><g class="link" data-entity-1="IBridge" data-entity-2="IGui" data-source-line="110" data-uid="lnk33" id="link_IBridge_IGui"><line style="stroke:none;stroke-width:1;" x1="490.4" x2="486.4566" y1="692.89" y2="689.816"/></g><!--SRC=[ZLPjInj14Fv-lsAB7xnG0q6fKWaHzLH2qM8DXL9AkDpD9LkJtUlU9Y5O_tlt_UMIQE-3ilCyyypixCoGG_G474touddAw9AKgA1pofBc6PCwP_a2NJdeMYA8ivmq0WB2a-GGPL1X0jghGPKWG5xC42OSM9KNa7meDMDuiw9QuU1MVHx9zjX7U05xe2k6owa5gwedFWzUKy8PdHlq-EpaKtKIv44uvXi3zZvFJey3rtjOK6R1QYALFNWhgv1pJ8aBd9-6XBibDiZahDUhAezSrXRfzG04WeBYyHduWZLeZVbCsZ1339eQ2evNjiA9uwc2edu_7HxvsdO60_II8F5zV6cuIBLuHR2YunMmHgITTj0v6crg4FplsgJ9K-3ZTtYlIHWxwqjuc0ri1baxlfJ4fLCQPjhSQ3CkhRdJKfQFRaLT0xHqkR0xPKdosWgIVpme8uHbK-_VpZ_e2XaiF9l0d8ud6mwD2dprOtJpfEqLemk3YER83IP9HiIvDvnXCbN-JwDlmuSxUVKmDTEuDgUmZrLIeS5aHOcGpHbFEy6PrccxhA81hQpjHILf3_yZ5-hf0Un_SGKC9b891-SN_pn2hw24Y9w6CYto-LnkddFqLKoKiGh9JiGlSRFR9Gk0BIzWZBA8VYCjMxm5D4q-XOXvhssUMrARTUejFg-jOkijObhCDPShLR1aLAd2fMDgXKG0aM4AojErKYT2nt9JnDDqXFPxYCa9vyutw8Nd_5d2Tk97w76GAaIuFCh_qlcdGNzvxnBcyMIBBHSLHYp8e6NikbH5SBlJLg3TYiZteWkumh1EwUJtEReacui0cE4ITWBBMWnf1Cd6ZdSnWxdQyiqCrmsQ05y3a6139thr_krs_SX6ivc435sbQACam-mjKA_0lNWehgSicZOllWiCdNNVHVqNuU99_BjusTWSEiWbupQATsYPtPRR0MgrRadNf2kQ8aC7uU-DGs7epg7Y4bDLseQjguqICUoLdOWfKKJo6JenUULOo54OdiwKbBn8p36FzuPAcx4h7KTQrk_VQtye8xsVaVm3]--></g></svg>