<?xml version="1.0" encoding="UTF-8" standalone="no"?>
<!-- Generator: Adobe Illustrator 12.0.0, SVG Export Plug-In . SVG Version: 6.00 Build 51448)  -->

<svg
   id="Layer_1"
   xml:space="preserve"
   height="596.44"
   viewBox="0 0 819.179 596.444"
   width="819.18"
   version="1.1"
   overflow="visible"
   enable-background="new 0 0 819.179 596.444"
   sodipodi:docname="evo_framework_neural_cell.svg"
   inkscape:version="1.4.2 (2aeb623e1d, 2025-05-12)"
   xmlns:inkscape="http://www.inkscape.org/namespaces/inkscape"
   xmlns:sodipodi="http://sodipodi.sourceforge.net/DTD/sodipodi-0.dtd"
   xmlns="http://www.w3.org/2000/svg"
   xmlns:svg="http://www.w3.org/2000/svg"><defs
   id="defs814" /><sodipodi:namedview
   id="namedview814"
   pagecolor="#ffffff"
   bordercolor="#000000"
   borderopacity="0.25"
   inkscape:showpageshadow="2"
   inkscape:pageopacity="0.0"
   inkscape:pagecheckerboard="0"
   inkscape:deskcolor="#d1d1d1"
   inkscape:zoom="0.75315931"
   inkscape:cx="300.73319"
   inkscape:cy="483.96136"
   inkscape:window-width="2880"
   inkscape:window-height="1731"
   inkscape:window-x="0"
   inkscape:window-y="0"
   inkscape:window-maximized="1"
   inkscape:current-layer="Layer_1" />
<path
   d="m420.78 152.6c7.765-3.153 14 5.24 20.639 3.735 11.629-2.634 3.537-13.604 10.784-15.122 5.178-1.084 2.646 0.621 6.107 3.684 3.162 2.798 3.956 0.309 5.183 5.32 1.052 4.298-0.56 9.219 1.368 13.256-1.913-4.005-1.017-13.869 1.322-17.408 3.724 1.757 8.263 9.242 8.75 13.395 0.75 6.398-3.529 9.196 4.063 11.063 8.855 2.179 11.854 10.313 15.423 17.393-0.92-4.227-3.706-8.447-6.246-11.917 1.731 0.01 3.222 0.919 4.876 0.97 3.337 0.101 6.383-1.669 9.801-1.436-4.615 0.559-10.726-0.872-14.744-3.127-3.378-1.896-6.037-4.343-10.047-4.551-0.053-2.154 0.73-4.264 1.522-6.242 2.856-0.196 5.625 1.562 8.373 2.207-1.902-3.396-4.443-1.787-6.958-3.262-1.93-1.131-2.791-4.14-3.428-6.387 2.563-5.18 2.385-8.321 8.211-6.008 4.111 1.634 7.452 3.273 11.835 3.698 5.451 0.528 10.829-0.123 16.28 0.147 6.051 0.301 12.129 0.642 18.171 0.999 4.182 0.247 8.344 1.194 12.018 3.259 3.105 1.745 6.68 4.148 6.744 8.127 0.037 2.27-0.794 4.444-1.517 6.562-1.188 3.479-2.338 7.088-4.169 10.27-0.983 1.708-2.399 2.615-3.953 3.828-0.875 0.684-4.484 2.356-3.578 3.932 1.639-0.633 3.252-1.927 4.744-2.905 2.239-1.466 1.709-0.083 1.448 2.046-0.326 2.674-0.502 5.422-0.684 8.108-0.087 1.283-0.651 3.454 0.26 4.448 1.565-2.394 0.931-6.387 1.117-9.117 0.15-2.209 0.378-4.436 0.989-6.562s1.233-4.645 2.407-6.542c1.896-3.064 2.143 0.511 2.627 2.303 0.733 2.717 1.657 0.759 1.134-0.889-0.204-0.643-0.897-1.094-1.147-1.741-0.296-0.765-0.189-1.914-0.201-2.723-0.034-2.41 0.21-4.726 0.854-7.054 0.275-0.994 0.622-2.71 1.554-3.247-0.164 0.095 2.725 3.033 3.037 3.402 2.042 2.409 2.945 5.762 4.02 8.688 1.161 3.159 2.191 6.772 0.814 10.036-0.207 0.49-2.317 4.931-0.996 4.679 1.068-0.204 1.975-3.924 2.746-4.749 0.805 0.452 1.286 1.574 1.768 2.336 1.204 1.907 2.459 3.878 3.581 5.85 0.916 1.608 3.029 6.697 5.09 6.917-0.734-2.704-3.065-4.853-4.053-7.426 1.125-0.658 3.713 0.568 5.119 0.493 0.164-1.838-4.1-2.043-5.344-2.76-2.255-1.298-3.214-4.384-4.424-6.549-1.218-2.179-1.562-3.741-1.891-6.168-0.132-0.971-0.907-2.812 0.494-2.755 0.628 0.025 2.189 2.145 2.764 2.539 0.75 0.514 1.87 1.118 2.728 1.254 0.067-2.038-3.529-3.494-4.916-4.611-0.58-0.467-2.845-2.14-1.931-3.117 6.854 1.694 12.26 5.562 18.259 9.018 4.789 2.759 6.994 7.092 8.87 12.142 0.766 2.06 0.976 4.132 1.582 6.191 0.286 0.97 0.61 2.137 1.865 2.051 0.674-1.19-1.13-3.011-1.526-4.14-0.919-2.618-2.041-5.234-2.87-7.886-0.354-1.133-1.375-3.226-0.907-4.47 0.587-1.564 3.771-1.377 5.132-1.996 2.886-1.31 4.879-3.058 8.115-2.036 2.735 0.863 5.058 2.444 7.853 3.174-1.332-0.348-7.035-2.404-6.809-4.303 0.112-0.937 2.75-1.854 3.423-2.232 1.104-0.62 3.542-1.585 3.763-2.901-2.106-0.23-4.987 2.193-6.834 3.068-1.285 0.609-3.123 2.121-4.646 1.515 0.097-0.47 1.192-1.578 0.678-2.008-0.607-0.508-1.417 1.297-1.59 1.522-2.09 2.721-8.028 5.239-11.24 3.35-2.513-1.479-5.162-2.834-7.631-4.5-2.44-1.646-5.012-3.139-7.585-4.566-1.888-1.047-4.375-1.277-5.953-2.911 1.148-1.586 4.39-1.101 6.093-1 1.24 0.074 2.566 0.309 3.779 0.641 1.059 0.289 2.541 1.2 3.597 0.524-1.65-1.535-4.513-0.851-6.162-2.369 0.954-0.916 3.243-1.132 4.529-1.506 1.83-0.531 3.646-0.77 5.513-1.064 1.445-0.228 2.285-0.446 3.607 0.12 0.896 0.384 1.89 1.31 2.871 0.743-0.402-1.13-1.691-0.761-2.281-1.518-0.655-0.84-0.175-0.394 0.05-1.242 0.103-0.388 1.184-1.434-0.159-1.576-0.596-0.063-1.068 1-1.518 1.274-0.944 0.577-1.734 0.445-2.957 0.664-3.88 0.697-7.763 1.991-11.505 3.206-2.721 0.883-6.975 3.011-9.657 1.025-3.212-2.379-5.557-7.407-7.009-11.028-1.297-3.235 22.29-2.616 23.98-2.61 4.507 0.017 7.146 1.982 10.693 4.571 2.559 1.868 5.316 3.961 7.565 6.195 1.17 1.162 2.411 5.149 4.335 4.476 2.956-1.035-2.696-4.292-3.614-5.033-1.221-0.985-3.32-2.198-3.768-3.755 0.857-0.85 4.149-0.109 4.6-1.229 0.698-1.741-2.26-0.553-2.725-0.438-2.274 0.559-8.574-1.764-7.887-4.848 0.777-3.486 9.101-3.706 11.818-4.355 2.584-0.618 4.98-0.646 7.615-0.301 3.093 0.404 5.499 2.046 8.19 3.446 0.689 0.359 4.092 1.714 3.493-0.175-0.457-1.445-4.547-1.935-5.693-2.193-2.172-0.489-4.193-1.282-6.234-2.073-0.994-0.385-2.965-0.597-3.052-1.926-0.046-0.707 1.009-1.564 1.441-2.044 3.909-4.331 9.11-7.705 14.633-9.417 8.235-2.554 17.216-4.027 25.044-7.4 3.706-1.597 9.329-2.655 12.345-5.534-6.519 0.824-14.135 4.747-20.466 6.906-2.077 0.708-4.353 0.902-6.341 1.709-2.081 0.845-4.012 2.263-6.337 2.345 0.088-1.764 3.401-4.354 4.49-5.782 0.47-0.615 2.045-1.87 1.69-2.794-0.454-1.181-1.01-0.14-1.394 0.343-1.606 2.026-2.306 4.472-4.303 6.367-1.55 1.471-3.67 2.705-5.695 3.44-1.443 0.523-2.89 0.915-4.309 1.501-0.745 0.308-2.582 1.386-3.371 1.292-1.521-0.181 1.843-2.216 1.018-3.493-1.167-1.804-3.589 2.871-3.976 3.58-1.427 2.612-3.345 4.813-5.169 7.142-0.711 0.908-1.049 1.568-2.089 2.049-2.022 0.935-4.198 1.149-6.216 2.158-2.385 1.192-5.567 1.489-8.19 2.057-0.756 0.165-1.701 0.742-2.149-0.052 0.132 0.233 2.729-1.019 2.702-1.725-0.043-1.126-2.177-1.247-3.021-1.033-1.461 0.37-2.673 1.544-4.18 1.954-1.706 0.463-3.492 0.53-5.235 0.775-4.244 0.597-8.678 1.543-12.951 1.185-4.261-0.356-8.604-0.392-12.89-0.392-5.327 0-10.487 0.231-15.44-1.014-4.956-1.247-11.659-1.343-16.031-3.367 4.364-0.026 8.101-4.408 12.46-5.131 2.498-0.414 5.563 0.738 7.981 0.01 1.191-0.359 1.725-0.913 2.677-1.606 1.196-0.871 2.325-0.956 3.7-1.302 4.034-1.017 7.964-1.582 12.076-2.219 5.294-0.82 10.506-1.737 15.813-2.332 3.447-0.386 6.279-0.279 9.539 0.775 2.792 0.902 6.238 1.943 9.061 0.873-0.103-1.857-6.817-0.946-8.371-1.472-1.042-0.352-2.596-1.144-1.285-1.98 0.656-0.419 1.841-0.027 2.621-0.312 0.831-0.303 2.004-1.37 0.821-2.362-0.706-0.594-2.46 0.029-3.229 0.265-3.576 1.098-7.203 2.085-10.916 2.594-3.48 0.477-6.806 0.081-10.299 0.077 8.278 0.049 14.741-4.482 20.824-9.353 4.796-3.84 9.474-8.408 15.522-8.145 3.319 0.145 6.698 1.462 9.906 0.502-7.613 0.744-11.882-3.089-19 0.962-5.296 3.015-10.189 6.527-15.261 9.898-2.721 1.809-7.013 5.64-10.561 5.06-0.355-2.513 0.233-4.892 0.972-7.28-1.532 2.62-2.473 6.906-5.047 8.391-3.565 2.056-10.959 1.735-15.044 2.604-3.874 0.823-5.195 3.284-8.991 4.398-2.853 0.837-6.132 0.351-8.973 1.452-3.299 1.278-5.971 4.504-9.479 5.434-3.406 0.902-8.692-0.089-12.522-0.31-4.118-0.237-5.473 0.027-8.627-1.986-1.479-0.944-2.558-2.338-4.196-3.14 8.849-1.036 6.524-6.005 12.37-10.42 4.714-3.56 13.136-1.984 17.433-6.865-4.758 1.618-9.655 2.76-14.395 4.434-8.764 3.096-15.313 11.599-25.269 12.841-5.371 0.67-11.886-3.991-14.405-8.507 5.418 0.058 9.316-3.889 14.071-5.783 3.615-1.44 9.021-0.923 12.027-3.64 4.401-5.487 2.129-13.135 9.456-17.445 6.146-3.615 11.931-0.92 18.47 0.399 9.877 1.993 18.738 1.799 26.694 8.897-4.673-3.912-12.929-4.529-18.694-7.7-3.768-2.071-9.08-6.137-12.993-4.094 0.055 0.062-1.629-1.107-1.601-1.104 4.488-1.834 9.151-4.786 13.646-6.777 4.374-1.938 9.137-1.466 13.464-3.43 0.796-0.361 1.514-0.632 2.354-0.895 3.168-0.992 6.335-2.06 9.649-2.565 2.088-0.318 3.33 0.074 4.887 1.421 0.888 0.768 3.193 4.504 4.381 3.769 0.405-1.989-4.147-4.784-5.386-5.947 0.465-0.695 1.867-0.822 2.64-0.878 1.521-0.111 2.887-0.27 4.368-0.718 0.462-0.14 4.149-1.172 3.954-2.054-0.17-0.765-1.336-0.334-1.759-0.183-4.668 1.676-9.268 2.493-14.264 2.352-0.366-2.652 2.803-5.747 4.961-6.679 0.747-0.323 3.803-0.878 3.885-1.58 0.028-0.243-2.51 0.835-2.681 0.921-0.87 0.438-1.786 1.001-2.796 0.772 0.191-0.497 0.507-0.974 0.826-1.424 0.857-1.208 1.543-2.489 2.352-3.705 0.797-1.198 2.064-1.984 3.054-3.003 0.689-0.71 0.948-1.63-0.41-1.119-1.397 0.526-2.406 3.222-3.231 4.301-0.926 1.211-4.773 7.399-6.236 7.119-0.386-2.602 0.361-5.415 0.838-7.965 0.093-0.494 0.752-4.434-0.447-3.207-0.389 0.398-0.135 1.85-0.135 2.327 0 1.311 0.059 2.639-0.033 3.945-0.101 1.449-0.264 3.122-0.688 4.52-0.861 2.836-3.1 5.606-5.622 7.128-2.534 1.529-5.378 0.982-8.197 1.502-6.572 1.212-8.268 4.001-13.777 7.326-17.872 10.786-2.674-15.126-1.373-21.991-5.431 6.276-5.899 17.219-11.6 22.514-12.717 11.812-20.121-2.85-29.189-9.392 7.367 5.314 13.72 9.644 12.32 19.517-1.517 10.706-16.005 14.942-24.634 18.425-3.611 1.457-4.251-0.409-7.984-2.696-5.49-3.363-7.343-5.211-9.785-10.818-1.522-3.495-2.76-3.584-0.715-7.981 1.619-3.481 4.329-5.023 6.534-7.185 1.438-1.409 3.803-4.916 6-5.884 3.716-1.636 10.364 1.52 14.479 1.084-3.438-1.53-8.109-2.423-11.039-4.67 3.236-8.882 21.664-11.926 29.521-13.896 5.383-1.35 10.84-2.626 15.925-4.907 5.656-2.537 8.758-6.548 13.484-10.095-1.082 0.812-16.915 8.91-16.813 8.511 1.365-5.3 5.941-9.528 9.516-13.956-6.534 3.438-8.939 11.593-15.197 15.625-6.787 4.374-15.653 5.136-23.473 6.595-4.745 0.886-4.932-0.677-10 2.98-0.334 0.241-10.736 9.275-10.829 7.79-0.878-14.113 1.724-25.588 9.824-37.61-10.995 9.373-9.828 24.193-13.175 36.945-2.311 8.807-17.201 18.464-16.596 3.228 0.381-9.599 14.033-16.359 20.775-21.186 10.159-7.271 21.632-13.217 28.673-24.142-11.077 8.371-20.431 19.069-31.946 27.023-4.278 2.955-15.24 11.867-16.723 3.893-0.775-4.168 5.996-11.095 7.617-14.92-2.797 2.698-9.004 9.824-10.169 13.671-1.37 4.52 2.893 7.696-0.858 12.561-2.678 3.471-9.42 8.652-13.272 4.201-1.184-1.367-1.758-4.202-2.127-5.632-1.128-4.38-2.354-8.611-2.121-13.39 0.663-13.603 1.414-27.389 2.876-40.949 1.195-11.092 2.386-22.058 6.385-32.538 0 0-8.419-0.033-12.659 0.074 2.646 14.565-3.137 30.967-5.2 45.538-1.612 11.376-3.506 22.909-5.375 33.964-1.063 6.281 1.268 14.781-3.063 20.138-2.938 3.635-19.775 3.694-18.284-0.999 1.631-5.137 5.365-10.531 7.718-15.409-3.01 4.397-6.177 8.56-8.599 13.337-8.438-6.073-13.582-14.352-11.225-24.34-0.9 2.863-2.014 5.642-3.897 7.972 3.937 5.988 8.947 12.633 11.968 19.352-6.622-3.253-14.884-4.028-22.123-3.575-2.515 0.157-4.737-0.249-7.223-0.554-2.045-0.251-4.153-0.201-6.199-0.51-2.499-0.378-6.29-0.546-7.112-3.182-1.033-3.31-1.646-6.813-2.882-10.041-0.886-2.314-2.17-3.695-3.849-5.242-1.751-1.613-2.953-3.341-3.404-5.773-0.503-2.708-0.533-5.419-1.651-7.892-0.95-2.1-3.108-5.002-2.599-7.207 0.449-1.943 0.701-4.452 1.638-6.236-0.488 1.684-0.781 3.539-1.638 5.108-0.653 1.197-0.635 1.187-1.595 0.671-1.173-0.631-2.147-1.748-3.286-2.431-1.147-0.688-2.283-1.204-3.321-2.056 1.991 1.69 3.987 3.118 5.625 5.135 1.396 1.721 2.637 3.623 3.881 5.506 2.998 4.54 2.084 10.227 4.634 14.901-1.674-0.176-3.307-1.417-4.904-1.804 2.615 1.524 6.005 2.841 7.677 5.502 1.53 2.435 2.414 5.67 3.128 8.441 0.322 1.249 0.585 2.38-0.369 3.372-2.004-0.953-3.726-1.065-5.958-1.473-2.834-0.518-3.899-1.571-6.015-3.195-1.419-1.089-3.391-2.213-4.487-3.625-0.841-1.083-1.42-2.351-2.237-3.502-2.572-3.626-5.948-6.686-9.063-9.829 1.728 2.144 3.278 4.323 4.839 6.597 0.85 1.239 4.179 4.145 3.829 5.763-2.469-1.027-5.049-2.272-7.589-2.982-2.867-0.802-4.891 0.499-7.598 1.092-3.418 0.749-6.641 0.798-10.179 0.985-2.493 0.132-4.831-0.04-7.272-0.596 2.416 2.661 7.957 0.808 10.939 0.773 0.26 3.1-2.667 5.977-3.519 8.719 2.256-2.467 2.853-7.376 6.608-7.812 2.183-0.253 4.424-0.835 6.645-0.769 1.815 0.054 3.031 1.136 4.711 1.473 0.643 0.129 1.462-0.031 2.117-0.015 1.426 0.034 2.708 0.492 4.064 0.971 2.865 1.014 5.839 2.79 8.151 4.765 1.843 1.575 3.761 3.148 5.708 4.592 1.582 1.173 3.245 1.238 5.079 1.774 1.351 0.396 2.619 1.003 3.98 1.374 2.231 0.608 4.543 0.758 6.834 0.988 2.07 0.207 4.181 0.924 6.212 0.893 2.907-0.045 5.837-0.88 8.751-0.368 1.52 0.267 2.759 0.931 1.177 2.115-2.267 1.697-4.628 3.182-6.793 5.051-1.806 1.559-3.61 3.185-5.167 4.998-2.018 2.35-3.002 4.903-4.343 7.656-0.728 1.494-1.09 3.066-1.732 4.569-0.958 2.242-2.213 4.784-5.067 4.051-1.304-0.334-1.308-1.283-2.382-1.987-1.821-1.196-5.051-2.103-7.222-2.104-4.191-0.001-8.207 2.646-12.366 0.146 2.125 1.57 5.479 1.048 7.887 0.631 0.697-0.121 1.34-0.201 2.065-0.288 0.627-0.075 1.423-0.497 1.987-0.502 1.486-0.013 3.451 1.466 4.849 2.085 0.693 0.307 2.102 0.452 2.602 1.044 0.531 0.627 0.125 1.404 0.471 2.068 0.281 0.538 1.107 0.65 1.144 1.295 0.044 0.783-1.551 1.61-2.1 1.975-0.904 0.6-1.715 1.021-2.713 1.264-1.439 0.35-3.598 0.011-4.754 1.123-1.143 1.098-2.123 2.964-3.19 4.22-0.867 1.02-1.986 3.012-3.267 3.403-1.028 0.314-2.444-0.184-3.501-0.165-1.281 0.023-2.72 0.049-3.955 0.356-1.281 0.318-2.317 1.089-3.519 1.598 1.037-0.194 2.088-0.713 3.144-0.978 0.757-0.19 1.344-0.409 2.156-0.34 0.817 0.069 1.537-0.009 2.284 0.035 0.86 0.051 1.685 0.433 2.573 0.502 1.41 0.11 1.465-0.356 2.54-1.449 1.149-1.169 5.556-7.476 7.499-6.212 1.131 0.736 0.24 3.916 0.016 4.974 0.609-1.446 0.173-3.162 0.746-4.479 0.461-1.062 1.725-1.293 2.757-1.58 0.527-0.147 1.563-0.128 1.985-0.408 0.536-0.354 1.052-1.536 1.599-2.048 1.45-1.358 3.468-3.031 5.534-3.087 1.647-0.045 1.812 0.704 2.566 1.978 0.825 1.394 1.89 3.105 3.092 4.144 1.252 1.081 2.348 1.754 3.036 3.442 0.885 2.171 0.758 4.692 1.484 6.882 1.501-1.307-0.069-4.185-0.517-5.559-0.57-1.75-0.907-3.396-2.255-4.688-1.854-1.778-4.075-3.777-5.124-6.201-1.037-2.395 0.358-5.38 1.595-7.426 0.599-0.99 1.896-2.724 3.104-2.465 0.347 0.074 1.243 0.968 1.576 1.185 0.895 0.583 1.804 1.106 2.759 1.586 1.792 0.902 4.236 1.653 5.851 2.743 0.663 0.447 1.298 1.244 1.874 1.812 1.128 1.113 4.033 3.556 3.915 5.344-0.07 1.065-1.407 2.491-1.795 3.517-0.737 1.95-1.747 4.318-1.587 6.456 0.453-2.94 2.415-6.466 4.578-8.513 2.663 0.805 5.275 2.585 8.212 2.372 1.732-0.126 3.077-1.074 4.641 0.011-1.89-1.822-4.14-1.247-6.387-1.958-1.146-0.362-2.251-1.25-3.253-1.896-2.17-1.397-4.521-2.974-6.138-5.021-1.067-1.35-1.708-2.951-3.062-4.056-1.699-1.387-4.072-1.71-5.892-2.967-1.601-1.106-1.685-1.428-1.798-3.3-0.11-1.825-0.479-4.439 0.871-5.915 1.521-1.663 4.666-2.31 6.651-3.303 1.618 1.487 2.63 3.766 4.308 5.113 0.254-1.819-1.354-3.282-1.282-5.119 0.138-3.461 5.229-4.332 7.851-4.274 2.123 0.047 4.164 0.425 6.172 1.115 0.85 0.292 6.762 2.395 6.741 3.232-0.136 5.547 3.636 12.577 6.241 17.539-1.186-4.058-3.167-7.998-3.818-12.201-1.398-9.038 9.297-4.906 12.729-1.149 4.658 5.1 7.043 14.372 3.566 20.683-1.727 3.136-4.993 4.875-6.656 7.851-1.346 2.407-1.301 4.581-4.391 5.135-4.729 0.848-9.439-4.708-14-5.035-3.309-0.237-9.3 1.479-12.083 1.523 3.346 0 8.007-0.836 10.996 0.587 0.466 2.285-2.247 4.152-3.773 5.797 1.316-1.999 2.876-3.655 4.499-5.307 2.719 1.294 4.571 3.17 7.387 3.95 1.74 0.482 5.703 0.952 7.935 1.046-1.651 2.89-2.26 3.802-5.06 4.9-4.448 1.745-9.184 1.404-13.41 4.161-2.77 1.807-4.455 5.742-7.49 6.902-2.012 0.769-8.077 1.274-9.837 0.425 2.165 1.113 9.37 0.641 11.835-0.353 3.052-1.229 4.048-5.145 7.926-5.543 0.119 2.777 0.7 5.454 0.564 8.303 0.781-2.944-0.202-6.499 1.002-9.166 2.893 0.792 6.706-2.021 9.51-3.052 3.906-1.436 5.219-0.983 9.295 0.647-2.313-3.595-2.704-3.301-1.158-7.286 1.055-2.716 2.041-5.661 4.002-7.972 3.104 3.13 3.642 8.522 5.896 12.299-0.852-4.157-5.551-11.949 0.242-12.838 4.471-0.686 10.313 5.111 11.194 9.283 1.349 6.373-4.961 7.344-8.82 11.17-2.319 2.299-4.604 8.773-7.626 9.583-1.549 0.415-4.954-1.753-6.498-2.176-1.197-0.329-3.197-1.224-4.44-0.982-1.862 0.362-0.614 0.219-2.214 1.123-3.092 1.747-6.239 5.765-9.334 8.01-2.188 1.586-4.89 2.317-6.874 4.022 3.665-0.435 7.101-4.612 10.25-6.448 2.414-1.407 4.86-2.45 6.994-4.044-0.359 2.175-0.253 4.636-0.836 6.804 1.543-2.406 1.473-5.415 3.051-7.797 2.976 1.628 7.373 3.479 10.823 4.041 0.199 2.858-1.824 9.055-4.544 10.785-3.191 2.03-7.133 1.161-10.631 1.78 1.104 0.663 2.469 1.476 3.459 2.25-5.856 3.38-8.41 10.382-14.379 13.584-6.52 3.487-16.533 6.451-23.736 8.062 5.538-1.238 11.073-3.296 16.504-4.924 3.1-0.929 7.068-2.678 10.303-2.049 0.276 2.449-0.103 4.727-0.959 7.052 3.272-8.881 9.457-15.724 17.182-21.462 0.842 2.418 2.276 5.027 3.165 7.293-1.839-1.551-3.274-6.042-3.234-8.385 7.604-0.995 7.108-8.997 10.034-14.571 1.119-2.133 2.456-6.09 5.244-5.791 0.473 4.837 0.297 9.899-0.133 14.744 0.457-5.152 0.826-11.313 2.674-16.174 0.855-2.25 2.525-5.808 4.955-6.787 2.82-1.07 5.45-2.35 7.98-3.38z"
   fill="#E2E2E2"
   id="path1"
   style="fill:#aaccff" />
<path
   d="m815.83 533.03c-0.139-1.658-0.288-6.496 0.411-7.615 0.199-0.318 1.939 1.543 2.281 0.278 0.176-0.652-0.865-1.123-1.262-1.449-0.87-0.717-1.606-1.609-2.308-2.485-1.375-1.719-2.621-3.549-4.284-5.013-1.634-1.438-4.537-1.922-5.818-3.711-1.447-2.02-0.728-2.762-0.006-6.037 2.816-0.187 5.537-1.341 8.181-2.237 1.453-0.493 3.006-0.798 4.438-1.328 1.02-0.378 1.078-1.067-0.206-1.126-0.809-0.037-1.74 0.224-2.538 0.353-1.906 0.309-3.798 0.711-5.672 1.178-6.735 1.676-10.933-1.524-17.217-2.483-1.785-0.272-2.384-0.489-3.749-1.574-2.104-1.671-5.927-6.564-5.184-9.416 0.335-1.284 2.644-2.165 2.865-3.398 0.267-1.486-1.823-3.463-1.94-5.267-0.3-4.642 5.786-9.593 8.773-12.65 0.151 0.181 0.714 0.472 0.901 0.717 2.735-4.345 5.704-2.339 8.018 1.007 1.295 1.873 2.168 3.149 4.064 4.518 1.822 1.315 2.048 1.161 2.233 3.058 0.171 1.738 0.114 3.867 0.084 5.657 1.378-1.158 0.42-4.199 0.983-5.925 1.573 0 4.679 1.385 6.627 1.944 0.699 0.201 2.688 0.656 2.737 1.482-0.584 0.108-1.202-0.337-1.712-0.634-0.709-0.411-1.432-0.869-1.952-1.515 1.146-0.631 2.292 0.19 3.343-0.152 0.86-0.279 0.141-0.523-0.478-0.649-1.359-0.277-2.797 0.42-4.162 0.369-1.91-0.07-3.65-0.704-5.104-1.961-1.658-1.435-3.289-2.915-4.774-4.517-1.529-1.649-1.392-3.638-2.532-5.009 3.184-2.566 13.02-0.367 14.864 2.593 0.487 0.782 0.461 2.96 1.069 3.371 1.601 1.082 1.433-0.979 1.365-1.713-0.146-1.602-2.305-3.846-3.582-4.659 0.931-0.871 1.908-0.78 3.059-0.98 0.567-0.099 1.203-0.014 0.653-0.581-0.497-0.514-2.377-0.532-3.064-0.513-1.508 0.043-1.729 0.517-2.715 0.749-2.008 0.472-4.409-0.302-6.451-0.349-4.337-0.1-7.404 1.054-5.323-3.993 0.76-1.843 2.896-5.093 1.772-6.971-2.84 0.988-2.686 7.026-4.115 9.401-1.623 2.697-2.816 1.281-5.256 2.813-2.268 1.423-2.152 5.305-5.335 5.513-4.754 0.311-5.207-8.866-5.392-11.973-0.27-4.524 2.402-11.478 7.21-12.911 2.551-0.761 6.446 1.097 7.838-2.147-1.366-0.086-5.896 0.887-6.589-0.125-0.932-1.358 1.133-3.719 1.948-4.607 2.456-2.674 3.484-2.349 4.408-6.009 1.022-4.054 3.308-6.463 7.512-7.406 3.253-0.73 12.186-0.197 11.721-6.21-5.079 0.241-9.377 6.202-14.59 5.249-0.779-4.063 0.832-10.069 3.276-13.282 2.736-3.597 11.257-4.538 11.295-9.549-2.66 0.712-5.086 3.373-7.61 4.555-2.97 1.392-2.48 1.135-2.66-1.414-0.171-2.407 0.097-4.821 0.241-7.178 0.169-2.736 1.847-5.727 1.357-8.385-2.961 0.388-2.412 7.952-2.599 10.322-0.156 1.974-0.955 4.047-1.052 5.989-0.06 1.193 0.735 2.042 0.04 3.343-0.372 0.693-1.562 0.748-1.955 1.392-0.339 0.552-0.157 1.386-0.367 1.918-0.681 1.722-0.94 3.194-1.018 5.007-0.137 3.202-0.968 4.154-2.407 6.982-0.93 1.827-3.691 15.762-7.86 10.968-2.046-2.352 1.009-11.801 1.35-14.69 0.122-1.037 0.91-9.015-2.031-6.842 0.35 1.422 0.492 3.011 0.69 4.557 0.307 2.389 1.298 11.679-2.481 9.69-1.99-1.047-2.85-7.053-5.242-7.022-3.592 0.044 1.901 4.387 2.567 5.35 1.614 2.334 3.373 5.896 3.73 8.674 0.455 3.531-9.293 20.94-11.924 18.367-1.874-1.835 0.456-11.063 0.683-13.366 0.138-1.398 1.044-9.916-2.706-6.259 1.281 2.819 2.396 4.567 1.983 7.592-0.986 7.228-4.279 14.365-10.939 17.971-5.446 2.948-9.716-4.002-10.315-7.281-0.559-3.05 1.18-6.059 2.974-9.419 0.761-1.422 3.702-9.281 4.354-9.831-5.125 4.327-7.093 16.031-13.872 14.826-5.669-1.005 0.119-10.829-5.231-13.313 1.401 2.453 2.591 5.289 1.657 8.884-1.801 6.931-2.208 5.084 4.255 7.559 2.746 1.048 4.945 2.749 4.062 6.501-1.954 8.288-7.263 3.305-10.352 2.176-4.667-1.707-11.809 0.038-14.988-3.668-2.805-3.266 0.633-8.945-0.708-12.753-0.932-2.641-5.491-6.407-7.619-9.084 2.151 2.107 3.182 6.427 3.933 9.491 0.728 2.976-0.747 5.839-0.458 8.874-3.341 0.931-6.4-2.208-9.62-2.567-4.04-0.453-5.512-0.117-7.738-2.903-4.001-5.007-5.258-7.68-13.797-7.089 4.075 1.162 8.441 0.864 10.598 4.238 1.538 2.405 0.962 7.118 4.412 8.153 4.206 1.26 9.978-0.142 14.102 1.753 2.379 1.094 6.005 2.984 7.882 4.663-4.213 3.436-9.28 2.813-13.54 6.764 8.813-3.882 19.541-6.702 28.59-2.026 7.775 4.018-3.664 6.918-6.582 7.742-2.347 0.663-4.696 1.44-6.855 2.59-1.489 0.791-3.759 3.648-5.006 4.03-2.769 0.848-2.433-3.193-1.811-5.367 0.866-3.025 3.509-5.226 2.207-8.545-2.975 0.603-3.287 8.293-3.999 10.587-2.188-0.01-3.899-0.902-6.019-0.862-2.004 0.037-4.929 0.558-6.516-1.159-4.807-5.203 1.846-12.978-0.735-17.837-2.113 2.231-0.271 7.764-2.933 9.194-1.347-1.155-1.86-2.511-2.825-3.957-0.878-1.317-3.469-3.477-2.506-0.318 0.371 1.217 3.217 3.007 3.997 4.301 1.119 1.858 1.786 3.967 2.333 6.018 0.43 1.616 1.991 5.659-1.427 5.022-0.716-0.133-1.698-1.588-2.23-2.104-2.295-2.226-5.737-4.24-7.531-6.874 0.807 2.178 8.117 7.291 7.391 9.564-3.202 1.005-6.011 4.999-9.275 5.065-3.554 0.072-6.606-2.854-9.667-3.939-2.731-0.968-6.019-0.145-8.591-1.41-2.763-1.359-3.951-4.474-5.109-7.188 1.366 2.941 2.499 6.185 4.674 8.798-2.397 1.167-4.474 3.056-6.657 4.352-1.753 1.041-4.338 1.691-5.882 3.071 2.893-0.369 5.954-1.586 8.492-3.006 1.437-0.804 3.06-1.57 4.447-2.425 0.499-0.308 0.432-1.302 1.026-1.525 1.856-0.697 3.831 0.677 5.591 0.857 1.892 0.194 2.933-0.144 4.676 0.4 4.29 1.34 6.684 4.32 11.667 2.092 5.082-2.273 7.944-5.974 14.006-5.75 2.287 0.085 6.258-0.126 8.018 1.585 3.127 3.04 2.372 8.412 3.894 12.083 1.092 2.632 2.849 7.198 1.478 9.982-2.268 4.605-7.751-0.96-10.07-2.95-1.813 2.081 2.705 3.268 3.308 5.249-1.622 0.115-3.862 0.858-5.3 0.716-8.925-0.889-1.053-13.155-5.795-17.022-0.063 3.611 2.622 7.087-3.751 6.661-4.19-0.279-4.993-3.674-7.946-5.178-5.434-2.772-16.415 0.679-22.825-2.722 3.998 3.386 7.152 4.007 13.636 4.054 2.272 0.017 4.69-0.005 6.551 0.644 1.665 0.577 3.094 2.811 5.1 2.615-2.096 2.481-5.697 3.828-8.346 6.271 5.758-1.633 11.058-5.976 14.809-2.189 1.47 1.481 1.18 4.399 2.313 6.079 1.017 1.511 2.67 2.139 3.644 3.684-6.787 5.901-9.641 3.963-16.79 6.564 3.01-0.314 6.495 0.282 9.56-0.563 3.333-0.918 5.809-3.91 8.732-5.441 3.271-1.714 10.118-2.403 11.275 0.189 1.548 3.467-7.182 10.386-10.391 13.653-17.317 17.627-36.745 35.179-55.579 51.465-9.469 8.189-19.204 16.033-28.966 23.847h10.256c1.896-1.642 3.799-3.265 5.711-4.862 10.804-9.026 21.954-17.616 32.552-26.883 10.708-9.366 21.209-17.506 31.916-26.95 7.287-6.426 20.713-18.474 29.266-16.549 4.521 1.021 0.337 14.518 1.818 19.333 0.767 2.492 4.104 5.18 2.856 8.126-0.553 1.31-3.59 3.242-4.464 5.245-0.403 0.928-0.068 2.922-0.192 3.983-1.113 9.564-3.035 17.645-8.238 26.749 7.444-4.791 7.731-16.539 9.043-22.467 0.813-3.662 0.549-8.499 5.899-10.96 4.703-2.161 4.338 1.434 7.079 2.721 4.618 2.168 13.376 1.37 18.868 2.716 7.199 1.766 15.389 3.219 21.419 6.507 3.327 1.813 6.67 4.529 7.46 8.01 0.968 4.256 0.345 8.601 2.452 12.372-0.106-3.164-0.502-5.395-1.152-8.087-0.491-2.028-2.172-4.887 1.533-7.237 2.027 2.093 6.415 0.802 8.847 0.35 0.583-0.107 3.584-0.236 2.752-1.012-0.472-0.439-1.913-0.173-2.513-0.173-1.553 0-3.109-0.073-4.648-0.286-2.616-0.362-5.233-1.132-7.398-2.691-8.943-6.444-24.399-5.149-33.319-12.033-2.351 1.142-6.53 0.522-4.689-2.462 1.098-1.787 9.521-3.233 11.186-3.553 6.505-1.243 15.601-2.807 20.387-0.11 0.435 0.246 0.896 1.952 1.811 2.425 2.474 1.277 6.29 0.537 8.499 2.018-2.229-2.142-6.018-2.561-8.434-4.613-1.673-1.419-5.445-2.881-5.365-5.285-5.99 0.857-12.687 3.486-18.05 2.844 2.31-3.561 7.595-6.203 10.444-8.934 0.782-0.749 1.487-0.368 2.534-1.52 0.478-0.525 0.641-2.439 1.091-3.22 1-1.733 1.865-3.498 3.016-5.106-3.595 7.788-9.348 9.329-15.211 15.438-4.521 4.711-13.046 9.948-17.989 9.243-3.182-0.45-6.962-2.556-8.134-4.546-0.702-1.192-0.183-3.062-0.848-4.242-0.7-1.239-2.397-0.496-2.983-1.867-2.091-4.897 0.91-14.097 2.434-20.083 5.998-2.676 12.426 4.167 11.794 9.024-0.494 3.793-1.804 7.822-2.097 11.41 1.424-3.525 2.352-7.122 3.704-10.604 1.367-3.522 0.762-4.957 3.941-3.196 1.882 1.045 3.949 4.482 5.101 6.296 1.051 1.653 1.208 4.188 0.721 5.901 1.419-5.944-2.245-14.195-6.479-16.616 3.563-2.108 6.696 1.05 9.745-3.802-0.099-0.271-0.212-0.532-0.338-0.788-0.233-0.473 12.468-4.266 12.823-4.42-2.983-0.079-7.104 0.745-10.388 1.893-2.372 0.832-13.2 6.022-9.076 0.682 1.915-2.481 6.897-3.194 9.322-5.104 1.466-1.154 2.338-4.355 4.041-5.367 3.604-2.144 5.245 1.935 7.444 2.57 3.823 1.103 8.558-0.617 10.961 2.786 0.875 1.238 0.822 2.854 1.577 4.134 1.018 1.727 2.389 2.026 3.952 2.963 3.041 1.821 4.361 3.868 3.938 7.616-0.206 1.83-1.841 5.705-0.416 7.046 1.408-2.361 0.431-16.328 5.767-7.453 3.134 5.21 1.512 15.624 0.293 21.055 1.459-1.754 0.039-5.49 1.267-7.322 0.633-0.945 1.381-0.259 1.918 0.378 0.54 0.641 0.67 1.444 1.277 2.036 0.096 0.093-0.208-0.967-0.25-1.052-0.209-0.432-0.539-0.834-0.771-1.261-0.53-1.02-1.01-2.16-1.12-3.38z"
   fill="#E2E2E2"
   id="path2"
   style="fill:#80b3ff" />








<path
   d="m227.45 151.76c15.399-5.684 30.163-12.934 45.509-18.752 6.308-2.392 12.168-5.882 18.35-8.574 3.292-1.434 6.697-2.337 10.025-3.618 3.585-1.379 6.863-3.432 10.418-4.879 2.715-1.106 4.876-1.748 7.837-1.936 3.847-0.245 7.549-0.142 11.301 0.842 3.914 1.026 7.774 1.933 11.054 4.374 1.438 1.07 3.215 1.645 4.541 2.885 0.761 0.712 1.739 4.478 2.979 3.844 0.952-0.488 1.159-2.361 0.564-3.083-0.633-0.769-1.98-0.871-2.799-1.378-1.117-0.692-4.742-2.419-4.6-4.099 0.128-1.503 3.293-1.246 4.428-1.397 2.866-0.385 6.725-0.685 9.405-1.789 1.174-0.484 2.802-2.223 1.258-3.442-1.463-1.155-2.501 1.38-3.513 2.067-1.613 1.094-4.458 1.239-6.293 1.542-2.145 0.354-4.208 0.708-6.358 1.057-2.034 0.329-4.129-0.389-6.174-0.817-2.857-0.599-5.511-1.516-8.211-2.586 1.125-2.031 4.574-2.065 6.617-2.514 3.735-0.822 7.269-2.949 11.065-4.127 1.863-0.579 3.972-1.771 5.939-1.912 0.853-0.061 1.589 0.35 2.432 0.332 1.972-0.042 1.908-2.285 3.852-2.566-0.933 0.352-2.03 1.014-2.88 1.279-0.671 0.209-1.113-0.095-1.818-0.133-1.761-0.093-3.763 0.621-5.444 1.197 0.038-0.437-0.003-0.99-0.175-1.339-0.762 0.314-1.138 1.061-1.753 1.565-0.826 0.678-1.925 1.138-2.914 1.462-1.302 0.427-3.304 1.015-4.713 0.776-0.613-0.104 1.743-1.755 1.864-1.826 1.325-0.771 2.628-1.582 3.946-2.363 1.493-0.885 2.853-1.651 4.529-1.938 0.977-0.167 2.691-0.571 1.918-2.114-1.625-3.241-5.425 1.61-6.783 2.446-2.127 1.31-4.228 2.584-6.463 3.718-0.889 0.451-8.803 4.91-9.205 4.177-0.46-0.838 0.018-2.142 0.169-3.04 0.29-1.711 0.397-3.674 1.219-5.225 1.112-2.097 3.452-3.562 5.544-4.542 0.92-0.431 2.927-1.195 1.825-2.593-0.842-1.069-2.042-0.175-2.476 0.533-0.283 0.463-0.224 1.083-0.663 1.611-0.476 0.571-1.254 0.998-1.833 1.457-0.946 0.748-2.156 1.997-3.135 0.813-0.891-1.076-0.664-5.236-0.233-6.439 0.28-0.782 0.87-0.926 1.01-1.652 0.134-0.698-0.437-1.477-1.169-1.473-1.997 0.012-1.388 2.806-1.251 3.938 0.289 2.375 0.183 4.872 0.154 7.285-0.027 2.243 0.038 4.685-0.976 6.728-1.022 2.059-3.445 4.341-5.815 4.783-4.114 0.767-5.491-3.857-4.704-6.855 1.055-4.021 3.158-7.771 4.206-11.815 0.378-1.458 0.858-2.973 1.425-4.372 0.515-1.269 1.554-1.997 0.193-3.036-1.41-1.078-2.187-0.316-1.978 1.129 0.259 1.787 0.485 3.333 0.012 5.182-0.711 2.787-2.25 5.83-3.526 8.415-1.796 3.636-2.897 7.956-5.644 11.042-2.587 2.908-7.088 5.119-10.526 6.919-7.876 4.123-16.386 6.81-24.519 10.354-28.637 12.481-57.103 24.857-86.464 35.722-9.074 3.358-18.095 7.144-27.289 10.149-6.833 2.233-12.559 4.407-19.379 0.485-1.945-1.118-2.597-2.965-5.751-1.496-1.72 0.802-3.526 4.542-5.5 3.81-4.708-1.749 2.979-9.733 5.887-9.949 5.185-0.384 7.76 5.69 13.46 4.915-2.908-1.598-7.527-1.669-2.958-4.889 3.004-2.117 6.312-1.076 9.498-2 5.866-1.701 10.323-9.061 17.349-11.012-5.416 0.667-8.015 2.083-12.349 5.525-1.52 1.207-3.103 2.507-4.865 3.221-1.578 0.639-4.348 0.436-5.518 1.592-0.639-2.194 0.646-4.702 0.406-7.174-2.481 3.783-2.443 8.494-8.024 8.858-2.185 0.143-4.377-1.276-6.5-1.398-1.908-0.11-3.517 0.5-5.424 0.351-0.325-6.182 3.151-6.866 5.762-11.811-1.737 1.743-4.535 3.347-5.875 5.349-1.458 2.179-0.654 4.796-1.339 7.021-0.768 2.489-4.742 6.444-7.628 5.939-3.858-0.675-3.727-8.333-4.27-11.462-2.928-16.883-4.397-34.86-5.226-51.973-0.566-11.692-0.288-23.371-0.201-35.057 0.127-17.24-3.741-35.273 2.338-51.83 0.424-1.155 0.839-2.313 1.259-3.471 1.09-3.005 2.205-6.005 3.523-8.918 0.653-1.443 1.355-2.864 2.135-4.243 0.378-0.67 0.776-1.329 1.195-1.975 0.173-0.267 0.276-0.527 0.411-0.809 0.09-0.187 0.707-0.724 0.707-0.724l-2.749-0.029s-2.2 3.291-3.108 5.036c-1.447 2.78-2.695 5.658-4.134 8.442-2.057-1.93-1.772-5.583-2.388-8.307-0.113 3.824 1.286 7.396 0.998 10.858-0.145 1.735-2.071 11.71-3.5 11.56-0.041-0.004-0.08-0.014-0.118-0.027-0.393-0.139-0.604-0.652-0.746-1.003-0.284-0.701-0.445-1.455-0.586-2.195-0.422-2.217-0.605-4.482-0.754-6.731-0.171-2.593-0.26-5.192-0.299-7.79-0.009-0.607-0.016-1.215-0.019-1.823-0.006-1.228-0.271-2.422-0.378-3.647-0.046-0.528-0.132-1.054-0.188-1.582-0.039-0.363-0.101-0.723-0.143-1.084-0.066-0.563-0.018-1.14-0.058-1.708-0.646 0.027-1.267-0.012-1.917 0.029-0.055 0.852-0.038 1.713 0.044 2.564 0.042 0.44 0.105 0.873 0.174 1.31 0.137 0.879 0.205 1.737 0.423 2.6 0.251 0.992 0.508 1.982 0.727 2.982 0.523 2.396 1.004 5.245-0.274 7.494-2.496-1.007-3.611-4.317-3.946-6.863-3.104-0.869-4.601-4.949-6.789-7.074-2.719-2.64-3.635-2.509-1.647 0.962 3.567 6.23 9.146 10.487 11.01 18.013 2.366 9.552 0.945 20.641 0.502 30.416-0.591 13.031 1.309 26.42 1.601 39.458 0.217 9.679-0.154 19.354 0.397 29.028 0.557 9.774 0.249 18.909 0.87 28.718 0.423 6.675 1.371 19.063-5.87 22.796-3.829 1.974-12.085-6.107-17.002-7.401-2.544-0.67-6.952-0.052-8.534-1.994-0.703-0.862-0.27-3.322-1.327-4.655-0.491-0.618-2.342-1.303-3.127-1.829-7.077-4.737-12.407-9.264-16.397-15.986-1.019 6.051 8.389 11.293 12.363 14.562 2.455 2.02 6.583 3.973 5.047 7.897-1.35 3.449-4.043 1.697-6.914 2.603-4.832 1.526-9.983 6.55-14.722 8.9-6.212 3.08-12.828 6.824-19.51 8.621-3.685 0.991-8.121 1.601-11.488 0.516-4.119-1.328-7.254-3.541-11.734-4.049 2.656 1.313 4.739 2.068 7.371 2.886 1.982 0.616 5.433 0.958 4.897 3.952-3.092 0.18-5.445 3.899-7.423 6.076-4.079 4.489-7.976 9.362-12.482 13.343 7.977-6.867 14.537-17.493 24.982-19.347 11.193-1.986 20.376-10.802 31.913-12.583 0.625-1.75 3.899-3.714 5.121-1.438 0.731 1.36-3.669 6.486-4.511 7.512-3.294 4.013-8.043 9.548-13.419 10.936-0.488 0.126-2.188-0.367-3.18-0.083-2.683 0.767-4.607 3.125-7.281 3.665 3.228-0.262 6.08-2.104 9.358-2.506 2.269-0.278 5.963-1.66 7.875-0.576 3.269-3.571 5.557-8.287 9.637-10.873 1.379 2.777 0.037 6.744 0.379 9.448 0.094 0.742-0.687 0.954-0.438 2.012 0.113 0.482 1.569 1.397 1.909 1.977 0.752 1.286 1.621 2.511 2.174 3.823-3.982-5.295-1.428-9.034-2.536-14.812-0.854-4.455 0.516-11.276 4.366-13.611 2.478-1.503 6.704-2.611 9.107-2.375 1.437 0.142 2.622 1.229 4.027 1.384 1.476 0.164 1.994-1.065 3.502-0.784 5.387 1.004 10.916 6.591 14.798 9.997-1.788 4.363-11.638 4.832-15.188 2.39-2.771-1.907-5.197-4.352-7.934-6.062 1.938 2.288 4.259 4.34 6.21 6.571 1.973 2.256 3.545 2.554 0 3.488-2.1 0.553-6.279 0.168-8.524-0.002-2.048-0.155-4.223-1.167-5.299-2.171 3.916 3.333 13.086 4.95 17.87 3.735-0.637 2.817-5.295 3.122-3.352 6.852 0.288 0.064 0.577 0.118 0.868 0.161 0.542 0.081-4.774 8.505-4.884 8.762 2.042-1.559 4.098-4.115 5.336-6.367 0.893-1.628 3.826-9.658 5.458-5.143 0.758 2.098-1.961 5.067-2.007 7.189-0.028 1.284 2.01 3.135 1.708 4.482-0.638 2.854-5.056 1.964-7.032 2.863-3.437 1.563-5.168 4.837-9.542 4.648-1.943-0.084-3.684-1.168-5.877-1.012-3.014 0.215-5.652 1.674-8.749 2.135-2.7 0.402-6.497 0.943-9.237 0.265-2.123-0.525-3.31-1.977-5.447-1.813 2.307 3.291 10.543 3.721 14.321 3.302 2.256-0.25 4.576-1.591 6.889-1.5 2.609 0.103 2.738 0.806 4.937 2.611-3.356 3.104-4.63 8.203-8.302 11.013-3.311 2.534-8.552 5.382-12.386 7.537 8.857-3.149 14.982-7.243 20.486-14.936 2.664-3.724 10.241-8.368 14.867-7.297-0.719 3.998 2.271 6.743 2.01 10.543 0.508-2.991-2.164-4.472-1.486-7.371 0.745-3.186 5.959-7.343 9.072-4.584 1.773 1.571 0.922 5.086 0.439 6.99-1.597 6.295-5.991 12.172-9.735 17.336-7.053 9.726-15.247 18.411-23.179 27.394-4.659 5.276-8.756 10.998-13.767 15.957-3.239 3.205-5.669 9.609-9.938 11.609-2.919 1.368-5.675-0.589-8.545-0.383 0.61 3.909 6.153 5.006 7.137 8.804 1.386 5.371-2.004 11.902-1.898 17.335 3.562-2.024 3-6.737 3.426-10.337 0.554-4.679 1.264-8.988 3.573-13.113 3.743-6.687 9.564-11.243 14.374-17.021 11.377-13.669 21.61-28.156 33.418-41.465 3.124-3.521 6.331-7.426 10.607-9.647 3.493-1.815 10.853-4.25 14.124-1.13 4.009 3.824 3.485 13.425 3.102 18.304-0.933 11.857-7.927 29.31-0.474 40.179 2.834-4.77 1.999-16.277 2.303-21.91 0.375-6.945 0.579-13.713 0.948-20.585 0.789-14.69 2.297-17.711 15.223-8.251 16.314 11.94 32.862 30.467 40.952 48.877 9.325 0.204-2.032-12.057-4.174-14.849-6.788-8.846-13.974-17.549-21.219-26.023-3.945-4.615-19.535-16.495-17.519-23.527 1.201-4.187 9.708-3.456 12.784-2.357 2.863 1.023 4.169 3.254 5.726 5.669 0.658 1.021 5.132 5.996 5.149 6.582-0.14-4.609-8.399-10.731-2.922-13.831 4.578-2.591 8.77 4.754 14.345 2.974-2.933-0.314-6.038-0.906-8.358-2.963-4.471-3.963-2.69-3.382-8.995-1-2.676 1.011-5.524 1.45-8.004-0.647-5.477-4.633 2.112-5.311 5.082-6.471 4.487-1.753 7.795-6.324 12.93-6.417 4.526-0.082 6.889 4.214 10.889 5.146 2.775 0.646 8.875-0.157 12.472-0.134-3.146 0.236-7.36-1.085-10.36-2.012-2.915-0.899-4.277-2.927-6.949-4.087 1.455-2.188 6.047-2.462 8.475-4.026 3.045-1.961 3.748-2.893 7.5-2.875 6.742 0.031 9.757 0.519 14.933-4.297-3.649 1.672-6.298 4.133-10.484 3.823-2.986-0.221-6.454-2.569-9.585-1.174-3.817 1.7-6.496 5.39-10.777 6.771-2.471 0.797-6.417 1.916-9.034 2.19-0.015-3.738 3.851-6.175 3.447-10.16-2.667 6.386-5.131 10.139-11.547 12.222-2.455 0.797-4.168 1.629-6.457 0.587 1.695-14.411 22.07-17.558 32.771-21.635 17.74-6.73 34.74-15.95 52.65-22.56z"
   fill="#E2E2E2"
   id="path11"
   style="fill:#aaccff" />
<path
   d="m115.7 415.03c-5.621 1.029-25.052 8.28-29.133 1.807-2.904-4.605 5.93-13.556 8.313-16.977 5.936-8.52 12.771-16.387 20.304-23.529 4.813-4.563 11.244-9.412 13.353-16.116 1.729-5.496-0.654-10.441-2.032-15.8-1.765-6.859-2.904-13.736-4.148-20.686-1.841-10.284-9.245-20.176-1.037-28.715 6.118-6.364 15.558-7.3 21.22-14.152 7.901-9.561 16.106-20.014 15.314-33.181-0.404-6.72-0.27-13.096 4.801-18.667 3.657-4.016 9.652-5.713 14.602-7.802 12.239-5.165 24.333-8.71 37.449-10.716 9.168-1.402 19.179-2.798 28.477-2.167 5.046 0.343 4.808 0.497 8.789-1.8 3.319-1.915 4.128-3.335 8.388-2.864 7.894 0.873 15.492 7.377 21.297 12.054 11.453 9.226 23.889 17.472 34.716 27.447 12.287 11.321 26.448 23.808 34.31 38.68 6.554 12.398 9.318 25.573 12.339 39.153 3.922 17.63 2.021 33.911-1.034 51.294-2.457 13.978-10.379 36.018-24.999 40.887-14.258 4.748-30.307 8.19-45.182 10.531-12.678 1.995-26.244 2.085-38.669 5.453-8.468 2.296-17.271 6.512-25.318 10.016-8.724 3.798-20.066 7.336-27.545 13.315-3.141 2.511-14.598 17.664-20.335 11.25-2.449-2.737 3.183-16.028 3.232-20.011 0.164-13.101-5.66-18.282-16.653-24.185-14.66-7.86-34.76-7.45-50.82-4.51z"
   fill="#2F80A8"
   id="path12"
   style="fill:#00ffff" />

<path
   stroke="#3ACFE8"
   d="m156.88 374.74c-7.029 2.731-13.979 7.615-20.403 11.569-5.45 3.354-11.133 6.2-16.462 9.745-6.681 4.445-13.448 8.861-20.293 12.984-5.658 3.408-11.716 6.992-16.552 11.522-1.607 1.505-4.203 2.931-4.246 5.356 1.393 0.348 2.284-1.024 3.236-1.833 2.321-1.973 4.766-3.923 7.317-5.608 4.813-3.18 9.67-6.353 14.477-9.737 6.703-4.721 14.324-8.381 21.721-11.848 11.97-5.611 25.759-13.382 37.549-16.748"
   fill="none"
   id="path14" />
<path
   stroke="#3ACFE8"
   d="m91.833 305.7c15.139 2.681 28.742 8.846 42 16"
   fill="none"
   id="path15" />
<path
   stroke="#3ACFE8"
   d="m227.17 176.36c-4.448 25.768-23.607 49.727-40 69.333"
   fill="none"
   id="path16" />
<path
   stroke="#3ACFE8"
   d="m151.48 358.53c-3.354 1.815-5.981 4.801-8.864 7.271-10.205 8.742-20.072 17.934-30.543 26.323-5.1 4.086-9.965 8.161-15.33 11.929-2.789 1.958-5.663 3.709-8.252 5.908-1.787 1.518-3.574 2.721-5.656 3.764-1.506 0.754-3.472 2.516-5.096 2.56 0.882-2.852 4.662-3.865 6.983-5.146 3.201-1.765 6.49-4.176 9.258-6.563 2.99-2.579 6.157-4.952 9.152-7.511 6.241-5.333 12.239-10.857 18.278-16.446 7.451-6.896 13.637-15.247 19.795-23.278 1.601-2.088 2.694-4.35 4.108-6.561 1.156-1.809 2.753-3.399 3.581-5.403"
   fill="none"
   id="path17" />

<path
   stroke="#3ACFE8"
   d="m173.17 494.36c13.208-27.95 27.371-53.156 49.333-75.333"
   fill="none"
   id="path19" />
<path
   stroke="#3ACFE8"
   d="m77.833 431.7c21.59-21.312 51.196-32.005 77.333-45.334"
   fill="none"
   id="path20" />
<path
   stroke="#3ACFE8"
   d="m173.17 485.03c7.485-13.038 13.292-27.416 20.632-40.537 5.005-8.948 11.156-17.422 16.701-26.13"
   fill="none"
   id="path21" />
<path
   stroke="#3ACFE8"
   d="m97.167 419.7c13.542-9.048 29.781-14.87 44.695-21.366 6.214-2.706 12.8-5.472 19.305-7.301"
   fill="none"
   id="path22" />
<path
   stroke="#3ACFE8"
   d="m207.17 236.36c5.503-8.815 8.097-19.725 12-29.333 3.367-8.288 6.358-16.961 10-25.333"
   fill="none"
   id="path23" />
<path
   stroke="#3ACFE8"
   d="m225.83 156.36c7.894 9.888 11.229 22.429 10.232 34.811-1.16 14.419 3.912 28.947 2.434 43.189"
   fill="none"
   id="path24" />
<path
   stroke="#3ACFE8"
   d="m171.83 480.36c3.784-11.097 8.508-21.576 13.331-32.15 4.367-9.575 5.329-22.633 11.335-31.183"
   fill="none"
   id="path25" />
<path
   stroke="#3ACFE8"
   d="m171.58 393.93c0.086-0.083 0.185-0.146 0.295-0.187-2.92 0.382-5.702 1.563-8.586 2.257-7.296 1.752-14.477 4.385-21.581 6.787-5.401 1.826-10.937 3.187-16.136 5.547-1.162 0.527-4.713 1.521-5.008 2.926 2.491 0.083 5.516-1.22 7.916-1.871 5.147-1.396 10.188-2.877 15.454-3.713 5.097-0.808 10.256-1.412 15.269-2.675 5.191-1.308 10.824-1.235 15.966-2.633"
   fill="none"
   id="path26" />
<path
   stroke="#3ACFE8"
   d="m116.5 317.03c5.974 5.383 15.923 13.144 23.333 16"
   fill="none"
   id="path27" />
<path
   stroke="#3ACFE8"
   d="m112.5 307.7c5.125 1.282 16.733 9.857 20.667 8.666"
   fill="none"
   id="path28" />
<path
   stroke="#3ACFE8"
   d="m113.83 298.36c4.931 2.202 16.803 8.642 21.333 6.667"
   fill="none"
   id="path29" />
<path
   stroke="#3ACFE8"
   d="m229.83 194.36c-3.837 14.092-8.935 30.777-9.333 45.333"
   fill="none"
   id="path30" />
<path
   stroke="#3ACFE8"
   d="m241.83 193.03c-0.487 10.349 1.35 21.16 1.965 31.5 0.316 5.308-0.364 12.741 1.368 17.834"
   fill="none"
   id="path31" />
<path
   stroke="#3ACFE8"
   d="m249.17 185.03c8.034 13.754 8.15 29.957 13.333 44.831 1.975 5.667 3.445 11.464 5.333 17.169"
   fill="none"
   id="path32" />
<path
   stroke="#3ACFE8"
   d="m183.17 438.36c3.691-6.61 1.325-15.807 4-22.666"
   fill="none"
   id="path33" />
<path
   stroke="#3ACFE8"
   d="m187.83 451.03c4.854-8.549 6.793-19.451 11.333-27.333"
   fill="none"
   id="path34" />
<path
   stroke="#3ACFE8"
   d="m85.228 408.34c0.683-0.571 1.372-1.136 2.065-1.694 2.367-1.907 4.936-3.532 7.373-5.344 2.423-1.802 4.38-4.131 6.464-6.322 4.006-4.212 7.907-8.579 12.489-12.187 7.331-5.772 13.045-13.611 19.016-20.697 3.115-3.697 5.185-7.928 7.804-11.97 1.892-2.919 3.815-5.909 5.398-8.973"
   fill="none"
   id="path35" />
<path
   stroke="#3ACFE8"
   d="m247.17 191.7c2.75 9.101 4.533 18.537 6.501 27.835 1.602 7.569 2.321 18.087 6.165 24.832"
   fill="none"
   id="path36" />
<path
   stroke="#3ACFE8"
   d="m261.83 195.03c2.493 7.981 4.82 16.12 7.987 23.85 2.544 6.21 7.667 12.912 8.68 19.484"
   fill="none"
   id="path37" />

<path
   stroke="#3ACFE8"
   d="m192.5 466.36c8.142-11.472 18.185-21.423 26.665-32.531 3.559-4.661 7.328-9.216 11.335-13.469"
   fill="none"
   id="path39" />
<path
   stroke="#3ACFE8"
   d="m133.83 410.36c9.234-2.21 18.913-3.499 28.385-4.034 6.537-0.37 13.222 0.704 19.615 0.034"
   fill="none"
   id="path40" />

<path
   stroke="#3ACFE8"
   d="m231.17 202.36c-2.851 9.944-2.262 22.313-3.497 32.699-0.645 5.421-2.146 10.659-3.17 15.968"
   fill="none"
   id="path42" />
<path
   stroke="#3ACFE8"
   d="m173.83 251.03c6.936-5.737 13.844-14.352 19.368-21.333 6.406-8.096 13.969-16.716 18.632-26"
   fill="none"
   id="path43" />
<path
   stroke="#3ACFE8"
   d="m267.17 198.36c1.452 7.36 7.131 14.564 9.852 21.703 2.135 5.601 4.902 10.873 7.333 16.332 4.081 9.164 9.044 16.798 15.482 24.632"
   fill="none"
   id="path44" />
<path
   stroke="#3ACFE8"
   d="m321.83 431.7c8.681-16.3 11.085-35.464 19.333-52"
   fill="none"
   id="path45" />



<path
   d="m249.12 428.13"
   fill="#042C44"
   id="path49" />
<path
   d="m341.69 397.24"
   fill="#042C44"
   id="path50" />
<path
   d="m164.11 336.31c0.797 2.018 1.536 3.842 2.334 4.031 0.402-2.092-0.46-3.835 0.115-5.916 0.896-0.5 1.611-0.243 2.209 0.59-1.49-2.072 0.188-8.707 0.714-11.119-0.224 0.398-0.545 0.724-0.791 1.104-0.173-3.492 3.828-7.873 6.073-10.178 1.65-1.694 3.412-3.742 5.555-4.766 2.43-1.16 4.72-2.601 7.189-3.679 1.563-0.684 3.433-1.237 4.875-2.095 1.252-0.744 1.15-2.496 1.585-3.879 0.614-1.954 1.893-3.595 2.524-5.489 0.731-2.193 1.59-4.349 2.772-6.351 2.216-3.754 4.69-8.005 9.412-8.281 0.025-0.33-0.103-1.102-0.26-1.42-2.576-0.809 2.604-3.896 3.361-4.595 2.664-2.458 4.697-5.52 7.5-7.948 3.828-3.316 7.337-6.264 11.626-8.999 3.798-2.423 9.244-5.694 14.056-5.014 10.758 1.521 20.7 3.366 31.216 6.375 7.637 2.185 17.361 5.54 23.142 11.227 2.499 2.458 4.22 4.411 7.322 6.287 3.418 2.066 6.726 4.38 9.075 7.673 4.107 5.758 5.506 12.392 6.842 19.189 1.302 6.62 4.257 13.116 4.984 19.854 0.421 3.897 0.61 7.825 0.636 11.742 0.036 5.438 0.049 10.705-0.925 16.068-1.393 7.673-2.944 15.257-7.074 21.976-8.085 13.152-19.223 21.439-32.668 28.675-4.934 2.655-11.057 5.188-16.3 7-3.641 1.258-8.827 1.706-12.125 0.342-1.693-0.699-0.868-1.229-3.495-1.035-3.293 0.242-6.377 0.462-9.681 0.333-2.968-0.115-5.605-0.299-8.505-0.973-1.409-0.327-2.265-0.991-3.877-0.608 2.543 4.75-6.646 2.356-8.1 2.025-3.576-0.814-7.594-0.422-11.35-0.992-4.86-0.738-9.633-2.146-13.991-4.416-8.172-4.257-15.185-11.699-20.583-19-9.783-13.229-15.918-28.037-19.928-43.943-0.493-1.956-2.367-6.206-1.073-8.088 2.52-3.66 4.16 0.64 5.61 4.31z"
   fill="#301051"
   id="path51"
   style="fill:#ff00cc" />
<ellipse
   cy="330.18"
   cx="237.98"
   rx="45.237"
   ry="45.001"
   fill="#EA9206"
   id="ellipse51"
   style="fill:#ffff00" />
<path
   d="m250.83 284.1c1.91 2.458 4.619 4.726 6.233 7.359 1.542 2.515 1.8 5.634 3.351 8.242 3.54 5.948 13.412 0.744 18.081 3.983 1.986 1.38 0.871 6.1 1.003 8.608 0.18 3.394-0.288 6.604-0.31 9.942-1.68-0.56-2.566 0.569-4.007 0.825-1.318 0.235-3.271-0.008-4.505-0.075-1.919 3.327-1.583 9.878-1.844 13.716-0.185 2.716-0.525 5.281-0.91 7.944-0.29 2.001 0.109 4.177-0.804 6.061-1.714 3.536-6.392 4.736-9.871 5.58-6.691 1.623-13.608 2.264-20.49 2.666-3.74 0.219-7.117 0.229-10.6-1.177-3.071-1.238-5.638-2.613-8.992-2.822-2.955-0.184-4.421 0.282-5.676 2.737-0.762 1.49-2.581 5.813-3.99 1.668-0.884-2.603 1.805-5.291 0.35-7.406-1.252-1.82-5.349-3.076-7.269-4.009-2.287-1.11-4.634-1.789-6.822-3.168-2.178-1.372-3.749-3.002-5.26-5.082-1.032-1.421-2.315-6.641-3.408-7.259-3.944-2.229-3.952 16.94-3.933 18.593 0.108 9.445 2.073 25.815 10.334 31.967 2.921 2.176 8.039 4.594 11.756 4.723 6.009 0.209 12.355-0.73 18.252-0.108 7.72 0.814 16.332 0.678 24.014-0.566 10.474-1.695 22.444-3.725 31.64-9.016 2.896-1.667 5.811-2.496 8.92-3.65 11.07-4.109 16.507-12.563 20.211-23.351 3.363-9.796 1.878-20.273 2.204-30.433 0.252-7.865 1.433-15.928-1.068-23.581-1.654-5.062-4.473-8.952-7.347-13.327-2.07-3.151-3.897-6.944-6.821-9.35-3.332-2.742-7.428-4.691-11.104-6.901-2.984-1.794-5.935-3.655-8.985-5.167-2.863-1.419-5.75-2.68-8.742-0.922-3.356 1.971-5.708 4.506-9.25 6.089-3.205 1.432-10.548 5.365-9.933 9.592 0.41 2.67 4.04 5.07 5.61 7.09z"
   fill="#301051"
   id="path52"
   style="fill:#ff2ad4" />
























































	
	
	
		



<linearGradient
   id="XMLID_32_"
   y2="377.82"
   gradientUnits="userSpaceOnUse"
   x2="286.34"
   y1="374.32"
   x1="279.09">
	<stop
   stop-color="#006B33"
   offset="0"
   id="stop113" />
	<stop
   stop-color="#00622F"
   offset=".1611"
   id="stop114" />
	<stop
   stop-color="#004923"
   offset=".4252"
   id="stop115" />
	<stop
   stop-color="#002210"
   offset=".7572"
   id="stop116" />
	<stop
   offset="1"
   id="stop117" />
</linearGradient>

<linearGradient
   id="XMLID_33_"
   y2="393.41"
   gradientUnits="userSpaceOnUse"
   x2="259.09"
   y1="385.66"
   x1="250.59">
	<stop
   stop-color="#006B33"
   offset="0"
   id="stop118" />
	<stop
   stop-color="#00622F"
   offset=".1611"
   id="stop119" />
	<stop
   stop-color="#004923"
   offset=".4252"
   id="stop120" />
	<stop
   stop-color="#002210"
   offset=".7572"
   id="stop121" />
	<stop
   offset="1"
   id="stop122" />
</linearGradient>

<linearGradient
   id="XMLID_34_"
   y2="388.77"
   gradientUnits="userSpaceOnUse"
   x2="293.42"
   y1="384.44"
   x1="284.93">
	<stop
   stop-color="#006B33"
   offset="0"
   id="stop123" />
	<stop
   stop-color="#00622F"
   offset=".1611"
   id="stop124" />
	<stop
   stop-color="#004923"
   offset=".4252"
   id="stop125" />
	<stop
   stop-color="#002210"
   offset=".7572"
   id="stop126" />
	<stop
   offset="1"
   id="stop127" />
</linearGradient>


<linearGradient
   id="XMLID_35_"
   y2="412.95"
   gradientUnits="userSpaceOnUse"
   x2="247.27"
   y1="413.7"
   x1="240.52">
	<stop
   stop-color="#006B33"
   offset="0"
   id="stop128" />
	<stop
   stop-color="#00622F"
   offset=".1611"
   id="stop129" />
	<stop
   stop-color="#004923"
   offset=".4252"
   id="stop130" />
	<stop
   stop-color="#002210"
   offset=".7572"
   id="stop131" />
	<stop
   offset="1"
   id="stop132" />
</linearGradient>

<linearGradient
   id="XMLID_36_"
   y2="400.3"
   gradientUnits="userSpaceOnUse"
   x2="267.24"
   y1="400.05"
   x1="258.49">
	<stop
   stop-color="#006B33"
   offset="0"
   id="stop133" />
	<stop
   stop-color="#00622F"
   offset=".1611"
   id="stop134" />
	<stop
   stop-color="#004923"
   offset=".4252"
   id="stop135" />
	<stop
   stop-color="#002210"
   offset=".7572"
   id="stop136" />
	<stop
   offset="1"
   id="stop137" />
</linearGradient>

<linearGradient
   id="XMLID_37_"
   y2="398.44"
   gradientUnits="userSpaceOnUse"
   x2="277.54"
   y1="376.44"
   x1="269.87">
	<stop
   stop-color="#006B33"
   offset="0"
   id="stop138" />
	<stop
   stop-color="#00622F"
   offset=".1611"
   id="stop139" />
	<stop
   stop-color="#004923"
   offset=".4252"
   id="stop140" />
	<stop
   stop-color="#002210"
   offset=".7572"
   id="stop141" />
	<stop
   offset="1"
   id="stop142" />
</linearGradient>

<linearGradient
   id="XMLID_38_"
   y2="389.66"
   gradientUnits="userSpaceOnUse"
   x2="302.73"
   y1="367.65"
   x1="295.06">
	<stop
   stop-color="#006B33"
   offset="0"
   id="stop143" />
	<stop
   stop-color="#00622F"
   offset=".1611"
   id="stop144" />
	<stop
   stop-color="#004923"
   offset=".4252"
   id="stop145" />
	<stop
   stop-color="#002210"
   offset=".7572"
   id="stop146" />
	<stop
   offset="1"
   id="stop147" />
</linearGradient>

<linearGradient
   id="XMLID_39_"
   y2="383.67"
   gradientUnits="userSpaceOnUse"
   x2="319.92"
   y1="361.67"
   x1="312.26">
	<stop
   stop-color="#006B33"
   offset="0"
   id="stop148" />
	<stop
   stop-color="#00622F"
   offset=".1611"
   id="stop149" />
	<stop
   stop-color="#004923"
   offset=".4252"
   id="stop150" />
	<stop
   stop-color="#002210"
   offset=".7572"
   id="stop151" />
	<stop
   offset="1"
   id="stop152" />
</linearGradient>

	<path
   d="m132.45 296.53c10.003-6.937 23.95-14.141 27.211-26.979 2.951-11.613 1.042-21.915 2.17-33.333 0.708-7.168 6.227-6.801 12.15-9.299 9.974-4.206 20.633-11.884 31.847-11.899 17.989-0.025 52.923 15.775 62.637-9.071 7.896 5.469 14.996 8.679 20.845 16.449 3.304 4.39 5.145 9.575 8.606 13.254 4.884 5.191 12.666 8.979 18.063 14.05 6.201 5.826 11.881 12.767 16.552 19.963 7.998 12.32 15.415 25.141 18.798 39.535 5.23 22.252 9.11 52.796 0.353 74.502-4.293 10.641-4.69 16.049-16.017 17.497-9.252 1.184-17.76 2.204-27.819 3.669-11.721 1.707-26.918 0.277-36.685 7.501-6.93 5.125-16.118 10.393-21.965 16.582-6.328-1.71-15.642-2.844-21.468 0.17-10.302 5.327-19.061 14.038-29.294 19.774-2.516 1.41-9.247 6.97-12.116 5-2.485-1.705-1.16-8.967-1.153-11.512 0.013-4.743-0.255-8.285-2.167-12.645-2.729-6.222-7.196-10.596-11.166-16.023-5.461-7.468-8.391-9.589-17.516-11.315-10.353-1.958-18.671-1.911-29.166 1.781-4.318 1.519-27.762 11.219-30.548 5.534-2.153-4.393 13.017-17.766 15.751-20.666 6.17-6.546 12.436-13.116 18.92-19.352 7.149-6.875 8.976-16.006 4.723-24.778-6.84-14.13-18.06-36.92-1.53-48.38zm-32.39 108.01c-0.812 1.102-2.433 3.335-2.263 4.751 0.303 2.521 3.141 1.576 4.763 1.293 4.125-0.721 7.787-1.287 11.694-2.993 2.048-0.895 4.332-1.118 6.46-1.913 2.52-0.942 4.95-2.138 7.552-2.851 6.425-1.76 12.007-3.232 18.708-2.91 4.771 0.229 9.609 0.512 14.24 1.769 2.168 0.588 4.316 1.295 6.074 2.718 1.759 1.424 2.419 3.33 3.709 5.125 2.006 2.791 3.982 5.629 5.993 8.438 3.094 4.321 7.904 8.545 9.77 13.563 1.907 5.129 1.244 11.167 0.994 16.498-0.101 2.145-0.27 4.345 2.39 4.214 4.012-0.197 8.501-5.494 11.759-7.536 2.478-1.554 4.756-3.248 7.193-4.768 4.73-2.952 8.827-6.904 13.741-9.658 4.051-2.27 8.806-3.321 13.316-3.602 3.932-0.243 9.634-0.293 12.967 1.448 0.133 0.118 0.125 0.124-0.025 0.018-0.771-4.765 11.657-13.558 15.127-15.404 8.482-4.514 18.241-6.64 27.781-7.186 6.553-0.374 13.558-1.939 20.123-2.998 5.907-0.952 11.834-1.767 17.74-2.725 3.721-0.604 9.182 0.668 11.831-2.592 0.374 0.369 1.148 0.434 1.431 0.729-1.763-1.847 0.054-2.646 1.115-4.266 2.341-3.575 3.176-8.659 4.583-12.688 1.788-5.122 2.676-10.582 2.678-16.004 0.002-8.192 0.882-16.274 0.487-24.526-0.542-11.343-2.985-22.057-6.531-32.757-1.51-4.558-3.522-8.999-5.719-13.254-4.068-7.877-8.41-15.577-12.806-23.276-4.871-8.531-11.175-16.995-18.877-23.114-3.319-2.637-7.066-5.472-10.75-7.5-3.749-2.064-6.739-4.946-9.624-8.252-3.535-4.05-6.202-8.822-9.612-12.999-1.449-1.775-5.308-6.945-8.013-6.248-1.392 0.358-1.542 1.625-2.35 2.743-3.28 4.539-8.733 5.496-13.947 6.446-5.792 1.055-11.721 1.23-17.564 0.504-2.918-0.362-5.87-0.981-8.677-1.569-1.818-0.381-3.709-0.306-5.524-0.73-2.124-0.497-4.291-1.682-6.507-1.635-5.69 0.122-11.486-0.282-17.003 1.276-5.143 1.453-9.055 4.916-13.982 6.797-4.51 1.723-9.395 2.426-14 4.124-9.468 3.492-7.659 13.5-7.803 21.735-0.181 10.341 1.522 20.465-6.166 28.984-4.355 4.826-9.375 8.837-14.536 12.712-10.428 7.83-19.923 12.731-16.599 27.861 2.701 12.292 17.446 27.33 13 40.237-2.217 6.436-7.641 11.187-12.579 15.715-3.153 2.893-6.493 5.636-9.631 8.557-4.826 4.492-9.793 9.655-13.963 14.877-0.74 0.94-1.46 1.88-2.15 2.82z"
   fill="#F4A45B"
   id="path153"
   style="fill:#ff6600" />
	<path
   d="m0.5 76.73c2.83-0.528 7.563-0.355 10.36 0.316 2.041 0.49 5.254 3.469 7.163 1.379 1.417-1.552-0.201-4.639-0.342-6.341-0.217-2.626 0.175-4.025 0.81-6.636 1.501-6.179 1.587-12.623 3.01-18.824 1.499-6.535 1-10.119-2.478-15.973-1.871-3.151-13.856-17.884-8.11-20.583-0.265 4.166 1.679 8.245 3.589 11.974 2.728 5.325 10.155 10.943 10.924 16.951 0.391 3.05-1.581 7.212-2.539 9.978-1.948 5.618-3.463 11.247-4.01 17.181-0.912 9.901 5.565 24.481 16.868 25.637 6.733 0.689 11.099-2.934 17.944-2.215 8.463 0.888 16.479 4.034 24.897 4.067-0.233-7.639 4.102-14.592 1.897-21.626-2.393-7.633-8.875-12.996-13.113-19.538-4.416-6.817-10.258-10.568-16.759-15.447-3.147-2.362-12.075-6.247-12.562-10.398 3.268-2.127 9.315 5.119 12.075 6.776 2.642 1.586 8.421 7.431 11.878 6.199 2.605-0.928 3.333-11.702 3.934-14.815 1.613-8.358-0.073-16.387-0.205-24.762l3.917 0.003c3.075 9.774-1.412 28.742-0.911 36.756 0.282 4.492-1.417 7.626 0.407 12.243 1.682 4.26 4.634 7.979 7.351 11.616 3.284 4.397 4.9 7.018 8.569 1.579 2.7-4.002 4.522-8.214 5.122-13.082 0.685-5.564-2.877-18.03 2.188-22.038 3.429 5.169 0.027 11.866 2.212 17.347 4.294 0.473 7.935-3.497 11.836-4.375 0.372 2.98-2.408 3.22-4.409 4.576-2.396 1.623-3.881 3.466-5.514 5.863-8.563 12.564-14.195 28.369-5.029 42.524 9.263 14.305 33.753 18.285 49.248 16.801 5.006-0.479 23.447-1.957 20.184-9.939-1.376-3.366-4.544-6.281 1.198-7.273 5.329-0.921 4.647 3.771 6.29 7.299 3.203 6.88 12.026 8.347 18.895 6.487 3.92-1.061 7.209-3.6 9.68-6.773 1.762-2.263 3.013-4.688 4.204-7.292 1.148-2.512 2.475-4.768 2.821-7.509 0.381-3.009 1.358-5.882 1.574-8.947 0.188-2.674 0.17-5.252 0.103-7.922-0.037-1.494 0.062-3.003-0.174-4.486-0.244-1.532-1.146-2.315-1.658-3.656-0.644-1.683-1.272-3.34-1.991-4.992-2.104-4.838-5.215-9.277-8.328-13.502-2.021-2.744-4.806-4.95-6.591-7.763-0.961-1.514-0.024-4.405 2.265-3.808 1.667 0.435 2.253 3.416 2.841 4.683 1.136 2.449 2.753 4.649 4.063 7.002 0.56 1.005 1.538 3.594 2.534 4.231 1.013 0.646 1.057-0.423 1.372-1.42 0.401-1.272 0.591-3.092 1.609-4.062 0.675-0.643 1.349-0.808 1.771 0.173 0.531 1.234-0.599 1.842-1.239 2.68-2.166 2.837 0.095 7.892 1.384 10.688 0.669 1.453 1.94 5.797 3.696 6.162 1.664 0.346 2.835-3.83 3.358-4.868 1.03-2.043 2.229-4.061 3.23-6.121 2.636-5.421 6.202-10.524 9.468-15.552 3.193-4.917 5.618-11.147 3.363-16.938-1.998-5.131-6.801-12.011-10.093-16.389l2.649-0.008c1.609 3.171 5.171 8.856 7.114 11.834 0.77 1.179 0.808 2.729 2.198 3.263 1.535 0.589 1.637 0.407 2.071-0.818 1.353-3.813 2.624-7.605 4.267-11.339 1.549-3.523-0.334 0.685 0.967-2.94h4.606c-2.87 6.265-3.47 8.852-6.035 15.246-1.705 4.249-3.243 8.562-4.794 12.871-0.958 2.66-2.153 5.207-3.504 7.663-0.639 1.162-2.806 4.368-1.862 5.733 1.103 1.596 4.255-1.091 5.151-1.782 1.512-1.167 3.512-2.381 4.749-3.98 0.665-0.861 2.017-7.916 4.325-4 0.716 1.215 0.125 2.755 1.169 4.068 0.694 0.872 3.229 1.697 2.541 3.246-0.602 1.352-3.327 0.637-4.423 0.687-4.098 0.186-6.506 3.839-9.412 6.219-3.179 2.604-6.031 5.624-8.15 9.162-6.447 10.763-8.521 23.718-10.696 35.873-4.805 26.846 8.92 43.36 23.315 63.531 8.11 11.364 20.716 18.297 29.12 29.302 11.949 15.647 33.03 28.834 53.231 25.803 8.198-1.23 16.54-4.608 24.79-6.073 13.394-2.378 14.98 11.814 21.608 21.356 7.682 11.057 17.008 19.007 28.354 26.248 18.278 11.666 34.826 13.344 56.168 14.144 33.9 1.271 67.854 3.351 101.73 4.299 26.807 0.75 54.309 5.553 81.121 5.356 29.802-0.218 60.561-5.654 87.329-19.171 21.387-10.799 42.46-27.206 54.558-48.226 9.204-15.992 11.03-37.414 4.089-54.578-1.006-2.486-2.637-5.568-4.727-8.818-7.569-11.772-21.159-25.759-32.853-21.709-2.89 1.001-6.178 6.719-8.131 9.185-2.631 3.322-5.149 6.401-8 9.514-2.127 2.322-4.137 5.984-6.516 7.732-0.184-0.288-0.707-1.018-0.916-1.232 4.968-6.813 14.079-12.44 17.347-20.566-3.686-0.82-6.429 1.834-9.878 0.42 1.726-2.28 4.188-1.327 6.611-2.521 13.503-6.655-4.695-16.19-7.783-7.56-1.084 3.029 0.471 9.036-3.895 9.219 0.537-2.178 1.602-4.191 1.912-6.566 0.1-0.757 0.455-4.309 0.051-4.86-0.278-0.379-0.658-1.03-1.157-1.159-0.511-0.132-1.262 0.229-1.684 0.486-1.044 0.635-1.747 1.731-2.276 2.803-0.106 0.216-0.708 1.675-1.112 1.252-0.351-0.368 0.969-1.971 1.117-2.229 0.265-0.462 0.927-1.507 0.063-1.7-0.638-0.141-1.996 0.624-2.585 0.876-2.421 1.04-4.729 2.178-7.032 3.492-1.272 0.726-3.222 1.462-4.141 2.648-0.66 0.852-1.083 1.683-2.104 2.188-1.126 0.556-2.076-0.025-2.583-1.145-0.388-0.857-0.125-1.755 0.766-2.166 0.903-0.416 1.966-0.355 2.92-0.561 1.673-0.362 3.461-0.989 4.991-1.779 1.682-0.87 3.436-1.602 5.137-2.439 1.92-0.945 5.306-2.858 3.911-5.505-0.741-1.407-2.269-2.379-3.606-3.142-1.889-1.077-3.936-1.884-6.005-2.541-2.098-0.666-4.258-1.181-6.444-1.451-1.585-0.195-3.336-0.346-4.891 0.119-2.016 0.603-12.426 4.793-9.379-1.865 1.059-2.311 5.553-0.758 7.528-0.641 1.772 0.105 3.572 0.045 5.335 0.193 1.976 0.166 4.106 1.147 6.08 0.497-1.129 0.087-5.68-6.793-6.482-7.727-1.549-1.803-9.265-6.574-3.732-8.304 4.038-1.262 3.862 4.278 5.188 6.569 1.839 3.173 4.324 5.975 7.106 8.351 1.554 1.326 6.021 4.97 8.191 3.922-0.579-1.684-1.836-3.637-2.642-5.295 1.886 0.641 3.332 3.908 4.46 5.527 2.321 3.333 6.713 4.946 10.574 5.642 2.701 0.487 9.271 2.318 11.006-0.708 1.779-3.104-3.024-7.478-4.899-9.349-2.848-2.841-6.042-6.313-10.485-5.84-1.081 0.115-4.395 1.581-4.211-0.464 1.91-0.134 5.42 0.56 4.904-1.787-0.323-1.47-2.283-2.977-3.2-4.069-2.186-2.604-5.028-5.808-8.187-7.242-1.739-0.79-6.05-2.053-3.192-4.671 3.862-3.54 5.328 2.76 6.816 4.789 3.28 4.471 7.909 8.535 11.909 12.36 0.698 0.668 1.871 2.044 2.871 2.051 0.313-2.016-1.143-3.761-1.173-5.679 0.221-0.005 0.452 0.002 0.669 0.006 1.044 2.774 1.563 6.133 3.7 8.34 0.604 0.625 6.263 4.427 6.479 3.438 1.354-6.162-4.565-10.534-8.619-14.06-0.717-0.624-1.525-1.238-2.149-1.958-0.904-1.042-1.71-2.161-2.703-3.146-0.482-0.479-1.135-0.642-1.623-1.079-1.407-1.262 1.606-3.346 2.551-2.282 0.446 0.504 0.016 0.963 0.016 1.503-0.002 0.933 0.991 1.979 1.502 2.681 0.207 0.284 1.619 2.483 2.077 2.302 0.348-0.138-0.311-1.935-0.263-2.362 0.284 0.123 0.445 0.453 0.53 0.733 0.158 0.522 0.272 1.024 0.472 1.559 0.336 0.902 0.694 1.417 1.331 2.099 0.794 0.851 1.692 1.613 2.586 2.352 0.762 0.629 1.687 1.665 2.678 1.874 1.407 0.296 1.281-2.447 1.284-3.344 0.003-0.75-0.228-1.461-0.523-2.155-0.161-0.378-1.22-1.785-0.746-2.103 0.37 0.453 0.796 1.38 1.353 1.612 0.43-0.487 0.201-1.978 0.201-2.617 0-0.711-0.079-1.133-0.356-1.764-0.216-0.492-0.561-1.29-0.052-1.746 0.522-0.469 1.577-0.142 1.844 0.462 0.284 0.641-0.167 1.04-0.424 1.554-0.352 0.706-0.359 1.719-0.457 2.505-0.157 1.261-0.246 2.626-0.15 3.902 0.035 0.462 0.074 1.376 0.594 1.592 0.339-0.627 0.761-1.221 1.162-1.813 0.37-0.545 0.783-1.658 1.405-1.936 0.209 1.302-1.453 2.639-1.943 3.712-0.28 0.613-0.574 1.219-0.787 1.86-0.225 0.676-0.104 1.283 0.037 1.979 0.143 0.701 0.412 1.367 0.529 2.078 0.239 1.454 0.483 2.911 0.824 4.346 0.298 1.257 0.514 2.534 0.894 3.766 0.135 0.439 0.265 0.879 0.389 1.323 0.679 2.418 1.477 4.812 2.808 6.967 1.47 2.38 3.44 4.387 5.615 6.129 3.741 2.996 7.961 5.358 11.979 7.952 23.9 15.43 33.046 43.722 29.78 71.337-3.518 29.748-30.078 52.975-53.933 68.224-22.604 14.45-48.559 25.165-75.124 29.401-41.777 6.661-86.563 5.332-128.44 0.548-34.322-3.921-73.199-8.301-105.09 8.255-18.029 9.361-28.513 25.862-32.102 45.55-1.764 9.672-2.051 19.566-1.897 29.374 0.078 5.013-7.673 30.194-3.883 32.039 4.81 2.34 3.527-2.644 4.669-4.844 1.123-2.163 3.326-6.508 4.709-1.368 0.588 2.187-2.225 5.677-2.595 7.881 2.342 1.673 5.612 0.279 7.914-0.161 3.89-4.015 6.878-8.944 10.468-13.219 3.248-3.866 9.738-8.523 10.514-13.873 0.785-5.412-6.771-9.879-4.34-15.144 1.521-3.295 5.358-3.371 5.928 0.566-3.87 2.542-0.954 10.466 2.749 12.044 4.944-4.521 8.804-10.916 12.701-16.614 3.146-4.601 3.283-10.062 5.952-14.129 1.537-2.342 3.538-4.498 6.024-2.013 3.126 3.124-0.96 4.724-2.71 7.31-2.888 4.267-5.788 10.073-7.93 14.65 4.025-1.736 8.813-2.867 12.79-4.746 3.024-1.428 5.573-4.155 9.123-3.785 3.67 10.71-10.809 7.813-16.1 10.065-8.498 3.618-13.003 10.079-18.67 17.169-3.784 4.732-19.74 20.622-6.761 22.69 7.633 1.216 20.546-0.355 27.372-3.977 7.632-4.051 2.767-11.693 3.559-18.05 0.585-4.695 7.343-13.369 13.215-11.88 1.954 7.903-7.33 6.096-9.765 9.365-1.93 2.591 0.327 10.591 1.961 13.198 3.082 4.915 7.392 2.938 11.724 4.802 5.104 2.196 9.349 7.876 13.96 11.228-4.552 0.251-8.882-5.091-12.965-6.843-4.993-2.142-8.82-0.395-14.138 0.683-6.625 1.342-13.497 2.381-20.144 3.597-3.596 0.658-10.316 1.063-12.948 3.37 8.423 7.314 10.293 29.72 25.095 27.18 3.89-0.668 11.504-6.583 13.368 0.799 1.805 7.15-5.74 5.752-9.382 5.005-3.266-0.669-8.029 0.208-10.666-0.455-8.537-2.149-13.312-14.608-17.188-21.364-1.209-2.104-2.248-6.416-5.378-3.865 3.823 7.262-5.557 11.447-3.451 1.183 0.688-3.358 3.267-2.369 0-6.002-4.357-4.848-18.603-0.794-20.941 4.771-3.308 7.873 2.711 23.541 6.107 30.614 3.232 6.732 6.867 13.268 10.185 19.98 2.013 4.072 7.974 11.489 7.196 15.946-4.137-3.515-7.211-11.079-9.719-15.917-5.414-10.441-8.719-21.917-15.342-31.708-3.888 7.201-2.052 26.037-11.384 29.61 0.829-8.062 5.905-16.502 7.928-24.68 2.911-11.769-3.873-29.96-15.011-35.623-4.482-2.279-18.555-2.28-14.866 6.217 1.141 2.628 5.403 3.537 7.065 5.64 3.58 4.531 2.721 10.764-3.867 11.182-6.947 0.44-5.194-6.045-9.32-9.48-9.016-7.508-20.579 1.875-22.63 11.378-2.861 13.255 7.973 26.296 16.105 35.466 9.026 10.179 16.288 22.479 28.893 28.711 12.007 5.936 27.942-0.559 40.3-3.423 11.044-2.561 24.736-5.435 34.65-11.15 2.105-1.214 5.045-3.178 6-5.519 1.192-2.925-1.593-5.823-0.712-8.03 0.944-2.364 4.063-3.214 6.082-2 3.167 1.905 1.775 6.397 1.402 9.266 6.343 1.233 15.309-3.414 21.243-5.382 10.688-3.543 21.29-8.455 31.804-12.666 6.138-2.458 14.233-3.69 18.884-8.669 3.245-3.475 5.03-14.418 9.23-15.095-4.682 6.553-3.275 16.629-10.735 21.412-10.885 6.98-24.613 9.961-36.545 14.65-4.436 1.743-23.915 5.798-25.224 10.755-1.518 5.749 13.155 9.139 17.106 9.761 8.142 1.281 17.31-1.896 25.946-1.998-10.346 1.126-18.556 5.209-29.311 3.31-7.614-1.345-14.418-6.134-22.205-6.71-7.894-0.585-15.154 3.521-22.833 4.606-7.614 1.076-14.393 5.026-21.647 7.312-6.031 1.899-16.266 4.532-13.372 11.915 2.48 6.329 12.271 11.958 17.788 15.35 10.963 6.74 19.678 15.612 29.91 23.563 7.251 5.633 17.424 16.45 26.508 18.653 3.884 0.942 5.949-1.241 9.347-0.665 8.288 1.408 2.946 10.07-3.891 6.099 7.126 4.14 13.985 11.084 20.357 16.431-8.896 0.877-12.069-0.728-18.635-6.502-10.271-9.034-21.32-21.677-33.864-27.509-10.139-4.713-2.22 6.73 0.701 10.797 5.876 8.183 11.962 16.907 20.465 22.532-10.918 3.355-12.66-3.264-18.465-11.368-10.857-15.158-22.837-28.837-36.284-41.692-6.417-6.136-10.274-3.789-8.622 5.308 1.247 6.872 4.305 13.273 6.407 19.895 1.928 6.072 3.936 12.064 5.313 18.157 0.815 3.605 1.666 8.768 4.434 11.084-1.53-0.724-3.988-0.703-5.963-0.148 0.108-5.294-2.268-11.765-3.415-17.032-0.884-4.055-1.774-14.835-5.69-17.55-5.652-3.918-6.571 4.352-8.014 8.199-0.836 2.228-1.984 4.381-2.648 6.667-0.412 1.42-0.196 4.685-0.838 5.963-2.848 5.672-7.727 2.305-4.68-3.365 1.931-3.595 4.322-7.099 6.133-11.236 3.018-6.896 7.567-15.842 4.363-23.381-1.438-3.384-4.664-6.461-7.115-9.333-1.74-2.039-17.825-20.983-21.855-15.771-6.849 8.856-4.669 23.725-5.85 34.187-1.641 14.537-6.041 28.655-9.564 42.513h-1.868c2.066-11.464 6.946-23.908 1.87-33.055-6.477-11.669-26.02-11.62-35.983-15.014 14.477-1.873 24.196 7.671 37.093 7.199 5.042-9.398 7.259-20.808 4.097-31.06-1.348-4.371-3.812-20.399-9.987-11.64-2.748 3.897-4.384 12.045-10.18 4.626-1.512-1.937-2.993-6.47-0.983-8.531 1.504-1.542 4.535-0.633 6.46-1.506 8.417-3.813-2.62-15.538-6.259-19.34-5.105-5.334-11.023-9.9-16.239-15.142-3.28-3.296-9.841-9.673-7.298-0.281 1.209 4.467 6.987 10.942-2.167 11.516-4.706 0.295-11.66-4.701-10.032-10.082 0.544-1.798 3.223-3.097 4.043-4.632 4.32-8.09-3.828-17.804-10.972-20.824-7.611-3.218-16.275-3.038-24.356-3.824-12.9-1.256-26.976 0.313-38.661 6.092-7.871 3.893-14.725 6.658-23.354 8.389-9.225 1.85-22.465 4.23-28.203 12.73-4.85 7.186-8.379 21.063-7.212 29.516 8.424 5.052 20.944 12.238 31.117 10.713 9.79-1.469 21.157-2.669 30.209-7.015 5.01-2.406 8.87-5.042 13.079-8.404 5.023-4.013 12.27-8.049 17.546-1.731 7.196 8.62-9.145 5.719-11.342 6.056-7.044 1.082-12.081 7.547-18.438 10.271-9.471 4.06-20.008 4.855-29.605 8.575 4.142 1.708 7.308 5.022 11.661 6.312 3.902 1.156 6.306 1.775 9.782 4.482 6.43 5.008 14.961 7.126 22.371 10.22 5.022 2.097 9.795 3.15 14.564 5.716 6.123 3.294 12.744 5.773 19.368 7.768 6.231 1.875 11.431 6.046 17.195 9.146 7.29 3.92 12.768 10.291 20.406 13.869 3.25 1.522 10.346 4.004 8.387 9.387-1.719 4.724-6.033 0.36-7.875-1.764-4.476-5.16-7.954-9.559-13.878-13.4-11.804-7.653-25.189-12.822-38.623-16.748-8.979-2.625-18.137-4.634-27.022-7.577-4.434-1.468-8.806-3.147-12.987-5.237-3.41-1.704-6.855-4.711-10.921-3.975 0.16 2.988 3.221 5.762 1.365 8.797-3.954 6.462-7.865-0.87-8.444-4.373-0.739-4.466-0.232-7.472-3.868-10.609-4.726-4.078-10.05-6.494-15.797-8.416-6.518-2.18-12.196-6.389-18.74-8.597-2.631-0.888-7.106-2.732-9.635-0.512-2.045 1.797-1.35 6.575-1.339 8.999 0.016 3.88-0.218 8.27 0.864 12.174 1.319 4.76 4.742 9.29 8.098 12.56 4.428 4.315 8.758 8.161 13.014 12.778 5.184 5.625 11.378 8.91 17.023 13.601 4.99 4.147 1.253 15.194-4.633 10.549-1.55-1.224-1.693-3.824-2.492-5.524-1.222-2.599-3.099-4.868-4.887-7.137-2.994-3.802-6.579-7.89-10.685-10.51-2.119-1.352-4.893-2.611-7.06-3.74-1.342-0.699-2.542-2.075-4.253-1.999-6.836 0.307-3.386 13.753-2.481 17.367 2.275 9.094 9.352 16.368 16.016 22.793-6.696-0.001-15.699 2.636-22.039-0.107-4.373-1.894-5.148-6.359-6.845-10.359-0.791-1.864-2.415-6.971-4.557-7.658-2.506-0.805-2.053 0.694-3.869 2.029-3.139 2.308-11.086 4.252-10.887-2.567 0.073-2.495 2.922-4.248 4.562-5.611 4.618-3.84 7.067-6.395 8.375-12.504 0.98-4.575 6.247-31.765-4.442-24.996-7.341 4.648-13.573 10.792-19.896 16.692-11.625 10.849-24.838 19.371-36.215 30.809-1.873 1.883-12.315 13.345-10.686 4.634 0.774-4.138 10.642-9.33 13.665-11.952 7.66-6.646 14.182-14.476 21.767-21.2 7.264-6.439 15.498-10.573 22.018-18.057 3.536-4.058 6.703-8.672 9.412-13.313 5.625-9.637 9.05-19.944 11.438-31.01-7.499-2.084-6.422 11.762-12.923 7.271-2.585-1.785-3.006-6.373-1.065-8.887 1.85-2.396 5.604-2.121 8.012-3.477 8.56-4.819 14.501-18.438 17.163-27.4 1.556-5.24 3.127-11.097 2.861-16.586-0.776-16.027-17.236-23.85-31.26-25.818-11.785-1.656-30.985-0.047-42 5.85-26.681 14.286-28.336 43.348-35.758 69.311-2.969 10.384-7.119 20.342-9.831 30.816-0.909 3.514-0.643 15.691-3.483 17.85-6.717 5.104-4.409-7.184-3.183-10.167 4.445-10.813 7.749-21.871 11.316-33.034 4.579-14.329 10.163-30.276 9.854-45.474-0.526-25.963-33.372 3.083-40.909 10.403-4.443 4.316-7.646 9.992-12.562 13.491-3.962 2.819-7.773 0.579-11.548 2.851-2.591 1.56-5.317 3.369-8.136 5.389l0.002-4.414c8.104-7.866 14.79-15.949 15.974-22.968-4.633-1.889-10.127-2.846-15.975-3.502v-13.047c25.033-2.233 49.473-10.427 70.773-24.261 27.407-17.8 78.291-63.845 41.012-95.809-10.274-8.804-26.978-3.09-38.552-0.484-15.024 3.382-29.739 7.777-44.169 13.702-6.727 2.762-18.619 11.505-25.774 11.119-1.134-0.061-2.229-0.393-3.289-0.893v-16.433c1.08 0.484 2.159 0.911 3.24 1.254 5.978 1.896 12.162 0.045 17.829-2.243 2.849-1.15 4.953-3.164 8.096-3.776 3.831-0.746 8.304 0.974 12.075-0.124 4.561-1.328 11.237-7.005 15.003-10.052 2.75-2.224 16.004-9.229 17.061-11.974 1.602-4.162-12.471-16.037-16.92-18.098-6.961-3.226-16.333-2.645-24.203-4.952-9.489-2.782-21.333-6.51-29.219-12.63-0.92 0.714-2.07 0.995-2.964 1.753v-10.81c12.9 12.756 36.051 23.441 53.238 14.308 3.23 1.659 9.214 2.631 12.016 4.749 3.523 2.663 4.813 6.961 9.242 9.826 21.1 13.647 58.99 5.905 73.404-14.465 4.607-6.512 7.308-14.583 7.252-24.848-0.042-7.704-2.546-13.529 5.098-18.493 13.371-8.682 29.192-12.809 42.055-22.393 13.601-10.134 11.356-22.135 6.943-37.539-2.794-9.753-7.361-17.344-11.999-26-3.149-5.879-5.727-15.992-10.979-20.271-10.022-8.166-34.752 1.782-47.133 1.232-12.055-0.536-22.971-0.784-34.747 1.518-6.878 1.344-14.236 3.861-20.502 7.083-2.09 1.075-15.872 16.501-17.422 7.415-0.655-3.836 5.417-5.044 7.937-5.917 5.405-1.87 11.229-3.714 16.621-6.083 3.534-1.553 11.498-3.487 13.987-6.364 3.735-4.32-17.491-12.336-20.532-13.656-11.474-4.981-23.653-8.045-36.237-7.238-7.757 0.5-17.254 7.794-23.013 12.697-1.846 1.571-13.329 13.67-16.1 10.935-2.64-2.606 15.854-14.144 17.619-16.532 3.282-4.438 1.792-7.341-2.463-10.278-7.652-5.281-14.497-14.495-24.314-15.835m133.49 267.22c4.253 8.772 2.426 17.903-4.723 24.778-6.484 6.235-12.75 12.806-18.92 19.352-2.734 2.9-17.904 16.273-15.751 20.666 2.787 5.685 26.23-4.016 30.548-5.534 10.495-3.692 18.813-3.739 29.166-1.781 9.125 1.727 12.055 3.848 17.516 11.315 3.97 5.428 8.436 9.802 11.166 16.023 1.913 4.359 2.18 7.901 2.167 12.645-0.007 2.545-1.332 9.807 1.153 11.512 2.87 1.97 9.601-3.59 12.116-5 10.233-5.736 18.993-14.447 29.294-19.774 5.827-3.014 15.14-1.88 21.468-0.17 5.848-6.189 15.035-11.457 21.965-16.582 9.767-7.224 24.964-5.794 36.685-7.501 10.06-1.465 18.567-2.485 27.819-3.669 11.326-1.448 11.724-6.856 16.017-17.497 8.758-21.706 4.878-52.25-0.353-74.502-3.383-14.394-10.801-27.215-18.798-39.535-4.671-7.196-10.351-14.137-16.552-19.963-5.397-5.07-13.179-8.859-18.063-14.05-3.461-3.679-5.303-8.864-8.606-13.254-5.849-7.771-12.948-10.98-20.845-16.449-9.714 24.846-44.647 9.046-62.637 9.071-11.214 0.016-21.874 7.693-31.847 11.899-5.923 2.498-11.442 2.13-12.15 9.299-1.128 11.418 0.781 21.72-2.17 33.333-3.261 12.838-17.208 20.042-27.211 26.979-16.55 11.46-5.32 34.25 1.53 48.39z"
   fill="#A01515"
   id="path154"
   style="fill:#0000ff" />
<linearGradient
   id="XMLID_40_"
   y2="313.91"
   gradientUnits="userSpaceOnUse"
   x2="147.13"
   y1="313.91"
   x1="141.22">
	<stop
   stop-color="#CE9F0B"
   offset="0"
   id="stop154" />
	<stop
   stop-color="#CC9610"
   offset=".1694"
   id="stop155" />
	<stop
   stop-color="#C77D1E"
   offset=".4459"
   id="stop156" />
	<stop
   stop-color="#C15F2F"
   offset=".7191"
   id="stop157" />
	<stop
   stop-color="#774721"
   offset="1"
   id="stop158" />
</linearGradient>

<path
   d="m263.82 24.185c0.468 2.588 0.705 5.719 0.723 6.556 0.099 4.777-1.665 9.978-3.959 14.113-2.801 5.047-16.523 15.518-15.963 20.756 2.479-0.533 4.5-2.955 7.127-3.846 0.105 6.246-10.287 15.376-14.082 19.767-5.158 5.968-10.563 11.687-15.829 17.497-6.839 7.546-26.218 11.013-18.518 24.02 2.483 4.194 9.529 7.542 13.732 3.819 1.916-1.697 1.24-3.575 2.133-5.834 4.641-11.745 13.118-29.756 25.831-34.566 3.396 4.76-0.646 12.604 0.838 17.626 3.475-5.283 1.947-13.15 3.817-19.026 1.935-6.08 5.866-14.509 10.866-18.719 8.738-7.357 13.833 7.193 15.718 13.451 3.486 11.568 10.399 24.613 9.707 36.956-0.631 11.255-8.76 21.022-14.111 30.424-1.158 2.035-12.013 22.878-4.151 21.701 2.905-0.435 2.307-3.854 2.818-5.847 1.123-4.379 2.174-7.754 4.63-11.947 2.905-4.958 6.031-11.659 10.532-15.329 2.472-2.016 2.876-3.168 5.244-1.282 3.033 2.417 3.994 18.556 5.046 22.678 4.347 17.037 9.27 36.317 7.176 53.905-0.307 2.576-1.663 6.152-1.313 8.632 1.069 7.588 10.648 8.43 16.68 7.299 7.786-1.46 17.435-7.281 9.791-14.612-7.278-6.98-12.813-10.931-15.79-21.352-3.42-11.973-4.007-24.233-6.998-36.026-3.731-14.712-6.51-29.638-9.688-44.474-1.984-9.26-3.208-19.01-6.43-27.922-3.903-10.795-4.358-20.415-6.362-31.533-0.467-2.593-4.162-13.667-2.047-15.566 8.407-7.548 28.974 43.46 34.91 34.228 2.385-3.709-8.061-12.644-10.032-15.2-4.979-6.457-9.986-12.862-14.683-19.521-5.958-8.447-13.856-17.652-14.796-28.305-0.609-6.913-0.501-6.674-7.878-6.673-0.8 0-10.996 0.354-11.071 0 0.55 2.613 2.772 4.896 3.221 7.529 1.181 6.93-3.909 12.453-9.42 15.971-2.205 1.407-4.24 3.879-6.826 4.588-1.99 0.546-3.657-0.132-4.544 2.353-0.66 1.846-0.117 4.219 1.312 5.568 2.439 2.305 4.537 0.842 6.042-1.572 0.708-1.137 1.061-2.559 1.841-3.63 1.043-1.431 2.802-2.65 4.106-3.849 1.929-1.773 3.777-3.683 5.975-5.135 0.731-0.483 2.296-1.705 3.277-1.363 0.57 0.197 1.03 1.797 1.38 3.687z"
   fill="#F9C193"
   id="path159"
   style="fill:#ff0000" />

















<radialGradient
   id="XMLID_41_"
   gradientUnits="userSpaceOnUse"
   cy="335.21"
   cx="341.37"
   r="7.9057">
	<stop
   stop-color="#FFBF00"
   offset="0"
   id="stop175" />
	<stop
   stop-color="#C57B00"
   offset=".4326"
   id="stop176" />
	<stop
   stop-color="#8F0000"
   offset="1"
   id="stop177" />
</radialGradient>

<radialGradient
   id="XMLID_42_"
   gradientUnits="userSpaceOnUse"
   cy="236.53"
   cx="197.75"
   r="7.9057">
	<stop
   stop-color="#FFBF00"
   offset="0"
   id="stop178" />
	<stop
   stop-color="#C57B00"
   offset=".4326"
   id="stop179" />
	<stop
   stop-color="#8F0000"
   offset="1"
   id="stop180" />
</radialGradient>

<radialGradient
   id="XMLID_43_"
   gradientUnits="userSpaceOnUse"
   cy="354.03"
   cx="334.75"
   r="7.9057">
	<stop
   stop-color="#FFBF00"
   offset="0"
   id="stop181" />
	<stop
   stop-color="#C57B00"
   offset=".4326"
   id="stop182" />
	<stop
   stop-color="#8F0000"
   offset="1"
   id="stop183" />
</radialGradient>

<radialGradient
   id="XMLID_44_"
   gradientUnits="userSpaceOnUse"
   cy="231.03"
   cx="246.49"
   r="7.9057">
	<stop
   stop-color="#FFBF00"
   offset="0"
   id="stop184" />
	<stop
   stop-color="#C57B00"
   offset=".4326"
   id="stop185" />
	<stop
   stop-color="#8F0000"
   offset="1"
   id="stop186" />
</radialGradient>

<radialGradient
   id="XMLID_45_"
   gradientUnits="userSpaceOnUse"
   cy="240.03"
   cx="204"
   r="7.9057">
	<stop
   stop-color="#FFBF00"
   offset="0"
   id="stop187" />
	<stop
   stop-color="#C57B00"
   offset=".4326"
   id="stop188" />
	<stop
   stop-color="#8F0000"
   offset="1"
   id="stop189" />
</radialGradient>

<radialGradient
   id="XMLID_46_"
   gradientUnits="userSpaceOnUse"
   cy="416.77"
   cx="209.26"
   r="7.9057">
	<stop
   stop-color="#FFBF00"
   offset="0"
   id="stop190" />
	<stop
   stop-color="#C57B00"
   offset=".4326"
   id="stop191" />
	<stop
   stop-color="#8F0000"
   offset="1"
   id="stop192" />
</radialGradient>

<radialGradient
   id="XMLID_47_"
   gradientUnits="userSpaceOnUse"
   cy="351.03"
   cx="151.25"
   r="7.9057">
	<stop
   stop-color="#FFBF00"
   offset="0"
   id="stop193" />
	<stop
   stop-color="#C57B00"
   offset=".4326"
   id="stop194" />
	<stop
   stop-color="#8F0000"
   offset="1"
   id="stop195" />
</radialGradient>

<path
   d="m253.53 247.18c10.666 0.912 18.914 6.34 27.104 12.57 1.605 1.221 2.858 2.901 4.454 4.075 1.593 1.171 2.721 2.706 3.963 4.221 0.314 0.383 0.585 0.808 0.905 1.185 0.324 0.382 0.515 0.349 0.929 0.596 0.631 0.376 1.003 1.128 1.442 1.69 0.919 1.18 1.828 2.322 2.466 3.681 1.042 2.216 2.34 4.419 3.171 6.721 0.301 0.833 0.712 1.415 1.175 2.169 0.63 1.028 1.076 2.17 1.479 3.302 1.093 3.071 1.616 6.298 2.027 9.521 0.105 0.821 0.167 1.656 0.304 2.472 0.089 0.535 0.325 1.012 0.422 1.544 0.254 1.387 0.454 2.753 1.157 4.005 0.66 1.177 2.069 2.415 3.526 2.143 0.354-0.066 0.694-0.188 1.053-0.319 0.768-0.281 1.493-0.666 2.214-1.048 0.46-0.244 0.869-0.793 1.381-0.912 0.327 0.464 0.267 1.572 0.357 2.161 0.148 0.958 0.326 1.931 0.507 2.865 0.266 1.376 0.507 2.761 0.853 4.134 0.195 0.774 0.409 1.562 0.658 2.322 0.327 0.995 0.744 2.702 2.096 2.351 1.029-0.268 2.005-0.965 3.011-1.172 0.116 1.802 0.484 3.497 0.68 5.285 0.149 1.363 0.248 2.722 0.562 4.072 0.169 0.729 0.401 1.442 0.539 2.18 0.121 0.642 0.093 1.306 0.327 1.92 0.326 0.855 0.852 1.671 1.829 1.695 1.21 0.029 2.365-0.251 3.298-1.005 0.456 0.409 1.12 4.959 0.826 5.073 5.174-2.011 7.856-6.364 8.267-12.089 0.843-11.754-0.357-25.535-7.383-35.42-2.34-3.293-4.924-6.409-7.17-9.77-3.939-5.896-9.751-11.466-14.601-16.667-5.308-5.693-10.543-10.527-17.091-14.748-8.169-5.266-16.403-10.593-26.049-12.675-0.863-0.186-1.717-0.345-2.559-0.59-0.785-0.229-1.661-0.1-2.469-0.026-1.819 0.165-3.675 0.521-5.321 1.34-0.71 0.353-1.779 0.773-2.299 1.394-0.493 0.588 0.339 0.989 0.709 1.352 0.421 0.413 0.729 0.909 1.194 1.282 0.977 0.783 2.237 1.187 3.437 1.479 0.5 0.122 1.41 0.053 1.742 0.517-3.158 0.241-6.372-0.072-9.51 0.457-0.981 0.165-2.006 0.5-2.899 0.937-0.604 0.294-0.994 0.69-1.299 1.305-0.468 0.941-0.746 2.162 0.539 2.448 1.222 0.272 2.5-0.035 3.727-0.097 1.47-0.04 2.91-0.01 4.32 0.11z"
   fill="#301051"
   id="path195"
   style="fill:#ff2ad4" />







































<path
   d="m245.5 596.03c5.648-7.199 1.861-15.207-2.433-21.966-3.887-6.119-7.271-14.81-12.856-19.251-3.857-3.067-7.996-5.776-3.747-10.781 2.142-2.522 6.725-2.83 9.045-0.512 2.622 2.62 0.563 4.59 0.59 7.133 0.056 5.274 4.872 11.115 7.415 15.766 2.807 5.133 6.665 12.708 11.987 15.67 3.154-3.093 4.872-7.598 7.334-11.133 2.786-4.002 4.792-8.294 7.019-12.613 5.201-10.089 9.1-20.847 10.627-32.132 1.29-9.528-2.447-17.485-8.163-25.034-6.722-8.878 6.317-12.657 8.079-5.613-3.908 2.84-0.982 12.595-0.017 16.153 0.83 3.06 2.565 6.087 2.975 9.192 0.417 3.166-1.777 7.298 0.961 10.018 6.35-5.263 10.829-17.185 15.479-23.916 5.45-7.892 8.419-13.858 10.185-23.166 1.345-7.092 6.727-16.094 14.518-8.164 3.899 3.969 3.103 7.445-0.665 10.512-9.091 7.4-14.229 14.266-20.668 23.987-13.44 20.29-25.814 41.456-36.146 63.344-2.063 4.37-7.63 12.118-7.039 16.987 1.095 9.016 17.835 0.095 22.542-2.172 16.321-7.863 33.386-15.966 48.125-26.495 1.75-1.25 4.128-2.035 5.183-4.116 1.192-2.353-0.57-6.915 1.14-8.749 3.634-3.896 12.321 3.188 12.193 7.384-0.162 5.308-7.8 6.509-11.998 8.501-17.403 8.26-37.542 17.563-52 30.442"
   fill="#FCA454"
   id="path234"
   style="fill:#ff0000" />
<path
   d="m0.5 505.53c4.076-5.778 7.161-12.514 9.889-19 1.907-4.533 2.3-9.073 3.711-13.512 2.725-8.568 17.383-10.913 14.898 0.012-0.812 3.568-5.41 7.516-7.623 10.363-2.665 3.429-5.196 7.301-7.487 11.112-3.638 6.06-11.346 14.97-10.388 22.53 1.145 9.033 16.218-0.876 20.488-2.875 12.246-5.735 24.694-11.21 36.547-17.488 12.705-6.729 26.847-13.83 38.602-22.013 10.627-7.399 20.688-15.075 29.361-24.539 2.688-2.933 11.083-7.91 12.012-0.474 0.699 5.597-8.318 7.396-12.024 9.252-8.188 4.098-14.896 11.509-22.488 16.637-9.009 6.086-17.934 12.08-26.51 18.498-3.876 2.901-13.672 10.17-2.622 10.014 9.8-0.14 21.197-3.9 30.606-6.5 7.501-2.073 14.853-3.994 22.113-6.375 5.084-1.667 9.93-5.078 14.915-6.537 12.177-3.564 12.488 13.955 2.889 13.023-2.053-0.199-3.806-1.4-5.889-1.623-2.96-0.317-5.704 0.538-8.513 1.363-8.801 2.585-17.411 5.676-26.487 7.511-16.561 3.351-33.115 5.605-49.5 7.624-17.873 2.202-36.618 10.457-52 19.115-1.39 0.782-4.582 2.537-5 2.887"
   fill="#FCA454"
   id="path235"
   style="fill:#ff0000" />




<path
   d="m0 24.53c6.92 5.014 11.97 12.581 15.111 20.502 0.541 1.364 1.603 8.532 3.391 8.545 3.742 0.027-0.013-6.245-0.854-7.549-4.025-6.244-7.283-13.04-11.011-19.498-0.892-1.544-4.686-7.127-3.536-9.01 1.945-3.184 7.06 2.76 9.045 3.821 1.84-3.847-3.855-4.971-6.147-6.812-2.368-1.902-4.134-4.398-5.5-7"
   fill="#FF7F00"
   id="path246"
   style="fill:#cc0000" />
<path
   d="m42.5 0.53c0 7.172-0.979 13.606-2.635 20.536-0.747 3.121 0.845 9.464 3.147 3.964 2.078-4.965-2.618-22.028 6.6-21.398 5.527 0.377 10.071 8.551 12.512 12.536 0.459 0.75 1.969 4.611 2.988 4.773 3.112 0.496 1.037-3.323 0.375-4.311-2.223-3.314-6.75-5.748-9.472-9.1-1.814-2.233-4.609-5.316-5.015-7.5"
   fill="#FF7F00"
   id="path247"
   style="fill:#cc0000" />

















<linearGradient
   id="XMLID_48_"
   y2="23.095"
   gradientUnits="userSpaceOnUse"
   x2="463.08"
   y1="23.095"
   x1="259.41">
	<stop
   stop-color="#C9C9C9"
   offset="0"
   id="stop262" />
	<stop
   offset="1"
   id="stop263" />
</linearGradient>

<linearGradient
   id="XMLID_49_"
   y2="124.78"
   gradientUnits="userSpaceOnUse"
   x2="399.99"
   y1="124.78"
   x1="247.87">
	<stop
   stop-color="#B2B2B2"
   offset="0"
   id="stop264" />
	<stop
   stop-color="#B0B0B0"
   offset=".3086"
   id="stop265" />
	<stop
   stop-color="#A8A8A8"
   offset=".4602"
   id="stop266" />
	<stop
   stop-color="#9B9B9B"
   offset=".5775"
   id="stop267" />
	<stop
   stop-color="#888"
   offset=".6773"
   id="stop268" />
	<stop
   stop-color="#707070"
   offset=".7659"
   id="stop269" />
	<stop
   stop-color="#525252"
   offset=".8465"
   id="stop270" />
	<stop
   stop-color="#2F2F2F"
   offset=".9213"
   id="stop271" />
	<stop
   stop-color="#070707"
   offset=".9894"
   id="stop272" />
	<stop
   offset="1"
   id="stop273" />
</linearGradient>





































		
		
		
		
		
		
		
	
	
	
	
	
	
	
	
	
	
	
	
	
	
	
	
	
	
	
	
	
	
	
	
	
	
	
	
	
	
	
	
	
	
	
	
	
	
	
	
	
	
	
	
	
	
	
		
		
		
		
		
		
		
		
		
		
		
		
		
		
		
		
		
		
		
		
		
	
	
	
	
	
	
	
	
		
		
		
		
		
		
		
	
	
	
	
	
	
	
	
	
	
	
	
	
	
	
	
	
	
	
	
	
	
	
	
	
	
	
	
	
	
	
	
	
	
	
	
	
	
	
	
	
	
	
	
	
	
	
	
	
	
	
	
	
	
	
	
	
	
	
	
	
	
	
	
	
	
	
	
	
	
	
	
	
	
	
	
	
	
	
	
	
	
	
	
	
	
	
	
	
	
	
	
	
	
	
	
	
	
	
	
	
	
	
	
	
	
	
	
	
	
	
	
	
	
	
	
	
	
	
	
	
	
	
	



<linearGradient
   id="XMLID_50_"
   y2="398.37"
   gradientUnits="userSpaceOnUse"
   x2="675.95"
   y1="485.9"
   x1="580.14">
	<stop
   stop-color="#8F0000"
   offset="0"
   id="stop519" />
	<stop
   stop-color="#8D0101"
   offset=".4057"
   id="stop520" />
	<stop
   stop-color="#860505"
   offset=".5815"
   id="stop521" />
	<stop
   stop-color="#790B0B"
   offset=".7129"
   id="stop522" />
	<stop
   stop-color="#671514"
   offset=".8222"
   id="stop523" />
	<stop
   stop-color="#502120"
   offset=".9167"
   id="stop524" />
	<stop
   stop-color="#352F2E"
   offset="1"
   id="stop525" />
</linearGradient>



















	
	
	
	
<linearGradient
   id="XMLID_51_"
   y2="400.21"
   gradientUnits="userSpaceOnUse"
   x2="658.16"
   y1="473.12"
   x1="578.94">
	<stop
   stop-color="#fff"
   offset=".0056"
   id="stop545" />
	<stop
   stop-color="#ff0"
   offset=".5"
   id="stop546" />
	<stop
   stop-color="#FBFB01"
   offset=".5658"
   id="stop547" />
	<stop
   stop-color="#EFEE04"
   offset=".6351"
   id="stop548" />
	<stop
   stop-color="#DAD908"
   offset=".706"
   id="stop549" />
	<stop
   stop-color="#BDBB0F"
   offset=".7781"
   id="stop550" />
	<stop
   stop-color="#989517"
   offset=".8511"
   id="stop551" />
	<stop
   stop-color="#6B6722"
   offset=".9248"
   id="stop552" />
	<stop
   stop-color="#37312E"
   offset=".9979"
   id="stop553" />
	<stop
   stop-color="#352F2E"
   offset="1"
   id="stop554" />
</linearGradient>

<linearGradient
   id="XMLID_52_"
   y2="403.28"
   gradientUnits="userSpaceOnUse"
   x2="660.98"
   y1="476.19"
   x1="581.77">
	<stop
   stop-color="#fff"
   offset=".0056"
   id="stop555" />
	<stop
   stop-color="#ff0"
   offset=".5"
   id="stop556" />
	<stop
   stop-color="#FBFB01"
   offset=".5658"
   id="stop557" />
	<stop
   stop-color="#EFEE04"
   offset=".6351"
   id="stop558" />
	<stop
   stop-color="#DAD908"
   offset=".706"
   id="stop559" />
	<stop
   stop-color="#BDBB0F"
   offset=".7781"
   id="stop560" />
	<stop
   stop-color="#989517"
   offset=".8511"
   id="stop561" />
	<stop
   stop-color="#6B6722"
   offset=".9248"
   id="stop562" />
	<stop
   stop-color="#37312E"
   offset=".9979"
   id="stop563" />
	<stop
   stop-color="#352F2E"
   offset="1"
   id="stop564" />
</linearGradient>




		
		
		
		
		
		
		
		
		
		
		
		
		
		
<linearGradient
   id="XMLID_53_"
   y2="416.93"
   gradientUnits="userSpaceOnUse"
   x2="673.56"
   y1="489.41"
   x1="594.82">
	<stop
   stop-color="#fff"
   offset=".0056"
   id="stop580" />
	<stop
   stop-color="#ff0"
   offset=".5"
   id="stop581" />
	<stop
   stop-color="#FBFB01"
   offset=".5658"
   id="stop582" />
	<stop
   stop-color="#EFEE04"
   offset=".6351"
   id="stop583" />
	<stop
   stop-color="#DAD908"
   offset=".706"
   id="stop584" />
	<stop
   stop-color="#BDBB0F"
   offset=".7781"
   id="stop585" />
	<stop
   stop-color="#989517"
   offset=".8511"
   id="stop586" />
	<stop
   stop-color="#6B6722"
   offset=".9248"
   id="stop587" />
	<stop
   stop-color="#37312E"
   offset=".9979"
   id="stop588" />
	<stop
   stop-color="#352F2E"
   offset="1"
   id="stop589" />
</linearGradient>

<linearGradient
   id="XMLID_54_"
   y2="406.29"
   gradientUnits="userSpaceOnUse"
   x2="666.02"
   y1="479.4"
   x1="586.59">
	<stop
   stop-color="#fff"
   offset=".0056"
   id="stop590" />
	<stop
   stop-color="#ff0"
   offset=".5"
   id="stop591" />
	<stop
   stop-color="#FBFB01"
   offset=".5658"
   id="stop592" />
	<stop
   stop-color="#EFEE04"
   offset=".6351"
   id="stop593" />
	<stop
   stop-color="#DAD908"
   offset=".706"
   id="stop594" />
	<stop
   stop-color="#BDBB0F"
   offset=".7781"
   id="stop595" />
	<stop
   stop-color="#989517"
   offset=".8511"
   id="stop596" />
	<stop
   stop-color="#6B6722"
   offset=".9248"
   id="stop597" />
	<stop
   stop-color="#37312E"
   offset=".9979"
   id="stop598" />
	<stop
   stop-color="#352F2E"
   offset="1"
   id="stop599" />
</linearGradient>

	
	
	
	
	
	
	
	
	
	
	
	
	
	
	
	
	
	
	
	
	
	
	
	
	
	
	
	
	
	
	
	
	
<linearGradient
   id="XMLID_55_"
   y2="402.27"
   gradientUnits="userSpaceOnUse"
   x2="681.49"
   y1="481.88"
   x1="590.54">
	<stop
   stop-color="#FF7F00"
   offset="0"
   id="stop632" />
	<stop
   stop-color="#FB7D01"
   offset=".1324"
   id="stop633" />
	<stop
   stop-color="#EE7804"
   offset=".2731"
   id="stop634" />
	<stop
   stop-color="#D97009"
   offset=".4177"
   id="stop635" />
	<stop
   stop-color="#BB6410"
   offset=".565"
   id="stop636" />
	<stop
   stop-color="#955518"
   offset=".7143"
   id="stop637" />
	<stop
   stop-color="#664323"
   offset=".8632"
   id="stop638" />
	<stop
   stop-color="#352F2E"
   offset="1"
   id="stop639" />
</linearGradient>

	
	
	
	
	
	
	
	
	
	
	
	
	
	
	
	
	
	
	
	
	




















	
	
	
	
	
	
	
	
	
	
	
	
		
		
		
		
		
		
		
	
	
	
	
	
	
	
	
	
	
	
	
	
	
<path
   d="m819.18 84.78c-4.373 0.565-9.61 3.88-13.512 5.818-2.521 1.253-5.73 2.441-7.744 4.37-2.876 2.756-6.245 5.363-10.499 3.961-0.312-0.103-7.99-3.987-7.731-2.093 0.357 2.619 6.677 1.996 8.454 3.499-0.867 1.421-5.522 1.936-7.225 2.513-4.167 1.414-8.281 2.6-12.505 3.792-4.596 1.297-9.437 1.224-14.202 2.065-3.101 0.547-6.323 1.357-9.334 1.255-1.504-0.051-2.573-0.291-3.913 0.62 0.555 3.059 5.413 1.481 7.494 1.211 5.526-0.717 11.33-2.263 16.877-2.274-2.656 2.145-7.168 3.042-10.372 4.074-1.293 0.416-2.514 1.036-3.789 1.451-1.846 0.599-4.953 0.1-4.013 3.027 0.654 2.04 2.675 1.799 4.195 0.641 1.525-1.162 2.83-1.923 4.569-2.681 5.208-2.268 10.465-4.41 15.705-6.599 1.114-0.466 3.908-2.278 4.374-0.292 0.273 1.166-2.166 3.309-2.83 4.084-0.793 0.926-4.204 5.242-0.514 3.506 1.583-0.745 2.603-4.166 3.764-5.699 1.705-2.251 4.005-4.25 6.438-5.569 2.289-1.242 5.188-1.772 4.524 2.007-0.637 3.627-3.341 7.083-4.657 10.493-0.548 1.419-0.832 5.226 1.263 2.631 1.129-1.398 1.118-4.685 1.995-6.487 1.706 1.817 1.836 4.47 1.942 6.889 0.063 1.414-0.735 5.071 0.75 5.766 1.802-2.335 0.133-6.925-0.506-9.481-0.703-2.813-0.767-4.313 0.257-7.048 0.886-2.369 1.717-5.107 3.549-6.95 1.391-1.399 4.275-4.27 6.443-3.958 1.146 0.165 1.354 0.897 2.752 0.768 2.432-0.226 4.989-1.586 7.235-2.506 1.979-0.811 3.887-1.809 5.819-2.743 1.253-0.605 4.577-1.182 4.944-2.563"
   fill="#FCA454"
   id="path705"
   style="fill:#ff0000" />
	
	
	
	
	
	
	
	
	
	
	
		
		
		
		
		
		
		

<path
   d="m252.93 296.52c5.306 5.695 8.444 13.109 11.312 20.193 2.384 5.89 3.863 12.172 4.516 18.488 0.338 3.271 0.449 6.572 0.259 9.857-0.134 2.32 0.303 5.44-0.193 7.612-4.678-2.874-9.179-6.572-13.643-9.583-2.521-1.7-5.782-3.36-8.549-4.624-4.478-2.045-7.937-5.39-12.514-7.382-1.776-0.773-4.975-1.411-5.415-3.672-0.463-2.377 1.494-6.594 2.081-8.924 0.744-2.953 2.617-5.592 3.608-8.468 1.368-3.973 2.458-8.031 3.675-12.05 0.753-2.487 0.971-9.382 3.879-9.281 3.89 0.13 8.52 5.2 10.97 7.82z"
   fill="#D1800B"
   id="path724"
   style="fill:#ffff00" />
<linearGradient
   id="XMLID_56_"
   y2="380.61"
   gradientUnits="userSpaceOnUse"
   x2="315.27"
   y1="380"
   x1="300.91">
	<stop
   stop-color="#006B33"
   offset="0"
   id="stop724" />
	<stop
   stop-color="#00622F"
   offset=".1611"
   id="stop725" />
	<stop
   stop-color="#004923"
   offset=".4252"
   id="stop726" />
	<stop
   stop-color="#002210"
   offset=".7572"
   id="stop727" />
	<stop
   offset="1"
   id="stop728" />
</linearGradient>

<linearGradient
   id="XMLID_57_"
   y2="304.44"
   gradientUnits="userSpaceOnUse"
   x2="182.75"
   y1="304.44"
   x1="169.55">
	<stop
   stop-color="#CE9F0B"
   offset="0"
   id="stop729" />
	<stop
   stop-color="#CC9610"
   offset=".1694"
   id="stop730" />
	<stop
   stop-color="#C77D1E"
   offset=".4459"
   id="stop731" />
	<stop
   stop-color="#C15F2F"
   offset=".7191"
   id="stop732" />
	<stop
   stop-color="#774721"
   offset="1"
   id="stop733" />
</linearGradient>

<linearGradient
   id="XMLID_58_"
   y2="296.29"
   gradientUnits="userSpaceOnUse"
   x2="162.17"
   y1="296.29"
   x1="144.3">
	<stop
   stop-color="#CE9F0B"
   offset="0"
   id="stop734" />
	<stop
   stop-color="#CC9610"
   offset=".1694"
   id="stop735" />
	<stop
   stop-color="#C77D1E"
   offset=".4459"
   id="stop736" />
	<stop
   stop-color="#C15F2F"
   offset=".7191"
   id="stop737" />
	<stop
   stop-color="#774721"
   offset="1"
   id="stop738" />
</linearGradient>




	
	
	
		
<linearGradient
   id="XMLID_59_"
   y2="291.62"
   gradientUnits="userSpaceOnUse"
   x2="183.45"
   y1="291.62"
   x1="148.34">
	<stop
   stop-color="#CE9F0B"
   offset="0"
   id="stop745" />
	<stop
   stop-color="#CC9610"
   offset=".1694"
   id="stop746" />
	<stop
   stop-color="#C77D1E"
   offset=".4459"
   id="stop747" />
	<stop
   stop-color="#C15F2F"
   offset=".7191"
   id="stop748" />
	<stop
   stop-color="#774721"
   offset="1"
   id="stop749" />
</linearGradient>

<linearGradient
   id="XMLID_60_"
   y2="286.25"
   gradientUnits="userSpaceOnUse"
   x2="174.39"
   y1="286.25"
   x1="148.47">
	<stop
   stop-color="#CE9F0B"
   offset="0"
   id="stop750" />
	<stop
   stop-color="#CC9610"
   offset=".1694"
   id="stop751" />
	<stop
   stop-color="#C77D1E"
   offset=".4459"
   id="stop752" />
	<stop
   stop-color="#C15F2F"
   offset=".7191"
   id="stop753" />
	<stop
   stop-color="#774721"
   offset="1"
   id="stop754" />
</linearGradient>

<linearGradient
   id="XMLID_61_"
   y2="276.2"
   gradientUnits="userSpaceOnUse"
   x2="166.71"
   y1="276.2"
   x1="164.65">
	<stop
   stop-color="#CE9F0B"
   offset="0"
   id="stop755" />
	<stop
   stop-color="#CC9610"
   offset=".1694"
   id="stop756" />
	<stop
   stop-color="#C77D1E"
   offset=".4459"
   id="stop757" />
	<stop
   stop-color="#C15F2F"
   offset=".7191"
   id="stop758" />
	<stop
   stop-color="#774721"
   offset="1"
   id="stop759" />
</linearGradient>

<path
   d="m236.57 287.46c0.317 0.108 4.63 1.772 4.573 0.858 0.202 3.198 0.008 6.477-0.211 9.641-0.249 3.578-0.371 7.164-0.436 10.75-0.055 3.058 0.707 7.209-0.033 10.144-0.38 1.51-0.478 1.242-2.066 2.064-1.282 0.663-2.446 1.472-3.514 2.444-1.907 1.737-3.485 3.909-4.536 6.266-0.463 1.039-0.844 2.137-0.991 3.27-0.119 0.909 0.393 2.396 0.174 3.16-0.58 2.027-5.545 2.562-7.565 3.271-3.995 1.404-7.872 2.869-11.805 4.407-2.644 1.034-5.53 2.285-8.216 3.104-1.466 0.446-2.533-0.063-3.666-0.914-1.185-0.891-2.312-1.865-3.155-3.101-2.51-3.675-2.548-8.52-2.622-12.798-0.245-14.352 6.823-28.373 19.029-36.513 5.859-3.907 13.033-7.617 20.296-6.966 1.19 0.12 3.09 0.36 4.74 0.92z"
   fill="#FFC200"
   id="path760"
   style="fill:#ffff00" />
<radialGradient
   id="XMLID_62_"
   gradientUnits="userSpaceOnUse"
   cy="265.03"
   cx="309.75"
   r="7.9057">
	<stop
   stop-color="#FFBF00"
   offset="0"
   id="stop760" />
	<stop
   stop-color="#C57B00"
   offset=".4326"
   id="stop761" />
	<stop
   stop-color="#8F0000"
   offset="1"
   id="stop762" />
</radialGradient>








<path
   d="m230.21 330c-0.884 2.138-0.335 4.963-0.821 7.241-4.895 2.271-10.227 4.5-15.444 6.092-2.349 0.717-4.646 1.563-6.964 2.394-0.901 0.323-5.18 1.157-5.636 2.013-1.056-2.856 0.007-7.476 0.569-10.403 0.71-3.697 1.792-7.322 3.179-10.821 2.798-7.063 6.836-13.682 11.935-19.32 3.993-4.415 7.844-8.311 12.745-11.751 3.144-2.207 7.683-6.52 11.656-6.85 0.516 7.847-0.42 22.439-0.964 30.266-0.095 1.37-2.051 1.514-2.937 2.143-1.668 1.185-3.307 2.732-4.629 4.304-1.15 1.35-2.03 3.07-2.7 4.7z"
   fill="#FFA300"
   id="path768"
   style="fill:#ffff00" />
<path
   d="m 252.80519,316.94007 c -2.06746,-5.22064 -6.35434,-13.60646 -12.81866,-14.01435 -3.55907,-0.22394 -7.80397,2.82526 -10.41329,5.0007 -3.20116,2.6653 -5.85847,5.96644 -8.09589,9.46553 -2.51734,3.93498 -3.77702,8.36382 -4.92472,12.84266 -2.24341,8.76572 -2.2774,11.60698 7.03217,14.9721 7.23412,2.61932 15.11007,2.61332 22.69209,2.17343 5.70452,-0.32991 10.91316,-0.048 11.35904,-7.21212 0.41989,-6.99818 -2.2794,-16.73564 -4.83874,-23.21395 z"
   fill="#117F36"
   id="path769"
   style="fill:#00cc00;stroke-width:1.99948" />
	
	
	
	
	
	
	
	
	
	
	
	
	
	
	
	
	
	
	
	

	
	
	
	
	
	
	
	
	
	
	
	
	
	
	
	
	
	
	
	
	
	
	
	

</svg>
