<svg xmlns="http://www.w3.org/2000/svg" xmlns:xlink="http://www.w3.org/1999/xlink" contentStyleType="text/css" data-diagram-type="CLASS" height="538px" preserveAspectRatio="none" style="width:1122px;height:538px;" version="1.1" viewBox="0 0 1122 538" width="1122px" zoomAndPan="magnify"><defs/><g><!--class IEvo--><g class="entity" data-entity="IEvo" data-source-line="13" data-uid="ent0002" id="entity_IEvo"><rect fill="#F1F1F1" height="86.1358" rx="2.5" ry="2.5" style="stroke:#181818;stroke-width:0.5;" width="264.209" x="232.5" y="7"/><ellipse cx="347.2786" cy="23" fill="#FFFFFF" rx="11" ry="11" style="stroke:#181818;stroke-width:1;"/><path d="M343.2004,18.7656 L343.2004,16.6094 L350.5911,16.6094 L350.5911,18.7656 L348.1223,18.7656 L348.1223,26.8438 L350.5911,26.8438 L350.5911,29 L343.2004,29 L343.2004,26.8438 L345.6692,26.8438 L345.6692,18.7656 L343.2004,18.7656 Z " fill="#000000"/><text fill="#000000" font-family="sans-serif" font-size="14" font-style="italic" lengthAdjust="spacing" textLength="26.1519" x="367.7786" y="28.432">IEvo</text><line style="stroke:#181818;stroke-width:0.5;" x1="233.5" x2="495.709" y1="39" y2="39"/><line style="stroke:#181818;stroke-width:0.5;" x1="233.5" x2="495.709" y1="47" y2="47"/><ellipse cx="243.5" cy="62.034" fill="#84BE84" rx="3" ry="3" style="stroke:#038048;stroke-width:1;"/><text fill="#000000" font-family="sans-serif" font-size="14" lengthAdjust="spacing" text-decoration="underline" textLength="210.4332" x="252.5" y="65.9659">evo_version() -&gt; TypeEvoVersion</text><ellipse cx="243.5" cy="81.1019" fill="#84BE84" rx="3" ry="3" style="stroke:#038048;stroke-width:1;"/><text fill="#000000" font-family="sans-serif" font-size="14" lengthAdjust="spacing" textLength="238.209" x="252.5" y="85.0339">get_evo_version() -&gt; TypeEvoVersion</text></g><!--class ID--><g class="entity" data-entity="ID" data-source-line="18" data-uid="ent0003" id="entity_ID"><rect fill="#F1F1F1" height="86.1358" rx="2.5" ry="2.5" style="stroke:#181818;stroke-width:0.5;" width="140.5895" x="232" y="153"/><ellipse cx="271.4221" cy="169" fill="#FFFFFF" rx="11" ry="11" style="stroke:#181818;stroke-width:1;"/><path d="M267.344,164.7656 L267.344,162.6094 L274.7346,162.6094 L274.7346,164.7656 L272.2659,164.7656 L272.2659,172.8438 L274.7346,172.8438 L274.7346,175 L267.344,175 L267.344,172.8438 L269.8127,172.8438 L269.8127,164.7656 L267.344,164.7656 Z " fill="#000000"/><text fill="#000000" font-family="sans-serif" font-size="14" font-style="italic" lengthAdjust="spacing" textLength="13.8739" x="290.8492" y="174.432">ID</text><rect fill="#FFFFFF" height="18.3441" style="stroke:#181818;stroke-width:1;stroke-dasharray:2.0,2.0;" width="38.4442" x="337.1453" y="150"/><text fill="#000000" font-family="sans-serif" font-size="12" font-style="italic" lengthAdjust="spacing" textLength="36.4442" x="338.1453" y="163.8281">TypeID</text><line style="stroke:#181818;stroke-width:0.5;" x1="233" x2="371.5895" y1="185" y2="185"/><line style="stroke:#181818;stroke-width:0.5;" x1="233" x2="371.5895" y1="193" y2="193"/><ellipse cx="243" cy="208.034" fill="#84BE84" rx="3" ry="3" style="stroke:#038048;stroke-width:1;"/><text fill="#000000" font-family="sans-serif" font-size="14" lengthAdjust="spacing" textLength="114.5895" x="252" y="211.9659">get_id() -&gt; TypeID</text><ellipse cx="243" cy="227.1019" fill="#84BE84" rx="3" ry="3" style="stroke:#038048;stroke-width:1;"/><text fill="#000000" font-family="sans-serif" font-size="14" lengthAdjust="spacing" textLength="112.5036" x="252" y="231.0339">set_id(id: TypeID)</text></g><!--class ITime--><g class="entity" data-entity="ITime" data-source-line="23" data-uid="ent0004" id="entity_ITime"><rect fill="#F1F1F1" height="86.1358" rx="2.5" ry="2.5" style="stroke:#181818;stroke-width:0.5;" width="190.7793" x="480" y="153"/><ellipse cx="553.9407" cy="169" fill="#FFFFFF" rx="11" ry="11" style="stroke:#181818;stroke-width:1;"/><path d="M549.8626,164.7656 L549.8626,162.6094 L557.2532,162.6094 L557.2532,164.7656 L554.7845,164.7656 L554.7845,172.8438 L557.2532,172.8438 L557.2532,175 L549.8626,175 L549.8626,172.8438 L552.3314,172.8438 L552.3314,164.7656 L549.8626,164.7656 Z " fill="#000000"/><text fill="#000000" font-family="sans-serif" font-size="14" font-style="italic" lengthAdjust="spacing" textLength="34.3979" x="574.4407" y="174.432">ITime</text><line style="stroke:#181818;stroke-width:0.5;" x1="481" x2="669.7793" y1="185" y2="185"/><line style="stroke:#181818;stroke-width:0.5;" x1="481" x2="669.7793" y1="193" y2="193"/><ellipse cx="491" cy="208.034" fill="#84BE84" rx="3" ry="3" style="stroke:#038048;stroke-width:1;"/><text fill="#000000" font-family="sans-serif" font-size="14" lengthAdjust="spacing" textLength="149.4354" x="500" y="211.9659">get_time() -&gt; TypeTime</text><ellipse cx="491" cy="227.1019" fill="#84BE84" rx="3" ry="3" style="stroke:#038048;stroke-width:1;"/><text fill="#000000" font-family="sans-serif" font-size="14" lengthAdjust="spacing" textLength="164.7793" x="500" y="231.0339">set_time(time: TypeTime)</text></g><!--class IEntity--><g class="entity" data-entity="IEntity" data-source-line="27" data-uid="ent0005" id="entity_IEntity"><rect fill="#09B620" height="105.2038" rx="2.5" ry="2.5" style="stroke:#181818;stroke-width:0.5;" width="229.0272" x="312" y="308.5"/><ellipse cx="382.3996" cy="324.5" fill="#09B620" rx="11" ry="11" style="stroke:#181818;stroke-width:1;"/><path d="M378.3214,320.2656 L378.3214,318.1094 L385.7121,318.1094 L385.7121,320.2656 L383.2433,320.2656 L383.2433,328.3438 L385.7121,328.3438 L385.7121,330.5 L378.3214,330.5 L378.3214,328.3438 L380.7902,328.3438 L380.7902,320.2656 L378.3214,320.2656 Z " fill="#000000"/><text fill="#000000" font-family="sans-serif" font-size="14" font-style="italic" lengthAdjust="spacing" textLength="39.2838" x="402.8996" y="329.932">IEntity</text><rect fill="#FFFFFF" height="18.3441" style="stroke:#181818;stroke-width:1;stroke-dasharray:2.0,2.0;" width="38.4442" x="505.583" y="305.5"/><text fill="#000000" font-family="sans-serif" font-size="12" font-style="italic" lengthAdjust="spacing" textLength="36.4442" x="506.583" y="319.3281">TypeID</text><line style="stroke:#181818;stroke-width:0.5;" x1="313" x2="540.0272" y1="340.5" y2="340.5"/><line style="stroke:#181818;stroke-width:0.5;" x1="313" x2="540.0272" y1="348.5" y2="348.5"/><ellipse cx="323" cy="363.534" fill="#84BE84" rx="3" ry="3" style="stroke:#038048;stroke-width:1;"/><text fill="#000000" font-family="sans-serif" font-size="14" lengthAdjust="spacing" textLength="139.0334" x="332" y="367.4659">to_bytes() -&gt; Vec&lt;u8&gt;</text><ellipse cx="323" cy="382.6019" fill="#84BE84" rx="3" ry="3" style="stroke:#038048;stroke-width:1;"/><text fill="#000000" font-family="sans-serif" font-size="14" lengthAdjust="spacing" textLength="203.0272" x="332" y="386.5339">from_bytes(data: BYTES) -&gt; Self</text><ellipse cx="323" cy="401.6698" fill="#84BE84" rx="3" ry="3" style="stroke:#038048;stroke-width:1;"/><text fill="#000000" font-family="sans-serif" font-size="14" lengthAdjust="spacing" textLength="125.7475" x="332" y="405.6018">to_string() -&gt; String</text></g><!--class IAiEntity--><g class="entity" data-entity="IAiEntity" data-source-line="33" data-uid="ent0006" id="entity_IAiEntity"><rect fill="#FFA600" height="124.2717" rx="2.5" ry="2.5" style="stroke:#181818;stroke-width:0.5;" width="210.0573" x="576.5" y="299"/><ellipse cx="651.8968" cy="315" fill="#FFA600" rx="11" ry="11" style="stroke:#181818;stroke-width:1;"/><path d="M647.8186,310.7656 L647.8186,308.6094 L655.2093,308.6094 L655.2093,310.7656 L652.7405,310.7656 L652.7405,318.8438 L655.2093,318.8438 L655.2093,321 L647.8186,321 L647.8186,318.8438 L650.2874,318.8438 L650.2874,310.7656 L647.8186,310.7656 Z " fill="#000000"/><text fill="#000000" font-family="sans-serif" font-size="14" font-style="italic" lengthAdjust="spacing" textLength="50.7638" x="672.3968" y="320.432">IAiEntity</text><line style="stroke:#181818;stroke-width:0.5;" x1="577.5" x2="785.5573" y1="331" y2="331"/><line style="stroke:#181818;stroke-width:0.5;" x1="577.5" x2="785.5573" y1="339" y2="339"/><ellipse cx="587.5" cy="354.034" fill="#84BE84" rx="3" ry="3" style="stroke:#038048;stroke-width:1;"/><text fill="#000000" font-family="sans-serif" font-size="14" lengthAdjust="spacing" text-decoration="underline" textLength="125.2715" x="596.5" y="357.9659">get_ai_id() -&gt; String</text><ellipse cx="587.5" cy="373.1019" fill="#84BE84" rx="3" ry="3" style="stroke:#038048;stroke-width:1;"/><text fill="#000000" font-family="sans-serif" font-size="14" lengthAdjust="spacing" text-decoration="underline" textLength="163.9674" x="596.5" y="377.0339">get_ai_schema() -&gt; String</text><ellipse cx="587.5" cy="392.1698" fill="#84BE84" rx="3" ry="3" style="stroke:#038048;stroke-width:1;"/><text fill="#000000" font-family="sans-serif" font-size="14" lengthAdjust="spacing" textLength="98.7976" x="596.5" y="396.1018">to_ai() -&gt; String</text><ellipse cx="587.5" cy="411.2377" fill="#84BE84" rx="3" ry="3" style="stroke:#038048;stroke-width:1;"/><text fill="#000000" font-family="sans-serif" font-size="14" lengthAdjust="spacing" text-decoration="underline" textLength="184.0573" x="596.5" y="415.1697">from_ai(str_ai: String) -&gt; Self</text></g><!--class EPeerCertificate--><g class="entity" data-entity="EPeerCertificate" data-source-line="40" data-uid="ent0007" id="entity_EPeerCertificate"><rect fill="#09B620" height="48" rx="2.5" ry="2.5" style="stroke:#181818;stroke-width:0.5;" width="136.9716" x="153" y="483"/><ellipse cx="168" cy="499" fill="#F1F1F1" rx="11" ry="11" style="stroke:#181818;stroke-width:1;"/><path d="M167.4844,499.5625 Q165.625,498.8594 164.9688,498.0938 Q164.3281,497.3125 164.3281,496 Q164.3281,494.3125 165.4063,493.3438 Q166.4844,492.375 168.3594,492.375 Q169.2188,492.375 170.0625,492.5781 Q170.9219,492.7656 171.7656,493.1563 L171.7656,495.5469 Q170.9844,494.9844 170.1563,494.7031 Q169.3438,494.4063 168.5469,494.4063 Q167.6719,494.4063 167.1875,494.7656 Q166.7188,495.125 166.7188,495.7813 Q166.7188,496.2969 167.0625,496.6406 Q167.4063,496.9688 168.5,497.375 L169.5625,497.7813 Q171.0469,498.3281 171.75,499.2344 Q172.4688,500.1406 172.4688,501.5156 Q172.4688,503.3906 171.3594,504.3125 Q170.25,505.2344 168,505.2344 Q167.0781,505.2344 166.1563,505.0156 Q165.2344,504.7969 164.375,504.375 L164.375,501.8438 Q165.3438,502.5313 166.2656,502.875 Q167.1875,503.2188 168.0781,503.2188 Q168.9844,503.2188 169.4844,502.8125 Q169.9844,502.3906 169.9844,501.6563 Q169.9844,501.0938 169.6406,500.6875 Q169.3125,500.2656 168.6875,500.0156 L167.4844,499.5625 Z " fill="#000000"/><text fill="#000000" font-family="sans-serif" font-size="14" lengthAdjust="spacing" textLength="104.9716" x="182" y="504.432">EPeerCertificate</text><line style="stroke:#181818;stroke-width:0.5;" x1="154" x2="288.9716" y1="515" y2="515"/><line style="stroke:#181818;stroke-width:0.5;" x1="154" x2="288.9716" y1="523" y2="523"/></g><!--class EPeerCertificateMap--><g class="entity" data-entity="EPeerCertificateMap" data-source-line="44" data-uid="ent0010" id="entity_EPeerCertificateMap"><rect fill="#09B620" height="48" rx="2.5" ry="2.5" style="stroke:#181818;stroke-width:0.5;" width="166.1335" x="325.5" y="483"/><ellipse cx="340.5" cy="499" fill="#F1F1F1" rx="11" ry="11" style="stroke:#181818;stroke-width:1;"/><path d="M339.9844,499.5625 Q338.125,498.8594 337.4688,498.0938 Q336.8281,497.3125 336.8281,496 Q336.8281,494.3125 337.9063,493.3438 Q338.9844,492.375 340.8594,492.375 Q341.7188,492.375 342.5625,492.5781 Q343.4219,492.7656 344.2656,493.1563 L344.2656,495.5469 Q343.4844,494.9844 342.6563,494.7031 Q341.8438,494.4063 341.0469,494.4063 Q340.1719,494.4063 339.6875,494.7656 Q339.2188,495.125 339.2188,495.7813 Q339.2188,496.2969 339.5625,496.6406 Q339.9063,496.9688 341,497.375 L342.0625,497.7813 Q343.5469,498.3281 344.25,499.2344 Q344.9688,500.1406 344.9688,501.5156 Q344.9688,503.3906 343.8594,504.3125 Q342.75,505.2344 340.5,505.2344 Q339.5781,505.2344 338.6563,505.0156 Q337.7344,504.7969 336.875,504.375 L336.875,501.8438 Q337.8438,502.5313 338.7656,502.875 Q339.6875,503.2188 340.5781,503.2188 Q341.4844,503.2188 341.9844,502.8125 Q342.4844,502.3906 342.4844,501.6563 Q342.4844,501.0938 342.1406,500.6875 Q341.8125,500.2656 341.1875,500.0156 L339.9844,499.5625 Z " fill="#000000"/><text fill="#000000" font-family="sans-serif" font-size="14" lengthAdjust="spacing" textLength="134.1335" x="354.5" y="504.432">EPeerCertificateMap</text><line style="stroke:#181818;stroke-width:0.5;" x1="326.5" x2="490.6335" y1="515" y2="515"/><line style="stroke:#181818;stroke-width:0.5;" x1="326.5" x2="490.6335" y1="523" y2="523"/></g><!--class EPeerId--><g class="entity" data-entity="EPeerId" data-source-line="48" data-uid="ent0013" id="entity_EPeerId"><rect fill="#09B620" height="48" rx="2.5" ry="2.5" style="stroke:#181818;stroke-width:0.5;" width="83.1838" x="527" y="483"/><ellipse cx="542" cy="499" fill="#F1F1F1" rx="11" ry="11" style="stroke:#181818;stroke-width:1;"/><path d="M541.4844,499.5625 Q539.625,498.8594 538.9688,498.0938 Q538.3281,497.3125 538.3281,496 Q538.3281,494.3125 539.4063,493.3438 Q540.4844,492.375 542.3594,492.375 Q543.2188,492.375 544.0625,492.5781 Q544.9219,492.7656 545.7656,493.1563 L545.7656,495.5469 Q544.9844,494.9844 544.1563,494.7031 Q543.3438,494.4063 542.5469,494.4063 Q541.6719,494.4063 541.1875,494.7656 Q540.7188,495.125 540.7188,495.7813 Q540.7188,496.2969 541.0625,496.6406 Q541.4063,496.9688 542.5,497.375 L543.5625,497.7813 Q545.0469,498.3281 545.75,499.2344 Q546.4688,500.1406 546.4688,501.5156 Q546.4688,503.3906 545.3594,504.3125 Q544.25,505.2344 542,505.2344 Q541.0781,505.2344 540.1563,505.0156 Q539.2344,504.7969 538.375,504.375 L538.375,501.8438 Q539.3438,502.5313 540.2656,502.875 Q541.1875,503.2188 542.0781,503.2188 Q542.9844,503.2188 543.4844,502.8125 Q543.9844,502.3906 543.9844,501.6563 Q543.9844,501.0938 543.6406,500.6875 Q543.3125,500.2656 542.6875,500.0156 L541.4844,499.5625 Z " fill="#000000"/><text fill="#000000" font-family="sans-serif" font-size="14" lengthAdjust="spacing" textLength="51.1838" x="556" y="504.432">EPeerId</text><line style="stroke:#181818;stroke-width:0.5;" x1="528" x2="609.1838" y1="515" y2="515"/><line style="stroke:#181818;stroke-width:0.5;" x1="528" x2="609.1838" y1="523" y2="523"/></g><!--class EPeerPublic--><g class="entity" data-entity="EPeerPublic" data-source-line="52" data-uid="ent0016" id="entity_EPeerPublic"><rect fill="#09B620" height="48" rx="2.5" ry="2.5" style="stroke:#181818;stroke-width:0.5;" width="109.5037" x="645.5" y="483"/><ellipse cx="660.5" cy="499" fill="#F1F1F1" rx="11" ry="11" style="stroke:#181818;stroke-width:1;"/><path d="M659.9844,499.5625 Q658.125,498.8594 657.4688,498.0938 Q656.8281,497.3125 656.8281,496 Q656.8281,494.3125 657.9063,493.3438 Q658.9844,492.375 660.8594,492.375 Q661.7188,492.375 662.5625,492.5781 Q663.4219,492.7656 664.2656,493.1563 L664.2656,495.5469 Q663.4844,494.9844 662.6563,494.7031 Q661.8438,494.4063 661.0469,494.4063 Q660.1719,494.4063 659.6875,494.7656 Q659.2188,495.125 659.2188,495.7813 Q659.2188,496.2969 659.5625,496.6406 Q659.9063,496.9688 661,497.375 L662.0625,497.7813 Q663.5469,498.3281 664.25,499.2344 Q664.9688,500.1406 664.9688,501.5156 Q664.9688,503.3906 663.8594,504.3125 Q662.75,505.2344 660.5,505.2344 Q659.5781,505.2344 658.6563,505.0156 Q657.7344,504.7969 656.875,504.375 L656.875,501.8438 Q657.8438,502.5313 658.7656,502.875 Q659.6875,503.2188 660.5781,503.2188 Q661.4844,503.2188 661.9844,502.8125 Q662.4844,502.3906 662.4844,501.6563 Q662.4844,501.0938 662.1406,500.6875 Q661.8125,500.2656 661.1875,500.0156 L659.9844,499.5625 Z " fill="#000000"/><text fill="#000000" font-family="sans-serif" font-size="14" lengthAdjust="spacing" textLength="77.5037" x="674.5" y="504.432">EPeerPublic</text><line style="stroke:#181818;stroke-width:0.5;" x1="646.5" x2="754.0037" y1="515" y2="515"/><line style="stroke:#181818;stroke-width:0.5;" x1="646.5" x2="754.0037" y1="523" y2="523"/></g><!--class EPeerPublicMap--><g class="entity" data-entity="EPeerPublicMap" data-source-line="56" data-uid="ent0019" id="entity_EPeerPublicMap"><rect fill="#09B620" height="48" rx="2.5" ry="2.5" style="stroke:#181818;stroke-width:0.5;" width="138.6656" x="791" y="483"/><ellipse cx="806" cy="499" fill="#F1F1F1" rx="11" ry="11" style="stroke:#181818;stroke-width:1;"/><path d="M805.4844,499.5625 Q803.625,498.8594 802.9688,498.0938 Q802.3281,497.3125 802.3281,496 Q802.3281,494.3125 803.4063,493.3438 Q804.4844,492.375 806.3594,492.375 Q807.2188,492.375 808.0625,492.5781 Q808.9219,492.7656 809.7656,493.1563 L809.7656,495.5469 Q808.9844,494.9844 808.1563,494.7031 Q807.3438,494.4063 806.5469,494.4063 Q805.6719,494.4063 805.1875,494.7656 Q804.7188,495.125 804.7188,495.7813 Q804.7188,496.2969 805.0625,496.6406 Q805.4063,496.9688 806.5,497.375 L807.5625,497.7813 Q809.0469,498.3281 809.75,499.2344 Q810.4688,500.1406 810.4688,501.5156 Q810.4688,503.3906 809.3594,504.3125 Q808.25,505.2344 806,505.2344 Q805.0781,505.2344 804.1563,505.0156 Q803.2344,504.7969 802.375,504.375 L802.375,501.8438 Q803.3438,502.5313 804.2656,502.875 Q805.1875,503.2188 806.0781,503.2188 Q806.9844,503.2188 807.4844,502.8125 Q807.9844,502.3906 807.9844,501.6563 Q807.9844,501.0938 807.6406,500.6875 Q807.3125,500.2656 806.6875,500.0156 L805.4844,499.5625 Z " fill="#000000"/><text fill="#000000" font-family="sans-serif" font-size="14" lengthAdjust="spacing" textLength="106.6656" x="820" y="504.432">EPeerPublicMap</text><line style="stroke:#181818;stroke-width:0.5;" x1="792" x2="928.6656" y1="515" y2="515"/><line style="stroke:#181818;stroke-width:0.5;" x1="792" x2="928.6656" y1="523" y2="523"/></g><!--class EPeerPublicQuery--><g class="entity" data-entity="EPeerPublicQuery" data-source-line="60" data-uid="ent0022" id="entity_EPeerPublicQuery"><rect fill="#09B620" height="48" rx="2.5" ry="2.5" style="stroke:#181818;stroke-width:0.5;" width="149.9075" x="965.5" y="483"/><ellipse cx="980.5" cy="499" fill="#F1F1F1" rx="11" ry="11" style="stroke:#181818;stroke-width:1;"/><path d="M979.9844,499.5625 Q978.125,498.8594 977.4688,498.0938 Q976.8281,497.3125 976.8281,496 Q976.8281,494.3125 977.9063,493.3438 Q978.9844,492.375 980.8594,492.375 Q981.7188,492.375 982.5625,492.5781 Q983.4219,492.7656 984.2656,493.1563 L984.2656,495.5469 Q983.4844,494.9844 982.6563,494.7031 Q981.8438,494.4063 981.0469,494.4063 Q980.1719,494.4063 979.6875,494.7656 Q979.2188,495.125 979.2188,495.7813 Q979.2188,496.2969 979.5625,496.6406 Q979.9063,496.9688 981,497.375 L982.0625,497.7813 Q983.5469,498.3281 984.25,499.2344 Q984.9688,500.1406 984.9688,501.5156 Q984.9688,503.3906 983.8594,504.3125 Q982.75,505.2344 980.5,505.2344 Q979.5781,505.2344 978.6563,505.0156 Q977.7344,504.7969 976.875,504.375 L976.875,501.8438 Q977.8438,502.5313 978.7656,502.875 Q979.6875,503.2188 980.5781,503.2188 Q981.4844,503.2188 981.9844,502.8125 Q982.4844,502.3906 982.4844,501.6563 Q982.4844,501.0938 982.1406,500.6875 Q981.8125,500.2656 981.1875,500.0156 L979.9844,499.5625 Z " fill="#000000"/><text fill="#000000" font-family="sans-serif" font-size="14" lengthAdjust="spacing" textLength="117.9075" x="994.5" y="504.432">EPeerPublicQuery</text><line style="stroke:#181818;stroke-width:0.5;" x1="966.5" x2="1114.4075" y1="515" y2="515"/><line style="stroke:#181818;stroke-width:0.5;" x1="966.5" x2="1114.4075" y1="523" y2="523"/></g><!--class EPeerSecret--><g class="entity" data-entity="EPeerSecret" data-source-line="64" data-uid="ent0025" id="entity_EPeerSecret"><rect fill="#09B620" height="48" rx="2.5" ry="2.5" style="stroke:#181818;stroke-width:0.5;" width="110.8617" x="7" y="483"/><ellipse cx="22" cy="499" fill="#F1F1F1" rx="11" ry="11" style="stroke:#181818;stroke-width:1;"/><path d="M21.4844,499.5625 Q19.625,498.8594 18.9688,498.0938 Q18.3281,497.3125 18.3281,496 Q18.3281,494.3125 19.4063,493.3438 Q20.4844,492.375 22.3594,492.375 Q23.2188,492.375 24.0625,492.5781 Q24.9219,492.7656 25.7656,493.1563 L25.7656,495.5469 Q24.9844,494.9844 24.1563,494.7031 Q23.3438,494.4063 22.5469,494.4063 Q21.6719,494.4063 21.1875,494.7656 Q20.7188,495.125 20.7188,495.7813 Q20.7188,496.2969 21.0625,496.6406 Q21.4063,496.9688 22.5,497.375 L23.5625,497.7813 Q25.0469,498.3281 25.75,499.2344 Q26.4688,500.1406 26.4688,501.5156 Q26.4688,503.3906 25.3594,504.3125 Q24.25,505.2344 22,505.2344 Q21.0781,505.2344 20.1563,505.0156 Q19.2344,504.7969 18.375,504.375 L18.375,501.8438 Q19.3438,502.5313 20.2656,502.875 Q21.1875,503.2188 22.0781,503.2188 Q22.9844,503.2188 23.4844,502.8125 Q23.9844,502.3906 23.9844,501.6563 Q23.9844,501.0938 23.6406,500.6875 Q23.3125,500.2656 22.6875,500.0156 L21.4844,499.5625 Z " fill="#000000"/><text fill="#000000" font-family="sans-serif" font-size="14" lengthAdjust="spacing" textLength="78.8617" x="36" y="504.432">EPeerSecret</text><line style="stroke:#181818;stroke-width:0.5;" x1="8" x2="116.8617" y1="515" y2="515"/><line style="stroke:#181818;stroke-width:0.5;" x1="8" x2="116.8617" y1="523" y2="523"/></g><!--reverse link IEntity to EPeerCertificate--><g class="link" data-entity-1="IEntity" data-entity-2="EPeerCertificate" data-source-line="41" data-uid="lnk8" id="link_IEntity_EPeerCertificate"><path codeLine="41" d="M338.3411,423.9269 C304.5611,447.6569 280.92,464.26 254.37,482.91" fill="none" id="IEntity-backto-EPeerCertificate" style="stroke:#09B620;stroke-width:1;"/><polygon fill="none" points="353.07,413.58,334.8921,419.0172,341.79,428.8365,353.07,413.58" style="stroke:#09B620;stroke-width:1;"/></g><!--reverse link IAiEntity to EPeerCertificate--><g class="link" data-entity-1="IAiEntity" data-entity-2="EPeerCertificate" data-source-line="42" data-uid="lnk9" id="link_IAiEntity_EPeerCertificate"><path codeLine="42" d="M559.528,423.0132 C553.608,425.4632 564.33,420.89 558.5,423 C450.66,462.06 418.69,454.85 307.5,483 C301.96,484.4 296.22,485.88 290.46,487.38" fill="none" id="IAiEntity-backto-EPeerCertificate" style="stroke:#FFA600;stroke-width:1;"/><polygon fill="none" points="576.16,416.13,557.2337,417.4692,561.8224,428.5571,576.16,416.13" style="stroke:#FFA600;stroke-width:1;"/></g><!--reverse link IEntity to EPeerCertificateMap--><g class="link" data-entity-1="IEntity" data-entity-2="EPeerCertificateMap" data-source-line="45" data-uid="lnk11" id="link_IEntity_EPeerCertificateMap"><path codeLine="45" d="M417.822,431.4416 C414.862,455.1716 413.72,464.26 411.39,482.91" fill="none" id="IEntity-backto-EPeerCertificateMap" style="stroke:#09B620;stroke-width:1;"/><polygon fill="none" points="420.05,413.58,411.8681,430.6989,423.7759,432.1842,420.05,413.58" style="stroke:#09B620;stroke-width:1;"/></g><!--reverse link IAiEntity to EPeerCertificateMap--><g class="link" data-entity-1="IAiEntity" data-entity-2="EPeerCertificateMap" data-source-line="46" data-uid="lnk12" id="link_IAiEntity_EPeerCertificateMap"><path codeLine="46" d="M560.4192,425.868 C517.3092,448.608 485.71,465.27 452.28,482.91" fill="none" id="IAiEntity-backto-EPeerCertificateMap" style="stroke:#FFA600;stroke-width:1;"/><polygon fill="none" points="576.34,417.47,557.6198,420.5611,563.2185,431.175,576.34,417.47" style="stroke:#FFA600;stroke-width:1;"/></g><!--reverse link IEntity to EPeerId--><g class="link" data-entity-1="IEntity" data-entity-2="EPeerId" data-source-line="49" data-uid="lnk14" id="link_IEntity_EPeerId"><path codeLine="49" d="M489.9985,426.3967 C513.3985,450.1267 527.34,464.26 545.73,482.91" fill="none" id="IEntity-backto-EPeerId" style="stroke:#09B620;stroke-width:1;"/><polygon fill="none" points="477.36,413.58,485.7262,430.6096,494.2707,422.1839,477.36,413.58" style="stroke:#09B620;stroke-width:1;"/></g><!--reverse link IAiEntity to EPeerId--><g class="link" data-entity-1="IAiEntity" data-entity-2="EPeerId" data-source-line="50" data-uid="lnk15" id="link_IAiEntity_EPeerId"><path codeLine="50" d="M622.4699,437.2321 C605.8699,458.3921 599.36,466.67 586.65,482.87" fill="none" id="IAiEntity-backto-EPeerId" style="stroke:#FFA600;stroke-width:1;"/><polygon fill="none" points="633.58,423.07,617.7492,433.5287,627.1906,440.9355,633.58,423.07" style="stroke:#FFA600;stroke-width:1;"/></g><!--reverse link IEntity to EPeerPublic--><g class="link" data-entity-1="IEntity" data-entity-2="EPeerPublic" data-source-line="53" data-uid="lnk17" id="link_IEntity_EPeerPublic"><path codeLine="53" d="M540.5826,421.9557 C585.7226,445.6857 621.07,464.26 656.56,482.91" fill="none" id="IEntity-backto-EPeerPublic" style="stroke:#09B620;stroke-width:1;"/><polygon fill="none" points="524.65,413.58,537.7907,427.2666,543.3745,416.6449,524.65,413.58" style="stroke:#09B620;stroke-width:1;"/></g><!--reverse link IAiEntity to EPeerPublic--><g class="link" data-entity-1="IAiEntity" data-entity-2="EPeerPublic" data-source-line="54" data-uid="lnk18" id="link_IAiEntity_EPeerPublic"><path codeLine="54" d="M691.913,440.9155 C694.703,462.0755 695.31,466.67 697.45,482.87" fill="none" id="IAiEntity-backto-EPeerPublic" style="stroke:#FFA600;stroke-width:1;"/><polygon fill="none" points="689.56,423.07,685.9645,441.6999,697.8615,440.1312,689.56,423.07" style="stroke:#FFA600;stroke-width:1;"/></g><!--reverse link IEntity to EPeerPublicMap--><g class="link" data-entity-1="IEntity" data-entity-2="EPeerPublicMap" data-source-line="57" data-uid="lnk20" id="link_IEntity_EPeerPublicMap"><path codeLine="57" d="M550.9495,420.4248 C559.0695,423.7748 550.56,420.1 558.5,423 C580.4,431.01 708.49,465.54 790.67,487.46" fill="none" id="IEntity-backto-EPeerPublicMap" style="stroke:#09B620;stroke-width:1;"/><polygon fill="none" points="534.31,413.56,548.6613,425.9713,553.2378,414.8783,534.31,413.56" style="stroke:#09B620;stroke-width:1;"/></g><!--reverse link IAiEntity to EPeerPublicMap--><g class="link" data-entity-1="IAiEntity" data-entity-2="EPeerPublicMap" data-source-line="58" data-uid="lnk21" id="link_IAiEntity_EPeerPublicMap"><path codeLine="58" d="M771.4344,434.3535 C797.7344,455.5135 811.61,466.67 831.75,482.87" fill="none" id="IAiEntity-backto-EPeerPublicMap" style="stroke:#FFA600;stroke-width:1;"/><polygon fill="none" points="757.41,423.07,767.6732,439.0283,775.1955,429.6787,757.41,423.07" style="stroke:#FFA600;stroke-width:1;"/></g><!--reverse link IEntity to EPeerPublicQuery--><g class="link" data-entity-1="IEntity" data-entity-2="EPeerPublicQuery" data-source-line="61" data-uid="lnk23" id="link_IEntity_EPeerPublicQuery"><path codeLine="61" d="M548.1845,420.0965 C557.2345,423.5865 549.56,420.3 558.5,423 C725.98,473.52 775.98,448.63 947.5,483 C953.29,484.16 959.26,485.44 965.25,486.79" fill="none" id="IEntity-backto-EPeerPublicQuery" style="stroke:#09B620;stroke-width:1;"/><polygon fill="none" points="531.39,413.62,546.0256,425.6947,550.3433,414.4984,531.39,413.62" style="stroke:#09B620;stroke-width:1;"/></g><!--reverse link IAiEntity to EPeerPublicQuery--><g class="link" data-entity-1="IAiEntity" data-entity-2="EPeerPublicQuery" data-source-line="62" data-uid="lnk24" id="link_IAiEntity_EPeerPublicQuery"><path codeLine="62" d="M803.4956,410.9325 C867.6256,436.6625 930.4,461.84 983.14,482.99" fill="none" id="IAiEntity-backto-EPeerPublicQuery" style="stroke:#FFA600;stroke-width:1;"/><polygon fill="none" points="786.79,404.23,801.2614,416.5011,805.7297,405.364,786.79,404.23" style="stroke:#FFA600;stroke-width:1;"/></g><!--reverse link IEntity to EPeerSecret--><g class="link" data-entity-1="IEntity" data-entity-2="EPeerSecret" data-source-line="65" data-uid="lnk26" id="link_IEntity_EPeerSecret"><path codeLine="65" d="M295.0925,413.9824 C230.4925,439.5424 169.45,463.69 118.14,483.99" fill="none" id="IEntity-backto-EPeerSecret" style="stroke:#09B620;stroke-width:1;"/><polygon fill="none" points="311.83,407.36,292.885,408.4033,297.3,419.5616,311.83,407.36" style="stroke:#09B620;stroke-width:1;"/></g><!--reverse link IAiEntity to EPeerSecret--><g class="link" data-entity-1="IAiEntity" data-entity-2="EPeerSecret" data-source-line="66" data-uid="lnk27" id="link_IAiEntity_EPeerSecret"><path codeLine="66" d="M559.5552,423.1974 C553.5852,425.4674 564.42,421.16 558.5,423 C377.14,479.23 320.68,440.99 135.5,483 C129.8,484.29 123.9,485.82 118.04,487.47" fill="none" id="IAiEntity-backto-EPeerSecret" style="stroke:#FFA600;stroke-width:1;"/><polygon fill="none" points="576.38,416.8,557.4228,417.5891,561.6877,428.8056,576.38,416.8" style="stroke:#FFA600;stroke-width:1;"/></g><!--reverse link IEvo to IEntity--><g class="link" data-entity-1="IEvo" data-entity-2="IEntity" data-source-line="71" data-uid="lnk28" id="link_IEvo_IEntity"><path codeLine="71" d="M380.5564,110.4211 C385.3664,128.7611 386.25,133.16 390.5,153 C401.76,205.61 412,266.32 418.65,308.32" fill="none" id="IEvo-backto-IEntity" style="stroke:#09B620;stroke-width:1;"/><polygon fill="none" points="375.99,93.01,374.7527,111.9433,386.3601,108.899,375.99,93.01" style="stroke:#09B620;stroke-width:1;"/></g><!--reverse link ID to IEntity--><g class="link" data-entity-1="ID" data-entity-2="IEntity" data-source-line="72" data-uid="lnk29" id="link_ID_IEntity"><path codeLine="72" d="M345.6556,253.7278 C361.6556,274.7678 370.22,286.03 387.1,308.21" fill="none" id="ID-backto-IEntity" style="stroke:#09B620;stroke-width:1;"/><polygon fill="none" points="334.76,239.4,340.8797,257.3597,350.4316,250.0959,334.76,239.4" style="stroke:#09B620;stroke-width:1;"/></g><!--reverse link ITime to IEntity--><g class="link" data-entity-1="ITime" data-entity-2="IEntity" data-source-line="73" data-uid="lnk30" id="link_ITime_IEntity"><path codeLine="73" d="M524.5964,252.6866 C505.3664,273.7266 494.12,286.03 473.84,308.21" fill="none" id="ITime-backto-IEntity" style="stroke:#09B620;stroke-width:1;"/><polygon fill="none" points="536.74,239.4,520.1676,248.6387,529.0253,256.7344,536.74,239.4" style="stroke:#09B620;stroke-width:1;"/></g><!--link IEvo to ID--><g class="link" data-entity-1="IEvo" data-entity-2="ID" data-source-line="75" data-uid="lnk31" id="link_IEvo_ID"><line style="stroke:none;stroke-width:1;" x1="320.73" x2="322.7064" y1="152.66" y2="148.0672"/></g><!--SRC=[bLLTQzim57tthz3eGnesGzX3sK8mj7K6VXXqE1Js56JvEX5rf239AI7BVvzaoP-DuzGFYNtFqJddNdzeWc9GAC7aRIDumL94UCw59zyessE1T-YfXfuDWfJ0J6e8cFAy2GeXempiAeaoJG1CjeWo1IB31BmlgML4omEt2dU_ogD1me7wYkvW05eoHTNHWREVoSFtcTUWZzGXMOOVPXgfuvGnq69n7trh4as309qyf8-l9wcmekICuC3N1n2ISdO_HNw0LiSzw0MljcRP6r3hCUAvunuk31o5GPKXx2SmcZHjfABGrgMjqtJkojEUj9bMfLfFhYUiTBsHDgn6lCJCpxm6ZKLxTENG-nsqReLnQryxPyNNoL61jCwlG1R5Zy12cU0x1wPOuJbw-hjQnYKlXZohrqibADjOWRWyxtN_IArlbSez0cKYTzw_nMOWcDR3Th8NEP9iOOS_ydGoJAyiBzlJ31rV_yqTgMbFzw2XWYYqV04Gpo0KpIZ1glk8dyvULBNtp_S_aZjihpMC0RQRoA3xRxp_L033_rG6k-1YZ2WTjzQSSRkITD7YfKXoIiPj76_SgYPUiRjffWtrLjChaxI4FmM8uwtEbdohTyM-w1u34Nfh6JLsl77FcbZRDVkFsW8IaEktZZEvfNk94b3l0ApPYQJdsO-_4QnYT4t3Qw3zlWxYLjnF-JlJRxUMkcllb1DTy7F8bC5AfGxy7m00]--></g></svg>