<svg xmlns="http://www.w3.org/2000/svg" xmlns:xlink="http://www.w3.org/1999/xlink" contentStyleType="text/css" data-diagram-type="ACTIVITY" height="1315px" preserveAspectRatio="none" style="width:1214px;height:1315px;background:#000000;" version="1.1" viewBox="0 0 1214 1315" width="1214px" zoomAndPan="magnify"><title>ESS Performance Characteristics *(TODO: to update benches times)</title><defs/><g><text fill="#FFFFFF" font-family="Verdana" font-size="22" font-weight="bold" lengthAdjust="spacing" textLength="842.0479" x="184.7292" y="37.1182">ESS Performance Characteristics *(TODO: to update benches times)</text><rect fill="#FFFFFF" height="21.876" style="stroke:#FFFFFF;stroke-width:1;" width="1191.5063" x="10" y="55.0166"/><ellipse cx="97.9912" cy="91.8926" fill="#FFFFFF" rx="10" ry="10" style="stroke:#000000;stroke-width:1;"/><path d="M185.4336,111.8926 L185.4336,152.3909 L165.4336,156.3909 L185.4336,160.3909 L185.4336,200.8892 A0,0 0 0 0 185.4336,200.8892 L400.0371,200.8892 A0,0 0 0 0 400.0371,200.8892 L400.0371,121.8926 L390.0371,111.8926 L185.4336,111.8926 A0,0 0 0 0 185.4336,111.8926" fill="#FFFFFF" style="stroke:#000000;stroke-width:1;"/><path d="M390.0371,111.8926 L390.0371,121.8926 L400.0371,121.8926 L390.0371,111.8926" fill="#FFFFFF" style="stroke:#000000;stroke-width:1;"/><text fill="#000000" font-family="Verdana" font-size="13" font-weight="bold" lengthAdjust="spacing" textLength="159.1294" x="191.4336" y="129.9624">Performance: ~510ns</text><text fill="#000000" font-family="Verdana" font-size="13" lengthAdjust="spacing" textLength="193.6035" x="191.4336" y="145.7617">&#8226; Header serialization: ~30ns</text><text fill="#000000" font-family="Verdana" font-size="13" lengthAdjust="spacing" textLength="170.2124" x="191.4336" y="161.561">&#8226; Nested entities: ~200ns</text><text fill="#000000" font-family="Verdana" font-size="13" lengthAdjust="spacing" textLength="106.2026" x="191.4336" y="177.3604">&#8226; Maps: ~250ns</text><text fill="#000000" font-family="Verdana" font-size="13" lengthAdjust="spacing" textLength="110.5254" x="191.4336" y="193.1597">&#8226; Strings: ~30ns</text><rect fill="#E8F4F8" height="34.584" rx="12.5" ry="12.5" style="stroke:#2C5F77;stroke-width:1;" width="134.8848" x="30.5488" y="139.0989"/><text fill="#000000" font-family="Verdana" font-size="12" lengthAdjust="spacing" textLength="114.8848" x="40.5488" y="161.1633">ETest0::to_bytes()</text><path d="M199.9824,210.8892 L199.9824,235.5881 L179.9824,239.5881 L199.9824,243.5881 L199.9824,268.2871 A0,0 0 0 0 199.9824,268.2871 L411.647,268.2871 A0,0 0 0 0 411.647,268.2871 L411.647,220.8892 L401.647,210.8892 L199.9824,210.8892 A0,0 0 0 0 199.9824,210.8892" fill="#FFFFFF" style="stroke:#000000;stroke-width:1;"/><path d="M401.647,210.8892 L401.647,220.8892 L411.647,220.8892 L401.647,210.8892" fill="#FFFFFF" style="stroke:#000000;stroke-width:1;"/><text fill="#000000" font-family="Verdana" font-size="13" lengthAdjust="spacing" textLength="105.041" x="205.9824" y="228.959">ETest1: ~112ns</text><text fill="#000000" font-family="Verdana" font-size="13" lengthAdjust="spacing" textLength="96.7764" x="205.9824" y="244.7583">ETest2: ~44ns</text><text fill="#000000" font-family="Verdana" font-size="13" lengthAdjust="spacing" textLength="190.6646" x="205.9824" y="260.5576">(parallel processing possible)</text><rect fill="#E8F4F8" height="34.584" rx="12.5" ry="12.5" style="stroke:#2C5F77;stroke-width:1;" width="163.9824" x="16" y="222.2961"/><text fill="#000000" font-family="Verdana" font-size="12" lengthAdjust="spacing" textLength="143.9824" x="26" y="244.3606">Serialize nested entities</text><path d="M171.9102,284.7798 L171.9102,301.5791 L151.9102,305.5791 L171.9102,309.5791 L171.9102,326.3784 A0,0 0 0 0 171.9102,326.3784 L384.0444,326.3784 A0,0 0 0 0 384.0444,326.3784 L384.0444,294.7798 L374.0444,284.7798 L171.9102,284.7798 A0,0 0 0 0 171.9102,284.7798" fill="#FFFFFF" style="stroke:#000000;stroke-width:1;"/><path d="M374.0444,284.7798 L374.0444,294.7798 L384.0444,294.7798 L374.0444,284.7798" fill="#FFFFFF" style="stroke:#000000;stroke-width:1;"/><text fill="#000000" font-family="Verdana" font-size="13" lengthAdjust="spacing" textLength="191.1343" x="177.9102" y="302.8496">MapEntity&lt;ETest1&gt;: ~134ns</text><text fill="#000000" font-family="Verdana" font-size="13" lengthAdjust="spacing" textLength="191.1343" x="177.9102" y="318.6489">MapEntity&lt;ETest2&gt;: ~153ns</text><rect fill="#E8F4F8" height="34.584" rx="12.5" ry="12.5" style="stroke:#2C5F77;stroke-width:1;" width="107.8379" x="44.0723" y="288.2871"/><text fill="#000000" font-family="Verdana" font-size="12" lengthAdjust="spacing" textLength="87.8379" x="54.0723" y="310.3516">Serialize maps</text><path d="M181.7949,350.1631 L181.7949,366.9624 L161.7949,370.9624 L181.7949,374.9624 L181.7949,391.7617 A0,0 0 0 0 181.7949,391.7617 L401.9653,391.7617 A0,0 0 0 0 401.9653,391.7617 L401.9653,360.1631 L391.9653,350.1631 L181.7949,350.1631 A0,0 0 0 0 181.7949,350.1631" fill="#FFFFFF" style="stroke:#000000;stroke-width:1;"/><path d="M391.9653,350.1631 L391.9653,360.1631 L401.9653,360.1631 L391.9653,350.1631" fill="#FFFFFF" style="stroke:#000000;stroke-width:1;"/><text fill="#000000" font-family="Verdana" font-size="13" lengthAdjust="spacing" textLength="199.1704" x="187.7949" y="368.2329">Vec::with_capacity(total_size)</text><text fill="#000000" font-family="Verdana" font-size="13" lengthAdjust="spacing" textLength="109.5859" x="187.7949" y="384.0322">No reallocations!</text><rect fill="#E8F4F8" height="49.168" rx="12.5" ry="12.5" style="stroke:#2C5F77;stroke-width:1;" width="127.6074" x="34.1875" y="346.3784"/><text fill="#000000" font-family="Verdana" font-size="12" lengthAdjust="spacing" textLength="87.4043" x="44.1875" y="368.4429">Allocate buffer</text><text fill="#000000" font-family="Verdana" font-size="12" lengthAdjust="spacing" textLength="107.6074" x="44.1875" y="383.0269">(single allocation)</text><path d="M168.4941,411.4314 L168.4941,436.1304 L148.4941,440.1304 L168.4941,444.1304 L168.4941,468.8293 A0,0 0 0 0 168.4941,468.8293 L347.792,468.8293 A0,0 0 0 0 347.792,468.8293 L347.792,421.4314 L337.792,411.4314 L168.4941,411.4314 A0,0 0 0 0 168.4941,411.4314" fill="#FFFFFF" style="stroke:#000000;stroke-width:1;"/><path d="M337.792,411.4314 L337.792,421.4314 L347.792,421.4314 L337.792,411.4314" fill="#FFFFFF" style="stroke:#000000;stroke-width:1;"/><text fill="#000000" font-family="Verdana" font-size="13" lengthAdjust="spacing" textLength="119.0376" x="174.4941" y="429.5012">&#8226; Version: 8 bytes</text><text fill="#000000" font-family="Verdana" font-size="13" lengthAdjust="spacing" textLength="133.6436" x="174.4941" y="445.3005">&#8226; Header: 176 bytes</text><text fill="#000000" font-family="Verdana" font-size="13" lengthAdjust="spacing" textLength="158.2979" x="174.4941" y="461.0999">&#8226; Variable data: N bytes</text><rect fill="#E8F4F8" height="49.168" rx="12.5" ry="12.5" style="stroke:#2C5F77;stroke-width:1;" width="101.0059" x="47.4883" y="415.5464"/><text fill="#000000" font-family="Verdana" font-size="12" lengthAdjust="spacing" textLength="81.0059" x="57.4883" y="437.6108">Write all data</text><text fill="#000000" font-family="Verdana" font-size="12" lengthAdjust="spacing" textLength="72.1289" x="57.4883" y="452.1948">sequentially</text><line style="stroke:#000000;stroke-width:1;" x1="10" x2="10" y1="55.0166" y2="1028.2756"/><path d="M549.6294,478.8293 L549.6294,535.127 L529.6294,539.127 L549.6294,543.127 L549.6294,599.4246 A0,0 0 0 0 549.6294,599.4246 L781.7271,599.4246 A0,0 0 0 0 781.7271,599.4246 L781.7271,488.8293 L771.7271,478.8293 L549.6294,478.8293 A0,0 0 0 0 549.6294,478.8293" fill="#FFFFFF" style="stroke:#000000;stroke-width:1;"/><path d="M771.7271,478.8293 L771.7271,488.8293 L781.7271,488.8293 L771.7271,478.8293" fill="#FFFFFF" style="stroke:#000000;stroke-width:1;"/><text fill="#000000" font-family="Verdana" font-size="13" font-weight="bold" lengthAdjust="spacing" textLength="176.1221" x="555.6294" y="496.8992">Network (LAN): ~100&#181;s</text><text fill="#000000" font-family="Verdana" font-size="13" font-weight="bold" lengthAdjust="spacing" textLength="177.6455" x="555.6294" y="512.6985">Network (WAN): ~50ms</text><text fill="#000000" font-family="Verdana" font-size="13" font-weight="bold" lengthAdjust="spacing" textLength="145.2661" x="555.6294" y="528.4978">Disk (SSD): ~100&#181;s</text><text fill="#000000" font-family="Verdana" font-size="13" font-weight="bold" lengthAdjust="spacing" textLength="143.6094" x="555.6294" y="544.2971">Disk (HDD): ~10ms</text><text fill="#000000" font-family="Verdana" font-size="13" lengthAdjust="spacing" textLength="4.5703" x="555.6294" y="560.0964">&#160;</text><text fill="#000000" font-family="Verdana" font-size="13" lengthAdjust="spacing" textLength="211.0977" x="555.6294" y="575.8958">&#9888;&#65039; I/O is 200-100,000x slower</text><text fill="#000000" font-family="Verdana" font-size="13" lengthAdjust="spacing" textLength="117.0889" x="555.6294" y="591.6951">than serialization!</text><rect fill="#E8F4F8" height="34.584" rx="12.5" ry="12.5" style="stroke:#2C5F77;stroke-width:1;" width="106.9824" x="422.647" y="521.835"/><text fill="#000000" font-family="Verdana" font-size="12" lengthAdjust="spacing" textLength="86.9824" x="432.647" y="543.8994">Transfer bytes</text><line style="stroke:#000000;stroke-width:1;" x1="416.647" x2="416.647" y1="55.0166" y2="1028.2756"/><path d="M963.895,609.4246 L963.895,657.8225 L943.895,661.8225 L963.895,665.8225 L963.895,714.2205 A0,0 0 0 0 963.895,714.2205 L1194.3423,714.2205 A0,0 0 0 0 1194.3423,714.2205 L1194.3423,619.4246 L1184.3423,609.4246 L963.895,609.4246 A0,0 0 0 0 963.895,609.4246" fill="#FFFFFF" style="stroke:#000000;stroke-width:1;"/><path d="M1184.3423,609.4246 L1184.3423,619.4246 L1194.3423,619.4246 L1184.3423,609.4246" fill="#FFFFFF" style="stroke:#000000;stroke-width:1;"/><text fill="#000000" font-family="Verdana" font-size="13" font-weight="bold" lengthAdjust="spacing" textLength="173.0688" x="969.895" y="627.4944">Performance: ~1,524ns</text><text fill="#000000" font-family="Verdana" font-size="13" lengthAdjust="spacing" textLength="209.4473" x="969.895" y="643.2937">&#8226; Header deserialization: ~17ns</text><text fill="#000000" font-family="Verdana" font-size="13" lengthAdjust="spacing" textLength="128.8447" x="969.895" y="659.093">&#8226; Validation: ~50ns</text><text fill="#000000" font-family="Verdana" font-size="13" lengthAdjust="spacing" textLength="170.2124" x="969.895" y="674.8923">&#8226; Nested entities: ~400ns</text><text fill="#000000" font-family="Verdana" font-size="13" lengthAdjust="spacing" textLength="106.2026" x="969.895" y="690.6917">&#8226; Maps: ~700ns</text><text fill="#000000" font-family="Verdana" font-size="13" lengthAdjust="spacing" textLength="118.79" x="969.895" y="706.491">&#8226; Strings: ~357ns</text><rect fill="#E8F4F8" height="34.584" rx="12.5" ry="12.5" style="stroke:#2C5F77;stroke-width:1;" width="151.168" x="792.7271" y="644.5305"/><text fill="#000000" font-family="Verdana" font-size="12" lengthAdjust="spacing" textLength="131.168" x="802.7271" y="666.595">ETest0::from_bytes()</text><path d="M945.5464,730.1055 L945.5464,754.8044 L925.5464,758.8044 L945.5464,762.8044 L945.5464,787.5034 A0,0 0 0 0 945.5464,787.5034 L1094.2549,787.5034 A0,0 0 0 0 1094.2549,787.5034 L1094.2549,740.1055 L1084.2549,730.1055 L945.5464,730.1055 A0,0 0 0 0 945.5464,730.1055" fill="#FFFFFF" style="stroke:#000000;stroke-width:1;"/><path d="M1084.2549,730.1055 L1084.2549,740.1055 L1094.2549,740.1055 L1084.2549,730.1055" fill="#FFFFFF" style="stroke:#000000;stroke-width:1;"/><text fill="#000000" font-family="Verdana" font-size="13" lengthAdjust="spacing" textLength="80.4692" x="951.5464" y="748.1753">&#8226; Size check</text><text fill="#000000" font-family="Verdana" font-size="13" lengthAdjust="spacing" textLength="105.4409" x="951.5464" y="763.9746">&#8226; Version match</text><text fill="#000000" font-family="Verdana" font-size="13" lengthAdjust="spacing" textLength="127.7085" x="951.5464" y="779.7739">&#8226; Bounds validation</text><rect fill="#E8F4F8" height="49.168" rx="12.5" ry="12.5" style="stroke:#2C5F77;stroke-width:1;" width="114.4707" x="811.0757" y="734.2205"/><text fill="#000000" font-family="Verdana" font-size="12" lengthAdjust="spacing" textLength="94.4707" x="821.0757" y="756.2849">Validate header</text><text fill="#000000" font-family="Verdana" font-size="12" lengthAdjust="spacing" textLength="70.2891" x="821.0757" y="770.8689">and version</text><path d="M953.3218,803.3884 L953.3218,828.0874 L933.3218,832.0874 L953.3218,836.0874 L953.3218,860.7864 A0,0 0 0 0 953.3218,860.7864 L1147.2446,860.7864 A0,0 0 0 0 1147.2446,860.7864 L1147.2446,813.3884 L1137.2446,803.3884 L953.3218,803.3884 A0,0 0 0 0 953.3218,803.3884" fill="#FFFFFF" style="stroke:#000000;stroke-width:1;"/><path d="M1137.2446,803.3884 L1137.2446,813.3884 L1147.2446,813.3884 L1137.2446,803.3884" fill="#FFFFFF" style="stroke:#000000;stroke-width:1;"/><text fill="#000000" font-family="Verdana" font-size="13" lengthAdjust="spacing" textLength="105.041" x="959.3218" y="821.4583">ETest1: ~329ns</text><text fill="#000000" font-family="Verdana" font-size="13" lengthAdjust="spacing" textLength="96.7764" x="959.3218" y="837.2576">ETest2: ~85ns</text><text fill="#000000" font-family="Verdana" font-size="13" lengthAdjust="spacing" textLength="172.9229" x="959.3218" y="853.0569">(sequential due to offsets)</text><rect fill="#E8F4F8" height="49.168" rx="12.5" ry="12.5" style="stroke:#2C5F77;stroke-width:1;" width="130.0215" x="803.3003" y="807.5034"/><text fill="#000000" font-family="Verdana" font-size="12" lengthAdjust="spacing" textLength="110.0215" x="813.3003" y="829.5679">Deserialize nested</text><text fill="#000000" font-family="Verdana" font-size="12" lengthAdjust="spacing" textLength="44.1855" x="813.3003" y="844.1519">entities</text><path d="M949.4517,877.2791 L949.4517,894.0784 L929.4517,898.0784 L949.4517,902.0784 L949.4517,918.8777 A0,0 0 0 0 949.4517,918.8777 L1161.5859,918.8777 A0,0 0 0 0 1161.5859,918.8777 L1161.5859,887.2791 L1151.5859,877.2791 L949.4517,877.2791 A0,0 0 0 0 949.4517,877.2791" fill="#FFFFFF" style="stroke:#000000;stroke-width:1;"/><path d="M1151.5859,877.2791 L1151.5859,887.2791 L1161.5859,887.2791 L1151.5859,877.2791" fill="#FFFFFF" style="stroke:#000000;stroke-width:1;"/><text fill="#000000" font-family="Verdana" font-size="13" lengthAdjust="spacing" textLength="191.1343" x="955.4517" y="895.3489">MapEntity&lt;ETest1&gt;: ~323ns</text><text fill="#000000" font-family="Verdana" font-size="13" lengthAdjust="spacing" textLength="191.1343" x="955.4517" y="911.1482">MapEntity&lt;ETest2&gt;: ~377ns</text><rect fill="#E8F4F8" height="34.584" rx="12.5" ry="12.5" style="stroke:#2C5F77;stroke-width:1;" width="122.2813" x="807.1704" y="880.7864"/><text fill="#000000" font-family="Verdana" font-size="12" lengthAdjust="spacing" textLength="102.2813" x="817.1704" y="902.8508">Deserialize maps</text><path d="M946.6831,928.8777 L946.6831,953.5767 L926.6831,957.5767 L946.6831,961.5767 L946.6831,986.2756 A0,0 0 0 0 946.6831,986.2756 L1153.1362,986.2756 A0,0 0 0 0 1153.1362,986.2756 L1153.1362,938.8777 L1143.1362,928.8777 L946.6831,928.8777 A0,0 0 0 0 946.6831,928.8777" fill="#FFFFFF" style="stroke:#000000;stroke-width:1;"/><path d="M1143.1362,928.8777 L1143.1362,938.8777 L1153.1362,938.8777 L1143.1362,928.8777" fill="#FFFFFF" style="stroke:#000000;stroke-width:1;"/><text fill="#000000" font-family="Verdana" font-size="13" lengthAdjust="spacing" textLength="127.8481" x="952.6831" y="946.9475">&#8226; Zero-copy header</text><text fill="#000000" font-family="Verdana" font-size="13" lengthAdjust="spacing" textLength="185.4531" x="952.6831" y="962.7468">&#8226; Arc&lt;T&gt; for nested entities</text><text fill="#000000" font-family="Verdana" font-size="13" lengthAdjust="spacing" textLength="129.0669" x="952.6831" y="978.5461">&#8226; Owned collections</text><rect fill="#E8F4F8" height="34.584" rx="12.5" ry="12.5" style="stroke:#2C5F77;stroke-width:1;" width="116.7441" x="809.939" y="940.2847"/><text fill="#000000" font-family="Verdana" font-size="12" lengthAdjust="spacing" textLength="96.7441" x="819.939" y="962.3491">Construct entity</text><ellipse cx="868.311" cy="1017.2756" fill="none" rx="11" ry="11" style="stroke:#000000;stroke-width:1;"/><ellipse cx="868.311" cy="1017.2756" fill="#FFFFFF" rx="6" ry="6" style="stroke:#000000;stroke-width:1;"/><line style="stroke:#000000;stroke-width:1;" x1="786.7271" x2="786.7271" y1="55.0166" y2="1028.2756"/><line style="stroke:#000000;stroke-width:1;" x1="1199.3423" x2="1199.3423" y1="55.0166" y2="1028.2756"/><line style="stroke:#FFFFFF;stroke-width:1;" x1="97.9912" x2="97.9912" y1="101.8926" y2="139.0989"/><polygon fill="#FFFFFF" points="93.9912,129.0989,97.9912,139.0989,101.9912,129.0989,97.9912,133.0989" style="stroke:#FFFFFF;stroke-width:1;"/><line style="stroke:#FFFFFF;stroke-width:1;" x1="97.9912" x2="97.9912" y1="173.6829" y2="222.2961"/><polygon fill="#FFFFFF" points="93.9912,212.2961,97.9912,222.2961,101.9912,212.2961,97.9912,216.2961" style="stroke:#FFFFFF;stroke-width:1;"/><line style="stroke:#FFFFFF;stroke-width:1;" x1="97.9912" x2="97.9912" y1="256.8801" y2="288.2871"/><polygon fill="#FFFFFF" points="93.9912,278.2871,97.9912,288.2871,101.9912,278.2871,97.9912,282.2871" style="stroke:#FFFFFF;stroke-width:1;"/><line style="stroke:#FFFFFF;stroke-width:1;" x1="97.9912" x2="97.9912" y1="322.8711" y2="346.3784"/><polygon fill="#FFFFFF" points="93.9912,336.3784,97.9912,346.3784,101.9912,336.3784,97.9912,340.3784" style="stroke:#FFFFFF;stroke-width:1;"/><line style="stroke:#FFFFFF;stroke-width:1;" x1="97.9912" x2="97.9912" y1="395.5464" y2="415.5464"/><polygon fill="#FFFFFF" points="93.9912,405.5464,97.9912,415.5464,101.9912,405.5464,97.9912,409.5464" style="stroke:#FFFFFF;stroke-width:1;"/><line style="stroke:#FFFFFF;stroke-width:1;" x1="868.311" x2="868.311" y1="679.1145" y2="734.2205"/><polygon fill="#FFFFFF" points="864.311,724.2205,868.311,734.2205,872.311,724.2205,868.311,728.2205" style="stroke:#FFFFFF;stroke-width:1;"/><line style="stroke:#FFFFFF;stroke-width:1;" x1="868.311" x2="868.311" y1="783.3884" y2="807.5034"/><polygon fill="#FFFFFF" points="864.311,797.5034,868.311,807.5034,872.311,797.5034,868.311,801.5034" style="stroke:#FFFFFF;stroke-width:1;"/><line style="stroke:#FFFFFF;stroke-width:1;" x1="868.311" x2="868.311" y1="856.6714" y2="880.7864"/><polygon fill="#FFFFFF" points="864.311,870.7864,868.311,880.7864,872.311,870.7864,868.311,874.7864" style="stroke:#FFFFFF;stroke-width:1;"/><line style="stroke:#FFFFFF;stroke-width:1;" x1="868.311" x2="868.311" y1="915.3704" y2="940.2847"/><polygon fill="#FFFFFF" points="864.311,930.2847,868.311,940.2847,872.311,930.2847,868.311,934.2847" style="stroke:#FFFFFF;stroke-width:1;"/><line style="stroke:#FFFFFF;stroke-width:1;" x1="868.311" x2="868.311" y1="974.8687" y2="1006.2756"/><polygon fill="#FFFFFF" points="864.311,996.2756,868.311,1006.2756,872.311,996.2756,868.311,1000.2756" style="stroke:#FFFFFF;stroke-width:1;"/><line style="stroke:#FFFFFF;stroke-width:1;" x1="97.9912" x2="97.9912" y1="464.7144" y2="480.7747"/><line style="stroke:#FFFFFF;stroke-width:1;" x1="97.9912" x2="476.1382" y1="480.7747" y2="480.7747"/><line style="stroke:#FFFFFF;stroke-width:1;" x1="476.1382" x2="476.1382" y1="480.7747" y2="521.835"/><polygon fill="#FFFFFF" points="472.1382,511.835,476.1382,521.835,480.1382,511.835,476.1382,515.835" style="stroke:#FFFFFF;stroke-width:1;"/><line style="stroke:#FFFFFF;stroke-width:1;" x1="476.1382" x2="476.1382" y1="556.4189" y2="604.4246"/><line style="stroke:#FFFFFF;stroke-width:1;" x1="476.1382" x2="868.311" y1="604.4246" y2="604.4246"/><line style="stroke:#FFFFFF;stroke-width:1;" x1="868.311" x2="868.311" y1="604.4246" y2="644.5305"/><polygon fill="#FFFFFF" points="864.311,634.5305,868.311,644.5305,872.311,634.5305,868.311,638.5305" style="stroke:#FFFFFF;stroke-width:1;"/><text fill="#333333" font-family="Verdana" font-size="18" lengthAdjust="spacing" textLength="110.9531" x="157.8469" y="73.1133">Serialization</text><text fill="#333333" font-family="Verdana" font-size="18" lengthAdjust="spacing" textLength="122.2822" x="540.5459" y="73.1133">Network/Disk</text><text fill="#333333" font-family="Verdana" font-size="18" lengthAdjust="spacing" textLength="132.6182" x="926.7256" y="73.1133">Deserialization</text><rect fill="none" height="269.2197" rx="7.5" ry="7.5" style="stroke:#000000;stroke-width:1;" width="316.6328" x="884.8735" y="1033.2756"/><text fill="#FFFFFF" font-family="Verdana" font-size="14" font-weight="bold" lengthAdjust="spacing" textLength="180.4277" x="889.8735" y="1052.3508">Performance Summary</text><text fill="#FFFFFF" font-family="Verdana" font-size="14" font-weight="bold" lengthAdjust="spacing" textLength="78.0459" x="894.6587" y="1071.3655">Operation</text><text fill="#FFFFFF" font-family="Verdana" font-size="14" font-weight="bold" lengthAdjust="spacing" textLength="38.4385" x="1039.7993" y="1071.3655">Time</text><text fill="#FFFFFF" font-family="Verdana" font-size="14" font-weight="bold" lengthAdjust="spacing" textLength="63.9434" x="1106.4907" y="1071.3655">Relative</text><text fill="#FFFFFF" font-family="Verdana" font-size="14" lengthAdjust="spacing" textLength="116.2998" x="894.7954" y="1088.3801">Header to_bytes</text><text fill="#FFFFFF" font-family="Verdana" font-size="14" lengthAdjust="spacing" textLength="33.9541" x="1039.936" y="1088.3801">30ns</text><text fill="#FFFFFF" font-family="Verdana" font-size="14" lengthAdjust="spacing" textLength="17.1855" x="1106.6274" y="1088.3801">1x</text><text fill="#FFFFFF" font-family="Verdana" font-size="14" lengthAdjust="spacing" textLength="135.2969" x="894.7954" y="1105.3948">Header from_bytes</text><text fill="#FFFFFF" font-family="Verdana" font-size="14" lengthAdjust="spacing" textLength="33.9541" x="1039.936" y="1105.3948">17ns</text><text fill="#FFFFFF" font-family="Verdana" font-size="14" lengthAdjust="spacing" textLength="31.1787" x="1106.6274" y="1105.3948">0.6x</text><text fill="#FFFFFF" font-family="Verdana" font-size="14" lengthAdjust="spacing" textLength="90.583" x="894.7954" y="1122.4094">Full to_bytes</text><text fill="#FFFFFF" font-family="Verdana" font-size="14" lengthAdjust="spacing" textLength="42.8545" x="1039.936" y="1122.4094">510ns</text><text fill="#FFFFFF" font-family="Verdana" font-size="14" lengthAdjust="spacing" textLength="26.0859" x="1106.6274" y="1122.4094">17x</text><text fill="#FFFFFF" font-family="Verdana" font-size="14" lengthAdjust="spacing" textLength="109.5801" x="894.7954" y="1139.4241">Full from_bytes</text><text fill="#FFFFFF" font-family="Verdana" font-size="14" lengthAdjust="spacing" textLength="56.8477" x="1039.936" y="1139.4241">1,524ns</text><text fill="#FFFFFF" font-family="Verdana" font-size="14" lengthAdjust="spacing" textLength="26.0859" x="1106.6274" y="1139.4241">51x</text><text fill="#FFFFFF" font-family="Verdana" font-size="14" lengthAdjust="spacing" textLength="104.0156" x="894.7954" y="1156.4387">Network (LAN)</text><text fill="#FFFFFF" font-family="Verdana" font-size="14" lengthAdjust="spacing" textLength="42.9775" x="1039.936" y="1156.4387">100&#181;s</text><text fill="#FFFFFF" font-family="Verdana" font-size="14" lengthAdjust="spacing" textLength="48.9795" x="1106.6274" y="1156.4387">3,333x</text><text fill="#FFFFFF" font-family="Verdana" font-size="14" lengthAdjust="spacing" textLength="77.7725" x="894.7954" y="1173.4534">Disk (SSD)</text><text fill="#FFFFFF" font-family="Verdana" font-size="14" lengthAdjust="spacing" textLength="42.9775" x="1039.936" y="1173.4534">100&#181;s</text><text fill="#FFFFFF" font-family="Verdana" font-size="14" lengthAdjust="spacing" textLength="48.9795" x="1106.6274" y="1173.4534">3,333x</text><text fill="#FFFFFF" font-family="Verdana" font-size="14" lengthAdjust="spacing" textLength="110.0654" x="894.7954" y="1190.468">Network (WAN)</text><text fill="#FFFFFF" font-family="Verdana" font-size="14" lengthAdjust="spacing" textLength="38.7119" x="1039.936" y="1190.468">50ms</text><text fill="#FFFFFF" font-family="Verdana" font-size="14" lengthAdjust="spacing" textLength="66.7803" x="1106.6274" y="1190.468">166,666x</text><line style="stroke:#FFFFFF;stroke-width:1;" x1="889.8735" x2="1178.3296" y1="1057.2903" y2="1057.2903"/><line style="stroke:#FFFFFF;stroke-width:1;" x1="889.8735" x2="1178.3296" y1="1074.3049" y2="1074.3049"/><line style="stroke:#FFFFFF;stroke-width:1;" x1="889.8735" x2="1178.3296" y1="1091.3196" y2="1091.3196"/><line style="stroke:#FFFFFF;stroke-width:1;" x1="889.8735" x2="1178.3296" y1="1108.3342" y2="1108.3342"/><line style="stroke:#FFFFFF;stroke-width:1;" x1="889.8735" x2="1178.3296" y1="1125.3489" y2="1125.3489"/><line style="stroke:#FFFFFF;stroke-width:1;" x1="889.8735" x2="1178.3296" y1="1142.3635" y2="1142.3635"/><line style="stroke:#FFFFFF;stroke-width:1;" x1="889.8735" x2="1178.3296" y1="1159.3782" y2="1159.3782"/><line style="stroke:#FFFFFF;stroke-width:1;" x1="889.8735" x2="1178.3296" y1="1176.3928" y2="1176.3928"/><line style="stroke:#FFFFFF;stroke-width:1;" x1="889.8735" x2="1178.3296" y1="1193.4075" y2="1193.4075"/><line style="stroke:#FFFFFF;stroke-width:1;" x1="889.8735" x2="889.8735" y1="1057.2903" y2="1193.4075"/><line style="stroke:#FFFFFF;stroke-width:1;" x1="1035.0142" x2="1035.0142" y1="1057.2903" y2="1193.4075"/><line style="stroke:#FFFFFF;stroke-width:1;" x1="1101.7056" x2="1101.7056" y1="1057.2903" y2="1193.4075"/><line style="stroke:#FFFFFF;stroke-width:1;" x1="1178.3296" x2="1178.3296" y1="1057.2903" y2="1193.4075"/><text fill="#FFFFFF" font-family="Verdana" font-size="14" lengthAdjust="spacing" textLength="4.9219" x="889.8735" y="1209.4827">&#160;</text><text fill="#FFFFFF" font-family="Verdana" font-size="14" font-weight="bold" lengthAdjust="spacing" textLength="104.7744" x="889.8735" y="1226.4973">Key Insights:</text><text fill="#FFFFFF" font-family="Verdana" font-size="14" lengthAdjust="spacing" textLength="273.0889" x="889.8735" y="1243.512">&#8226; Serialization is NEVER the bottleneck</text><text fill="#FFFFFF" font-family="Verdana" font-size="14" lengthAdjust="spacing" textLength="281.6475" x="889.8735" y="1260.5266">&#8226; I/O dominates (200-100,000x slower)</text><text fill="#FFFFFF" font-family="Verdana" font-size="14" lengthAdjust="spacing" textLength="247.9531" x="889.8735" y="1277.5413">&#8226; Zero-copy provides 0% overhead</text><text fill="#FFFFFF" font-family="Verdana" font-size="14" lengthAdjust="spacing" textLength="306.6328" x="889.8735" y="1294.5559">&#8226; Safe code = same performance as unsafe</text><!--SRC=[ZLPTRXit47xVKunH59KCfz6F9JdR981jIOrHLmuYmm4A0mQrEx88hSWDITbHgnIzGT_xLFGE1VhSe_G2lKA7t9NsHoit-o9xvkFypqSUc1ak4EA8SU4TX3Zb0k5Y80mtgtCPIGLVD5vCkgs6Hv88OJ0UmrjKKwaMJ0G8vpEcM61GSMrueE6mTdtLl_B1I5Z68JC84nJ133KOla1TzxoluDj8JbW48LDpIDnhD8QBU-tfEHSnMLp0X0NpUoMN8jo4uRuSWe9boyWCfJ0ffEq-BuT9Wlx90_fomA7zl4yKonW_BD4ceiqgeX1oP_L6bHm_LKe-viyF4t5Wf3gJAaILAbld7QljzPp-aa_naefQW6J7tp95TUCn4-Qid74rQiUEJIIVSuJtA4AAUd_M8qcDqJ46VCg3gkeB2qZohWuhYQiGJDgWajDK-YaVOH0nhVUPxxXlrxmjQrhJFQqefpeiUgKnvGyqrliS3qw6nyEJ9nsVCLLSYkfahT_rc7Q2HVn7PhWKQqyRwg7d3wvHcuRl6tatMHdKjVetdYksulSpu-mT7kOMp8UVEys6q8U7JlVFBt_06sGK77KjPvzWRK9jCIFoWY6WtMEEcjIjHbx_FOkTi9CNZesoOx2nPOV8XkPv_YON154ql1Eyowz99fhDLchQYLeaEZvE9JNRa2Z2268b0zIQt48iwNSIORtQyO8Ytl56QIHKzJBn-zewRc_SbBGjf-sqYwcTHf4C74yjfrDKjw9ceo7IO8c2YhlReXiCVF-HczbTm68Ma8kQaOP5Tvf2hJl8I8B2p8O-o3jzhxXn7eW43RiL2TKOIZLQxJYphRb1fLsRJy2DJMaOV6ZskYND3QFIKJsT2nz6gJgBOZr2yoZL_7cVw_dQywyL4vfAa00hnZB5G-toT5ItjMmq_lvpCvavzVj4tMaiCgNr0RNnk5znCD6zwQUwxQaabTz-__UlN-7Y-HLm3JJ5p-Zq4MtPHz2HV4JbK6R6H74ZylLUzr4Njt6xXrCb5v-zYSsZJkkuQXT3B6zZioVohOXukD5qdjxJuwezxJNsx6cdLvpcr1F2p0LsAnZf7fBXgHoiiTqjkf-3UNdMQEDCCDjAponJQdZOff9tczLtmn2tulyfejrwKQQ8ayw68hALW729zZqXfrEwgNHzd-FFPeXsg_q4GxHxfPgUq_OQjGnCqgRg1Vq1bNmMo7YLLdwhE5N1o-lNG5DKviujvEfHa3YGn8Y1uugSTsrax7dfbRvdCc6yN2oOMgLpkNu5Lp4groJxppKzlEplEun8za1_9x3Dy6wk8f9OtgUVviSo9biJg-uvLEFhReORBedCSfRSfUMm9KpHKh9G3f_X2ZnZKOukR7X7zBpBS1cdF04gi99rHFnYuTtkKRUxJI0jwdUuWWkXRPcrdrlpmbrkUMWqk1cyiuzNc4X3JqoHNo3BLQ5SSC5ibhKApgfNp0rTXG-SY0GQNuAabRLpb0N0fhIcCaHu1PhP1tkk_Kp3KcX2sBb9HiNx3m00]--></g></svg>