<svg xmlns="http://www.w3.org/2000/svg" xmlns:xlink="http://www.w3.org/1999/xlink" contentStyleType="text/css" data-diagram-type="CLASS" height="1454px" preserveAspectRatio="none" style="width:1852px;height:1454px;background:#FFFFFF;" version="1.1" viewBox="0 0 1852 1454" width="1852px" zoomAndPan="magnify"><title>ETest0 Entity Structure - Complete Layout</title><defs/><g><text fill="#000000" font-family="Verdana" font-size="22" font-weight="bold" lengthAdjust="spacing" textLength="520.8135" x="661.1304" y="37.1182">ETest0 Entity Structure - Complete Layout</text><!--class ETest0--><g class="entity" data-entity="ETest0" data-source-line="11" data-uid="ent0002" id="entity_ETest0"><rect fill="#09B620" height="381.249" rx="2.5" ry="2.5" style="stroke:#2C5F77;stroke-width:1;" width="406.0742" x="718" y="59.7373"/><ellipse cx="893.522" cy="73.7373" fill="#FFFFFF" rx="9" ry="9" style="stroke:#000000;stroke-width:1;"/><path d="M896.9282,75.7061 C896.2095,76.3779 894.9126,77.5498 893.1626,77.5498 C890.9438,77.5498 889.9751,75.6123 889.9751,73.6592 C889.9751,71.2686 891.4595,70.0029 893.1001,70.0029 C895.1157,70.0029 895.3345,71.5186 895.5063,72.6123 L896.9282,72.4248 C896.8345,71.8467 896.7563,71.2686 896.7563,70.2998 C896.7563,69.6279 896.8032,69.0811 896.8345,68.6592 L895.4282,68.6592 L895.3188,69.6123 C894.7251,69.0811 894.0845,68.5342 892.8657,68.5342 C890.8188,68.5342 888.4126,70.3623 888.4126,73.6748 C888.4126,76.6123 890.1782,79.0029 893.1782,79.0029 C895.6157,79.0029 897.3188,77.3779 897.9126,76.7998 L896.9282,75.7061 Z " fill="#000000"/><text fill="#000000" font-family="Verdana" font-size="14" lengthAdjust="spacing" textLength="47.5303" x="911.022" y="79.3052">ETest0</text><line style="stroke:#2C5F77;stroke-width:1;" x1="719" x2="1123.0742" y1="87.7373" y2="87.7373"/><text fill="#000000" font-family="Verdana" font-size="14" font-weight="bold" lengthAdjust="spacing" textLength="155.9277" x="724" y="105.8125">Header (Fixed Size)</text><line style="stroke:#2C5F77;stroke-width:1;" x1="719" x2="1123.0742" y1="112.752" y2="112.752"/><text fill="#000000" font-family="Verdana" font-size="14" lengthAdjust="spacing" textLength="166.6602" x="724" y="130.8271">_header: ETest0Header</text><line style="stroke:#2C5F77;stroke-width:1;" x1="719" x2="1123.0742" y1="137.7666" y2="137.7666"/><text fill="#000000" font-family="Verdana" font-size="14" font-weight="bold" lengthAdjust="spacing" textLength="153.0293" x="724" y="155.8418">Variable Size Fields</text><line style="stroke:#2C5F77;stroke-width:1;" x1="719" x2="1123.0742" y1="162.7813" y2="162.7813"/><text fill="#000000" font-family="Verdana" font-size="14" lengthAdjust="spacing" textLength="184.9121" x="724" y="180.8564">attribute_bytes: Vec&lt;u8&gt;</text><text fill="#000000" font-family="Verdana" font-size="14" lengthAdjust="spacing" textLength="292.79" x="724" y="197.8711">attribute_entity1: Option&lt;Arc&lt;ETest1&gt;&gt;</text><text fill="#000000" font-family="Verdana" font-size="14" lengthAdjust="spacing" textLength="292.79" x="724" y="214.8857">attribute_entity2: Option&lt;Arc&lt;ETest2&gt;&gt;</text><text fill="#000000" font-family="Verdana" font-size="14" lengthAdjust="spacing" textLength="187.5234" x="724" y="231.9004">attribute_language: String</text><text fill="#000000" font-family="Verdana" font-size="14" lengthAdjust="spacing" textLength="260.7705" x="724" y="248.915">attribute_map0: MapEntity&lt;ETest1&gt;</text><text fill="#000000" font-family="Verdana" font-size="14" lengthAdjust="spacing" textLength="260.7705" x="724" y="265.9297">attribute_map1: MapEntity&lt;ETest2&gt;</text><text fill="#000000" font-family="Verdana" font-size="14" lengthAdjust="spacing" textLength="176.6338" x="724" y="282.9443">attribute_map_id: MapId</text><text fill="#000000" font-family="Verdana" font-size="14" lengthAdjust="spacing" textLength="163.5703" x="724" y="299.959">attribute_string: String</text><line style="stroke:#2C5F77;stroke-width:1;" x1="719" x2="1123.0742" y1="306.8984" y2="306.8984"/><text fill="#000000" font-family="Verdana" font-size="14" font-weight="bold" lengthAdjust="spacing" textLength="109.9766" x="724" y="324.9736">Not Serialized</text><line style="stroke:#2C5F77;stroke-width:1;" x1="719" x2="1123.0742" y1="331.9131" y2="331.9131"/><text fill="#000000" font-family="Verdana" font-size="14" lengthAdjust="spacing" textLength="202.9658" x="724" y="349.9883">attribute_not_serialize_*: ...</text><line style="stroke:#2C5F77;stroke-width:1;" x1="719" x2="1123.0742" y1="356.9277" y2="356.9277"/><line style="stroke:#2C5F77;stroke-width:1;" x1="719" x2="1123.0742" y1="358.9277" y2="358.9277"/><text fill="#000000" font-family="Verdana" font-size="14" font-weight="bold" lengthAdjust="spacing" textLength="66.623" x="724" y="375.0029">Methods</text><line style="stroke:#2C5F77;stroke-width:1;" x1="719" x2="1123.0742" y1="381.9424" y2="381.9424"/><ellipse cx="729" cy="395.9497" fill="#FFFFFF" rx="3" ry="3" style="stroke:#000000;stroke-width:1;"/><text fill="#000000" font-family="Verdana" font-size="14" lengthAdjust="spacing" textLength="319.2998" x="736" y="400.0176">to_bytes() -&gt; Result&lt;Vec&lt;u8&gt;, EnumError&gt;</text><ellipse cx="729" cy="412.9644" fill="#FFFFFF" rx="3" ry="3" style="stroke:#000000;stroke-width:1;"/><text fill="#000000" font-family="Verdana" font-size="14" lengthAdjust="spacing" textLength="382.0742" x="736" y="417.0322">from_bytes(data: &amp;[u8]) -&gt; Result&lt;Self, EnumError&gt;</text><ellipse cx="729" cy="429.979" fill="#FFFFFF" rx="3" ry="3" style="stroke:#000000;stroke-width:1;"/><text fill="#000000" font-family="Verdana" font-size="14" lengthAdjust="spacing" textLength="145.9814" x="736" y="434.0469">to_string() -&gt; String</text></g><!--class ETest0Header--><g class="entity" data-entity="ETest0Header" data-source-line="38" data-uid="ent0003" id="entity_ETest0Header"><rect fill="#09B620" height="552.4102" rx="2.5" ry="2.5" style="stroke:#2C5F77;stroke-width:1;" width="406.0742" x="14" y="517.7373"/><ellipse cx="164.3691" cy="531.7373" fill="#FFFFFF" rx="9" ry="9" style="stroke:#000000;stroke-width:1;"/><path d="M167.7754,533.7061 C167.0566,534.3779 165.7598,535.5498 164.0098,535.5498 C161.791,535.5498 160.8223,533.6123 160.8223,531.6592 C160.8223,529.2686 162.3066,528.0029 163.9473,528.0029 C165.9629,528.0029 166.1816,529.5186 166.3535,530.6123 L167.7754,530.4248 C167.6816,529.8467 167.6035,529.2686 167.6035,528.2998 C167.6035,527.6279 167.6504,527.0811 167.6816,526.6592 L166.2754,526.6592 L166.166,527.6123 C165.5723,527.0811 164.9316,526.5342 163.7129,526.5342 C161.666,526.5342 159.2598,528.3623 159.2598,531.6748 C159.2598,534.6123 161.0254,537.0029 164.0254,537.0029 C166.4629,537.0029 168.166,535.3779 168.7598,534.7998 L167.7754,533.7061 Z " fill="#000000"/><text fill="#000000" font-family="Verdana" font-size="14" lengthAdjust="spacing" textLength="97.8359" x="181.8691" y="537.3052">ETest0Header</text><line style="stroke:#2C5F77;stroke-width:1;" x1="15" x2="419.0742" y1="545.7373" y2="545.7373"/><text fill="#000000" font-family="Verdana" font-size="14" font-weight="bold" lengthAdjust="spacing" textLength="190.7227" x="20" y="563.8125">Fixed Fields (176 bytes)</text><line style="stroke:#2C5F77;stroke-width:1;" x1="15" x2="419.0742" y1="570.752" y2="570.752"/><text fill="#000000" font-family="Verdana" font-size="14" lengthAdjust="spacing" textLength="153.0156" x="20" y="588.8271">id: TypeID [32 bytes]</text><text fill="#000000" font-family="Verdana" font-size="14" lengthAdjust="spacing" textLength="138.8721" x="20" y="605.8418">time: u64 [8 bytes]</text><text fill="#000000" font-family="Verdana" font-size="14" lengthAdjust="spacing" textLength="128.1943" x="20" y="622.8564">attribute_bool: u8</text><text fill="#000000" font-family="Verdana" font-size="14" lengthAdjust="spacing" textLength="129.5" x="20" y="639.8711">attribute_byte: u8</text><text fill="#000000" font-family="Verdana" font-size="14" lengthAdjust="spacing" textLength="175.6357" x="20" y="656.8857">attribute_bytes_len: u64</text><text fill="#000000" font-family="Verdana" font-size="14" lengthAdjust="spacing" textLength="150.582" x="20" y="673.9004">attribute_double: f64</text><text fill="#000000" font-family="Verdana" font-size="14" lengthAdjust="spacing" textLength="186.7373" x="20" y="690.915">attribute_entity1_len: u64</text><text fill="#000000" font-family="Verdana" font-size="14" lengthAdjust="spacing" textLength="186.7373" x="20" y="707.9297">attribute_entity2_len: u64</text><text fill="#000000" font-family="Verdana" font-size="14" lengthAdjust="spacing" textLength="147.2119" x="20" y="724.9443">attribute_enum0: u8</text><text fill="#000000" font-family="Verdana" font-size="14" lengthAdjust="spacing" textLength="147.2119" x="20" y="741.959">attribute_enum1: u8</text><text fill="#000000" font-family="Verdana" font-size="14" lengthAdjust="spacing" textLength="134.7842" x="20" y="758.9736">attribute_float: f32</text><text fill="#000000" font-family="Verdana" font-size="14" lengthAdjust="spacing" textLength="120.7363" x="20" y="775.9883">attribute_int: i32</text><text fill="#000000" font-family="Verdana" font-size="14" lengthAdjust="spacing" textLength="201.6396" x="20" y="793.0029">attribute_language_len: u64</text><text fill="#000000" font-family="Verdana" font-size="14" lengthAdjust="spacing" textLength="132.4395" x="20" y="810.0176">attribute_long: i64</text><text fill="#000000" font-family="Verdana" font-size="14" lengthAdjust="spacing" textLength="177.126" x="20" y="827.0322">attribute_map0_len: u64</text><text fill="#000000" font-family="Verdana" font-size="14" lengthAdjust="spacing" textLength="177.126" x="20" y="844.0469">attribute_map1_len: u64</text><text fill="#000000" font-family="Verdana" font-size="14" lengthAdjust="spacing" textLength="189.6904" x="20" y="861.0615">attribute_map_id_len: u64</text><text fill="#000000" font-family="Verdana" font-size="14" lengthAdjust="spacing" textLength="191.6934" x="20" y="878.0762">attribute_sha256: [u8; 32]</text><text fill="#000000" font-family="Verdana" font-size="14" lengthAdjust="spacing" textLength="177.6865" x="20" y="895.0908">attribute_string_len: u64</text><text fill="#000000" font-family="Verdana" font-size="14" lengthAdjust="spacing" textLength="134.6133" x="20" y="912.1055">attribute_uint: u32</text><text fill="#000000" font-family="Verdana" font-size="14" lengthAdjust="spacing" textLength="146.3164" x="20" y="929.1201">attribute_ulong: u64</text><line style="stroke:#2C5F77;stroke-width:1;" x1="15" x2="419.0742" y1="936.0596" y2="936.0596"/><line style="stroke:#2C5F77;stroke-width:1;" x1="15" x2="419.0742" y1="938.0596" y2="938.0596"/><text fill="#000000" font-family="Verdana" font-size="14" font-weight="bold" lengthAdjust="spacing" textLength="45.3223" x="20" y="954.1348">Traits</text><line style="stroke:#2C5F77;stroke-width:1;" x1="15" x2="419.0742" y1="961.0742" y2="961.0742"/><polygon fill="#FFFFFF" points="25,970.0815,29,974.0815,25,978.0815,21,974.0815" style="stroke:#000000;stroke-width:1;"/><text fill="#000000" font-family="Verdana" font-size="14" lengthAdjust="spacing" textLength="221.915" x="32" y="979.1494">[derive(FromBytes, IntoBytes)]</text><polygon fill="#FFFFFF" points="25,987.0962,29,991.0962,25,995.0962,21,991.0962" style="stroke:#000000;stroke-width:1;"/><text fill="#000000" font-family="Verdana" font-size="14" lengthAdjust="spacing" textLength="124.0039" x="32" y="996.1641">[repr(C, packed)]</text><line style="stroke:#2C5F77;stroke-width:1;" x1="15" x2="419.0742" y1="1003.1035" y2="1003.1035"/><line style="stroke:#2C5F77;stroke-width:1;" x1="15" x2="419.0742" y1="1005.1035" y2="1005.1035"/><text fill="#000000" font-family="Verdana" font-size="14" font-weight="bold" lengthAdjust="spacing" textLength="66.623" x="20" y="1021.1787">Methods</text><line style="stroke:#2C5F77;stroke-width:1;" x1="15" x2="419.0742" y1="1028.1182" y2="1028.1182"/><ellipse cx="25" cy="1042.1255" fill="#FFFFFF" rx="3" ry="3" style="stroke:#000000;stroke-width:1;"/><text fill="#000000" font-family="Verdana" font-size="14" lengthAdjust="spacing" textLength="319.2998" x="32" y="1046.1934">to_bytes() -&gt; Result&lt;Vec&lt;u8&gt;, EnumError&gt;</text><ellipse cx="25" cy="1059.1401" fill="#FFFFFF" rx="3" ry="3" style="stroke:#000000;stroke-width:1;"/><text fill="#000000" font-family="Verdana" font-size="14" lengthAdjust="spacing" textLength="382.0742" x="32" y="1063.208">from_bytes(data: &amp;[u8]) -&gt; Result&lt;Self, EnumError&gt;</text></g><!--class ETest1--><g class="entity" data-entity="ETest1" data-source-line="74" data-uid="ent0004" id="entity_ETest1"><rect fill="#09B620" height="129.0732" rx="2.5" ry="2.5" style="stroke:#2C5F77;stroke-width:1;" width="304.79" x="800.5" y="1146.7373"/><ellipse cx="925.3799" cy="1160.7373" fill="#FFFFFF" rx="9" ry="9" style="stroke:#000000;stroke-width:1;"/><path d="M928.7861,1162.7061 C928.0674,1163.3779 926.7705,1164.5498 925.0205,1164.5498 C922.8018,1164.5498 921.833,1162.6123 921.833,1160.6592 C921.833,1158.2686 923.3174,1157.0029 924.958,1157.0029 C926.9736,1157.0029 927.1924,1158.5186 927.3643,1159.6123 L928.7861,1159.4248 C928.6924,1158.8467 928.6143,1158.2686 928.6143,1157.2998 C928.6143,1156.6279 928.6611,1156.0811 928.6924,1155.6592 L927.2861,1155.6592 L927.1768,1156.6123 C926.583,1156.0811 925.9424,1155.5342 924.7236,1155.5342 C922.6768,1155.5342 920.2705,1157.3623 920.2705,1160.6748 C920.2705,1163.6123 922.0361,1166.0029 925.0361,1166.0029 C927.4736,1166.0029 929.1768,1164.3779 929.7705,1163.7998 L928.7861,1162.7061 Z " fill="#000000"/><text fill="#000000" font-family="Verdana" font-size="14" lengthAdjust="spacing" textLength="47.5303" x="942.8799" y="1166.3052">ETest1</text><line style="stroke:#2C5F77;stroke-width:1;" x1="801.5" x2="1104.29" y1="1174.7373" y2="1174.7373"/><text fill="#000000" font-family="Verdana" font-size="14" lengthAdjust="spacing" textLength="166.6602" x="806.5" y="1192.8125">_header: ETest1Header</text><line style="stroke:#2C5F77;stroke-width:1;" x1="801.5" x2="1104.29" y1="1199.752" y2="1199.752"/><text fill="#000000" font-family="Verdana" font-size="14" lengthAdjust="spacing" textLength="139.9932" x="806.5" y="1217.8271">attribute_bool: bool</text><text fill="#000000" font-family="Verdana" font-size="14" lengthAdjust="spacing" textLength="163.5703" x="806.5" y="1234.8418">attribute_string: String</text><text fill="#000000" font-family="Verdana" font-size="14" lengthAdjust="spacing" textLength="292.79" x="806.5" y="1251.8564">attribute_entity2: Option&lt;Arc&lt;ETest2&gt;&gt;</text><text fill="#000000" font-family="Verdana" font-size="14" lengthAdjust="spacing" textLength="92.9893" x="806.5" y="1268.8711">name: String</text></g><!--class ETest2--><g class="entity" data-entity="ETest2" data-source-line="83" data-uid="ent0005" id="entity_ETest2"><rect fill="#09B620" height="95.0439" rx="2.5" ry="2.5" style="stroke:#2C5F77;stroke-width:1;" width="304.79" x="800.5" y="1352.7373"/><ellipse cx="925.3799" cy="1366.7373" fill="#FFFFFF" rx="9" ry="9" style="stroke:#000000;stroke-width:1;"/><path d="M928.7861,1368.7061 C928.0674,1369.3779 926.7705,1370.5498 925.0205,1370.5498 C922.8018,1370.5498 921.833,1368.6123 921.833,1366.6592 C921.833,1364.2686 923.3174,1363.0029 924.958,1363.0029 C926.9736,1363.0029 927.1924,1364.5186 927.3643,1365.6123 L928.7861,1365.4248 C928.6924,1364.8467 928.6143,1364.2686 928.6143,1363.2998 C928.6143,1362.6279 928.6611,1362.0811 928.6924,1361.6592 L927.2861,1361.6592 L927.1768,1362.6123 C926.583,1362.0811 925.9424,1361.5342 924.7236,1361.5342 C922.6768,1361.5342 920.2705,1363.3623 920.2705,1366.6748 C920.2705,1369.6123 922.0361,1372.0029 925.0361,1372.0029 C927.4736,1372.0029 929.1768,1370.3779 929.7705,1369.7998 L928.7861,1368.7061 Z " fill="#000000"/><text fill="#000000" font-family="Verdana" font-size="14" lengthAdjust="spacing" textLength="47.5303" x="942.8799" y="1372.3052">ETest2</text><line style="stroke:#2C5F77;stroke-width:1;" x1="801.5" x2="1104.29" y1="1380.7373" y2="1380.7373"/><text fill="#000000" font-family="Verdana" font-size="14" lengthAdjust="spacing" textLength="166.6602" x="806.5" y="1398.8125">_header: ETest2Header</text><line style="stroke:#2C5F77;stroke-width:1;" x1="801.5" x2="1104.29" y1="1405.752" y2="1405.752"/><text fill="#000000" font-family="Verdana" font-size="14" lengthAdjust="spacing" textLength="163.5703" x="806.5" y="1423.8271">attribute_string: String</text><text fill="#000000" font-family="Verdana" font-size="14" lengthAdjust="spacing" textLength="292.79" x="806.5" y="1440.8418">attribute_entity1: Option&lt;Arc&lt;ETest1&gt;&gt;</text></g><!--class MapEntity--><g class="entity" data-entity="MapEntity" data-source-line="90" data-uid="ent0006" id="entity_MapEntity"><rect fill="#E8F4F8" height="196.1172" rx="2.5" ry="2.5" style="stroke:#2C5F77;stroke-width:1;" width="406.0742" x="998" y="695.7373"/><ellipse cx="1156.689" cy="709.7373" fill="#FFFFFF" rx="9" ry="9" style="stroke:#000000;stroke-width:1;"/><path d="M1160.0952,711.7061 C1159.3765,712.3779 1158.0796,713.5498 1156.3296,713.5498 C1154.1108,713.5498 1153.1421,711.6123 1153.1421,709.6592 C1153.1421,707.2686 1154.6265,706.0029 1156.2671,706.0029 C1158.2827,706.0029 1158.5015,707.5186 1158.6733,708.6123 L1160.0952,708.4248 C1160.0015,707.8467 1159.9233,707.2686 1159.9233,706.2998 C1159.9233,705.6279 1159.9702,705.0811 1160.0015,704.6592 L1158.5952,704.6592 L1158.4858,705.6123 C1157.8921,705.0811 1157.2515,704.5342 1156.0327,704.5342 C1153.9858,704.5342 1151.5796,706.3623 1151.5796,709.6748 C1151.5796,712.6123 1153.3452,715.0029 1156.3452,715.0029 C1158.7827,715.0029 1160.4858,713.3779 1161.0796,712.7998 L1160.0952,711.7061 Z " fill="#000000"/><text fill="#000000" font-family="Verdana" font-size="14" lengthAdjust="spacing" textLength="69.8018" x="1174.189" y="715.3052">MapEntity</text><rect fill="#E8F4F8" height="16.584" style="stroke:#2C5F77;stroke-width:1;stroke-dasharray:2.0,2.0;" width="9.3945" x="1397.6797" y="692.7373"/><text fill="#000000" font-family="Verdana" font-size="12" font-style="italic" lengthAdjust="spacing" textLength="7.3945" x="1398.6797" y="705.8018">T</text><line style="stroke:#2C5F77;stroke-width:1;" x1="999" x2="1403.0742" y1="723.7373" y2="723.7373"/><text fill="#000000" font-family="Verdana" font-size="14" font-weight="bold" lengthAdjust="spacing" textLength="192.124" x="1004" y="741.8125">Generic Entity Container</text><line style="stroke:#2C5F77;stroke-width:1;" x1="999" x2="1403.0742" y1="748.752" y2="748.752"/><text fill="#000000" font-family="Verdana" font-size="14" lengthAdjust="spacing" textLength="269.2334" x="1004" y="766.8271">_map: FxHashMap&lt;TypeID, Arc&lt;T&gt;&gt;</text><line style="stroke:#2C5F77;stroke-width:1;" x1="999" x2="1403.0742" y1="773.7666" y2="773.7666"/><line style="stroke:#2C5F77;stroke-width:1;" x1="999" x2="1403.0742" y1="775.7666" y2="775.7666"/><text fill="#000000" font-family="Verdana" font-size="14" font-weight="bold" lengthAdjust="spacing" textLength="66.623" x="1004" y="791.8418">Methods</text><line style="stroke:#2C5F77;stroke-width:1;" x1="999" x2="1403.0742" y1="798.7813" y2="798.7813"/><ellipse cx="1009" cy="812.7886" fill="#FFFFFF" rx="3" ry="3" style="stroke:#000000;stroke-width:1;"/><text fill="#000000" font-family="Verdana" font-size="14" lengthAdjust="spacing" textLength="166.0039" x="1016" y="816.8564">do_set(entity: Arc&lt;T&gt;)</text><ellipse cx="1009" cy="829.8032" fill="#FFFFFF" rx="3" ry="3" style="stroke:#000000;stroke-width:1;"/><text fill="#000000" font-family="Verdana" font-size="14" lengthAdjust="spacing" textLength="307.665" x="1016" y="833.8711">do_get(id: &amp;TypeID) -&gt; Option&lt;&amp;Arc&lt;T&gt;&gt;</text><ellipse cx="1009" cy="846.8179" fill="#FFFFFF" rx="3" ry="3" style="stroke:#000000;stroke-width:1;"/><text fill="#000000" font-family="Verdana" font-size="14" lengthAdjust="spacing" textLength="144.4092" x="1016" y="850.8857">do_del(id: &amp;TypeID)</text><ellipse cx="1009" cy="863.8325" fill="#FFFFFF" rx="3" ry="3" style="stroke:#000000;stroke-width:1;"/><text fill="#000000" font-family="Verdana" font-size="14" lengthAdjust="spacing" textLength="319.2998" x="1016" y="867.9004">to_bytes() -&gt; Result&lt;Vec&lt;u8&gt;, EnumError&gt;</text><ellipse cx="1009" cy="880.8472" fill="#FFFFFF" rx="3" ry="3" style="stroke:#000000;stroke-width:1;"/><text fill="#000000" font-family="Verdana" font-size="14" lengthAdjust="spacing" textLength="382.0742" x="1016" y="884.915">from_bytes(data: &amp;[u8]) -&gt; Result&lt;Self, EnumError&gt;</text></g><!--class MapId--><g class="entity" data-entity="MapId" data-source-line="104" data-uid="ent0007" id="entity_MapId"><rect fill="#E8F4F8" height="179.1025" rx="2.5" ry="2.5" style="stroke:#2C5F77;stroke-width:1;" width="406.0742" x="1439" y="704.2373"/><ellipse cx="1616.5146" cy="718.2373" fill="#FFFFFF" rx="9" ry="9" style="stroke:#000000;stroke-width:1;"/><path d="M1619.9209,720.2061 C1619.2021,720.8779 1617.9053,722.0498 1616.1553,722.0498 C1613.9365,722.0498 1612.9678,720.1123 1612.9678,718.1592 C1612.9678,715.7686 1614.4521,714.5029 1616.0928,714.5029 C1618.1084,714.5029 1618.3271,716.0186 1618.499,717.1123 L1619.9209,716.9248 C1619.8271,716.3467 1619.749,715.7686 1619.749,714.7998 C1619.749,714.1279 1619.7959,713.5811 1619.8271,713.1592 L1618.4209,713.1592 L1618.3115,714.1123 C1617.7178,713.5811 1617.0771,713.0342 1615.8584,713.0342 C1613.8115,713.0342 1611.4053,714.8623 1611.4053,718.1748 C1611.4053,721.1123 1613.1709,723.5029 1616.1709,723.5029 C1618.6084,723.5029 1620.3115,721.8779 1620.9053,721.2998 L1619.9209,720.2061 Z " fill="#000000"/><text fill="#000000" font-family="Verdana" font-size="14" lengthAdjust="spacing" textLength="43.5449" x="1634.0146" y="723.8052">MapId</text><line style="stroke:#2C5F77;stroke-width:1;" x1="1440" x2="1844.0742" y1="732.2373" y2="732.2373"/><text fill="#000000" font-family="Verdana" font-size="14" font-weight="bold" lengthAdjust="spacing" textLength="140.7109" x="1445" y="750.3125">ID-only Container</text><line style="stroke:#2C5F77;stroke-width:1;" x1="1440" x2="1844.0742" y1="757.252" y2="757.252"/><text fill="#000000" font-family="Verdana" font-size="14" lengthAdjust="spacing" textLength="227.5684" x="1445" y="775.3271">_map: FxHashMap&lt;TypeID, ()&gt;</text><line style="stroke:#2C5F77;stroke-width:1;" x1="1440" x2="1844.0742" y1="782.2666" y2="782.2666"/><line style="stroke:#2C5F77;stroke-width:1;" x1="1440" x2="1844.0742" y1="784.2666" y2="784.2666"/><text fill="#000000" font-family="Verdana" font-size="14" font-weight="bold" lengthAdjust="spacing" textLength="66.623" x="1445" y="800.3418">Methods</text><line style="stroke:#2C5F77;stroke-width:1;" x1="1440" x2="1844.0742" y1="807.2813" y2="807.2813"/><ellipse cx="1450" cy="821.2886" fill="#FFFFFF" rx="3" ry="3" style="stroke:#000000;stroke-width:1;"/><text fill="#000000" font-family="Verdana" font-size="14" lengthAdjust="spacing" textLength="134.4834" x="1457" y="825.3564">do_set(id: TypeID)</text><ellipse cx="1450" cy="838.3032" fill="#FFFFFF" rx="3" ry="3" style="stroke:#000000;stroke-width:1;"/><text fill="#000000" font-family="Verdana" font-size="14" lengthAdjust="spacing" textLength="213.1719" x="1457" y="842.3711">contains(id: &amp;TypeID) -&gt; bool</text><ellipse cx="1450" cy="855.3179" fill="#FFFFFF" rx="3" ry="3" style="stroke:#000000;stroke-width:1;"/><text fill="#000000" font-family="Verdana" font-size="14" lengthAdjust="spacing" textLength="319.2998" x="1457" y="859.3857">to_bytes() -&gt; Result&lt;Vec&lt;u8&gt;, EnumError&gt;</text><ellipse cx="1450" cy="872.3325" fill="#FFFFFF" rx="3" ry="3" style="stroke:#000000;stroke-width:1;"/><text fill="#000000" font-family="Verdana" font-size="14" lengthAdjust="spacing" textLength="382.0742" x="1457" y="876.4004">from_bytes(data: &amp;[u8]) -&gt; Result&lt;Self, EnumError&gt;</text></g><g class="entity" data-entity="GMN18" data-source-line="131" data-uid="ent0019" id="entity_GMN18"><path d="M454.5,757.2373 L454.5,789.7373 L420.25,793.7373 L454.5,797.7373 L454.5,830.4346 A0,0 0 0 0 454.5,830.4346 L693.7832,830.4346 A0,0 0 0 0 693.7832,830.4346 L693.7832,767.2373 L683.7832,757.2373 L454.5,757.2373 A0,0 0 0 0 454.5,757.2373" fill="#FFFFFF" style="stroke:#000000;stroke-width:1;"/><path d="M683.7832,757.2373 L683.7832,767.2373 L693.7832,767.2373 L683.7832,757.2373" fill="#FFFFFF" style="stroke:#000000;stroke-width:1;"/><text fill="#000000" font-family="Verdana" font-size="13" font-weight="bold" lengthAdjust="spacing" textLength="131.9678" x="460.5" y="775.3071">Zero-Copy Header</text><text fill="#000000" font-family="Verdana" font-size="13" lengthAdjust="spacing" textLength="150.9917" x="460.5" y="791.1064">&#8226; Fixed size: 176 bytes</text><text fill="#000000" font-family="Verdana" font-size="13" lengthAdjust="spacing" textLength="218.2832" x="460.5" y="806.9058">&#8226; Stores lengths of variable fields</text><text fill="#000000" font-family="Verdana" font-size="13" lengthAdjust="spacing" textLength="170.2822" x="460.5" y="822.7051">&#8226; Direct memory mapping</text></g><g class="entity" data-entity="GMN21" data-source-line="138" data-uid="ent0022" id="entity_GMN21"><path d="M1141,1166.7373 L1141,1255.7339 A0,0 0 0 0 1141,1255.7339 L1366.7881,1255.7339 A0,0 0 0 0 1366.7881,1255.7339 L1366.7881,1176.7373 L1356.7881,1166.7373 L1252.44,1166.7373 L1213.39,891.8873 L1244.44,1166.7373 L1141,1166.7373 A0,0 0 0 0 1141,1166.7373" fill="#FFFFFF" style="stroke:#000000;stroke-width:1;"/><path d="M1356.7881,1166.7373 L1356.7881,1176.7373 L1366.7881,1176.7373 L1356.7881,1166.7373" fill="#FFFFFF" style="stroke:#000000;stroke-width:1;"/><text fill="#000000" font-family="Verdana" font-size="13" font-weight="bold" lengthAdjust="spacing" textLength="131.0664" x="1147" y="1184.8071">Generic Container</text><text fill="#000000" font-family="Verdana" font-size="13" lengthAdjust="spacing" textLength="129.562" x="1147" y="1200.6064">&#8226; Type-safe storage</text><text fill="#000000" font-family="Verdana" font-size="13" lengthAdjust="spacing" textLength="204.7881" x="1147" y="1216.4058">&#8226; Arc&lt;T&gt; for shared ownership</text><text fill="#000000" font-family="Verdana" font-size="13" lengthAdjust="spacing" textLength="196.0093" x="1147" y="1232.2051">&#8226; FxHashMap for performance</text><text fill="#000000" font-family="Verdana" font-size="13" lengthAdjust="spacing" textLength="179.8291" x="1147" y="1248.0044">&#8226; Supports any IEntity type</text></g><!--reverse link ETest0 to ETest0Header--><g class="link" data-entity-1="ETest0" data-entity-2="ETest0Header" data-source-line="117" data-uid="lnk8" id="link_ETest0_ETest0Header"><path codeLine="117" d="M707.1364,346.0329 C615.9764,391.6029 521.03,447.0073 437,517.7373 C431.39,522.4573 425.82,527.3473 420.3,532.3673" fill="none" id="ETest0-backto-ETest0Header" style="stroke:#2C5F77;stroke-width:1;"/><polygon fill="#2C5F77" points="717.87,340.6673,710.7147,339.7722,707.1364,346.0329,714.2917,346.928,717.87,340.6673" style="stroke:#2C5F77;stroke-width:1;"/><text fill="#000000" font-family="Verdana" font-size="13" lengthAdjust="spacing" textLength="54.3867" x="498" y="484.8071">contains</text></g><!--reverse link ETest0 to ETest1--><g class="link" data-entity-1="ETest0" data-entity-2="ETest1" data-source-line="118" data-uid="lnk9" id="link_ETest0_ETest1"><path codeLine="118" d="M887.9976,452.9765 C866.1776,620.2265 849.61,857.6573 893,1069.7373 C898.34,1095.8573 908.74,1123.1173 919.39,1146.6073" fill="none" id="ETest0-backto-ETest1" style="stroke:#2C5F77;stroke-width:1;"/><polygon fill="none" points="889.55,441.0773,884.8074,446.5094,887.9976,452.9765,892.7402,447.5444,889.55,441.0773" style="stroke:#2C5F77;stroke-width:1;"/><text fill="#000000" font-family="Verdana" font-size="13" lengthAdjust="spacing" textLength="85.7568" x="894" y="799.3071">nested entity</text></g><!--reverse link ETest0 to ETest2--><g class="link" data-entity-1="ETest0" data-entity-2="ETest2" data-source-line="119" data-uid="lnk10" id="link_ETest0_ETest2"><path codeLine="119" d="M828.3615,451.8843 C742.3415,666.2743 647.13,1009.0873 783,1275.7373 C799.23,1307.5873 827.95,1333.1573 857.21,1352.5773" fill="none" id="ETest0-backto-ETest2" style="stroke:#2C5F77;stroke-width:1;"/><polygon fill="none" points="832.83,440.7473,826.8834,444.8263,828.3615,451.8843,834.3081,447.8053,832.83,440.7473" style="stroke:#2C5F77;stroke-width:1;"/><text fill="#000000" font-family="Verdana" font-size="13" lengthAdjust="spacing" textLength="85.7568" x="729" y="1113.8071">nested entity</text></g><!--reverse link ETest0 to MapEntity--><g class="link" data-entity-1="ETest0" data-entity-2="MapEntity" data-source-line="120" data-uid="lnk11" id="link_ETest0_MapEntity"><path codeLine="120" d="M980.1683,452.1418 C986.4083,468.1918 988.8,472.7973 996,487.7373 C1031.48,561.2873 1082.73,637.5373 1125.11,695.4073" fill="none" id="ETest0-backto-MapEntity" style="stroke:#2C5F77;stroke-width:1;"/><polygon fill="#2C5F77" points="975.82,440.9573,974.266,447.999,980.1683,452.1418,981.7223,445.1001,975.82,440.9573" style="stroke:#2C5F77;stroke-width:1;"/><text fill="#000000" font-family="Verdana" font-size="13" lengthAdjust="spacing" textLength="95.7734" x="997" y="484.8071">contains map0</text></g><!--reverse link ETest0 to MapEntity--><g class="link" data-entity-1="ETest0" data-entity-2="MapEntity" data-source-line="121" data-uid="lnk12" id="link_ETest0_MapEntity"><path codeLine="121" d="M1085.9146,451.0104 C1092.1146,460.9204 1091.61,460.7373 1097,470.7373 C1135.38,541.9773 1162.57,629.7873 1179.5,695.6973" fill="none" id="ETest0-backto-MapEntity-1" style="stroke:#2C5F77;stroke-width:1;"/><polygon fill="#2C5F77" points="1079.55,440.8373,1079.3413,448.0454,1085.9146,451.0104,1086.1233,443.8023,1079.55,440.8373" style="stroke:#2C5F77;stroke-width:1;"/><text fill="#000000" font-family="Verdana" font-size="13" lengthAdjust="spacing" textLength="95.7734" x="1107" y="484.8071">contains map1</text></g><!--reverse link ETest0 to MapId--><g class="link" data-entity-1="ETest0" data-entity-2="MapId" data-source-line="122" data-uid="lnk13" id="link_ETest0_MapId"><path codeLine="122" d="M1134.9787,341.5683 C1230.6587,387.2583 1332.18,444.1673 1421,517.7373 C1485.5,571.1673 1544.16,645.9873 1584.8,704.0973" fill="none" id="ETest0-backto-MapId" style="stroke:#2C5F77;stroke-width:1;"/><polygon fill="#2C5F77" points="1124.15,336.3973,1127.8407,342.5924,1134.9787,341.5683,1131.288,335.3732,1124.15,336.3973" style="stroke:#2C5F77;stroke-width:1;"/><text fill="#000000" font-family="Verdana" font-size="13" lengthAdjust="spacing" textLength="54.3867" x="1374" y="484.8071">contains</text></g><!--reverse link ETest1 to ETest2--><g class="link" data-entity-1="ETest1" data-entity-2="ETest2" data-source-line="124" data-uid="lnk14" id="link_ETest1_ETest2"><path codeLine="124" d="M899.0992,1286.2741 C893.8292,1295.9041 895.04,1295.5173 892,1305.7373 C887.14,1322.0873 892.83,1338.2473 902.39,1352.4073" fill="none" id="ETest1-backto-ETest2" style="stroke:#2C5F77;stroke-width:1;"/><polygon fill="none" points="904.86,1275.7473,898.4707,1279.0904,899.0992,1286.2741,905.4885,1282.931,904.86,1275.7473" style="stroke:#2C5F77;stroke-width:1;"/><text fill="#000000" font-family="Verdana" font-size="13" lengthAdjust="spacing" textLength="74.9912" x="893" y="1319.8071">can contain</text></g><!--reverse link ETest2 to ETest1--><g class="link" data-entity-1="ETest2" data-entity-2="ETest1" data-source-line="125" data-uid="lnk15" id="link_ETest2_ETest1"><path codeLine="125" d="M969.2218,1340.9647 C971.5218,1331.1647 970.8,1332.5173 972,1322.7373 C973.87,1307.4773 972.77,1291.1073 970.37,1275.7773" fill="none" id="ETest2-backto-ETest1" style="stroke:#2C5F77;stroke-width:1;"/><polygon fill="none" points="966.48,1352.6473,971.7451,1347.72,969.2218,1340.9647,963.9567,1345.8921,966.48,1352.6473" style="stroke:#2C5F77;stroke-width:1;"/><text fill="#000000" font-family="Verdana" font-size="13" lengthAdjust="spacing" textLength="74.9912" x="974" y="1319.8071">can contain</text></g><!--link MapEntity to ETest1--><g class="link" data-entity-1="MapEntity" data-entity-2="ETest1" data-source-line="127" data-uid="lnk16" id="link_MapEntity_ETest1"><path codeLine="127" d="M1143.01,891.8873 C1096.13,970.4373 1034.5546,1073.5949 994.0546,1141.4649" fill="none" id="MapEntity-to-ETest1" style="stroke:#2C5F77;stroke-width:1;"/><polygon fill="#2C5F77" points="990.98,1146.6173,999.0268,1140.9385,993.5421,1142.3237,992.1569,1136.839,990.98,1146.6173" style="stroke:#2C5F77;stroke-width:1;"/><text fill="#000000" font-family="Verdana" font-size="13" lengthAdjust="spacing" textLength="39.8506" x="1014" y="1113.8071">stores</text></g><!--link MapEntity to ETest2--><g class="link" data-entity-1="MapEntity" data-entity-2="ETest2" data-source-line="128" data-uid="lnk17" id="link_MapEntity_ETest2"><path codeLine="128" d="M1289.85,892.0573 C1372.89,995.2373 1471.92,1159.0773 1384,1275.7373 C1349.92,1320.9573 1221.2464,1353.557 1111.4264,1374.237" fill="none" id="MapEntity-to-ETest2" style="stroke:#2C5F77;stroke-width:1;"/><polygon fill="#2C5F77" points="1105.53,1375.3473,1115.1148,1377.6127,1110.4436,1374.422,1113.6343,1369.7509,1105.53,1375.3473" style="stroke:#2C5F77;stroke-width:1;"/><text fill="#000000" font-family="Verdana" font-size="13" lengthAdjust="spacing" textLength="39.8506" x="1420" y="1216.8071">stores</text></g><!--SRC=[nLVTRjis5BxNKvosG61hKM0hRU9fhe7MYLi3wmRCHYyM10OjqJPHYHH8ggqt5EYpxD7s9EEV94koq-QcoqKKdFFn_F4xvp1Fv0vd6F8K4UezIV26K0ppMog9t4zPoZWy6_oylWe7dfAa66wNMCW1M00i92zYMN0C0KnPbgTOOlWLxLaXFKzy83H776KGfqW8-Di3zVCQnH-sd1KqSUPlHxFdiv7LCPvWxkJXzCNi-jh8Nt7EFZN5NppFMdK1kIYT4zz_Yv4o1RqP-OmJM92_SD_tZIu8p6UrCuZ86R3uGu3llqUSeBLAMX-76S5f8ff6a9ISh0k9L-kzn2A2zpWU5wD9IubDjOOH_9vBmkZu5O_7nkrmSXmQTg5X1veYkYtG5aVw6WZTjjGPoWSHl4EvlQlIOHSrxA328wWLIGnkdhHqmZXl155Ly3ScOO5L5LDLmUHKxIYJAr6YLdu45nSN1lBofRFp3iiTQnV_9v3CrhtNXs02Vs1Hf7Bihk1SSRJ8RXLp-CJ1Dvnbxa2298hWxAuOtH-UNU1qS-IWycEpj8vSfYqAEiQrYMW9QCa3lU7r5PW8McpKnLtkSpo_WRlBq4BkZKQIJDrmSVKSxaQ7yWFgCPOgnEW88q-8nIh5r1XjAHDMABv7iEbe78LF7NIqFQqkii6HOBHyU4I-IHcIAepBiAKWL8b9HrosmYd_ATCC9Hsvxf5JPtHdFA1J_N1AAtOeV74LWMBNBt0PtXzjc5E72vDYqKcni3cK1whMM794PAipdjqf9fAFk3TJZ7-jB_mSvbGoysV_tc4updblUWwvciWuSUB_l-MQRJLiDLHpR0-xOxlT5_htjoVM8mOmHLazSfl1XWy66puKx7V4T69_L24yhQVuSl8KaAZ7UZMDtc2gc16N-tlAg5IB7_FMRbJyZc3s-IqIEsLZR2VJEMY_IrU6Rn4bKJCJovuDFN97-xLogvHwwfrPuuOIBhspGpy6dE2q0VxnP3IRhohZ_2PWD7rq_NhzHzMkNWfbmh7r9pgLgrZ-WuhYNbr-43ItNrI5M49O2Hag9LLVjGqjAJg8y1H2kwcvNFi0FR-_1pHiWTHL7aJgkVWQWSI8bWZF2Hkf7Egzsc-WwbPXX6GSYsFQiDPwwlc3WPFjJWBRT9-ZllydvYoOidmFLkpeyk_NVy2-BeHwDqLGlIqgxS9u0BLfjd8djFMFvPDsOnua5VA6S1nBo736-5vNBDTJ2DC4T7GknZMJacNQJ9LHQwoq-q6RrYmD1DfWax1QqfN6jZbirBDUhKok4c6Vr5cn8tcTODb41fPZhZuPed5jPL7aEUDI0ABxyZyNaCff7Vv_]--></g></svg>