<svg xmlns="http://www.w3.org/2000/svg" xmlns:xlink="http://www.w3.org/1999/xlink" contentStyleType="text/css" data-diagram-type="DESCRIPTION" height="469px" preserveAspectRatio="none" style="width:2575px;height:469px;background:#FEFEFE;" version="1.1" viewBox="0 0 2575 469" width="2575px" zoomAndPan="magnify"><title>Evo Entity Serialization System (ESS) - Overview</title><defs/><g><rect fill="#FEFEFE" height="469" style="stroke:none;stroke-width:1;" width="2575" x="0" y="0"/><text fill="#000000" font-family="Verdana" font-size="10" lengthAdjust="spacing" textLength="129.9951" x="2426.5879" y="20.0537">..&gt; serialize : implements</text><text fill="#000000" font-family="Verdana" font-size="22" font-weight="bold" lengthAdjust="spacing" textLength="604.8926" x="980.8452" y="60.2715">Evo Entity Serialization System (ESS) - Overview</text><!--cluster Evo ESS Architecture--><g class="cluster" data-entity="Evo ESS Architecture" data-source-line="15" data-uid="ent0002" id="cluster_Evo ESS Architecture"><path d="M13.5,81.8906 L179.1436,81.8906 A3.75,3.75 0 0 1 181.6436,84.3906 L188.6436,104.9053 L2159.5,104.9053 A2.5,2.5 0 0 1 2162,107.4053 L2162,459.8906 A2.5,2.5 0 0 1 2159.5,462.3906 L13.5,462.3906 A2.5,2.5 0 0 1 11,459.8906 L11,84.3906 A2.5,2.5 0 0 1 13.5,81.8906" fill="#FFFFFF" style="stroke:#000000;stroke-width:1;"/><line style="stroke:#000000;stroke-width:1;" x1="11" x2="188.6436" y1="104.9053" y2="104.9053"/><text fill="#000000" font-family="Verdana" font-size="14" font-weight="bold" lengthAdjust="spacing" textLength="164.6436" x="15" y="97.9658">Evo ESS Architecture</text></g><!--cluster Entity Layer--><g class="cluster" data-entity="Entity Layer" data-source-line="17" data-uid="ent0003" id="cluster_Entity Layer"><rect fill="#87CEEB" height="296.5" rx="2.5" ry="2.5" style="stroke:#333333;stroke-width:1;" width="339" x="1783" y="133.8906"/><text fill="#000000" font-family="Verdana" font-size="14" font-style="italic" lengthAdjust="spacing" textLength="48.1523" x="1928.4238" y="149.9658">&#171;core&#187;</text><text fill="#000000" font-family="Verdana" font-size="14" font-weight="bold" lengthAdjust="spacing" textLength="94.6162" x="1905.1919" y="166.9805">Entity Layer</text></g><!--cluster Serialization Layer--><g class="cluster" data-entity="Serialization Layer" data-source-line="27" data-uid="ent0009" id="cluster_Serialization Layer"><rect fill="#90EE90" height="111" rx="2.5" ry="2.5" style="stroke:#333333;stroke-width:1;" width="464" x="524" y="139.8906"/><text fill="#000000" font-family="Verdana" font-size="14" font-style="italic" lengthAdjust="spacing" textLength="47.0107" x="732.4946" y="155.9658">&#171;safe&#187;</text><text fill="#000000" font-family="Verdana" font-size="14" font-weight="bold" lengthAdjust="spacing" textLength="146.7881" x="682.606" y="172.9805">Serialization Layer</text></g><!--cluster Container Layer--><g class="cluster" data-entity="Container Layer" data-source-line="36" data-uid="ent0015" id="cluster_Container Layer"><rect fill="#87CEEB" height="126" rx="2.5" ry="2.5" style="stroke:#333333;stroke-width:1;" width="454" x="1305" y="304.3906"/><text fill="#000000" font-family="Verdana" font-size="14" font-style="italic" lengthAdjust="spacing" textLength="48.1523" x="1507.9238" y="320.4658">&#171;core&#187;</text><text fill="#000000" font-family="Verdana" font-size="14" font-weight="bold" lengthAdjust="spacing" textLength="124.8857" x="1469.5571" y="337.4805">Container Layer</text></g><!--cluster Bridge Layer--><g class="cluster" data-entity="Bridge Layer" data-source-line="46" data-uid="ent0021" id="cluster_Bridge Layer"><rect fill="#FFFFFF" height="109" rx="2.5" ry="2.5" style="stroke:#333333;stroke-width:1;" width="681" x="600" y="321.3906"/><text fill="#000000" font-family="Verdana" font-size="14" font-weight="bold" lengthAdjust="spacing" textLength="99.709" x="890.6455" y="337.4658">Bridge Layer</text></g><!--cluster Zerocopy Traits--><g class="cluster" data-entity="Zerocopy Traits" data-source-line="58" data-uid="ent0029" id="cluster_Zerocopy Traits"><rect fill="#90EE90" height="106" rx="2.5" ry="2.5" style="stroke:#333333;stroke-width:1;" width="533" x="43" y="314.3906"/><text fill="#000000" font-family="Verdana" font-size="14" font-style="italic" lengthAdjust="spacing" textLength="47.0107" x="285.9946" y="330.4658">&#171;safe&#187;</text><text fill="#000000" font-family="Verdana" font-size="14" font-weight="bold" lengthAdjust="spacing" textLength="122.4111" x="248.2944" y="347.4805">Zerocopy Traits</text></g><!--entity entity--><g class="entity" data-entity="entity" data-source-line="18" data-uid="ent0004" id="entity_entity"><rect fill="#09B620" height="54.0293" rx="2.5" ry="2.5" style="stroke:#333333;stroke-width:1;" width="80.3926" x="1799" y="186.8906"/><text fill="#000000" font-family="Verdana" font-size="14" font-style="italic" lengthAdjust="spacing" textLength="58.3926" x="1810" y="210.9658">&#171;entity&#187;</text><text fill="#000000" font-family="Verdana" font-size="14" lengthAdjust="spacing" textLength="47.5303" x="1815.4312" y="227.9805">ETest0</text></g><!--entity header--><g class="entity" data-entity="header" data-source-line="19" data-uid="ent0005" id="entity_header"><rect fill="#09B620" height="54.0293" rx="2.5" ry="2.5" style="stroke:#333333;stroke-width:1;" width="117.8359" x="1799" y="358.8906"/><text fill="#000000" font-family="Verdana" font-size="14" font-style="italic" lengthAdjust="spacing" textLength="58.3926" x="1828.7217" y="382.9658">&#171;entity&#187;</text><text fill="#000000" font-family="Verdana" font-size="14" lengthAdjust="spacing" textLength="97.8359" x="1809" y="399.9805">ETest0Header</text></g><g class="entity" data-entity="GMN6" data-source-line="21" data-uid="ent0007" id="entity_GMN6"><path d="M1952,357.3906 L1952,381.8906 L1917.12,385.8906 L1952,389.8906 L1952,414.7886 A0,0 0 0 0 1952,414.7886 L2105.8691,414.7886 A0,0 0 0 0 2105.8691,414.7886 L2105.8691,367.3906 L2095.8691,357.3906 L1952,357.3906 A0,0 0 0 0 1952,357.3906" fill="#FFFFFF" style="stroke:#000000;stroke-width:1;"/><path d="M2095.8691,357.3906 L2095.8691,367.3906 L2105.8691,367.3906 L2095.8691,357.3906" fill="#FFFFFF" style="stroke:#000000;stroke-width:1;"/><text fill="#000000" font-family="Verdana" font-size="13" lengthAdjust="spacing" textLength="116.1875" x="1958" y="375.4604">Zero-copy header</text><text fill="#000000" font-family="Verdana" font-size="13" lengthAdjust="spacing" textLength="64.7969" x="1958" y="391.2598">176 bytes</text><text fill="#000000" font-family="Verdana" font-size="13" lengthAdjust="spacing" textLength="12.9937" x="1958" y="407.0591">1.</text><text fill="#000000" font-family="Verdana" font-size="13" lengthAdjust="spacing" textLength="115.1465" x="1975.7227" y="407.0591">[repr(C, packed)]</text></g><!--entity serialize--><g class="entity" data-entity="serialize" data-source-line="28" data-uid="ent0010" id="entity_serialize"><rect fill="#FFFFFF" height="37.0146" rx="2.5" ry="2.5" style="stroke:#333333;stroke-width:1;" width="93.7871" x="689" y="195.3906"/><text fill="#000000" font-family="Verdana" font-size="14" lengthAdjust="spacing" textLength="73.7871" x="699" y="219.4658">to_bytes()</text></g><!--entity deserialize--><g class="entity" data-entity="deserialize" data-source-line="29" data-uid="ent0011" id="entity_deserialize"><rect fill="#FFFFFF" height="37.0146" rx="2.5" ry="2.5" style="stroke:#333333;stroke-width:1;" width="112.7842" x="540.5" y="195.3906"/><text fill="#000000" font-family="Verdana" font-size="14" lengthAdjust="spacing" textLength="92.7842" x="550.5" y="219.4658">from_bytes()</text></g><g class="entity" data-entity="GMN12" data-source-line="31" data-uid="ent0013" id="entity_GMN12"><path d="M818.5,192.8906 L818.5,209.8906 L783.2,213.8906 L818.5,217.8906 L818.5,234.4893 A0,0 0 0 0 818.5,234.4893 L971.855,234.4893 A0,0 0 0 0 971.855,234.4893 L971.855,202.8906 L961.855,192.8906 L818.5,192.8906 A0,0 0 0 0 818.5,192.8906" fill="#FFFFFF" style="stroke:#000000;stroke-width:1;"/><path d="M961.855,192.8906 L961.855,202.8906 L971.855,202.8906 L961.855,192.8906" fill="#FFFFFF" style="stroke:#000000;stroke-width:1;"/><text fill="#000000" font-family="Verdana" font-size="13" lengthAdjust="spacing" textLength="132.355" x="824.5" y="210.9604">Uses zerocopy traits</text><text fill="#000000" font-family="Verdana" font-size="13" lengthAdjust="spacing" textLength="128.9844" x="824.5" y="226.7598">100% memory safe</text></g><!--entity map--><g class="entity" data-entity="map" data-source-line="37" data-uid="ent0016" id="entity_map"><rect fill="#FFFFFF" height="37.0146" rx="2.5" ry="2.5" style="stroke:#333333;stroke-width:1;" width="121.3428" x="1321.5" y="367.3906"/><text fill="#000000" font-family="Verdana" font-size="14" lengthAdjust="spacing" textLength="101.3428" x="1331.5" y="391.4658">MapEntity&lt;T&gt;</text></g><!--entity mapid--><g class="entity" data-entity="mapid" data-source-line="38" data-uid="ent0017" id="entity_mapid"><rect fill="#FFFFFF" height="37.0146" rx="2.5" ry="2.5" style="stroke:#333333;stroke-width:1;" width="63.5449" x="1679" y="367.3906"/><text fill="#000000" font-family="Verdana" font-size="14" lengthAdjust="spacing" textLength="43.5449" x="1689" y="391.4658">MapId</text></g><g class="entity" data-entity="GMN18" data-source-line="40" data-uid="ent0019" id="entity_GMN18"><path d="M1478,357.3906 L1478,381.8906 L1442.83,385.8906 L1478,389.8906 L1478,414.7886 A0,0 0 0 0 1478,414.7886 L1644.2852,414.7886 A0,0 0 0 0 1644.2852,414.7886 L1644.2852,367.3906 L1634.2852,357.3906 L1478,357.3906 A0,0 0 0 0 1478,357.3906" fill="#FFFFFF" style="stroke:#000000;stroke-width:1;"/><path d="M1634.2852,357.3906 L1634.2852,367.3906 L1644.2852,367.3906 L1634.2852,357.3906" fill="#FFFFFF" style="stroke:#000000;stroke-width:1;"/><text fill="#000000" font-family="Verdana" font-size="13" lengthAdjust="spacing" textLength="145.2852" x="1484" y="375.4604">Generic entity storage</text><text fill="#000000" font-family="Verdana" font-size="13" lengthAdjust="spacing" textLength="117.6982" x="1484" y="391.2598">FxHashMap based</text><text fill="#000000" font-family="Verdana" font-size="13" lengthAdjust="spacing" textLength="96.8779" x="1484" y="407.0591">Arc&lt;T&gt; values</text></g><!--entity bridge--><g class="entity" data-entity="bridge" data-source-line="47" data-uid="ent0022" id="entity_bridge"><rect fill="#FFFFFF" height="37.0146" rx="2.5" ry="2.5" style="stroke:#333333;stroke-width:1;" width="127.0645" x="780.5" y="367.3906"/><text fill="#000000" font-family="Verdana" font-size="14" lengthAdjust="spacing" textLength="107.0645" x="790.5" y="391.4658">Bridge Channel</text></g><!--entity network--><g class="entity" data-entity="network" data-source-line="48" data-uid="ent0023" id="entity_network"><rect fill="#FFFFFF" height="37.0146" rx="2.5" ry="2.5" style="stroke:#333333;stroke-width:1;" width="78.543" x="1186.5" y="367.3906"/><text fill="#000000" font-family="Verdana" font-size="14" lengthAdjust="spacing" textLength="58.543" x="1196.5" y="391.4658">Network</text></g><!--entity disk--><g class="entity" data-entity="disk" data-source-line="49" data-uid="ent0024" id="entity_disk"><rect fill="#FFFFFF" height="37.0146" rx="2.5" ry="2.5" style="stroke:#333333;stroke-width:1;" width="50.208" x="695" y="367.3906"/><text fill="#000000" font-family="Verdana" font-size="14" lengthAdjust="spacing" textLength="30.208" x="705" y="391.4658">Disk</text></g><!--entity ipc--><g class="entity" data-entity="ipc" data-source-line="50" data-uid="ent0025" id="entity_ipc"><rect fill="#FFFFFF" height="37.0146" rx="2.5" ry="2.5" style="stroke:#333333;stroke-width:1;" width="44.1104" x="616" y="367.3906"/><text fill="#000000" font-family="Verdana" font-size="14" lengthAdjust="spacing" textLength="24.1104" x="626" y="391.4658">IPC</text></g><g class="entity" data-entity="GMN26" data-source-line="52" data-uid="ent0027" id="entity_GMN26"><path d="M943,357.3906 L943,381.8906 L907.83,385.8906 L943,389.8906 L943,414.7886 A0,0 0 0 0 943,414.7886 L1150.7607,414.7886 A0,0 0 0 0 1150.7607,414.7886 L1150.7607,367.3906 L1140.7607,357.3906 L943,357.3906 A0,0 0 0 0 943,357.3906" fill="#FFFFFF" style="stroke:#000000;stroke-width:1;"/><path d="M1140.7607,357.3906 L1140.7607,367.3906 L1150.7607,367.3906 L1140.7607,357.3906" fill="#FFFFFF" style="stroke:#000000;stroke-width:1;"/><text fill="#000000" font-family="Verdana" font-size="13" lengthAdjust="spacing" textLength="131.752" x="949" y="375.4604">Universal ID routing</text><text fill="#000000" font-family="Verdana" font-size="13" lengthAdjust="spacing" textLength="125.2837" x="949" y="391.2598">Version verification</text><text fill="#000000" font-family="Verdana" font-size="13" lengthAdjust="spacing" textLength="186.7607" x="949" y="407.0591">Peer-to-peer communication</text></g><!--entity FromBytes--><g class="entity" data-entity="FromBytes" data-source-line="59" data-uid="ent0030" id="entity_FromBytes"><rect fill="#FFFFFF" height="37.0146" rx="2.5" ry="2.5" style="stroke:#333333;stroke-width:1;" width="95.168" x="341.5" y="367.3906"/><text fill="#000000" font-family="Verdana" font-size="14" lengthAdjust="spacing" textLength="75.168" x="351.5" y="391.4658">FromBytes</text></g><!--entity IntoBytes--><g class="entity" data-entity="IntoBytes" data-source-line="60" data-uid="ent0031" id="entity_IntoBytes"><rect fill="#FFFFFF" height="37.0146" rx="2.5" ry="2.5" style="stroke:#333333;stroke-width:1;" width="87.7988" x="472" y="367.3906"/><text fill="#000000" font-family="Verdana" font-size="14" lengthAdjust="spacing" textLength="67.7988" x="482" y="391.4658">IntoBytes</text></g><!--entity Immutable--><g class="entity" data-entity="Immutable" data-source-line="61" data-uid="ent0032" id="entity_Immutable"><rect fill="#FFFFFF" height="37.0146" rx="2.5" ry="2.5" style="stroke:#333333;stroke-width:1;" width="96.8154" x="209.5" y="367.3906"/><text fill="#000000" font-family="Verdana" font-size="14" lengthAdjust="spacing" textLength="76.8154" x="219.5" y="391.4658">Immutable</text></g><!--entity KnownLayout--><g class="entity" data-entity="KnownLayout" data-source-line="62" data-uid="ent0033" id="entity_KnownLayout"><rect fill="#FFFFFF" height="37.0146" rx="2.5" ry="2.5" style="stroke:#333333;stroke-width:1;" width="114.7324" x="59.5" y="367.3906"/><text fill="#000000" font-family="Verdana" font-size="14" lengthAdjust="spacing" textLength="94.7324" x="69.5" y="391.4658">KnownLayout</text></g><g class="entity" data-entity="GMN50" data-source-line="89" data-uid="ent0051" id="entity_GMN50"><path d="M2185.5,317.8906 L2185.5,454.2852 L2568.583,454.2852 L2568.583,327.8906 L2558.583,317.8906 L2185.5,317.8906" fill="#FFFFFF" style="stroke:#000000;stroke-width:1;"/><path d="M2558.583,317.8906 L2558.583,327.8906 L2568.583,327.8906 L2558.583,317.8906" fill="#FFFFFF" style="stroke:#000000;stroke-width:1;"/><text fill="#000000" font-family="Verdana" font-size="13" font-weight="bold" lengthAdjust="spacing" textLength="100.5532" x="2191.5" y="335.9604">Key Features:</text><text fill="#000000" font-family="Verdana" font-size="13" lengthAdjust="spacing" textLength="290.6655" x="2191.5" y="351.7598">&#8226; Zero-copy serialization (0 bytes overhead)</text><text fill="#000000" font-family="Verdana" font-size="13" lengthAdjust="spacing" textLength="274.6187" x="2191.5" y="367.5591">&#8226; Type-safe with compile-time verification</text><text fill="#000000" font-family="Verdana" font-size="13" lengthAdjust="spacing" textLength="211.0786" x="2191.5" y="383.3584">&#8226; High performance serialization</text><text fill="#000000" font-family="Verdana" font-size="13" lengthAdjust="spacing" textLength="153.2451" x="2191.5" y="399.1577">&#8226; Nested entity support</text><text fill="#000000" font-family="Verdana" font-size="13" lengthAdjust="spacing" textLength="181.1494" x="2191.5" y="414.957">&#8226; Generic container support</text><text fill="#000000" font-family="Verdana" font-size="13" lengthAdjust="spacing" textLength="362.083" x="2191.5" y="430.7563">&#8226; Bridge layer optimized (universal IDs, version safety)</text><text fill="#000000" font-family="Verdana" font-size="13" lengthAdjust="spacing" textLength="189.3569" x="2191.5" y="446.5557">&#8226; Peer-to-peer entity sharing</text></g><!--link entity to header--><g class="link" data-entity-1="entity" data-entity-2="header" data-source-line="66" data-uid="lnk34" id="link_entity_header"><path d="M1841.93,241.0806 C1845.5,273.0306 1850.8339,320.7477 1854.4039,352.7077" fill="none" id="entity-to-header" style="stroke:#000000;stroke-width:1;"/><polygon fill="#000000" points="1855.07,358.6706,1858.0462,349.2822,1854.5149,353.7015,1850.0956,350.1703,1855.07,358.6706" style="stroke:#000000;stroke-width:1;"/><text fill="#000000" font-family="Verdana" font-size="13" lengthAdjust="spacing" textLength="54.3867" x="1848" y="284.9604">contains</text></g><!--link entity to map--><g class="link" data-entity-1="entity" data-entity-2="map" data-source-line="67" data-uid="lnk35" id="link_entity_map"><path d="M1798.99,215.4306 C1726.47,218.0906 1570.62,231.5606 1460,296.3906 C1430.14,313.8906 1408.9619,341.8083 1395.8119,362.1983" fill="none" id="entity-to-map" style="stroke:#000000;stroke-width:1;"/><polygon fill="#000000" points="1392.56,367.2406,1400.7994,361.8451,1395.2699,363.0387,1394.0763,357.5092,1392.56,367.2406" style="stroke:#000000;stroke-width:1;"/><text fill="#000000" font-family="Verdana" font-size="13" lengthAdjust="spacing" textLength="54.3867" x="1508" y="284.9604">contains</text></g><!--link entity to mapid--><g class="link" data-entity-1="entity" data-entity-2="mapid" data-source-line="68" data-uid="lnk36" id="link_entity_mapid"><path d="M1809.8,240.9906 C1800.43,250.0306 1790.33,260.5006 1782,270.8906 C1756.63,302.5506 1735.8083,338.5652 1723.2383,361.7652" fill="none" id="entity-to-mapid" style="stroke:#000000;stroke-width:1;"/><polygon fill="#000000" points="1720.38,367.0406,1728.1844,361.033,1722.7619,362.6444,1721.1505,357.222,1720.38,367.0406" style="stroke:#000000;stroke-width:1;"/><text fill="#000000" font-family="Verdana" font-size="13" lengthAdjust="spacing" textLength="54.3867" x="1783" y="284.9604">contains</text></g><!--link serialize to FromBytes--><g class="link" data-entity-1="serialize" data-entity-2="FromBytes" data-source-line="71" data-uid="lnk37" id="link_serialize_FromBytes"><path d="M716.21,232.5806 C704.07,242.2706 687.7,253.4006 671,258.8906 C639.41,269.2706 395.03,246.9106 372,270.8906 C347.19,296.7206 362.5785,336.8548 375.7785,361.8548" fill="none" id="serialize-to-FromBytes" style="stroke:#000000;stroke-width:1;stroke-dasharray:7.0,7.0;"/><polygon fill="#000000" points="378.58,367.1606,377.915,357.3342,376.2454,362.7391,370.8406,361.0695,378.58,367.1606" style="stroke:#000000;stroke-width:1;"/><text fill="#000000" font-family="Verdana" font-size="13" lengthAdjust="spacing" textLength="29.5166" x="373" y="284.9604">uses</text></g><!--link serialize to IntoBytes--><g class="link" data-entity-1="serialize" data-entity-2="IntoBytes" data-source-line="72" data-uid="lnk38" id="link_serialize_IntoBytes"><path d="M715.48,232.5706 C703.35,242.0106 687.23,252.8806 671,258.8906 C626.95,275.1906 603.8,243.0006 566,270.8906 C534.52,294.1106 523.5501,335.5729 519.2401,361.3329" fill="none" id="serialize-to-IntoBytes" style="stroke:#000000;stroke-width:1;stroke-dasharray:7.0,7.0;"/><polygon fill="#000000" points="518.25,367.2506,523.6803,359.0341,519.0751,362.3192,515.79,357.7139,518.25,367.2506" style="stroke:#000000;stroke-width:1;"/><text fill="#000000" font-family="Verdana" font-size="13" lengthAdjust="spacing" textLength="29.5166" x="567" y="284.9604">uses</text></g><!--link deserialize to FromBytes--><g class="link" data-entity-1="deserialize" data-entity-2="FromBytes" data-source-line="74" data-uid="lnk39" id="link_deserialize_FromBytes"><path d="M540.18,216.3906 C457.42,219.9006 309.97,231.6506 277,270.8906 C246.71,306.9406 309,287.0306 324,296.3906 C351.33,313.4506 368.2408,341.1821 378.3908,361.7121" fill="none" id="deserialize-to-FromBytes" style="stroke:#000000;stroke-width:1;stroke-dasharray:7.0,7.0;"/><polygon fill="#000000" points="381.05,367.0906,380.647,357.25,378.834,362.6085,373.4756,360.7956,381.05,367.0906" style="stroke:#000000;stroke-width:1;"/><text fill="#000000" font-family="Verdana" font-size="13" lengthAdjust="spacing" textLength="29.5166" x="278" y="284.9604">uses</text></g><!--link deserialize to Immutable--><g class="link" data-entity-1="deserialize" data-entity-2="Immutable" data-source-line="75" data-uid="lnk40" id="link_deserialize_Immutable"><path d="M540.32,214.9306 C447.47,216.3406 269.32,225.1206 230,270.8906 C206.36,298.4106 225.8373,337.7548 241.9073,362.2348" fill="none" id="deserialize-to-Immutable" style="stroke:#000000;stroke-width:1;stroke-dasharray:7.0,7.0;"/><polygon fill="#000000" points="245.2,367.2506,243.6049,357.5318,242.4561,363.0708,236.9171,361.922,245.2,367.2506" style="stroke:#000000;stroke-width:1;"/><text fill="#000000" font-family="Verdana" font-size="13" lengthAdjust="spacing" textLength="29.5166" x="231" y="284.9604">uses</text></g><!--link deserialize to KnownLayout--><g class="link" data-entity-1="deserialize" data-entity-2="KnownLayout" data-source-line="76" data-uid="lnk41" id="link_deserialize_KnownLayout"><path d="M540.44,216.4806 C441.09,220.2406 240.32,232.4906 183,270.8906 C148.61,293.9306 131.6438,335.6519 123.6038,361.4719" fill="none" id="deserialize-to-KnownLayout" style="stroke:#000000;stroke-width:1;stroke-dasharray:7.0,7.0;"/><polygon fill="#000000" points="121.82,367.2006,128.3149,359.7968,123.3065,362.4267,120.6766,357.4184,121.82,367.2006" style="stroke:#000000;stroke-width:1;"/><text fill="#000000" font-family="Verdana" font-size="13" lengthAdjust="spacing" textLength="29.5166" x="184" y="284.9604">uses</text></g><!--link serialize to bridge--><g class="link" data-entity-1="serialize" data-entity-2="bridge" data-source-line="78" data-uid="lnk42" id="link_serialize_bridge"><path d="M755.49,232.4006 C767.65,242.1606 784.15,253.4206 801,258.8906 C820.14,265.1106 1149.01,256.4306 1163,270.8906 C1168.25,276.3206 1168.25,282.4506 1163,287.8906 C1144.63,306.9306 949.02,285.3006 925,296.3906 C892.67,311.3206 870.5594,340.696 857.3394,361.946" fill="none" id="serialize-to-bridge" style="stroke:#000000;stroke-width:1;"/><polygon fill="#000000" points="854.17,367.0406,862.3205,361.5117,856.8112,362.7951,855.5278,357.2858,854.17,367.0406" style="stroke:#000000;stroke-width:1;"/><text fill="#000000" font-family="Verdana" font-size="13" lengthAdjust="spacing" textLength="55.1992" x="1168" y="284.9604">sends to</text></g><!--link serialize to network--><g class="link" data-entity-1="serialize" data-entity-2="network" data-source-line="79" data-uid="lnk43" id="link_serialize_network"><path d="M755.48,232.4306 C767.64,242.2006 784.14,253.4606 801,258.8906 C823.8,266.2306 1215.3,253.7206 1232,270.8906 C1256.73,296.3206 1246.1561,336.3409 1236.2161,361.4809" fill="none" id="serialize-to-network" style="stroke:#000000;stroke-width:1;"/><polygon fill="#000000" points="1234.01,367.0606,1241.039,360.1618,1235.8484,362.4109,1233.5994,357.2203,1234.01,367.0606" style="stroke:#000000;stroke-width:1;"/><text fill="#000000" font-family="Verdana" font-size="13" lengthAdjust="spacing" textLength="55.1992" x="1243" y="284.9604">sends to</text></g><!--link serialize to disk--><g class="link" data-entity-1="serialize" data-entity-2="disk" data-source-line="80" data-uid="lnk44" id="link_serialize_disk"><path d="M756.18,232.5006 C768.32,242.0406 784.57,253.0406 801,258.8906 C858.4,279.3406 977.01,243.7506 935,287.8906 C921.81,301.7506 778.96,285.8406 763,296.3906 C738.77,312.4006 729.0663,340.3146 724.4063,361.2046" fill="none" id="serialize-to-disk" style="stroke:#000000;stroke-width:1;"/><polygon fill="#000000" points="723.1,367.0606,728.9635,359.1474,724.1886,362.1806,721.1555,357.4056,723.1,367.0606" style="stroke:#000000;stroke-width:1;"/><text fill="#000000" font-family="Verdana" font-size="13" lengthAdjust="spacing" textLength="56.9766" x="945" y="284.9604">writes to</text></g><!--link serialize to ipc--><g class="link" data-entity-1="serialize" data-entity-2="ipc" data-source-line="81" data-uid="lnk45" id="link_serialize_ipc"><path d="M730.37,232.6806 C724.4,248.9606 713.54,272.7606 697,287.8906 C689.87,294.4106 683.87,289.6106 677,296.3906 C657.04,316.0906 647.9831,341.9292 643.0831,361.5592" fill="none" id="serialize-to-ipc" style="stroke:#000000;stroke-width:1;"/><polygon fill="#000000" points="641.63,367.3806,647.6906,359.6173,642.8409,362.5295,639.9288,357.6798,641.63,367.3806" style="stroke:#000000;stroke-width:1;"/><text fill="#000000" font-family="Verdana" font-size="13" lengthAdjust="spacing" textLength="66.5107" x="712" y="284.9604">shares via</text></g><!--link bridge to deserialize--><g class="link" data-entity-1="bridge" data-entity-2="deserialize" data-source-line="83" data-uid="lnk46" id="link_bridge_deserialize"><path d="M840.67,367.1406 C834.79,341.2306 819.94,293.6706 787,270.8906 C765.69,256.1506 695.6,267.0406 671,258.8906 C652.98,252.9206 639.5941,245.4207 625.6741,235.9707" fill="none" id="bridge-to-deserialize" style="stroke:#000000;stroke-width:1;"/><polygon fill="#000000" points="620.71,232.6006,625.9095,240.9651,624.8468,235.409,630.4029,234.3463,620.71,232.6006" style="stroke:#000000;stroke-width:1;"/><text fill="#000000" font-family="Verdana" font-size="13" lengthAdjust="spacing" textLength="88.8101" x="806" y="284.9604">receives from</text></g><!--link network to deserialize--><g class="link" data-entity-1="network" data-entity-2="deserialize" data-source-line="84" data-uid="lnk47" id="link_network_deserialize"><path d="M1219.85,367.0406 C1211.61,346.1406 1194.84,312.3506 1168,296.3906 C1148.26,284.6506 1087.55,292.2506 1065,287.8906 C1039.88,283.0306 1035.23,275.1606 1010,270.8906 C935.68,258.3206 743.32,280.1506 671,258.8906 C652.36,253.4106 638.4908,245.5836 624.5008,235.8236" fill="none" id="network-to-deserialize" style="stroke:#000000;stroke-width:1;"/><polygon fill="#000000" points="619.58,232.3906,624.6726,240.8207,623.6807,235.2514,629.2499,234.2595,619.58,232.3906" style="stroke:#000000;stroke-width:1;"/><text fill="#000000" font-family="Verdana" font-size="13" lengthAdjust="spacing" textLength="88.8101" x="1066" y="284.9604">receives from</text></g><!--link disk to deserialize--><g class="link" data-entity-1="disk" data-entity-2="deserialize" data-source-line="85" data-uid="lnk48" id="link_disk_deserialize"><path d="M716.57,367.0506 C711.61,346.4906 700.35,313.3606 677,296.3906 C654.86,280.3006 636.45,306.0906 616,287.8906 C600.45,274.0506 597.0441,255.2384 596.5841,238.4284" fill="none" id="disk-to-deserialize" style="stroke:#000000;stroke-width:1;"/><polygon fill="#000000" points="596.42,232.4306,592.6677,241.5367,596.5568,237.4288,600.6647,241.3178,596.42,232.4306" style="stroke:#000000;stroke-width:1;"/><text fill="#000000" font-family="Verdana" font-size="13" lengthAdjust="spacing" textLength="71.1953" x="617" y="284.9604">reads from</text></g><!--link ipc to deserialize--><g class="link" data-entity-1="ipc" data-entity-2="deserialize" data-source-line="86" data-uid="lnk49" id="link_ipc_deserialize"><path d="M631.31,367.2506 C622.29,346.2206 604.05,311.9606 576,296.3906 C560.73,287.9106 431.01,300.5706 419,287.8906 C379.26,245.9406 468.5599,228.0411 534.5099,220.4011" fill="none" id="ipc-to-deserialize" style="stroke:#000000;stroke-width:1;"/><polygon fill="#000000" points="540.47,219.7106,531.0695,216.7729,535.5032,220.286,531.9901,224.7197,540.47,219.7106" style="stroke:#000000;stroke-width:1;"/><text fill="#000000" font-family="Verdana" font-size="13" lengthAdjust="spacing" textLength="88.8101" x="420" y="284.9604">receives from</text></g><!--link Evo ESS Architecture to GMN50--><g class="link" data-entity-1="Evo ESS Architecture" data-entity-2="GMN50" data-source-line="89" data-uid="lnk52" id="link_Evo ESS Architecture_GMN50"><path d="M2162.2098,221.1453 C2162.4069,221.2956 2162.6073,221.4484 2162.8109,221.6035 C2164.4394,222.8449 2166.2718,224.2416 2168.2895,225.7797 C2176.3603,231.9319 2187.3956,240.3444 2200.2062,250.1106 C2225.8275,269.6431 2258.55,294.5906 2288.86,317.7006" fill="none" id="Evo ESS Architecture-GMN50" style="stroke:#000000;stroke-width:1;stroke-dasharray:7.0,7.0;"/></g><!--SRC=[bLRRRXCn47tVhnXQ8QKLgLAG2aLL918sj2etAOK7K8IStKbYTTTUsKx25bNYM_WqleInu-mj6oYkrAxc77ikFZFk8xF0525B61V1enXdN21SXS9mamzb8XKSziwdPqzx0LaIX70bOOF261Ld2RzZXai1urmRJA4JZiT7q8KFArGhZkiWqBTSP4on52APPbAWC6EJqr4A8yF4FC4APSgYsxcIIn5xvwFG_hGT0Zy2e3MexxYuq6o6_JuSdlV2yBpNpbcABMiq6fmDJzjPaLIEy-BvC0m7xHnqjR0iNoR7aYf6vJDuvbPm7mGPRMPpX0DNnF4ONgbemGsLOQdmmEVZVfL97lXYlsKvgWCeWjgGxVeQtg0slGbKWc4QDjzDrYKoYgp9NJXhmHNIqEtm-SA0d3L1kxwWajr8PdaRUFhy3AQvGLsp7dvLcAdEy0dOAc1yD2bW5B5pwGpthKMeIwseXR_4IYsC_EPyTuucDZ7jzs79c2cPrZWnxhBg5TZ5xVgaKSCTLS8LmYZ6JJtbqrxlCQIOIfM3ZVH_4XvAOQWZKVtjuj-nRAEEYvk-IoLbMGszYhTc7k_9hRh5hZT8JddavGFQI4MIhL56to-PNj3nrAqQunf6YgPWOCMIPKK03qXue7XChU6phIJfWU622O69osVgJ2NbFPgrLBSE4vll4dpDzGQ9wQCqNtqSEYlFeZsLQNXnLouuZJND4hXw3JG531Vp6k4peLQXnE8p7ZcvrWWV4LNNo6v6VstwwL8qQGyerfUjwcwSwjfROKH27rYTJofP2oDtR1I4OTC4AxPh8TU2xe9IdFWuQ7vvJNIxVT_ty9AYSaBLLP0qjH_XSHKB_44d9_sopOZ0qooXTqbGIvLcIogo8jAIEh015mbkuQ3Itkq7D0b5FVOHAiKfl9GCc-P6EWHgkamDHZPmBzBz1AjLGjUAsq1tO1AjtRjWYj0LPq7WFRgzM2qaFR98ejLWvrwmTVmldlFVHcAnPzWG_dLAu1fgAesHgUsezdVFwUlu-1fp626p9lto-DXPV__yLNbhTEqHwFGshmn8QZQhegDYoqsUOTSs1AovMRZ6uGbs3QT_T7Owqswuf9w73DLCgfI92Ekk2jfxUa4nBaRZCikaCWMwdPnHCRgR33_A4ZlZG6OK3rKjXiwoCbRq4nkY6o8s0vENQTLcnpO8qe0TGiNG-0C0]--></g></svg>