<svg xmlns="http://www.w3.org/2000/svg" xmlns:xlink="http://www.w3.org/1999/xlink" contentStyleType="text/css" data-diagram-type="CLASS" height="790px" preserveAspectRatio="none" style="width:1135px;height:790px;" version="1.1" viewBox="0 0 1135 790" width="1135px" zoomAndPan="magnify"><defs/><g><!--class IEvo--><g class="entity" data-entity="IEvo" data-source-line="19" data-uid="ent0002" id="entity_IEvo"><rect fill="#F1F1F1" height="80.9766" rx="2.5" ry="2.5" style="stroke:#181818;stroke-width:0.5;" width="264.417" x="399.19" y="7"/><ellipse cx="513.4151" cy="23" fill="#FFFFFF" rx="11" ry="11" style="stroke:#181818;stroke-width:1;"/><path d="M509.8428,19.2651 L509.8428,17.1069 L517.2222,17.1069 L517.2222,19.2651 L514.7569,19.2651 L514.7569,27.3418 L517.2222,27.3418 L517.2222,29.5 L509.8428,29.5 L509.8428,27.3418 L512.3082,27.3418 L512.3082,19.2651 Z " fill="#000000"/><text fill="#000000" font-family="sans-serif" font-size="14" font-style="italic" lengthAdjust="spacing" textLength="27.4668" x="533.9151" y="28.291">IEvo</text><line style="stroke:#181818;stroke-width:0.5;" x1="400.19" x2="662.607" y1="39" y2="39"/><line style="stroke:#181818;stroke-width:0.5;" x1="400.19" x2="662.607" y1="47" y2="47"/><ellipse cx="410.19" cy="60.7441" fill="#84BE84" rx="3" ry="3" style="stroke:#038048;stroke-width:1;"/><text fill="#000000" font-family="sans-serif" font-size="14" lengthAdjust="spacing" text-decoration="underline" textLength="209.6514" x="419.19" y="64.5352">evo_version() : TypeEvoVersion</text><ellipse cx="410.19" cy="77.2324" fill="#84BE84" rx="3" ry="3" style="stroke:#038048;stroke-width:1;"/><text fill="#000000" font-family="sans-serif" font-size="14" lengthAdjust="spacing" textLength="238.417" x="419.19" y="81.0234">get_evo_version() : TypeEvoVersion</text></g><!--class ID--><g class="entity" data-entity="ID" data-source-line="24" data-uid="ent0003" id="entity_ID"><rect fill="#F1F1F1" height="80.9766" rx="2.5" ry="2.5" style="stroke:#181818;stroke-width:0.5;" width="144.1523" x="236.32" y="147.98"/><ellipse cx="275.2113" cy="163.98" fill="#FFFFFF" rx="11" ry="11" style="stroke:#181818;stroke-width:1;"/><path d="M271.639,160.2451 L271.639,158.0869 L279.0184,158.0869 L279.0184,160.2451 L276.5531,160.2451 L276.5531,168.3218 L279.0184,168.3218 L279.0184,170.48 L271.639,170.48 L271.639,168.3218 L274.1044,168.3218 L274.1044,160.2451 Z " fill="#000000"/><text fill="#000000" font-family="sans-serif" font-size="14" font-style="italic" lengthAdjust="spacing" textLength="14.5195" x="294.5205" y="169.271">ID</text><rect fill="#FFFFFF" height="16.1328" style="stroke:#181818;stroke-width:1;stroke-dasharray:2,2;" width="42.541" x="340.9313" y="144.98"/><text fill="#000000" font-family="sans-serif" font-size="12" font-style="italic" lengthAdjust="spacing" textLength="40.541" x="341.9313" y="157.5816">TypeID</text><line style="stroke:#181818;stroke-width:0.5;" x1="237.32" x2="379.4723" y1="179.98" y2="179.98"/><line style="stroke:#181818;stroke-width:0.5;" x1="237.32" x2="379.4723" y1="187.98" y2="187.98"/><ellipse cx="247.32" cy="201.7241" fill="#84BE84" rx="3" ry="3" style="stroke:#038048;stroke-width:1;"/><text fill="#000000" font-family="sans-serif" font-size="14" lengthAdjust="spacing" textLength="111.3164" x="256.32" y="205.5152">get_id() : TypeID</text><ellipse cx="247.32" cy="218.2124" fill="#84BE84" rx="3" ry="3" style="stroke:#038048;stroke-width:1;"/><text fill="#000000" font-family="sans-serif" font-size="14" lengthAdjust="spacing" textLength="118.1523" x="256.32" y="222.0034">set_id(id: TypeID)</text></g><!--class ITime--><g class="entity" data-entity="ITime" data-source-line="29" data-uid="ent0004" id="entity_ITime"><rect fill="#F1F1F1" height="80.9766" rx="2.5" ry="2.5" style="stroke:#181818;stroke-width:0.5;" width="197.9922" x="611.4" y="147.98"/><ellipse cx="687.2447" cy="163.98" fill="#FFFFFF" rx="11" ry="11" style="stroke:#181818;stroke-width:1;"/><path d="M683.6725,160.2451 L683.6725,158.0869 L691.0519,158.0869 L691.0519,160.2451 L688.5865,160.2451 L688.5865,168.3218 L691.0519,168.3218 L691.0519,170.48 L683.6725,170.48 L683.6725,168.3218 L686.1378,168.3218 L686.1378,160.2451 Z " fill="#000000"/><text fill="#000000" font-family="sans-serif" font-size="14" font-style="italic" lengthAdjust="spacing" textLength="37.8027" x="707.7447" y="169.271">ITime</text><line style="stroke:#181818;stroke-width:0.5;" x1="612.4" x2="808.3922" y1="179.98" y2="179.98"/><line style="stroke:#181818;stroke-width:0.5;" x1="612.4" x2="808.3922" y1="187.98" y2="187.98"/><ellipse cx="622.4" cy="201.7241" fill="#84BE84" rx="3" ry="3" style="stroke:#038048;stroke-width:1;"/><text fill="#000000" font-family="sans-serif" font-size="14" lengthAdjust="spacing" textLength="147.8613" x="631.4" y="205.5152">get_time() : TypeTime</text><ellipse cx="622.4" cy="218.2124" fill="#84BE84" rx="3" ry="3" style="stroke:#038048;stroke-width:1;"/><text fill="#000000" font-family="sans-serif" font-size="14" lengthAdjust="spacing" textLength="171.9922" x="631.4" y="222.0034">set_time(time: TypeTime)</text></g><!--class IEntity--><g class="entity" data-entity="IEntity" data-source-line="33" data-uid="ent0005" id="entity_IEntity"><rect fill="#09B620" height="97.4648" rx="2.5" ry="2.5" style="stroke:#181818;stroke-width:0.5;" width="245.5088" x="587.64" y="288.95"/><ellipse cx="662.8021" cy="304.95" fill="#09B620" rx="11" ry="11" style="stroke:#181818;stroke-width:1;"/><path d="M659.2298,301.2151 L659.2298,299.0569 L666.6092,299.0569 L666.6092,301.2151 L664.1439,301.2151 L664.1439,309.2918 L666.6092,309.2918 L666.6092,311.45 L659.2298,311.45 L659.2298,309.2918 L661.6952,309.2918 L661.6952,301.2151 Z " fill="#000000"/><text fill="#000000" font-family="sans-serif" font-size="14" font-style="italic" lengthAdjust="spacing" textLength="42.1436" x="683.3021" y="310.241">IEntity</text><rect fill="#FFFFFF" height="16.1328" style="stroke:#181818;stroke-width:1;stroke-dasharray:2,2;" width="42.541" x="793.6078" y="285.95"/><text fill="#000000" font-family="sans-serif" font-size="12" font-style="italic" lengthAdjust="spacing" textLength="40.541" x="794.6078" y="298.5516">TypeID</text><line style="stroke:#181818;stroke-width:0.5;" x1="588.64" x2="832.1488" y1="320.95" y2="320.95"/><line style="stroke:#181818;stroke-width:0.5;" x1="588.64" x2="832.1488" y1="328.95" y2="328.95"/><ellipse cx="598.64" cy="342.6941" fill="#84BE84" rx="3" ry="3" style="stroke:#038048;stroke-width:1;"/><text fill="#000000" font-family="sans-serif" font-size="14" lengthAdjust="spacing" textLength="120.2852" x="607.64" y="346.4852">to_bytes() : BYTES</text><ellipse cx="598.64" cy="359.1824" fill="#84BE84" rx="3" ry="3" style="stroke:#038048;stroke-width:1;"/><text fill="#000000" font-family="sans-serif" font-size="14" lengthAdjust="spacing" textLength="219.5088" x="607.64" y="362.9734">from_bytes(data: BYTES) : IEntity</text><ellipse cx="598.64" cy="375.6707" fill="#84BE84" rx="3" ry="3" style="stroke:#038048;stroke-width:1;"/><text fill="#000000" font-family="sans-serif" font-size="14" lengthAdjust="spacing" textLength="132.5352" x="607.64" y="379.4617">to_string() : STRING</text></g><!--class IControl--><g class="entity" data-entity="IControl" data-source-line="40" data-uid="ent0006" id="entity_IControl"><rect fill="#2735F3" height="80.9766" rx="2.5" ry="2.5" style="stroke:#181818;stroke-width:0.5;" width="90.4629" x="486.16" y="147.98"/><ellipse cx="502.8897" cy="163.98" fill="#2735F3" rx="11" ry="11" style="stroke:#181818;stroke-width:1;"/><path d="M499.3174,160.2451 L499.3174,158.0869 L506.6968,158.0869 L506.6968,160.2451 L504.2315,160.2451 L504.2315,168.3218 L506.6968,168.3218 L506.6968,170.48 L499.3174,170.48 L499.3174,168.3218 L501.7828,168.3218 L501.7828,160.2451 Z " fill="#000000"/><text fill="#000000" font-family="sans-serif" font-size="14" font-style="italic" lengthAdjust="spacing" textLength="54.6191" x="517.2741" y="169.271">IControl</text><line style="stroke:#181818;stroke-width:0.5;" x1="487.16" x2="575.6229" y1="179.98" y2="179.98"/><line style="stroke:#181818;stroke-width:0.5;" x1="487.16" x2="575.6229" y1="187.98" y2="187.98"/><ellipse cx="497.16" cy="201.7241" fill="#84BE84" rx="3" ry="3" style="stroke:#038048;stroke-width:1;"/><text fill="#000000" font-family="sans-serif" font-size="14" lengthAdjust="spacing" textLength="64.4629" x="506.16" y="205.5152">on_start()</text><ellipse cx="497.16" cy="218.2124" fill="#84BE84" rx="3" ry="3" style="stroke:#038048;stroke-width:1;"/><text fill="#000000" font-family="sans-serif" font-size="14" lengthAdjust="spacing" textLength="63.1777" x="506.16" y="222.0034">on_stop()</text></g><!--class IApi--><g class="entity" data-entity="IApi" data-source-line="45" data-uid="ent0007" id="entity_IApi"><rect fill="#00EEFF" height="80.9766" rx="2.5" ry="2.5" style="stroke:#181818;stroke-width:0.5;" width="90.4629" x="389.16" y="297.2"/><ellipse cx="418.5204" cy="313.2" fill="#00EEFF" rx="11" ry="11" style="stroke:#181818;stroke-width:1;"/><path d="M414.9482,309.4651 L414.9482,307.3069 L422.3276,307.3069 L422.3276,309.4651 L419.8622,309.4651 L419.8622,317.5418 L422.3276,317.5418 L422.3276,319.7 L414.9482,319.7 L414.9482,317.5418 L417.4135,317.5418 L417.4135,309.4651 Z " fill="#000000"/><text fill="#000000" font-family="sans-serif" font-size="14" font-style="italic" lengthAdjust="spacing" textLength="26.5508" x="435.7117" y="318.491">IApi</text><line style="stroke:#181818;stroke-width:0.5;" x1="390.16" x2="478.6229" y1="329.2" y2="329.2"/><line style="stroke:#181818;stroke-width:0.5;" x1="390.16" x2="478.6229" y1="337.2" y2="337.2"/><ellipse cx="400.16" cy="350.9441" fill="#84BE84" rx="3" ry="3" style="stroke:#038048;stroke-width:1;"/><text fill="#000000" font-family="sans-serif" font-size="14" lengthAdjust="spacing" textLength="64.4629" x="409.16" y="354.7352">on_start()</text><ellipse cx="400.16" cy="367.4324" fill="#84BE84" rx="3" ry="3" style="stroke:#038048;stroke-width:1;"/><text fill="#000000" font-family="sans-serif" font-size="14" lengthAdjust="spacing" textLength="63.1777" x="409.16" y="371.2234">on_stop()</text></g><!--class IBridge--><g class="entity" data-entity="IBridge" data-source-line="51" data-uid="ent0008" id="entity_IBridge"><rect fill="#FF0000" height="146.9297" rx="2.5" ry="2.5" style="stroke:#181818;stroke-width:0.5;" width="382.877" x="116.96" y="446.42"/><ellipse cx="274.6304" cy="462.42" fill="#FF0000" rx="11" ry="11" style="stroke:#181818;stroke-width:1;"/><path d="M271.0581,458.6851 L271.0581,456.5269 L278.4375,456.5269 L278.4375,458.6851 L275.9722,458.6851 L275.9722,466.7618 L278.4375,466.7618 L278.4375,468.92 L271.0581,468.92 L271.0581,466.7618 L273.5235,466.7618 L273.5235,458.6851 Z " fill="#000000"/><text fill="#000000" font-family="sans-serif" font-size="14" font-style="italic" lengthAdjust="spacing" textLength="47.2021" x="295.1304" y="467.711">IBridge</text><rect fill="#FFFFFF" height="16.1328" style="stroke:#181818;stroke-width:1;stroke-dasharray:2,2;" width="9.834" x="493.003" y="443.42"/><text fill="#000000" font-family="sans-serif" font-size="12" font-style="italic" lengthAdjust="spacing" textLength="7.834" x="494.003" y="456.0216">K</text><line style="stroke:#181818;stroke-width:0.5;" x1="117.96" x2="498.837" y1="478.42" y2="478.42"/><line style="stroke:#181818;stroke-width:0.5;" x1="117.96" x2="498.837" y1="486.42" y2="486.42"/><ellipse cx="127.96" cy="500.1641" fill="#84BE84" rx="3" ry="3" style="stroke:#038048;stroke-width:1;"/><text fill="#000000" font-family="sans-serif" font-size="14" lengthAdjust="spacing" textLength="317.7275" x="136.96" y="503.9552">set_on_connected(callback: OnConnected&lt;K&gt;)</text><ellipse cx="127.96" cy="516.6524" fill="#84BE84" rx="3" ry="3" style="stroke:#038048;stroke-width:1;"/><text fill="#000000" font-family="sans-serif" font-size="14" lengthAdjust="spacing" textLength="356.877" x="136.96" y="520.4434">set_on_disconnected(callback: OnDisconnected&lt;K&gt;)</text><ellipse cx="127.96" cy="533.1407" fill="#84BE84" rx="3" ry="3" style="stroke:#038048;stroke-width:1;"/><text fill="#000000" font-family="sans-serif" font-size="14" lengthAdjust="spacing" textLength="242.2383" x="136.96" y="536.9317">set_on_error(callback: OnError&lt;K&gt;)</text><ellipse cx="127.96" cy="549.629" fill="#84BE84" rx="3" ry="3" style="stroke:#038048;stroke-width:1;"/><text fill="#000000" font-family="sans-serif" font-size="14" lengthAdjust="spacing" textLength="293.0771" x="136.96" y="553.42">set_on_message(callback: OnMessage&lt;K&gt;)</text><ellipse cx="127.96" cy="566.1173" fill="#84BE84" rx="3" ry="3" style="stroke:#038048;stroke-width:1;"/><text fill="#000000" font-family="sans-serif" font-size="14" lengthAdjust="spacing" textLength="86.8711" x="136.96" y="569.9083">do_connect()</text><ellipse cx="127.96" cy="582.6055" fill="#84BE84" rx="3" ry="3" style="stroke:#038048;stroke-width:1;"/><text fill="#000000" font-family="sans-serif" font-size="14" lengthAdjust="spacing" textLength="106.8662" x="136.96" y="586.3966">do_disconnect()</text></g><!--class IMemory--><g class="entity" data-entity="IMemory" data-source-line="60" data-uid="ent0009" id="entity_IMemory"><rect fill="#FBFF00" height="130.4414" rx="2.5" ry="2.5" style="stroke:#181818;stroke-width:0.5;" width="394.334" x="676.23" y="454.66"/><ellipse cx="795.7158" cy="470.66" fill="#FBFF00" rx="11" ry="11" style="stroke:#181818;stroke-width:1;"/><path d="M792.1436,466.9251 L792.1436,464.7669 L799.523,464.7669 L799.523,466.9251 L797.0576,466.9251 L797.0576,475.0018 L799.523,475.0018 L799.523,477.16 L792.1436,477.16 L792.1436,475.0018 L794.6089,475.0018 L794.6089,466.9251 Z " fill="#000000"/><text fill="#000000" font-family="sans-serif" font-size="14" font-style="italic" lengthAdjust="spacing" textLength="58.6045" x="816.2158" y="475.951">IMemory</text><rect fill="#FFFFFF" height="16.1328" style="stroke:#181818;stroke-width:1;stroke-dasharray:2,2;" width="86.2578" x="987.3062" y="451.66"/><text fill="#000000" font-family="sans-serif" font-size="12" font-style="italic" lengthAdjust="spacing" textLength="84.2578" x="988.3062" y="464.2616">TypeID, IEntity</text><line style="stroke:#181818;stroke-width:0.5;" x1="677.23" x2="1069.564" y1="486.66" y2="486.66"/><line style="stroke:#181818;stroke-width:0.5;" x1="677.23" x2="1069.564" y1="494.66" y2="494.66"/><ellipse cx="687.23" cy="508.4041" fill="#84BE84" rx="3" ry="3" style="stroke:#038048;stroke-width:1;"/><text fill="#000000" font-family="sans-serif" font-size="14" lengthAdjust="spacing" textLength="143.0146" x="696.23" y="512.1952">do_set(entity: IEntity)</text><ellipse cx="687.23" cy="524.8924" fill="#84BE84" rx="3" ry="3" style="stroke:#038048;stroke-width:1;"/><text fill="#000000" font-family="sans-serif" font-size="14" lengthAdjust="spacing" textLength="276.5068" x="696.23" y="528.6834">do_set_with_id(id: TypeID, entity: IEntity)</text><ellipse cx="687.23" cy="541.3807" fill="#84BE84" rx="3" ry="3" style="stroke:#038048;stroke-width:1;"/><text fill="#000000" font-family="sans-serif" font-size="14" lengthAdjust="spacing" textLength="185.6367" x="696.23" y="545.1717">do_get(id: TypeID) : IEntity?</text><ellipse cx="687.23" cy="557.869" fill="#84BE84" rx="3" ry="3" style="stroke:#038048;stroke-width:1;"/><text fill="#000000" font-family="sans-serif" font-size="14" lengthAdjust="spacing" textLength="368.334" x="696.23" y="561.66">do_query&lt;TypeID, IEntity, Q&gt;(query: IQuery) : [IEntity]</text><ellipse cx="687.23" cy="574.3573" fill="#84BE84" rx="3" ry="3" style="stroke:#038048;stroke-width:1;"/><text fill="#000000" font-family="sans-serif" font-size="14" lengthAdjust="spacing" textLength="123.1904" x="696.23" y="578.1483">do_del(id: TypeID)</text></g><!--class IGui--><g class="entity" data-entity="IGui" data-source-line="70" data-uid="ent0010" id="entity_IGui"><rect fill="#B700FF" height="130.4414" rx="2.5" ry="2.5" style="stroke:#181818;stroke-width:0.5;" width="168.6934" x="503.05" y="653.35"/><ellipse cx="563.7868" cy="669.35" fill="#B700FF" rx="11" ry="11" style="stroke:#181818;stroke-width:1;"/><path d="M560.2146,665.6151 L560.2146,663.4569 L567.5939,663.4569 L567.5939,665.6151 L565.1286,665.6151 L565.1286,673.6918 L567.5939,673.6918 L567.5939,675.85 L560.2146,675.85 L560.2146,673.6918 L562.6799,673.6918 L562.6799,665.6151 Z " fill="#000000"/><text fill="#000000" font-family="sans-serif" font-size="14" font-style="italic" lengthAdjust="spacing" textLength="26.8857" x="584.2868" y="674.641">IGui</text><rect fill="#FFFFFF" height="16.1328" style="stroke:#181818;stroke-width:1;stroke-dasharray:2,2;" width="9.834" x="664.9094" y="650.35"/><text fill="#000000" font-family="sans-serif" font-size="12" font-style="italic" lengthAdjust="spacing" textLength="7.834" x="665.9094" y="662.9516">K</text><line style="stroke:#181818;stroke-width:0.5;" x1="504.05" x2="670.7434" y1="685.35" y2="685.35"/><line style="stroke:#181818;stroke-width:0.5;" x1="504.05" x2="670.7434" y1="693.35" y2="693.35"/><ellipse cx="514.05" cy="707.0941" fill="#84BE84" rx="3" ry="3" style="stroke:#038048;stroke-width:1;"/><text fill="#000000" font-family="sans-serif" font-size="14" lengthAdjust="spacing" textLength="64.4629" x="523.05" y="710.8852">on_start()</text><ellipse cx="514.05" cy="723.5824" fill="#84BE84" rx="3" ry="3" style="stroke:#038048;stroke-width:1;"/><text fill="#000000" font-family="sans-serif" font-size="14" lengthAdjust="spacing" textLength="63.1777" x="523.05" y="727.3734">on_stop()</text><ellipse cx="514.05" cy="740.0707" fill="#84BE84" rx="3" ry="3" style="stroke:#038048;stroke-width:1;"/><text fill="#000000" font-family="sans-serif" font-size="14" lengthAdjust="spacing" textLength="125.4941" x="523.05" y="743.8617">do_view(obj: Any?)</text><ellipse cx="514.05" cy="756.559" fill="#84BE84" rx="3" ry="3" style="stroke:#038048;stroke-width:1;"/><text fill="#000000" font-family="sans-serif" font-size="14" lengthAdjust="spacing" textLength="124.9609" x="523.05" y="760.35">do_hide(obj: Any?)</text><ellipse cx="514.05" cy="773.0473" fill="#84BE84" rx="3" ry="3" style="stroke:#038048;stroke-width:1;"/><text fill="#000000" font-family="sans-serif" font-size="14" lengthAdjust="spacing" textLength="142.6934" x="523.05" y="776.8383">do_update(obj: Any?)</text></g><!--reverse link IEvo to IControl--><g class="link" data-entity-1="IEvo" data-entity-2="IControl" data-source-line="81" data-uid="lnk11" id="link_IEvo_IControl"><path codeLine="81" d="M531.39,106.31 C531.39,124.92 531.39,129.03 531.39,147.63" fill="none" id="IEvo-backto-IControl" style="stroke:#2735F3;stroke-width:1;"/><polygon fill="none" points="531.39,88.31,525.39,106.31,537.39,106.31,531.39,88.31" style="stroke:#2735F3;stroke-width:1;"/></g><!--reverse link IEvo to IEntity--><g class="link" data-entity-1="IEvo" data-entity-2="IEntity" data-source-line="83" data-uid="lnk12" id="link_IEvo_IEntity"><path codeLine="83" d="M681.7313,62.5455 C741.5313,74.6655 789.27,96.28 826.39,147.98 C847.39,177.21 840.78,195.96 826.39,228.95 C816.4,251.88 798.85,272.12 780.38,288.69" fill="none" id="IEvo-backto-IEntity" style="stroke:#09B620;stroke-width:1;"/><polygon fill="none" points="664.09,58.97,680.5395,68.4259,682.9231,56.665,664.09,58.97" style="stroke:#09B620;stroke-width:1;"/></g><!--reverse link ID to IEntity--><g class="link" data-entity-1="ID" data-entity-2="IEntity" data-source-line="84" data-uid="lnk13" id="link_ID_IEntity"><path codeLine="84" d="M397.6327,222.1487 C455.0427,243.1687 519.73,266.86 587.37,291.63" fill="none" id="ID-backto-IEntity" style="stroke:#09B620;stroke-width:1;"/><polygon fill="none" points="380.73,215.96,395.5698,227.7829,399.6956,216.5145,380.73,215.96" style="stroke:#09B620;stroke-width:1;"/></g><!--reverse link ITime to IEntity--><g class="link" data-entity-1="ITime" data-entity-2="IEntity" data-source-line="85" data-uid="lnk14" id="link_ITime_IEntity"><path codeLine="85" d="M710.39,247.31 C710.39,265.61 710.39,269.48 710.39,288.69" fill="none" id="ITime-backto-IEntity" style="stroke:#09B620;stroke-width:1;"/><polygon fill="none" points="710.39,229.31,704.39,247.31,716.39,247.31,710.39,229.31" style="stroke:#09B620;stroke-width:1;"/></g><!--reverse link IEvo to IBridge--><g class="link" data-entity-1="IEvo" data-entity-2="IBridge" data-source-line="87" data-uid="lnk15" id="link_IEvo_IBridge"><path codeLine="87" d="M381.1861,78.4327 C306.2361,96.0227 240.69,117.49 218.39,147.98 C153.55,236.62 210.4,365.97 258.55,446.15" fill="none" id="IEvo-backto-IBridge" style="stroke:#FF0000;stroke-width:1;"/><polygon fill="none" points="398.71,74.32,379.8152,72.5914,382.557,84.274,398.71,74.32" style="stroke:#FF0000;stroke-width:1;"/></g><!--reverse link ID to IBridge--><g class="link" data-entity-1="ID" data-entity-2="IBridge" data-source-line="88" data-uid="lnk16" id="link_ID_IBridge"><path codeLine="88" d="M308.39,247.2 C308.39,300.85 308.39,379.41 308.39,446.21" fill="none" id="ID-backto-IBridge" style="stroke:#FF0000;stroke-width:1;"/><polygon fill="none" points="308.39,229.2,302.39,247.2,314.39,247.2,308.39,229.2" style="stroke:#FF0000;stroke-width:1;"/></g><!--reverse link IEvo to IMemory--><g class="link" data-entity-1="IEvo" data-entity-2="IMemory" data-source-line="90" data-uid="lnk17" id="link_IEvo_IMemory"><path codeLine="90" d="M681.3378,76.2901 C761.2378,93.6901 834.68,115.94 859.39,147.98 C927.28,235.99 910.04,373.8 891.56,454.34" fill="none" id="IEvo-backto-IMemory" style="stroke:#FBFF00;stroke-width:1;"/><polygon fill="none" points="663.75,72.46,680.0611,82.1527,682.6145,70.4275,663.75,72.46" style="stroke:#FBFF00;stroke-width:1;"/></g><!--reverse link IEvo to IGui--><g class="link" data-entity-1="IEvo" data-entity-2="IGui" data-source-line="92" data-uid="lnk18" id="link_IEvo_IGui"><path codeLine="92" d="M681.8702,62.5046 C758.0102,74.5146 834.15,96.57 903.39,147.98 C1028.7,241 1045.65,296.33 1088.39,446.42 C1106.28,509.22 1128.63,541.92 1088.39,593.35 C1037.63,658.24 801.32,694 672.2,709" fill="none" id="IEvo-backto-IGui" style="stroke:#B700FF;stroke-width:1;"/><polygon fill="none" points="664.09,59.7,680.9353,68.4313,682.805,56.5778,664.09,59.7" style="stroke:#B700FF;stroke-width:1;"/></g><!--reverse link ID to IGui--><g class="link" data-entity-1="ID" data-entity-2="IGui" data-source-line="93" data-uid="lnk19" id="link_ID_IGui"><path codeLine="93" d="M245.7075,241.0171 C158.1175,316.7971 6,473.2 99.39,593.35 C148.45,656.46 376.45,692.79 502.7,708.4" fill="none" id="ID-backto-IGui" style="stroke:#B700FF;stroke-width:1;"/><polygon fill="none" points="259.32,229.24,241.7818,236.4796,249.6332,245.5546,259.32,229.24" style="stroke:#B700FF;stroke-width:1;"/></g><!--reverse link IEvo to IApi--><g class="link" data-entity-1="IEvo" data-entity-2="IApi" data-source-line="95" data-uid="lnk20" id="link_IEvo_IApi"><path codeLine="95" d="M491.121,103.0828 C479.191,120.5828 476.55,127.02 468.39,147.98 C449.25,197.14 440.77,257.77 437.1,296.81" fill="none" id="IEvo-backto-IApi" style="stroke:#00EEFF;stroke-width:1;"/><polygon fill="none" points="501.26,88.21,486.1634,99.7031,496.0786,106.4625,501.26,88.21" style="stroke:#00EEFF;stroke-width:1;"/></g><!--reverse link ID to IApi--><g class="link" data-entity-1="ID" data-entity-2="IApi" data-source-line="96" data-uid="lnk21" id="link_ID_IApi"><path codeLine="96" d="M354.1973,242.9826 C372.1273,263.9226 382.34,275.86 400.27,296.81" fill="none" id="ID-backto-IApi" style="stroke:#00EEFF;stroke-width:1;"/><polygon fill="none" points="342.49,229.31,349.6397,246.885,358.7548,239.0802,342.49,229.31" style="stroke:#00EEFF;stroke-width:1;"/></g><!--reverse link IControl to IApi--><g class="link" data-entity-1="IControl" data-entity-2="IApi" data-source-line="97" data-uid="lnk22" id="link_IControl_IApi"><path codeLine="97" d="M482.5986,243.7612 C467.0486,264.7012 460.91,275.86 448.85,296.81" fill="none" id="IControl-backto-IApi" style="stroke:#00EEFF;stroke-width:1;"/><polygon fill="none" points="493.33,229.31,477.7815,240.184,487.4156,247.3383,493.33,229.31" style="stroke:#00EEFF;stroke-width:1;"/></g><!--link IControl to IApi--><g class="link" data-entity-1="IControl" data-entity-2="IApi" data-source-line="105" data-uid="lnk27" id="link_IControl_IApi"><line style="stroke:none;stroke-width:1;" x1="472.48" x2="475.46" y1="296.81" y2="292.7951"/></g><!--link IEvo to ID--><g class="link" data-entity-1="IEvo" data-entity-2="ID" data-source-line="99" data-uid="lnk23" id="link_IEvo_ID"><line style="stroke:none;stroke-width:1;" x1="372.31" x2="376.554" y1="147.63" y2="144.9864"/></g><!--reverse link IBridge to IMemory--><g class="link" data-entity-1="IBridge" data-entity-2="IMemory" data-source-line="102" data-uid="lnk25" id="link_IBridge_IMemory"><line style="stroke:none;stroke-width:1;" x1="500.13" x2="505.13" y1="519.88" y2="519.88"/></g><!--link IControl to IGui--><g class="link" data-entity-1="IControl" data-entity-2="IGui" data-source-line="104" data-uid="lnk26" id="link_IControl_IGui"><line style="stroke:none;stroke-width:1;" x1="580.54" x2="580.0126" y1="652.91" y2="647.9379"/></g><!--link IEntity to IGui--><g class="link" data-entity-1="IEntity" data-entity-2="IGui" data-source-line="106" data-uid="lnk28" id="link_IEntity_IGui"><line style="stroke:none;stroke-width:1;" x1="600.61" x2="601.6854" y1="652.94" y2="648.057"/></g><!--link IEntity to IBridge--><g class="link" data-entity-1="IEntity" data-entity-2="IBridge" data-source-line="107" data-uid="lnk29" id="link_IEntity_IBridge"><line style="stroke:none;stroke-width:1;" x1="471.09" x2="475.6525" y1="445.96" y2="443.9146"/></g><!--reverse link IControl to IEntity--><g class="link" data-entity-1="IControl" data-entity-2="IEntity" data-source-line="108" data-uid="lnk31" id="link_IControl_IEntity"><line style="stroke:none;stroke-width:1;" x1="577.03" x2="580.8913" y1="227" y2="230.1765"/></g><!--link IMemory to IGui--><g class="link" data-entity-1="IMemory" data-entity-2="IGui" data-source-line="109" data-uid="lnk32" id="link_IMemory_IGui"><line style="stroke:none;stroke-width:1;" x1="671.85" x2="675.9699" y1="659.49" y2="656.6568"/></g><!--link IBridge to IGui--><g class="link" data-entity-1="IBridge" data-entity-2="IGui" data-source-line="110" data-uid="lnk33" id="link_IBridge_IGui"><line style="stroke:none;stroke-width:1;" x1="502.76" x2="498.6727" y1="657.9" y2="655.0201"/></g><!--SRC=[ZLPjInj14Fv-lsAB7xnG0q6fKWaHzLH2qM8DXL9AkDpD9LkJtUlU9Y5O_tlt_UMIQE-3ilCyyypixCoGG_G474touddAw9AKgA1pofBc6PCwP_a2NJdeMYA8ivmq0WB2a-GGPL1X0jghGPKWG5xC42OSM9KNa7meDMDuiw9QuU1MVHx9zjX7U05xe2k6owa5gwedFWzUKy8PdHlq-EpaKtKIv44uvXi3zZvFJey3rtjOK6R1QYALFNWhgv1pJ8aBd9-6XBibDiZahDUhAezSrXRfzG04WeBYyHduWZLeZVbCsZ1339eQ2evNjiA9uwc2edu_7HxvsdO60_II8F5zV6cuIBLuHR2YunMmHgITTj0v6crg4FplsgJ9K-3ZTtYlIHWxwqjuc0ri1baxlfJ4fLCQPjhSQ3CkhRdJKfQFRaLT0xHqkR0xPKdosWgIVpme8uHbK-_VpZ_e2XaiF9l0d8ud6mwD2dprOtJpfEqLemk3YER83IP9HiIvDvnXCbN-JwDlmuSxUVKmDTEuDgUmZrLIeS5aHOcGpHbFEy6PrccxhA81hQpjHILf3_yZ5-hf0Un_SGKC9b891-SN_pn2hw24Y9w6CYto-LnkddFqLKoKiGh9JiGlSRFR9Gk0BIzWZBA8VYCjMxm5D4q-XOXvhssUMrARTUejFg-jOkijObhCDPShLR1aLAd2fMDgXKG0aM4AojErKYT2nt9JnDDqXFPxYCa9vyutw8Nd_5d2Tk97w76GAaIuFCh_qlcdGNzvxnBcyMIBBHSLHYp8e6NikbH5SBlJLg3TYiZteWkumh1EwUJtEReacui0cE4ITWBBMWnf1Cd6ZdSnWxdQyiqCrmsQ05y3a6139thr_krs_SX6ivc435sbQACam-mjKA_0lNWehgSicZOllWiCdNNVHVqNuU99_BjusTWSEiWbupQATsYPtPRR0MgrRadNf2kQ8aC7uU-DGs7epg7Y4bDLseQjguqICUoLdOWfKKJo6JenUULOo54OdiwKbBn8p36FzuPAcx4h7KTQrk_VQtye8xsVaVm3]--></g></svg>