<svg xmlns="http://www.w3.org/2000/svg" xmlns:xlink="http://www.w3.org/1999/xlink" contentStyleType="text/css" data-diagram-type="DESCRIPTION" height="399px" preserveAspectRatio="none" style="width:1284px;height:399px;" version="1.1" viewBox="0 0 1284 399" width="1284px" zoomAndPan="magnify"><defs/><g><!--cluster Evo Framework--><g class="cluster" data-entity="Evo Framework" data-source-line="6" data-uid="ent0002" id="cluster_Evo Framework"><path d="M13.5,11 L136.7607,11 A3.75,3.75 0 0 1 139.2607,13.5 L146.2607,34.0146 L1274.5,34.0146 A2.5,2.5 0 0 1 1277,36.5146 L1277,389.5 A2.5,2.5 0 0 1 1274.5,392 L13.5,392 A2.5,2.5 0 0 1 11,389.5 L11,13.5 A2.5,2.5 0 0 1 13.5,11" fill="#333333" style="stroke:#000000;stroke-width:1;"/><line style="stroke:#000000;stroke-width:1;" x1="11" x2="146.2607" y1="34.0146" y2="34.0146"/><text fill="#FFFFFF" font-family="Verdana" font-size="14" font-weight="bold" lengthAdjust="spacing" textLength="122.2607" x="15" y="27.0752">Evo Framework</text></g><!--cluster evo_core--><g class="cluster" data-entity="evo_core" data-source-line="7" data-uid="ent0003" id="cluster_evo_core"><path d="M509.5,55 L582.5645,55 A3.75,3.75 0 0 1 585.0645,57.5 L592.0645,78.0146 L1250.5,78.0146 A2.5,2.5 0 0 1 1253,80.5146 L1253,365.5 A2.5,2.5 0 0 1 1250.5,368 L509.5,368 A2.5,2.5 0 0 1 507,365.5 L507,57.5 A2.5,2.5 0 0 1 509.5,55" fill="#333333" style="stroke:#000000;stroke-width:1;"/><line style="stroke:#000000;stroke-width:1;" x1="507" x2="592.0645" y1="78.0146" y2="78.0146"/><text fill="#FFFFFF" font-family="Verdana" font-size="14" font-weight="bold" lengthAdjust="spacing" textLength="72.0645" x="511" y="71.0752">evo_core</text></g><!--cluster evo_packages--><g class="cluster" data-entity="evo_packages" data-source-line="22" data-uid="ent0015" id="cluster_evo_packages"><path d="M37.5,55 L149.9736,55 A3.75,3.75 0 0 1 152.4736,57.5 L159.4736,78.0146 L480.5,78.0146 A2.5,2.5 0 0 1 483,80.5146 L483,258.5 A2.5,2.5 0 0 1 480.5,261 L37.5,261 A2.5,2.5 0 0 1 35,258.5 L35,57.5 A2.5,2.5 0 0 1 37.5,55" fill="#333333" style="stroke:#000000;stroke-width:1;"/><line style="stroke:#000000;stroke-width:1;" x1="35" x2="159.4736" y1="78.0146" y2="78.0146"/><text fill="#FFFFFF" font-family="Verdana" font-size="14" font-weight="bold" lengthAdjust="spacing" textLength="111.4736" x="39" y="71.0752">evo_packages</text></g><!--entity evo_core_id--><g class="entity" data-entity="evo_core_id" data-source-line="8" data-uid="ent0004" id="entity_evo_core_id"><rect fill="#333333" height="47.0146" rx="2.5" ry="2.5" style="stroke:#000000;stroke-width:1;" width="125.5928" x="537" y="91"/><rect fill="#333333" height="10" style="stroke:#000000;stroke-width:1;" width="15" x="642.5928" y="96"/><rect fill="#333333" height="2" style="stroke:#000000;stroke-width:1;" width="4" x="640.5928" y="98"/><rect fill="#333333" height="2" style="stroke:#000000;stroke-width:1;" width="4" x="640.5928" y="102"/><text fill="#FFFFFF" font-family="Verdana" font-size="14" lengthAdjust="spacing" textLength="85.5928" x="552" y="125.0752">evo_core_id</text></g><!--entity evo_core_time--><g class="entity" data-entity="evo_core_time" data-source-line="9" data-uid="ent0005" id="entity_evo_core_time"><rect fill="#333333" height="47.0146" rx="2.5" ry="2.5" style="stroke:#000000;stroke-width:1;" width="144.3438" x="698" y="91"/><rect fill="#333333" height="10" style="stroke:#000000;stroke-width:1;" width="15" x="822.3438" y="96"/><rect fill="#333333" height="2" style="stroke:#000000;stroke-width:1;" width="4" x="820.3438" y="98"/><rect fill="#333333" height="2" style="stroke:#000000;stroke-width:1;" width="4" x="820.3438" y="102"/><text fill="#FFFFFF" font-family="Verdana" font-size="14" lengthAdjust="spacing" textLength="104.3438" x="713" y="125.0752">evo_core_time</text></g><!--entity evo_core_log--><g class="entity" data-entity="evo_core_log" data-source-line="10" data-uid="ent0006" id="entity_evo_core_log"><rect fill="#333333" height="47.0146" rx="2.5" ry="2.5" style="stroke:#000000;stroke-width:1;" width="134.0898" x="877" y="91"/><rect fill="#333333" height="10" style="stroke:#000000;stroke-width:1;" width="15" x="991.0898" y="96"/><rect fill="#333333" height="2" style="stroke:#000000;stroke-width:1;" width="4" x="989.0898" y="98"/><rect fill="#333333" height="2" style="stroke:#000000;stroke-width:1;" width="4" x="989.0898" y="102"/><text fill="#FFFFFF" font-family="Verdana" font-size="14" lengthAdjust="spacing" textLength="94.0898" x="892" y="125.0752">evo_core_log</text></g><!--entity evo_core_crypto--><g class="entity" data-entity="evo_core_crypto" data-source-line="11" data-uid="ent0007" id="entity_evo_core_crypto"><rect fill="#333333" height="47.0146" rx="2.5" ry="2.5" style="stroke:#000000;stroke-width:1;" width="157.3184" x="1046.5" y="91"/><rect fill="#333333" height="10" style="stroke:#000000;stroke-width:1;" width="15" x="1183.8184" y="96"/><rect fill="#333333" height="2" style="stroke:#000000;stroke-width:1;" width="4" x="1181.8184" y="98"/><rect fill="#333333" height="2" style="stroke:#000000;stroke-width:1;" width="4" x="1181.8184" y="102"/><text fill="#FFFFFF" font-family="Verdana" font-size="14" lengthAdjust="spacing" textLength="117.3184" x="1061.5" y="125.0752">evo_core_crypto</text></g><!--entity evo_core_entity--><g class="entity" data-entity="evo_core_entity" data-source-line="12" data-uid="ent0008" id="entity_evo_core_entity"><rect fill="#333333" height="47.0146" rx="2.5" ry="2.5" style="stroke:#000000;stroke-width:1;" width="153.3877" x="523.5" y="198"/><rect fill="#333333" height="10" style="stroke:#000000;stroke-width:1;" width="15" x="656.8877" y="203"/><rect fill="#333333" height="2" style="stroke:#000000;stroke-width:1;" width="4" x="654.8877" y="205"/><rect fill="#333333" height="2" style="stroke:#000000;stroke-width:1;" width="4" x="654.8877" y="209"/><text fill="#FFFFFF" font-family="Verdana" font-size="14" lengthAdjust="spacing" textLength="113.3877" x="538.5" y="232.0752">evo_core_entity</text></g><!--entity evo_core_entity_ai--><g class="entity" data-entity="evo_core_entity_ai" data-source-line="13" data-uid="ent0009" id="entity_evo_core_entity_ai"><rect fill="#333333" height="47.0146" rx="2.5" ry="2.5" style="stroke:#000000;stroke-width:1;" width="174.5381" x="711.5" y="198"/><rect fill="#333333" height="10" style="stroke:#000000;stroke-width:1;" width="15" x="866.0381" y="203"/><rect fill="#333333" height="2" style="stroke:#000000;stroke-width:1;" width="4" x="864.0381" y="205"/><rect fill="#333333" height="2" style="stroke:#000000;stroke-width:1;" width="4" x="864.0381" y="209"/><text fill="#FFFFFF" font-family="Verdana" font-size="14" lengthAdjust="spacing" textLength="134.5381" x="726.5" y="232.0752">evo_core_entity_ai</text></g><!--entity evo_core_api_ai--><g class="entity" data-entity="evo_core_api_ai" data-source-line="15" data-uid="ent0010" id="entity_evo_core_api_ai"><rect fill="#333333" height="47.0146" rx="2.5" ry="2.5" style="stroke:#000000;stroke-width:1;" width="155.1514" x="921.5" y="198"/><rect fill="#333333" height="10" style="stroke:#000000;stroke-width:1;" width="15" x="1056.6514" y="203"/><rect fill="#333333" height="2" style="stroke:#000000;stroke-width:1;" width="4" x="1054.6514" y="205"/><rect fill="#333333" height="2" style="stroke:#000000;stroke-width:1;" width="4" x="1054.6514" y="209"/><text fill="#FFFFFF" font-family="Verdana" font-size="14" lengthAdjust="spacing" textLength="115.1514" x="936.5" y="232.0752">evo_core_api_ai</text></g><!--entity evo_core_ai--><g class="entity" data-entity="evo_core_ai" data-source-line="16" data-uid="ent0011" id="entity_evo_core_ai"><rect fill="#333333" height="47.0146" rx="2.5" ry="2.5" style="stroke:#000000;stroke-width:1;" width="125.2783" x="1111.5" y="198"/><rect fill="#333333" height="10" style="stroke:#000000;stroke-width:1;" width="15" x="1216.7783" y="203"/><rect fill="#333333" height="2" style="stroke:#000000;stroke-width:1;" width="4" x="1214.7783" y="205"/><rect fill="#333333" height="2" style="stroke:#000000;stroke-width:1;" width="4" x="1214.7783" y="209"/><text fill="#FFFFFF" font-family="Verdana" font-size="14" lengthAdjust="spacing" textLength="85.2783" x="1126.5" y="232.0752">evo_core_ai</text></g><!--entity evo_core_memento--><g class="entity" data-entity="evo_core_memento" data-source-line="17" data-uid="ent0012" id="entity_evo_core_memento"><rect fill="#333333" height="47.0146" rx="2.5" ry="2.5" style="stroke:#000000;stroke-width:1;" width="179.8154" x="523" y="305"/><rect fill="#333333" height="10" style="stroke:#000000;stroke-width:1;" width="15" x="682.8154" y="310"/><rect fill="#333333" height="2" style="stroke:#000000;stroke-width:1;" width="4" x="680.8154" y="312"/><rect fill="#333333" height="2" style="stroke:#000000;stroke-width:1;" width="4" x="680.8154" y="316"/><text fill="#FFFFFF" font-family="Verdana" font-size="14" lengthAdjust="spacing" textLength="139.8154" x="538" y="339.0752">evo_core_memento</text></g><!--entity evo_core_bridge--><g class="entity" data-entity="evo_core_bridge" data-source-line="18" data-uid="ent0013" id="entity_evo_core_bridge"><rect fill="#333333" height="47.0146" rx="2.5" ry="2.5" style="stroke:#000000;stroke-width:1;" width="157.3525" x="738.5" y="305"/><rect fill="#333333" height="10" style="stroke:#000000;stroke-width:1;" width="15" x="875.8525" y="310"/><rect fill="#333333" height="2" style="stroke:#000000;stroke-width:1;" width="4" x="873.8525" y="312"/><rect fill="#333333" height="2" style="stroke:#000000;stroke-width:1;" width="4" x="873.8525" y="316"/><text fill="#FFFFFF" font-family="Verdana" font-size="14" lengthAdjust="spacing" textLength="117.3525" x="753.5" y="339.0752">evo_core_bridge</text></g><!--entity evo_core_gui--><g class="entity" data-entity="evo_core_gui" data-source-line="19" data-uid="ent0014" id="entity_evo_core_gui"><rect fill="#333333" height="47.0146" rx="2.5" ry="2.5" style="stroke:#000000;stroke-width:1;" width="134.4521" x="931" y="305"/><rect fill="#333333" height="10" style="stroke:#000000;stroke-width:1;" width="15" x="1045.4521" y="310"/><rect fill="#333333" height="2" style="stroke:#000000;stroke-width:1;" width="4" x="1043.4521" y="312"/><rect fill="#333333" height="2" style="stroke:#000000;stroke-width:1;" width="4" x="1043.4521" y="316"/><text fill="#FFFFFF" font-family="Verdana" font-size="14" lengthAdjust="spacing" textLength="94.4521" x="946" y="339.0752">evo_core_gui</text></g><!--entity evo_event--><g class="entity" data-entity="evo_event" data-source-line="23" data-uid="ent0016" id="entity_evo_event"><rect fill="#AAAAAA" height="47.0146" rx="2.5" ry="2.5" style="stroke:#000000;stroke-width:1;" width="113.3633" x="51.5" y="91"/><rect fill="#AAAAAA" height="10" style="stroke:#000000;stroke-width:1;" width="15" x="144.8633" y="96"/><rect fill="#AAAAAA" height="2" style="stroke:#000000;stroke-width:1;" width="4" x="142.8633" y="98"/><rect fill="#AAAAAA" height="2" style="stroke:#000000;stroke-width:1;" width="4" x="142.8633" y="102"/><text fill="#FFFFFF" font-family="Verdana" font-size="14" lengthAdjust="spacing" textLength="73.3633" x="66.5" y="125.0752">evo_event</text></g><!--entity evo_api--><g class="entity" data-entity="evo_api" data-source-line="24" data-uid="ent0017" id="entity_evo_api"><rect fill="#00EEFF" height="47.0146" rx="2.5" ry="2.5" style="stroke:#000000;stroke-width:1;" width="94.9951" x="199.5" y="91"/><rect fill="#00EEFF" height="10" style="stroke:#000000;stroke-width:1;" width="15" x="274.4951" y="96"/><rect fill="#00EEFF" height="2" style="stroke:#000000;stroke-width:1;" width="4" x="272.4951" y="98"/><rect fill="#00EEFF" height="2" style="stroke:#000000;stroke-width:1;" width="4" x="272.4951" y="102"/><text fill="#FFFFFF" font-family="Verdana" font-size="14" lengthAdjust="spacing" textLength="54.9951" x="214.5" y="125.0752">evo_api</text></g><!--entity evo_api_ai--><g class="entity" data-entity="evo_api_ai" data-source-line="25" data-uid="ent0018" id="entity_evo_api_ai"><rect fill="#00EEFF" height="47.0146" rx="2.5" ry="2.5" style="stroke:#000000;stroke-width:1;" width="116.1455" x="330" y="91"/><rect fill="#00EEFF" height="10" style="stroke:#000000;stroke-width:1;" width="15" x="426.1455" y="96"/><rect fill="#00EEFF" height="2" style="stroke:#000000;stroke-width:1;" width="4" x="424.1455" y="98"/><rect fill="#00EEFF" height="2" style="stroke:#000000;stroke-width:1;" width="4" x="424.1455" y="102"/><text fill="#FFFFFF" font-family="Verdana" font-size="14" lengthAdjust="spacing" textLength="76.1455" x="345" y="125.0752">evo_api_ai</text></g><!--entity evo_entity--><g class="entity" data-entity="evo_entity" data-source-line="26" data-uid="ent0019" id="entity_evo_entity"><rect fill="#09B620" height="47.0146" rx="2.5" ry="2.5" style="stroke:#000000;stroke-width:1;" width="114.3818" x="51" y="198"/><rect fill="#09B620" height="10" style="stroke:#000000;stroke-width:1;" width="15" x="145.3818" y="203"/><rect fill="#09B620" height="2" style="stroke:#000000;stroke-width:1;" width="4" x="143.3818" y="205"/><rect fill="#09B620" height="2" style="stroke:#000000;stroke-width:1;" width="4" x="143.3818" y="209"/><text fill="#FFFFFF" font-family="Verdana" font-size="14" lengthAdjust="spacing" textLength="74.3818" x="66" y="232.0752">evo_entity</text></g><!--entity evo_entity_ai--><g class="entity" data-entity="evo_entity_ai" data-source-line="27" data-uid="ent0020" id="entity_evo_entity_ai"><rect fill="#09B620" height="47.0146" rx="2.5" ry="2.5" style="stroke:#000000;stroke-width:1;" width="135.5322" x="200" y="198"/><rect fill="#09B620" height="10" style="stroke:#000000;stroke-width:1;" width="15" x="315.5322" y="203"/><rect fill="#09B620" height="2" style="stroke:#000000;stroke-width:1;" width="4" x="313.5322" y="205"/><rect fill="#09B620" height="2" style="stroke:#000000;stroke-width:1;" width="4" x="313.5322" y="209"/><text fill="#FFFFFF" font-family="Verdana" font-size="14" lengthAdjust="spacing" textLength="95.5322" x="215" y="232.0752">evo_entity_ai</text></g><!--entity evo_gui--><g class="entity" data-entity="evo_gui" data-source-line="28" data-uid="ent0021" id="entity_evo_gui"><rect fill="#B700FF" height="47.0146" rx="2.5" ry="2.5" style="stroke:#000000;stroke-width:1;" width="95.4463" x="371.5" y="198"/><rect fill="#B700FF" height="10" style="stroke:#000000;stroke-width:1;" width="15" x="446.9463" y="203"/><rect fill="#B700FF" height="2" style="stroke:#000000;stroke-width:1;" width="4" x="444.9463" y="205"/><rect fill="#B700FF" height="2" style="stroke:#000000;stroke-width:1;" width="4" x="444.9463" y="209"/><text fill="#FFFFFF" font-family="Verdana" font-size="14" lengthAdjust="spacing" textLength="55.4463" x="386.5" y="232.0752">evo_gui</text></g><!--SRC=[dT71ReCm303GUxx2WyEkqIfjsdNJs4TC4p9WM4I8KGXKrSI_Bv2sAgLiqdnBdkF4yPtxeeQWrQYCk8TtpHbgAD3MC8leQcLQjDZ02-PrPRatnIjhjk0iciuJ6NUHLL29lNO96nVIuYI44AqlW1L1z3Om93wPzcph2EBT7Dy20CuvD72QiwK85WuV9qXLyNcsAtAgeKtKN6rQRW-juqtshIft-8DJLFyjWAtwxVH4jwNnepBJmszpPbLHqPPM_RBkA5QJE2wwwsc4AZJuowTNunmNuXkQzgKaAilb_h7H5Ps-A9RFsUE3N4duXHM69h8dAKErKOm_]--></g></svg>