<svg xmlns="http://www.w3.org/2000/svg" xmlns:xlink="http://www.w3.org/1999/xlink" contentStyleType="text/css" data-diagram-type="DESCRIPTION" height="399px" preserveAspectRatio="none" style="width:1266px;height:399px;" version="1.1" viewBox="0 0 1266 399" width="1266px" zoomAndPan="magnify"><defs/><g><!--cluster Evo Framework--><g class="cluster" data-entity="Evo Framework" data-source-line="7" data-uid="ent0002" id="cluster_Evo Framework"><path d="M13.5,11 L136.7607,11 A3.75,3.75 0 0 1 139.2607,13.5 L146.2607,34.0146 L1256.5,34.0146 A2.5,2.5 0 0 1 1259,36.5146 L1259,389.5 A2.5,2.5 0 0 1 1256.5,392 L13.5,392 A2.5,2.5 0 0 1 11,389.5 L11,13.5 A2.5,2.5 0 0 1 13.5,11" fill="#333333" style="stroke:#000000;stroke-width:1;"/><line style="stroke:#000000;stroke-width:1;" x1="11" x2="146.2607" y1="34.0146" y2="34.0146"/><text fill="#FFFFFF" font-family="Verdana" font-size="14" font-weight="bold" lengthAdjust="spacing" textLength="122.2607" x="15" y="27.0752">Evo Framework</text></g><!--cluster evo_core--><g class="cluster" data-entity="evo_core" data-source-line="15" data-uid="ent0004" id="cluster_evo_core"><path d="M515.5,55 L588.5645,55 A3.75,3.75 0 0 1 591.0645,57.5 L598.0645,78.0146 L1232.5,78.0146 A2.5,2.5 0 0 1 1235,80.5146 L1235,365.5 A2.5,2.5 0 0 1 1232.5,368 L515.5,368 A2.5,2.5 0 0 1 513,365.5 L513,57.5 A2.5,2.5 0 0 1 515.5,55" fill="#333333" style="stroke:#000000;stroke-width:1;"/><line style="stroke:#000000;stroke-width:1;" x1="513" x2="598.0645" y1="78.0146" y2="78.0146"/><text fill="#FFFFFF" font-family="Verdana" font-size="14" font-weight="bold" lengthAdjust="spacing" textLength="72.0645" x="517" y="71.0752">evo_core</text></g><!--cluster evo_packages--><g class="cluster" data-entity="evo_packages" data-source-line="30" data-uid="ent0016" id="cluster_evo_packages"><path d="M214.5,55 L326.9736,55 A3.75,3.75 0 0 1 329.4736,57.5 L336.4736,78.0146 L486.5,78.0146 A2.5,2.5 0 0 1 489,80.5146 L489,258.5 A2.5,2.5 0 0 1 486.5,261 L214.5,261 A2.5,2.5 0 0 1 212,258.5 L212,57.5 A2.5,2.5 0 0 1 214.5,55" fill="#333333" style="stroke:#000000;stroke-width:1;"/><line style="stroke:#000000;stroke-width:1;" x1="212" x2="336.4736" y1="78.0146" y2="78.0146"/><text fill="#FFFFFF" font-family="Verdana" font-size="14" font-weight="bold" lengthAdjust="spacing" textLength="111.4736" x="216" y="71.0752">evo_packages</text></g><!--entity evo_framework--><g class="entity" data-entity="evo_framework" data-source-line="9" data-uid="ent0003" id="entity_evo_framework"><path d="M29.5,94.5 L166.4697,94.5 A3.75,3.75 0 0 1 168.9697,97 L175.9697,117.5146 L190.4697,117.5146 A2.5,2.5 0 0 1 192.9697,120.0146 L192.9697,132.0146 A2.5,2.5 0 0 1 190.4697,134.5146 L29.5,134.5146 A2.5,2.5 0 0 1 27,132.0146 L27,97 A2.5,2.5 0 0 1 29.5,94.5" fill="#333333" style="stroke:#000000;stroke-width:1;"/><line style="stroke:#000000;stroke-width:1;" x1="27" x2="175.9697" y1="117.5146" y2="117.5146"/><text fill="#FFFFFF" font-family="Verdana" font-size="14" font-weight="bold" lengthAdjust="spacing" textLength="123.9697" x="37" y="111.5752">evo_framework</text></g><!--entity evo_core_log--><g class="entity" data-entity="evo_core_log" data-source-line="17" data-uid="ent0005" id="entity_evo_core_log"><rect fill="#333333" height="47.0146" rx="2.5" ry="2.5" style="stroke:#000000;stroke-width:1;" width="134.0898" x="539" y="91"/><rect fill="#333333" height="10" style="stroke:#000000;stroke-width:1;" width="15" x="653.0898" y="96"/><rect fill="#333333" height="2" style="stroke:#000000;stroke-width:1;" width="4" x="651.0898" y="98"/><rect fill="#333333" height="2" style="stroke:#000000;stroke-width:1;" width="4" x="651.0898" y="102"/><text fill="#FFFFFF" font-family="Verdana" font-size="14" lengthAdjust="spacing" textLength="94.0898" x="554" y="125.0752">evo_core_log</text></g><!--entity evo_core_id--><g class="entity" data-entity="evo_core_id" data-source-line="18" data-uid="ent0006" id="entity_evo_core_id"><rect fill="#333333" height="47.0146" rx="2.5" ry="2.5" style="stroke:#000000;stroke-width:1;" width="125.5928" x="708" y="91"/><rect fill="#333333" height="10" style="stroke:#000000;stroke-width:1;" width="15" x="813.5928" y="96"/><rect fill="#333333" height="2" style="stroke:#000000;stroke-width:1;" width="4" x="811.5928" y="98"/><rect fill="#333333" height="2" style="stroke:#000000;stroke-width:1;" width="4" x="811.5928" y="102"/><text fill="#FFFFFF" font-family="Verdana" font-size="14" lengthAdjust="spacing" textLength="85.5928" x="723" y="125.0752">evo_core_id</text></g><!--entity evo_core_time--><g class="entity" data-entity="evo_core_time" data-source-line="19" data-uid="ent0007" id="entity_evo_core_time"><rect fill="#333333" height="47.0146" rx="2.5" ry="2.5" style="stroke:#000000;stroke-width:1;" width="144.3438" x="869" y="91"/><rect fill="#333333" height="10" style="stroke:#000000;stroke-width:1;" width="15" x="993.3438" y="96"/><rect fill="#333333" height="2" style="stroke:#000000;stroke-width:1;" width="4" x="991.3438" y="98"/><rect fill="#333333" height="2" style="stroke:#000000;stroke-width:1;" width="4" x="991.3438" y="102"/><text fill="#FFFFFF" font-family="Verdana" font-size="14" lengthAdjust="spacing" textLength="104.3438" x="884" y="125.0752">evo_core_time</text></g><!--entity evo_core_crypto--><g class="entity" data-entity="evo_core_crypto" data-source-line="20" data-uid="ent0008" id="entity_evo_core_crypto"><rect fill="#333333" height="47.0146" rx="2.5" ry="2.5" style="stroke:#000000;stroke-width:1;" width="157.3184" x="1048.5" y="91"/><rect fill="#333333" height="10" style="stroke:#000000;stroke-width:1;" width="15" x="1185.8184" y="96"/><rect fill="#333333" height="2" style="stroke:#000000;stroke-width:1;" width="4" x="1183.8184" y="98"/><rect fill="#333333" height="2" style="stroke:#000000;stroke-width:1;" width="4" x="1183.8184" y="102"/><text fill="#FFFFFF" font-family="Verdana" font-size="14" lengthAdjust="spacing" textLength="117.3184" x="1063.5" y="125.0752">evo_core_crypto</text></g><!--entity evo_core_entity--><g class="entity" data-entity="evo_core_entity" data-source-line="21" data-uid="ent0009" id="entity_evo_core_entity"><rect fill="#333333" height="47.0146" rx="2.5" ry="2.5" style="stroke:#000000;stroke-width:1;" width="153.3877" x="529.5" y="198"/><rect fill="#333333" height="10" style="stroke:#000000;stroke-width:1;" width="15" x="662.8877" y="203"/><rect fill="#333333" height="2" style="stroke:#000000;stroke-width:1;" width="4" x="660.8877" y="205"/><rect fill="#333333" height="2" style="stroke:#000000;stroke-width:1;" width="4" x="660.8877" y="209"/><text fill="#FFFFFF" font-family="Verdana" font-size="14" lengthAdjust="spacing" textLength="113.3877" x="544.5" y="232.0752">evo_core_entity</text></g><!--entity evo_core_api--><g class="entity" data-entity="evo_core_api" data-source-line="22" data-uid="ent0010" id="entity_evo_core_api"><rect fill="#333333" height="47.0146" rx="2.5" ry="2.5" style="stroke:#000000;stroke-width:1;" width="134.001" x="718" y="198"/><rect fill="#333333" height="10" style="stroke:#000000;stroke-width:1;" width="15" x="832.001" y="203"/><rect fill="#333333" height="2" style="stroke:#000000;stroke-width:1;" width="4" x="830.001" y="205"/><rect fill="#333333" height="2" style="stroke:#000000;stroke-width:1;" width="4" x="830.001" y="209"/><text fill="#FFFFFF" font-family="Verdana" font-size="14" lengthAdjust="spacing" textLength="94.001" x="733" y="232.0752">evo_core_api</text></g><!--entity evo_core_ai--><g class="entity" data-entity="evo_core_ai" data-source-line="23" data-uid="ent0011" id="entity_evo_core_ai"><rect fill="#333333" height="47.0146" rx="2.5" ry="2.5" style="stroke:#000000;stroke-width:1;" width="125.2783" x="887.5" y="198"/><rect fill="#333333" height="10" style="stroke:#000000;stroke-width:1;" width="15" x="992.7783" y="203"/><rect fill="#333333" height="2" style="stroke:#000000;stroke-width:1;" width="4" x="990.7783" y="205"/><rect fill="#333333" height="2" style="stroke:#000000;stroke-width:1;" width="4" x="990.7783" y="209"/><text fill="#FFFFFF" font-family="Verdana" font-size="14" lengthAdjust="spacing" textLength="85.2783" x="902.5" y="232.0752">evo_core_ai</text></g><!--entity evo_core_memory--><g class="entity" data-entity="evo_core_memory" data-source-line="24" data-uid="ent0012" id="entity_evo_core_memory"><rect fill="#333333" height="47.0146" rx="2.5" ry="2.5" style="stroke:#000000;stroke-width:1;" width="171.3594" x="1047.5" y="198"/><rect fill="#333333" height="10" style="stroke:#000000;stroke-width:1;" width="15" x="1198.8594" y="203"/><rect fill="#333333" height="2" style="stroke:#000000;stroke-width:1;" width="4" x="1196.8594" y="205"/><rect fill="#333333" height="2" style="stroke:#000000;stroke-width:1;" width="4" x="1196.8594" y="209"/><text fill="#FFFFFF" font-family="Verdana" font-size="14" lengthAdjust="spacing" textLength="131.3594" x="1062.5" y="232.0752">evo_core_memory</text></g><!--entity evo_core_memento--><g class="entity" data-entity="evo_core_memento" data-source-line="25" data-uid="ent0013" id="entity_evo_core_memento"><rect fill="#333333" height="47.0146" rx="2.5" ry="2.5" style="stroke:#000000;stroke-width:1;" width="179.8154" x="529" y="305"/><rect fill="#333333" height="10" style="stroke:#000000;stroke-width:1;" width="15" x="688.8154" y="310"/><rect fill="#333333" height="2" style="stroke:#000000;stroke-width:1;" width="4" x="686.8154" y="312"/><rect fill="#333333" height="2" style="stroke:#000000;stroke-width:1;" width="4" x="686.8154" y="316"/><text fill="#FFFFFF" font-family="Verdana" font-size="14" lengthAdjust="spacing" textLength="139.8154" x="544" y="339.0752">evo_core_memento</text></g><!--entity evo_core_bridge--><g class="entity" data-entity="evo_core_bridge" data-source-line="26" data-uid="ent0014" id="entity_evo_core_bridge"><rect fill="#333333" height="47.0146" rx="2.5" ry="2.5" style="stroke:#000000;stroke-width:1;" width="157.3525" x="744.5" y="305"/><rect fill="#333333" height="10" style="stroke:#000000;stroke-width:1;" width="15" x="881.8525" y="310"/><rect fill="#333333" height="2" style="stroke:#000000;stroke-width:1;" width="4" x="879.8525" y="312"/><rect fill="#333333" height="2" style="stroke:#000000;stroke-width:1;" width="4" x="879.8525" y="316"/><text fill="#FFFFFF" font-family="Verdana" font-size="14" lengthAdjust="spacing" textLength="117.3525" x="759.5" y="339.0752">evo_core_bridge</text></g><!--entity evo_core_gui--><g class="entity" data-entity="evo_core_gui" data-source-line="27" data-uid="ent0015" id="entity_evo_core_gui"><rect fill="#333333" height="47.0146" rx="2.5" ry="2.5" style="stroke:#000000;stroke-width:1;" width="134.4521" x="937" y="305"/><rect fill="#333333" height="10" style="stroke:#000000;stroke-width:1;" width="15" x="1051.4521" y="310"/><rect fill="#333333" height="2" style="stroke:#000000;stroke-width:1;" width="4" x="1049.4521" y="312"/><rect fill="#333333" height="2" style="stroke:#000000;stroke-width:1;" width="4" x="1049.4521" y="316"/><text fill="#FFFFFF" font-family="Verdana" font-size="14" lengthAdjust="spacing" textLength="94.4521" x="952" y="339.0752">evo_core_gui</text></g><!--entity evo_api--><g class="entity" data-entity="evo_api" data-source-line="32" data-uid="ent0017" id="entity_evo_api"><rect fill="#00EEFF" height="47.0146" rx="2.5" ry="2.5" style="stroke:#000000;stroke-width:1;" width="94.9951" x="228.5" y="91"/><rect fill="#00EEFF" height="10" style="stroke:#000000;stroke-width:1;" width="15" x="303.4951" y="96"/><rect fill="#00EEFF" height="2" style="stroke:#000000;stroke-width:1;" width="4" x="301.4951" y="98"/><rect fill="#00EEFF" height="2" style="stroke:#000000;stroke-width:1;" width="4" x="301.4951" y="102"/><text fill="#FFFFFF" font-family="Verdana" font-size="14" lengthAdjust="spacing" textLength="54.9951" x="243.5" y="125.0752">evo_api</text></g><!--entity evo_entity--><g class="entity" data-entity="evo_entity" data-source-line="33" data-uid="ent0018" id="entity_evo_entity"><rect fill="#09B620" height="47.0146" rx="2.5" ry="2.5" style="stroke:#000000;stroke-width:1;" width="114.3818" x="359" y="91"/><rect fill="#09B620" height="10" style="stroke:#000000;stroke-width:1;" width="15" x="453.3818" y="96"/><rect fill="#09B620" height="2" style="stroke:#000000;stroke-width:1;" width="4" x="451.3818" y="98"/><rect fill="#09B620" height="2" style="stroke:#000000;stroke-width:1;" width="4" x="451.3818" y="102"/><text fill="#FFFFFF" font-family="Verdana" font-size="14" lengthAdjust="spacing" textLength="74.3818" x="374" y="125.0752">evo_entity</text></g><!--entity evo_ai--><g class="entity" data-entity="evo_ai" data-source-line="34" data-uid="ent0019" id="entity_evo_ai"><rect fill="#FFA600" height="47.0146" rx="2.5" ry="2.5" style="stroke:#000000;stroke-width:1;" width="86.2725" x="233" y="198"/><rect fill="#FFA600" height="10" style="stroke:#000000;stroke-width:1;" width="15" x="299.2725" y="203"/><rect fill="#FFA600" height="2" style="stroke:#000000;stroke-width:1;" width="4" x="297.2725" y="205"/><rect fill="#FFA600" height="2" style="stroke:#000000;stroke-width:1;" width="4" x="297.2725" y="209"/><text fill="#FFFFFF" font-family="Verdana" font-size="14" lengthAdjust="spacing" textLength="46.2725" x="248" y="232.0752">evo_ai</text></g><!--entity evo_gui--><g class="entity" data-entity="evo_gui" data-source-line="35" data-uid="ent0020" id="entity_evo_gui"><rect fill="#09B620" height="47.0146" rx="2.5" ry="2.5" style="stroke:#000000;stroke-width:1;" width="95.4463" x="354.5" y="198"/><rect fill="#09B620" height="10" style="stroke:#000000;stroke-width:1;" width="15" x="429.9463" y="203"/><rect fill="#09B620" height="2" style="stroke:#000000;stroke-width:1;" width="4" x="427.9463" y="205"/><rect fill="#09B620" height="2" style="stroke:#000000;stroke-width:1;" width="4" x="427.9463" y="209"/><text fill="#FFFFFF" font-family="Verdana" font-size="14" lengthAdjust="spacing" textLength="55.4463" x="369.5" y="232.0752">evo_gui</text></g><!--SRC=[VPB1QeGm443l-OhfUkXLMbZejQNkHvIoZ3gnmPYH6BT8sNzlr7MRL74E0-6z39EPFBWlQWXQZSe8yGWdpJbgAD7MC27HrSgqQB61Lopgod9loZVMRC5PD9r7P5nWbIInrovZusOjoUOGelK5i28ul5yOCY_JDzlw0Cdp53z2m5sX2v_bdn8u0k0wvLWks5BamHWV2pfhhZxlU8O1LUKETAgX7LpOeNMy8_W1AJUiXC30Lgrno3t-JmFSKCDss51Yn_V1-r9kLLdHlbFrSJDNiMZHFcw7RhsJgEJjvMbA9EK6NsQNf2_vyIdTgZ0La1AFwHQUszsuFNuYCQPV]--></g></svg>