<svg xmlns="http://www.w3.org/2000/svg" xmlns:xlink="http://www.w3.org/1999/xlink" contentStyleType="text/css" data-diagram-type="DESCRIPTION" height="307px" preserveAspectRatio="none" style="width:2021px;height:307px;background:#FFFFFF;" version="1.1" viewBox="0 0 2021 307" width="2021px" zoomAndPan="magnify"><title>AI Serialization Format Structure</title><defs/><g><text fill="#000000" font-family="Verdana" font-size="22" font-weight="bold" lengthAdjust="spacing" textLength="411.0068" x="800.7466" y="37.1182">AI Serialization Format Structure</text><!--cluster Main Entity Line--><g class="cluster" data-entity="Main Entity Line" data-source-line="6" data-uid="ent0002" id="cluster_Main Entity Line"><path d="M193,58.7373 L320.1162,58.7373 A3.75,3.75 0 0 1 322.6162,61.2373 L329.6162,81.752 L1094,81.752 A2.5,2.5 0 0 1 1096.5,84.252 L1096.5,162.2373 A2.5,2.5 0 0 1 1094,164.7373 L193,164.7373 A2.5,2.5 0 0 1 190.5,162.2373 L190.5,61.2373 A2.5,2.5 0 0 1 193,58.7373" fill="#FFFFFF" style="stroke:#000000;stroke-width:1;"/><line style="stroke:#000000;stroke-width:1;" x1="190.5" x2="329.6162" y1="81.752" y2="81.752"/><text fill="#000000" font-family="Verdana" font-size="14" font-weight="bold" lengthAdjust="spacing" textLength="126.1162" x="194.5" y="74.8125">Main Entity Line</text></g><!--cluster Nested Entity Lines--><g class="cluster" data-entity="Nested Entity Lines" data-source-line="16" data-uid="ent0010" id="cluster_Nested Entity Lines"><path d="M1123,58.7373 L1275.9629,58.7373 A3.75,3.75 0 0 1 1278.4629,61.2373 L1285.4629,81.752 L1568,81.752 A2.5,2.5 0 0 1 1570.5,84.252 L1570.5,162.2373 A2.5,2.5 0 0 1 1568,164.7373 L1123,164.7373 A2.5,2.5 0 0 1 1120.5,162.2373 L1120.5,61.2373 A2.5,2.5 0 0 1 1123,58.7373" fill="#FFFFFF" style="stroke:#000000;stroke-width:1;"/><line style="stroke:#000000;stroke-width:1;" x1="1120.5" x2="1285.4629" y1="81.752" y2="81.752"/><text fill="#000000" font-family="Verdana" font-size="14" font-weight="bold" lengthAdjust="spacing" textLength="151.9629" x="1124.5" y="74.8125">Nested Entity Lines</text></g><!--cluster Map Entity Lines--><g class="cluster" data-entity="Map Entity Lines" data-source-line="22" data-uid="ent0014" id="cluster_Map Entity Lines"><path d="M1597,58.7373 L1727.4521,58.7373 A3.75,3.75 0 0 1 1729.9521,61.2373 L1736.9521,81.752 L2012,81.752 A2.5,2.5 0 0 1 2014.5,84.252 L2014.5,162.2373 A2.5,2.5 0 0 1 2012,164.7373 L1597,164.7373 A2.5,2.5 0 0 1 1594.5,162.2373 L1594.5,61.2373 A2.5,2.5 0 0 1 1597,58.7373" fill="#FFFFFF" style="stroke:#000000;stroke-width:1;"/><line style="stroke:#000000;stroke-width:1;" x1="1594.5" x2="1736.9521" y1="81.752" y2="81.752"/><text fill="#000000" font-family="Verdana" font-size="14" font-weight="bold" lengthAdjust="spacing" textLength="129.4521" x="1598.5" y="74.8125">Map Entity Lines</text></g><!--entity EID--><g class="entity" data-entity="EID" data-source-line="7" data-uid="ent0003" id="entity_EID"><rect fill="#ADD8E6" height="54.0293" rx="2.5" ry="2.5" style="stroke:#000000;stroke-width:1;" width="114.7734" x="207" y="94.7373"/><text fill="#000000" font-family="Verdana" font-size="14" lengthAdjust="spacing" textLength="62.4736" x="217" y="118.8125">Entity ID</text><text fill="#000000" font-family="Verdana" font-size="14" lengthAdjust="spacing" textLength="94.7734" x="217" y="135.8271">(7 hex chars)</text></g><!--entity IID--><g class="entity" data-entity="IID" data-source-line="8" data-uid="ent0004" id="entity_IID"><rect fill="#90EE90" height="54.0293" rx="2.5" ry="2.5" style="stroke:#000000;stroke-width:1;" width="123.6738" x="363.5" y="94.7373"/><text fill="#000000" font-family="Verdana" font-size="14" lengthAdjust="spacing" textLength="82.0654" x="373.5" y="118.8125">Instance ID</text><text fill="#000000" font-family="Verdana" font-size="14" lengthAdjust="spacing" textLength="103.6738" x="373.5" y="135.8271">(64 hex chars)</text></g><!--entity TIME--><g class="entity" data-entity="TIME" data-source-line="9" data-uid="ent0005" id="entity_TIME"><rect fill="#FFFFE0" height="54.0293" rx="2.5" ry="2.5" style="stroke:#000000;stroke-width:1;" width="97.9844" x="529.5" y="94.7373"/><text fill="#000000" font-family="Verdana" font-size="14" lengthAdjust="spacing" textLength="77.9844" x="539.5" y="118.8125">Timestamp</text><text fill="#000000" font-family="Verdana" font-size="14" lengthAdjust="spacing" textLength="39.375" x="539.5" y="135.8271">(u64)</text></g><!--entity F1--><g class="entity" data-entity="F1" data-source-line="10" data-uid="ent0006" id="entity_F1"><rect fill="#F08080" height="37.0146" rx="2.5" ry="2.5" style="stroke:#000000;stroke-width:1;" width="66.6143" x="669" y="103.2373"/><text fill="#000000" font-family="Verdana" font-size="14" lengthAdjust="spacing" textLength="46.6143" x="679" y="127.3125">Field 1</text></g><!--entity F2--><g class="entity" data-entity="F2" data-source-line="11" data-uid="ent0007" id="entity_F2"><rect fill="#F08080" height="37.0146" rx="2.5" ry="2.5" style="stroke:#000000;stroke-width:1;" width="66.6143" x="778" y="103.2373"/><text fill="#000000" font-family="Verdana" font-size="14" lengthAdjust="spacing" textLength="46.6143" x="788" y="127.3125">Field 2</text></g><!--entity FN--><g class="entity" data-entity="FN" data-source-line="12" data-uid="ent0008" id="entity_FN"><rect fill="#F08080" height="37.0146" rx="2.5" ry="2.5" style="stroke:#000000;stroke-width:1;" width="68.1865" x="886.5" y="103.2373"/><text fill="#000000" font-family="Verdana" font-size="14" lengthAdjust="spacing" textLength="48.1865" x="896.5" y="127.3125">Field N</text></g><!--entity END--><g class="entity" data-entity="END" data-source-line="13" data-uid="ent0009" id="entity_END"><rect fill="#D3D3D3" height="54.0293" rx="2.5" ry="2.5" style="stroke:#000000;stroke-width:1;" width="84.1006" x="996.5" y="94.7373"/><text fill="#000000" font-family="Verdana" font-size="14" lengthAdjust="spacing" textLength="26.4346" x="1006.5" y="118.8125">End</text><text fill="#000000" font-family="Verdana" font-size="14" lengthAdjust="spacing" textLength="64.1006" x="1006.5" y="135.8271">Delimiter</text></g><!--entity L1--><g class="entity" data-entity="L1" data-source-line="17" data-uid="ent0011" id="entity_L1"><rect fill="#ADD8E6" height="54.0293" rx="2.5" ry="2.5" style="stroke:#000000;stroke-width:1;" width="74.6738" x="1136" y="94.7373"/><text fill="#000000" font-family="Verdana" font-size="14" lengthAdjust="spacing" textLength="36.5996" x="1146" y="118.8125">Level</text><text fill="#000000" font-family="Verdana" font-size="14" lengthAdjust="spacing" textLength="54.6738" x="1146" y="135.8271">(1-255)</text></g><!--entity K1--><g class="entity" data-entity="K1" data-source-line="18" data-uid="ent0012" id="entity_K1"><rect fill="#90EE90" height="54.0293" rx="2.5" ry="2.5" style="stroke:#000000;stroke-width:1;" width="137.5576" x="1252.5" y="94.7373"/><text fill="#000000" font-family="Verdana" font-size="14" lengthAdjust="spacing" textLength="26.3252" x="1262.5" y="118.8125">Key</text><text fill="#000000" font-family="Verdana" font-size="14" lengthAdjust="spacing" textLength="117.5576" x="1262.5" y="135.8271">(attribute name)</text></g><!--entity NE1--><g class="entity" data-entity="NE1" data-source-line="19" data-uid="ent0013" id="entity_NE1"><rect fill="#FFFFE0" height="54.0293" rx="2.5" ry="2.5" style="stroke:#000000;stroke-width:1;" width="122.2314" x="1432.5" y="94.7373"/><text fill="#000000" font-family="Verdana" font-size="14" lengthAdjust="spacing" textLength="94.4795" x="1442.5" y="118.8125">Nested Entity</text><text fill="#000000" font-family="Verdana" font-size="14" lengthAdjust="spacing" textLength="102.2314" x="1442.5" y="135.8271">(same format)</text></g><!--entity L2--><g class="entity" data-entity="L2" data-source-line="23" data-uid="ent0015" id="entity_L2"><rect fill="#ADD8E6" height="54.0293" rx="2.5" ry="2.5" style="stroke:#000000;stroke-width:1;" width="74.6738" x="1610" y="94.7373"/><text fill="#000000" font-family="Verdana" font-size="14" lengthAdjust="spacing" textLength="36.5996" x="1620" y="118.8125">Level</text><text fill="#000000" font-family="Verdana" font-size="14" lengthAdjust="spacing" textLength="54.6738" x="1620" y="135.8271">(1-255)</text></g><!--entity K2--><g class="entity" data-entity="K2" data-source-line="24" data-uid="ent0016" id="entity_K2"><rect fill="#90EE90" height="54.0293" rx="2.5" ry="2.5" style="stroke:#000000;stroke-width:1;" width="107.6094" x="1726.5" y="94.7373"/><text fill="#000000" font-family="Verdana" font-size="14" lengthAdjust="spacing" textLength="26.3252" x="1736.5" y="118.8125">Key</text><text fill="#000000" font-family="Verdana" font-size="14" lengthAdjust="spacing" textLength="87.6094" x="1736.5" y="135.8271">(map name)</text></g><!--entity ME1--><g class="entity" data-entity="ME1" data-source-line="25" data-uid="ent0017" id="entity_ME1"><rect fill="#FFFFE0" height="54.0293" rx="2.5" ry="2.5" style="stroke:#000000;stroke-width:1;" width="122.2314" x="1876.5" y="94.7373"/><text fill="#000000" font-family="Verdana" font-size="14" lengthAdjust="spacing" textLength="74.7236" x="1886.5" y="118.8125">Map Entity</text><text fill="#000000" font-family="Verdana" font-size="14" lengthAdjust="spacing" textLength="102.2314" x="1886.5" y="135.8271">(same format)</text></g><g class="entity" data-entity="GMN28" data-source-line="42" data-uid="ent0029" id="entity_GMN28"><path d="M11,227.7373 L11,285.1353 A0,0 0 0 0 11,285.1353 L253.876,285.1353 A0,0 0 0 0 253.876,285.1353 L253.876,237.7373 L243.876,227.7373 L164.35,227.7373 L238.42,148.9173 L156.35,227.7373 L11,227.7373 A0,0 0 0 0 11,227.7373" fill="#FFFFFF" style="stroke:#000000;stroke-width:1;"/><path d="M243.876,227.7373 L243.876,237.7373 L253.876,237.7373 L243.876,227.7373" fill="#FFFFFF" style="stroke:#000000;stroke-width:1;"/><text fill="#000000" font-family="Verdana" font-size="13" lengthAdjust="spacing" textLength="126.0073" x="17" y="245.8071">Entity ID: 611dd51</text><text fill="#000000" font-family="Verdana" font-size="13" lengthAdjust="spacing" textLength="221.876" x="17" y="261.6064">Derived from EVO_VERSION hash</text><text fill="#000000" font-family="Verdana" font-size="13" lengthAdjust="spacing" textLength="168.7461" x="17" y="277.4058">Unique identifier (28 bits)</text></g><g class="entity" data-entity="GMN31" data-source-line="48" data-uid="ent0032" id="entity_GMN31"><path d="M289,227.7373 L289,285.1353 A0,0 0 0 0 289,285.1353 L561.6592,285.1353 A0,0 0 0 0 561.6592,285.1353 L561.6592,237.7373 L551.6592,227.7373 L429.5,227.7373 L425.5,148.9173 L421.5,227.7373 L289,227.7373 A0,0 0 0 0 289,227.7373" fill="#FFFFFF" style="stroke:#000000;stroke-width:1;"/><path d="M551.6592,227.7373 L551.6592,237.7373 L561.6592,237.7373 L551.6592,227.7373" fill="#FFFFFF" style="stroke:#000000;stroke-width:1;"/><text fill="#000000" font-family="Verdana" font-size="13" lengthAdjust="spacing" textLength="148.3384" x="295" y="245.8071">Instance ID: abc123...</text><text fill="#000000" font-family="Verdana" font-size="13" lengthAdjust="spacing" textLength="172.1992" x="295" y="261.6064">Unique per entity instance</text><text fill="#000000" font-family="Verdana" font-size="13" lengthAdjust="spacing" textLength="251.6592" x="295" y="277.4058">Can be empty (&#166;&#166;) for auto-generation</text></g><g class="entity" data-entity="GMN34" data-source-line="54" data-uid="ent0035" id="entity_GMN34"><path d="M597,227.7373 L597,285.1353 A0,0 0 0 0 597,285.1353 L857.916,285.1353 A0,0 0 0 0 857.916,285.1353 L857.916,237.7373 L847.916,227.7373 L700.33,227.7373 L607.94,148.9173 L692.33,227.7373 L597,227.7373 A0,0 0 0 0 597,227.7373" fill="#FFFFFF" style="stroke:#000000;stroke-width:1;"/><path d="M847.916,227.7373 L847.916,237.7373 L857.916,237.7373 L847.916,227.7373" fill="#FFFFFF" style="stroke:#000000;stroke-width:1;"/><text fill="#000000" font-family="Verdana" font-size="13" lengthAdjust="spacing" textLength="239.916" x="603" y="245.8071">Timestamp: 1763212259692436780</text><text fill="#000000" font-family="Verdana" font-size="13" lengthAdjust="spacing" textLength="208.4634" x="603" y="261.6064">Unix timestamp in nanoseconds</text><text fill="#000000" font-family="Verdana" font-size="13" lengthAdjust="spacing" textLength="188.3286" x="603" y="277.4058">Can be empty for default (0)</text></g><g class="entity" data-entity="GMN37" data-source-line="60" data-uid="ent0038" id="entity_GMN37"><path d="M1065,211.7373 L1065,300.7339 A0,0 0 0 0 1065,300.7339 L1282.333,300.7339 A0,0 0 0 0 1282.333,300.7339 L1282.333,221.7373 L1272.333,211.7373 L1177.5,211.7373 L1173.5,148.9173 L1169.5,211.7373 L1065,211.7373 A0,0 0 0 0 1065,211.7373" fill="#FFFFFF" style="stroke:#000000;stroke-width:1;"/><path d="M1272.333,211.7373 L1272.333,221.7373 L1282.333,221.7373 L1272.333,211.7373" fill="#FFFFFF" style="stroke:#000000;stroke-width:1;"/><text fill="#000000" font-family="Verdana" font-size="13" lengthAdjust="spacing" textLength="196.333" x="1071" y="229.8071">Level indicates nesting depth:</text><text fill="#000000" font-family="Verdana" font-size="13" lengthAdjust="spacing" textLength="164.4868" x="1071" y="245.6064">- 0: Root entity (implicit)</text><text fill="#000000" font-family="Verdana" font-size="13" lengthAdjust="spacing" textLength="124.3062" x="1071" y="261.4058">- 1: Direct children</text><text fill="#000000" font-family="Verdana" font-size="13" lengthAdjust="spacing" textLength="120.7261" x="1071" y="277.2051">- 2: Grandchildren</text><text fill="#000000" font-family="Verdana" font-size="13" lengthAdjust="spacing" textLength="114.061" x="1071" y="293.0044">- 255: Max depth</text></g><!--link EID to IID--><g class="link" data-entity-1="EID" data-entity-2="IID" data-source-line="28" data-uid="lnk18" id="link_EID_IID"><path d="M322.17,121.7373 C335.52,121.7373 343.79,121.7373 357.33,121.7373" fill="none" id="EID-to-IID" style="stroke:#000000;stroke-width:1;"/><polygon fill="#000000" points="363.33,121.7373,354.33,117.7373,358.33,121.7373,354.33,125.7373,363.33,121.7373" style="stroke:#000000;stroke-width:1;"/><text fill="#000000" font-family="Verdana" font-size="13" lengthAdjust="spacing" textLength="5.9033" x="340.25" y="115.8071">&#166;</text></g><!--link IID to TIME--><g class="link" data-entity-1="IID" data-entity-2="TIME" data-source-line="29" data-uid="lnk19" id="link_IID_TIME"><path d="M487.73,121.7373 C501.63,121.7373 510.18,121.7373 523.46,121.7373" fill="none" id="IID-to-TIME" style="stroke:#000000;stroke-width:1;"/><polygon fill="#000000" points="529.46,121.7373,520.46,117.7373,524.46,121.7373,520.46,125.7373,529.46,121.7373" style="stroke:#000000;stroke-width:1;"/><text fill="#000000" font-family="Verdana" font-size="13" lengthAdjust="spacing" textLength="5.9033" x="506" y="115.8071">&#166;</text></g><!--link TIME to F1--><g class="link" data-entity-1="TIME" data-entity-2="F1" data-source-line="30" data-uid="lnk20" id="link_TIME_F1"><path d="M627.51,121.7373 C641.32,121.7373 650.03,121.7373 662.73,121.7373" fill="none" id="TIME-to-F1" style="stroke:#000000;stroke-width:1;"/><polygon fill="#000000" points="668.73,121.7373,659.73,117.7373,663.73,121.7373,659.73,125.7373,668.73,121.7373" style="stroke:#000000;stroke-width:1;"/><text fill="#000000" font-family="Verdana" font-size="13" lengthAdjust="spacing" textLength="5.9033" x="645.75" y="115.8071">&#166;</text></g><!--link F1 to F2--><g class="link" data-entity-1="F1" data-entity-2="F2" data-source-line="31" data-uid="lnk21" id="link_F1_F2"><path d="M736.09,121.7373 C749.35,121.7373 758.56,121.7373 771.83,121.7373" fill="none" id="F1-to-F2" style="stroke:#000000;stroke-width:1;"/><polygon fill="#000000" points="777.83,121.7373,768.83,117.7373,772.83,121.7373,768.83,125.7373,777.83,121.7373" style="stroke:#000000;stroke-width:1;"/><text fill="#000000" font-family="Verdana" font-size="13" lengthAdjust="spacing" textLength="5.9033" x="754.5" y="115.8071">&#166;</text></g><!--link F2 to FN--><g class="link" data-entity-1="F2" data-entity-2="FN" data-source-line="32" data-uid="lnk22" id="link_F2_FN"><path d="M845.09,121.7373 C858.23,121.7373 867.27,121.7373 880.45,121.7373" fill="none" id="F2-to-FN" style="stroke:#000000;stroke-width:1;"/><polygon fill="#000000" points="886.45,121.7373,877.45,117.7373,881.45,121.7373,877.45,125.7373,886.45,121.7373" style="stroke:#000000;stroke-width:1;"/><text fill="#000000" font-family="Verdana" font-size="13" lengthAdjust="spacing" textLength="5.9033" x="863.25" y="115.8071">&#166;</text></g><!--link FN to END--><g class="link" data-entity-1="FN" data-entity-2="END" data-source-line="33" data-uid="lnk23" id="link_FN_END"><path d="M954.63,121.7373 C967.7,121.7373 976.76,121.7373 990.48,121.7373" fill="none" id="FN-to-END" style="stroke:#000000;stroke-width:1;"/><polygon fill="#000000" points="996.48,121.7373,987.48,117.7373,991.48,121.7373,987.48,125.7373,996.48,121.7373" style="stroke:#000000;stroke-width:1;"/><text fill="#000000" font-family="Verdana" font-size="13" lengthAdjust="spacing" textLength="5.9033" x="973" y="115.8071">&#166;</text></g><!--link L1 to K1--><g class="link" data-entity-1="L1" data-entity-2="K1" data-source-line="35" data-uid="lnk24" id="link_L1_K1"><path d="M1211.23,121.7373 C1223.82,121.7373 1232.27,121.7373 1246.47,121.7373" fill="none" id="L1-to-K1" style="stroke:#000000;stroke-width:1;"/><polygon fill="#000000" points="1252.47,121.7373,1243.47,117.7373,1247.47,121.7373,1243.47,125.7373,1252.47,121.7373" style="stroke:#000000;stroke-width:1;"/><text fill="#000000" font-family="Verdana" font-size="13" lengthAdjust="spacing" textLength="5.9033" x="1229.25" y="115.8071">&#166;</text></g><!--link K1 to NE1--><g class="link" data-entity-1="K1" data-entity-2="NE1" data-source-line="36" data-uid="lnk25" id="link_K1_NE1"><path d="M1390.96,121.7373 C1404.67,121.7373 1412.96,121.7373 1426.36,121.7373" fill="none" id="K1-to-NE1" style="stroke:#000000;stroke-width:1;"/><polygon fill="#000000" points="1432.36,121.7373,1423.36,117.7373,1427.36,121.7373,1423.36,125.7373,1432.36,121.7373" style="stroke:#000000;stroke-width:1;"/><text fill="#000000" font-family="Verdana" font-size="13" lengthAdjust="spacing" textLength="5.9033" x="1409" y="115.8071">&#166;</text></g><!--link L2 to K2--><g class="link" data-entity-1="L2" data-entity-2="K2" data-source-line="38" data-uid="lnk26" id="link_L2_K2"><path d="M1685.26,121.7373 C1698.01,121.7373 1706.5,121.7373 1720.27,121.7373" fill="none" id="L2-to-K2" style="stroke:#000000;stroke-width:1;"/><polygon fill="#000000" points="1726.27,121.7373,1717.27,117.7373,1721.27,121.7373,1717.27,125.7373,1726.27,121.7373" style="stroke:#000000;stroke-width:1;"/><text fill="#000000" font-family="Verdana" font-size="13" lengthAdjust="spacing" textLength="5.9033" x="1703.25" y="115.8071">&#166;</text></g><!--link K2 to ME1--><g class="link" data-entity-1="K2" data-entity-2="ME1" data-source-line="39" data-uid="lnk27" id="link_K2_ME1"><path d="M1834.53,121.7373 C1848.01,121.7373 1856.57,121.7373 1870.36,121.7373" fill="none" id="K2-to-ME1" style="stroke:#000000;stroke-width:1;"/><polygon fill="#000000" points="1876.36,121.7373,1867.36,117.7373,1871.36,121.7373,1867.36,125.7373,1876.36,121.7373" style="stroke:#000000;stroke-width:1;"/><text fill="#000000" font-family="Verdana" font-size="13" lengthAdjust="spacing" textLength="5.9033" x="1853" y="115.8071">&#166;</text></g><!--SRC=[dLJBJjj05DtxAsx39ba4uO44yA9IIvpAIc8ae4YLaAg9VHEFi6VSyPX7Atw73-7BUZqsYGbfaEfDeZFddBclkPzCWXb2dd8XdU9Mo9nhdi6SHxTBhKePdwbKQTWRsyznZ30fmfS0Bb4BdehVt0WbOQnqnWrS6br6fjJeE3avy2L2PqREu4iIFi9KIEp07mVeqnWPBfVarcbEWz6Dx1v3WWyG9LmNlGxm0lnW17jJiKpCrxJ4JMaW2_eROIqU7csgWvNwcqQKc_8haI4PP3c9o-5HhRaAPduZ-e5fgkutLME1QGok9O_TXdgcD4-tCrdDP1ypmvePxcBwChwH8qn59WpgkaRXEal-w3oroXzIVXYt6r1iwS0Kxp2b6hXzDXZKLPYwEye-mKTYSsEqc9S6GV8CQzd4tLNlDz6GGq4wMDZXgUMXxxuj_TERKSh_9n7sOI8P6RTIOBjIM0UnBVxPblYh2Uxh2kj_jWFfmSkp4xHHEt8MjlzME4sNHUbtZR46OoqiRB1mZLL3OK5dsb9F6iT92wkAtZ1RdfFcdaaBcwsOKb7RvyeObO5QLA_K5chrb3qOkcuS3rmBZsXRt57Z5vhe_lNvpsl_uZ8u3o7XHM8PtwNuLIA86CbX8L13bvt0N9YYvw2CeRhltQr1Ssjh2tZ0vv7B3lVtzzk-EHbY7PjeoFRuZ4kO8s2MqqdtvVdbkLVr4tXfL7-94hLTSFyEeUgNTLgj4W_Su-4XSnaRd0vFsT7XyFZau3MM1p2lF0g4Xawg0YCbu-9zE5KSCIvucHhe7kmemxGkifrzSer5n0qMG2_42BaaZzmadgNquS232wNCQp6w8ijJ4GdJQyvT3qQY6dVQeYADTVC0-i0yeEKYuqruCF1WnX_gMzOn_WK0]--></g></svg>