<svg xmlns="http://www.w3.org/2000/svg" xmlns:xlink="http://www.w3.org/1999/xlink" contentStyleType="text/css" data-diagram-type="SEQUENCE" height="732px" preserveAspectRatio="none" style="width:693px;height:732px;background:#000000;" version="1.1" viewBox="0 0 693 732" width="693px" zoomAndPan="magnify"><title>Diagram 0: PeerA Registration Flow</title><defs/><g><text fill="#FFFFFF" font-family="Verdana" font-size="22" font-weight="bold" lengthAdjust="spacing" textLength="442.9219" x="123.7769" y="37.1182">Diagram 0: PeerA Registration Flow</text><g><title>MasterPeer</title><rect fill="#90EE90" height="346.5918" style="stroke:#000000;stroke-width:1;" width="10" x="387.1489" y="207.3506"/></g><g><title>CertDB</title><rect fill="#FFFFFF" height="112.9966" style="stroke:#000000;stroke-width:1;" width="10" x="565.6226" y="367.3472"/></g><g><title>PeerA</title><rect fill="#000000" fill-opacity="0.00000" height="491.7891" width="8" x="203" y="131.752"/><line style="stroke:#FFFFFF;stroke-width:1;stroke-dasharray:5,5;" x1="207" x2="207" y1="131.752" y2="623.541"/></g><g><title>MasterPeer</title><rect fill="#000000" fill-opacity="0.00000" height="491.7891" width="8" x="388.1489" y="131.752"/><line style="stroke:#FFFFFF;stroke-width:1;stroke-dasharray:5,5;" x1="391.9346" x2="391.9346" y1="131.752" y2="623.541"/></g><g><title>CertDB</title><rect fill="#000000" fill-opacity="0.00000" height="491.7891" width="8" x="566.6226" y="131.752"/><line style="stroke:#FFFFFF;stroke-width:1;stroke-dasharray:5,5;" x1="569.627" x2="569.627" y1="131.752" y2="623.541"/></g><g class="participant participant-head" data-participant="PA"><text fill="#FFFFFF" font-family="Verdana" font-size="14" lengthAdjust="spacing" textLength="40.667" x="183.6665" y="128.8125">PeerA</text><ellipse cx="207" cy="69.7373" fill="#87CEEB" rx="16" ry="16" style="stroke:#000000;stroke-width:1;"/><path d="M207,89.7373 C211,89.7373 214,89.7373 218,85.7373 C226,85.7373 234,93.7373 234,101.7373 L234,105.7373 C234,109.7373 230,113.7373 226,113.7373 L188,113.7373 C184,113.7373 180,109.7373 180,105.7373 L180,101.7373 C180,93.7373 188,85.7373 196,85.7373 C200,89.7373 203,89.7373 207,89.7373" fill="#87CEEB" style="stroke:#000000;stroke-width:1;"/></g><g class="participant participant-tail" data-participant="PA"><text fill="#FFFFFF" font-family="Verdana" font-size="14" lengthAdjust="spacing" textLength="40.667" x="183.6665" y="636.6162">PeerA</text><ellipse cx="207" cy="656.5557" fill="#87CEEB" rx="16" ry="16" style="stroke:#000000;stroke-width:1;"/><path d="M207,676.5557 C211,676.5557 214,676.5557 218,672.5557 C226,672.5557 234,680.5557 234,688.5557 L234,692.5557 C234,696.5557 230,700.5557 226,700.5557 L188,700.5557 C184,700.5557 180,696.5557 180,692.5557 L180,688.5557 C180,680.5557 188,672.5557 196,672.5557 C200,676.5557 203,676.5557 207,676.5557" fill="#87CEEB" style="stroke:#000000;stroke-width:1;"/></g><g class="participant participant-head" data-participant="MP"><text fill="#FFFFFF" font-family="Verdana" font-size="14" lengthAdjust="spacing" textLength="78.4287" x="349.9346" y="128.8125">MasterPeer</text><ellipse cx="392.1489" cy="69.7373" fill="#90EE90" rx="16" ry="16" style="stroke:#000000;stroke-width:1;"/><path d="M392.1489,89.7373 C396.1489,89.7373 399.1489,89.7373 403.1489,85.7373 C411.1489,85.7373 419.1489,93.7373 419.1489,101.7373 L419.1489,105.7373 C419.1489,109.7373 415.1489,113.7373 411.1489,113.7373 L373.1489,113.7373 C369.1489,113.7373 365.1489,109.7373 365.1489,105.7373 L365.1489,101.7373 C365.1489,93.7373 373.1489,85.7373 381.1489,85.7373 C385.1489,89.7373 388.1489,89.7373 392.1489,89.7373" fill="#90EE90" style="stroke:#000000;stroke-width:1;"/></g><g class="participant participant-tail" data-participant="MP"><text fill="#FFFFFF" font-family="Verdana" font-size="14" lengthAdjust="spacing" textLength="78.4287" x="349.9346" y="636.6162">MasterPeer</text><ellipse cx="392.1489" cy="656.5557" fill="#90EE90" rx="16" ry="16" style="stroke:#000000;stroke-width:1;"/><path d="M392.1489,676.5557 C396.1489,676.5557 399.1489,676.5557 403.1489,672.5557 C411.1489,672.5557 419.1489,680.5557 419.1489,688.5557 L419.1489,692.5557 C419.1489,696.5557 415.1489,700.5557 411.1489,700.5557 L373.1489,700.5557 C369.1489,700.5557 365.1489,696.5557 365.1489,692.5557 L365.1489,688.5557 C365.1489,680.5557 373.1489,672.5557 381.1489,672.5557 C385.1489,676.5557 388.1489,676.5557 392.1489,676.5557" fill="#90EE90" style="stroke:#000000;stroke-width:1;"/></g><g class="participant participant-head" data-participant="DB"><text fill="#FFFFFF" font-family="Verdana" font-size="14" lengthAdjust="spacing" textLength="49.9912" x="542.627" y="128.8125">CertDB</text><path d="M552.6226,78.7373 C552.6226,68.7373 570.6226,68.7373 570.6226,68.7373 C570.6226,68.7373 588.6226,68.7373 588.6226,78.7373 L588.6226,104.7373 C588.6226,114.7373 570.6226,114.7373 570.6226,114.7373 C570.6226,114.7373 552.6226,114.7373 552.6226,104.7373 L552.6226,78.7373" fill="#FBFF00" style="stroke:#000000;stroke-width:1;"/><path d="M552.6226,78.7373 C552.6226,88.7373 570.6226,88.7373 570.6226,88.7373 C570.6226,88.7373 588.6226,88.7373 588.6226,78.7373" fill="none" style="stroke:#000000;stroke-width:1;"/></g><g class="participant participant-tail" data-participant="DB"><text fill="#FFFFFF" font-family="Verdana" font-size="14" lengthAdjust="spacing" textLength="49.9912" x="542.627" y="636.6162">CertDB</text><path d="M552.6226,649.5557 C552.6226,639.5557 570.6226,639.5557 570.6226,639.5557 C570.6226,639.5557 588.6226,639.5557 588.6226,649.5557 L588.6226,675.5557 C588.6226,685.5557 570.6226,685.5557 570.6226,685.5557 C570.6226,685.5557 552.6226,685.5557 552.6226,675.5557 L552.6226,649.5557" fill="#FBFF00" style="stroke:#000000;stroke-width:1;"/><path d="M552.6226,649.5557 C552.6226,659.5557 570.6226,659.5557 570.6226,659.5557 C570.6226,659.5557 588.6226,659.5557 588.6226,649.5557" fill="none" style="stroke:#000000;stroke-width:1;"/></g><g><title>MasterPeer</title><rect fill="#90EE90" height="346.5918" style="stroke:#000000;stroke-width:1;" width="10" x="387.1489" y="207.3506"/></g><g><title>CertDB</title><rect fill="#FFFFFF" height="112.9966" style="stroke:#000000;stroke-width:1;" width="10" x="565.6226" y="367.3472"/></g><rect fill="#000000" height="3" style="stroke:#000000;stroke-width:1;" width="681.4756" x="5" y="162.6516"/><line style="stroke:#FFFFFF;stroke-width:0.5;" x1="5" x2="686.4756" y1="162.6516" y2="162.6516"/><line style="stroke:#FFFFFF;stroke-width:0.5;" x1="5" x2="686.4756" y1="165.6516" y2="165.6516"/><rect fill="#000000" height="23.7993" style="stroke:#FFFFFF;stroke-width:1;" width="132.1045" x="279.6855" y="151.752"/><text fill="#FFFFFF" font-family="Verdana" font-size="13" font-weight="bold" lengthAdjust="spacing" textLength="113.6611" x="285.6855" y="168.8218">PK Registration</text><g class="message" data-participant-1="PA" data-participant-2="MP"><polygon fill="#87CEEB" points="375.1489,203.3506,385.1489,207.3506,375.1489,211.3506,379.1489,207.3506" style="stroke:#87CEEB;stroke-width:1;"/><line style="stroke:#87CEEB;stroke-width:1;" x1="207" x2="381.1489" y1="207.3506" y2="207.3506"/><text fill="#FFFFFF" font-family="Verdana" font-size="13" font-weight="bold" lengthAdjust="spacing" textLength="9.2422" x="214" y="202.6211">1</text><text fill="#FFFFFF" font-family="Verdana" font-size="13" lengthAdjust="spacing" textLength="147.9067" x="227.2422" y="202.6211">EDATA(PK_REGISTER)</text></g><path d="M402,220.3506 L402,261.3506 L580,261.3506 L580,230.3506 L570,220.3506 L402,220.3506" fill="#FFFFFF" style="stroke:#000000;stroke-width:1;"/><path d="M570,220.3506 L570,230.3506 L580,230.3506 L570,220.3506" fill="#FFFFFF" style="stroke:#000000;stroke-width:1;"/><text fill="#000000" font-family="Verdana" font-size="13" lengthAdjust="spacing" textLength="143.3491" x="408" y="238.4204">1. Decrypt with Kyber</text><text fill="#000000" font-family="Verdana" font-size="13" lengthAdjust="spacing" textLength="157.0728" x="408" y="254.2197">2. Verify HMAC-SHA384</text><g class="message" data-participant-1="MP" data-participant-2="MP"><line style="stroke:#90EE90;stroke-width:1;" x1="397.1489" x2="439.1489" y1="288.7485" y2="288.7485"/><line style="stroke:#90EE90;stroke-width:1;" x1="439.1489" x2="439.1489" y1="288.7485" y2="301.7485"/><line style="stroke:#90EE90;stroke-width:1;" x1="398.1489" x2="439.1489" y1="301.7485" y2="301.7485"/><polygon fill="#90EE90" points="408.1489,297.7485,398.1489,301.7485,408.1489,305.7485,404.1489,301.7485" style="stroke:#90EE90;stroke-width:1;"/><text fill="#FFFFFF" font-family="Verdana" font-size="13" font-weight="bold" lengthAdjust="spacing" textLength="9.2422" x="404.1489" y="284.019">2</text><text fill="#FFFFFF" font-family="Verdana" font-size="13" lengthAdjust="spacing" textLength="131.2314" x="417.3911" y="284.019">Generate Certificate</text></g><path d="M234,314.7485 L234,339.7485 L381,339.7485 L381,324.7485 L371,314.7485 L234,314.7485" fill="#FFFFFF" style="stroke:#000000;stroke-width:1;"/><path d="M371,314.7485 L371,324.7485 L381,324.7485 L371,314.7485" fill="#FFFFFF" style="stroke:#000000;stroke-width:1;"/><text fill="#000000" font-family="Verdana" font-size="13" lengthAdjust="spacing" textLength="126.3057" x="240" y="332.8184">Dilithium Signature</text><g class="message" data-participant-1="MP" data-participant-2="DB"><polygon fill="#90EE90" points="553.6226,363.3472,563.6226,367.3472,553.6226,371.3472,557.6226,367.3472" style="stroke:#90EE90;stroke-width:1;"/><line style="stroke:#90EE90;stroke-width:1;" x1="397.1489" x2="559.6226" y1="367.3472" y2="367.3472"/><text fill="#FFFFFF" font-family="Verdana" font-size="13" font-weight="bold" lengthAdjust="spacing" textLength="9.2422" x="404.1489" y="362.6177">3</text><text fill="#FFFFFF" font-family="Verdana" font-size="13" lengthAdjust="spacing" textLength="116.4287" x="417.3911" y="362.6177">Store(ID_A, Cert)</text></g><path d="M580,380.3472 L580,453.3472 L681,453.3472 L681,390.3472 L671,380.3472 L580,380.3472" fill="#FFFFFF" style="stroke:#000000;stroke-width:1;"/><path d="M671,380.3472 L671,390.3472 L681,390.3472 L671,380.3472" fill="#FFFFFF" style="stroke:#000000;stroke-width:1;"/><text fill="#000000" font-family="Verdana" font-size="13" lengthAdjust="spacing" textLength="67.1011" x="586" y="398.417">Structure:</text><text fill="#000000" font-family="Verdana" font-size="13" lengthAdjust="spacing" textLength="77.562" x="586" y="414.2163">- Public Key</text><text fill="#000000" font-family="Verdana" font-size="13" lengthAdjust="spacing" textLength="70.9414" x="586" y="430.0156">- Metadata</text><text fill="#000000" font-family="Verdana" font-size="13" lengthAdjust="spacing" textLength="80.4756" x="586" y="445.8149">- Signatures</text><g class="message" data-participant-1="DB" data-participant-2="MP"><polygon fill="#FFFFFF" points="408.1489,476.3438,398.1489,480.3438,408.1489,484.3438,404.1489,480.3438" style="stroke:#FFFFFF;stroke-width:1;"/><line style="stroke:#FFFFFF;stroke-width:1;stroke-dasharray:2,2;" x1="402.1489" x2="569.6226" y1="480.3438" y2="480.3438"/><text fill="#FFFFFF" font-family="Verdana" font-size="13" font-weight="bold" lengthAdjust="spacing" textLength="9.2422" x="414.1489" y="475.6143">4</text><text fill="#FFFFFF" font-family="Verdana" font-size="13" lengthAdjust="spacing" textLength="82.6401" x="427.3911" y="475.6143">Storage ACK</text></g><rect fill="#000000" height="3" style="stroke:#000000;stroke-width:1;" width="681.4756" x="5" y="509.2434"/><line style="stroke:#FFFFFF;stroke-width:0.5;" x1="5" x2="686.4756" y1="509.2434" y2="509.2434"/><line style="stroke:#FFFFFF;stroke-width:0.5;" x1="5" x2="686.4756" y1="512.2434" y2="512.2434"/><rect fill="#000000" height="23.7993" style="stroke:#FFFFFF;stroke-width:1;" width="158.8916" x="266.292" y="498.3438"/><text fill="#FFFFFF" font-family="Verdana" font-size="13" font-weight="bold" lengthAdjust="spacing" textLength="140.4482" x="272.292" y="515.4136">Certificate Delivery</text><g class="message" data-participant-1="MP" data-participant-2="PA"><polygon fill="#90EE90" points="218,549.9424,208,553.9424,218,557.9424,214,553.9424" style="stroke:#90EE90;stroke-width:1;"/><line style="stroke:#90EE90;stroke-width:1;" x1="212" x2="391.1489" y1="553.9424" y2="553.9424"/><text fill="#FFFFFF" font-family="Verdana" font-size="13" font-weight="bold" lengthAdjust="spacing" textLength="9.2422" x="224" y="549.2129">5</text><text fill="#FFFFFF" font-family="Verdana" font-size="13" lengthAdjust="spacing" textLength="85.8267" x="237.2422" y="549.2129">Cert Package</text></g><path d="M10,566.9424 L10,607.9424 L202,607.9424 L202,576.9424 L192,566.9424 L10,566.9424" fill="#FFFFFF" style="stroke:#000000;stroke-width:1;"/><path d="M192,566.9424 L192,576.9424 L202,576.9424 L192,566.9424" fill="#FFFFFF" style="stroke:#000000;stroke-width:1;"/><text fill="#000000" font-family="Verdana" font-size="13" lengthAdjust="spacing" textLength="171.8945" x="16" y="585.0122">1. Verify Master Signature</text><text fill="#000000" font-family="Verdana" font-size="13" lengthAdjust="spacing" textLength="113.5088" x="16" y="600.8115">2. Store Securely</text><text fill="#FFFFFF" font-family="Verdana" font-size="10" lengthAdjust="spacing" textLength="260.5127" x="214.9814" y="717.6094">Certificate Issuance Protocol v2.1 | NIST-Compliant</text><!--SRC=[xLZxRzis4FxTVyNL7R0Kc3CxQPh4Q8h9ZpmQAn7ij4En3W4jqJPdcTGeAgctvN_VKOz8YYFvqHJhYWe844lt7U- -EzwH1_3uyqnDw8o2vnB6AvK28VWHJbmn92uuH4uXWlXKASR7VY78dpBk4KbcC2JsT2n5m9ssS8M4v_NmMG7fq149N7Kik8gXn-5JPkg5K6YTHsqsOlOwPd8D_BjGK3-jXvx4vfHYX7IeNCrp_MISNI9zLqQ3OIjKiGaFH2C7QkvI8BVK5pEwAcW9UmD59HLgxj75WAx8o1BfKaO6zC-0SXkJ0tr3BbRmoayWvOxrs8Zs6AUvKA_Ws3rkpGsY7uj8nMpc4QxMNRR3RXW2DbarWMwsuXC5CbJXw-B0E5DCy4BPPpzOtMx_shXkN_Ok-t04rUS7- -rkjrKjWPZ6u0f18JB57TQxtSDwAQvhNlO_P22ZuMXKBuKCFk1IPWOIqL8jypuJ-EBT76t7gaMfDAf0VB0Co76n36aI7tUhneTmqu95NWfrE4IH8V4fLDjKgauhLD5fGOwYOXyLKrXxEeoCzHwiDo5q0_fqp7mbYOuu7BlYjbW32PJWmMn8PR7CqH5OvtcbHqU5qiXVxRSSWx-_GLQQqEqOLyQMTNxTxvwSQO9Ub57BRWWscVNO3FkIPEE92XTiR4E7sdBkARXbQWBdStJp8z_PXlTKij4SJasZNHkS6hi7BukzHnFGdmKZOgTEAATIMwhZf_i7_bzkdqj7aNaTvg9LB9Z1W8qvKO6acrZHQJMnNmX9jyuwryPFeI4hCAkJBBkfLY4rMae6jhQr-P7Nm0g6BlRCSphNlqogYCve_V-zJyLR3qseeLDPAs9MjJzaJC5ednTl7PhnfJHvCw71X73P3PNpiWmkvjeocg4sB2ts50rS8T8QqhZFkAXOfEI4sHX63vkkZI_S-IeEcrQnmoCXz1BLhDTdlXyGtPqjAPImXGitEziD-0SkS2FMscBckGohP741_eLo9vYvbUHvhKy6z0tAIrmkRleFs-JjXCMR8MrdGnU5xjzT43mV8pKEuIHyUOf77ecDVff81v42tViVAj3lhYRCddBg-z08tvb4ZXc7lOfkZ4YPi8CPvOc1Dl72wfMSKV8Qedv-LycGk5nmGecpac1KgXCvxVo0_KLXPsS9KlznuIHGatnYis3sAtEmeEs6Pv2xokkVut1KqWEP8QMuxGdNPPxmijIb8e_7A_tUIUyKkK0jI9Y22zyZDdNkPTiYa0oRIYghZt1ucAG3tKFeU8vU-S9bJaOaqx0juZXuyeH6FVCzEPS-TefywDnWGXnngrMCYEjdtNhdqnOMgkZSZjMCvcZJMuofUKXtKKAtYCmduw8XZ-Ny0f5tsM3ePOYC5dw8pGj-2cKIXlPoNzjCsYvrsXFyPISfN69A4YU0Fd5OuCDXNfrBC1jBkVXyryD53AKa6mRnnN8J3UcbQHCLn-cENnDvcfQ0TP6wsk6Uc8RWJCdB2ftPWiVj9YSMPzwZOLd0owXlR8v7SZ2TdCqrH0U5JU0NOhEak1p-WJP7oRkGf7UvifEo-mJfF509rQllcJm-oMFZIRIqdqHBzqcqd3s9belFq8BLluqNhaZPrLh5uYiRu7sRyxXlVRhsVMJsDOpCrXe7nPEmzGT1yIXixUbFF0_x7yvzOge-R-ApZBOlD-Q9L_ulPZlfqfiFT9Ob_fSUvSJhVpr3d9JKxvCRoqMvTsOFa3bVx-N6zavzPszxVmklx-Y31_K3QEmtzrurTm-WtHrSWVx-eh9rOlN0ntiYMk7eKg2lQQZWHUKjkI7G3xXYCzg4Iu_ojvtpv0Lq-GsJWklvI-NjUpCLUFMorc8AbvHe2hmtA_4O0H6sq7VQ9hoxEguTL7g4ZmCCLXCeh-1DbIivns-3Vm40]--></g></svg>