<svg xmlns="http://www.w3.org/2000/svg" xmlns:xlink="http://www.w3.org/1999/xlink" contentStyleType="text/css" data-diagram-type="SEQUENCE" height="732px" preserveAspectRatio="none" style="width:620px;height:732px;background:#000000;" version="1.1" viewBox="0 0 620 732" width="620px" zoomAndPan="magnify"><title>Case 1: Certificate Request Flow</title><defs/><g><text fill="#FFFFFF" font-family="Verdana" font-size="22" font-weight="bold" lengthAdjust="spacing" textLength="399.9746" x="108.6265" y="37.1182">Case 1: Certificate Request Flow</text><g><title>MasterPeer</title><rect fill="#90EE90" height="346.5918" style="stroke:#000000;stroke-width:1;" width="10" x="327.98" y="207.3506"/></g><g><title>CertDB</title><rect fill="#FFFFFF" height="29.7993" style="stroke:#000000;stroke-width:1;" width="10" x="495.8467" y="288.7485"/></g><g><title>PeerB</title><rect fill="#000000" fill-opacity="0.00000" height="491.7891" width="8" x="167" y="131.752"/><line style="stroke:#FFFFFF;stroke-width:1;stroke-dasharray:5,5;" x1="171" x2="171" y1="131.752" y2="623.541"/></g><g><title>MasterPeer</title><rect fill="#000000" fill-opacity="0.00000" height="491.7891" width="8" x="328.98" y="131.752"/><line style="stroke:#FFFFFF;stroke-width:1;stroke-dasharray:5,5;" x1="332.7656" x2="332.7656" y1="131.752" y2="623.541"/></g><g><title>CertDB</title><rect fill="#000000" fill-opacity="0.00000" height="491.7891" width="8" x="496.8467" y="131.752"/><line style="stroke:#FFFFFF;stroke-width:1;stroke-dasharray:5,5;" x1="499.8511" x2="499.8511" y1="131.752" y2="623.541"/></g><g class="participant participant-head" data-participant="PB"><text fill="#FFFFFF" font-family="Verdana" font-size="14" lengthAdjust="spacing" textLength="40.6943" x="147.6528" y="128.8125">PeerB</text><ellipse cx="171" cy="69.7373" fill="#FFB6C1" rx="16" ry="16" style="stroke:#000000;stroke-width:1;"/><path d="M171,89.7373 C175,89.7373 178,89.7373 182,85.7373 C190,85.7373 198,93.7373 198,101.7373 L198,105.7373 C198,109.7373 194,113.7373 190,113.7373 L152,113.7373 C148,113.7373 144,109.7373 144,105.7373 L144,101.7373 C144,93.7373 152,85.7373 160,85.7373 C164,89.7373 167,89.7373 171,89.7373" fill="#FFB6C1" style="stroke:#000000;stroke-width:1;"/></g><g class="participant participant-tail" data-participant="PB"><text fill="#FFFFFF" font-family="Verdana" font-size="14" lengthAdjust="spacing" textLength="40.6943" x="147.6528" y="636.6162">PeerB</text><ellipse cx="171" cy="656.5557" fill="#FFB6C1" rx="16" ry="16" style="stroke:#000000;stroke-width:1;"/><path d="M171,676.5557 C175,676.5557 178,676.5557 182,672.5557 C190,672.5557 198,680.5557 198,688.5557 L198,692.5557 C198,696.5557 194,700.5557 190,700.5557 L152,700.5557 C148,700.5557 144,696.5557 144,692.5557 L144,688.5557 C144,680.5557 152,672.5557 160,672.5557 C164,676.5557 167,676.5557 171,676.5557" fill="#FFB6C1" style="stroke:#000000;stroke-width:1;"/></g><g class="participant participant-head" data-participant="MP"><text fill="#FFFFFF" font-family="Verdana" font-size="14" lengthAdjust="spacing" textLength="78.4287" x="290.7656" y="128.8125">MasterPeer</text><ellipse cx="332.98" cy="69.7373" fill="#90EE90" rx="16" ry="16" style="stroke:#000000;stroke-width:1;"/><path d="M332.98,89.7373 C336.98,89.7373 339.98,89.7373 343.98,85.7373 C351.98,85.7373 359.98,93.7373 359.98,101.7373 L359.98,105.7373 C359.98,109.7373 355.98,113.7373 351.98,113.7373 L313.98,113.7373 C309.98,113.7373 305.98,109.7373 305.98,105.7373 L305.98,101.7373 C305.98,93.7373 313.98,85.7373 321.98,85.7373 C325.98,89.7373 328.98,89.7373 332.98,89.7373" fill="#90EE90" style="stroke:#000000;stroke-width:1;"/></g><g class="participant participant-tail" data-participant="MP"><text fill="#FFFFFF" font-family="Verdana" font-size="14" lengthAdjust="spacing" textLength="78.4287" x="290.7656" y="636.6162">MasterPeer</text><ellipse cx="332.98" cy="656.5557" fill="#90EE90" rx="16" ry="16" style="stroke:#000000;stroke-width:1;"/><path d="M332.98,676.5557 C336.98,676.5557 339.98,676.5557 343.98,672.5557 C351.98,672.5557 359.98,680.5557 359.98,688.5557 L359.98,692.5557 C359.98,696.5557 355.98,700.5557 351.98,700.5557 L313.98,700.5557 C309.98,700.5557 305.98,696.5557 305.98,692.5557 L305.98,688.5557 C305.98,680.5557 313.98,672.5557 321.98,672.5557 C325.98,676.5557 328.98,676.5557 332.98,676.5557" fill="#90EE90" style="stroke:#000000;stroke-width:1;"/></g><g class="participant participant-head" data-participant="DB"><text fill="#FFFFFF" font-family="Verdana" font-size="14" lengthAdjust="spacing" textLength="49.9912" x="472.8511" y="128.8125">CertDB</text><path d="M482.8467,78.7373 C482.8467,68.7373 500.8467,68.7373 500.8467,68.7373 C500.8467,68.7373 518.8467,68.7373 518.8467,78.7373 L518.8467,104.7373 C518.8467,114.7373 500.8467,114.7373 500.8467,114.7373 C500.8467,114.7373 482.8467,114.7373 482.8467,104.7373 L482.8467,78.7373" fill="#FBFF00" style="stroke:#000000;stroke-width:1;"/><path d="M482.8467,78.7373 C482.8467,88.7373 500.8467,88.7373 500.8467,88.7373 C500.8467,88.7373 518.8467,88.7373 518.8467,78.7373" fill="none" style="stroke:#000000;stroke-width:1;"/></g><g class="participant participant-tail" data-participant="DB"><text fill="#FFFFFF" font-family="Verdana" font-size="14" lengthAdjust="spacing" textLength="49.9912" x="472.8511" y="636.6162">CertDB</text><path d="M482.8467,649.5557 C482.8467,639.5557 500.8467,639.5557 500.8467,639.5557 C500.8467,639.5557 518.8467,639.5557 518.8467,649.5557 L518.8467,675.5557 C518.8467,685.5557 500.8467,685.5557 500.8467,685.5557 C500.8467,685.5557 482.8467,685.5557 482.8467,675.5557 L482.8467,649.5557" fill="#FBFF00" style="stroke:#000000;stroke-width:1;"/><path d="M482.8467,649.5557 C482.8467,659.5557 500.8467,659.5557 500.8467,659.5557 C500.8467,659.5557 518.8467,659.5557 518.8467,649.5557" fill="none" style="stroke:#000000;stroke-width:1;"/></g><g><title>MasterPeer</title><rect fill="#90EE90" height="346.5918" style="stroke:#000000;stroke-width:1;" width="10" x="327.98" y="207.3506"/></g><g><title>CertDB</title><rect fill="#FFFFFF" height="29.7993" style="stroke:#000000;stroke-width:1;" width="10" x="495.8467" y="288.7485"/></g><rect fill="#000000" height="3" style="stroke:#000000;stroke-width:1;" width="608.2275" x="5" y="162.6516"/><line style="stroke:#FFFFFF;stroke-width:0.5;" x1="5" x2="613.2275" y1="162.6516" y2="162.6516"/><line style="stroke:#FFFFFF;stroke-width:0.5;" x1="5" x2="613.2275" y1="165.6516" y2="165.6516"/><rect fill="#000000" height="23.7993" style="stroke:#FFFFFF;stroke-width:1;" width="150.7095" x="233.759" y="151.752"/><text fill="#FFFFFF" font-family="Verdana" font-size="13" font-weight="bold" lengthAdjust="spacing" textLength="132.2661" x="239.759" y="168.8218">Request Initiation</text><g class="message" data-participant-1="PB" data-participant-2="MP"><polygon fill="#FFB6C1" points="315.98,203.3506,325.98,207.3506,315.98,211.3506,319.98,207.3506" style="stroke:#FFB6C1;stroke-width:1;"/><line style="stroke:#FFB6C1;stroke-width:1;" x1="171" x2="321.98" y1="207.3506" y2="207.3506"/><text fill="#FFFFFF" font-family="Verdana" font-size="13" font-weight="bold" lengthAdjust="spacing" textLength="9.2422" x="178" y="202.6211">1</text><text fill="#FFFFFF" font-family="Verdana" font-size="13" lengthAdjust="spacing" textLength="124.7378" x="191.2422" y="202.6211">ENC_QUERY(ID_A)</text></g><path d="M342,220.3506 L342,261.3506 L506,261.3506 L506,230.3506 L496,220.3506 L342,220.3506" fill="#FFFFFF" style="stroke:#000000;stroke-width:1;"/><path d="M496,220.3506 L496,230.3506 L506,230.3506 L496,220.3506" fill="#FFFFFF" style="stroke:#000000;stroke-width:1;"/><text fill="#000000" font-family="Verdana" font-size="13" lengthAdjust="spacing" textLength="139.9087" x="348" y="238.4204">1. Decapsulate Kyber</text><text fill="#000000" font-family="Verdana" font-size="13" lengthAdjust="spacing" textLength="143.3237" x="348" y="254.2197">2. Derive Session Key</text><g class="message" data-participant-1="MP" data-participant-2="DB"><polygon fill="#90EE90" points="483.8467,284.7485,493.8467,288.7485,483.8467,292.7485,487.8467,288.7485" style="stroke:#90EE90;stroke-width:1;"/><line style="stroke:#90EE90;stroke-width:1;" x1="337.98" x2="489.8467" y1="288.7485" y2="288.7485"/><text fill="#FFFFFF" font-family="Verdana" font-size="13" font-weight="bold" lengthAdjust="spacing" textLength="9.2422" x="344.98" y="284.019">2</text><text fill="#FFFFFF" font-family="Verdana" font-size="13" lengthAdjust="spacing" textLength="113.3691" x="358.2222" y="284.019">GET_CERT(ID_A)</text></g><g class="message" data-participant-1="DB" data-participant-2="MP"><polygon fill="#FFFFFF" points="348.98,314.5479,338.98,318.5479,348.98,322.5479,344.98,318.5479" style="stroke:#FFFFFF;stroke-width:1;"/><line style="stroke:#FFFFFF;stroke-width:1;stroke-dasharray:2,2;" x1="342.98" x2="499.8467" y1="318.5479" y2="318.5479"/><text fill="#FFFFFF" font-family="Verdana" font-size="13" font-weight="bold" lengthAdjust="spacing" textLength="9.2422" x="354.98" y="313.8184">3</text><text fill="#FFFFFF" font-family="Verdana" font-size="13" lengthAdjust="spacing" textLength="62.8164" x="368.2222" y="313.8184">Cert Data</text></g><path d="M505,331.5479 L505,388.5479 L608,388.5479 L608,341.5479 L598,331.5479 L505,331.5479" fill="#FFFFFF" style="stroke:#000000;stroke-width:1;"/><path d="M598,331.5479 L598,341.5479 L608,341.5479 L598,331.5479" fill="#FFFFFF" style="stroke:#000000;stroke-width:1;"/><text fill="#000000" font-family="Verdana" font-size="13" lengthAdjust="spacing" textLength="43.9131" x="511" y="349.6177">Verify:</text><text fill="#000000" font-family="Verdana" font-size="13" lengthAdjust="spacing" textLength="58.7856" x="511" y="365.417">- Validity</text><text fill="#000000" font-family="Verdana" font-size="13" lengthAdjust="spacing" textLength="82.2275" x="511" y="381.2163">- Revocation</text><rect fill="#000000" height="3" style="stroke:#000000;stroke-width:1;" width="608.2275" x="5" y="414.8455"/><line style="stroke:#FFFFFF;stroke-width:0.5;" x1="5" x2="613.2275" y1="414.8455" y2="414.8455"/><line style="stroke:#FFFFFF;stroke-width:0.5;" x1="5" x2="613.2275" y1="417.8455" y2="417.8455"/><rect fill="#000000" height="23.7993" style="stroke:#FFFFFF;stroke-width:1;" width="133.0757" x="242.5759" y="403.9458"/><text fill="#FFFFFF" font-family="Verdana" font-size="13" font-weight="bold" lengthAdjust="spacing" textLength="114.6323" x="248.5759" y="421.0156">Secure Delivery</text><g class="message" data-participant-1="MP" data-participant-2="MP"><line style="stroke:#90EE90;stroke-width:1;" x1="337.98" x2="379.98" y1="459.5444" y2="459.5444"/><line style="stroke:#90EE90;stroke-width:1;" x1="379.98" x2="379.98" y1="459.5444" y2="472.5444"/><line style="stroke:#90EE90;stroke-width:1;" x1="338.98" x2="379.98" y1="472.5444" y2="472.5444"/><polygon fill="#90EE90" points="348.98,468.5444,338.98,472.5444,348.98,476.5444,344.98,472.5444" style="stroke:#90EE90;stroke-width:1;"/><text fill="#FFFFFF" font-family="Verdana" font-size="13" font-weight="bold" lengthAdjust="spacing" textLength="9.2422" x="344.98" y="454.8149">4</text><text fill="#FFFFFF" font-family="Verdana" font-size="13" lengthAdjust="spacing" textLength="120.6245" x="358.2222" y="454.8149">Package Response</text></g><path d="M169,485.5444 L169,526.5444 L322,526.5444 L322,495.5444 L312,485.5444 L169,485.5444" fill="#FFFFFF" style="stroke:#000000;stroke-width:1;"/><path d="M312,485.5444 L312,495.5444 L322,495.5444 L312,485.5444" fill="#FFFFFF" style="stroke:#000000;stroke-width:1;"/><text fill="#000000" font-family="Verdana" font-size="13" lengthAdjust="spacing" textLength="132.7041" x="175" y="503.6143">ChaCha20-Poly1305</text><text fill="#000000" font-family="Verdana" font-size="13" lengthAdjust="spacing" textLength="91.1587" x="175" y="519.4136">AES-GCM-SIV</text><g class="message" data-participant-1="MP" data-participant-2="PB"><polygon fill="#90EE90" points="182,549.9424,172,553.9424,182,557.9424,178,553.9424" style="stroke:#90EE90;stroke-width:1;"/><line style="stroke:#90EE90;stroke-width:1;" x1="176" x2="331.98" y1="553.9424" y2="553.9424"/><text fill="#FFFFFF" font-family="Verdana" font-size="13" font-weight="bold" lengthAdjust="spacing" textLength="9.2422" x="188" y="549.2129">5</text><text fill="#FFFFFF" font-family="Verdana" font-size="13" lengthAdjust="spacing" textLength="69.6338" x="201.2422" y="549.2129">ENC_CERT</text></g><path d="M10,566.9424 L10,607.9424 L166,607.9424 L166,576.9424 L156,566.9424 L10,566.9424" fill="#FFFFFF" style="stroke:#000000;stroke-width:1;"/><path d="M156,566.9424 L156,576.9424 L166,576.9424 L156,566.9424" fill="#FFFFFF" style="stroke:#000000;stroke-width:1;"/><text fill="#000000" font-family="Verdana" font-size="13" lengthAdjust="spacing" textLength="135.4209" x="16" y="585.0122">1. Decrypt Response</text><text fill="#000000" font-family="Verdana" font-size="13" lengthAdjust="spacing" textLength="97.0493" x="16" y="600.8115">2. Verify Chain</text><text fill="#FFFFFF" font-family="Verdana" font-size="10" lengthAdjust="spacing" textLength="177.6367" x="219.7954" y="717.6094">Cert Retrieval Protocol | PQ-Secure</text><!--SRC=[bLLhRzCm5FtkNs4A4aoeKmlYDQb8RPfE4olBcZ4nCLIvoKrhBRM3utGAW__ElKuwilKXYAegkOzppdquUM8Ni0IUfK8gnfxpurJFHCfZOMvuvSh1MgdcESjlfCg44Ki-4z7DtEX2nPvEjU5FE-vgHCIGY2Ar8wri7J9o5r5yrXPHCuXa8gDjy8e2xXZ7Q_2OgOPnFcrYC0yLaBr1Mbj_4sq_icZQuELjNkHumvTQwMXXD9LionGQWWIbXcJauXPo37dihEM65WneMsQmMVaZQRNLIVFGR7IwjobH7NEt0sXj3ULFuDrtMxltRDmFB_p9DF3nppixFPjiD797I1Y95Bxoxk6RluzNxj4LS5v0iN-cFrp4VmvrU-UQGwMXqF0I6YqWYOgWIRksrSodCe5JgM0Noxr_nu9JJ22CbP7CXBAxO8unDTk7KGNekFo7e3qKsxTWA5SIS_P1hqDsWDVkdTkAffoEk5JIIgtu2v7AkOAOtqgxkE_vD9PYZaEOTWwpOfdobpm0vCHDnlm3zkIPsx5-jMMynrjFtx_pV7_GGjV65Zh_XuxlV-Yqrgc3Xciq6hprkYxL7vzDhXgkP9Oa7PSLNY7g-44MNIsggZ7Md5LdkkNqjhZ8UJ3W3pZN4MEHuv6dE1Ss3hOTe5XOCHCvy9O7nWuhn24YDgKoPgN55un7WTqZJg5qc0I-2oVKqTpoKQfl6HE5rQfOpi2mNk_UTqAp46uSlHvZABZzxO7axnzHtX7tFtlJyo_-vEh5oN3QFw12v8f8jcjtxs8Zvmlhihk7V0YHoF8YfPnF9QguLg_8QkGAU0XvJX8-GSaO8gA63KmKCXmSyMF_Okhvaul7EgWnpK4nDBGHfschQw4UyI5sjocJi2zHJL8UNQislyJTZAKjwNu2Ansv7h4O6eIC6Xb2L1XyWXGBCQNhukuAY3x04oRcD9uyqog7IaKAITKhRo7mzwhJ3dHQTbzttbohlX-sZxrnEpovt0SU3AevKNiQe6Ik1c3ApDxJklvN5HCdVSSRrOq3nXAD6APQFqopHi8AF_A1qLRZQUI_U73Uhkfl_G40]--></g></svg>