<svg xmlns="http://www.w3.org/2000/svg" xmlns:xlink="http://www.w3.org/1999/xlink" contentStyleType="text/css" data-diagram-type="SEQUENCE" height="990px" preserveAspectRatio="none" style="width:934px;height:990px;background:#FFFFFF;" version="1.1" viewBox="0 0 934 990" width="934px" zoomAndPan="magnify"><title>Serialization Flow (to_ai)</title><defs/><g><text fill="#000000" font-family="Verdana" font-size="22" font-weight="bold" lengthAdjust="spacing" textLength="314.9824" x="313.9265" y="37.1182">Serialization Flow (to_ai)</text><g><title>Entity</title><rect fill="#FFFFFF" height="641.585" style="stroke:#000000;stroke-width:1;" width="10" x="221.2559" y="163.5513"/></g><rect fill="#FFFFFF" height="77.3979" style="stroke:#000000;stroke-width:1;" width="573.3589" x="178.8198" y="387.1465"/><rect fill="#FFFFFF" height="99.1973" style="stroke:#000000;stroke-width:1;" width="738.0903" x="178.8198" y="538.1431"/><rect fill="#FFFFFF" height="124.9966" style="stroke:#000000;stroke-width:1;" width="593.3589" x="168.8198" y="651.3403"/><rect fill="#FFFFFF" height="93.1973" style="stroke:#000000;stroke-width:1;" width="573.3589" x="178.8198" y="676.1396"/><g><title>Application</title><rect fill="#000000" fill-opacity="0.00000" height="774.5815" width="8" x="47.5581" y="131.752"/><line style="stroke:#000000;stroke-width:1;" x1="51" x2="51" y1="131.752" y2="906.3335"/></g><g><title>Entity</title><rect fill="#000000" fill-opacity="0.00000" height="774.5815" width="8" x="222.2559" y="131.752"/><line style="stroke:#000000;stroke-width:1;" x1="225.8198" x2="225.8198" y1="131.752" y2="906.3335"/></g><g><title>to_ai()</title><rect fill="#000000" fill-opacity="0.00000" height="774.5815" width="8" x="310.6313" y="131.752"/><line style="stroke:#000000;stroke-width:1;" x1="313.6919" x2="313.6919" y1="131.752" y2="906.3335"/></g><g><title>UAiEntity</title><rect fill="#000000" fill-opacity="0.00000" height="774.5815" width="8" x="499.0366" y="131.752"/><line style="stroke:#000000;stroke-width:1;" x1="502.771" x2="502.771" y1="131.752" y2="906.3335"/></g><g><title>String Buffer</title><rect fill="#000000" fill-opacity="0.00000" height="774.5815" width="8" x="676.1675" y="131.752"/><line style="stroke:#000000;stroke-width:1;" x1="680.1563" x2="680.1563" y1="131.752" y2="906.3335"/></g><g><title>LLM</title><rect fill="#000000" fill-opacity="0.00000" height="774.5815" width="8" x="778.8711" y="131.752"/><line style="stroke:#000000;stroke-width:1;" x1="782.1787" x2="782.1787" y1="131.752" y2="906.3335"/></g><g class="participant participant-head" data-participant="App"><text fill="#000000" font-family="Verdana" font-size="14" lengthAdjust="spacing" textLength="77.1162" x="10" y="128.8125">Application</text><ellipse cx="51.5581" cy="69.7373" fill="#FFFFFF" rx="16" ry="16" style="stroke:#000000;stroke-width:1;"/><path d="M51.5581,89.7373 C55.5581,89.7373 58.5581,89.7373 62.5581,85.7373 C70.5581,85.7373 78.5581,93.7373 78.5581,101.7373 L78.5581,105.7373 C78.5581,109.7373 74.5581,113.7373 70.5581,113.7373 L32.5581,113.7373 C28.5581,113.7373 24.5581,109.7373 24.5581,105.7373 L24.5581,101.7373 C24.5581,93.7373 32.5581,85.7373 40.5581,85.7373 C44.5581,89.7373 47.5581,89.7373 51.5581,89.7373" fill="#FFFFFF" style="stroke:#000000;stroke-width:1;"/></g><g class="participant participant-tail" data-participant="App"><text fill="#000000" font-family="Verdana" font-size="14" lengthAdjust="spacing" textLength="77.1162" x="10" y="919.4087">Application</text><ellipse cx="51.5581" cy="939.3481" fill="#FFFFFF" rx="16" ry="16" style="stroke:#000000;stroke-width:1;"/><path d="M51.5581,959.3481 C55.5581,959.3481 58.5581,959.3481 62.5581,955.3481 C70.5581,955.3481 78.5581,963.3481 78.5581,971.3481 L78.5581,975.3481 C78.5581,979.3481 74.5581,983.3481 70.5581,983.3481 L32.5581,983.3481 C28.5581,983.3481 24.5581,979.3481 24.5581,975.3481 L24.5581,971.3481 C24.5581,963.3481 32.5581,955.3481 40.5581,955.3481 C44.5581,959.3481 47.5581,959.3481 51.5581,959.3481" fill="#FFFFFF" style="stroke:#000000;stroke-width:1;"/></g><g class="participant participant-head" data-participant="Entity"><rect fill="#FFFFFF" height="31.0146" rx="2.5" ry="2.5" style="stroke:#000000;stroke-width:1;" width="54.8721" x="198.8198" y="99.7373"/><text fill="#000000" font-family="Verdana" font-size="14" lengthAdjust="spacing" textLength="40.8721" x="205.8198" y="120.8125">Entity</text></g><g class="participant participant-tail" data-participant="Entity"><rect fill="#FFFFFF" height="31.0146" rx="2.5" ry="2.5" style="stroke:#000000;stroke-width:1;" width="54.8721" x="198.8198" y="905.3335"/><text fill="#000000" font-family="Verdana" font-size="14" lengthAdjust="spacing" textLength="40.8721" x="205.8198" y="926.4087">Entity</text></g><g class="participant participant-head" data-participant="ToAI"><rect fill="#FFFFFF" height="31.0146" rx="2.5" ry="2.5" style="stroke:#000000;stroke-width:1;" width="61.8789" x="283.6919" y="99.7373"/><text fill="#000000" font-family="Verdana" font-size="14" lengthAdjust="spacing" textLength="47.8789" x="290.6919" y="120.8125">to_ai()</text></g><g class="participant participant-tail" data-participant="ToAI"><rect fill="#FFFFFF" height="31.0146" rx="2.5" ry="2.5" style="stroke:#000000;stroke-width:1;" width="61.8789" x="283.6919" y="905.3335"/><text fill="#000000" font-family="Verdana" font-size="14" lengthAdjust="spacing" textLength="47.8789" x="290.6919" y="926.4087">to_ai()</text></g><g class="participant participant-head" data-participant="Helper"><rect fill="#FFFFFF" height="31.0146" rx="2.5" ry="2.5" style="stroke:#000000;stroke-width:1;" width="78.5313" x="463.771" y="99.7373"/><text fill="#000000" font-family="Verdana" font-size="14" lengthAdjust="spacing" textLength="64.5313" x="470.771" y="120.8125">UAiEntity</text></g><g class="participant participant-tail" data-participant="Helper"><rect fill="#FFFFFF" height="31.0146" rx="2.5" ry="2.5" style="stroke:#000000;stroke-width:1;" width="78.5313" x="463.771" y="905.3335"/><text fill="#000000" font-family="Verdana" font-size="14" lengthAdjust="spacing" textLength="64.5313" x="470.771" y="926.4087">UAiEntity</text></g><g class="participant participant-head" data-participant="Buffer"><rect fill="#FFFFFF" height="31.0146" rx="2.5" ry="2.5" style="stroke:#000000;stroke-width:1;" width="104.0225" x="628.1563" y="99.7373"/><text fill="#000000" font-family="Verdana" font-size="14" lengthAdjust="spacing" textLength="90.0225" x="635.1563" y="120.8125">String Buffer</text></g><g class="participant participant-tail" data-participant="Buffer"><rect fill="#FFFFFF" height="31.0146" rx="2.5" ry="2.5" style="stroke:#000000;stroke-width:1;" width="104.0225" x="628.1563" y="905.3335"/><text fill="#000000" font-family="Verdana" font-size="14" lengthAdjust="spacing" textLength="90.0225" x="635.1563" y="926.4087">String Buffer</text></g><g class="participant participant-head" data-participant="LLM"><rect fill="#FFFFFF" height="31.0146" rx="2.5" ry="2.5" style="stroke:#000000;stroke-width:1;" width="41.3848" x="762.1787" y="99.7373"/><text fill="#000000" font-family="Verdana" font-size="14" lengthAdjust="spacing" textLength="27.3848" x="769.1787" y="120.8125">LLM</text></g><g class="participant participant-tail" data-participant="LLM"><rect fill="#FFFFFF" height="31.0146" rx="2.5" ry="2.5" style="stroke:#000000;stroke-width:1;" width="41.3848" x="762.1787" y="905.3335"/><text fill="#000000" font-family="Verdana" font-size="14" lengthAdjust="spacing" textLength="27.3848" x="769.1787" y="926.4087">LLM</text></g><g><title>Entity</title><rect fill="#FFFFFF" height="641.585" style="stroke:#000000;stroke-width:1;" width="10" x="221.2559" y="163.5513"/></g><g class="message" data-participant-1="App" data-participant-2="Entity"><polygon fill="#000000" points="209.2559,159.5513,219.2559,163.5513,209.2559,167.5513,213.2559,163.5513" style="stroke:#000000;stroke-width:1;"/><line style="stroke:#000000;stroke-width:1;" x1="51.5581" x2="215.2559" y1="163.5513" y2="163.5513"/><text fill="#000000" font-family="Verdana" font-size="13" lengthAdjust="spacing" textLength="116.981" x="58.5581" y="158.8218">entity.to_ai(level)</text></g><g class="message" data-participant-1="Entity" data-participant-2="Buffer"><polygon fill="#000000" points="668.1675,189.3506,678.1675,193.3506,668.1675,197.3506,672.1675,193.3506" style="stroke:#000000;stroke-width:1;"/><line style="stroke:#000000;stroke-width:1;" x1="231.2559" x2="674.1675" y1="193.3506" y2="193.3506"/><text fill="#000000" font-family="Verdana" font-size="13" lengthAdjust="spacing" textLength="84.7603" x="238.2559" y="188.6211">create String</text></g><g class="message" data-participant-1="Entity" data-participant-2="Helper"><polygon fill="#000000" points="491.0366,219.1499,501.0366,223.1499,491.0366,227.1499,495.0366,223.1499" style="stroke:#000000;stroke-width:1;"/><line style="stroke:#000000;stroke-width:1;" x1="231.2559" x2="497.0366" y1="223.1499" y2="223.1499"/><text fill="#000000" font-family="Verdana" font-size="13" lengthAdjust="spacing" textLength="188.5635" x="238.2559" y="218.4204">to_ai_start(buffer, entity_id)</text></g><g class="message" data-participant-1="Helper" data-participant-2="Buffer"><polygon fill="#000000" points="668.1675,248.9492,678.1675,252.9492,668.1675,256.9492,672.1675,252.9492" style="stroke:#000000;stroke-width:1;"/><line style="stroke:#000000;stroke-width:1;" x1="503.0366" x2="674.1675" y1="252.9492" y2="252.9492"/><text fill="#000000" font-family="Verdana" font-size="13" lengthAdjust="spacing" textLength="122.1035" x="510.0366" y="248.2197">append "611dd51"</text></g><g class="message" data-participant-1="Entity" data-participant-2="Helper"><polygon fill="#000000" points="491.0366,278.7485,501.0366,282.7485,491.0366,286.7485,495.0366,282.7485" style="stroke:#000000;stroke-width:1;"/><line style="stroke:#000000;stroke-width:1;" x1="231.2559" x2="497.0366" y1="282.7485" y2="282.7485"/><text fill="#000000" font-family="Verdana" font-size="13" lengthAdjust="spacing" textLength="136.1128" x="238.2559" y="278.019">to_ai_hex(buffer, id)</text></g><g class="message" data-participant-1="Helper" data-participant-2="Buffer"><polygon fill="#000000" points="668.1675,308.5479,678.1675,312.5479,668.1675,316.5479,672.1675,312.5479" style="stroke:#000000;stroke-width:1;"/><line style="stroke:#000000;stroke-width:1;" x1="503.0366" x2="674.1675" y1="312.5479" y2="312.5479"/><text fill="#000000" font-family="Verdana" font-size="13" lengthAdjust="spacing" textLength="132.1455" x="510.0366" y="307.8184">append "&#166;abc123..."</text></g><g class="message" data-participant-1="Entity" data-participant-2="Helper"><polygon fill="#000000" points="491.0366,338.3472,501.0366,342.3472,491.0366,346.3472,495.0366,342.3472" style="stroke:#000000;stroke-width:1;"/><line style="stroke:#000000;stroke-width:1;" x1="231.2559" x2="497.0366" y1="342.3472" y2="342.3472"/><text fill="#000000" font-family="Verdana" font-size="13" lengthAdjust="spacing" textLength="121.5957" x="238.2559" y="337.6177">to_ai(buffer, time)</text></g><g class="message" data-participant-1="Helper" data-participant-2="Buffer"><polygon fill="#000000" points="668.1675,368.1465,678.1675,372.1465,668.1675,376.1465,672.1675,372.1465" style="stroke:#000000;stroke-width:1;"/><line style="stroke:#000000;stroke-width:1;" x1="503.0366" x2="674.1675" y1="372.1465" y2="372.1465"/><text fill="#000000" font-family="Verdana" font-size="13" lengthAdjust="spacing" textLength="153.1309" x="510.0366" y="367.417">append "&#166;1763212259"</text></g><path d="M178.8198,387.1465 L255.2026,387.1465 L255.2026,394.9458 L245.2026,404.9458 L178.8198,404.9458 L178.8198,387.1465" fill="#FFFFFF" style="stroke:#000000;stroke-width:1;"/><rect fill="none" height="77.3979" style="stroke:#000000;stroke-width:1;" width="573.3589" x="178.8198" y="387.1465"/><text fill="#000000" font-family="Verdana" font-size="13" font-weight="bold" lengthAdjust="spacing" textLength="31.3828" x="193.8198" y="401.2163">loop</text><text fill="#000000" font-family="Verdana" font-size="11" font-weight="bold" lengthAdjust="spacing" textLength="93.2637" x="270.2026" y="400.2056">[for each field]</text><g class="message" data-participant-1="Entity" data-participant-2="Helper"><polygon fill="#000000" points="491.0366,422.7451,501.0366,426.7451,491.0366,430.7451,495.0366,426.7451" style="stroke:#000000;stroke-width:1;"/><line style="stroke:#000000;stroke-width:1;" x1="231.2559" x2="497.0366" y1="426.7451" y2="426.7451"/><text fill="#000000" font-family="Verdana" font-size="13" lengthAdjust="spacing" textLength="128.3306" x="238.2559" y="422.0156">to_ai*(buffer, field)</text></g><g class="message" data-participant-1="Helper" data-participant-2="Buffer"><polygon fill="#000000" points="668.1675,452.5444,678.1675,456.5444,668.1675,460.5444,672.1675,456.5444" style="stroke:#000000;stroke-width:1;"/><line style="stroke:#000000;stroke-width:1;" x1="503.0366" x2="674.1675" y1="456.5444" y2="456.5444"/><text fill="#000000" font-family="Verdana" font-size="13" lengthAdjust="spacing" textLength="105.5234" x="510.0366" y="451.8149">append "&#166;value"</text></g><g class="message" data-participant-1="Entity" data-participant-2="Helper"><polygon fill="#000000" points="491.0366,489.3438,501.0366,493.3438,491.0366,497.3438,495.0366,493.3438" style="stroke:#000000;stroke-width:1;"/><line style="stroke:#000000;stroke-width:1;" x1="231.2559" x2="497.0366" y1="493.3438" y2="493.3438"/><text fill="#000000" font-family="Verdana" font-size="13" lengthAdjust="spacing" textLength="115.5527" x="238.2559" y="488.6143">to_ai_end(buffer)</text></g><g class="message" data-participant-1="Helper" data-participant-2="Buffer"><polygon fill="#000000" points="668.1675,519.1431,678.1675,523.1431,668.1675,527.1431,672.1675,523.1431" style="stroke:#000000;stroke-width:1;"/><line style="stroke:#000000;stroke-width:1;" x1="503.0366" x2="674.1675" y1="523.1431" y2="523.1431"/><text fill="#000000" font-family="Verdana" font-size="13" lengthAdjust="spacing" textLength="70.4844" x="510.0366" y="518.4136">append "&#166;"</text></g><path d="M178.8198,538.1431 L242.8691,538.1431 L242.8691,545.9424 L232.8691,555.9424 L178.8198,555.9424 L178.8198,538.1431" fill="#FFFFFF" style="stroke:#000000;stroke-width:1;"/><rect fill="none" height="99.1973" style="stroke:#000000;stroke-width:1;" width="738.0903" x="178.8198" y="538.1431"/><text fill="#000000" font-family="Verdana" font-size="13" font-weight="bold" lengthAdjust="spacing" textLength="19.0493" x="193.8198" y="552.2129">alt</text><text fill="#000000" font-family="Verdana" font-size="11" font-weight="bold" lengthAdjust="spacing" textLength="129.3735" x="257.8691" y="551.2021">[has nested entities]</text><g class="message" data-participant-1="Entity" data-participant-2="Helper"><polygon fill="#000000" points="491.0366,573.7417,501.0366,577.7417,491.0366,581.7417,495.0366,577.7417" style="stroke:#000000;stroke-width:1;"/><line style="stroke:#000000;stroke-width:1;" x1="231.2559" x2="497.0366" y1="577.7417" y2="577.7417"/><text fill="#000000" font-family="Verdana" font-size="13" lengthAdjust="spacing" textLength="247.7808" x="238.2559" y="573.0122">to_ai_entity(buffer, level, key, entity)</text></g><g class="message" data-participant-1="Helper" data-participant-2="Buffer"><polygon fill="#000000" points="668.1675,622.3403,678.1675,626.3403,668.1675,630.3403,672.1675,626.3403" style="stroke:#000000;stroke-width:1;"/><line style="stroke:#000000;stroke-width:1;" x1="503.0366" x2="674.1675" y1="626.3403" y2="626.3403"/><text fill="#000000" font-family="Verdana" font-size="13" lengthAdjust="spacing" textLength="58.6143" x="510.0366" y="605.8115">append "</text><text fill="#000000" font-family="Verdana" font-size="13" lengthAdjust="spacing" textLength="63.356" x="510.0366" y="621.6108">1&#166;key&#166;..."</text></g><path d="M685,590.7417 L685,631.7417 L901,631.7417 L901,600.7417 L891,590.7417 L685,590.7417" fill="#FFFFFF" style="stroke:#000000;stroke-width:1;"/><path d="M891,590.7417 L891,600.7417 L901,600.7417 L891,590.7417" fill="#FFFFFF" style="stroke:#000000;stroke-width:1;"/><text fill="#000000" font-family="Verdana" font-size="13" lengthAdjust="spacing" textLength="168.9365" x="691" y="608.8115">Nested entities at level+1</text><text fill="#000000" font-family="Verdana" font-size="13" lengthAdjust="spacing" textLength="195.7427" x="691" y="624.6108">Format: level&#166;key&#166;EntityID&#166;...</text><path d="M168.8198,651.3403 L232.8691,651.3403 L232.8691,659.1396 L222.8691,669.1396 L168.8198,669.1396 L168.8198,651.3403" fill="#FFFFFF" style="stroke:#000000;stroke-width:1;"/><rect fill="none" height="124.9966" style="stroke:#000000;stroke-width:1;" width="593.3589" x="168.8198" y="651.3403"/><text fill="#000000" font-family="Verdana" font-size="13" font-weight="bold" lengthAdjust="spacing" textLength="19.0493" x="183.8198" y="665.4102">alt</text><text fill="#000000" font-family="Verdana" font-size="11" font-weight="bold" lengthAdjust="spacing" textLength="70.6299" x="247.8691" y="664.3994">[has maps]</text><path d="M178.8198,676.1396 L255.2026,676.1396 L255.2026,683.939 L245.2026,693.939 L178.8198,693.939 L178.8198,676.1396" fill="#FFFFFF" style="stroke:#000000;stroke-width:1;"/><rect fill="none" height="93.1973" style="stroke:#000000;stroke-width:1;" width="573.3589" x="178.8198" y="676.1396"/><text fill="#000000" font-family="Verdana" font-size="13" font-weight="bold" lengthAdjust="spacing" textLength="31.3828" x="193.8198" y="690.2095">loop</text><text fill="#000000" font-family="Verdana" font-size="11" font-weight="bold" lengthAdjust="spacing" textLength="129.3198" x="270.2026" y="689.1987">[for each map entry]</text><g class="message" data-participant-1="Entity" data-participant-2="Helper"><polygon fill="#000000" points="491.0366,711.7383,501.0366,715.7383,491.0366,719.7383,495.0366,715.7383" style="stroke:#000000;stroke-width:1;"/><line style="stroke:#000000;stroke-width:1;" x1="231.2559" x2="497.0366" y1="715.7383" y2="715.7383"/><text fill="#000000" font-family="Verdana" font-size="13" lengthAdjust="spacing" textLength="229.9312" x="238.2559" y="711.0088">to_ai_map(buffer, level, key, map)</text></g><g class="message" data-participant-1="Helper" data-participant-2="Buffer"><polygon fill="#000000" points="668.1675,757.3369,678.1675,761.3369,668.1675,765.3369,672.1675,761.3369" style="stroke:#000000;stroke-width:1;"/><line style="stroke:#000000;stroke-width:1;" x1="503.0366" x2="674.1675" y1="761.3369" y2="761.3369"/><text fill="#000000" font-family="Verdana" font-size="13" lengthAdjust="spacing" textLength="58.6143" x="510.0366" y="740.8081">append "</text><text fill="#000000" font-family="Verdana" font-size="13" lengthAdjust="spacing" textLength="63.356" x="510.0366" y="756.6074">1&#166;key&#166;..."</text></g><g class="message" data-participant-1="Entity" data-participant-2="App"><polygon fill="#000000" points="62.5581,801.1362,52.5581,805.1362,62.5581,809.1362,58.5581,805.1362" style="stroke:#000000;stroke-width:1;"/><line style="stroke:#000000;stroke-width:1;" x1="56.5581" x2="225.2559" y1="805.1362" y2="805.1362"/><text fill="#000000" font-family="Verdana" font-size="13" lengthAdjust="spacing" textLength="145.6978" x="68.5581" y="800.4067">return compact_string</text></g><g class="message" data-participant-1="App" data-participant-2="LLM"><polygon fill="#000000" points="770.8711,857.6345,780.8711,861.6345,770.8711,865.6345,774.8711,861.6345" style="stroke:#000000;stroke-width:1;"/><line style="stroke:#000000;stroke-width:1;" x1="51.5581" x2="776.8711" y1="861.6345" y2="861.6345"/><text fill="#000000" font-family="Verdana" font-size="13" lengthAdjust="spacing" textLength="136.1255" x="58.5581" y="856.905">send compact_string</text></g><path d="M787,818.1362 L787,891.1362 L927,891.1362 L927,828.1362 L917,818.1362 L787,818.1362" fill="#FFFFFF" style="stroke:#000000;stroke-width:1;"/><path d="M917,818.1362 L917,828.1362 L927,828.1362 L917,818.1362" fill="#FFFFFF" style="stroke:#000000;stroke-width:1;"/><text fill="#000000" font-family="Verdana" font-size="13" lengthAdjust="spacing" textLength="119.9644" x="793" y="836.2061">Optimized format:</text><text fill="#000000" font-family="Verdana" font-size="13" lengthAdjust="spacing" textLength="108.8306" x="793" y="852.0054">- Minimal tokens</text><text fill="#000000" font-family="Verdana" font-size="13" lengthAdjust="spacing" textLength="90.3398" x="793" y="867.8047">- Fast parsing</text><text fill="#000000" font-family="Verdana" font-size="13" lengthAdjust="spacing" textLength="118.1362" x="793" y="883.604">- Human readable</text><!--SRC=[bLJDZjem4BxxAQRfXRIxI66rMvL39Vg3TgNTza1xguI6P00BnxOSmvPz81w49zk97IAW1LHVOizyyytd6K_U-3cL15QXrA9QI6tHOGaJp1SpPvQw-6AKSV1s6DOU0dDltCYl5G4-KsLA4bvwFet8ILJo1Rqq6eRAF4F7cp7AL8WG1Cd0MYNp04W0A-2pO5OlSsbHUqY-QUPQ1r_S7he3NISD_fzcy73e_JMGU_7tf2ovGyJ8Ewbdy7avdP8BgBWzH3q-FWKVVuLWYN3zgL43VQ2mwKObYbQaqlfsSeMUTff5W-QuoCznkQCQ4HNi0Q9C1WJ6SULPIMSIegwQP6DPfAB1xLEYjQGBIEwoh2XkiqISfftJdvRq0jjsWvCywzrqkzqpZ2sRboLTuCi-tDtqibxlzYCJAcCiJFan4EPpc4fIXG1UfnAzQpC5R1h0PzEjK2qf4NmwKn3sDiGNnBDaL1xc_1uqLPwAs1H9rLdPuzYwLdnuALUmeFMkgnTlybjdsmq7R3UX5JLQ6tv2JixcFXphzVrG5A2FkTvdBMHeN8c-7-qDPTJzy3MG1sITi-QFXTlTkKGRBthODpRNATswJNAo40pzPnNOdhRH_rU6Mk5HU-inxOCZltGQSbDQdaaUfZ1i1VqreCrKyuHpL5NdEOevglGFo-zSld2Xfx6OmNeDJrBB4XLVTK6wQen3h3pm7wMgYQBfVbcYPdbOu4I54iTQlm80]--></g></svg>