<?xml version="1.0" encoding="UTF-8" standalone="no"?>
<!-- Uploaded to: SVG Repo, www.svgrepo.com, Generator: SVG Repo Mixer Tools -->

<svg
   aria-label="WebAssembly"
   role="img"
   viewBox="0 0 512 512"
   version="1.1"
   id="svg1"
   sodipodi:docname="webassembly-svgrepo-com.svg"
   inkscape:version="1.4.2 (2aeb623e1d, 2025-05-12)"
   xmlns:inkscape="http://www.inkscape.org/namespaces/inkscape"
   xmlns:sodipodi="http://sodipodi.sourceforge.net/DTD/sodipodi-0.dtd"
   xmlns="http://www.w3.org/2000/svg"
   xmlns:svg="http://www.w3.org/2000/svg">
  <defs
     id="defs1" />
  <sodipodi:namedview
     id="namedview1"
     pagecolor="#ffffff"
     bordercolor="#000000"
     borderopacity="0.25"
     inkscape:showpageshadow="2"
     inkscape:pageopacity="0.0"
     inkscape:pagecheckerboard="0"
     inkscape:deskcolor="#d1d1d1"
     inkscape:zoom="2.6699219"
     inkscape:cx="255.81273"
     inkscape:cy="256"
     inkscape:window-width="2880"
     inkscape:window-height="1731"
     inkscape:window-x="0"
     inkscape:window-y="0"
     inkscape:window-maximized="1"
     inkscape:current-layer="svg1" />
  <path
     fill="#654ff0"
     d="m159.1 270.1h24l16.5 87.2 19.8-87.2h22.5l17.9 88.3 18.9-88.3h23.5l-30.6 128.2h-23.8L230 311l-19.1 87.3h-24.3zm170.2 0h37.8l37.5 128.2h-24.7l-8.2-28.6h-43.1l-6.3 28.6h-24.1zm14.4 31.6-10.5 47h32.6l-12.1-47zM297.4 75c0 .6 0 1.3 0 2c0 22.9-18.6 41.5-41.5 41.5c-22.9 0-41.5-18.6-41.5-41.5c0-.7 0-1.4 0-2H75V437H437V75z"
     id="path1" />
</svg>
